<svg xmlns="http://www.w3.org/2000/svg" width="182" height="60" fill="none"><path fill="#fff" d="M71.33 12h7.2v28.8h7.2v-36h-7.2c-3.96 0-7.2 3.24-7.2 7.2ZM92.93 40.8h7.2V26.4c0-3.96-3.24-7.2-7.2-7.2v21.6ZM107.33 19.2v21.6h7.2V26.4h7.2v7.2c0 3.96 3.24 7.2 7.2 7.2V26.4c0-3.96-3.24-7.2-7.2-7.2h-14.4ZM172.13 19.2h-7.2V12c0-3.96-3.24-7.2-7.2-7.2v28.8h-14.4v-7.2h7.2v-7.2h-7.2c-3.96 0-7.2 3.24-7.2 7.2v7.2c0 3.96 3.24 7.2 7.2 7.2h21.6V26.4h7.2v7.2c0 3.96 3.24 7.2 7.2 7.2V26.4c0-3.96-3.24-7.2-7.2-7.2ZM92.93 12h7.2c0-3.96-3.24-7.2-7.2-7.2V12ZM81.514 52.963H78.53v-4.886h2.912v.803h-2.027v1.214h1.811v.803h-1.811v1.264h2.1v.802ZM94.594 48.077h1.036l-1.697 2.394 1.761 2.492H94.66l-1.301-1.836-1.295 1.836h-1.035l1.762-2.492-1.683-2.394h1.035l1.237 1.766 1.215-1.766ZM108.678 51.846l.338.643c-.158.162-.386.295-.683.397a2.78 2.78 0 0 1-.927.154c-.767 0-1.393-.23-1.877-.691-.479-.46-.719-1.07-.719-1.829 0-.726.228-1.329.683-1.808.451-.475 1.081-.712 1.891-.712.642 0 1.153.165 1.531.496l-.395.635a2.056 2.056 0 0 0-1.136-.328c-.479 0-.872.156-1.179.467-.307.312-.46.729-.46 1.25 0 .512.16.926.482 1.243.325.316.745.474 1.258.474.441 0 .839-.13 1.193-.39ZM122.945 52.963h-.877v-2.087h-2.301v2.087h-.884v-4.886h.884v1.996h2.301v-1.996h.877v4.886Z"/><path fill="#fff" fill-rule="evenodd" d="M132.679 52.963h.892l.524-1.25h2.151l.524 1.25h.942l-2.129-4.9h-.776l-2.128 4.9Zm2.495-3.79.733 1.738h-1.473l.74-1.738Z" clip-rule="evenodd"/><path fill="#fff" d="M151.753 48.077v4.886h-.705l-2.768-3.385v3.385h-.826v-4.886h.704l2.768 3.4v-3.4h.827ZM165.443 51.134h-1.216v-.803h2.043v2.025c-.216.21-.504.377-.863.503-.36.12-.7.181-1.021.181-.815 0-1.457-.228-1.928-.684-.464-.452-.697-1.063-.697-1.836 0-.717.231-1.315.69-1.794.461-.484 1.067-.726 1.819-.726.642 0 1.182.165 1.618.496l-.373.684a1.288 1.288 0 0 0-.497-.273 1.982 1.982 0 0 0-.64-.104c-.502 0-.908.153-1.215.46-.311.303-.467.722-.467 1.257 0 .517.156.933.467 1.25.307.311.72.467 1.237.467.182 0 .379-.032.589-.098.211-.07.363-.148.454-.237v-.768ZM179.33 52.963h-2.984v-4.886h2.912v.803h-2.028v1.214h1.812v.803h-1.812v1.264h2.1v.802ZM16.042 33.063l1.68-12.652L3.127 10.278l13.335 4.515 3.15-4.83 11.498-7.14 25.357 13.965 1.313 21.315-11.288 15.698-8.925 1.365 4.62-8.452v-8.138l-3.36-6.352-3.413-2.258-5.25 5.407v5.723l-4.095 3.833-5.197.63-2.31 1.312-3.78-1.208-1.575-5.67 2.835-3.99v-2.94Z"/><path fill="silver" d="M39.352 10.174c-2.782-.578-5.827-.42-5.827-.42s-.998 4.62-7.193 5.827c.053 0 8.19 2.782 13.02-5.407ZM41.872 52.069c3.36-2.625 5.88-6.248 7.035-10.343.053-.157.525-.42.84-.63.525-.315 1.05-.577 1.155-.997.21-1.208.315-2.468.315-3.728 0-.472-.472-.945-.945-1.417-.367-.315-.735-.683-.735-.945-.525-4.778-2.73-9.24-6.247-12.495l-.368.367c3.413 3.203 5.618 7.56 6.09 12.18.053.42.473.84.893 1.26.367.315.787.788.787.998 0 1.207-.105 2.415-.315 3.622-.052.21-.525.42-.892.63-.525.263-.998.525-1.103.945-1.26 4.463-4.147 8.348-7.98 10.868.683-1.47 2.835-6.248 3.99-8.663l-.21-7.77-6.667-6.457-3.78.525-4.148 6.72s1.943 2.467-.787 5.355c-2.678 2.835-4.778 3.465-4.778 3.465l-1.942-1.05c.577-.735 1.732-1.838 2.625-2.573 1.522-1.26 3.045-1.365 3.045-2.73.052-2.835-2.993-2.047-2.993-2.047l-1.102 1.05-.473 3.885-2.31 2.887-.262-.052-3.78-.84s2.31-1.208 2.677-2.573c.368-1.312-.735-5.67-.787-5.932.052.052 1.102.945 1.575 2.415.84-2.31 1.942-4.515 2.257-4.725.315-.21 4.568-2.468 4.568-2.468l-1.418 3.728 1.05-.578 2.52-6.195s2.468-1.207 4.305-1.207c3.308-.053 8.19-4.095 5.985-11.34.63.262 11.55 5.722 13.44 16.432 1.418 8.243-3.255 15.96-11.13 20.423Z"/><path fill="#CCC" d="M29.377 11.329c1.208-1.418.735-3.518.735-3.518l-3.517 5.198c-.053 0 1.26.052 2.782-1.68ZM17.565 39.731l.42-2.1s-1.733 3.045-1.89 3.465c-.158.473.105 1.313.787 1.26.683-.052 1.523-1.05 1.523-1.785 0-.945-.84-.84-.84-.84Z"/><path fill="#CCC" fill-rule="evenodd" d="M48.75 6.341s2.625.105 5.355.42C47.962 1.931 42.135.514 37.41.514c-6.463 0-10.856 2.638-11.177 2.83l-.006.005L28.275.094s-8.19-.788-11.078 7.875c-.735-1.838-1.417-4.515-1.417-4.515s-4.253 3.727-2.258 9.922C8.64 11.591 1.657 9.124 1.395 9.071c-.368-.052-.473.105-.473.105s-.105.158.21.42c.578.473 11.603 8.61 14.018 10.185-.525 1.89-.525 2.783 0 3.675.735 1.208.787 1.838.682 2.73-.105.893-1.05 8.61-1.26 9.555-.085.382-.494 1.157-.946 2.01-.668 1.263-1.427 2.698-1.364 3.293.105.997 1.47 5.25 2.678 5.722.892.315 3.097.998 4.567.998.525 0 .998-.105 1.208-.315.892-.788 1.155-.945 1.785-.945h.157c.12 0 .252.01.394.023.168.014.352.03.551.03.84 0 1.943-.158 2.73-.893.544-.545 1.276-1.183 1.962-1.782.77-.672 1.485-1.295 1.818-1.683.788-.998 1.208-2.363.998-3.728-.158-1.26.525-2.362 1.312-3.465.998-1.312 2.835-3.675 2.835-3.675 3.623 2.73 5.88 6.878 5.88 11.498 0 8.19-7.14 14.805-15.96 14.805a16.93 16.93 0 0 1-3.99-.473c4.043 1.418 7.455 1.89 10.238 1.89 5.932 0 9.082-2.152 9.082-2.152s-1.102 1.417-2.887 3.045h.052c9.818-1.365 14.595-9.45 14.595-9.45s-.367 2.625-.84 4.41c12.74-9.568 10.97-21.48 10.823-22.468l-.004-.027-.004-.028c.065.097.59.736 1.144 1.407.342.416.695.845.956 1.166C66.442 13.324 48.75 6.34 48.75 6.34ZM27.372 42.093l-.462.42c-.22.202-.445.403-.669.601-.418.373-.827.737-1.169 1.08-.21.21-.63.315-1.26.315H22.237c.788-1.05 3.098-3.465 3.885-3.99.945-.63 1.418-1.26.84-2.363-.577-1.102-2.1-.84-2.1-.84s.893-.367 1.68-.367c-.997-.263-2.257 0-2.835.577-.42.385-.513 1.423-.607 2.462-.046.519-.093 1.038-.18 1.476-.236 1.222-.976 1.897-2.109 2.93l-.411.377c-.735.683-1.26.893-1.68.893-.893-.158-1.943-.42-2.678-.683-.525-.682-1.312-2.94-1.522-3.885.113-.378.471-1.055.78-1.64h.001c.12-.228.233-.441.321-.617l.088-.168c.576-1.104.915-1.752 1.015-2.352.21-.893.892-6.405 1.155-8.715.682.892 1.627 2.362 1.417 3.307 1.523-2.152.42-4.252-.105-5.092-.472-.84-1.102-2.52-.577-4.305.525-1.785 2.415-6.72 2.415-6.72s.63 1.102 1.522.892c.893-.21 8.085-11.025 8.085-11.025s1.943 4.253-.105 7.35c-2.1 3.098-4.147 3.675-4.147 3.675s2.887.525 5.565-1.417c1.102 2.572 2.152 5.25 2.205 5.617l-.232.55c-.588 1.4-2.062 4.911-2.236 5.173-.105.105-.84.315-1.365.42-.892.262-1.417.42-1.627.577-.368.315-2.048 4.935-2.835 7.193-.945.262-1.89.787-2.573 1.837.368-.262 1.523-.42 2.363-.525.735-.052 2.992 1.155 3.57 3.413v.105c.105.84-.158 1.627-.578 2.257-.162.202-.73.717-1.27 1.206Zm-3.218-2.452c-.028.509-.075 1.338-.447 1.875.036-.036.148-.154.294-.308l.002-.002v-.001c.276-.291.672-.71.912-.949.163-.147.347-.264.523-.375.388-.246.737-.467.737-.937 0-.735-.998-.893-1.418-.788-.42.105-.525.788-.577 1.155-.012.078-.018.193-.026.33Zm20.5-8.152c.526-2.678.578-4.988.42-6.878 2.048 2.73 3.308 6.038 3.676 9.45.052.42.472.84.892 1.26.368.315.788.735.788.998 0 1.207-.105 2.415-.315 3.622-.05.15-.478.393-.836.597l-.057.033c-.525.263-.997.525-1.102.945a19.549 19.549 0 0 1-6.93 10.133c4.882-5.093 7.245-13.493 3.465-20.16Zm3.886 10.185c-1.155 4.147-3.78 7.822-7.193 10.447C48.592 48.656 53.58 41.254 53.58 32.75c0-11.078-8.4-20.213-19.163-21.368-.367.578-.735 1.103-1.102 1.523.787 1.942 2.835 7.035 2.835 7.297 0 .315-.998 2.888-1.103 2.993-.105.052-1.312.157-1.785.157-.525 1.26-1.05 2.468-1.155 2.625-.157.21-.63.368-1.627.63l-.344.101c-.473.137-.99.288-1.074.372-.262.315-1.68 4.042-2.625 6.667 1.26-.21 2.363.053 2.625.158 2.048-3.885 3.675-5.985 4.095-5.985a2.55 2.55 0 0 1 .28.002c1.165.04 5.334.184 7.07-3.992 1.861-4.55-.759-8.439-.938-8.706l-.007-.01.008.005c.233.113 4.314 2.093 5.347 8.29 2.363 2.993 3.885 6.616 4.305 10.448 0 .196.235.451.463.7.077.083.153.166.22.245.472.473.945.945.945 1.418 0 1.26-.105 2.52-.315 3.727-.105.42-.63.735-1.155.998l-.232.149c-.276.174-.568.359-.608.48Z" clip-rule="evenodd"/><path fill="#CCC" d="M27.382 23.771c.998-1.155.473-3.307-1.365-3.675.473-1.102 1.155-3.307 1.155-3.307s-5.355 8.4-5.827 8.557c-.473.158-.945-1.68-.945-1.68-.998 3.833 1.68 4.358 1.995 3.15 1.47-.367 3.99-1.942 4.987-3.045Z"/><path fill="#FFD923" d="m22.815 25.819 2.73-4.673s1.575.788.787 2.048c-.997 1.47-3.517 2.625-3.517 2.625Z"/><path fill="#fff" d="M56.572 47.449c-.788 1.05-1.68 2.152-2.73 3.202 6.772-13.02.315-24.937.052-25.41.473.473.945.998 1.365 1.47 5.198 5.775 5.828 14.438 1.313 20.738ZM62.872 30.701c-2.363-6.352-5.723-11.76-13.125-16.642-7.14-4.725-14.805-4.358-15.225-4.305h-.105c.262-.105.525-.158.787-.21 1.628-.525 3.728-.945 5.828-1.208 5.565-.787 11.182 1.103 15.015 5.145l.105.105c4.357 4.62 6.615 10.395 6.72 17.115ZM48.067 4.714c-7.823-1.47-12.863-.735-16.485.63-.105-.42-.473-1.26-.788-1.943-1.102 1.313-2.257 2.888-2.992 3.885-1.995 1.365-2.835 2.678-2.835 2.678 1.155-3.938 4.515-6.878 8.61-7.613a21.166 21.166 0 0 1 3.78-.315c3.622.053 7.245.945 10.71 2.678ZM19.14 14.794c-6.143-.21-4.096-7.35-3.99-7.77 0 .052.42 5.617 3.99 7.77ZM25.177 1.931c-4.725 2.835-3.78 9.608-3.78 9.608-4.515-6.878 3.412-9.45 3.78-9.608ZM17.407 16.683c.315.263.63.736.263 1.418-.21.367-.525.315-.998.105-.63-.315-4.41-2.52-7.822-4.777 3.885 1.364 7.822 2.835 8.452 3.15l.105.104Z"/></svg>