<svg xmlns="http://www.w3.org/2000/svg" width="109" height="61" fill="none"><path fill="#fff" fill-rule="evenodd" d="M31.52 2.538v.341c.001.929.296 1.162 1.224 1.018.503-.079 1.013-.115 1.52-.156 1.754-.143 1.81-.202 1.771-1.975-.002-.076.002-.152-.006-.228-.05-.51-.3-.807-.846-.763-.959.077-1.921.135-2.875.255-.5.063-.806.39-.789.94.006.19.001.379.001.568Zm13.838 22.73-2.235 6.425 4.646-.397-2.283-6.044-.128.017Zm-34.441 5.945c.645-.044 1.247-.063 1.844-.131.841-.096 1.688-.187 2.516-.357.73-.15 1.258-.63 1.458-1.357.363-1.312.009-2.293-1.397-2.356-1.463-.065-2.935.075-4.421.125v4.076Zm15.85-1.028c1.127-.103 2.227-.142 3.303-.321a7.667 7.667 0 0 0 2.175-.694c.732-.37.977-1.334.748-2.258-.173-.701-.829-1.292-1.615-1.28-1.528.025-3.055.131-4.611.205v4.348Zm-10.919 3.19c-1.12-.098-2.258.01-3.387.051-.517.018-1.033.089-1.548.136v4.53c1.265-.099 2.48-.14 3.677-.307a5.852 5.852 0 0 0 1.912-.619c.917-.49 1.1-1.396.984-2.352-.101-.841-.58-1.347-1.638-1.44ZM91.802 23.31c.738.3 1.551.426 2.338.594 1.981.422 4.093.52 5.478 2.346v-5.28l-.083-.011c-.107.286-.193.58-.323.855-.458.967-1.91 1.254-2.446.165-.124-.252-.245-.524-.434-.723-.383-.401-.75-.934-1.233-1.1-1.304-.447-2.584-.23-3.656.684-.922.786-.756 2.017.36 2.47Zm-26.224-2.844-7.18.631 6.889 9.855.128-.034v-.592c0-2.543-.011-5.086.007-7.63.006-.725.1-1.45.156-2.23ZM35.505 6.93c-.047-.515-.398-.835-.914-.793-.565.046-1.13.107-1.688.202-.654.112-.813.326-.814.994-.002 2.089 0 4.178 0 6.266 0 2.127-.003 4.254.002 6.38 0 .565.258.849.775.822.51-.026 1.015-.122 1.524-.15.918-.051 1.129-.55 1.126-1.36-.015-3.987-.007-7.975-.007-11.962 0-.133.009-.267-.004-.399Zm39.593 25.762c1.085-.114 2.132-.253 3.184-.329 1.859-.133 2.897-1.225 3.417-2.898.522-1.68.544-3.394.119-5.093-.429-1.709-1.525-2.526-3.287-2.51-.947.008-1.893.099-2.839.097-.506-.001-.636.176-.633.667.02 3.17.01 6.341.012 9.512 0 .166.016.334.027.554ZM86.38 15.703c1.798.32 3.534-.075 5.238-.574 1.785-.522 1.427-.681 1.441-1.963.01-.994-.257-1.142-1.253-.94-1.29.262-2.592.487-3.9.621-.935.096-1.562-.588-1.569-1.529-.005-.873-.001-1.746-.001-2.62 0-.778.058-1.562-.014-2.333-.108-1.159.821-2.214 2.196-2.178 1.21.031 2.421.02 3.632.026.629.004.896-.256.91-.886.006-.322-.017-.646.005-.968.036-.525-.196-.8-.708-.909a12.291 12.291 0 0 0-5.348.06c-2.395.554-4.029 2.54-4.082 4.823-.042 1.784-.036 3.57 0 5.354.04 2.096 1.394 3.652 3.453 4.016ZM16.495 21.16c.004.824.299 1.093 1.116 1.034.377-.026.752-.088 1.13-.107.844-.042 1.154-.354 1.155-1.195 0-2.905-.003-5.81.002-8.715.001-1.008.717-1.85 1.628-1.944a470.02 470.02 0 0 0 2.087-.22c1.117-.121 1.86.537 1.871 1.663.004.456.001.911.001 1.367 0 2.45-.003 4.899.003 7.348.002.793.376 1.097 1.155.988.337-.047.678-.063 1.017-.094.916-.086 1.279-.414 1.251-1.305-.045-1.46-.012-2.924-.012-4.386v-4.272c0-2.051-1.181-3.643-3.195-4.034-1.956-.38-3.945-.2-5.806.472-1.92.692-3.21 2.089-3.342 4.233-.1 1.608-.053 3.225-.062 4.838a430.833 430.833 0 0 0 0 4.33Zm-6.57-1.477c-.004.12-.303.308-.48.326a94.003 94.003 0 0 1-3.282.265c-.991.066-1.632-.37-1.777-1.18-.157-.874.378-1.771 1.264-2.01.47-.127.97-.137 1.458-.192.47-.053.94-.104 1.412-.142.449-.037.9-.056 1.428-.087 0 1.02.017 2.021-.022 3.02Zm3.39 1.654c.003-2.791.006-5.582-.003-8.373-.001-.434.002-.881-.1-1.297-.452-1.84-2.105-3.185-4.01-3.121-1.388.046-2.781.243-4.152.487-1.252.223-1.356.44-1.355 1.715 0 .152-.003.304.003.456.027.657.297.854.94.754 1.117-.174 2.25-.26 3.354-.495 1.231-.26 2.275.84 1.87 2.27-.966.085-1.94.193-2.918.255-1.577.1-3.044.454-4.3 1.499-1.892 1.573-2.288 4.46-.765 6.238 1.217 1.42 2.867 1.634 4.61 1.472 1.864-.173 3.726-.377 5.593-.536 1.023-.087 1.233-.273 1.234-1.324Zm90.602-9.894c-1.007.092-1.981.183-2.955.27-.414.037-.834.13-1.24.087a1.528 1.528 0 0 1-1.383-1.482c-.031-.748.641-1.672 1.408-1.773 1.365-.18 2.741-.28 4.17-.419v3.317Zm3.388-7.477c-.013-1.994-1.528-3.624-3.511-3.882-1.589-.207-3.127.091-4.654.433-1.45.325-1.446.374-1.438 1.872 0 .114-.002.228.005.342.038.623.368.828.985.73 1.246-.2 2.496-.384 3.751-.5.31-.028.69.169.961.368.616.454.575 1.136.514 1.889-.932.079-1.818.141-2.702.231-1.199.122-2.403.206-3.502.8C95.751 7.311 94.766 9.12 95 11.311c.212 2 2.347 3.576 4.668 3.397 2.245-.173 4.486-.392 6.729-.599.683-.063.916-.328.916-1.027.002-3.039.011-6.078-.007-9.116Zm-68.667 15.42c0 .037.014.074.017.111.036.499.33.705.8.675.51-.033 1.018-.093 1.527-.137.797-.07 1.023-.312 1.024-1.108 0-2.867-.003-5.735.002-8.603.002-1.185.73-2.03 1.843-2.136.603-.058 1.208-.088 1.813-.122 1.42-.079 1.95.413 1.952 1.825.003 2.735 0 5.47.001 8.204 0 .19-.008.382.017.569.06.455.283.733.79.686.49-.044.981-.086 1.472-.113.78-.042 1.111-.384 1.111-1.173l.001-8.547c.001-1.302.764-2.085 2.053-2.138.51-.02 1.02-.073 1.528-.126 1.408-.147 2.066.431 2.068 1.837.003 2.393 0 4.786.001 7.18 0 .512-.001 1.025.015 1.537.017.505.287.77.798.742.586-.033 1.175-.055 1.754-.138.578-.084.8-.393.8-1.048.003-3.04-.017-6.078-.001-9.116.01-1.926-1.347-3.214-2.877-3.713-1.076-.35-2.165-.194-3.262-.127-1.654.101-3.232.367-4.464 1.445-.675-.238-1.23-.564-1.805-.608a19.449 19.449 0 0 0-3.217.036c-.834.076-1.698.216-2.47.524-1.917.766-3.194 2.15-3.25 4.296-.08 3.094-.034 6.19-.041 9.285Zm33.086-6.874c.556.011.946.418.936.978-.01.638-.516 1.102-1.188 1.09-.525-.008-.902-.403-.9-.94a1.132 1.132 0 0 1 1.152-1.128Zm3.61-.342c.491.015.934.459.946.948.014.577-.582 1.18-1.16 1.174-.516-.006-.984-.478-.976-.985.008-.58.61-1.155 1.19-1.137ZM61.073 4.916c.423-.045.826-.286 1.11-.392l3.575 3.263-2.098.713c-.414-.623-.838-.808-1.414-.65-.464.127-.841.64-.876 1.14-.036.526.194.88.663 1.073.568.234 1.03-.008 1.685-.866.536.248 1.072.52 1.628.74.305.123.36.308.373.606.022.487.056.985.178 1.454.984 3.79 4.449 5.91 8.319 5.215 4.432-.795 7.95-5.379 6.868-10.095-.848-3.693-4.127-5.656-7.486-5.398a8.099 8.099 0 0 0-4.143 1.504c-.243.175-.434.218-.7.003-.422-.342-.89-.627-1.328-.93.275-.926.188-1.338-.337-1.689-.427-.284-1.028-.237-1.473.115-.42.332-.607 1.014-.407 1.485.237.56.647.724 1.648.619l.369 2.308c-1.51-.512-2.917-.979-4.313-1.476-.14-.05-.267-.268-.31-.432-.218-.852-.778-1.236-1.632-1.083-.743.133-1.263.87-1.188 1.687.057.633.611 1.158 1.289 1.086Zm37.846 26.757c-1.873 2.351-6.38 2.851-8.805 1.776-1.46-.648-2.573-2.283-2.524-3.686.023-.657.492-1.248 1.117-1.409.72-.184 1.216.034 1.596.73.244.445.458.906.693 1.356.311.597.84.945 1.469 1.06 1.204.22 2.371.092 3.413-.628.761-.526 1.185-1.247 1.032-2.178-.147-.901-.837-1.307-1.658-1.486-1.304-.283-2.623-.502-3.924-.803-1.144-.265-2.195-.74-2.884-1.76-.91-1.346-.75-3.552.43-4.791.61-.64 1.377-1.133 1.994-1.629l-10.513.933c.033.036.043.057.058.06.091.026.183.05.276.069 2.172.459 3.514 1.83 4.17 3.89.721 2.262.691 4.56-.015 6.807-.81 2.57-2.51 4.278-5.235 4.757-1.263.222-2.549.324-3.828.441-.847.078-1.701.114-2.552.117-.767.003-1.107-.3-1.258-1.034a4.53 4.53 0 0 1-.104-.898c-.007-3.703.003-7.407-.01-11.11-.002-.893-.014-1.767.838-2.425l-4.52.406c.079.632.208 1.204.211 1.777.019 3.76.012 7.521.007 11.282 0 .436-.018.874-.068 1.307-.085.736-.46 1.261-1.188 1.5-.995.324-1.848.003-2.58-1.034-1.317-1.87-2.613-3.755-3.917-5.635-.789-1.137-1.575-2.275-2.453-3.544v3.46c0 1.975.008 3.95-.003 5.926-.006 1.02-.692 1.736-1.625 1.736-.879 0-1.317-.53-1.359-1.648-.006-.171-.004-.342-.004-.513 0-3.742-.013-7.484.012-11.225.005-.746.158-1.49.245-2.266l-8.325.734c.257.493.53.94.733 1.417a680.165 680.165 0 0 1 2.902 6.928c.68 1.652 1.359 3.305 1.98 4.98.29.783-.21 1.618-1.037 1.941-.808.316-1.443.064-1.848-.797a29.508 29.508 0 0 1-1.002-2.395c-.134-.364-.3-.5-.688-.467-1.96.175-3.922.329-5.896.491-.055.158-.104.319-.165.475-.382.982-.747 1.971-1.158 2.941-.248.585-.744.812-1.378.796-.573-.014-1.077-.258-1.204-.772-.122-.492-.078-1.086.08-1.574.41-1.27.918-2.508 1.397-3.755 1.264-3.296 2.534-6.59 3.808-9.9l-9.913.873c2.232.925 2.824 2.606 2.523 4.633-.314 2.116-1.91 3.076-3.76 3.704.033.073.038.12.063.135 1.923 1.218 3.07 3.04 3.903 5.088.12.297.112.712.009 1.02-.216.647-.808.893-1.424.962-.712.08-1.23-.323-1.603-.888-.706-1.073-1.371-2.173-2.087-3.24-.378-.563-.781-1.124-1.255-1.605-.955-.97-2.171-.614-3.376-.605 0 1.533.01 3.01-.005 4.487-.005.471-.03.95-.123 1.41-.158.779-.946 1.304-1.793 1.256-.74-.042-1.179-.514-1.279-1.395a7.637 7.637 0 0 1-.053-.85c-.003-3.761-.014-7.522.01-11.283.004-.643.16-1.285.249-1.945l-5.828.517c2.795 1.41 2.887 5.277.035 6.857.647.428 1.508.773 2.04 1.398 1.178 1.384 1.012 2.981.225 4.51-.928 1.803-2.614 2.412-4.48 2.64-1.522.186-3.049.37-4.578.436-1.014.044-2.074.474-3.05-.215-.159.475.041.608.455.716 10.437 2.721 20.87 5.457 31.304 8.192 13.67 3.582 27.34 7.164 41.006 10.758.375.1.57.05.783-.288 5.925-9.353 11.863-18.699 17.788-28.052.156-.246.202-.563.299-.848-.351.267-.575.586-.818.89Z" clip-rule="evenodd"/></svg>