<svg xmlns="http://www.w3.org/2000/svg" width="354" height="61" fill="none"><path fill="#fff" fill-rule="evenodd" d="M74.6 46.075 93.388 3.256a3.955 3.955 0 0 1 3.636-2.37h11.697l19.709 45.2a.594.594 0 0 1-.043.587.603.603 0 0 1-.52.274h-8.879a.606.606 0 0 1-.558-.363l-3.939-8.497a.613.613 0 0 0-.558-.358h-24.74a.609.609 0 0 0-.557.358l-3.94 8.478a.607.607 0 0 1-.557.364h-8.975a.604.604 0 0 1-.564-.854Zm35.2-16.516a.607.607 0 0 0 .564-.848l-8.206-19.606a.603.603 0 0 0-.564-.376.603.603 0 0 0-.564.376L92.824 28.71a.608.608 0 0 0 .534.842l.03.006H109.8Zm22.928 31.328a.606.606 0 0 1-.607-.607V18.164a3.39 3.39 0 0 1 3.432-3.337h17.814c5.774 0 10.281 1.38 13.52 4.144 3.239 2.762 4.628 6.646 4.628 11.88 0 5.279-1.389 9.415-4.628 12.178-3.239 2.763-7.746 3.901-13.52 3.901h-11.54v13.35a.607.607 0 0 1-.608.607h-8.491Zm20.639-38.84h-11.54v17.9h11.54c2.806 0 4.952-.743 6.438-2.227 1.486-1.485 2.229-3.736 2.229-6.754 0-2.973-.743-5.198-2.229-6.674-1.486-1.477-3.632-2.225-6.438-2.245Zm27.125 20.756c3.156 2.763 7.555 4.144 13.194 4.144h7.173c5.64 0 10.038-1.381 13.194-4.144 3.157-2.763 4.735-6.825 4.735-12.186 0-5.405-1.578-9.49-4.735-12.253-3.156-2.763-7.554-4.144-13.194-4.144h-7.173c-5.639-.004-10.038 1.377-13.194 4.144-3.156 2.767-4.735 6.851-4.735 12.253 0 5.361 1.579 9.423 4.735 12.186Zm20.367-3.024h-7.173v-.012c-2.734.012-4.827-.73-6.277-2.229-1.451-1.498-2.176-3.805-2.176-6.921 0-3.165.725-5.494 2.176-6.988 1.45-1.494 3.545-2.24 6.283-2.24h7.173c2.731-.005 4.823.742 6.277 2.24 1.455 1.498 2.183 3.827 2.183 6.988-.009 3.12-.738 5.427-2.189 6.921-1.45 1.494-3.543 2.241-6.277 2.241Zm75.857 7.168c-5.639 0-10.037-1.381-13.194-4.144-3.156-2.763-4.734-6.825-4.734-12.186 0-5.402 1.578-9.486 4.734-12.253 3.157-2.767 7.555-4.148 13.194-4.144h7.174c5.639 0 10.037 1.381 13.194 4.144 3.156 2.763 4.734 6.848 4.734 12.253 0 5.361-1.578 9.423-4.734 12.186-3.157 2.763-7.555 4.144-13.194 4.144h-7.174Zm0-7.168h7.174c2.733 0 4.826-.747 6.277-2.24 1.45-1.495 2.18-3.802 2.188-6.922 0-3.16-.728-5.49-2.182-6.988-1.455-1.498-3.547-2.245-6.277-2.24h-7.174c-2.738 0-4.832.746-6.283 2.24-1.451 1.494-2.176 3.823-2.176 6.988 0 3.116.725 5.423 2.176 6.921 1.451 1.498 3.543 2.241 6.277 2.229v.012Zm-33.508 6.992a.606.606 0 0 0 .428.176h8.485a.609.609 0 0 0 .429-.176.599.599 0 0 0 .177-.427V.89h-6.06a3.5 3.5 0 0 0-2.508.91 3.465 3.465 0 0 0-1.129 2.406v42.138a.6.6 0 0 0 .178.427Zm-17.754.176a.606.606 0 0 1-.606-.603V4.206a3.465 3.465 0 0 1 1.129-2.407 3.503 3.503 0 0 1 2.508-.91h6.06v45.456c0 .16-.063.313-.177.426a.609.609 0 0 1-.429.176h-8.485Zm93.223-21.99-13.223 21.99h10.342L326.979 29.9c.24-.364.552-.66.913-.864a2.37 2.37 0 0 1 1.164-.312h.654c.404.001.803.108 1.164.312.36.204.674.5.914.864l11.183 17.047h10.362l-13.212-21.99a3.103 3.103 0 0 1-.516-1.727c0-.623.181-1.23.516-1.727L353.333.887H343.04l-11.237 17.107c-.236.37-.547.673-.909.882-.361.21-.761.32-1.168.324h-.653a2.362 2.362 0 0 1-1.169-.324 2.68 2.68 0 0 1-.909-.882L315.757.887h-10.303l13.223 20.616c.334.499.514 1.104.514 1.727 0 .622-.18 1.228-.514 1.727ZM55.011 14.19a55.962 55.962 0 0 1-20.046 24.103 55.836 55.836 0 0 1-29.844 9.52A30.14 30.14 0 0 1 .56 25.22a30.14 30.14 0 0 1 4.454-10.87 30.09 30.09 0 0 1 8.269-8.335 30.04 30.04 0 0 1 22.555-4.57 30.037 30.037 0 0 1 10.852 4.462c3.29 2.186 6.118 5 8.322 8.281Zm1.959-.188v-3.734c0-.039.01-.077.03-.11a.213.213 0 0 1 .078-.079l3.215-1.89a.203.203 0 0 1 .285.08c.018.033.028.07.028.109v3.733c0 .038-.01.076-.029.11a.218.218 0 0 1-.075.08l-3.22 1.89a.203.203 0 0 1-.284-.08.226.226 0 0 1-.028-.11ZM54.384 48.3A30.168 30.168 0 0 0 60 30.768a29.994 29.994 0 0 0-3.132-13.353 85.725 85.725 0 0 0-17.235 41.872A30.092 30.092 0 0 0 54.383 48.3Z" clip-rule="evenodd"/></svg>