<svg xmlns="http://www.w3.org/2000/svg" width="297" height="61" fill="none"><path fill="#fff" fill-rule="evenodd" d="M241.715 20.763c-1.201-.512-2.511-.768-3.929-.768-1.615 0-3.102.265-4.46.797a10.047 10.047 0 0 0-3.486 2.216c-.966.965-1.724 2.137-2.275 3.515-.552 1.36-.827 2.876-.827 4.55 0 1.634.275 3.121.827 4.46.551 1.34 1.309 2.492 2.275 3.457a10.651 10.651 0 0 0 3.486 2.215c1.358.512 2.845.768 4.46.768 1.536 0 2.984-.295 4.342-.886 1.36-.59 2.511-1.536 3.457-2.836l-3.072-2.186c-.69.886-1.438 1.536-2.245 1.95a5.418 5.418 0 0 1-2.452.59c-1.083 0-2.068-.196-2.955-.59a6.86 6.86 0 0 1-2.245-1.625 7.511 7.511 0 0 1-1.477-2.452c-.335-.945-.502-1.98-.502-3.102 0-1.044.167-2.018.502-2.924a7.304 7.304 0 0 1 1.477-2.364 6.507 6.507 0 0 1 2.245-1.595c.887-.394 1.872-.59 2.955-.59.728 0 1.448.137 2.156.413.729.276 1.477.827 2.245 1.654l2.895-2.127c-1.044-1.201-2.176-2.048-3.397-2.54ZM92.347 41.44l-9.01-20.915h-3.22l-9.099 20.915h4.165l1.891-4.785h9.07l1.949 4.785h4.254Zm8.276-20.915 5.701 15.805 5.879-15.805h4.018l-8.449 20.915h-3.22l-8.213-20.915h4.284Zm41.13 20.915-9.009-20.915h-3.221l-9.098 20.915h4.164l1.891-4.785h9.07l1.949 4.785h4.254Zm11.955-20.915v17.548h8.892v3.367h-12.614V20.526h3.722Zm36.499 20.915-9.009-20.915h-3.221l-9.098 20.915h4.166l1.89-4.785h9.069l1.949 4.785h4.254Zm13.167-20.915 10.132 15.54h.06v-15.54h3.721v20.915h-4.726l-10.34-16.04h-.058v16.04h-3.723V20.526h4.934Zm54.339 8.331v-8.33h-3.721V41.44h3.721v-9.216h9.778v9.216h3.723V20.526h-3.723v8.331h-9.778Zm37.938-8.33v3.367h-10.133v5.14h9.601v3.368h-9.601v5.672h10.665v3.367h-14.387V20.526h13.855ZM78.344 33.464l3.28-8.507 3.22 8.507h-6.5Zm52.686-8.507-3.279 8.507h6.499l-3.22-8.507Zm45.175 8.507 3.279-8.507 3.22 8.507h-6.499ZM30 60.966c16.569 0 30-13.432 30-30 0-16.569-13.431-30-30-30-16.569 0-30 13.431-30 30 0 16.568 13.431 30 30 30Zm-9.065-16.409h-7.037c-1.669 0-2.503 0-3.003-.323-.54-.35-.88-.935-.917-1.577-.033-.594.38-1.318 1.207-2.765l15.408-26.995c.84-1.47 1.259-2.204 1.792-2.478a2.017 2.017 0 0 1 1.837-.001c.534.273.954 1.007 1.795 2.475l3.554 6.204c.611 1.068.917 1.602 1.051 2.165a4.023 4.023 0 0 1 .001 1.865c-.134.563-.439 1.097-1.05 2.165l-9.214 16.12c-.62 1.083-.929 1.625-1.353 2.03a4.033 4.033 0 0 1-1.635.948c-.562.167-1.187.167-2.436.167Zm25.109 0h-8.16c-1.683 0-2.525 0-3.026-.326a2.013 2.013 0 0 1-.914-1.587c-.03-.597.394-1.324 1.242-2.777l4.073-6.988c.836-1.436 1.255-2.153 1.784-2.422a2.017 2.017 0 0 1 1.823-.002c.53.268.95.986 1.788 2.42l4.086 6.988c.851 1.454 1.276 2.182 1.247 2.779a2.013 2.013 0 0 1-.913 1.589c-.5.326-1.344.326-3.03.326Z" clip-rule="evenodd"/></svg>