<svg xmlns="http://www.w3.org/2000/svg" width="527" height="583" fill="none"><path fill="#0D0B33" fill-opacity=".1" d="m6.97 381.064 50.684 28.884 17.92-10.217-49.722-29.246L6.97 381.064ZM71.112 419.729c-14.85 8.388-14.921 29.752-.127 38.238l207.059 118.777a21.998 21.998 0 0 0 21.832.035L460.194 485.5c14.852-8.456 14.811-29.878-.072-38.278L252.008 329.766a22 22 0 0 0-21.632.004L71.112 419.729Z"/><path fill="#F7F6FF" stroke="#000" stroke-miterlimit="10" stroke-width="1.117" d="M182.372 134.806c0 5.135-1.726 8.783-4.54 10.568l-.04.027-.445.271c-2.948 1.568-6.95 1.248-11.366-1.333l-.191-.111-.191-.115-38.254-22.674-32.1-19.103-.191-.115-.191-.116c-10.783-6.525-19.49-21.9-19.49-34.46 0-6.583 2.392-11.105 6.225-12.993 3.518-1.742 8.244-1.27 13.447 1.817 1.018.608 2 1.275 2.94 1.999 1.195-4.06 3.227-7.21 5.904-9.33.464-.362.949-.696 1.454-.999l.445-.253c5.527-3.11 13.162-2.554 21.588 2.452 12.544 7.459 23.327 22.657 28.014 38.023 1.784.095 3.512.652 5.015 1.617 6.226 3.7 11.277 12.567 11.277 19.804v.586a39.34 39.34 0 0 1 5.336 7.046c3.295 5.491 5.354 11.772 5.354 17.392Z"/><path fill="#000" stroke="#000" stroke-miterlimit="10" stroke-width="1.117" d="M210.825 118.192c0 5.229-1.779 8.912-4.696 10.662l-.058.036-.218.124-28.013 16.357c2.814-1.777 4.54-5.433 4.54-10.568l12.054-7.042 16.391-9.569Z"/><path fill="#BFFFE4" stroke="#000" stroke-miterlimit="10" stroke-width="1.117" d="m155.804 33.729-28.458 16.614c-8.448-5.006-16.061-5.575-21.588-2.452l15.661-9.147 12.397-7.24.062-.036c5.559-3.319 13.331-2.848 21.926 2.26Z"/><path fill="#BFFFE4" stroke="#000" stroke-miterlimit="10" stroke-width="1.117" d="m121.416 38.745-15.661 9.146c-.147.08-.289.165-.445.254-.495.303-.972.637-1.427 1-2.668 2.118-4.709 5.268-5.905 9.328a30.099 30.099 0 0 0-2.94-1.999c-5.202-3.11-9.928-3.554-13.446-1.817l27.409-15.992.925-.538c3.086-1.59 7.07-1.466 11.49.617Z"/><path fill="#79EFBD" stroke="#000" stroke-miterlimit="10" stroke-width="1.117" d="m210.826 118.192-16.399 9.574-12.055 7.041c0-5.62-2.059-11.901-5.336-17.388a39.334 39.334 0 0 0-5.336-7.045v-.587c0-7.236-5.047-16.104-11.276-19.804a10.318 10.318 0 0 0-5.016-1.617c-4.709-15.37-15.492-30.564-28.014-38.023l28.458-16.614c12.544 7.459 23.327 22.656 28.014 38.022 1.784.096 3.512.653 5.016 1.617 6.225 3.701 11.276 12.568 11.276 19.805v.586c6.221 6.49 10.668 16.179 10.668 24.433Z"/><path stroke="#000" stroke-width="1.117" d="m155.412 88.205 28.236-16.659M171.858 110.64l28.236-16.659"/><path stroke="#000" stroke-width="1.675" d="m181.872 129.742 28.236-16.659"/><path fill="#F7F6FF" stroke="#000" stroke-miterlimit="10" stroke-width="1.117" d="M86.513 512.837c0 4.105-1.38 7.019-3.629 8.447l-.032.021-.355.217c-2.356 1.253-5.555.997-9.083-1.066l-.153-.088-.153-.093-30.572-18.121-25.655-15.266-.152-.092-.153-.093C7.958 481.488 1 469.2 1 459.163c0-5.261 1.912-8.875 4.975-10.384 2.811-1.392 6.589-1.016 10.746 1.452a24.128 24.128 0 0 1 2.35 1.597c.955-3.245 2.58-5.762 4.719-7.455.37-.29.758-.557 1.162-.799l.355-.203c4.418-2.485 10.52-2.041 17.253 1.96 10.025 5.961 18.643 18.107 22.389 30.388a8.233 8.233 0 0 1 4.008 1.292c4.975 2.957 9.012 10.044 9.012 15.827v.469a31.446 31.446 0 0 1 4.265 5.631c2.633 4.388 4.279 9.408 4.279 13.899Z"/><path fill="#000" stroke="#000" stroke-miterlimit="10" stroke-width="1.117" d="M109.253 499.56c0 4.178-1.422 7.122-3.753 8.52l-.046.029-.174.099-22.389 13.073c2.25-1.42 3.628-4.342 3.628-8.447l9.635-5.627 13.099-7.647Z"/><path fill="#BFFFE4" stroke="#000" stroke-miterlimit="10" stroke-width="1.117" d="M65.275 432.057 42.53 445.336c-6.752-4.002-12.836-4.456-17.253-1.96l12.516-7.31 9.908-5.787.05-.029c4.442-2.652 10.654-2.275 17.523 1.807Z"/><path fill="#BFFFE4" stroke="#000" stroke-miterlimit="10" stroke-width="1.117" d="m37.794 436.066-12.516 7.31c-.117.064-.23.131-.355.202-.396.243-.777.51-1.14.799-2.133 1.693-3.764 4.211-4.72 7.456a23.971 23.971 0 0 0-2.35-1.598c-4.157-2.485-7.935-2.84-10.746-1.452l21.905-12.781.74-.43c2.466-1.271 5.65-1.171 9.182.494Z"/><path fill="#79EFBD" stroke="#000" stroke-miterlimit="10" stroke-width="1.117" d="m109.252 499.56-13.106 7.651-9.634 5.627c0-4.491-1.645-9.511-4.264-13.895a31.44 31.44 0 0 0-4.265-5.631v-.469c0-5.784-4.033-12.87-9.012-15.827a8.245 8.245 0 0 0-4.009-1.293c-3.763-12.284-12.38-24.426-22.388-30.387l22.744-13.278c10.025 5.961 18.642 18.106 22.388 30.387a8.244 8.244 0 0 1 4.009 1.292c4.975 2.958 9.012 10.044 9.012 15.828v.468c4.971 5.187 8.525 12.931 8.525 19.527Z"/><path stroke="#000" stroke-width="1.117" d="m64.963 475.595 22.566-13.314M78.115 493.525l22.565-13.314"/><path stroke="#000" stroke-width="1.675" d="m86.11 508.791 22.567-13.314"/><path fill="#F7F6FF" stroke="#000" stroke-miterlimit="10" stroke-width="1.117" d="M493.527 500.827c0 5.861-1.969 10.023-5.182 12.062l-.045.03-.508.309c-3.364 1.79-7.931 1.425-12.97-1.521l-.219-.127-.218-.131-43.657-25.877-36.633-21.8-.219-.132-.218-.132c-12.306-7.447-22.242-24.994-22.242-39.326 0-7.514 2.73-12.675 7.104-14.83 4.015-1.987 9.409-1.449 15.346 2.074a34.366 34.366 0 0 1 3.354 2.282c1.366-4.634 3.685-8.229 6.74-10.647a16.253 16.253 0 0 1 1.659-1.141l.507-.289c6.308-3.549 15.021-2.915 24.638 2.799 14.315 8.512 26.621 25.856 31.97 43.392 2.036.11 4.008.745 5.724 1.846 7.104 4.223 12.869 14.342 12.869 22.601v.669a44.956 44.956 0 0 1 6.09 8.041c3.76 6.266 6.11 13.435 6.11 19.848Z"/><path fill="#000" stroke="#000" stroke-miterlimit="10" stroke-width="1.117" d="M526 481.867c0 5.967-2.03 10.17-5.359 12.167l-.066.041-.248.142-31.971 18.667c3.213-2.028 5.182-6.2 5.182-12.061l13.757-8.036L526 481.867Z"/><path fill="#BFFFE4" stroke="#000" stroke-miterlimit="10" stroke-width="1.117" d="m463.204 385.474-32.478 18.961c-9.642-5.714-18.329-6.362-24.637-2.798l17.873-10.439 14.148-8.264.071-.041c6.343-3.787 15.214-3.249 25.023 2.581Z"/><path fill="#BFFFE4" stroke="#000" stroke-miterlimit="10" stroke-width="1.117" d="m423.959 391.198-17.873 10.438c-.167.092-.33.188-.507.289-.566.347-1.11.728-1.629 1.141-3.045 2.418-5.375 6.013-6.74 10.647a34.366 34.366 0 0 0-3.354-2.282c-5.937-3.549-11.331-4.056-15.346-2.073l31.28-18.252 1.056-.613c3.522-1.815 8.069-1.673 13.113.705Z"/><path fill="#79EFBD" stroke="#000" stroke-miterlimit="10" stroke-width="1.117" d="m525.998 481.866-18.716 10.926-13.757 8.035c0-6.413-2.349-13.582-6.089-19.843a44.956 44.956 0 0 0-6.09-8.041v-.669c0-8.259-5.76-18.378-12.869-22.601a11.773 11.773 0 0 0-5.724-1.846c-5.374-17.541-17.68-34.88-31.97-43.392l32.477-18.961c14.316 8.512 26.622 25.856 31.97 43.392a11.76 11.76 0 0 1 5.724 1.846c7.105 4.223 12.87 14.342 12.87 22.601v.669c7.099 7.407 12.174 18.464 12.174 27.884Z"/><path stroke="#000" stroke-width="1.117" d="m462.759 447.645 32.224-19.012M481.528 473.248l32.224-19.012"/><path stroke="#000" stroke-width="1.675" d="m492.953 495.048 32.224-19.012"/><path fill="#0D0B33" fill-opacity=".1" d="m121.077 518.971 45.308 25.82 16.019-9.132-44.448-26.144-16.879 9.456Z"/><path fill="#D9D8E4" stroke="#0D0B33" stroke-linejoin="round" stroke-width="2.234" d="m296.844 259.566-45.571 26.284v115.965c0 8.677-6.08 12.161-13.582 7.836l-119.322-68.822 97.969-56.521 34.928-20.144 26.778-15.445 18.8 10.847ZM219.11 239.962l-114.104 65.819V189.829c0-8.677 6.013-12.188 13.536-7.863l100.568 57.996Z"/><path fill="#000" d="M143.748 355.467 118.492 340.9l159.301-91.896 18.532 10.861-45.052 25.985v7.59l-107.525 62.027ZM159.486 364.545l-7.602-4.385 99.389-57.335v8.772l-91.787 52.948ZM251.273 380.903v20.912c0 8.677-6.08 12.161-13.582 7.836l-18.128-10.455 31.71-18.293ZM251.273 319.724v.771l-84.024 48.332-.333-.58 84.357-48.523Z"/><path fill="#0D0B33" fill-opacity=".1" d="m203.817 350.044 42.937 24.791 15.181-8.769-42.122-25.102-15.996 9.08Z"/><path fill="#000" d="m118.678 182.045-.137-.079c-7.522-4.325-13.535-.814-13.535 7.863v.102l13.672-7.886ZM105.006 216.629v-22.026l17.721-10.223 19.095 11.012-36.816 21.237ZM105.006 285.512v-.771l95.451-54.905.334.579-95.785 55.097ZM105.006 292.797v-.771l95.451-54.905.334.579-95.785 55.097Z"/><path fill="#fff" stroke="#0D0B33" stroke-width="1.727" d="M220.977 326.328c-23.64-14.112-42.805-47.927-42.805-75.527 0-27.601 19.165-38.536 42.805-24.424 23.641 14.112 42.806 47.927 42.806 75.528 0 27.6-19.165 38.535-42.806 24.423Z"/><path fill="#000" fill-rule="evenodd" d="M242.336 283.234c.892-6.403-3.655-12.757-9.873-18.841l2.017-8.205-4.927-4.276-1.963 7.989a357.938 357.938 0 0 0-3.945-3.36l1.978-8.041-4.922-4.274-2.018 8.201a282.652 282.652 0 0 1-3.145-2.678l.006-.026-6.792-5.899-1.31 5.335s3.654 3.087 3.577 3.103c1.994 1.732 2.356 3.471 2.294 4.648l-2.297 9.347c.137.12.315.282.512.487l-.519-.45-3.222 13.092c-.244.561-.863 1.256-2.257.048.049.112-3.58-3.108-3.58-3.108l-2.445 5.116 6.411 5.565c.723.629 1.438 1.259 2.145 1.882l.002.002c.457.403.911.803 1.362 1.198l-2.038 8.302 4.919 4.272 2.02-8.21c1.342 1.2 2.647 2.346 3.923 3.452l-2.011 8.172 4.925 4.274 2.038-8.282c8.398 6.706 14.714 9.622 17.369 2.362 2.142-5.845-.105-11.234-4.524-16.46 3.218 1.001 5.642-.047 6.289-4.738l.001.001Zm-11.254 11.762c-1.398 5.693-10.185-2.088-14.203-5.646-.36-.318-.681-.603-.955-.841l2.704-10.994c.336.292.745.636 1.21 1.025 4.156 3.488 12.673 10.636 11.246 16.456h-.002Zm-10.409-21.8c3.352 2.977 10.658 9.468 11.931 4.298 1.302-5.29-5.803-11.227-9.273-14.127-.39-.326-.734-.613-1.015-.857l-2.452 9.971c.232.202.504.444.809.715Z" clip-rule="evenodd"/><path fill="#79EFBD" stroke="#0D0B33" stroke-width="1.727" d="M220.977 226.377c-11.691-6.979-22.288-7.832-30.014-3.573l8.496-4.847c16.717-9.538 43.82 6.641 60.536 36.136 16.717 29.495 16.717 61.138 0 70.676l-8.171 4.662.002-.017c7.404-4.563 11.957-14.057 11.957-27.509 0-27.601-19.165-61.416-42.806-75.528Z"/><path fill="#F7F6FF" stroke="#0D0B33" stroke-linejoin="round" stroke-width="2.234" d="M312.974 400.654c0 4.966-1.643 8.978-4.924 10.873l-86.645 49.98c-5.518 3.184-13.001 2.443-20.797-2.056L56.66 376.419l61.705-35.59 119.322 68.823c7.502 4.325 13.582.821 13.582-7.836V285.851l56.788 98.283c3.274 5.654 4.917 11.561 4.917 16.52Z"/><path fill="#79EFBD" stroke="#0D0B33" stroke-linejoin="round" stroke-width="2.234" d="M472.651 308.544c0 4.966-1.643 8.978-4.924 10.873l-86.645 49.98L308.06 411.5c3.28-1.895 4.924-5.907 4.924-10.873 0-4.966-1.644-10.866-4.924-16.546l-40.647-70.344-16.141-27.886 45.57-26.285 114.104-65.825 56.788 98.284c3.274 5.653 4.917 11.56 4.917 16.519Z"/><path fill="#fff" stroke="#0D0B33" stroke-width="1.727" d="M141.126 492.386c-17.91-10.656-32.428-36.189-32.428-57.031 0-20.841 14.518-29.098 32.428-18.442 17.909 10.656 32.428 36.19 32.428 57.031 0 20.842-14.519 29.098-32.428 18.442Z"/><path fill="#000" d="M138.527 431.528c-1.178-.68-2.308-.792-3.14-.311l-13.084 7.555c-.496.286-.744.893-.744 1.643s.248 1.643.744 2.502l8.574 14.852V440.24c0-1.309.911-1.843 2.044-1.189l18.024 10.407 9.318-5.38-21.736-12.55ZM130.877 461.046l18.018 10.404c1.133.654 2.051.123 2.051-1.185v-17.529l8.574 14.852c.496.859.743 1.752.743 2.502 0 .75-.247 1.357-.743 1.643l-13.084 7.555c-.833.481-1.962.369-3.14-.311l-21.736-12.551 9.317-5.38Z"/><path fill="#79EFBD" stroke="#0D0B33" stroke-width="1.727" d="M141.126 416.913c-8.858-5.27-16.886-5.914-22.738-2.698l6.436-3.66c12.664-7.202 33.197 5.014 45.861 27.286 12.664 22.272 12.664 46.166 0 53.368l-6.191 3.52.001-.012c5.61-3.446 9.059-10.615 9.059-20.773 0-20.841-14.519-46.375-32.428-57.031Z"/><path fill="#0D0B33" d="m173.346 469.522 6.629-3.678c-.093-3.547-.496-6.109-1.864-11.627l-6.996 3.891c1.123 3.837 1.887 7.676 2.231 11.414ZM168.112 449.774l6.487-3.796c-6.934-14.877-12.233-21.877-24.563-31.577l-6.731 3.892c10.349 6.957 19.371 18.774 24.807 31.481Z"/><path fill="#F7F6FF" stroke="#0D0B33" stroke-linejoin="round" stroke-width="2.234" d="m299.617 215.226-61.705 35.589-18.8-10.853-100.568-58.009c-7.503-4.325-13.536-.794-13.536 7.863v115.965L48.22 207.524c-3.28-5.674-4.923-11.588-4.923-16.547 0-4.959 1.643-8.977 4.923-10.873l86.645-49.979c5.519-3.184 12.995-2.443 20.798 2.062l92.865 53.571 16.128 9.304 34.961 20.164Z"/><path fill="#BFFFE4" stroke="#0D0B33" stroke-linejoin="round" stroke-width="2.234" d="m459.292 123.108-159.674 92.11-143.928-83.025c-7.803-4.506-15.279-5.247-20.797-2.063l159.674-92.11c5.518-3.177 12.994-2.443 20.798 2.063l143.927 83.025Z"/><path fill="#fff" stroke="#0D0B33" stroke-width="1.727" d="M30.724 302.365c-14.614-8.712-26.461-29.587-26.461-46.626 0-17.039 11.847-23.79 26.461-15.078 14.615 8.712 26.462 29.588 26.462 46.627s-11.847 23.789-26.462 15.077Z"/><path fill="#070707" d="m30.546 251.405 10.93 27.305-10.93 1.152-10.93-13.798 10.93-14.659Z"/><path fill="#070707" d="m30.546 292.604-10.93-24.142 10.93 13.794 10.936-1.144-10.936 11.493v-.001Z"/><path fill="#79EFBD" stroke="#0D0B33" stroke-width="1.727" d="M30.724 240.661c-7.227-4.309-13.778-4.835-18.554-2.206l5.252-2.992c10.334-5.888 27.088 4.099 37.422 22.308 10.334 18.209 10.334 37.744 0 43.632l-5.05 2.878v-.01c4.578-2.818 7.392-8.678 7.392-16.983 0-17.039-11.847-37.915-26.462-46.627Z"/><path fill="#0D0B33" d="m57.016 283.672 5.41-3.006c-.076-2.901-.405-4.995-1.522-9.506l-5.708 3.181c.916 3.137 1.54 6.276 1.82 9.331ZM52.745 267.527l5.294-3.103c-5.659-12.163-9.982-17.886-20.044-25.816l-5.492 3.182c8.445 5.688 15.806 15.349 20.242 25.737Z"/><path fill="#0D0B33" fill-opacity=".1" d="m323.416 92.704 45.63 26.279 16.134-9.295-44.765-26.607-16.999 9.623ZM353.92 506.293l114.204 65.051 40.379-23.009-112.037-65.866-42.546 23.824ZM1 527.906l71.108 40.524 25.142-14.334-69.759-41.031-26.49 14.841Z"/><path fill="#fff" stroke="#0D0B33" stroke-width="1.727" d="M355.18 83.93c-17.05-10.152-30.872-34.478-30.872-54.333 0-19.856 13.822-27.722 30.872-17.57 17.05 10.152 30.872 34.478 30.872 54.334 0 19.855-13.822 27.721-30.872 17.57Z"/><path fill="#000" fill-rule="evenodd" d="m371.066 42.38-4.672-2.699-7.385 4.18c-2.23 1.26-5.844-.827-8.072-4.665l-7.385-12.713-4.672-2.7 9.72 16.735c3.52 6.06 9.225 9.356 12.744 7.364l9.722-5.501ZM338.82 54.668l4.673 2.7 7.444-4.214c2.23-1.261 5.843.827 8.072 4.664l7.445 12.817 4.673 2.7-9.782-16.84c-3.519-6.058-9.224-9.355-12.743-7.363l-9.782 5.536Z" clip-rule="evenodd"/><path fill="#79EFBD" stroke="#0D0B33" stroke-width="1.727" d="M355.18 12.027c-8.432-5.02-16.075-5.634-21.647-2.57l6.128-3.487c12.056-6.862 31.603 4.777 43.659 25.996 12.056 21.218 12.056 43.982 0 50.843l-5.893 3.354.001-.012c5.34-3.283 8.624-10.113 8.624-19.79 0-19.856-13.822-44.182-30.872-54.334Z"/><path fill="#0D0B33" d="m385.854 62.147 6.311-3.503c-.089-3.38-.473-5.82-1.775-11.077l-6.66 3.707c1.069 3.655 1.796 7.313 2.124 10.873ZM380.871 43.334l6.176-3.617c-6.601-14.173-11.646-20.842-23.384-30.083l-6.408 3.708c9.852 6.628 18.441 17.886 23.616 29.992Z"/><path fill="#66E1AD" d="M381.001 337.249a3.35 3.35 0 0 0-1.205 4.668l12.039 19.625 21.875-12.384-10.471-17.068a6.7 6.7 0 0 0-9.013-2.328l-13.225 7.487Z"/><mask id="a" width="234" height="210" x="251" y="199" maskUnits="userSpaceOnUse" style="mask-type:alpha"><path fill="#0D0B33" d="M251.702 293.053a.167.167 0 0 1 .061-.228l2.237-1.29a.168.168 0 0 1 .228.061l1.291 2.235a.167.167 0 0 1-.061.228l-2.236 1.29a.168.168 0 0 1-.229-.061l-1.291-2.235ZM256.076 300.624a.167.167 0 0 1 .062-.228l2.236-1.29a.167.167 0 0 1 .228.061l1.291 2.234a.167.167 0 0 1-.061.229l-2.236 1.29a.167.167 0 0 1-.228-.062l-1.292-2.234ZM260.453 308.195a.168.168 0 0 1 .062-.229l2.236-1.29a.167.167 0 0 1 .228.062l1.291 2.234a.166.166 0 0 1-.061.228l-2.236 1.29a.168.168 0 0 1-.229-.061l-1.291-2.234ZM264.828 315.765a.166.166 0 0 1 .061-.228l2.236-1.29a.168.168 0 0 1 .229.061l1.291 2.234a.168.168 0 0 1-.062.229l-2.236 1.289a.166.166 0 0 1-.228-.061l-1.291-2.234ZM269.199 323.336a.167.167 0 0 1 .062-.228l2.236-1.29a.167.167 0 0 1 .228.061l1.291 2.234a.166.166 0 0 1-.061.228l-2.236 1.29a.168.168 0 0 1-.229-.061l-1.291-2.234ZM273.576 330.906a.167.167 0 0 1 .061-.228l2.237-1.29a.167.167 0 0 1 .228.061l1.291 2.235a.167.167 0 0 1-.061.228l-2.236 1.29a.168.168 0 0 1-.229-.062l-1.291-2.234ZM277.953 338.477a.167.167 0 0 1 .061-.228l2.237-1.29a.167.167 0 0 1 .228.061l1.291 2.234a.168.168 0 0 1-.061.229l-2.236 1.29a.168.168 0 0 1-.229-.062l-1.291-2.234ZM282.327 346.048a.168.168 0 0 1 .062-.229l2.236-1.29a.167.167 0 0 1 .228.062l1.291 2.234a.166.166 0 0 1-.061.228l-2.236 1.29a.167.167 0 0 1-.228-.061l-1.292-2.234ZM286.704 353.618a.167.167 0 0 1 .062-.228l2.236-1.29a.167.167 0 0 1 .228.061l1.291 2.235a.166.166 0 0 1-.061.228l-2.236 1.29a.169.169 0 0 1-.229-.061l-1.291-2.235ZM291.076 361.189a.167.167 0 0 1 .061-.228l2.237-1.29a.167.167 0 0 1 .228.061l1.291 2.234a.167.167 0 0 1-.061.228l-2.236 1.29a.168.168 0 0 1-.229-.061l-1.291-2.234ZM295.453 368.759a.167.167 0 0 1 .061-.228l2.236-1.29a.168.168 0 0 1 .229.061l1.291 2.234a.168.168 0 0 1-.061.229l-2.237 1.29a.167.167 0 0 1-.228-.062l-1.291-2.234ZM299.827 376.33a.167.167 0 0 1 .061-.228l2.237-1.29a.167.167 0 0 1 .228.061l1.291 2.234a.168.168 0 0 1-.061.229l-2.236 1.289a.167.167 0 0 1-.229-.061l-1.291-2.234ZM304.202 383.9a.166.166 0 0 1 .061-.228l2.236-1.29a.168.168 0 0 1 .228.061l1.292 2.235a.167.167 0 0 1-.062.228l-2.236 1.29a.168.168 0 0 1-.228-.061l-1.291-2.235ZM308.576 391.472a.168.168 0 0 1 .061-.229l2.236-1.29a.168.168 0 0 1 .229.062l1.291 2.234a.167.167 0 0 1-.061.228l-2.237 1.29a.167.167 0 0 1-.228-.061l-1.291-2.234ZM312.953 399.042a.167.167 0 0 1 .061-.228l2.236-1.29a.168.168 0 0 1 .229.061l1.291 2.234a.168.168 0 0 1-.061.228l-2.237 1.29a.167.167 0 0 1-.228-.061l-1.291-2.234ZM317.33 406.612a.166.166 0 0 1 .061-.228l2.236-1.29a.169.169 0 0 1 .229.061l1.291 2.235a.167.167 0 0 1-.062.228l-2.236 1.29a.168.168 0 0 1-.228-.061l-1.291-2.235ZM259.28 288.683a.168.168 0 0 1 .061-.229l2.237-1.289a.166.166 0 0 1 .228.061l1.291 2.234a.167.167 0 0 1-.061.228l-2.236 1.29a.168.168 0 0 1-.229-.061l-1.291-2.234ZM263.654 296.253a.167.167 0 0 1 .062-.228l2.236-1.29a.167.167 0 0 1 .228.061l1.291 2.234a.167.167 0 0 1-.061.229l-2.236 1.29a.168.168 0 0 1-.229-.062l-1.291-2.234ZM268.029 303.824a.167.167 0 0 1 .061-.228l2.236-1.29a.168.168 0 0 1 .229.061l1.291 2.234a.167.167 0 0 1-.062.228l-2.236 1.29a.167.167 0 0 1-.228-.061l-1.291-2.234ZM272.403 311.394a.167.167 0 0 1 .061-.228l2.236-1.29a.168.168 0 0 1 .229.061l1.291 2.234a.168.168 0 0 1-.061.229l-2.236 1.289a.167.167 0 0 1-.229-.061l-1.291-2.234ZM276.78 318.965a.167.167 0 0 1 .061-.228l2.236-1.29a.168.168 0 0 1 .229.061l1.291 2.234a.168.168 0 0 1-.061.229l-2.237 1.29a.167.167 0 0 1-.228-.062l-1.291-2.234ZM281.154 326.536a.168.168 0 0 1 .061-.229l2.237-1.29a.167.167 0 0 1 .228.062l1.291 2.234a.167.167 0 0 1-.061.228l-2.236 1.29a.168.168 0 0 1-.229-.061l-1.291-2.234ZM285.528 334.106a.167.167 0 0 1 .062-.228l2.236-1.29a.168.168 0 0 1 .228.061l1.291 2.235a.166.166 0 0 1-.061.228l-2.236 1.29a.168.168 0 0 1-.228-.061l-1.292-2.235ZM289.903 341.677a.168.168 0 0 1 .061-.229l2.236-1.289a.167.167 0 0 1 .229.061l1.291 2.234a.167.167 0 0 1-.061.228l-2.237 1.29a.167.167 0 0 1-.228-.061l-1.291-2.234ZM294.277 349.248a.168.168 0 0 1 .061-.229l2.237-1.29a.167.167 0 0 1 .228.062l1.291 2.234a.167.167 0 0 1-.061.228l-2.236 1.29a.168.168 0 0 1-.229-.061l-1.291-2.234ZM298.654 356.818a.167.167 0 0 1 .061-.228l2.236-1.29a.168.168 0 0 1 .229.061l1.291 2.234a.168.168 0 0 1-.061.229l-2.237 1.289a.166.166 0 0 1-.228-.061l-1.291-2.234ZM303.028 364.388a.167.167 0 0 1 .061-.228l2.237-1.29a.168.168 0 0 1 .228.061l1.291 2.235a.167.167 0 0 1-.061.228l-2.236 1.29a.169.169 0 0 1-.229-.061l-1.291-2.235ZM307.403 371.959a.166.166 0 0 1 .061-.228l2.236-1.29a.167.167 0 0 1 .228.061l1.292 2.235a.167.167 0 0 1-.062.228l-2.236 1.29a.167.167 0 0 1-.228-.062l-1.291-2.234ZM311.779 379.53a.168.168 0 0 1 .062-.229l2.236-1.29a.167.167 0 0 1 .228.062l1.291 2.234a.166.166 0 0 1-.061.228l-2.236 1.29a.167.167 0 0 1-.228-.061l-1.292-2.234ZM316.154 387.1a.167.167 0 0 1 .061-.228l2.236-1.29a.168.168 0 0 1 .229.062l1.291 2.234a.167.167 0 0 1-.061.228l-2.237 1.29a.167.167 0 0 1-.228-.061l-1.291-2.235ZM320.528 394.671a.167.167 0 0 1 .061-.228l2.236-1.29a.168.168 0 0 1 .229.061l1.291 2.234a.167.167 0 0 1-.061.228l-2.236 1.29a.168.168 0 0 1-.229-.061l-1.291-2.234ZM324.905 402.242a.168.168 0 0 1 .061-.229l2.236-1.289a.167.167 0 0 1 .229.061l1.291 2.234a.167.167 0 0 1-.061.228l-2.237 1.29a.167.167 0 0 1-.228-.061l-1.291-2.234ZM266.858 284.312a.168.168 0 0 1 .061-.229l2.237-1.29a.167.167 0 0 1 .228.062l1.291 2.234a.167.167 0 0 1-.061.228l-2.236 1.29a.168.168 0 0 1-.229-.061l-1.291-2.234ZM271.232 291.882a.167.167 0 0 1 .062-.228l2.236-1.29a.167.167 0 0 1 .228.061l1.291 2.234a.166.166 0 0 1-.061.228l-2.236 1.29a.168.168 0 0 1-.229-.061l-1.291-2.234ZM275.609 299.453a.167.167 0 0 1 .061-.228l2.237-1.29a.167.167 0 0 1 .228.061l1.291 2.234a.167.167 0 0 1-.061.228l-2.236 1.29a.168.168 0 0 1-.229-.061l-1.291-2.234ZM279.984 307.024a.167.167 0 0 1 .061-.229l2.236-1.29a.167.167 0 0 1 .228.062l1.292 2.234a.167.167 0 0 1-.062.228l-2.236 1.29a.167.167 0 0 1-.228-.061l-1.291-2.234ZM284.355 314.594a.167.167 0 0 1 .061-.228l2.237-1.29a.167.167 0 0 1 .228.061l1.291 2.234a.168.168 0 0 1-.061.229l-2.236 1.289a.167.167 0 0 1-.229-.061l-1.291-2.234ZM288.732 322.165a.167.167 0 0 1 .061-.228l2.237-1.29a.167.167 0 0 1 .228.061l1.291 2.234a.167.167 0 0 1-.061.228l-2.236 1.29a.168.168 0 0 1-.229-.061l-1.291-2.234ZM293.109 329.736a.168.168 0 0 1 .061-.229l2.236-1.289a.167.167 0 0 1 .229.061l1.291 2.234a.167.167 0 0 1-.061.228l-2.236 1.29a.168.168 0 0 1-.229-.061l-1.291-2.234ZM297.483 337.306a.167.167 0 0 1 .062-.228l2.236-1.29a.167.167 0 0 1 .228.061l1.291 2.234a.166.166 0 0 1-.061.228l-2.236 1.29a.168.168 0 0 1-.229-.061l-1.291-2.234ZM301.86 344.877a.167.167 0 0 1 .061-.228l2.237-1.29a.167.167 0 0 1 .228.061l1.291 2.234a.167.167 0 0 1-.061.228l-2.236 1.29a.168.168 0 0 1-.229-.061l-1.291-2.234ZM306.234 352.447a.167.167 0 0 1 .062-.228l2.236-1.29a.167.167 0 0 1 .228.061l1.292 2.234a.167.167 0 0 1-.062.228l-2.236 1.29a.166.166 0 0 1-.228-.061l-1.292-2.234ZM310.609 360.018a.168.168 0 0 1 .061-.229l2.236-1.289a.167.167 0 0 1 .229.061l1.291 2.234a.167.167 0 0 1-.061.228l-2.237 1.29a.167.167 0 0 1-.228-.061l-1.291-2.234ZM314.983 367.589a.168.168 0 0 1 .061-.229l2.237-1.29a.167.167 0 0 1 .228.062l1.291 2.234a.167.167 0 0 1-.061.228l-2.236 1.29a.168.168 0 0 1-.229-.061l-1.291-2.234ZM319.357 375.159a.167.167 0 0 1 .062-.228l2.236-1.29a.167.167 0 0 1 .228.061l1.291 2.234a.166.166 0 0 1-.061.228l-2.236 1.29a.168.168 0 0 1-.229-.061l-1.291-2.234ZM323.729 382.73a.168.168 0 0 1 .061-.229l2.237-1.289a.166.166 0 0 1 .228.061l1.291 2.234a.167.167 0 0 1-.061.228l-2.236 1.29a.168.168 0 0 1-.229-.061l-1.291-2.234ZM328.109 390.3a.166.166 0 0 1 .061-.228l2.236-1.29a.167.167 0 0 1 .228.061l1.292 2.234a.167.167 0 0 1-.062.228l-2.236 1.29a.167.167 0 0 1-.228-.061l-1.291-2.234ZM332.483 397.871a.167.167 0 0 1 .061-.228l2.236-1.29a.168.168 0 0 1 .229.061l1.291 2.234a.167.167 0 0 1-.061.228l-2.237 1.29a.167.167 0 0 1-.228-.061l-1.291-2.234ZM336.86 405.441a.167.167 0 0 1 .061-.228l2.236-1.29a.168.168 0 0 1 .229.061l1.291 2.234a.167.167 0 0 1-.061.228l-2.237 1.29a.167.167 0 0 1-.228-.061l-1.291-2.234ZM274.433 279.941a.167.167 0 0 1 .062-.228l2.236-1.29a.167.167 0 0 1 .228.061l1.291 2.234a.166.166 0 0 1-.061.228l-2.236 1.29a.167.167 0 0 1-.229-.061l-1.291-2.234ZM278.808 287.511a.166.166 0 0 1 .061-.228l2.236-1.29a.168.168 0 0 1 .229.061l1.291 2.234a.167.167 0 0 1-.062.228l-2.236 1.29a.166.166 0 0 1-.228-.061l-1.291-2.234ZM283.185 295.082a.166.166 0 0 1 .061-.228l2.236-1.29a.167.167 0 0 1 .228.061l1.292 2.234a.168.168 0 0 1-.062.229l-2.236 1.29a.167.167 0 0 1-.228-.062l-1.291-2.234ZM287.561 302.653a.168.168 0 0 1 .062-.229l2.236-1.29a.167.167 0 0 1 .228.062l1.291 2.234a.166.166 0 0 1-.061.228l-2.236 1.29a.167.167 0 0 1-.228-.061l-1.292-2.234ZM291.936 310.223a.167.167 0 0 1 .061-.228l2.236-1.29a.168.168 0 0 1 .229.061l1.291 2.234a.168.168 0 0 1-.061.229l-2.237 1.289a.166.166 0 0 1-.228-.061l-1.291-2.234ZM296.307 317.794a.167.167 0 0 1 .062-.228l2.236-1.29a.167.167 0 0 1 .228.061l1.291 2.234a.166.166 0 0 1-.061.228l-2.236 1.29a.167.167 0 0 1-.228-.061l-1.292-2.234ZM300.687 325.364a.167.167 0 0 1 .061-.228l2.236-1.29a.168.168 0 0 1 .229.061l1.291 2.234a.168.168 0 0 1-.061.229l-2.237 1.29a.167.167 0 0 1-.228-.062l-1.291-2.234ZM305.059 332.935a.166.166 0 0 1 .061-.228l2.236-1.29a.168.168 0 0 1 .229.061l1.291 2.234a.168.168 0 0 1-.062.229l-2.236 1.289a.166.166 0 0 1-.228-.061l-1.291-2.234ZM309.433 340.506a.167.167 0 0 1 .061-.228l2.236-1.29a.168.168 0 0 1 .229.061l1.291 2.234a.167.167 0 0 1-.061.228l-2.237 1.29a.167.167 0 0 1-.228-.061l-1.291-2.234ZM313.81 348.076a.167.167 0 0 1 .061-.228l2.236-1.29a.168.168 0 0 1 .229.061l1.291 2.234a.168.168 0 0 1-.061.229l-2.237 1.29a.167.167 0 0 1-.228-.062l-1.291-2.234ZM318.187 355.647a.167.167 0 0 1 .061-.228l2.236-1.29a.168.168 0 0 1 .229.061l1.291 2.234a.168.168 0 0 1-.061.228l-2.237 1.29a.167.167 0 0 1-.228-.061l-1.291-2.234ZM322.561 363.218a.167.167 0 0 1 .061-.228l2.236-1.29a.167.167 0 0 1 .229.061l1.291 2.234a.167.167 0 0 1-.061.228l-2.236 1.29a.168.168 0 0 1-.229-.061l-1.291-2.234ZM326.935 370.788a.167.167 0 0 1 .062-.228l2.236-1.29a.167.167 0 0 1 .228.061l1.291 2.234a.167.167 0 0 1-.061.228l-2.236 1.29a.168.168 0 0 1-.229-.061l-1.291-2.234ZM331.31 378.359a.166.166 0 0 1 .061-.228l2.236-1.29a.168.168 0 0 1 .229.061l1.291 2.234a.167.167 0 0 1-.062.228l-2.236 1.29a.167.167 0 0 1-.228-.061l-1.291-2.234ZM335.684 385.929a.167.167 0 0 1 .061-.228l2.236-1.29a.168.168 0 0 1 .229.061l1.291 2.234a.168.168 0 0 1-.061.229l-2.237 1.289a.166.166 0 0 1-.228-.061l-1.291-2.234ZM340.061 393.5a.167.167 0 0 1 .061-.228l2.236-1.29a.168.168 0 0 1 .229.061l1.291 2.234a.167.167 0 0 1-.061.228l-2.237 1.29a.167.167 0 0 1-.228-.061l-1.291-2.234ZM344.432 401.07a.167.167 0 0 1 .062-.228l2.236-1.29a.167.167 0 0 1 .228.061l1.291 2.235a.166.166 0 0 1-.061.228l-2.236 1.29a.167.167 0 0 1-.228-.062l-1.292-2.234ZM282.017 275.57a.166.166 0 0 1 .061-.228l2.236-1.29a.167.167 0 0 1 .228.061l1.292 2.234a.168.168 0 0 1-.062.229l-2.236 1.29a.167.167 0 0 1-.228-.062l-1.291-2.234ZM286.391 283.14a.167.167 0 0 1 .061-.228l2.236-1.29a.168.168 0 0 1 .229.061l1.291 2.234a.168.168 0 0 1-.061.229l-2.237 1.29a.167.167 0 0 1-.228-.062l-1.291-2.234ZM290.765 290.711a.167.167 0 0 1 .061-.228l2.237-1.29a.167.167 0 0 1 .228.061l1.291 2.234a.168.168 0 0 1-.061.229l-2.236 1.289a.167.167 0 0 1-.229-.061l-1.291-2.234ZM295.139 298.282a.167.167 0 0 1 .062-.228l2.236-1.29a.167.167 0 0 1 .228.061l1.291 2.234a.166.166 0 0 1-.061.228l-2.236 1.29a.168.168 0 0 1-.229-.061l-1.291-2.234ZM299.514 305.852a.166.166 0 0 1 .061-.228l2.236-1.29a.168.168 0 0 1 .229.061l1.291 2.235a.167.167 0 0 1-.062.228l-2.236 1.29a.167.167 0 0 1-.228-.062l-1.291-2.234ZM303.888 313.423a.167.167 0 0 1 .061-.228l2.236-1.29a.168.168 0 0 1 .229.061l1.291 2.234a.168.168 0 0 1-.061.229l-2.237 1.289a.166.166 0 0 1-.228-.061l-1.291-2.234ZM308.262 320.994a.167.167 0 0 1 .061-.228l2.237-1.29a.167.167 0 0 1 .228.061l1.291 2.234a.167.167 0 0 1-.061.228l-2.236 1.29a.168.168 0 0 1-.229-.061l-1.291-2.234ZM312.639 328.564a.167.167 0 0 1 .061-.228l2.237-1.29a.167.167 0 0 1 .228.061l1.291 2.234a.167.167 0 0 1-.061.228l-2.236 1.29a.168.168 0 0 1-.229-.061l-1.291-2.234ZM317.013 336.135a.167.167 0 0 1 .062-.228l2.236-1.29a.167.167 0 0 1 .228.061l1.291 2.234a.167.167 0 0 1-.061.229l-2.236 1.29a.167.167 0 0 1-.228-.062l-1.292-2.234ZM321.39 343.705a.167.167 0 0 1 .062-.228l2.236-1.29a.167.167 0 0 1 .228.061l1.291 2.234a.167.167 0 0 1-.061.229l-2.236 1.29a.168.168 0 0 1-.229-.062l-1.291-2.234ZM325.762 351.276a.167.167 0 0 1 .061-.228l2.236-1.29a.168.168 0 0 1 .229.061l1.291 2.234a.167.167 0 0 1-.061.228l-2.236 1.29a.168.168 0 0 1-.229-.061l-1.291-2.234ZM330.139 358.847a.168.168 0 0 1 .061-.229l2.236-1.289a.167.167 0 0 1 .229.061l1.291 2.234a.167.167 0 0 1-.061.228l-2.237 1.29a.167.167 0 0 1-.228-.061l-1.291-2.234ZM334.516 366.417a.167.167 0 0 1 .061-.228l2.236-1.29a.168.168 0 0 1 .229.061l1.291 2.234a.167.167 0 0 1-.061.228l-2.237 1.29a.167.167 0 0 1-.228-.061l-1.291-2.234ZM338.89 373.988a.167.167 0 0 1 .061-.228l2.237-1.29a.167.167 0 0 1 .228.061l1.291 2.234a.168.168 0 0 1-.061.229l-2.236 1.289a.167.167 0 0 1-.229-.061l-1.291-2.234ZM343.264 381.558a.167.167 0 0 1 .062-.228l2.236-1.29a.167.167 0 0 1 .228.061l1.291 2.234a.167.167 0 0 1-.061.229l-2.236 1.289a.167.167 0 0 1-.229-.061l-1.291-2.234ZM347.639 389.129a.167.167 0 0 1 .061-.228l2.236-1.29a.168.168 0 0 1 .229.061l1.291 2.234a.168.168 0 0 1-.062.229l-2.236 1.29a.167.167 0 0 1-.228-.062l-1.291-2.234ZM352.013 396.699a.167.167 0 0 1 .061-.228l2.236-1.29a.168.168 0 0 1 .229.061l1.291 2.234a.168.168 0 0 1-.061.229l-2.236 1.29a.168.168 0 0 1-.229-.062l-1.291-2.234ZM289.589 271.199a.167.167 0 0 1 .061-.228l2.237-1.29a.167.167 0 0 1 .228.061l1.291 2.234a.167.167 0 0 1-.061.228l-2.236 1.29a.168.168 0 0 1-.229-.061l-1.291-2.234ZM293.966 278.77a.168.168 0 0 1 .061-.229l2.237-1.29a.167.167 0 0 1 .228.062l1.291 2.234a.167.167 0 0 1-.061.228l-2.236 1.29a.168.168 0 0 1-.229-.061l-1.291-2.234ZM298.34 286.34a.167.167 0 0 1 .062-.228l2.236-1.29a.167.167 0 0 1 .228.061l1.291 2.235a.166.166 0 0 1-.061.228l-2.236 1.29a.169.169 0 0 1-.229-.061l-1.291-2.235ZM302.717 293.911a.167.167 0 0 1 .062-.228l2.236-1.29a.167.167 0 0 1 .228.061l1.291 2.234a.166.166 0 0 1-.061.228l-2.236 1.29a.168.168 0 0 1-.229-.061l-1.291-2.234ZM307.092 301.482a.167.167 0 0 1 .061-.229l2.236-1.29a.167.167 0 0 1 .228.062l1.292 2.234a.167.167 0 0 1-.062.228l-2.236 1.29a.167.167 0 0 1-.228-.061l-1.291-2.234ZM311.466 309.052a.167.167 0 0 1 .061-.228l2.236-1.29a.168.168 0 0 1 .229.061l1.291 2.234a.168.168 0 0 1-.061.229l-2.237 1.289a.166.166 0 0 1-.228-.061l-1.291-2.234ZM315.84 316.623a.168.168 0 0 1 .061-.229l2.237-1.289a.166.166 0 0 1 .228.061l1.291 2.234a.167.167 0 0 1-.061.228l-2.236 1.29a.168.168 0 0 1-.229-.061l-1.291-2.234ZM320.217 324.193a.167.167 0 0 1 .061-.228l2.237-1.29a.167.167 0 0 1 .228.061l1.291 2.234a.168.168 0 0 1-.061.229l-2.236 1.29a.168.168 0 0 1-.229-.062l-1.291-2.234ZM324.591 331.764a.167.167 0 0 1 .062-.228l2.236-1.29a.167.167 0 0 1 .228.061l1.291 2.234a.166.166 0 0 1-.061.228l-2.236 1.29a.168.168 0 0 1-.229-.061l-1.291-2.234ZM328.963 339.335a.168.168 0 0 1 .061-.229l2.237-1.289a.166.166 0 0 1 .228.061l1.291 2.234a.167.167 0 0 1-.061.228l-2.236 1.29a.168.168 0 0 1-.229-.061l-1.291-2.234ZM333.343 346.905a.166.166 0 0 1 .061-.228l2.236-1.29a.167.167 0 0 1 .228.061l1.292 2.234a.167.167 0 0 1-.062.228l-2.236 1.29a.167.167 0 0 1-.228-.061l-1.291-2.234ZM337.714 354.476a.168.168 0 0 1 .061-.229l2.237-1.29a.167.167 0 0 1 .228.062l1.291 2.234a.167.167 0 0 1-.061.228l-2.236 1.29a.168.168 0 0 1-.229-.061l-1.291-2.234ZM342.091 362.046a.167.167 0 0 1 .061-.228l2.237-1.29a.167.167 0 0 1 .228.061l1.291 2.234a.168.168 0 0 1-.061.229l-2.236 1.289a.167.167 0 0 1-.229-.061l-1.291-2.234ZM346.463 369.617a.167.167 0 0 1 .061-.228l2.236-1.29a.167.167 0 0 1 .229.061l1.291 2.234a.167.167 0 0 1-.061.228l-2.237 1.29a.167.167 0 0 1-.228-.061l-1.291-2.234ZM350.84 377.187a.167.167 0 0 1 .061-.228l2.236-1.29a.168.168 0 0 1 .229.061l1.291 2.235a.167.167 0 0 1-.061.228l-2.237 1.29a.167.167 0 0 1-.228-.062l-1.291-2.234ZM355.217 384.758a.166.166 0 0 1 .061-.228l2.236-1.29a.168.168 0 0 1 .229.061l1.291 2.234a.168.168 0 0 1-.062.229l-2.236 1.289a.166.166 0 0 1-.228-.061l-1.291-2.234ZM359.591 392.328a.167.167 0 0 1 .061-.228l2.236-1.29a.168.168 0 0 1 .229.062l1.291 2.234a.167.167 0 0 1-.061.228l-2.237 1.29a.167.167 0 0 1-.228-.061l-1.291-2.235ZM297.17 266.828a.167.167 0 0 1 .061-.228l2.236-1.29a.168.168 0 0 1 .229.061l1.291 2.234a.168.168 0 0 1-.061.229l-2.237 1.289a.166.166 0 0 1-.228-.061l-1.291-2.234ZM301.544 274.399a.168.168 0 0 1 .061-.229l2.236-1.289a.167.167 0 0 1 .229.061l1.291 2.234a.167.167 0 0 1-.061.228l-2.236 1.29a.168.168 0 0 1-.229-.061l-1.291-2.234ZM305.918 281.97a.168.168 0 0 1 .062-.229l2.236-1.29a.167.167 0 0 1 .228.062l1.291 2.234a.167.167 0 0 1-.061.228l-2.236 1.29a.168.168 0 0 1-.229-.061l-1.291-2.234ZM310.293 289.54a.166.166 0 0 1 .061-.228l2.236-1.29a.168.168 0 0 1 .229.061l1.291 2.234a.167.167 0 0 1-.062.228l-2.236 1.29a.167.167 0 0 1-.228-.061l-1.291-2.234ZM314.67 297.111a.166.166 0 0 1 .061-.228l2.236-1.29a.166.166 0 0 1 .228.061l1.292 2.234a.167.167 0 0 1-.062.228l-2.236 1.29a.167.167 0 0 1-.228-.061l-1.291-2.234ZM319.046 304.681a.167.167 0 0 1 .062-.228l2.236-1.29a.167.167 0 0 1 .228.061l1.291 2.234a.166.166 0 0 1-.061.228l-2.236 1.29a.167.167 0 0 1-.228-.061l-1.292-2.234ZM323.421 312.252a.167.167 0 0 1 .061-.228l2.236-1.29a.168.168 0 0 1 .229.061l1.291 2.234a.168.168 0 0 1-.061.228l-2.237 1.29a.167.167 0 0 1-.228-.061l-1.291-2.234ZM327.795 319.822a.167.167 0 0 1 .061-.228l2.236-1.29a.168.168 0 0 1 .229.062l1.291 2.234a.167.167 0 0 1-.061.228l-2.236 1.29a.168.168 0 0 1-.229-.061l-1.291-2.235ZM332.169 327.393a.167.167 0 0 1 .061-.228l2.237-1.29a.167.167 0 0 1 .228.061l1.291 2.234a.167.167 0 0 1-.061.228l-2.236 1.29a.168.168 0 0 1-.229-.061l-1.291-2.234ZM336.546 334.964a.168.168 0 0 1 .061-.229l2.237-1.289a.166.166 0 0 1 .228.061l1.291 2.234a.167.167 0 0 1-.061.228l-2.236 1.29a.168.168 0 0 1-.229-.061l-1.291-2.234ZM340.918 342.534a.167.167 0 0 1 .061-.228l2.236-1.29a.168.168 0 0 1 .229.061l1.291 2.234a.167.167 0 0 1-.061.228l-2.237 1.29a.167.167 0 0 1-.228-.061l-1.291-2.234ZM345.295 350.105a.167.167 0 0 1 .061-.228l2.236-1.29a.168.168 0 0 1 .229.061l1.291 2.234a.167.167 0 0 1-.061.228l-2.237 1.29a.167.167 0 0 1-.228-.061l-1.291-2.234ZM349.672 357.675a.166.166 0 0 1 .061-.228l2.236-1.29a.169.169 0 0 1 .229.061l1.291 2.235a.167.167 0 0 1-.062.228l-2.236 1.29a.168.168 0 0 1-.228-.061l-1.291-2.235ZM354.046 365.246a.167.167 0 0 1 .061-.228l2.236-1.29a.168.168 0 0 1 .229.061l1.291 2.234a.167.167 0 0 1-.061.228l-2.236 1.29a.168.168 0 0 1-.229-.061l-1.291-2.234ZM358.423 372.817a.168.168 0 0 1 .061-.229l2.236-1.29a.168.168 0 0 1 .229.062l1.291 2.234a.167.167 0 0 1-.061.228l-2.237 1.29a.167.167 0 0 1-.228-.061l-1.291-2.234ZM362.795 380.387a.166.166 0 0 1 .061-.228l2.236-1.29a.167.167 0 0 1 .228.061l1.292 2.234a.168.168 0 0 1-.062.229l-2.236 1.289a.166.166 0 0 1-.228-.061l-1.291-2.234ZM367.169 387.958a.168.168 0 0 1 .061-.229l2.236-1.289a.167.167 0 0 1 .229.061l1.291 2.234a.167.167 0 0 1-.061.228l-2.237 1.29a.167.167 0 0 1-.228-.061l-1.291-2.234ZM304.748 262.457a.166.166 0 0 1 .061-.228l2.236-1.29a.168.168 0 0 1 .229.061l1.291 2.235a.167.167 0 0 1-.062.228l-2.236 1.29a.167.167 0 0 1-.228-.062l-1.291-2.234ZM309.119 270.028a.167.167 0 0 1 .062-.228l2.236-1.29a.167.167 0 0 1 .228.061l1.291 2.234a.166.166 0 0 1-.061.228l-2.236 1.29a.168.168 0 0 1-.229-.061l-1.291-2.234ZM313.496 277.599a.167.167 0 0 1 .061-.228l2.237-1.29a.167.167 0 0 1 .228.061l1.291 2.234a.167.167 0 0 1-.061.228l-2.236 1.29a.168.168 0 0 1-.229-.061l-1.291-2.234ZM317.873 285.169a.167.167 0 0 1 .061-.228l2.237-1.29a.167.167 0 0 1 .228.061l1.291 2.234a.167.167 0 0 1-.061.228l-2.236 1.29a.167.167 0 0 1-.229-.061l-1.291-2.234ZM322.245 292.74a.167.167 0 0 1 .061-.228l2.236-1.29a.168.168 0 0 1 .229.061l1.291 2.234a.167.167 0 0 1-.061.228l-2.237 1.29a.167.167 0 0 1-.228-.061l-1.291-2.234ZM326.619 300.31a.167.167 0 0 1 .061-.228l2.237-1.29a.167.167 0 0 1 .228.061l1.291 2.234a.168.168 0 0 1-.061.229l-2.236 1.29a.168.168 0 0 1-.229-.062l-1.291-2.234ZM330.996 307.881a.167.167 0 0 1 .061-.228l2.236-1.29a.168.168 0 0 1 .229.061l1.291 2.234a.168.168 0 0 1-.061.229l-2.236 1.289a.167.167 0 0 1-.229-.061l-1.291-2.234ZM335.37 315.451a.167.167 0 0 1 .062-.228l2.236-1.29a.167.167 0 0 1 .228.061l1.291 2.234a.167.167 0 0 1-.061.229l-2.236 1.289a.167.167 0 0 1-.229-.061l-1.291-2.234ZM339.747 323.022a.167.167 0 0 1 .061-.228l2.237-1.29a.167.167 0 0 1 .228.061l1.291 2.234a.168.168 0 0 1-.061.229l-2.236 1.29a.168.168 0 0 1-.229-.062l-1.291-2.234ZM344.122 330.593a.166.166 0 0 1 .061-.228l2.236-1.29a.167.167 0 0 1 .228.061l1.292 2.234a.167.167 0 0 1-.062.228l-2.236 1.29a.167.167 0 0 1-.228-.061l-1.291-2.234ZM348.496 338.163a.167.167 0 0 1 .061-.228l2.236-1.29a.168.168 0 0 1 .229.061l1.291 2.234a.167.167 0 0 1-.061.228l-2.237 1.29a.167.167 0 0 1-.228-.061l-1.291-2.234ZM352.87 345.734a.167.167 0 0 1 .061-.228l2.237-1.29a.167.167 0 0 1 .228.061l1.291 2.234a.167.167 0 0 1-.061.228l-2.236 1.29a.168.168 0 0 1-.229-.061l-1.291-2.234ZM357.247 353.305a.168.168 0 0 1 .061-.229l2.236-1.29a.168.168 0 0 1 .229.062l1.291 2.234a.167.167 0 0 1-.061.228l-2.236 1.29a.168.168 0 0 1-.229-.061l-1.291-2.234ZM361.621 360.875a.168.168 0 0 1 .061-.228l2.237-1.29a.167.167 0 0 1 .228.061l1.291 2.234a.167.167 0 0 1-.061.228l-2.236 1.29a.168.168 0 0 1-.229-.061l-1.291-2.234ZM365.996 368.446a.166.166 0 0 1 .061-.228l2.236-1.29a.166.166 0 0 1 .228.061l1.292 2.234a.167.167 0 0 1-.062.228l-2.236 1.29a.167.167 0 0 1-.228-.061l-1.291-2.234ZM370.375 376.016a.167.167 0 0 1 .061-.228l2.237-1.29a.167.167 0 0 1 .228.061l1.291 2.235a.167.167 0 0 1-.061.228l-2.236 1.29a.168.168 0 0 1-.229-.062l-1.291-2.234ZM374.747 383.587a.167.167 0 0 1 .061-.228l2.236-1.29a.168.168 0 0 1 .229.061l1.291 2.234a.167.167 0 0 1-.061.228l-2.237 1.29a.167.167 0 0 1-.228-.061l-1.291-2.234ZM312.323 258.086a.167.167 0 0 1 .061-.228l2.236-1.29a.168.168 0 0 1 .229.061l1.291 2.234a.168.168 0 0 1-.061.229l-2.236 1.29a.168.168 0 0 1-.229-.062l-1.291-2.234ZM316.697 265.657a.167.167 0 0 1 .061-.228l2.237-1.29a.167.167 0 0 1 .228.061l1.291 2.234a.168.168 0 0 1-.061.229l-2.236 1.289a.167.167 0 0 1-.229-.061l-1.291-2.234ZM321.074 273.227a.167.167 0 0 1 .061-.228l2.237-1.29a.168.168 0 0 1 .228.061l1.291 2.235a.167.167 0 0 1-.061.228l-2.236 1.29a.169.169 0 0 1-.229-.061l-1.291-2.235ZM325.448 280.798a.167.167 0 0 1 .062-.228l2.236-1.29a.167.167 0 0 1 .228.061l1.291 2.234a.166.166 0 0 1-.061.228l-2.236 1.29a.167.167 0 0 1-.228-.061l-1.292-2.234ZM329.823 288.369a.167.167 0 0 1 .061-.228l2.236-1.29a.168.168 0 0 1 .229.061l1.291 2.234a.168.168 0 0 1-.061.229l-2.237 1.289a.166.166 0 0 1-.228-.061l-1.291-2.234ZM334.197 295.939a.167.167 0 0 1 .061-.228l2.237-1.29a.167.167 0 0 1 .228.061l1.291 2.234a.168.168 0 0 1-.061.229l-2.236 1.289a.167.167 0 0 1-.229-.061l-1.291-2.234ZM338.574 303.51a.167.167 0 0 1 .061-.228l2.236-1.29a.168.168 0 0 1 .229.061l1.291 2.234a.167.167 0 0 1-.061.228l-2.237 1.29a.167.167 0 0 1-.228-.061l-1.291-2.234ZM342.948 311.08a.167.167 0 0 1 .061-.228l2.237-1.29a.167.167 0 0 1 .228.061l1.291 2.234a.168.168 0 0 1-.061.229l-2.236 1.29a.168.168 0 0 1-.229-.062l-1.291-2.234ZM347.325 318.651a.167.167 0 0 1 .061-.228l2.237-1.29a.167.167 0 0 1 .228.062l1.291 2.234a.167.167 0 0 1-.061.228l-2.236 1.29a.168.168 0 0 1-.229-.061l-1.291-2.235ZM351.697 326.222a.167.167 0 0 1 .061-.228l2.236-1.29a.168.168 0 0 1 .229.061l1.291 2.234a.167.167 0 0 1-.061.228l-2.237 1.29a.167.167 0 0 1-.228-.061l-1.291-2.234ZM356.074 333.792a.167.167 0 0 1 .061-.228l2.236-1.29a.168.168 0 0 1 .229.061l1.291 2.235a.167.167 0 0 1-.061.228l-2.237 1.29a.167.167 0 0 1-.228-.062l-1.291-2.234ZM360.448 341.363a.167.167 0 0 1 .061-.228l2.236-1.29a.168.168 0 0 1 .229.061l1.291 2.234a.167.167 0 0 1-.061.228l-2.236 1.29a.168.168 0 0 1-.229-.061l-1.291-2.234ZM364.825 348.934a.168.168 0 0 1 .061-.229l2.236-1.29a.168.168 0 0 1 .229.062l1.291 2.234a.167.167 0 0 1-.061.228l-2.237 1.29a.167.167 0 0 1-.228-.061l-1.291-2.234ZM369.199 356.504a.167.167 0 0 1 .061-.228l2.237-1.29a.167.167 0 0 1 .228.061l1.291 2.235a.167.167 0 0 1-.061.228l-2.236 1.29a.169.169 0 0 1-.229-.061l-1.291-2.235ZM373.573 364.075a.168.168 0 0 1 .062-.229l2.236-1.289a.166.166 0 0 1 .228.061l1.292 2.234a.167.167 0 0 1-.062.228l-2.236 1.29a.167.167 0 0 1-.228-.061l-1.292-2.234ZM377.948 371.646a.168.168 0 0 1 .061-.229l2.236-1.29a.168.168 0 0 1 .229.062l1.291 2.234a.167.167 0 0 1-.061.228l-2.237 1.29a.167.167 0 0 1-.228-.061l-1.291-2.234ZM382.325 379.216a.167.167 0 0 1 .061-.228l2.236-1.29a.168.168 0 0 1 .229.061l1.291 2.234a.167.167 0 0 1-.062.228l-2.236 1.29a.167.167 0 0 1-.228-.061l-1.291-2.234ZM319.904 253.715a.166.166 0 0 1 .061-.228l2.236-1.29a.167.167 0 0 1 .228.062l1.292 2.234a.167.167 0 0 1-.062.228l-2.236 1.29a.167.167 0 0 1-.228-.061l-1.291-2.235ZM324.278 261.286a.167.167 0 0 1 .061-.228l2.236-1.29a.168.168 0 0 1 .229.061l1.291 2.234a.167.167 0 0 1-.061.228l-2.237 1.29a.167.167 0 0 1-.228-.061l-1.291-2.234ZM328.652 268.857a.168.168 0 0 1 .061-.229l2.237-1.289a.166.166 0 0 1 .228.061l1.291 2.234a.167.167 0 0 1-.061.228l-2.236 1.29a.168.168 0 0 1-.229-.061l-1.291-2.234ZM333.026 276.427a.167.167 0 0 1 .062-.228l2.236-1.29a.167.167 0 0 1 .228.061l1.291 2.234a.167.167 0 0 1-.061.229l-2.236 1.29a.168.168 0 0 1-.229-.062l-1.291-2.234ZM337.403 283.998a.167.167 0 0 1 .061-.228l2.237-1.29a.167.167 0 0 1 .228.061l1.291 2.234a.168.168 0 0 1-.061.229l-2.236 1.289a.167.167 0 0 1-.229-.061l-1.291-2.234ZM341.778 291.568a.166.166 0 0 1 .061-.228l2.236-1.29a.168.168 0 0 1 .228.061l1.292 2.235a.167.167 0 0 1-.062.228l-2.236 1.29a.168.168 0 0 1-.228-.061l-1.291-2.235ZM346.152 299.139a.167.167 0 0 1 .061-.228l2.236-1.29a.168.168 0 0 1 .229.061l1.291 2.234a.168.168 0 0 1-.061.229l-2.237 1.29a.167.167 0 0 1-.228-.062l-1.291-2.234ZM350.529 306.71a.168.168 0 0 1 .061-.229l2.236-1.29a.168.168 0 0 1 .229.062l1.291 2.234a.167.167 0 0 1-.061.228l-2.237 1.29a.167.167 0 0 1-.228-.061l-1.291-2.234ZM354.903 314.28a.167.167 0 0 1 .061-.228l2.237-1.29a.168.168 0 0 1 .228.061l1.291 2.235a.167.167 0 0 1-.061.228l-2.236 1.29a.169.169 0 0 1-.229-.061l-1.291-2.235ZM359.277 321.851a.168.168 0 0 1 .062-.229l2.236-1.289a.166.166 0 0 1 .228.061l1.291 2.234a.166.166 0 0 1-.061.228l-2.236 1.29a.168.168 0 0 1-.229-.061l-1.291-2.234ZM363.652 329.421a.166.166 0 0 1 .061-.228l2.236-1.29a.168.168 0 0 1 .229.061l1.291 2.234a.168.168 0 0 1-.062.229l-2.236 1.29a.167.167 0 0 1-.228-.062l-1.291-2.234ZM368.026 336.992a.167.167 0 0 1 .061-.228l2.236-1.29a.168.168 0 0 1 .229.061l1.291 2.234a.168.168 0 0 1-.061.229l-2.237 1.289a.166.166 0 0 1-.228-.061l-1.291-2.234ZM372.403 344.563a.168.168 0 0 1 .061-.229l2.236-1.289a.167.167 0 0 1 .229.061l1.291 2.234a.167.167 0 0 1-.061.228l-2.237 1.29a.167.167 0 0 1-.228-.061l-1.291-2.234ZM376.777 352.133a.167.167 0 0 1 .061-.228l2.237-1.29a.167.167 0 0 1 .228.061l1.291 2.234a.168.168 0 0 1-.061.229l-2.236 1.29a.168.168 0 0 1-.229-.062l-1.291-2.234ZM381.154 359.704a.168.168 0 0 1 .061-.229l2.236-1.29a.168.168 0 0 1 .229.062l1.291 2.234a.167.167 0 0 1-.061.228l-2.236 1.29a.168.168 0 0 1-.229-.061l-1.291-2.234ZM385.528 367.275a.167.167 0 0 1 .062-.228l2.236-1.29a.166.166 0 0 1 .228.061l1.291 2.234a.166.166 0 0 1-.061.228l-2.236 1.29a.168.168 0 0 1-.229-.061l-1.291-2.234ZM389.903 374.845a.166.166 0 0 1 .061-.228l2.236-1.29a.168.168 0 0 1 .229.061l1.291 2.235a.167.167 0 0 1-.062.228l-2.236 1.29a.167.167 0 0 1-.228-.062l-1.291-2.234ZM327.479 249.345a.168.168 0 0 1 .061-.229l2.236-1.289a.167.167 0 0 1 .229.061l1.291 2.234a.167.167 0 0 1-.061.228l-2.237 1.29a.167.167 0 0 1-.228-.061l-1.291-2.234ZM331.853 256.915a.167.167 0 0 1 .061-.228l2.237-1.29a.167.167 0 0 1 .228.061l1.291 2.234a.167.167 0 0 1-.061.228l-2.236 1.29a.168.168 0 0 1-.229-.061l-1.291-2.234ZM336.227 264.486a.167.167 0 0 1 .062-.228l2.236-1.29a.167.167 0 0 1 .228.061l1.291 2.234a.166.166 0 0 1-.061.228l-2.236 1.29a.168.168 0 0 1-.229-.061l-1.291-2.234ZM340.602 272.056a.167.167 0 0 1 .061-.228l2.236-1.29a.169.169 0 0 1 .229.061l1.291 2.235a.167.167 0 0 1-.062.228l-2.236 1.29a.168.168 0 0 1-.228-.061l-1.291-2.235ZM344.981 279.627a.167.167 0 0 1 .061-.228l2.237-1.29a.167.167 0 0 1 .228.061l1.291 2.234a.167.167 0 0 1-.061.228l-2.236 1.29a.168.168 0 0 1-.229-.061l-1.291-2.234ZM349.353 287.198a.168.168 0 0 1 .061-.229l2.236-1.29a.168.168 0 0 1 .229.062l1.291 2.234a.167.167 0 0 1-.061.228l-2.237 1.29a.167.167 0 0 1-.228-.061l-1.291-2.234ZM353.727 294.768a.167.167 0 0 1 .061-.228l2.237-1.29a.168.168 0 0 1 .228.061l1.291 2.235a.167.167 0 0 1-.061.228l-2.236 1.29a.168.168 0 0 1-.229-.061l-1.291-2.235ZM358.104 302.339a.167.167 0 0 1 .061-.228l2.237-1.29a.166.166 0 0 1 .228.061l1.291 2.234a.167.167 0 0 1-.061.228l-2.236 1.29a.168.168 0 0 1-.229-.061l-1.291-2.234ZM362.478 309.91a.168.168 0 0 1 .062-.229l2.236-1.289a.166.166 0 0 1 .228.061l1.291 2.234a.166.166 0 0 1-.061.228l-2.236 1.29a.168.168 0 0 1-.229-.061l-1.291-2.234ZM366.853 317.48a.166.166 0 0 1 .061-.228l2.236-1.29a.168.168 0 0 1 .229.061l1.291 2.234a.167.167 0 0 1-.062.228l-2.236 1.29a.167.167 0 0 1-.228-.061l-1.291-2.234ZM371.227 325.051a.167.167 0 0 1 .061-.228l2.236-1.29a.168.168 0 0 1 .229.061l1.291 2.234a.167.167 0 0 1-.061.228l-2.237 1.29a.167.167 0 0 1-.228-.061l-1.291-2.234ZM375.606 332.621a.167.167 0 0 1 .062-.228l2.236-1.29a.167.167 0 0 1 .228.061l1.291 2.235a.166.166 0 0 1-.061.228l-2.236 1.29a.167.167 0 0 1-.228-.062l-1.292-2.234ZM379.978 340.192a.168.168 0 0 1 .061-.229l2.237-1.289a.166.166 0 0 1 .228.061l1.291 2.234a.167.167 0 0 1-.061.228l-2.236 1.29a.168.168 0 0 1-.229-.061l-1.291-2.234ZM384.358 347.763a.166.166 0 0 1 .061-.228l2.236-1.29a.168.168 0 0 1 .229.061l1.291 2.234a.167.167 0 0 1-.062.228l-2.236 1.29a.167.167 0 0 1-.228-.061l-1.291-2.234ZM388.729 355.333a.167.167 0 0 1 .062-.228l2.236-1.29a.167.167 0 0 1 .228.061l1.291 2.234a.166.166 0 0 1-.061.228l-2.236 1.29a.168.168 0 0 1-.229-.061l-1.291-2.234ZM393.104 362.904a.167.167 0 0 1 .061-.229l2.236-1.289a.167.167 0 0 1 .229.061l1.291 2.234a.167.167 0 0 1-.062.228l-2.236 1.29a.167.167 0 0 1-.228-.061l-1.291-2.234ZM397.478 370.474a.167.167 0 0 1 .061-.228l2.236-1.29a.168.168 0 0 1 .229.061l1.291 2.234a.168.168 0 0 1-.061.229l-2.237 1.29a.167.167 0 0 1-.228-.062l-1.291-2.234ZM335.059 244.974a.167.167 0 0 1 .062-.228l2.236-1.29a.167.167 0 0 1 .228.061l1.291 2.234a.166.166 0 0 1-.061.228l-2.236 1.29a.168.168 0 0 1-.229-.061l-1.291-2.234ZM339.434 252.544a.166.166 0 0 1 .061-.228l2.236-1.29a.168.168 0 0 1 .229.061l1.291 2.234a.168.168 0 0 1-.062.229l-2.236 1.289a.166.166 0 0 1-.228-.061l-1.291-2.234ZM343.808 260.115a.167.167 0 0 1 .061-.228l2.236-1.29a.168.168 0 0 1 .229.061l1.291 2.234a.167.167 0 0 1-.061.228l-2.237 1.29a.167.167 0 0 1-.228-.061l-1.291-2.234ZM348.182 267.685a.167.167 0 0 1 .061-.228l2.237-1.29a.167.167 0 0 1 .228.061l1.291 2.235a.167.167 0 0 1-.061.228l-2.236 1.29a.168.168 0 0 1-.229-.062l-1.291-2.234ZM352.556 275.256a.167.167 0 0 1 .062-.228l2.236-1.29a.167.167 0 0 1 .228.061l1.292 2.234a.168.168 0 0 1-.062.229l-2.236 1.29a.167.167 0 0 1-.228-.062l-1.292-2.234ZM356.933 282.827a.167.167 0 0 1 .062-.228l2.236-1.29a.167.167 0 0 1 .228.061l1.291 2.234a.166.166 0 0 1-.061.228l-2.236 1.29a.167.167 0 0 1-.228-.061l-1.292-2.234ZM361.31 290.398a.168.168 0 0 1 .062-.229l2.236-1.289a.166.166 0 0 1 .228.061l1.291 2.234a.166.166 0 0 1-.061.228l-2.236 1.29a.168.168 0 0 1-.229-.061l-1.291-2.234ZM365.685 297.968a.166.166 0 0 1 .061-.228l2.236-1.29a.168.168 0 0 1 .229.061l1.291 2.234a.167.167 0 0 1-.062.228l-2.236 1.29a.167.167 0 0 1-.228-.061l-1.291-2.234ZM370.056 305.539a.167.167 0 0 1 .062-.228l2.236-1.29a.167.167 0 0 1 .228.061l1.291 2.234a.166.166 0 0 1-.061.228l-2.236 1.29a.168.168 0 0 1-.229-.061l-1.291-2.234ZM374.436 313.109a.167.167 0 0 1 .061-.228l2.236-1.29a.168.168 0 0 1 .229.061l1.291 2.234a.168.168 0 0 1-.061.229l-2.237 1.289a.166.166 0 0 1-.228-.061l-1.291-2.234ZM378.807 320.68a.168.168 0 0 1 .062-.229l2.236-1.289a.166.166 0 0 1 .228.061l1.292 2.234a.167.167 0 0 1-.062.228l-2.236 1.29a.167.167 0 0 1-.228-.061l-1.292-2.234ZM383.182 328.25a.167.167 0 0 1 .061-.228l2.236-1.29a.168.168 0 0 1 .229.061l1.291 2.234a.168.168 0 0 1-.061.229l-2.237 1.29a.167.167 0 0 1-.228-.062l-1.291-2.234ZM387.556 335.821a.167.167 0 0 1 .061-.228l2.237-1.29a.167.167 0 0 1 .228.061l1.291 2.234a.167.167 0 0 1-.061.228l-2.236 1.29a.168.168 0 0 1-.229-.061l-1.291-2.234ZM391.933 343.392a.168.168 0 0 1 .061-.229l2.236-1.289a.167.167 0 0 1 .229.061l1.291 2.234a.167.167 0 0 1-.061.228l-2.236 1.29a.168.168 0 0 1-.229-.061l-1.291-2.234ZM396.31 350.962a.167.167 0 0 1 .061-.228l2.236-1.29a.168.168 0 0 1 .229.061l1.291 2.234a.167.167 0 0 1-.061.228l-2.237 1.29a.167.167 0 0 1-.228-.061l-1.291-2.234ZM400.682 358.533a.166.166 0 0 1 .061-.228l2.236-1.29a.167.167 0 0 1 .228.061l1.292 2.234a.167.167 0 0 1-.062.228l-2.236 1.29a.167.167 0 0 1-.228-.061l-1.291-2.234ZM405.058 366.103a.167.167 0 0 1 .062-.228l2.236-1.29a.167.167 0 0 1 .228.061l1.291 2.234a.167.167 0 0 1-.061.229l-2.236 1.289a.166.166 0 0 1-.228-.061l-1.292-2.234ZM342.635 240.603a.166.166 0 0 1 .061-.228l2.236-1.29a.168.168 0 0 1 .229.061l1.291 2.234a.168.168 0 0 1-.062.229l-2.236 1.289a.166.166 0 0 1-.228-.061l-1.291-2.234ZM347.009 248.173a.167.167 0 0 1 .061-.228l2.236-1.29a.169.169 0 0 1 .229.061l1.291 2.235a.167.167 0 0 1-.061.228l-2.236 1.29a.169.169 0 0 1-.229-.061l-1.291-2.235ZM351.383 255.744a.167.167 0 0 1 .061-.228l2.237-1.29a.167.167 0 0 1 .228.061l1.291 2.234a.168.168 0 0 1-.061.229l-2.236 1.29a.168.168 0 0 1-.229-.062l-1.291-2.234ZM355.76 263.314a.167.167 0 0 1 .061-.228l2.237-1.29a.167.167 0 0 1 .228.061l1.291 2.234a.168.168 0 0 1-.061.229l-2.236 1.29a.168.168 0 0 1-.229-.062l-1.291-2.234ZM360.134 270.885a.167.167 0 0 1 .062-.228l2.236-1.29a.168.168 0 0 1 .228.061l1.291 2.235a.166.166 0 0 1-.061.228l-2.236 1.29a.168.168 0 0 1-.228-.061l-1.292-2.235ZM364.511 278.456a.167.167 0 0 1 .062-.228l2.236-1.29a.167.167 0 0 1 .228.061l1.291 2.234a.166.166 0 0 1-.061.228l-2.236 1.29a.168.168 0 0 1-.229-.061l-1.291-2.234ZM368.886 286.027a.167.167 0 0 1 .061-.229l2.236-1.29a.168.168 0 0 1 .229.062l1.291 2.234a.167.167 0 0 1-.062.228l-2.236 1.29a.167.167 0 0 1-.228-.061l-1.291-2.234ZM373.26 293.597a.167.167 0 0 1 .061-.228l2.236-1.29a.168.168 0 0 1 .229.061l1.291 2.234a.168.168 0 0 1-.061.229l-2.237 1.289a.166.166 0 0 1-.228-.061l-1.291-2.234ZM377.634 301.168a.167.167 0 0 1 .061-.228l2.237-1.29a.167.167 0 0 1 .228.061l1.291 2.234a.167.167 0 0 1-.061.228l-2.236 1.29a.168.168 0 0 1-.229-.061l-1.291-2.234ZM382.009 308.738a.166.166 0 0 1 .061-.228l2.236-1.29a.167.167 0 0 1 .228.061l1.292 2.235a.167.167 0 0 1-.062.228l-2.236 1.29a.167.167 0 0 1-.228-.062l-1.291-2.234ZM386.385 316.309a.167.167 0 0 1 .062-.228l2.236-1.29a.167.167 0 0 1 .228.061l1.291 2.234a.166.166 0 0 1-.061.228l-2.236 1.29a.167.167 0 0 1-.228-.061l-1.292-2.234ZM390.76 323.879a.167.167 0 0 1 .061-.228l2.236-1.29a.168.168 0 0 1 .229.062l1.291 2.234a.168.168 0 0 1-.061.228l-2.237 1.29a.167.167 0 0 1-.228-.061l-1.291-2.235ZM395.137 331.45a.166.166 0 0 1 .061-.228l2.236-1.29a.168.168 0 0 1 .229.061l1.291 2.234a.167.167 0 0 1-.062.228l-2.236 1.29a.166.166 0 0 1-.228-.061l-1.291-2.234ZM399.511 339.021a.167.167 0 0 1 .061-.228l2.236-1.29a.168.168 0 0 1 .229.061l1.291 2.234a.167.167 0 0 1-.061.228l-2.237 1.29a.167.167 0 0 1-.228-.061l-1.291-2.234ZM403.883 346.591a.166.166 0 0 1 .061-.228l2.236-1.29a.168.168 0 0 1 .229.061l1.291 2.234a.167.167 0 0 1-.062.228l-2.236 1.29a.167.167 0 0 1-.228-.061l-1.291-2.234ZM408.257 354.162a.167.167 0 0 1 .061-.228l2.236-1.29a.168.168 0 0 1 .229.061l1.291 2.234a.167.167 0 0 1-.061.228l-2.237 1.29a.167.167 0 0 1-.228-.061l-1.291-2.234ZM412.634 361.732a.167.167 0 0 1 .061-.228l2.236-1.29a.168.168 0 0 1 .229.061l1.291 2.235a.167.167 0 0 1-.061.228l-2.237 1.29a.168.168 0 0 1-.228-.061l-1.291-2.235ZM350.215 236.232a.167.167 0 0 1 .061-.228l2.237-1.29a.166.166 0 0 1 .228.061l1.291 2.234a.167.167 0 0 1-.061.228l-2.236 1.29a.168.168 0 0 1-.229-.061l-1.291-2.234ZM354.589 243.802a.167.167 0 0 1 .062-.228l2.236-1.29a.167.167 0 0 1 .228.061l1.291 2.234a.167.167 0 0 1-.061.229l-2.236 1.29a.167.167 0 0 1-.228-.062l-1.292-2.234ZM358.966 251.373a.167.167 0 0 1 .062-.228l2.236-1.29a.167.167 0 0 1 .228.062l1.291 2.234a.166.166 0 0 1-.061.228l-2.236 1.29a.168.168 0 0 1-.229-.061l-1.291-2.235ZM363.338 258.944a.167.167 0 0 1 .061-.228l2.237-1.29a.167.167 0 0 1 .228.061l1.291 2.234a.167.167 0 0 1-.061.228l-2.236 1.29a.168.168 0 0 1-.229-.061l-1.291-2.234ZM367.712 266.514a.167.167 0 0 1 .062-.228l2.236-1.29a.167.167 0 0 1 .228.061l1.291 2.235a.166.166 0 0 1-.061.228l-2.236 1.29a.168.168 0 0 1-.229-.062l-1.291-2.234ZM372.089 274.085a.168.168 0 0 1 .061-.228l2.237-1.29a.167.167 0 0 1 .228.061l1.291 2.234a.167.167 0 0 1-.061.228l-2.236 1.29a.168.168 0 0 1-.229-.061l-1.291-2.234ZM376.464 281.656a.166.166 0 0 1 .061-.228l2.236-1.29a.167.167 0 0 1 .228.061l1.292 2.234a.167.167 0 0 1-.062.228l-2.236 1.29a.167.167 0 0 1-.228-.061l-1.291-2.234ZM380.84 289.226a.167.167 0 0 1 .062-.228l2.236-1.29a.168.168 0 0 1 .228.061l1.291 2.235a.166.166 0 0 1-.061.228l-2.236 1.29a.168.168 0 0 1-.228-.061l-1.292-2.235ZM385.212 296.797a.168.168 0 0 1 .061-.229l2.237-1.289a.166.166 0 0 1 .228.061l1.291 2.234a.167.167 0 0 1-.061.228l-2.236 1.29a.168.168 0 0 1-.229-.061l-1.291-2.234ZM389.589 304.367a.167.167 0 0 1 .061-.228l2.236-1.29a.168.168 0 0 1 .229.061l1.291 2.234a.168.168 0 0 1-.061.229l-2.236 1.29a.168.168 0 0 1-.229-.062l-1.291-2.234ZM393.963 311.938a.167.167 0 0 1 .062-.228l2.236-1.29a.167.167 0 0 1 .228.061l1.291 2.234a.167.167 0 0 1-.061.229l-2.236 1.289a.167.167 0 0 1-.229-.061l-1.291-2.234ZM398.34 319.509a.168.168 0 0 1 .061-.229l2.237-1.289a.166.166 0 0 1 .228.061l1.291 2.234a.167.167 0 0 1-.061.228l-2.236 1.29a.168.168 0 0 1-.229-.061l-1.291-2.234ZM402.712 327.079a.167.167 0 0 1 .061-.228l2.236-1.29a.168.168 0 0 1 .229.061l1.291 2.234a.167.167 0 0 1-.061.228l-2.237 1.29a.167.167 0 0 1-.228-.061l-1.291-2.234ZM407.089 334.65a.168.168 0 0 1 .061-.229l2.236-1.29a.168.168 0 0 1 .229.062l1.291 2.234a.167.167 0 0 1-.061.228l-2.237 1.29a.167.167 0 0 1-.228-.061l-1.291-2.234ZM411.463 342.22a.167.167 0 0 1 .061-.228l2.237-1.29a.167.167 0 0 1 .228.061l1.291 2.234a.168.168 0 0 1-.061.229l-2.236 1.289a.167.167 0 0 1-.229-.061l-1.291-2.234ZM415.84 349.791a.167.167 0 0 1 .061-.228l2.236-1.29a.168.168 0 0 1 .229.061l1.291 2.234a.168.168 0 0 1-.061.229l-2.236 1.29a.168.168 0 0 1-.229-.062l-1.291-2.234ZM420.214 357.361a.167.167 0 0 1 .062-.228l2.236-1.29a.167.167 0 0 1 .228.061l1.291 2.234a.167.167 0 0 1-.061.229l-2.236 1.29a.168.168 0 0 1-.229-.062l-1.291-2.234ZM357.79 231.861a.167.167 0 0 1 .062-.228l2.236-1.29a.167.167 0 0 1 .228.061l1.292 2.234a.168.168 0 0 1-.062.229l-2.236 1.29a.167.167 0 0 1-.228-.062l-1.292-2.234ZM362.167 239.432a.168.168 0 0 1 .062-.229l2.236-1.29a.167.167 0 0 1 .228.062l1.291 2.234a.166.166 0 0 1-.061.228l-2.236 1.29a.167.167 0 0 1-.228-.061l-1.292-2.234ZM366.539 247.002a.167.167 0 0 1 .061-.228l2.237-1.29a.167.167 0 0 1 .228.061l1.291 2.234a.168.168 0 0 1-.061.229l-2.236 1.289a.167.167 0 0 1-.229-.061l-1.291-2.234ZM370.916 254.573a.168.168 0 0 1 .061-.229l2.236-1.289a.167.167 0 0 1 .229.061l1.291 2.234a.167.167 0 0 1-.061.228l-2.236 1.29a.168.168 0 0 1-.229-.061l-1.291-2.234ZM375.29 262.144a.168.168 0 0 1 .061-.229l2.237-1.29a.167.167 0 0 1 .228.062l1.291 2.234a.167.167 0 0 1-.061.228l-2.236 1.29a.168.168 0 0 1-.229-.061l-1.291-2.234ZM379.667 269.714a.167.167 0 0 1 .061-.228l2.237-1.29a.167.167 0 0 1 .228.061l1.291 2.234a.168.168 0 0 1-.061.229l-2.236 1.289a.167.167 0 0 1-.229-.061l-1.291-2.234ZM384.039 277.285a.168.168 0 0 1 .061-.229l2.236-1.289a.167.167 0 0 1 .229.061l1.291 2.234a.167.167 0 0 1-.061.228l-2.237 1.29a.167.167 0 0 1-.228-.061l-1.291-2.234ZM388.416 284.855a.167.167 0 0 1 .061-.228l2.236-1.29a.168.168 0 0 1 .229.061l1.291 2.234a.168.168 0 0 1-.061.229l-2.237 1.29a.167.167 0 0 1-.228-.062l-1.291-2.234ZM392.79 292.426a.167.167 0 0 1 .061-.228l2.237-1.29a.167.167 0 0 1 .228.061l1.291 2.234a.167.167 0 0 1-.061.228l-2.236 1.29a.168.168 0 0 1-.229-.061l-1.291-2.234ZM397.164 299.996a.167.167 0 0 1 .062-.228l2.236-1.29a.168.168 0 0 1 .228.061l1.291 2.235a.166.166 0 0 1-.061.228l-2.236 1.29a.168.168 0 0 1-.229-.061l-1.291-2.235ZM401.544 307.567a.167.167 0 0 1 .061-.228l2.236-1.29a.167.167 0 0 1 .229.061l1.291 2.234a.167.167 0 0 1-.061.228l-2.237 1.29a.167.167 0 0 1-.228-.061l-1.291-2.234ZM405.916 315.138a.167.167 0 0 1 .061-.229l2.236-1.29a.167.167 0 0 1 .228.062l1.292 2.234a.167.167 0 0 1-.062.228l-2.236 1.29a.167.167 0 0 1-.228-.061l-1.291-2.234ZM410.29 322.708a.167.167 0 0 1 .061-.228l2.236-1.29a.168.168 0 0 1 .229.061l1.291 2.234a.168.168 0 0 1-.061.229l-2.237 1.289a.166.166 0 0 1-.228-.061l-1.291-2.234ZM414.664 330.279a.167.167 0 0 1 .061-.228l2.237-1.29a.167.167 0 0 1 .228.061l1.291 2.234a.167.167 0 0 1-.061.228l-2.236 1.29a.168.168 0 0 1-.229-.061l-1.291-2.234ZM419.041 337.85a.168.168 0 0 1 .061-.229l2.237-1.289a.166.166 0 0 1 .228.061l1.291 2.234a.167.167 0 0 1-.061.228l-2.236 1.29a.168.168 0 0 1-.229-.061l-1.291-2.234ZM423.413 345.42a.167.167 0 0 1 .061-.228l2.236-1.29a.168.168 0 0 1 .229.061l1.291 2.234a.168.168 0 0 1-.061.229l-2.237 1.29a.167.167 0 0 1-.228-.062l-1.291-2.234ZM427.792 352.991a.168.168 0 0 1 .061-.229l2.237-1.29a.167.167 0 0 1 .228.062l1.291 2.234a.167.167 0 0 1-.061.228l-2.236 1.29a.168.168 0 0 1-.229-.061l-1.291-2.234ZM365.368 227.49a.167.167 0 0 1 .062-.228l2.236-1.29a.167.167 0 0 1 .228.061l1.291 2.234a.167.167 0 0 1-.061.229l-2.236 1.289a.166.166 0 0 1-.228-.061l-1.292-2.234ZM369.743 235.061a.167.167 0 0 1 .061-.228l2.236-1.29a.167.167 0 0 1 .229.061l1.291 2.234a.167.167 0 0 1-.061.228l-2.237 1.29a.167.167 0 0 1-.228-.061l-1.291-2.234ZM374.117 242.631a.167.167 0 0 1 .061-.228l2.236-1.29a.168.168 0 0 1 .229.061l1.291 2.235a.167.167 0 0 1-.061.228l-2.236 1.29a.168.168 0 0 1-.229-.062l-1.291-2.234ZM378.491 250.202a.167.167 0 0 1 .062-.228l2.236-1.29a.167.167 0 0 1 .228.061l1.291 2.234a.167.167 0 0 1-.061.228l-2.236 1.29a.168.168 0 0 1-.229-.061l-1.291-2.234ZM382.868 257.773a.167.167 0 0 1 .061-.228l2.237-1.29a.167.167 0 0 1 .228.061l1.291 2.234a.167.167 0 0 1-.061.228l-2.236 1.29a.168.168 0 0 1-.229-.061l-1.291-2.234ZM387.243 265.343a.166.166 0 0 1 .061-.228l2.236-1.29a.167.167 0 0 1 .228.061l1.292 2.234a.167.167 0 0 1-.062.228l-2.236 1.29a.167.167 0 0 1-.228-.061l-1.291-2.234ZM391.617 272.914a.167.167 0 0 1 .061-.228l2.236-1.29a.168.168 0 0 1 .229.061l1.291 2.234a.167.167 0 0 1-.061.228l-2.237 1.29a.167.167 0 0 1-.228-.061l-1.291-2.234ZM395.991 280.485a.168.168 0 0 1 .061-.229l2.237-1.29a.167.167 0 0 1 .228.062l1.291 2.234a.167.167 0 0 1-.061.228l-2.236 1.29a.168.168 0 0 1-.229-.061l-1.291-2.234ZM400.368 288.055a.167.167 0 0 1 .061-.228l2.236-1.29a.168.168 0 0 1 .229.061l1.291 2.234a.168.168 0 0 1-.061.229l-2.236 1.289a.167.167 0 0 1-.229-.061l-1.291-2.234ZM404.742 295.626a.168.168 0 0 1 .062-.229l2.236-1.289a.166.166 0 0 1 .228.061l1.291 2.234a.167.167 0 0 1-.061.228l-2.236 1.29a.168.168 0 0 1-.229-.061l-1.291-2.234ZM409.117 303.196a.166.166 0 0 1 .061-.228l2.236-1.29a.167.167 0 0 1 .228.061l1.292 2.234a.167.167 0 0 1-.062.228l-2.236 1.29a.167.167 0 0 1-.228-.061l-1.291-2.234ZM413.493 310.767a.167.167 0 0 1 .062-.228l2.236-1.29a.167.167 0 0 1 .228.061l1.291 2.234a.166.166 0 0 1-.061.228l-2.236 1.29a.167.167 0 0 1-.228-.061l-1.292-2.234ZM417.865 318.337a.167.167 0 0 1 .061-.228l2.237-1.29a.168.168 0 0 1 .228.061l1.291 2.235a.167.167 0 0 1-.061.228l-2.236 1.29a.169.169 0 0 1-.229-.061l-1.291-2.235ZM422.245 325.908a.166.166 0 0 1 .061-.228l2.236-1.29a.168.168 0 0 1 .229.061l1.291 2.234a.167.167 0 0 1-.062.228l-2.236 1.29a.167.167 0 0 1-.228-.061l-1.291-2.234ZM426.616 333.479a.168.168 0 0 1 .062-.229l2.236-1.29a.167.167 0 0 1 .228.062l1.291 2.234a.166.166 0 0 1-.061.228l-2.236 1.29a.168.168 0 0 1-.229-.061l-1.291-2.234ZM430.993 341.049a.167.167 0 0 1 .061-.228l2.237-1.29a.167.167 0 0 1 .228.061l1.291 2.234a.168.168 0 0 1-.061.229l-2.236 1.289a.167.167 0 0 1-.229-.061l-1.291-2.234ZM435.365 348.62a.168.168 0 0 1 .061-.229l2.236-1.289a.167.167 0 0 1 .229.061l1.291 2.234a.167.167 0 0 1-.061.228l-2.236 1.29a.168.168 0 0 1-.229-.061l-1.291-2.234ZM372.946 223.119a.167.167 0 0 1 .062-.228l2.236-1.29a.167.167 0 0 1 .228.061l1.291 2.235a.166.166 0 0 1-.061.228l-2.236 1.29a.169.169 0 0 1-.229-.061l-1.291-2.235ZM377.323 230.69a.167.167 0 0 1 .061-.228l2.237-1.29a.167.167 0 0 1 .228.061l1.291 2.234a.167.167 0 0 1-.061.228l-2.236 1.29a.168.168 0 0 1-.229-.061l-1.291-2.234ZM381.698 238.261a.167.167 0 0 1 .061-.229l2.236-1.29a.167.167 0 0 1 .228.062l1.292 2.234a.167.167 0 0 1-.062.228l-2.236 1.29a.167.167 0 0 1-.228-.061l-1.291-2.234ZM386.072 245.831a.167.167 0 0 1 .061-.228l2.236-1.29a.168.168 0 0 1 .229.061l1.291 2.234a.168.168 0 0 1-.061.229l-2.237 1.289a.166.166 0 0 1-.228-.061l-1.291-2.234ZM390.446 253.402a.167.167 0 0 1 .061-.228l2.237-1.29a.167.167 0 0 1 .228.061l1.291 2.234a.167.167 0 0 1-.061.228l-2.236 1.29a.168.168 0 0 1-.229-.061l-1.291-2.234ZM394.82 260.972a.167.167 0 0 1 .062-.228l2.236-1.29a.167.167 0 0 1 .228.061l1.291 2.234a.167.167 0 0 1-.061.229l-2.236 1.29a.167.167 0 0 1-.228-.062l-1.292-2.234ZM399.195 268.543a.167.167 0 0 1 .061-.228l2.236-1.29a.168.168 0 0 1 .229.061l1.291 2.234a.168.168 0 0 1-.061.229l-2.237 1.289a.166.166 0 0 1-.228-.061l-1.291-2.234ZM403.572 276.113a.166.166 0 0 1 .061-.228l2.236-1.29a.169.169 0 0 1 .229.061l1.291 2.235a.167.167 0 0 1-.062.228l-2.236 1.29a.168.168 0 0 1-.228-.061l-1.291-2.235ZM407.943 283.684a.167.167 0 0 1 .061-.228l2.237-1.29a.167.167 0 0 1 .228.061l1.291 2.234a.168.168 0 0 1-.061.229l-2.236 1.29a.168.168 0 0 1-.229-.062l-1.291-2.234ZM412.323 291.255a.167.167 0 0 1 .061-.228l2.236-1.29a.168.168 0 0 1 .229.061l1.291 2.234a.167.167 0 0 1-.061.228l-2.237 1.29a.167.167 0 0 1-.228-.061l-1.291-2.234ZM416.697 298.825a.167.167 0 0 1 .061-.228l2.237-1.29a.167.167 0 0 1 .228.061l1.291 2.234a.168.168 0 0 1-.061.229l-2.236 1.289a.167.167 0 0 1-.229-.061l-1.291-2.234ZM421.071 306.396a.167.167 0 0 1 .062-.228l2.236-1.29a.167.167 0 0 1 .228.061l1.291 2.234a.166.166 0 0 1-.061.228l-2.236 1.29a.168.168 0 0 1-.229-.061l-1.291-2.234ZM425.443 313.966a.167.167 0 0 1 .061-.228l2.237-1.29a.167.167 0 0 1 .228.061l1.291 2.235a.167.167 0 0 1-.061.228l-2.236 1.29a.168.168 0 0 1-.229-.062l-1.291-2.234ZM429.823 321.537a.166.166 0 0 1 .061-.228l2.236-1.29a.168.168 0 0 1 .229.061l1.291 2.234a.168.168 0 0 1-.062.229l-2.236 1.289a.166.166 0 0 1-.228-.061l-1.291-2.234ZM434.197 329.108a.167.167 0 0 1 .061-.228l2.236-1.29a.168.168 0 0 1 .229.061l1.291 2.234a.167.167 0 0 1-.061.228l-2.237 1.29a.167.167 0 0 1-.228-.061l-1.291-2.234ZM438.574 336.679a.168.168 0 0 1 .061-.229l2.236-1.289a.167.167 0 0 1 .229.061l1.291 2.234a.167.167 0 0 1-.061.228l-2.237 1.29a.167.167 0 0 1-.228-.061l-1.291-2.234ZM442.948 344.249a.167.167 0 0 1 .061-.228l2.237-1.29a.167.167 0 0 1 .228.061l1.291 2.234a.167.167 0 0 1-.061.228l-2.236 1.29a.168.168 0 0 1-.229-.061l-1.291-2.234ZM380.522 218.749a.167.167 0 0 1 .061-.229l2.236-1.29a.168.168 0 0 1 .229.062l1.291 2.234a.167.167 0 0 1-.062.228l-2.236 1.29a.167.167 0 0 1-.228-.061l-1.291-2.234ZM384.899 226.319a.166.166 0 0 1 .061-.228l2.236-1.29a.167.167 0 0 1 .228.061l1.292 2.234a.168.168 0 0 1-.062.229l-2.236 1.289a.166.166 0 0 1-.228-.061l-1.291-2.234ZM389.273 233.889a.167.167 0 0 1 .061-.228l2.236-1.29a.169.169 0 0 1 .229.061l1.291 2.235a.167.167 0 0 1-.061.228l-2.237 1.29a.167.167 0 0 1-.228-.061l-1.291-2.235ZM393.647 241.46a.167.167 0 0 1 .061-.228l2.237-1.29a.167.167 0 0 1 .228.061l1.291 2.235a.167.167 0 0 1-.061.228l-2.236 1.29a.168.168 0 0 1-.229-.062l-1.291-2.234ZM398.021 249.031a.168.168 0 0 1 .062-.229l2.236-1.29a.167.167 0 0 1 .228.062l1.291 2.234a.166.166 0 0 1-.061.228l-2.236 1.29a.167.167 0 0 1-.228-.061l-1.292-2.234ZM402.401 256.601a.167.167 0 0 1 .061-.228l2.236-1.29a.168.168 0 0 1 .229.061l1.291 2.234a.168.168 0 0 1-.061.229l-2.236 1.289a.167.167 0 0 1-.229-.061l-1.291-2.234ZM406.775 264.172a.167.167 0 0 1 .061-.228l2.237-1.29a.167.167 0 0 1 .228.061l1.291 2.235a.167.167 0 0 1-.061.228l-2.236 1.29a.168.168 0 0 1-.229-.062l-1.291-2.234ZM411.147 271.743a.168.168 0 0 1 .061-.229l2.236-1.289a.167.167 0 0 1 .229.061l1.291 2.234a.167.167 0 0 1-.061.228l-2.237 1.29a.167.167 0 0 1-.228-.061l-1.291-2.234ZM415.524 279.314a.168.168 0 0 1 .061-.229l2.236-1.29a.168.168 0 0 1 .229.062l1.291 2.234a.167.167 0 0 1-.061.228l-2.237 1.29a.167.167 0 0 1-.228-.061l-1.291-2.234ZM419.898 286.884a.167.167 0 0 1 .061-.228l2.237-1.29a.167.167 0 0 1 .228.061l1.291 2.234a.168.168 0 0 1-.061.229l-2.236 1.289a.167.167 0 0 1-.229-.061l-1.291-2.234ZM424.272 294.454a.167.167 0 0 1 .062-.228l2.236-1.29a.167.167 0 0 1 .228.061l1.291 2.234a.167.167 0 0 1-.061.229l-2.236 1.289a.166.166 0 0 1-.228-.061l-1.292-2.234ZM428.647 302.025a.167.167 0 0 1 .061-.228l2.236-1.29a.168.168 0 0 1 .229.061l1.291 2.234a.169.169 0 0 1-.061.229l-2.237 1.29a.167.167 0 0 1-.228-.062l-1.291-2.234ZM433.024 309.596a.167.167 0 0 1 .061-.229l2.236-1.29a.168.168 0 0 1 .229.062l1.291 2.234a.167.167 0 0 1-.062.228l-2.236 1.29a.167.167 0 0 1-.228-.061l-1.291-2.234ZM437.398 317.166a.167.167 0 0 1 .061-.228l2.236-1.29a.169.169 0 0 1 .229.061l1.291 2.235a.167.167 0 0 1-.061.228l-2.237 1.29a.168.168 0 0 1-.228-.061l-1.291-2.235ZM441.775 324.737a.167.167 0 0 1 .061-.228l2.236-1.29a.168.168 0 0 1 .229.061l1.291 2.234a.167.167 0 0 1-.061.228l-2.237 1.29a.167.167 0 0 1-.228-.061l-1.291-2.234ZM446.146 332.308a.168.168 0 0 1 .062-.229l2.236-1.29a.167.167 0 0 1 .228.062l1.291 2.234a.166.166 0 0 1-.061.228l-2.236 1.29a.167.167 0 0 1-.228-.061l-1.292-2.234ZM450.523 339.878a.167.167 0 0 1 .062-.228l2.236-1.29a.167.167 0 0 1 .228.061l1.291 2.234a.167.167 0 0 1-.061.229l-2.236 1.289a.166.166 0 0 1-.228-.061l-1.292-2.234ZM388.102 214.378a.168.168 0 0 1 .061-.229l2.237-1.29a.167.167 0 0 1 .228.062l1.291 2.234a.167.167 0 0 1-.061.228l-2.236 1.29a.168.168 0 0 1-.229-.061l-1.291-2.234ZM392.476 221.948a.167.167 0 0 1 .062-.228l2.236-1.29a.167.167 0 0 1 .228.061l1.291 2.234a.166.166 0 0 1-.061.228l-2.236 1.29a.167.167 0 0 1-.228-.061l-1.292-2.234ZM396.853 229.519a.167.167 0 0 1 .062-.228l2.236-1.29a.167.167 0 0 1 .228.061l1.291 2.234a.166.166 0 0 1-.061.228l-2.236 1.29a.167.167 0 0 1-.228-.061l-1.292-2.234ZM401.225 237.089a.167.167 0 0 1 .061-.228l2.237-1.29a.167.167 0 0 1 .228.061l1.291 2.234a.168.168 0 0 1-.061.229l-2.236 1.29a.168.168 0 0 1-.229-.062l-1.291-2.234ZM405.602 244.66a.167.167 0 0 1 .061-.228l2.236-1.29a.168.168 0 0 1 .229.061l1.291 2.234a.168.168 0 0 1-.061.229l-2.236 1.289a.167.167 0 0 1-.229-.061l-1.291-2.234ZM409.976 252.23a.168.168 0 0 1 .061-.228l2.237-1.29a.168.168 0 0 1 .228.061l1.291 2.235a.167.167 0 0 1-.061.228l-2.236 1.29a.169.169 0 0 1-.229-.061l-1.291-2.235ZM414.353 259.802a.168.168 0 0 1 .061-.229l2.237-1.29a.167.167 0 0 1 .228.062l1.291 2.234a.167.167 0 0 1-.061.228l-2.236 1.29a.168.168 0 0 1-.229-.061l-1.291-2.234ZM418.73 267.372a.167.167 0 0 1 .061-.228l2.237-1.29a.167.167 0 0 1 .228.061l1.291 2.234a.167.167 0 0 1-.061.228l-2.236 1.29a.168.168 0 0 1-.229-.061l-1.291-2.234ZM423.102 274.943a.168.168 0 0 1 .061-.229l2.236-1.289a.167.167 0 0 1 .229.061l1.291 2.234a.167.167 0 0 1-.061.228l-2.237 1.29a.167.167 0 0 1-.228-.061l-1.291-2.234ZM427.476 282.513a.167.167 0 0 1 .061-.228l2.237-1.29a.167.167 0 0 1 .228.061l1.291 2.234a.168.168 0 0 1-.061.229l-2.236 1.29a.168.168 0 0 1-.229-.062l-1.291-2.234ZM431.853 290.083a.167.167 0 0 1 .061-.228l2.236-1.29a.168.168 0 0 1 .229.061l1.291 2.234a.168.168 0 0 1-.061.229l-2.236 1.29a.168.168 0 0 1-.229-.062l-1.291-2.234ZM436.227 297.654a.167.167 0 0 1 .061-.228l2.237-1.29a.167.167 0 0 1 .228.062l1.291 2.234a.167.167 0 0 1-.061.228l-2.236 1.29a.168.168 0 0 1-.229-.061l-1.291-2.235ZM440.602 305.225a.166.166 0 0 1 .061-.228l2.236-1.29a.166.166 0 0 1 .228.061l1.292 2.234a.167.167 0 0 1-.062.228l-2.236 1.29a.167.167 0 0 1-.228-.061l-1.291-2.234ZM444.976 312.795a.167.167 0 0 1 .061-.228l2.236-1.29a.168.168 0 0 1 .229.061l1.291 2.235a.167.167 0 0 1-.061.228l-2.237 1.29a.167.167 0 0 1-.228-.062l-1.291-2.234ZM449.355 320.366a.167.167 0 0 1 .062-.228l2.236-1.29a.167.167 0 0 1 .228.061l1.291 2.234a.166.166 0 0 1-.061.228l-2.236 1.29a.168.168 0 0 1-.229-.061l-1.291-2.234ZM453.727 327.936a.167.167 0 0 1 .061-.228l2.237-1.29a.167.167 0 0 1 .228.062l1.291 2.234a.167.167 0 0 1-.061.228l-2.236 1.29a.168.168 0 0 1-.229-.061l-1.291-2.235ZM458.104 335.507a.167.167 0 0 1 .061-.228l2.236-1.29a.168.168 0 0 1 .229.061l1.291 2.234a.167.167 0 0 1-.061.228l-2.237 1.29a.167.167 0 0 1-.228-.061l-1.291-2.234ZM395.68 210.007a.168.168 0 0 1 .061-.229l2.237-1.289a.166.166 0 0 1 .228.061l1.291 2.234a.167.167 0 0 1-.061.228l-2.236 1.29a.168.168 0 0 1-.229-.061l-1.291-2.234ZM400.054 217.577a.167.167 0 0 1 .062-.228l2.236-1.29a.167.167 0 0 1 .228.061l1.291 2.234a.166.166 0 0 1-.061.228l-2.236 1.29a.168.168 0 0 1-.229-.061l-1.291-2.234ZM404.429 225.148a.167.167 0 0 1 .061-.228l2.236-1.29a.168.168 0 0 1 .229.061l1.291 2.234a.167.167 0 0 1-.061.228l-2.237 1.29a.167.167 0 0 1-.228-.061l-1.291-2.234ZM408.803 232.718a.167.167 0 0 1 .061-.228l2.236-1.29a.168.168 0 0 1 .229.061l1.291 2.234a.168.168 0 0 1-.061.229l-2.236 1.289a.167.167 0 0 1-.229-.061l-1.291-2.234ZM413.177 240.289a.167.167 0 0 1 .062-.228l2.236-1.29a.167.167 0 0 1 .228.061l1.291 2.235a.167.167 0 0 1-.061.228l-2.236 1.29a.168.168 0 0 1-.229-.062l-1.291-2.234ZM417.554 247.86a.168.168 0 0 1 .061-.229l2.237-1.29a.167.167 0 0 1 .228.062l1.291 2.234a.167.167 0 0 1-.061.228l-2.236 1.29a.168.168 0 0 1-.229-.061l-1.291-2.234ZM421.928 255.43a.167.167 0 0 1 .062-.228l2.236-1.29a.167.167 0 0 1 .228.062l1.291 2.234a.166.166 0 0 1-.061.228l-2.236 1.29a.167.167 0 0 1-.228-.061l-1.292-2.235ZM426.305 263.001a.167.167 0 0 1 .062-.228l2.236-1.29a.167.167 0 0 1 .228.061l1.291 2.234a.166.166 0 0 1-.061.228l-2.236 1.29a.168.168 0 0 1-.229-.061l-1.291-2.234ZM430.68 270.572a.167.167 0 0 1 .061-.229l2.236-1.289a.167.167 0 0 1 .229.061l1.291 2.234a.167.167 0 0 1-.062.228l-2.236 1.29a.167.167 0 0 1-.228-.061l-1.291-2.234ZM435.054 278.142a.167.167 0 0 1 .061-.228l2.236-1.29a.168.168 0 0 1 .229.061l1.291 2.234a.168.168 0 0 1-.061.229l-2.236 1.29a.168.168 0 0 1-.229-.062l-1.291-2.234ZM439.428 285.713a.168.168 0 0 1 .061-.228l2.237-1.29a.167.167 0 0 1 .228.061l1.291 2.234a.167.167 0 0 1-.061.228l-2.236 1.29a.168.168 0 0 1-.229-.061l-1.291-2.234ZM443.805 293.283a.167.167 0 0 1 .061-.228l2.237-1.29a.168.168 0 0 1 .228.061l1.291 2.235a.167.167 0 0 1-.061.228l-2.236 1.29a.169.169 0 0 1-.229-.061l-1.291-2.235ZM448.179 300.854a.167.167 0 0 1 .062-.228l2.236-1.29a.167.167 0 0 1 .228.061l1.291 2.234a.166.166 0 0 1-.061.228l-2.236 1.29a.167.167 0 0 1-.228-.061l-1.292-2.234ZM452.554 308.425a.168.168 0 0 1 .061-.229l2.236-1.29a.168.168 0 0 1 .229.062l1.291 2.234a.167.167 0 0 1-.061.228l-2.237 1.29a.167.167 0 0 1-.228-.061l-1.291-2.234ZM456.931 315.995a.166.166 0 0 1 .061-.228l2.236-1.29a.168.168 0 0 1 .229.061l1.291 2.234a.167.167 0 0 1-.062.228l-2.236 1.29a.167.167 0 0 1-.228-.061l-1.291-2.234ZM461.305 323.566a.168.168 0 0 1 .061-.229l2.236-1.289a.167.167 0 0 1 .229.061l1.291 2.234a.167.167 0 0 1-.061.228l-2.236 1.29a.168.168 0 0 1-.229-.061l-1.291-2.234ZM465.677 331.137a.167.167 0 0 1 .061-.229l2.236-1.29a.168.168 0 0 1 .229.062l1.291 2.234a.167.167 0 0 1-.062.228l-2.236 1.29a.167.167 0 0 1-.228-.061l-1.291-2.234ZM403.258 205.636a.167.167 0 0 1 .061-.228l2.237-1.29a.167.167 0 0 1 .228.061l1.291 2.234a.167.167 0 0 1-.061.228l-2.236 1.29a.168.168 0 0 1-.229-.061l-1.291-2.234ZM407.632 213.206a.167.167 0 0 1 .062-.228l2.236-1.29a.167.167 0 0 1 .228.061l1.291 2.234a.167.167 0 0 1-.061.229l-2.236 1.29a.168.168 0 0 1-.229-.062l-1.291-2.234ZM412.009 220.777a.167.167 0 0 1 .061-.228l2.237-1.29a.167.167 0 0 1 .228.061l1.291 2.234a.167.167 0 0 1-.061.228l-2.236 1.29a.167.167 0 0 1-.229-.061l-1.291-2.234ZM416.384 228.347a.166.166 0 0 1 .061-.228l2.236-1.29a.167.167 0 0 1 .228.061l1.292 2.235a.167.167 0 0 1-.062.228l-2.236 1.29a.168.168 0 0 1-.228-.061l-1.291-2.235ZM420.758 235.919a.168.168 0 0 1 .061-.229l2.236-1.29a.168.168 0 0 1 .229.062l1.291 2.234a.167.167 0 0 1-.061.228l-2.237 1.29a.167.167 0 0 1-.228-.061l-1.291-2.234ZM425.132 243.489a.167.167 0 0 1 .061-.228l2.237-1.29a.167.167 0 0 1 .228.061l1.291 2.234a.167.167 0 0 1-.061.228l-2.236 1.29a.168.168 0 0 1-.229-.061l-1.291-2.234ZM429.509 251.059a.167.167 0 0 1 .061-.228l2.237-1.29a.168.168 0 0 1 .228.061l1.291 2.235a.167.167 0 0 1-.061.228l-2.236 1.29a.169.169 0 0 1-.229-.061l-1.291-2.235ZM433.883 258.63a.167.167 0 0 1 .062-.228l2.236-1.29a.167.167 0 0 1 .228.061l1.291 2.234a.168.168 0 0 1-.061.229l-2.236 1.29a.168.168 0 0 1-.229-.062l-1.291-2.234ZM438.26 266.201a.168.168 0 0 1 .061-.229l2.237-1.29a.167.167 0 0 1 .228.062l1.291 2.234a.167.167 0 0 1-.061.228l-2.236 1.29a.168.168 0 0 1-.229-.061l-1.291-2.234ZM442.635 273.771a.166.166 0 0 1 .061-.228l2.236-1.29a.167.167 0 0 1 .228.061l1.292 2.234a.168.168 0 0 1-.062.229l-2.236 1.289a.166.166 0 0 1-.228-.061l-1.291-2.234ZM447.009 281.342a.168.168 0 0 1 .061-.229l2.236-1.289a.167.167 0 0 1 .229.061l1.291 2.234a.167.167 0 0 1-.061.228l-2.237 1.29a.167.167 0 0 1-.228-.061l-1.291-2.234ZM451.383 288.912a.167.167 0 0 1 .061-.228l2.237-1.29a.167.167 0 0 1 .228.061l1.291 2.234a.168.168 0 0 1-.061.229l-2.236 1.29a.168.168 0 0 1-.229-.062l-1.291-2.234ZM455.757 296.483a.167.167 0 0 1 .062-.228l2.236-1.29a.167.167 0 0 1 .228.061l1.291 2.234a.166.166 0 0 1-.061.228l-2.236 1.29a.168.168 0 0 1-.229-.061l-1.291-2.234ZM460.132 304.054a.166.166 0 0 1 .061-.228l2.236-1.29a.168.168 0 0 1 .229.061l1.291 2.234a.167.167 0 0 1-.062.228l-2.236 1.29a.167.167 0 0 1-.228-.061l-1.291-2.234ZM464.509 311.624a.166.166 0 0 1 .061-.228l2.236-1.29a.168.168 0 0 1 .229.061l1.291 2.234a.167.167 0 0 1-.062.228l-2.236 1.29a.167.167 0 0 1-.228-.061l-1.291-2.234ZM468.883 319.195a.167.167 0 0 1 .061-.228l2.236-1.29a.168.168 0 0 1 .229.061l1.291 2.234a.167.167 0 0 1-.061.228l-2.237 1.29a.167.167 0 0 1-.228-.061l-1.291-2.234ZM473.26 326.765a.167.167 0 0 1 .061-.228l2.236-1.29a.168.168 0 0 1 .229.061l1.291 2.234a.168.168 0 0 1-.061.229l-2.237 1.29a.167.167 0 0 1-.228-.062l-1.291-2.234ZM410.833 201.265a.167.167 0 0 1 .062-.228l2.236-1.29a.167.167 0 0 1 .228.061l1.291 2.234a.167.167 0 0 1-.061.229l-2.236 1.289a.167.167 0 0 1-.229-.061l-1.291-2.234ZM415.208 208.835a.166.166 0 0 1 .061-.228l2.236-1.29a.169.169 0 0 1 .229.061l1.291 2.235a.167.167 0 0 1-.062.228l-2.236 1.29a.168.168 0 0 1-.228-.061l-1.291-2.235ZM419.585 216.406a.166.166 0 0 1 .061-.228l2.236-1.29a.167.167 0 0 1 .228.061l1.292 2.234a.168.168 0 0 1-.062.229l-2.236 1.29a.167.167 0 0 1-.228-.062l-1.291-2.234ZM423.961 223.977a.168.168 0 0 1 .062-.229l2.236-1.29a.167.167 0 0 1 .228.062l1.291 2.234a.166.166 0 0 1-.061.228l-2.236 1.29a.167.167 0 0 1-.228-.061l-1.292-2.234ZM428.336 231.547a.167.167 0 0 1 .061-.228l2.236-1.29a.169.169 0 0 1 .229.061l1.291 2.235a.167.167 0 0 1-.061.228l-2.237 1.29a.167.167 0 0 1-.228-.061l-1.291-2.235ZM432.71 239.118a.167.167 0 0 1 .061-.228l2.236-1.29a.167.167 0 0 1 .229.061l1.291 2.234a.167.167 0 0 1-.061.228l-2.236 1.29a.168.168 0 0 1-.229-.061l-1.291-2.234ZM437.084 246.689a.168.168 0 0 1 .062-.229l2.236-1.29a.167.167 0 0 1 .228.062l1.291 2.234a.166.166 0 0 1-.061.228l-2.236 1.29a.168.168 0 0 1-.229-.061l-1.291-2.234ZM441.459 254.259a.166.166 0 0 1 .061-.228l2.236-1.29a.168.168 0 0 1 .229.061l1.291 2.234a.168.168 0 0 1-.062.229l-2.236 1.289a.166.166 0 0 1-.228-.061l-1.291-2.234ZM445.833 261.83a.167.167 0 0 1 .061-.228l2.236-1.29a.168.168 0 0 1 .229.061l1.291 2.234a.167.167 0 0 1-.061.228l-2.236 1.29a.168.168 0 0 1-.229-.061l-1.291-2.234ZM450.21 269.4a.167.167 0 0 1 .061-.228l2.236-1.29a.168.168 0 0 1 .229.061l1.291 2.234a.167.167 0 0 1-.061.228l-2.237 1.29a.167.167 0 0 1-.228-.061l-1.291-2.234ZM454.584 276.971a.167.167 0 0 1 .061-.228l2.237-1.29a.167.167 0 0 1 .228.061l1.291 2.234a.167.167 0 0 1-.061.228l-2.236 1.29a.168.168 0 0 1-.229-.061l-1.291-2.234ZM458.961 284.542a.168.168 0 0 1 .061-.229l2.236-1.29a.168.168 0 0 1 .229.062l1.291 2.234a.167.167 0 0 1-.061.228l-2.236 1.29a.168.168 0 0 1-.229-.061l-1.291-2.234ZM463.335 292.112a.167.167 0 0 1 .062-.228l2.236-1.29a.167.167 0 0 1 .228.061l1.291 2.234a.167.167 0 0 1-.061.229l-2.236 1.289a.167.167 0 0 1-.229-.061l-1.291-2.234ZM467.71 299.683a.166.166 0 0 1 .061-.228l2.236-1.29a.168.168 0 0 1 .229.061l1.291 2.234a.167.167 0 0 1-.062.228l-2.236 1.29a.167.167 0 0 1-.228-.061l-1.291-2.234ZM472.084 307.253a.167.167 0 0 1 .061-.228l2.236-1.29a.168.168 0 0 1 .229.061l1.291 2.234a.168.168 0 0 1-.061.229l-2.237 1.29a.167.167 0 0 1-.228-.062l-1.291-2.234ZM476.461 314.824a.167.167 0 0 1 .061-.228l2.236-1.29a.168.168 0 0 1 .229.061l1.291 2.234a.168.168 0 0 1-.061.229l-2.237 1.289a.166.166 0 0 1-.228-.061l-1.291-2.234ZM480.835 322.394a.167.167 0 0 1 .061-.228l2.237-1.29a.168.168 0 0 1 .228.061l1.291 2.235a.167.167 0 0 1-.061.228l-2.236 1.29a.169.169 0 0 1-.229-.061l-1.291-2.235Z"/></mask><g mask="url(#a)"><path fill="#000" d="M473.214 307.338c0 4.966-1.644 8.977-4.924 10.873l-86.645 49.979-73.023 42.104c3.28-1.896 4.924-5.907 4.924-10.873 0-4.966-1.644-10.866-4.924-16.546l-40.647-70.344-16.141-27.887 45.571-26.285 114.103-65.825 56.788 98.284c3.274 5.653 4.918 11.561 4.918 16.52Z"/></g><path fill="#fff" stroke="#0D0B33" stroke-width="1.727" d="M407.904 351.143c-18.053-10.728-32.688-36.434-32.688-57.416s14.635-29.295 32.688-18.567c18.053 10.728 32.688 36.434 32.688 57.416s-14.635 29.295-32.688 18.567Z"/><path fill="#000" fill-rule="evenodd" d="m395.979 309.605 3.904 4.849v5.198l-.002-.001v-.002l-3.902-4.847v-5.197Zm15.611 24.594.001.001v5.201l-3.904.348-3.904-4.851v-5.2l3.904 4.85 3.903-.349Zm-19.514-19.048 7.807 9.698v5.199l-3.904-4.851-3.903-4.85-3.902-4.848v-15.593l3.902 4.849v10.396Zm31.222 7.61 3.904-.348v15.593l-3.904.346-7.804.698v-5.198l7.804-.696v-10.395Zm-7.804.695 3.902-.347v5.197l-3.902.349v-5.199Zm0-15.591 3.902 4.849v5.197l-7.805.698v10.395l-3.904.346-3.904-4.849v-10.395l-3.9-4.849-3.904-4.85v-5.197l3.904-.348 7.804 9.699 3.904-.348 3.903-.348Zm-7.807-9.699 3.904 4.849-3.904.348-3.904-4.851 3.904-.346Zm7.807-.699 3.902 4.852-3.902.349-3.903-4.85-3.904-4.852-3.904.35-3.9.349-3.904-4.85 3.904-.35 7.804-.698 3.904 4.851 3.903 4.849Zm7.804 9.702 3.904 4.848v5.199l-3.904.348v-5.199l-3.902-4.849 3.902-.347Zm-27.319-13.158-3.903.349v5.199l-3.902-4.85v-5.198l3.902-.347 3.903 4.847Z" clip-rule="evenodd"/><path fill="#79EFBD" stroke="#0D0B33" stroke-width="1.727" d="M407.904 275.16c-8.928-5.306-17.02-5.954-22.92-2.716l6.488-3.685c12.765-7.251 33.462 5.048 46.227 27.471 12.766 22.422 12.766 46.477 0 53.728l-6.239 3.544.001-.013c5.654-3.469 9.131-10.686 9.131-20.913 0-20.982-14.635-46.688-32.688-57.416Z"/></svg>