<svg xmlns="http://www.w3.org/2000/svg" width="542" height="280" fill="none"><g filter="url(#a)" opacity=".4"><path fill="url(#b)" fill-rule="evenodd" d="M43.846 122.879c-1.441.815-1.448 2.888-.012 3.712l93.869 53.898-22.412 12.568c-1.45.813-1.457 2.896-.014 3.72l70.305 40.103a4.272 4.272 0 0 0 4.235 0l21.449-12.239c.542-.31.88-.799 1.013-1.332l93.927 53.931a4.272 4.272 0 0 0 4.243.007l104.169-59.366 82.342 46.946a4.275 4.275 0 0 0 4.234 0l37.669-21.485c1.426-.813 1.44-2.865.025-3.697l-79.929-47.034 64.312-36.652c1.442-.822 1.438-2.901-.007-3.717L259.582 3.284a4.273 4.273 0 0 0-4.205 0L92.199 95.541 30.53 59.234a4.273 4.273 0 0 0-4.257-.045L3.506 71.956c-1.45.813-1.457 2.896-.014 3.72l61.647 35.164-21.293 12.039Zm-38.807 98.74c-1.443-.824-1.436-2.907.013-3.72l22.767-12.766a4.27 4.27 0 0 1 4.258.045l68.975 40.608c1.415.833 1.401 2.883-.025 3.697l-21.448 12.239a4.272 4.272 0 0 1-4.235 0L5.039 221.619Z" clip-rule="evenodd"/></g><defs><linearGradient id="b" x1="271" x2="-37.41" y1="176.959" y2="-14.116" gradientUnits="userSpaceOnUse"><stop stop-color="#3A17CA"/><stop offset="1" stop-color="#3A17CA" stop-opacity="0"/></linearGradient><filter id="a" width="541.527" height="279.076" x=".414" y=".731" color-interpolation-filters="sRGB" filterUnits="userSpaceOnUse"><feFlood flood-opacity="0" result="BackgroundImageFix"/><feBlend in="SourceGraphic" in2="BackgroundImageFix" result="shape"/><feGaussianBlur result="effect1_foregroundBlur_1812_34394" stdDeviation="1"/></filter></defs></svg>