<svg xmlns="http://www.w3.org/2000/svg" width="237" height="61" fill="none"><path fill="#fff" fill-rule="evenodd" d="M74.36 47.367h90.072V44.63H74.361v2.737Zm138.811 4.273h-4.793v-4.512h4.581c2.279 0 3.385.824 3.385 2.233 0 1.505-1.199 2.28-3.173 2.28Zm-4.793-11.325h4.158c1.857 0 2.89.775 2.89 2.114 0 1.529-1.244 2.256-3.1 2.256h-3.948v-4.37Zm7.59 5.333c1.221-.635 2.348-1.668 2.348-3.689 0-2.584-2.089-4.206-5.404-4.206h-7.377v16.45h7.612c3.666 0 6.087-1.576 6.087-4.537 0-2.254-1.341-3.359-3.266-4.018Zm13.301-.987c-3.149-.752-3.901-1.316-3.901-2.609 0-1.104.986-1.971 2.679-1.971 1.505 0 2.983.586 4.463 1.69l1.551-2.184c-1.668-1.34-3.571-2.069-5.967-2.069-3.266 0-5.616 1.928-5.616 4.795 0 3.054 1.974 4.087 5.474 4.933 3.056.706 3.713 1.338 3.713 2.538 0 1.27-1.129 2.09-2.914 2.09-2.045 0-3.618-.774-5.191-2.137l-1.739 2.069c1.971 1.761 4.345 2.631 6.859 2.631 3.454 0 5.875-1.832 5.875-4.934 0-2.75-1.81-3.994-5.286-4.842Zm-38.258 3.007 2.819-6.578 2.845 6.578h-5.664Zm1.527-10.032-7.236 16.566h2.961l1.692-3.971h7.776l1.668 3.971h3.054l-7.236-16.566h-2.679Zm-18.375.117h-2.892v16.45h11.537v-2.634h-8.645V37.753Zm5.78-15.697L169.056 7.75h-4.713v23.235h5.045v-14.77l11.254 14.77h4.346V7.75h-5.045v14.307ZM79.339 21.39h5.908c2.622 0 3.784.963 3.784 2.525v.064c0 1.728-1.36 2.525-3.618 2.525H79.34V21.39Zm0-9.16h5.045c2.158 0 3.353.862 3.353 2.39v.066c0 1.725-1.427 2.458-3.684 2.458h-4.714v-4.915Zm14.77 12.382v-.067c0-3.12-1.657-4.682-4.348-5.708 1.66-.932 3.054-2.39 3.054-5.012v-.069c0-3.65-2.92-6.007-7.667-6.007H74.36v23.235h11.052c5.244 0 8.696-2.124 8.696-6.372Zm107.744 6.77c4.481 0 7.136-1.593 9.526-4.148l-3.253-3.286c-1.825 1.66-3.452 2.722-6.107 2.722-3.983 0-6.738-3.32-6.738-7.305v-.064c0-3.985 2.821-7.235 6.738-7.235 2.323 0 4.149.993 5.941 2.62l3.253-3.751c-2.158-2.124-4.78-3.585-9.161-3.585-7.136 0-12.117 5.41-12.117 12.015v.069c0 6.671 5.081 11.949 11.918 11.949Zm31.337-4.945h-12.615v-4.879h10.955v-4.55h-10.955v-4.712h12.449V7.749h-17.527v23.235h17.693v-4.547Zm-84.949-12.712 3.087 7.534h-6.174l3.087-7.534Zm-4.912 12.048h9.827l2.124 5.211h5.344l-9.958-23.401h-4.715l-9.957 23.401h5.211l2.124-5.21Zm-43.61 5.21h5.111V7.748h-5.111v23.233Zm16.987-14.768 11.253 14.77h4.348V7.748h-5.045v14.307L116.376 7.75h-4.715v23.235h5.045v-14.77Zm-69.453 14.77 6.775 6.775 6.776-6.776-6.776-6.775-6.775 6.775ZM7.574 24.208.801 30.984l6.773 6.776 6.776-6.776-6.776-6.775Zm23.227-9.676 11.615 11.612 6.773-6.775L37.577 7.757 30.8.985l-6.773 6.774L12.414 19.37l6.775 6.775L30.8 14.533Zm0 32.903L19.19 35.824l-6.775 6.773L24.028 54.21l6.773 6.773 6.776-6.773 11.612-11.614-6.773-6.773L30.8 47.436Zm-6.773-16.452 6.773 6.776 6.776-6.776L30.8 24.21l-6.773 6.775Z" clip-rule="evenodd"/></svg>