<svg xmlns="http://www.w3.org/2000/svg" width="301" height="61" fill="none"><path fill="#fff" fill-rule="evenodd" d="M298.597 47.406v-6.44h-17.863v-6.91h15.514v-6.44h-15.514v-6.674h17.627v-6.44h-24.818v32.904h25.054Zm-30.885-5.311-4.607-4.654c-2.584 2.35-4.887 3.855-8.649 3.855-5.64 0-9.542-4.702-9.542-10.341v-.094c0-5.641 3.996-10.248 9.542-10.248 3.291 0 5.877 1.41 8.416 3.715l4.605-5.313c-3.056-3.008-6.768-5.076-12.973-5.076-10.108 0-17.158 7.662-17.158 17.015v.094c0 9.448 7.192 16.922 16.875 16.922 6.346 0 10.107-2.256 13.491-5.875Zm-37.371 5.311V14.503h-7.145v20.259l-15.417-20.26h-6.675v32.904h7.144V26.488l15.935 20.918h6.158Zm-47.667-13.772h-8.742l4.371-10.672 4.371 10.672Zm13.163 13.772-14.103-33.139h-6.674l-14.101 33.14h7.379l3.008-7.382h13.915l3.007 7.381h7.569Zm-40.099 0V14.503h-7.144v20.259l-15.419-20.26h-6.674v32.904h7.145V26.488l15.935 20.918h6.157Zm-46.149 0h7.238V14.503h-7.238v32.903Zm-15.134-9.92c0 2.446-1.927 3.574-5.123 3.574H80.73v-7.238h8.366c3.715 0 5.359 1.361 5.359 3.572v.093Zm-1.832-13.158c0 2.442-2.023 3.476-5.219 3.476H80.73V20.85h7.144c3.055 0 4.749 1.22 4.749 3.384v.095Zm9.023 14.053v-.093c0-4.42-2.349-6.629-6.156-8.085 2.349-1.318 4.324-3.384 4.324-7.098v-.095c0-5.17-4.138-8.507-10.858-8.507H73.678v32.903h15.654c7.426 0 12.314-3.008 12.314-9.025Zm-71.517-.652 6.775-6.774-6.775-6.775-6.774 6.774 6.774 6.775Zm0 9.677L18.517 35.793l-6.772 6.775 11.61 11.613 6.776 6.773 6.774-6.773 11.613-11.613-6.774-6.775-11.614 11.613ZM53.356 24.18l-6.775 6.774 6.775 6.775 6.774-6.774-6.774-6.775Zm-23.227-9.677 11.614 11.613 6.774-6.775L36.904 7.728 30.13.954l-6.774 6.774-11.612 11.613 6.773 6.775L30.13 14.503ZM13.678 30.954 6.903 37.73.13 30.955l6.773-6.775 6.775 6.774Z" clip-rule="evenodd"/></svg>