<svg xmlns="http://www.w3.org/2000/svg" width="107" height="124" fill="none"><g clip-path="url(#a)"><path fill="#fff" stroke="#0D0B33" stroke-width="1.727" d="M46.718 115.689c-24.27-14.44-43.946-49.04-43.946-77.281 0-28.242 19.676-39.43 43.947-24.99 24.27 14.439 43.946 49.039 43.946 77.28 0 28.242-19.676 39.43-43.947 24.991Z"/><path fill="#000" fill-rule="evenodd" d="m30.686 59.78 5.248 6.526v6.997l-.002-.001v-.003l-5.246-6.525V59.78Zm20.987 33.103.002.002v7l-5.248.467-5.249-6.528v-7l5.249 6.529 5.246-.47ZM25.44 67.243l10.495 13.055v6.997l-5.248-6.529-5.247-6.528-5.246-6.525V46.725l5.246 6.527v13.992Zm41.976 10.244 5.248-.469v20.99l-5.248.465-10.493.939v-6.997l10.493-.937V77.487Zm-10.493.936 5.246-.467v6.995l-5.246.47v-6.998Zm0-20.986 5.246 6.528v6.994l-10.492.94V85.89l-5.249.466-5.249-6.527V65.838l-5.244-6.526-5.248-6.53v-6.994l5.248-.468 10.493 13.055 5.249-.468 5.246-.47ZM46.427 44.383l5.248 6.526-5.248.469-5.249-6.529 5.249-.466Zm10.495-.94 5.246 6.53-5.246.47-5.246-6.528-5.249-6.531-5.249.47-5.244.471-5.248-6.529 5.248-.47 10.493-.94 5.249 6.53 5.246 6.527ZM67.415 56.5l5.248 6.526v6.997l-5.248.468v-6.997l-5.247-6.527 5.247-.468Zm-36.73-17.71-5.246.47v6.997l-5.246-6.528v-6.997l5.246-.467 5.247 6.525Z" clip-rule="evenodd"/><path fill="#79EFBD" stroke="#0D0B33" stroke-width="1.727" d="M46.718 13.418C34.715 6.276 23.835 5.402 15.904 9.761l8.723-4.96c17.162-9.76 44.987 6.795 62.15 36.975 17.161 30.18 17.161 62.557 0 72.316l-8.39 4.771.002-.017c7.602-4.67 12.276-14.384 12.276-28.149 0-28.241-19.676-62.84-43.947-77.28Z"/><path fill="#0D0B33" d="m90.383 84.706 8.984-4.983c-.127-4.808-.673-8.278-2.527-15.756l-9.48 5.273c1.522 5.199 2.556 10.401 3.023 15.466ZM83.29 57.947l8.791-5.145c-9.397-20.159-16.578-29.644-33.287-42.788l-9.122 5.274c14.025 9.427 26.25 25.44 33.618 42.659Z"/></g><defs><clipPath id="a"><path fill="#fff" d="M0 0h107v124H0z"/></clipPath></defs></svg>