<svg xmlns="http://www.w3.org/2000/svg" width="113" height="151" fill="none"><path fill="#fff" stroke="#0D0B33" stroke-width="1.727" d="M49.267 130.879C22.61 115.02 1 77.019 1 45.999 1 14.983 22.61 2.694 49.267 18.553c26.657 15.86 48.267 53.862 48.267 84.88 0 31.018-21.61 43.307-48.267 27.447Z"/><path fill="#000" fill-rule="evenodd" d="M73.351 82.449c1.006-7.196-4.122-14.337-11.133-21.174l2.274-9.22-5.555-4.806-2.214 8.978a414.327 414.327 0 0 0-4.447-3.777l2.23-9.036-5.55-4.803-2.276 9.217a336.644 336.644 0 0 1-3.547-3.01l.007-.03-7.659-6.629-1.477 5.996s4.12 3.47 4.033 3.487c2.25 1.947 2.658 3.9 2.588 5.223l-2.59 10.505c.154.135.355.317.577.547l-.586-.506-3.633 14.714c-.275.63-.972 1.41-2.545.054.056.125-4.036-3.494-4.036-3.494l-2.757 5.75 7.228 6.254c.816.707 1.622 1.415 2.42 2.115l.002.002c.515.454 1.027.903 1.536 1.347l-2.298 9.33 5.546 4.801 2.278-9.227a385.306 385.306 0 0 0 4.424 3.88l-2.268 9.183 5.553 4.804 2.298-9.308c9.47 7.536 16.592 10.814 19.586 2.655 2.415-6.569-.119-12.625-5.101-18.498 3.628 1.125 6.361-.053 7.09-5.325h.002Zm-28.705 6.874c-.406-.359-.768-.678-1.078-.946l3.05-12.355c.378.327.84.714 1.364 1.152 4.686 3.92 14.29 11.953 12.681 18.494l-.002-.001c-1.576 6.398-11.485-2.347-16.015-6.344Zm4.278-18.155c3.78 3.346 12.018 10.64 13.453 4.83 1.468-5.945-6.544-12.617-10.456-15.876-.44-.366-.828-.69-1.145-.964l-2.765 11.207c.262.226.569.498.913.803Z" clip-rule="evenodd"/><path fill="#79EFBD" stroke="#0D0B33" stroke-width="1.727" d="M49.267 18.552C36.083 10.71 24.134 9.75 15.423 14.537l9.58-5.448c18.85-10.718 49.41 7.463 68.26 40.61 18.85 33.148 18.85 68.709 0 79.428l-9.214 5.239.002-.018c8.35-5.129 13.483-15.798 13.483-30.916 0-31.018-21.61-69.02-48.267-84.88Z"/><path fill="#0D0B33" d="m97.225 96.85 9.867-5.473c-.139-5.28-.739-9.092-2.775-17.305l-10.413 5.792c1.672 5.71 2.808 11.423 3.32 16.986ZM89.434 67.46l9.656-5.65C88.77 39.668 80.882 29.25 62.53 14.815l-10.02 5.792c15.405 10.354 28.833 27.94 36.924 46.853Z"/></svg>