<svg xmlns="http://www.w3.org/2000/svg" width="132" height="152" fill="none"><g clip-path="url(#a)"><path fill="#fff" stroke="#0D0B33" stroke-width="1.727" d="M58.552 134.967c-26.657-15.859-48.267-53.86-48.267-84.879 0-31.018 21.61-43.307 48.267-27.447 26.657 15.86 48.267 53.86 48.267 84.879 0 31.018-21.61 43.307-48.267 27.447Z"/><path fill="#000" fill-rule="evenodd" d="M82.636 86.537c1.005-7.196-4.122-14.337-11.134-21.174l2.275-9.22-5.555-4.806-2.214 8.978a413.172 413.172 0 0 0-4.448-3.776l2.23-9.037-5.55-4.802-2.276 9.216a334.264 334.264 0 0 1-3.546-3.01l.007-.029-7.659-6.63-1.477 5.996s4.12 3.47 4.033 3.487c2.25 1.947 2.657 3.901 2.588 5.223l-2.591 10.505c.155.136.356.317.577.547l-.585-.506-3.633 14.714c-.275.63-.973 1.411-2.545.054.055.125-4.036-3.494-4.036-3.494l-2.757 5.75 7.228 6.254a468.74 468.74 0 0 1 2.419 2.115l.002.003 1.536 1.347-2.298 9.329 5.547 4.801 2.278-9.227a377.655 377.655 0 0 0 4.423 3.88l-2.268 9.183 5.553 4.804 2.299-9.308c9.469 7.537 16.591 10.814 19.585 2.655 2.415-6.568-.118-12.625-5.1-18.498 3.628 1.125 6.36-.053 7.09-5.325l.002.001ZM53.93 93.411c-.406-.358-.768-.678-1.078-.946l3.05-12.355c.378.328.84.714 1.364 1.152 4.686 3.92 14.29 11.953 12.68 18.494h-.001c-1.576 6.397-11.485-2.347-16.015-6.345Zm4.278-18.155c3.78 3.346 12.018 10.64 13.453 4.83 1.467-5.944-6.544-12.617-10.457-15.876-.44-.366-.827-.689-1.144-.963l-2.765 11.206c.262.227.569.498.913.803Z" clip-rule="evenodd"/><path fill="#79EFBD" stroke="#0D0B33" stroke-width="1.727" d="M58.552 22.64c-13.184-7.843-25.133-8.801-33.844-4.014l9.58-5.448c18.85-10.72 49.41 7.463 68.26 40.61 18.849 33.148 18.849 68.708 0 79.427l-9.214 5.24.002-.019c8.349-5.129 13.483-15.798 13.483-30.916 0-31.018-21.61-69.02-48.267-84.88Z"/><path fill="#0D0B33" d="m106.509 100.938 9.867-5.473c-.138-5.28-.739-9.092-2.774-17.304l-10.414 5.791c1.672 5.71 2.809 11.424 3.321 16.986ZM98.719 71.548l9.656-5.65c-10.322-22.141-18.208-32.56-36.56-46.995l-10.02 5.792C77.2 35.05 90.627 52.636 98.72 71.548Z"/></g><defs><clipPath id="a"><path fill="#fff" d="M0 0h132v152H0z"/></clipPath></defs></svg>