<svg xmlns="http://www.w3.org/2000/svg" width="118" height="84" fill="none"><path fill="url(#a)" d="M100.72 73.346c-22.835 13.22-59.857 13.22-82.692 0-22.834-13.22-22.834-34.654 0-47.874 22.835-13.22 59.857-13.22 82.692 0 22.834 13.22 22.834 34.654 0 47.874Z"/><path fill="#79EFBD" stroke="#0D0B33" stroke-width=".592" d="M98.545 66.035c-21.633 12.49-56.706 12.49-78.339 0C9.993 60.14 4.602 52.516 4.032 44.793l-.048-10.77C4.13 42.093 9.537 50.14 20.206 56.3c21.633 12.488 56.706 12.488 78.34 0 10.624-6.134 16.03-14.14 16.219-22.178v-.87c.007.29.007.58 0 .87v9.736c-.188 8.038-5.595 16.044-16.22 22.178Z"/><path fill="#F7F6FF" stroke="#0D0B33" stroke-width=".592" d="M98.544 55.797c-21.632 12.488-56.706 12.488-78.339 0-21.633-12.489-21.633-32.737 0-45.225 21.633-12.49 56.707-12.49 78.34 0 21.632 12.488 21.632 32.736 0 45.225Z"/><path fill="#0D0B33" d="M76.926 40.726c.344-1.554-.385-3.178-2.186-4.872 4.554.853 8.49.11 11.81-2.226 1.214-.841 2.003-1.723 2.367-2.646.363-.923.318-1.86-.138-2.813-.455-.953-1.144-1.876-2.064-2.77-.921-.893-2.11-1.843-3.568-2.847l7.65-4.417-4.674-2.699-7.438 4.294c-.81-.467-2.064-1.168-3.764-2.103l7.498-4.329-4.675-2.699-7.65 4.417c-.689-.374-1.68-.935-2.976-1.683L60.713 9.6l-4.98 2.875 3.37 1.945c1.539.888 1.751 1.805.638 2.751l-8.713 5.03c.203.117.354.217.455.299l-.486-.28-12.203 7.044c-1.194.503-2.297.462-3.31-.122l-3.369-1.945-6.497 2.664 6.072 3.505c.384.222.936.546 1.655.972.719.427 1.26.745 1.624.955l-7.741 4.47 4.676 2.699 7.65-4.417a216 216 0 0 0 3.673 2.156l-7.62 4.399 4.675 2.699 7.742-4.47a56.104 56.104 0 0 0 4.872 2.288 33.952 33.952 0 0 0 4.736 1.524c1.65.403 3.223.628 4.72.675 1.498.047 3.051-.097 4.661-.43a21.194 21.194 0 0 0 4.781-1.621c3.077-1.471 4.787-2.985 5.132-4.539Zm-7.378-19.892a301.183 301.183 0 0 0 2.885 1.612c.445.246 1.006.6 1.685 1.06.678.462 1.219.868 1.624 1.219.404.35.794.768 1.168 1.253.376.485.577.929.607 1.331.031.404-.085.827-.35 1.271-.262.444-.727.859-1.395 1.244a7.11 7.11 0 0 1-1.822.737c-.647.164-1.31.23-1.988.202a19.803 19.803 0 0 1-1.943-.176 10.552 10.552 0 0 1-2.034-.526c-.739-.262-1.371-.499-1.897-.709-.526-.21-1.138-.5-1.837-.867-.698-.369-1.225-.65-1.579-.842a43.779 43.779 0 0 1-1.411-.815c-.588-.35-.931-.555-1.033-.613l9.32-5.381ZM61.64 40.139a9.958 9.958 0 0 1-1.959.272 10.09 10.09 0 0 1-2.109-.167 21.951 21.951 0 0 1-2.08-.464 21.354 21.354 0 0 1-2.11-.727 36.2 36.2 0 0 1-1.989-.85 46.488 46.488 0 0 1-1.897-.956c-.718-.38-1.27-.68-1.654-.903-.385-.221-.865-.505-1.442-.85-.578-.344-.947-.563-1.11-.657l10.263-5.924c.161.094.652.365 1.472.815.82.45 1.482.821 1.988 1.113.506.292 1.175.713 2.004 1.262.83.55 1.488 1.034 1.974 1.455.486.42.961.91 1.427 1.472.465.56.739 1.075.82 1.542.08.468-.01.952-.273 1.455-.263.502-.759.964-1.488 1.385a6.838 6.838 0 0 1-1.837.727ZM3.98 37.098c3.16 7.96 5.602 11.618 12.31 15.387v10.771C10.165 58.921 6.886 56.26 3.98 47.1V37.098ZM20.906 56.334l4.616 2.308v10.771l-4.616-2.308V56.334Z"/><defs><linearGradient id="a" x1="-28.092" x2="-22.082" y1="22.77" y2="75.779" gradientUnits="userSpaceOnUse"><stop stop-color="#fff"/><stop offset="1" stop-color="#fff" stop-opacity="0"/></linearGradient></defs></svg>