<svg xmlns="http://www.w3.org/2000/svg" width="118" height="264" fill="none"><path fill="url(#a)" d="M100.185 253.092c-22.835 13.22-59.857 13.22-82.692 0-22.834-13.22-22.834-34.654 0-47.874 22.835-13.22 59.857-13.22 82.692 0 22.834 13.22 22.834 34.654 0 47.874Z"/><path fill="#79EFBD" stroke="#0D0B33" stroke-width=".592" d="M98.006 245.782c-21.633 12.488-56.706 12.488-78.34 0-10.212-5.896-15.603-13.522-16.173-21.243l-.048-10.772c.146 8.073 5.553 16.12 16.222 22.279 21.633 12.488 56.706 12.488 78.34 0 10.624-6.134 16.03-14.139 16.219-22.178v-.87c.007.29.007.58 0 .87v9.736c-.188 8.038-5.595 16.044-16.22 22.178Z"/><path fill="#F7F6FF" stroke="#0D0B33" stroke-width=".592" d="M98.01 235.543c-21.634 12.489-56.707 12.489-78.34 0-21.633-12.489-21.633-32.737 0-45.225 21.633-12.489 56.706-12.489 78.34 0 21.632 12.488 21.632 32.736 0 45.225Z"/><path fill="#0D0B33" d="M69.372 222.341c.323-1.457-.36-2.98-2.05-4.568 4.27.799 7.96.103 11.074-2.088 1.138-.789 1.878-1.615 2.219-2.481.34-.865.299-1.744-.13-2.637-.425-.893-1.072-1.759-1.935-2.597-.863-.838-1.978-1.728-3.345-2.67l7.174-4.141-4.384-2.53-6.974 4.026a205.097 205.097 0 0 0-3.529-1.972l7.031-4.059-4.384-2.531-7.173 4.141a130.42 130.42 0 0 1-2.79-1.577l-6.005-3.5-4.669 2.695 3.16 1.824c1.442.832 1.641 1.692.598 2.579l-8.17 4.717c.19.109.332.203.427.279l-.456-.263-11.442 6.606c-1.12.471-2.154.433-3.103-.115l-3.159-1.824-6.092 2.498 5.693 3.287c.361.208.878.512 1.553.911.673.4 1.18.698 1.522.896l-7.258 4.19 4.384 2.531 7.173-4.141c.778.471 1.926 1.145 3.444 2.021l-7.144 4.125 4.383 2.53 7.258-4.19a52.43 52.43 0 0 0 4.568 2.144 31.868 31.868 0 0 0 4.441 1.43c1.546.378 3.022.588 4.426.632 1.404.044 2.86-.09 4.37-.402a19.86 19.86 0 0 0 4.483-1.521c2.885-1.379 4.488-2.798 4.811-4.255Zm-6.917-18.651a264.996 264.996 0 0 0 2.705 1.511c.417.23.943.562 1.58.995.635.432 1.142.813 1.522 1.142.38.328.745.72 1.096 1.174.351.455.54.871.569 1.249.029.378-.08.775-.328 1.191-.246.417-.683.806-1.309 1.167-.531.307-1.1.537-1.708.691a6.465 6.465 0 0 1-1.864.189 18.328 18.328 0 0 1-1.822-.165 9.847 9.847 0 0 1-1.907-.493 49.867 49.867 0 0 1-1.778-.665 18.468 18.468 0 0 1-1.723-.813 145.9 145.9 0 0 1-1.48-.789 42.312 42.312 0 0 1-1.324-.764c-.55-.329-.873-.521-.968-.576l8.739-5.044v-.001.001Zm-7.415 18.1a9.31 9.31 0 0 1-1.836.255 9.425 9.425 0 0 1-1.978-.156 20.425 20.425 0 0 1-1.95-.436 20.145 20.145 0 0 1-1.978-.681 34.138 34.138 0 0 1-1.866-.798 43.808 43.808 0 0 1-1.779-.895 49.185 49.185 0 0 1-1.55-.847c-.361-.208-.812-.474-1.353-.797a129.2 129.2 0 0 0-1.04-.616l9.622-5.554c.152.087.612.342 1.38.764.77.422 1.39.77 1.865 1.044.474.273 1.101.668 1.88 1.183.777.514 1.394.969 1.85 1.363.455.395.9.855 1.338 1.381.436.526.692 1.008.769 1.446.075.439-.01.893-.257 1.364-.246.471-.711.904-1.394 1.298a6.416 6.416 0 0 1-1.723.682ZM3.445 216.844c3.16 7.96 5.602 11.618 12.31 15.387v10.771c-6.125-4.335-9.405-6.995-12.31-16.157v-10.001ZM20.367 236.08l4.616 2.308v10.771l-4.616-2.308V236.08Z"/><path fill="#79EFBD" stroke="#0D0B33" stroke-width=".592" d="M98.006 235.198c-21.633 12.488-56.706 12.488-78.34 0-10.212-5.896-15.603-13.522-16.173-21.243l-.048-10.772c.146 8.073 5.553 16.12 16.222 22.279 21.633 12.488 56.706 12.488 78.34 0 10.624-6.134 16.03-14.139 16.219-22.178v-.87c.007.29.007.58 0 .87v9.736c-.188 8.038-5.595 16.044-16.22 22.178Z"/><path fill="#F7F6FF" stroke="#0D0B33" stroke-width=".592" d="M98.01 224.959c-21.634 12.489-56.707 12.489-78.34 0-21.633-12.489-21.633-32.737 0-45.225 21.633-12.489 56.706-12.489 78.34 0 21.632 12.488 21.632 32.736 0 45.225Z"/><path fill="#0D0B33" d="M69.372 211.757c.323-1.457-.36-2.98-2.05-4.568 4.27.799 7.96.103 11.074-2.088 1.138-.789 1.878-1.615 2.219-2.48.34-.866.299-1.745-.13-2.638-.425-.893-1.072-1.759-1.935-2.597-.863-.837-1.978-1.728-3.345-2.67l7.174-4.141-4.384-2.53-6.974 4.026a205.097 205.097 0 0 0-3.529-1.972l7.031-4.059-4.384-2.531-7.173 4.141a130.42 130.42 0 0 1-2.79-1.577l-6.005-3.5-4.669 2.695 3.16 1.824c1.442.832 1.641 1.692.598 2.58l-8.17 4.716c.19.109.332.203.427.279l-.456-.263-11.442 6.606c-1.12.471-2.154.433-3.103-.115l-3.159-1.824-6.092 2.498 5.693 3.287c.361.208.878.512 1.553.911.673.4 1.18.698 1.522.896l-7.258 4.19 4.384 2.531 7.173-4.141c.778.471 1.926 1.145 3.444 2.021l-7.144 4.125 4.383 2.53 7.258-4.19a52.43 52.43 0 0 0 4.568 2.144 31.868 31.868 0 0 0 4.441 1.43c1.546.378 3.022.588 4.426.632 1.404.044 2.86-.09 4.37-.402a19.86 19.86 0 0 0 4.483-1.521c2.885-1.379 4.488-2.798 4.811-4.255Zm-6.917-18.651a264.996 264.996 0 0 0 2.705 1.511c.417.23.943.562 1.58.995.635.432 1.142.813 1.522 1.142.38.328.745.72 1.096 1.174.351.455.54.871.569 1.249.029.378-.08.775-.328 1.191-.246.417-.683.806-1.309 1.167-.531.307-1.1.537-1.708.691a6.465 6.465 0 0 1-1.864.189 18.328 18.328 0 0 1-1.822-.165 9.847 9.847 0 0 1-1.907-.493 49.867 49.867 0 0 1-1.778-.665 18.468 18.468 0 0 1-1.723-.813c-.654-.345-1.148-.608-1.48-.789a42.312 42.312 0 0 1-1.324-.764c-.55-.329-.873-.521-.968-.576l8.739-5.044v-.001.001Zm-7.415 18.1a9.31 9.31 0 0 1-1.836.255 9.425 9.425 0 0 1-1.978-.156 20.425 20.425 0 0 1-1.95-.436 19.885 19.885 0 0 1-1.978-.681 34.138 34.138 0 0 1-1.866-.798 43.808 43.808 0 0 1-1.779-.895 49.185 49.185 0 0 1-1.55-.847c-.361-.208-.812-.474-1.353-.797a129.2 129.2 0 0 0-1.04-.616l9.622-5.554c.152.087.612.342 1.38.764.77.422 1.39.77 1.865 1.044.474.273 1.101.668 1.88 1.183.777.514 1.394.969 1.85 1.364.455.394.9.854 1.338 1.38.436.526.692 1.008.769 1.446.075.439-.01.893-.257 1.364-.246.471-.711.904-1.394 1.298a6.416 6.416 0 0 1-1.723.682ZM3.445 206.26c3.16 7.96 5.602 11.618 12.31 15.387v10.771c-6.125-4.335-9.405-6.995-12.31-16.156V206.26ZM20.371 225.496l4.616 2.308v10.771l-4.616-2.308v-10.771Z"/><path fill="#79EFBD" stroke="#0D0B33" stroke-width=".592" d="M98.006 224.612c-21.633 12.488-56.706 12.488-78.34 0-10.212-5.896-15.603-13.522-16.173-21.243l-.048-10.772c.146 8.073 5.553 16.12 16.222 22.279 21.633 12.489 56.706 12.489 78.34 0 10.624-6.134 16.03-14.139 16.219-22.178v-.87c.007.29.007.58 0 .87v9.736c-.188 8.039-5.595 16.044-16.22 22.178Z"/><path fill="#F7F6FF" stroke="#0D0B33" stroke-width=".592" d="M98.01 214.373c-21.634 12.489-56.707 12.489-78.34 0-21.633-12.489-21.633-32.737 0-45.225 21.633-12.489 56.706-12.489 78.34 0 21.632 12.488 21.632 32.736 0 45.225Z"/><path fill="#0D0B33" d="M69.372 201.171c.323-1.457-.36-2.98-2.05-4.568 4.27.799 7.96.103 11.074-2.088 1.138-.788 1.878-1.615 2.219-2.48.34-.866.299-1.745-.13-2.638-.425-.893-1.072-1.759-1.935-2.597-.863-.837-1.978-1.728-3.345-2.67l7.174-4.141-4.384-2.53-6.974 4.026a212.285 212.285 0 0 0-3.529-1.972l7.031-4.059-4.384-2.531-7.173 4.141a130.42 130.42 0 0 1-2.79-1.577l-6.005-3.5-4.669 2.695 3.16 1.824c1.442.832 1.641 1.692.598 2.58l-8.17 4.716c.19.11.332.203.427.279l-.456-.263-11.442 6.606c-1.12.471-2.154.433-3.103-.115l-3.159-1.824-6.092 2.498 5.693 3.287c.361.208.878.512 1.553.911.673.4 1.18.699 1.522.896l-7.258 4.19 4.384 2.531 7.173-4.141c.778.471 1.926 1.145 3.444 2.021l-7.144 4.125 4.383 2.53 7.258-4.19a52.43 52.43 0 0 0 4.568 2.144 31.868 31.868 0 0 0 4.441 1.43c1.546.378 3.022.588 4.426.632 1.404.044 2.86-.09 4.37-.402a19.86 19.86 0 0 0 4.483-1.521c2.885-1.379 4.488-2.798 4.811-4.255Zm-6.917-18.651a264.996 264.996 0 0 0 2.705 1.511c.417.23.943.562 1.58.995.635.432 1.142.813 1.522 1.142.38.328.745.72 1.096 1.174.351.455.54.871.569 1.249.029.378-.08.775-.328 1.191-.246.417-.683.806-1.309 1.167-.531.307-1.1.537-1.708.691a6.465 6.465 0 0 1-1.864.189 18.328 18.328 0 0 1-1.822-.165 9.847 9.847 0 0 1-1.907-.493 49.867 49.867 0 0 1-1.778-.665 18.468 18.468 0 0 1-1.723-.813c-.654-.345-1.148-.608-1.48-.789a40.377 40.377 0 0 1-1.324-.764c-.55-.329-.873-.521-.968-.575l8.739-5.045Zm-7.415 18.1a9.31 9.31 0 0 1-1.836.255 9.425 9.425 0 0 1-1.978-.156 20.749 20.749 0 0 1-1.95-.435 20.173 20.173 0 0 1-1.978-.682 34.138 34.138 0 0 1-1.866-.798 43.808 43.808 0 0 1-1.779-.895 51.777 51.777 0 0 1-1.55-.846c-.361-.209-.812-.475-1.353-.798a129.2 129.2 0 0 0-1.04-.616l9.622-5.554c.152.087.612.342 1.38.764.77.422 1.39.77 1.865 1.044a38.24 38.24 0 0 1 1.88 1.183c.777.514 1.394.969 1.85 1.364.455.394.9.854 1.338 1.38.436.526.692 1.008.769 1.446.075.439-.01.893-.257 1.364-.246.471-.711.904-1.394 1.298a6.416 6.416 0 0 1-1.723.682ZM3.445 195.674c3.16 7.96 5.602 11.618 12.31 15.387v10.771c-6.125-4.335-9.405-6.995-12.31-16.156v-10.002ZM20.371 214.91l4.616 2.308v10.771l-4.616-2.308V214.91Z"/><path fill="#79EFBD" stroke="#0D0B33" stroke-width=".592" d="M98.006 214.026c-21.633 12.488-56.706 12.488-78.34 0-10.212-5.896-15.603-13.522-16.173-21.243l-.048-10.771c.146 8.072 5.553 16.119 16.222 22.278 21.633 12.489 56.706 12.489 78.34 0 10.624-6.134 16.03-14.139 16.219-22.178v-.87c.007.29.007.58 0 .87v9.736c-.188 8.039-5.595 16.044-16.22 22.178Z"/><path fill="#F7F6FF" stroke="#0D0B33" stroke-width=".592" d="M98.01 203.787c-21.634 12.489-56.707 12.489-78.34 0-21.633-12.489-21.633-32.737 0-45.225 21.633-12.489 56.706-12.489 78.34 0 21.632 12.488 21.632 32.736 0 45.225Z"/><path fill="#0D0B33" d="M69.372 190.585c.323-1.457-.36-2.98-2.05-4.568 4.27.799 7.96.104 11.074-2.087 1.138-.789 1.878-1.616 2.219-2.481.34-.866.299-1.745-.13-2.638-.425-.893-1.072-1.759-1.935-2.596-.863-.838-1.978-1.729-3.345-2.671l7.174-4.141-4.384-2.53-6.974 4.026a212.285 212.285 0 0 0-3.529-1.972l7.031-4.059-4.384-2.531-7.173 4.141a130.42 130.42 0 0 1-2.79-1.577l-6.005-3.5-4.669 2.695 3.16 1.824c1.442.832 1.641 1.692.598 2.58l-8.17 4.716c.19.11.332.203.427.28l-.456-.264-11.442 6.606c-1.12.471-2.154.433-3.103-.115l-3.159-1.824-6.092 2.498 5.693 3.287c.361.208.878.512 1.553.911.673.4 1.18.699 1.522.896l-7.258 4.19 4.384 2.531 7.173-4.141a195.73 195.73 0 0 0 3.444 2.021l-7.144 4.125 4.383 2.53 7.258-4.19a52.43 52.43 0 0 0 4.568 2.144 31.868 31.868 0 0 0 4.441 1.43c1.546.378 3.022.588 4.426.632 1.404.044 2.86-.09 4.37-.402a19.86 19.86 0 0 0 4.483-1.521c2.885-1.379 4.488-2.798 4.811-4.255Zm-6.917-18.651a326.665 326.665 0 0 0 2.705 1.511c.417.23.943.562 1.58.995.635.432 1.142.813 1.522 1.142.38.328.745.72 1.096 1.174.351.455.54.871.569 1.249.029.378-.08.775-.328 1.192-.246.416-.683.805-1.309 1.166-.531.307-1.1.537-1.708.691a6.43 6.43 0 0 1-1.864.189 18.639 18.639 0 0 1-1.822-.164 9.994 9.994 0 0 1-1.907-.493 51.689 51.689 0 0 1-1.778-.666 18.468 18.468 0 0 1-1.723-.813c-.654-.345-1.148-.608-1.48-.789a40.377 40.377 0 0 1-1.324-.764c-.55-.329-.873-.521-.968-.575l8.739-5.045Zm-7.415 18.1a9.387 9.387 0 0 1-1.836.256 9.497 9.497 0 0 1-1.978-.157 20.749 20.749 0 0 1-1.95-.435 19.912 19.912 0 0 1-1.978-.682 34.138 34.138 0 0 1-1.866-.798 42.541 42.541 0 0 1-1.779-.895 51.777 51.777 0 0 1-1.55-.846c-.361-.209-.812-.475-1.353-.798a129.2 129.2 0 0 0-1.04-.616l9.622-5.554c.152.087.612.342 1.38.764.77.422 1.39.77 1.865 1.044a38.24 38.24 0 0 1 1.88 1.183c.777.515 1.394.969 1.85 1.364.455.394.9.854 1.338 1.38.436.526.692 1.008.769 1.446.075.439-.01.893-.257 1.364-.246.471-.711.904-1.394 1.298a6.416 6.416 0 0 1-1.723.682ZM3.445 185.088c3.16 7.96 5.602 11.618 12.31 15.387v10.771c-6.125-4.335-9.405-6.995-12.31-16.156v-10.002ZM20.371 204.324l4.616 2.308v10.771l-4.616-2.308v-10.771Z"/><path fill="#79EFBD" stroke="#0D0B33" stroke-width=".592" d="M98.006 203.44c-21.633 12.488-56.706 12.488-78.34 0-10.212-5.896-15.603-13.521-16.173-21.243l-.048-10.771c.146 8.072 5.553 16.119 16.222 22.278 21.633 12.489 56.706 12.489 78.34 0 10.624-6.134 16.03-14.139 16.219-22.177v-.871c.007.29.007.58 0 .871v9.735c-.188 8.039-5.595 16.044-16.22 22.178Z"/><path fill="#F7F6FF" stroke="#0D0B33" stroke-width=".592" d="M98.01 193.201c-21.634 12.489-56.707 12.489-78.34 0-21.633-12.488-21.633-32.737 0-45.225 21.633-12.489 56.706-12.489 78.34 0 21.632 12.488 21.632 32.737 0 45.225Z"/><path fill="#0D0B33" d="M69.372 179.999c.323-1.457-.36-2.98-2.05-4.568 4.27.799 7.96.104 11.074-2.087 1.138-.789 1.878-1.616 2.219-2.481.34-.866.299-1.745-.13-2.638-.425-.893-1.072-1.759-1.935-2.596-.863-.838-1.978-1.729-3.345-2.671l7.174-4.141-4.384-2.53-6.974 4.026a212.285 212.285 0 0 0-3.529-1.972l7.031-4.059-4.384-2.531-7.173 4.141a130.42 130.42 0 0 1-2.79-1.577l-6.005-3.5-4.669 2.695 3.16 1.824c1.442.832 1.641 1.692.598 2.58l-8.17 4.716c.19.11.332.203.427.28l-.456-.263-11.442 6.605c-1.12.471-2.154.433-3.103-.115l-3.159-1.823-6.092 2.497 5.693 3.287c.361.208.878.512 1.553.911.673.4 1.18.699 1.522.896l-7.258 4.19 4.384 2.531 7.173-4.141c.778.472 1.926 1.145 3.444 2.022l-7.144 4.124 4.383 2.53 7.258-4.19a52.753 52.753 0 0 0 4.568 2.145 31.998 31.998 0 0 0 4.441 1.429c1.546.378 3.022.588 4.426.632 1.404.045 2.86-.09 4.37-.402a19.86 19.86 0 0 0 4.483-1.521c2.885-1.379 4.488-2.798 4.811-4.255Zm-6.917-18.651a326.665 326.665 0 0 0 2.705 1.511c.417.231.943.562 1.58.995.635.433 1.142.813 1.522 1.142.38.328.745.72 1.096 1.175.351.454.54.871.569 1.248.029.378-.08.776-.328 1.192-.246.416-.683.805-1.309 1.166-.531.307-1.1.537-1.708.691a6.43 6.43 0 0 1-1.864.189 18.639 18.639 0 0 1-1.822-.164 9.92 9.92 0 0 1-1.907-.493 51.689 51.689 0 0 1-1.778-.666 18.468 18.468 0 0 1-1.723-.813c-.654-.345-1.148-.608-1.48-.789a40.377 40.377 0 0 1-1.324-.764c-.55-.329-.873-.52-.968-.575l8.739-5.045Zm-7.415 18.1a9.387 9.387 0 0 1-1.836.256 9.497 9.497 0 0 1-1.978-.157 20.749 20.749 0 0 1-1.95-.435 19.912 19.912 0 0 1-1.978-.682 33.37 33.37 0 0 1-1.866-.798 42.541 42.541 0 0 1-1.779-.895 51.777 51.777 0 0 1-1.55-.846c-.361-.209-.812-.475-1.353-.798a129.2 129.2 0 0 0-1.04-.616l9.622-5.554c.152.088.612.342 1.38.764.77.422 1.39.77 1.865 1.044a38.24 38.24 0 0 1 1.88 1.183c.777.515 1.394.969 1.85 1.364.455.394.9.854 1.338 1.38.436.526.692 1.008.769 1.446.075.439-.01.893-.257 1.364-.246.471-.711.904-1.394 1.299a6.414 6.414 0 0 1-1.723.681ZM3.445 174.502c3.16 7.96 5.602 11.618 12.31 15.387v10.771c-6.125-4.335-9.405-6.995-12.31-16.156v-10.002ZM20.371 193.738l4.616 2.308v10.771l-4.616-2.308v-10.771Z"/><path fill="#79EFBD" stroke="#0D0B33" stroke-width=".592" d="M98.006 192.854c-21.633 12.488-56.706 12.488-78.34 0-10.212-5.896-15.603-13.521-16.173-21.243l-.048-10.771c.146 8.072 5.553 16.119 16.222 22.278 21.633 12.489 56.706 12.489 78.34 0 10.624-6.134 16.03-14.139 16.219-22.177v-.871c.007.29.007.581 0 .871v9.735c-.188 8.039-5.595 16.044-16.22 22.178Z"/><path fill="#F7F6FF" stroke="#0D0B33" stroke-width=".592" d="M98.01 182.615c-21.634 12.489-56.707 12.489-78.34 0-21.633-12.488-21.633-32.736 0-45.225 21.633-12.489 56.706-12.489 78.34 0 21.632 12.489 21.632 32.737 0 45.225Z"/><path fill="#0D0B33" d="M69.372 169.413c.323-1.457-.36-2.98-2.05-4.568 4.27.8 7.96.104 11.074-2.087 1.138-.789 1.878-1.616 2.219-2.481.34-.866.299-1.745-.13-2.638-.425-.893-1.072-1.759-1.935-2.596-.863-.838-1.978-1.729-3.345-2.671l7.174-4.141-4.384-2.53-6.974 4.026a212.285 212.285 0 0 0-3.529-1.972l7.031-4.059-4.384-2.53-7.173 4.141c-.645-.351-1.575-.877-2.79-1.578l-6.005-3.5-4.669 2.695 3.16 1.824c1.442.832 1.641 1.693.598 2.58l-8.17 4.716c.19.11.332.203.427.28l-.456-.263-11.442 6.605c-1.12.471-2.154.433-3.103-.115l-3.159-1.823-6.092 2.497 5.693 3.287c.361.208.878.512 1.553.911.673.4 1.18.699 1.522.896l-7.258 4.19 4.384 2.531 7.173-4.141c.778.472 1.926 1.145 3.444 2.022l-7.144 4.124 4.383 2.53 7.258-4.19a52.753 52.753 0 0 0 4.568 2.145 31.998 31.998 0 0 0 4.441 1.429c1.546.378 3.022.589 4.426.632 1.404.045 2.86-.09 4.37-.402a19.86 19.86 0 0 0 4.483-1.521c2.885-1.379 4.488-2.798 4.811-4.255Zm-6.917-18.651c.132.077.512.29 1.138.641.627.35 1.149.64 1.566.87.418.231.944.562 1.58.995.636.433 1.143.813 1.523 1.142.38.328.745.72 1.096 1.175.351.454.54.871.569 1.248.029.378-.08.776-.328 1.192-.246.416-.683.805-1.309 1.166-.531.307-1.1.537-1.708.691a6.43 6.43 0 0 1-1.864.189 18.639 18.639 0 0 1-1.822-.164 9.92 9.92 0 0 1-1.907-.493 49.677 49.677 0 0 1-1.778-.666 18.468 18.468 0 0 1-1.723-.813c-.654-.345-1.148-.608-1.48-.789a40.377 40.377 0 0 1-1.324-.764c-.55-.329-.873-.52-.968-.575l8.739-5.045Zm-7.415 18.1a9.387 9.387 0 0 1-1.836.256 9.497 9.497 0 0 1-1.978-.157 20.749 20.749 0 0 1-1.95-.435 19.912 19.912 0 0 1-1.978-.682 33.37 33.37 0 0 1-1.866-.798 42.541 42.541 0 0 1-1.779-.895 51.777 51.777 0 0 1-1.55-.846c-.361-.208-.812-.474-1.353-.798a96.184 96.184 0 0 0-1.04-.615l9.622-5.555c.152.088.612.342 1.38.764.77.422 1.39.77 1.865 1.044a38.24 38.24 0 0 1 1.88 1.183c.777.515 1.394.969 1.85 1.364.455.394.9.854 1.338 1.38.436.526.692 1.008.769 1.446.075.439-.01.893-.257 1.364-.246.471-.711.904-1.394 1.299a6.381 6.381 0 0 1-1.723.681ZM3.445 163.916c3.16 7.96 5.602 11.618 12.31 15.387v10.771c-6.125-4.335-9.405-6.995-12.31-16.156v-10.002ZM20.371 183.152l4.616 2.308v10.772l-4.616-2.309v-10.771Z"/><path fill="#79EFBD" stroke="#0D0B33" stroke-width=".592" d="M98.006 182.27c-21.633 12.489-56.706 12.489-78.34 0-10.212-5.896-15.603-13.521-16.173-21.243l-.048-10.771c.146 8.072 5.553 16.119 16.222 22.278 21.633 12.489 56.706 12.489 78.34 0 10.624-6.134 16.03-14.139 16.219-22.177v-.871c.007.29.007.581 0 .871v9.735c-.188 8.039-5.595 16.044-16.22 22.178Z"/><path fill="#F7F6FF" stroke="#0D0B33" stroke-width=".592" d="M98.01 172.031c-21.634 12.489-56.707 12.489-78.34 0-21.633-12.488-21.633-32.736 0-45.225 21.633-12.489 56.706-12.489 78.34 0 21.632 12.489 21.632 32.737 0 45.225Z"/><path fill="#0D0B33" d="M69.372 158.831c.323-1.457-.36-2.98-2.05-4.568 4.27.799 7.96.104 11.074-2.087 1.138-.789 1.878-1.616 2.219-2.481.34-.866.299-1.745-.13-2.638-.425-.893-1.072-1.759-1.935-2.596-.863-.838-1.978-1.729-3.345-2.671l7.174-4.141-4.384-2.53-6.974 4.026a212.285 212.285 0 0 0-3.529-1.972l7.031-4.059-4.384-2.531-7.173 4.142c-.645-.351-1.575-.877-2.79-1.578l-6.005-3.5-4.669 2.695 3.16 1.824c1.442.832 1.641 1.692.598 2.58l-8.17 4.716c.19.11.332.203.427.28l-.456-.263-11.442 6.605c-1.12.471-2.154.433-3.103-.115l-3.159-1.823-6.092 2.497 5.693 3.287c.361.208.878.512 1.553.911.673.4 1.18.699 1.522.896l-7.258 4.19 4.384 2.531 7.173-4.141c.778.472 1.926 1.145 3.444 2.022l-7.144 4.124 4.383 2.53 7.258-4.19a52.753 52.753 0 0 0 4.568 2.145 31.998 31.998 0 0 0 4.441 1.429c1.546.378 3.022.588 4.426.632 1.404.045 2.86-.09 4.37-.402a19.86 19.86 0 0 0 4.483-1.521c2.885-1.379 4.488-2.798 4.811-4.255Zm-6.917-18.651a326.665 326.665 0 0 0 2.705 1.511c.417.231.943.562 1.58.995.635.433 1.142.813 1.522 1.142.38.328.745.72 1.096 1.175.351.454.54.871.569 1.248.029.378-.08.776-.328 1.192-.246.416-.683.805-1.309 1.166-.531.307-1.1.537-1.708.691a6.43 6.43 0 0 1-1.864.189 18.639 18.639 0 0 1-1.822-.164 9.92 9.92 0 0 1-1.907-.493 49.677 49.677 0 0 1-1.778-.666 18.468 18.468 0 0 1-1.723-.813c-.654-.345-1.148-.608-1.48-.789a40.377 40.377 0 0 1-1.324-.764c-.55-.329-.873-.52-.968-.575l8.739-5.045Zm-7.415 18.1a9.387 9.387 0 0 1-1.836.256 9.497 9.497 0 0 1-1.978-.157 20.749 20.749 0 0 1-1.95-.435 19.912 19.912 0 0 1-1.978-.682 33.37 33.37 0 0 1-1.866-.798 42.541 42.541 0 0 1-1.779-.895 51.777 51.777 0 0 1-1.55-.846c-.361-.209-.812-.474-1.353-.798a129.2 129.2 0 0 0-1.04-.616l9.622-5.554c.152.088.612.342 1.38.764.77.422 1.39.77 1.865 1.044a38.24 38.24 0 0 1 1.88 1.183c.777.515 1.394.969 1.85 1.364.455.394.9.854 1.338 1.38.436.526.692 1.008.769 1.446.075.439-.01.893-.257 1.364-.246.471-.711.904-1.394 1.299a6.381 6.381 0 0 1-1.723.681ZM3.445 153.332c3.16 7.96 5.602 11.618 12.31 15.387v10.771c-6.125-4.335-9.405-6.995-12.31-16.156v-10.002ZM20.371 172.568l4.616 2.308v10.772l-4.616-2.309v-10.771Z"/><path fill="#79EFBD" stroke="#0D0B33" stroke-width=".592" d="M98.006 171.684c-21.633 12.489-56.706 12.489-78.34 0-10.212-5.896-15.603-13.521-16.173-21.243l-.048-10.771c.146 8.072 5.553 16.119 16.222 22.278 21.633 12.489 56.706 12.489 78.34 0 10.624-6.133 16.03-14.139 16.219-22.177v-.871c.007.29.007.581 0 .871v9.735c-.188 8.039-5.595 16.044-16.22 22.178Z"/><path fill="#F7F6FF" stroke="#0D0B33" stroke-width=".592" d="M98.01 161.445c-21.634 12.489-56.707 12.489-78.34 0-21.633-12.488-21.633-32.736 0-45.225 21.633-12.489 56.706-12.489 78.34 0 21.632 12.489 21.632 32.737 0 45.225Z"/><path fill="#0D0B33" d="M69.372 148.243c.323-1.457-.36-2.98-2.05-4.568 4.27.8 7.96.104 11.074-2.087 1.138-.789 1.878-1.616 2.219-2.481.34-.866.299-1.745-.13-2.638-.425-.893-1.072-1.759-1.935-2.596-.863-.838-1.978-1.729-3.345-2.671l7.174-4.141-4.384-2.53-6.974 4.026a212.285 212.285 0 0 0-3.529-1.972l7.031-4.059-4.384-2.53-7.173 4.141c-.645-.351-1.575-.877-2.79-1.578l-6.005-3.5-4.669 2.695 3.16 1.824c1.442.833 1.641 1.693.598 2.58l-8.17 4.716c.19.11.332.203.427.28l-.456-.263-11.442 6.605c-1.12.471-2.154.433-3.103-.115l-3.159-1.823-6.092 2.497 5.693 3.287c.361.208.878.512 1.553.912.673.399 1.18.698 1.522.895l-7.258 4.19 4.384 2.531 7.173-4.141c.778.472 1.926 1.145 3.444 2.022l-7.144 4.124 4.383 2.531 7.258-4.191a52.753 52.753 0 0 0 4.568 2.145 31.998 31.998 0 0 0 4.441 1.429c1.546.378 3.022.589 4.426.632 1.404.045 2.86-.09 4.37-.402a19.86 19.86 0 0 0 4.483-1.521c2.885-1.379 4.488-2.798 4.811-4.255Zm-6.917-18.651c.132.077.512.29 1.138.641.627.35 1.149.641 1.566.871.418.23.944.561 1.58.994.636.433 1.143.813 1.523 1.142.38.328.745.72 1.096 1.175.351.454.54.871.569 1.248.029.378-.08.776-.328 1.192-.246.416-.683.805-1.309 1.167-.531.306-1.1.537-1.708.69a6.43 6.43 0 0 1-1.864.189 18.639 18.639 0 0 1-1.822-.164 9.92 9.92 0 0 1-1.907-.493 49.677 49.677 0 0 1-1.778-.666 18.468 18.468 0 0 1-1.723-.813c-.654-.345-1.148-.608-1.48-.789a40.377 40.377 0 0 1-1.324-.764c-.55-.329-.873-.52-.968-.575l8.739-5.045Zm-7.415 18.101a9.384 9.384 0 0 1-1.836.255 9.497 9.497 0 0 1-1.978-.157 20.438 20.438 0 0 1-1.95-.435 19.912 19.912 0 0 1-1.978-.682 34.21 34.21 0 0 1-1.866-.797 43.957 43.957 0 0 1-1.779-.896 51.777 51.777 0 0 1-1.55-.846c-.361-.208-.812-.474-1.353-.797-.541-.323-.887-.529-1.04-.616l9.622-5.555c.152.088.612.343 1.38.764.77.422 1.39.77 1.865 1.044a38.24 38.24 0 0 1 1.88 1.183c.777.515 1.394.969 1.85 1.364.455.394.9.854 1.338 1.38.436.526.692 1.008.769 1.446.075.439-.01.893-.257 1.364-.246.471-.711.904-1.394 1.299a6.416 6.416 0 0 1-1.723.682ZM3.445 142.746c3.16 7.96 5.602 11.618 12.31 15.387v10.771c-6.125-4.335-9.405-6.995-12.31-16.156v-10.002ZM20.371 161.982l4.616 2.309v10.771l-4.616-2.308v-10.772Z"/><path fill="#79EFBD" stroke="#0D0B33" stroke-width=".592" d="M98.006 161.1c-21.633 12.489-56.706 12.489-78.34 0-10.212-5.896-15.603-13.521-16.173-21.243l-.048-10.771c.146 8.072 5.553 16.119 16.222 22.278 21.633 12.489 56.706 12.489 78.34 0 10.624-6.133 16.03-14.139 16.219-22.177v-.871c.007.29.007.581 0 .871v9.735c-.188 8.039-5.595 16.044-16.22 22.178Z"/><path fill="#F7F6FF" stroke="#0D0B33" stroke-width=".592" d="M98.01 150.861c-21.634 12.489-56.707 12.489-78.34 0-21.633-12.488-21.633-32.736 0-45.225 21.633-12.489 56.706-12.489 78.34 0 21.632 12.489 21.632 32.737 0 45.225Z"/><path fill="#0D0B33" d="M69.372 137.659c.323-1.457-.36-2.98-2.05-4.568 4.27.8 7.96.104 11.074-2.087 1.138-.789 1.878-1.616 2.219-2.481.34-.866.299-1.745-.13-2.638-.425-.893-1.072-1.759-1.935-2.596-.863-.838-1.978-1.728-3.345-2.671l7.174-4.141-4.384-2.53-6.974 4.026a219.997 219.997 0 0 0-3.529-1.972l7.031-4.059-4.384-2.53-7.173 4.141c-.645-.351-1.575-.877-2.79-1.578l-6.005-3.5-4.669 2.695 3.16 1.824c1.442.833 1.641 1.693.598 2.58l-8.17 4.716c.19.11.332.203.427.28l-.456-.263-11.442 6.605c-1.12.471-2.154.433-3.103-.115l-3.159-1.823-6.092 2.497 5.693 3.287c.361.208.878.512 1.553.912.673.399 1.18.698 1.522.895l-7.258 4.19 4.384 2.532 7.173-4.141c.778.471 1.926 1.144 3.444 2.021l-7.144 4.124 4.383 2.531 7.258-4.191a52.753 52.753 0 0 0 4.568 2.145 31.998 31.998 0 0 0 4.441 1.429c1.546.378 3.022.589 4.426.632 1.404.045 2.86-.09 4.37-.402a19.86 19.86 0 0 0 4.483-1.521c2.885-1.379 4.488-2.798 4.811-4.255Zm-6.917-18.651c.132.077.512.29 1.138.641.627.35 1.149.641 1.566.871.418.23.944.561 1.58.994.636.433 1.143.813 1.523 1.142.38.328.745.72 1.096 1.175.351.455.54.871.569 1.248.029.378-.08.776-.328 1.192-.246.416-.683.805-1.309 1.167-.531.306-1.1.537-1.708.69a6.43 6.43 0 0 1-1.864.189 18.639 18.639 0 0 1-1.822-.164 9.92 9.92 0 0 1-1.907-.493 51.896 51.896 0 0 1-1.778-.665 18.766 18.766 0 0 1-1.723-.814c-.654-.345-1.148-.608-1.48-.789a40.377 40.377 0 0 1-1.324-.764c-.55-.329-.873-.52-.968-.575l8.739-5.045Zm-7.415 18.101a9.384 9.384 0 0 1-1.836.255 9.497 9.497 0 0 1-1.978-.157 20.438 20.438 0 0 1-1.95-.435 19.912 19.912 0 0 1-1.978-.682 34.21 34.21 0 0 1-1.866-.797 43.957 43.957 0 0 1-1.779-.896 51.777 51.777 0 0 1-1.55-.846c-.361-.208-.812-.474-1.353-.797-.541-.323-.887-.529-1.04-.616l9.622-5.555c.152.088.612.343 1.38.764.77.422 1.39.77 1.865 1.044a38.24 38.24 0 0 1 1.88 1.183c.777.515 1.394.969 1.85 1.364.455.394.9.854 1.338 1.38.436.526.692 1.008.769 1.446.075.439-.01.893-.257 1.364-.246.471-.711.904-1.394 1.299a6.416 6.416 0 0 1-1.723.682ZM3.445 132.162c3.16 7.96 5.602 11.618 12.31 15.387v10.772c-6.125-4.336-9.405-6.996-12.31-16.157v-10.002ZM20.371 151.398l4.616 2.309v10.771l-4.616-2.308v-10.772Z"/><path fill="#79EFBD" stroke="#0D0B33" stroke-width=".592" d="M98.006 150.512c-21.633 12.489-56.706 12.489-78.34 0-10.212-5.896-15.603-13.521-16.173-21.243l-.048-10.771c.146 8.072 5.553 16.119 16.222 22.278 21.633 12.489 56.706 12.489 78.34 0 10.624-6.133 16.03-14.139 16.219-22.177v-.87c.007.29.007.58 0 .87v9.735c-.188 8.039-5.595 16.044-16.22 22.178Z"/><path fill="#F7F6FF" stroke="#0D0B33" stroke-width=".592" d="M98.01 140.273c-21.634 12.489-56.707 12.489-78.34 0-21.633-12.488-21.633-32.736 0-45.225 21.633-12.489 56.706-12.489 78.34 0 21.632 12.489 21.632 32.737 0 45.225Z"/><path fill="#0D0B33" d="M69.372 127.071c.323-1.457-.36-2.979-2.05-4.568 4.27.8 7.96.104 11.074-2.087 1.138-.789 1.878-1.616 2.219-2.481.34-.866.299-1.744-.13-2.638-.425-.893-1.072-1.758-1.935-2.596-.863-.838-1.978-1.728-3.345-2.67l7.174-4.142-4.384-2.53-6.974 4.026a219.997 219.997 0 0 0-3.529-1.972l7.031-4.059-4.384-2.53-7.173 4.141c-.645-.351-1.575-.877-2.79-1.578l-6.005-3.5-4.669 2.695 3.16 1.824c1.442.833 1.641 1.693.598 2.58l-8.17 4.716c.19.11.332.203.427.28l-.456-.263-11.442 6.605c-1.12.472-2.154.433-3.103-.114l-3.159-1.824-6.092 2.498 5.693 3.286c.361.208.878.512 1.553.912.673.4 1.18.698 1.522.895l-7.258 4.19 4.384 2.532 7.173-4.141c.778.471 1.926 1.144 3.444 2.021l-7.144 4.124 4.383 2.531 7.258-4.191a52.753 52.753 0 0 0 4.568 2.145 31.733 31.733 0 0 0 4.441 1.429c1.546.378 3.022.589 4.426.632 1.404.045 2.86-.09 4.37-.402a19.86 19.86 0 0 0 4.483-1.521c2.885-1.379 4.488-2.798 4.811-4.255Zm-6.917-18.651c.132.077.512.29 1.138.641.627.35 1.149.641 1.566.871.418.23.944.561 1.58.994.636.433 1.143.814 1.523 1.142.38.329.745.72 1.096 1.175.351.455.54.871.569 1.248.029.379-.08.776-.328 1.192-.246.416-.683.805-1.309 1.167-.531.306-1.1.537-1.708.69a6.396 6.396 0 0 1-1.864.189 18.639 18.639 0 0 1-1.822-.164 9.92 9.92 0 0 1-1.907-.493 49.867 49.867 0 0 1-1.778-.665 18.766 18.766 0 0 1-1.723-.814c-.654-.345-1.148-.608-1.48-.789-.332-.18-.773-.435-1.324-.764-.55-.329-.873-.52-.968-.575l8.739-5.045Zm-7.415 18.101a9.384 9.384 0 0 1-1.836.255 9.497 9.497 0 0 1-1.978-.157 20.438 20.438 0 0 1-1.95-.435 19.912 19.912 0 0 1-1.978-.682 33.44 33.44 0 0 1-1.866-.797 43.957 43.957 0 0 1-1.779-.896 51.777 51.777 0 0 1-1.55-.846c-.361-.208-.812-.474-1.353-.797-.541-.323-.887-.529-1.04-.616l9.622-5.555c.152.088.612.343 1.38.764.77.422 1.39.77 1.865 1.044a38.24 38.24 0 0 1 1.88 1.183c.777.515 1.394.969 1.85 1.364.455.394.9.854 1.338 1.38.436.526.692 1.008.769 1.446.075.439-.01.893-.257 1.364-.246.472-.711.904-1.394 1.299a6.416 6.416 0 0 1-1.723.682ZM3.445 121.574c3.16 7.96 5.602 11.618 12.31 15.388v10.771c-6.125-4.336-9.405-6.996-12.31-16.157v-10.002ZM20.371 140.811l4.616 2.308v10.771l-4.616-2.308v-10.771Z"/><path fill="#79EFBD" stroke="#0D0B33" stroke-width=".592" d="M98.006 139.93c-21.633 12.489-56.706 12.489-78.34 0-10.212-5.896-15.603-13.521-16.173-21.243l-.048-10.771c.146 8.072 5.553 16.119 16.222 22.278 21.633 12.489 56.706 12.489 78.34 0 10.624-6.133 16.03-14.139 16.219-22.177v-.871c.007.291.007.581 0 .871v9.735c-.188 8.039-5.595 16.044-16.22 22.178Z"/><path fill="#F7F6FF" stroke="#0D0B33" stroke-width=".592" d="M98.01 129.691c-21.634 12.489-56.707 12.489-78.34 0-21.633-12.488-21.633-32.736 0-45.225 21.633-12.488 56.706-12.488 78.34 0 21.632 12.489 21.632 32.737 0 45.225Z"/><path fill="#0D0B33" d="M69.372 116.491c.323-1.457-.36-2.98-2.05-4.568 4.27.8 7.96.104 11.074-2.087 1.138-.789 1.878-1.616 2.219-2.481.34-.866.299-1.744-.13-2.638-.425-.893-1.072-1.758-1.935-2.596-.863-.838-1.978-1.728-3.345-2.67l7.174-4.142-4.384-2.53-6.974 4.026a213.372 213.372 0 0 0-3.529-1.972l7.031-4.059-4.384-2.53-7.173 4.14c-.645-.35-1.575-.876-2.79-1.577l-6.005-3.5-4.669 2.695 3.16 1.824c1.442.833 1.641 1.693.598 2.58l-8.17 4.716c.19.11.332.203.427.28l-.456-.263-11.442 6.605c-1.12.471-2.154.433-3.103-.114l-3.159-1.824-6.092 2.498 5.693 3.286c.361.208.878.512 1.553.912.673.399 1.18.698 1.522.895l-7.258 4.19 4.384 2.532 7.173-4.141c.778.471 1.926 1.144 3.444 2.021l-7.144 4.124 4.383 2.531 7.258-4.191a52.753 52.753 0 0 0 4.568 2.145 31.865 31.865 0 0 0 4.441 1.429c1.546.378 3.022.589 4.426.632 1.404.045 2.86-.09 4.37-.402a19.86 19.86 0 0 0 4.483-1.521c2.885-1.379 4.488-2.798 4.811-4.255ZM62.455 97.84a295.54 295.54 0 0 0 2.705 1.512c.417.23.943.561 1.58.994.635.433 1.142.813 1.522 1.142.38.328.745.72 1.096 1.175.351.455.54.871.569 1.248.029.378-.08.776-.328 1.192-.246.416-.683.805-1.309 1.167-.531.306-1.1.537-1.708.69a6.43 6.43 0 0 1-1.864.189 18.639 18.639 0 0 1-1.822-.164 9.92 9.92 0 0 1-1.907-.493 51.896 51.896 0 0 1-1.778-.665 18.766 18.766 0 0 1-1.723-.814c-.654-.345-1.148-.608-1.48-.789a40.377 40.377 0 0 1-1.324-.764c-.55-.329-.873-.52-.968-.575l8.739-5.045ZM55.04 115.94a9.384 9.384 0 0 1-1.836.255 9.497 9.497 0 0 1-1.978-.157 20.438 20.438 0 0 1-1.95-.435 19.912 19.912 0 0 1-1.978-.682 34.21 34.21 0 0 1-1.866-.797 43.957 43.957 0 0 1-1.779-.896 51.777 51.777 0 0 1-1.55-.846c-.361-.208-.812-.474-1.353-.797-.541-.323-.887-.529-1.04-.616l9.622-5.555c.152.088.612.343 1.38.764.77.422 1.39.77 1.865 1.044a38.24 38.24 0 0 1 1.88 1.183c.777.515 1.394.969 1.85 1.364.455.394.9.854 1.338 1.38.436.526.692 1.008.769 1.446.075.439-.01.893-.257 1.364-.246.471-.711.904-1.394 1.299a6.416 6.416 0 0 1-1.723.682ZM3.445 110.992c3.16 7.96 5.602 11.618 12.31 15.387v10.772c-6.125-4.336-9.405-6.996-12.31-16.157v-10.002ZM20.371 130.229l4.616 2.308v10.771L20.371 141v-10.771Z"/><path fill="#79EFBD" stroke="#0D0B33" stroke-width=".592" d="M98.006 129.344c-21.633 12.489-56.706 12.489-78.34 0-10.212-5.896-15.603-13.521-16.173-21.243L3.445 97.33c.146 8.072 5.553 16.119 16.222 22.278 21.633 12.489 56.706 12.489 78.34 0 10.624-6.133 16.03-14.139 16.219-22.177v-.87c.007.29.007.58 0 .87v9.735c-.188 8.039-5.595 16.044-16.22 22.178Z"/><path fill="#F7F6FF" stroke="#0D0B33" stroke-width=".592" d="M98.01 119.105c-21.634 12.489-56.707 12.489-78.34 0-21.633-12.488-21.633-32.736 0-45.225 21.633-12.488 56.706-12.488 78.34 0 21.632 12.489 21.632 32.737 0 45.225Z"/><path fill="#0D0B33" d="M69.372 105.903c.323-1.457-.36-2.979-2.05-4.568 4.27.8 7.96.104 11.074-2.087 1.138-.789 1.878-1.616 2.219-2.481.34-.866.299-1.744-.13-2.638-.425-.893-1.072-1.758-1.935-2.596-.863-.838-1.978-1.728-3.345-2.67l7.174-4.141-4.384-2.53-6.974 4.025a213.372 213.372 0 0 0-3.529-1.972l7.031-4.059-4.384-2.53-7.173 4.14c-.645-.35-1.575-.876-2.79-1.577l-6.005-3.5-4.669 2.695 3.16 1.824c1.442.833 1.641 1.693.598 2.58l-8.17 4.716c.19.11.332.203.427.28l-.456-.263-11.442 6.605c-1.12.472-2.154.433-3.103-.114l-3.159-1.824-6.092 2.498 5.693 3.286c.361.208.878.512 1.553.912.673.4 1.18.698 1.522.895l-7.258 4.19 4.384 2.532 7.173-4.141c.778.471 1.926 1.144 3.444 2.021l-7.144 4.124 4.383 2.531 7.258-4.191a52.753 52.753 0 0 0 4.568 2.145 31.733 31.733 0 0 0 4.441 1.429c1.546.378 3.022.589 4.426.633 1.404.044 2.86-.091 4.37-.403a19.86 19.86 0 0 0 4.483-1.521c2.885-1.379 4.488-2.798 4.811-4.255Zm-6.917-18.651a295.54 295.54 0 0 0 2.705 1.512c.417.23.943.561 1.58.994.635.433 1.142.814 1.522 1.142.38.328.745.72 1.096 1.175.351.455.54.87.569 1.248.029.379-.08.776-.328 1.192-.246.416-.683.805-1.309 1.167-.531.306-1.1.537-1.708.69a6.437 6.437 0 0 1-1.864.19 18.604 18.604 0 0 1-1.822-.165 9.898 9.898 0 0 1-1.907-.493 50.005 50.005 0 0 1-1.778-.665 18.453 18.453 0 0 1-1.723-.814 138.9 138.9 0 0 1-1.48-.788c-.332-.181-.773-.436-1.324-.765-.55-.329-.873-.52-.968-.575l8.739-5.045Zm-7.415 18.101a9.384 9.384 0 0 1-1.836.255 9.497 9.497 0 0 1-1.978-.157 20.438 20.438 0 0 1-1.95-.435 19.912 19.912 0 0 1-1.978-.682 33.44 33.44 0 0 1-1.866-.797 43.957 43.957 0 0 1-1.779-.896 51.777 51.777 0 0 1-1.55-.846c-.361-.208-.812-.474-1.353-.797-.541-.323-.887-.529-1.04-.616l9.622-5.555c.152.088.612.343 1.38.764.77.422 1.39.77 1.865 1.044a37.92 37.92 0 0 1 1.88 1.183c.777.515 1.394.97 1.85 1.364.455.394.9.854 1.338 1.38.436.526.692 1.008.769 1.446.075.439-.01.893-.257 1.364-.246.472-.711.904-1.394 1.299a6.416 6.416 0 0 1-1.723.682ZM3.445 100.406c3.16 7.96 5.602 11.618 12.31 15.388v10.771c-6.125-4.336-9.405-6.996-12.31-16.157v-10.002ZM20.371 119.643l4.616 2.308v10.771l-4.616-2.308v-10.771Z"/><path fill="#79EFBD" stroke="#0D0B33" stroke-width=".592" d="M98.006 118.758c-21.633 12.489-56.706 12.489-78.34 0-10.212-5.896-15.603-13.521-16.173-21.243l-.048-10.771c.146 8.072 5.553 16.119 16.222 22.278 21.633 12.489 56.706 12.489 78.34 0 10.624-6.133 16.03-14.139 16.219-22.177v-.87c.007.29.007.58 0 .87v9.735c-.188 8.039-5.595 16.044-16.22 22.178Z"/><path fill="#F7F6FF" stroke="#0D0B33" stroke-width=".592" d="M98.01 108.519c-21.634 12.489-56.707 12.489-78.34 0-21.633-12.488-21.633-32.736 0-45.225 21.633-12.488 56.706-12.488 78.34 0 21.632 12.489 21.632 32.737 0 45.225Z"/><path fill="#0D0B33" d="M69.372 95.317c.323-1.457-.36-2.98-2.05-4.568 4.27.8 7.96.104 11.074-2.087 1.138-.789 1.878-1.616 2.219-2.48.34-.867.299-1.745-.13-2.639-.425-.893-1.072-1.758-1.935-2.596-.863-.838-1.978-1.728-3.345-2.67l7.174-4.141-4.384-2.53-6.974 4.025a213.372 213.372 0 0 0-3.529-1.972l7.031-4.059-4.384-2.53-7.173 4.14c-.645-.35-1.575-.875-2.79-1.576l-6.005-3.5-4.669 2.694 3.16 1.824c1.442.833 1.641 1.693.598 2.58l-8.17 4.716c.19.11.332.203.427.28l-.456-.263L33.62 84.57c-1.12.47-2.154.433-3.103-.115l-3.159-1.824-6.092 2.498 5.693 3.286c.361.208.878.512 1.553.912.673.4 1.18.698 1.522.895l-7.258 4.19 4.384 2.532 7.173-4.141c.778.47 1.926 1.144 3.444 2.02l-7.144 4.125 4.383 2.531 7.258-4.19a52.618 52.618 0 0 0 4.568 2.144 31.72 31.72 0 0 0 4.441 1.429c1.546.378 3.022.589 4.426.633 1.404.044 2.86-.091 4.37-.403a19.838 19.838 0 0 0 4.483-1.52c2.885-1.38 4.488-2.799 4.811-4.256Zm-6.917-18.65a281.792 281.792 0 0 0 2.705 1.512c.417.229.943.56 1.58.993.635.433 1.142.814 1.522 1.142.38.329.745.72 1.096 1.175.351.455.54.87.569 1.249.029.378-.08.775-.328 1.19-.246.417-.683.806-1.309 1.168-.531.306-1.1.537-1.708.69a6.437 6.437 0 0 1-1.864.19 18.604 18.604 0 0 1-1.822-.165 9.891 9.891 0 0 1-1.907-.493 50.024 50.024 0 0 1-1.778-.665 18.483 18.483 0 0 1-1.723-.814 138.9 138.9 0 0 1-1.48-.788 40.82 40.82 0 0 1-1.324-.765c-.55-.329-.873-.52-.968-.575l8.739-5.045Zm-7.415 18.1a9.34 9.34 0 0 1-1.836.255 9.461 9.461 0 0 1-1.978-.157 20.588 20.588 0 0 1-1.95-.435 19.982 19.982 0 0 1-1.978-.682 33.862 33.862 0 0 1-1.866-.797c-.512-.241-1.105-.54-1.779-.896a51.838 51.838 0 0 1-1.55-.846c-.361-.208-.812-.474-1.353-.797a120.24 120.24 0 0 0-1.04-.616l9.622-5.555c.152.088.612.343 1.38.764.77.422 1.39.77 1.865 1.044a38.01 38.01 0 0 1 1.88 1.184c.777.514 1.394.968 1.85 1.363.455.394.9.854 1.338 1.38.436.526.692 1.008.769 1.447.075.438-.01.892-.257 1.363-.246.472-.711.904-1.394 1.299a6.413 6.413 0 0 1-1.723.682ZM3.445 89.82c3.16 7.96 5.602 11.618 12.31 15.388v10.771c-6.125-4.336-9.405-6.996-12.31-16.157V89.82ZM20.371 109.057l4.616 2.308v10.771l-4.616-2.308v-10.771Z"/><path fill="#79EFBD" stroke="#0D0B33" stroke-width=".592" d="M98.006 108.172c-21.633 12.489-56.706 12.489-78.34 0C9.455 102.276 4.064 94.651 3.494 86.929l-.048-10.771c.146 8.072 5.553 16.12 16.222 22.278 21.633 12.489 56.706 12.489 78.34 0 10.624-6.133 16.03-14.139 16.219-22.177v-.87c.007.29.007.58 0 .87v9.736c-.188 8.038-5.595 16.044-16.22 22.177Z"/><path fill="#F7F6FF" stroke="#0D0B33" stroke-width=".592" d="M98.01 97.933c-21.634 12.489-56.707 12.489-78.34 0-21.633-12.488-21.633-32.736 0-45.225 21.633-12.488 56.706-12.488 78.34 0 21.632 12.489 21.632 32.737 0 45.225Z"/><path fill="#0D0B33" d="M69.372 84.731c.323-1.456-.36-2.98-2.05-4.568 4.27.8 7.96.104 11.074-2.087 1.138-.789 1.878-1.615 2.219-2.48.34-.867.299-1.745-.13-2.638-.425-.894-1.072-1.76-1.935-2.597-.863-.838-1.978-1.728-3.345-2.67l7.174-4.141-4.384-2.53-6.974 4.025a214.298 214.298 0 0 0-3.529-1.971l7.031-4.06-4.384-2.53-7.173 4.14c-.645-.35-1.575-.875-2.79-1.577l-6.005-3.5-4.669 2.695 3.16 1.824c1.442.833 1.641 1.693.598 2.58l-8.17 4.716c.19.11.332.203.427.28l-.456-.263-11.442 6.606c-1.12.47-2.154.433-3.103-.115l-3.159-1.824-6.092 2.498 5.693 3.286c.361.209.878.512 1.553.912.673.4 1.18.698 1.522.895l-7.258 4.19 4.384 2.532 7.173-4.141c.778.471 1.926 1.145 3.444 2.021l-7.144 4.124 4.383 2.53 7.258-4.19a52.618 52.618 0 0 0 4.568 2.145 31.866 31.866 0 0 0 4.441 1.43c1.546.377 3.022.588 4.426.632 1.404.044 2.86-.09 4.37-.403a19.87 19.87 0 0 0 4.483-1.52c2.885-1.38 4.488-2.799 4.811-4.256Zm-6.917-18.65a288.502 288.502 0 0 0 2.705 1.512c.417.229.943.56 1.58.993.635.433 1.142.814 1.522 1.142.38.329.745.72 1.096 1.175.351.455.54.871.569 1.249.029.378-.08.775-.328 1.191-.246.416-.683.805-1.309 1.167-.531.307-1.1.537-1.708.69a6.437 6.437 0 0 1-1.864.19 18.574 18.574 0 0 1-1.822-.165 9.883 9.883 0 0 1-1.907-.493 50.221 50.221 0 0 1-1.778-.665 18.483 18.483 0 0 1-1.723-.814 138.9 138.9 0 0 1-1.48-.788c-.332-.181-.773-.436-1.324-.765-.55-.328-.873-.52-.968-.575l8.739-5.045Zm-7.415 18.1a9.34 9.34 0 0 1-1.836.255 9.468 9.468 0 0 1-1.978-.157 20.588 20.588 0 0 1-1.95-.435 20.008 20.008 0 0 1-1.978-.682 33.855 33.855 0 0 1-1.866-.797c-.512-.241-1.105-.54-1.779-.895a52.07 52.07 0 0 1-1.55-.847c-.361-.208-.812-.474-1.353-.797-.541-.323-.887-.528-1.04-.616l9.622-5.555c.152.088.612.343 1.38.764.77.422 1.39.77 1.865 1.044.474.274 1.101.668 1.88 1.184.777.514 1.394.968 1.85 1.363.455.394.9.854 1.338 1.38.436.526.692 1.008.769 1.447.075.438-.01.892-.257 1.363-.246.472-.711.904-1.394 1.299a6.412 6.412 0 0 1-1.723.682ZM3.445 79.234c3.16 7.96 5.602 11.618 12.31 15.388v10.771c-6.125-4.336-9.405-6.996-12.31-16.157V79.234ZM20.371 98.47l4.616 2.309v10.771l-4.616-2.308V98.471Z"/><path fill="#79EFBD" stroke="#0D0B33" stroke-width=".592" d="M98.006 97.588c-21.633 12.489-56.706 12.489-78.34 0C9.455 91.692 4.064 84.067 3.494 76.345l-.048-10.77c.146 8.072 5.553 16.118 16.222 22.278 21.633 12.488 56.706 12.488 78.34 0 10.624-6.134 16.03-14.14 16.219-22.178v-.87c.007.29.007.58 0 .87v9.736c-.188 8.038-5.595 16.044-16.22 22.177Z"/><path fill="#F7F6FF" stroke="#0D0B33" stroke-width=".592" d="M98.01 87.35c-21.634 12.488-56.707 12.488-78.34 0-21.633-12.49-21.633-32.737 0-45.226 21.633-12.488 56.706-12.488 78.34 0 21.632 12.489 21.632 32.737 0 45.226Z"/><path fill="#0D0B33" d="M69.372 74.15c.323-1.458-.36-2.98-2.05-4.569 4.27.8 7.96.104 11.074-2.087 1.138-.789 1.878-1.615 2.219-2.48.34-.867.299-1.745-.13-2.638-.425-.893-1.072-1.76-1.935-2.597-.863-.838-1.978-1.728-3.345-2.67l7.174-4.141-4.384-2.53-6.974 4.025a213.372 213.372 0 0 0-3.529-1.972l7.031-4.058-4.384-2.531-7.173 4.14c-.645-.35-1.575-.875-2.79-1.577l-6.005-3.5-4.669 2.695 3.16 1.824c1.442.833 1.641 1.693.598 2.58l-8.17 4.716c.19.11.332.203.427.28l-.456-.263-11.442 6.606c-1.12.47-2.154.433-3.103-.115l-3.159-1.824-6.092 2.498 5.693 3.286c.361.209.878.512 1.553.912.673.4 1.18.698 1.522.895l-7.258 4.19 4.384 2.532 7.173-4.141c.778.471 1.926 1.145 3.444 2.02l-7.144 4.125 4.383 2.53 7.258-4.19a52.645 52.645 0 0 0 4.568 2.145 31.84 31.84 0 0 0 4.441 1.43c1.546.377 3.022.588 4.426.632 1.404.044 2.86-.09 4.37-.403a19.869 19.869 0 0 0 4.483-1.52c2.885-1.38 4.488-2.799 4.811-4.256Zm-6.917-18.652c.132.077.512.29 1.138.641.627.35 1.149.64 1.566.87.418.23.944.562 1.58.995.636.433 1.143.814 1.523 1.142.38.329.745.72 1.096 1.175.351.455.54.87.569 1.249.029.378-.08.775-.328 1.191-.246.416-.683.805-1.309 1.167-.531.306-1.1.537-1.708.69a6.437 6.437 0 0 1-1.864.19 18.604 18.604 0 0 1-1.822-.165 9.898 9.898 0 0 1-1.907-.493 50.005 50.005 0 0 1-1.778-.665 18.453 18.453 0 0 1-1.723-.814c-.654-.345-1.148-.608-1.48-.788a40.82 40.82 0 0 1-1.324-.765c-.55-.328-.873-.52-.968-.575l8.739-5.045Zm-7.415 18.1a9.34 9.34 0 0 1-1.836.256 9.461 9.461 0 0 1-1.978-.157 20.557 20.557 0 0 1-1.95-.435 19.979 19.979 0 0 1-1.978-.682 33.932 33.932 0 0 1-1.866-.797c-.512-.241-1.105-.54-1.779-.895a52.028 52.028 0 0 1-1.55-.847c-.361-.208-.812-.474-1.353-.797-.541-.323-.887-.528-1.04-.616l9.622-5.555c.152.088.612.343 1.38.764.77.422 1.39.77 1.865 1.044a37.92 37.92 0 0 1 1.88 1.184c.777.514 1.394.968 1.85 1.363.455.395.9.854 1.338 1.38.436.526.692 1.008.769 1.447.075.438-.01.892-.257 1.363-.246.472-.711.904-1.394 1.299a6.413 6.413 0 0 1-1.723.682ZM3.445 68.65c3.16 7.96 5.602 11.618 12.31 15.388v10.77C9.63 90.474 6.35 87.814 3.445 78.653V68.65ZM20.371 87.887l4.616 2.308v10.771l-4.616-2.308V87.887Z"/><path fill="#79EFBD" stroke="#0D0B33" stroke-width=".592" d="M98.006 87.002c-21.633 12.489-56.706 12.489-78.34 0C9.455 81.106 4.064 73.482 3.494 65.76l-.048-10.77c.146 8.072 5.553 16.118 16.222 22.277 21.633 12.49 56.706 12.49 78.34 0 10.624-6.133 16.03-14.138 16.219-22.177v-.87c.007.29.007.58 0 .87v9.736c-.188 8.038-5.595 16.044-16.22 22.177Z"/><path fill="#F7F6FF" stroke="#0D0B33" stroke-width=".592" d="M98.01 76.764c-21.634 12.488-56.707 12.488-78.34 0-21.633-12.489-21.633-32.737 0-45.226 21.633-12.488 56.706-12.488 78.34 0 21.632 12.489 21.632 32.737 0 45.226Z"/><path fill="#0D0B33" d="M69.372 63.561c.323-1.456-.36-2.98-2.05-4.568 4.27.8 7.96.104 11.074-2.087 1.138-.789 1.878-1.615 2.219-2.48.34-.867.299-1.745-.13-2.638-.425-.893-1.072-1.76-1.935-2.597-.863-.838-1.978-1.728-3.345-2.67l7.174-4.141-4.384-2.53-6.974 4.025a212.792 212.792 0 0 0-3.529-1.971l7.031-4.06-4.384-2.53-7.173 4.141c-.645-.35-1.575-.876-2.79-1.577l-6.005-3.5-4.669 2.694 3.16 1.824c1.442.833 1.641 1.693.598 2.58l-8.17 4.717c.19.11.332.202.427.28l-.456-.264-11.442 6.606c-1.12.47-2.154.433-3.103-.115l-3.159-1.824-6.092 2.498 5.693 3.286c.361.209.878.512 1.553.912.673.4 1.18.698 1.522.895l-7.258 4.19 4.384 2.532 7.173-4.141c.778.471 1.926 1.145 3.444 2.021l-7.144 4.124 4.383 2.53 7.258-4.19a52.645 52.645 0 0 0 4.568 2.145 31.84 31.84 0 0 0 4.441 1.43c1.546.377 3.022.588 4.426.632 1.404.044 2.86-.09 4.37-.403a19.869 19.869 0 0 0 4.483-1.52c2.885-1.38 4.488-2.799 4.811-4.256Zm-6.917-18.65a295.54 295.54 0 0 0 2.705 1.512c.417.23.943.56 1.58.993.635.433 1.142.814 1.522 1.142.38.329.745.72 1.096 1.175.351.455.54.871.569 1.249.029.378-.08.775-.328 1.191-.246.416-.683.805-1.309 1.167-.531.307-1.1.537-1.708.69a6.437 6.437 0 0 1-1.864.19 18.604 18.604 0 0 1-1.822-.165 9.898 9.898 0 0 1-1.907-.493 50.221 50.221 0 0 1-1.778-.665 18.483 18.483 0 0 1-1.723-.813 138.9 138.9 0 0 1-1.48-.79c-.332-.18-.773-.435-1.324-.764-.55-.328-.873-.52-.968-.575l8.739-5.045Zm-7.415 18.1a9.34 9.34 0 0 1-1.836.255 9.468 9.468 0 0 1-1.978-.157 20.62 20.62 0 0 1-1.95-.435 20.008 20.008 0 0 1-1.978-.681 33.932 33.932 0 0 1-1.866-.798c-.512-.24-1.105-.54-1.779-.895a52.028 52.028 0 0 1-1.55-.847c-.361-.208-.812-.474-1.353-.797-.541-.323-.887-.528-1.04-.616l9.622-5.554c.152.087.612.342 1.38.764.77.421 1.39.77 1.865 1.043a37.92 37.92 0 0 1 1.88 1.184c.777.514 1.394.969 1.85 1.363.455.395.9.854 1.338 1.38.436.526.692 1.008.769 1.447.075.438-.01.892-.257 1.364-.246.47-.711.904-1.394 1.298a6.412 6.412 0 0 1-1.723.682ZM3.445 58.065c3.16 7.96 5.602 11.617 12.31 15.387v10.77C9.63 79.889 6.35 77.228 3.445 68.067V58.064ZM20.371 77.3l4.616 2.309V90.38l-4.616-2.308V77.3Z"/><path fill="#79EFBD" stroke="#0D0B33" stroke-width=".592" d="M98.006 76.416c-21.633 12.489-56.706 12.489-78.34 0C9.455 70.521 4.064 62.896 3.494 55.173l-.048-10.77c.146 8.072 5.553 16.118 16.222 22.278 21.633 12.488 56.706 12.488 78.34 0 10.624-6.134 16.03-14.14 16.219-22.178v-.87c.007.29.007.58 0 .87v9.736c-.188 8.038-5.595 16.044-16.22 22.177Z"/><path fill="#F7F6FF" stroke="#0D0B33" stroke-width=".592" d="M98.01 66.178c-21.634 12.488-56.707 12.488-78.34 0-21.633-12.489-21.633-32.737 0-45.226 21.633-12.488 56.706-12.488 78.34 0 21.632 12.489 21.632 32.737 0 45.226Z"/><path fill="#0D0B33" d="M69.372 52.977c.323-1.456-.36-2.98-2.05-4.568 4.27.8 7.96.104 11.074-2.087 1.138-.789 1.878-1.615 2.219-2.48.34-.867.299-1.745-.13-2.638-.425-.893-1.072-1.76-1.935-2.597-.863-.838-1.978-1.728-3.345-2.67l7.174-4.141-4.384-2.53-6.974 4.025a214.298 214.298 0 0 0-3.529-1.971l7.031-4.06-4.384-2.53-7.173 4.141c-.645-.35-1.575-.876-2.79-1.577l-6.005-3.5-4.669 2.694 3.16 1.824c1.442.833 1.641 1.693.598 2.58l-8.17 4.716c.19.11.332.203.427.28l-.456-.263-11.442 6.606c-1.12.47-2.154.433-3.103-.115l-3.159-1.824-6.092 2.498 5.693 3.286c.361.209.878.512 1.553.912.673.4 1.18.698 1.522.895l-7.258 4.19 4.384 2.532 7.173-4.141c.778.471 1.926 1.145 3.444 2.021l-7.144 4.124 4.383 2.53 7.258-4.19a52.678 52.678 0 0 0 4.568 2.145 31.866 31.866 0 0 0 4.441 1.43c1.546.377 3.022.588 4.426.632 1.404.044 2.86-.09 4.37-.402a19.87 19.87 0 0 0 4.483-1.521c2.885-1.38 4.488-2.799 4.811-4.256Zm-6.917-18.65a288.502 288.502 0 0 0 2.705 1.512c.417.23.943.56 1.58.993.635.433 1.142.814 1.522 1.142.38.329.745.72 1.096 1.175.351.455.54.871.569 1.249.029.378-.08.775-.328 1.191-.246.416-.683.805-1.309 1.167-.531.307-1.1.537-1.708.69a6.437 6.437 0 0 1-1.864.19 18.574 18.574 0 0 1-1.822-.165 9.883 9.883 0 0 1-1.907-.493 50.221 50.221 0 0 1-1.778-.665 18.483 18.483 0 0 1-1.723-.814 138.9 138.9 0 0 1-1.48-.788c-.332-.181-.773-.436-1.324-.765-.55-.328-.873-.52-.968-.575l8.739-5.045Zm-7.415 18.1a9.34 9.34 0 0 1-1.836.255 9.468 9.468 0 0 1-1.978-.157 20.588 20.588 0 0 1-1.95-.435 20.008 20.008 0 0 1-1.978-.682 33.855 33.855 0 0 1-1.866-.797c-.512-.24-1.105-.54-1.779-.895a52.07 52.07 0 0 1-1.55-.847c-.361-.208-.812-.474-1.353-.797-.541-.323-.887-.528-1.04-.616l9.622-5.555c.152.088.612.343 1.38.765.77.421 1.39.77 1.865 1.043a37.92 37.92 0 0 1 1.88 1.184c.777.514 1.394.969 1.85 1.363.455.395.9.854 1.338 1.38.436.526.692 1.008.769 1.447.075.438-.01.892-.257 1.364-.246.47-.711.904-1.394 1.298a6.412 6.412 0 0 1-1.723.682ZM3.445 47.478c3.16 7.96 5.602 11.618 12.31 15.388v10.77C9.63 69.303 6.35 66.642 3.445 57.48V47.478ZM20.371 66.715l4.616 2.308v10.771l-4.616-2.308V66.715Z"/><path fill="#79EFBD" stroke="#0D0B33" stroke-width=".592" d="M98.006 65.83c-21.633 12.49-56.706 12.49-78.34 0C9.455 59.935 4.064 52.31 3.494 44.587l-.048-10.77c.146 8.072 5.553 16.118 16.222 22.278 21.633 12.488 56.706 12.488 78.34 0 10.624-6.134 16.03-14.14 16.219-22.178v-.87c.007.29.007.58 0 .87v9.736c-.188 8.038-5.595 16.044-16.22 22.177Z"/><path fill="#F7F6FF" stroke="#0D0B33" stroke-width=".592" d="M98.01 55.592c-21.634 12.488-56.707 12.488-78.34 0-21.633-12.489-21.633-32.737 0-45.225 21.633-12.49 56.706-12.49 78.34 0 21.632 12.488 21.632 32.736 0 45.225Z"/><path fill="#0D0B33" d="M3.445 36.893c3.16 7.96 5.602 11.617 12.31 15.387V63.05C9.63 58.716 6.35 56.055 3.445 46.894V36.893ZM20.371 56.129l4.616 2.308v10.771L20.371 66.9V56.129Z"/><path fill="#000" d="M79.373 21.755c-2.76-.203-5.647.226-8.658 1.285 1.516-2.677.197-4.99-3.956-6.942a15.496 15.496 0 0 0-4.702-1.39 17.416 17.416 0 0 0-5 .08 29.49 29.49 0 0 0-4.92 1.213c-1.589.541-3.276 1.24-5.062 2.097l-7.849-4.496-4.796 2.747 7.63 4.372c-.83.476-2.076 1.213-3.736 2.212l-7.693-4.407-4.797 2.748 7.849 4.496c-.665.405-1.661.988-2.99 1.75l-6.634 3.764 5.108 2.926 3.457-1.98c1.578-.904 3.208-1.03 4.89-.375l8.939 5.121c.208-.119.384-.208.53-.267l-.499.285 12.52 7.173c.893.701.821 1.35-.217 1.945l-3.457 1.98 4.734 3.819 6.23-3.57c.394-.225.97-.549 1.727-.972.758-.422 1.324-.74 1.698-.955l7.942 4.55 4.797-2.748-7.849-4.496c.894-.488 2.17-1.207 3.831-2.16l7.818 4.48 4.796-2.748-7.942-4.55c1.62-1.023 2.976-1.977 4.064-2.864 1.09-.886 1.994-1.814 2.71-2.784.716-.969 1.115-1.894 1.198-2.774.084-.88-.172-1.793-.763-2.74-.592-.945-1.552-1.882-2.882-2.81-2.614-1.808-5.304-2.813-8.066-3.015Zm-35.35 4.336a295.608 295.608 0 0 0 2.865-1.695 25.733 25.733 0 0 1 1.884-.99c.82-.4 1.542-.717 2.165-.955a20.566 20.566 0 0 1 2.227-.687c.861-.22 1.65-.34 2.366-.357.717-.018 1.47.05 2.258.206.79.154 1.527.427 2.212.82.581.333 1.018.69 1.309 1.07.291.38.41.77.358 1.17-.051.398-.156.779-.312 1.141-.155.363-.467.762-.934 1.196-.467.434-.887.805-1.26 1.114-.375.31-.888.67-1.543 1.08-.654.41-1.152.72-1.495.928-.342.208-.825.485-1.448.83s-.986.547-1.09.607l-9.563-5.478Zm34.307 4.648c.28.387.442.77.484 1.151.04.38-.058.794-.297 1.24a7.002 7.002 0 0 1-.825 1.222c-.311.37-.743.782-1.292 1.24-.551.459-1.055.848-1.512 1.17a38.78 38.78 0 0 1-1.697 1.115 52.18 52.18 0 0 1-1.604.972c-.395.226-.899.508-1.511.847-.612.34-1.001.557-1.168.652L58.38 34.317c.166-.095.65-.384 1.449-.866.8-.482 1.459-.87 1.978-1.168a47.38 47.38 0 0 1 2.243-1.178 29.202 29.202 0 0 1 2.584-1.16 28.768 28.768 0 0 1 2.617-.839c.996-.273 1.91-.434 2.74-.482.832-.047 1.693.006 2.585.16a7.46 7.46 0 0 1 2.462.875c.582.334 1.012.693 1.292 1.08Z"/><defs><linearGradient id="a" x1="-28.627" x2="-22.617" y1="202.516" y2="255.525" gradientUnits="userSpaceOnUse"><stop stop-color="#fff"/><stop offset="1" stop-color="#fff" stop-opacity="0"/></linearGradient></defs></svg>