<svg width="118" height="264" viewBox="0 0 118 264" fill="none" xmlns="http://www.w3.org/2000/svg">
<path d="M100.185 253.092C77.35 266.312 40.3278 266.312 17.4932 253.092C-5.34147 239.872 -5.34147 218.438 17.4932 205.218C40.3278 191.998 77.35 191.998 100.185 205.218C123.019 218.438 123.019 239.872 100.185 253.092Z" fill="url(#paint0_linear_1812_46971)"/>
<path d="M98.0062 245.782C76.3734 258.27 41.2997 258.27 19.6669 245.782C9.454 239.886 4.06263 232.26 3.49281 224.539L3.44531 213.767C3.59054 221.84 8.99774 229.887 19.6669 236.046C41.2997 248.534 76.3734 248.534 98.0062 236.046C108.631 229.912 114.037 221.907 114.226 213.868V212.998C114.233 213.288 114.233 213.578 114.226 213.868V223.604C114.038 231.642 108.631 239.648 98.0062 245.782Z" fill="#79EFBD" stroke="#0D0B33" stroke-width="0.59185"/>
<path d="M98.0092 235.543C76.3764 248.032 41.3027 248.032 19.6699 235.543C-1.96289 223.054 -1.96289 202.806 19.6699 190.318C41.3027 177.829 76.3764 177.829 98.0092 190.318C119.642 202.806 119.642 223.054 98.0092 235.543Z" fill="#F7F6FF" stroke="#0D0B33" stroke-width="0.59185"/>
<path d="M69.3721 222.341C69.6946 220.884 69.0115 219.361 67.3222 217.773C71.5922 218.572 75.2829 217.876 78.3958 215.685C79.5342 214.896 80.2736 214.07 80.6147 213.204C80.9555 212.339 80.9135 211.46 80.4858 210.567C80.0595 209.674 79.4131 208.808 78.5502 207.97C77.687 207.132 76.5719 206.242 75.2054 205.3L82.3785 201.159L77.9954 198.629L71.0215 202.655C70.2625 202.216 69.0861 201.559 67.4922 200.683L74.523 196.624L70.1392 194.093L62.9661 198.234C62.3206 197.884 61.3907 197.358 60.1763 196.657L54.1706 193.157L49.5023 195.852L52.6617 197.676C54.1039 198.508 54.303 199.368 53.2595 200.255L45.0899 204.972C45.28 205.081 45.4218 205.175 45.5168 205.251L45.0612 204.988L33.6189 211.594C32.4996 212.065 31.4652 212.027 30.5162 211.479L27.3571 209.655L21.2654 212.153L26.9584 215.44C27.319 215.648 27.8357 215.952 28.5106 216.351C29.184 216.751 29.6914 217.049 30.0331 217.247L22.7747 221.437L27.1592 223.968L34.3322 219.827C35.1096 220.298 36.2578 220.972 37.7759 221.848L30.6316 225.973L35.0148 228.503L42.2732 224.313C43.9054 225.168 45.4274 225.883 46.8413 226.457C48.2559 227.032 49.7358 227.509 51.2824 227.887C52.8284 228.265 54.304 228.475 55.7082 228.519C57.1121 228.563 58.5684 228.429 60.0781 228.117C61.5861 227.804 63.0809 227.298 64.5609 226.596C67.4457 225.217 69.0492 223.798 69.3721 222.341ZM62.4545 203.69C62.5874 203.766 62.9669 203.98 63.5933 204.33C64.2201 204.681 64.7416 204.971 65.1591 205.201C65.5766 205.431 66.1032 205.763 66.7392 206.196C67.3748 206.628 67.8822 207.009 68.2618 207.338C68.6413 207.666 69.007 208.058 69.3576 208.512C69.7093 208.967 69.8986 209.383 69.9267 209.761C69.9556 210.139 69.8462 210.536 69.599 210.952C69.3527 211.369 68.9163 211.758 68.2902 212.119C67.7588 212.426 67.1895 212.656 66.5822 212.81C65.9756 212.963 65.3533 213.026 64.7181 212.999C64.0826 212.972 63.4744 212.917 62.8958 212.834C62.3175 212.752 61.6812 212.588 60.9889 212.341C60.2965 212.095 59.7035 211.873 59.2105 211.676C58.717 211.479 58.1429 211.208 57.4883 210.863C56.8336 210.517 56.3397 210.255 56.0079 210.074C55.6758 209.893 55.2347 209.638 54.6841 209.31C54.1333 208.981 53.8114 208.789 53.7163 208.734L62.4549 203.69L62.4546 203.689L62.4545 203.69ZM55.0402 221.79C54.4227 221.938 53.8109 222.023 53.2036 222.045C52.5967 222.067 51.9368 222.015 51.2257 221.889C50.5141 221.763 49.864 221.618 49.2761 221.453C48.687 221.289 48.0281 221.061 47.2977 220.772C46.5662 220.481 45.9455 220.215 45.4324 219.974C44.9201 219.733 44.3275 219.435 43.6534 219.079C42.9805 218.723 42.4629 218.441 42.1024 218.232C41.7418 218.024 41.2915 217.758 40.7504 217.435C40.2087 217.112 39.8627 216.907 39.7108 216.819L49.3322 211.265C49.4839 211.352 49.9439 211.607 50.7129 212.029C51.4819 212.451 52.1025 212.799 52.5769 213.073C53.0513 213.346 53.6782 213.741 54.4561 214.256C55.2341 214.77 55.8512 215.225 56.3072 215.619C56.7622 216.014 57.2079 216.474 57.6446 217C58.081 217.526 58.3375 218.008 58.4136 218.446C58.489 218.885 58.404 219.339 58.1571 219.81C57.9111 220.281 57.446 220.714 56.7627 221.108C56.2307 221.415 55.6575 221.642 55.0402 221.79Z" fill="#0D0B33"/>
<path d="M3.44531 216.844C6.6049 224.804 9.04676 228.462 15.7551 232.231V243.002C9.62985 238.667 6.35043 236.007 3.44531 226.845V216.844Z" fill="#0D0B33"/>
<path d="M20.3672 236.08L24.9834 238.388V249.159L20.3672 246.851V236.08Z" fill="#0D0B33"/>
<path d="M98.0062 235.198C76.3734 247.686 41.2997 247.686 19.6669 235.198C9.454 229.302 4.06263 221.676 3.49281 213.955L3.44531 203.183C3.59054 211.256 8.99774 219.303 19.6669 225.462C41.2997 237.95 76.3734 237.95 98.0062 225.462C108.631 219.328 114.037 211.323 114.226 203.284V202.414C114.233 202.704 114.233 202.994 114.226 203.284V213.02C114.038 221.058 108.631 229.064 98.0062 235.198Z" fill="#79EFBD" stroke="#0D0B33" stroke-width="0.59185"/>
<path d="M98.0092 224.959C76.3764 237.448 41.3027 237.448 19.6699 224.959C-1.96289 212.47 -1.96289 192.222 19.6699 179.734C41.3027 167.245 76.3764 167.245 98.0092 179.734C119.642 192.222 119.642 212.47 98.0092 224.959Z" fill="#F7F6FF" stroke="#0D0B33" stroke-width="0.59185"/>
<path d="M69.3721 211.757C69.6946 210.3 69.0115 208.777 67.3222 207.189C71.5922 207.988 75.2829 207.292 78.3958 205.101C79.5342 204.312 80.2736 203.486 80.6147 202.621C80.9555 201.755 80.9135 200.876 80.4858 199.983C80.0595 199.09 79.4131 198.224 78.5502 197.386C77.687 196.549 76.5719 195.658 75.2054 194.716L82.3785 190.575L77.9954 188.045L71.0215 192.071C70.2625 191.632 69.0861 190.975 67.4922 190.099L74.523 186.04L70.1392 183.509L62.9661 187.65C62.3206 187.3 61.3907 186.774 60.1763 186.073L54.1706 182.573L49.5023 185.268L52.6617 187.092C54.1039 187.924 54.303 188.784 53.2595 189.672L45.0899 194.388C45.28 194.497 45.4218 194.591 45.5168 194.667L45.0612 194.404L33.6189 201.01C32.4996 201.481 31.4652 201.443 30.5162 200.895L27.3571 199.071L21.2654 201.569L26.9584 204.856C27.319 205.064 27.8357 205.368 28.5106 205.767C29.184 206.167 29.6914 206.465 30.0331 206.663L22.7747 210.853L27.1592 213.384L34.3322 209.243C35.1096 209.714 36.2578 210.388 37.7759 211.264L30.6316 215.389L35.0148 217.919L42.2732 213.729C43.9054 214.584 45.4274 215.299 46.8413 215.873C48.2559 216.448 49.7358 216.925 51.2824 217.303C52.8284 217.681 54.304 217.891 55.7082 217.935C57.1121 217.979 58.5684 217.845 60.0781 217.533C61.5861 217.22 63.0809 216.714 64.5609 216.012C67.4457 214.633 69.0492 213.214 69.3721 211.757ZM62.4545 193.106C62.5874 193.182 62.9669 193.396 63.5933 193.746C64.2201 194.097 64.7416 194.387 65.1591 194.617C65.5766 194.847 66.1032 195.179 66.7392 195.612C67.3748 196.044 67.8822 196.425 68.2618 196.754C68.6413 197.082 69.007 197.474 69.3576 197.928C69.7093 198.383 69.8986 198.799 69.9267 199.177C69.9556 199.555 69.8462 199.952 69.599 200.368C69.3527 200.785 68.9163 201.174 68.2902 201.535C67.7588 201.842 67.1895 202.072 66.5822 202.226C65.9756 202.379 65.3533 202.442 64.7181 202.415C64.0826 202.388 63.4744 202.333 62.8958 202.25C62.3175 202.168 61.6812 202.004 60.9889 201.757C60.2965 201.511 59.7035 201.289 59.2105 201.092C58.717 200.895 58.1429 200.624 57.4883 200.279C56.8336 199.934 56.3397 199.671 56.0079 199.49C55.6758 199.309 55.2347 199.054 54.6841 198.726C54.1333 198.397 53.8114 198.205 53.7163 198.15L62.4549 193.106L62.4546 193.105L62.4545 193.106ZM55.0402 211.206C54.4227 211.354 53.8109 211.439 53.2036 211.461C52.5967 211.483 51.9368 211.431 51.2257 211.305C50.5141 211.179 49.864 211.034 49.2761 210.869C48.687 210.705 48.0281 210.478 47.2977 210.188C46.5662 209.897 45.9455 209.631 45.4324 209.39C44.9201 209.149 44.3275 208.851 43.6534 208.495C42.9805 208.139 42.4629 207.857 42.1024 207.648C41.7418 207.44 41.2915 207.174 40.7504 206.851C40.2087 206.528 39.8627 206.323 39.7108 206.235L49.3322 200.681C49.4839 200.768 49.9439 201.023 50.7129 201.445C51.4819 201.867 52.1025 202.215 52.5769 202.489C53.0513 202.762 53.6782 203.157 54.4561 203.672C55.2341 204.186 55.8512 204.641 56.3072 205.036C56.7622 205.43 57.2079 205.89 57.6446 206.416C58.081 206.942 58.3375 207.424 58.4136 207.862C58.489 208.301 58.404 208.755 58.1571 209.226C57.9111 209.697 57.446 210.13 56.7627 210.524C56.2307 210.831 55.6575 211.058 55.0402 211.206Z" fill="#0D0B33"/>
<path d="M3.44531 206.26C6.6049 214.22 9.04676 217.878 15.7551 221.647V232.418C9.62985 228.083 6.35043 225.423 3.44531 216.262V206.26Z" fill="#0D0B33"/>
<path d="M20.3711 225.496L24.9873 227.804V238.575L20.3711 236.267V225.496Z" fill="#0D0B33"/>
<path d="M98.0062 224.612C76.3734 237.1 41.2997 237.1 19.6669 224.612C9.454 218.716 4.06263 211.09 3.49281 203.369L3.44531 192.597C3.59054 200.67 8.99774 208.717 19.6669 214.876C41.2997 227.365 76.3734 227.365 98.0062 214.876C108.631 208.742 114.037 200.737 114.226 192.698V191.828C114.233 192.118 114.233 192.408 114.226 192.698V202.434C114.038 210.473 108.631 218.478 98.0062 224.612Z" fill="#79EFBD" stroke="#0D0B33" stroke-width="0.59185"/>
<path d="M98.0092 214.373C76.3764 226.862 41.3027 226.862 19.6699 214.373C-1.96289 201.884 -1.96289 181.636 19.6699 169.148C41.3027 156.659 76.3764 156.659 98.0092 169.148C119.642 181.636 119.642 201.884 98.0092 214.373Z" fill="#F7F6FF" stroke="#0D0B33" stroke-width="0.59185"/>
<path d="M69.3721 201.171C69.6946 199.714 69.0115 198.191 67.3222 196.603C71.5922 197.402 75.2829 196.706 78.3958 194.515C79.5342 193.727 80.2736 192.9 80.6147 192.035C80.9555 191.169 80.9135 190.29 80.4858 189.397C80.0595 188.504 79.4131 187.638 78.5502 186.8C77.687 185.963 76.5719 185.072 75.2054 184.13L82.3785 179.989L77.9954 177.459L71.0215 181.485C70.2625 181.047 69.0861 180.389 67.4922 179.513L74.523 175.454L70.1392 172.923L62.9661 177.064C62.3206 176.714 61.3907 176.188 60.1763 175.487L54.1706 171.987L49.5023 174.682L52.6617 176.506C54.1039 177.338 54.303 178.198 53.2595 179.086L45.0899 183.802C45.28 183.912 45.4218 184.005 45.5168 184.081L45.0612 183.818L33.6189 190.424C32.4996 190.895 31.4652 190.857 30.5162 190.309L27.3571 188.485L21.2654 190.983L26.9584 194.27C27.319 194.478 27.8357 194.782 28.5106 195.181C29.184 195.581 29.6914 195.88 30.0331 196.077L22.7747 200.267L27.1592 202.798L34.3322 198.657C35.1096 199.128 36.2578 199.802 37.7759 200.678L30.6316 204.803L35.0148 207.333L42.2732 203.143C43.9054 203.998 45.4274 204.713 46.8413 205.287C48.2559 205.862 49.7358 206.339 51.2824 206.717C52.8284 207.095 54.304 207.305 55.7082 207.349C57.1121 207.393 58.5684 207.259 60.0781 206.947C61.5861 206.634 63.0809 206.128 64.5609 205.426C67.4457 204.047 69.0492 202.628 69.3721 201.171ZM62.4545 182.52C62.5874 182.596 62.9669 182.81 63.5933 183.16C64.2201 183.511 64.7416 183.801 65.1591 184.031C65.5766 184.261 66.1032 184.593 66.7392 185.026C67.3748 185.458 67.8822 185.839 68.2618 186.168C68.6413 186.496 69.007 186.888 69.3576 187.342C69.7093 187.797 69.8986 188.213 69.9267 188.591C69.9556 188.969 69.8462 189.366 69.599 189.782C69.3527 190.199 68.9163 190.588 68.2902 190.949C67.7588 191.256 67.1895 191.486 66.5822 191.64C65.9756 191.793 65.3533 191.856 64.7181 191.829C64.0826 191.802 63.4744 191.747 62.8958 191.664C62.3175 191.582 61.6812 191.418 60.9889 191.171C60.2965 190.925 59.7035 190.703 59.2105 190.506C58.717 190.309 58.1429 190.038 57.4883 189.693C56.8336 189.348 56.3397 189.085 56.0079 188.904C55.6758 188.723 55.2347 188.469 54.6841 188.14C54.1333 187.811 53.8114 187.619 53.7163 187.565L62.4549 182.52L62.4546 182.52L62.4545 182.52ZM55.0402 200.62C54.4227 200.768 53.8109 200.853 53.2036 200.875C52.5967 200.897 51.9368 200.845 51.2257 200.719C50.5141 200.593 49.864 200.448 49.2761 200.284C48.687 200.119 48.0281 199.892 47.2977 199.602C46.5662 199.311 45.9455 199.045 45.4324 198.804C44.9201 198.563 44.3275 198.265 43.6534 197.909C42.9805 197.553 42.4629 197.271 42.1024 197.063C41.7418 196.854 41.2915 196.588 40.7504 196.265C40.2087 195.942 39.8627 195.737 39.7108 195.649L49.3322 190.095C49.4839 190.182 49.9439 190.437 50.7129 190.859C51.4819 191.281 52.1025 191.629 52.5769 191.903C53.0513 192.177 53.6782 192.571 54.4561 193.086C55.2341 193.6 55.8512 194.055 56.3072 194.45C56.7622 194.844 57.2079 195.304 57.6446 195.83C58.081 196.356 58.3375 196.838 58.4136 197.276C58.489 197.715 58.404 198.169 58.1571 198.64C57.9111 199.111 57.446 199.544 56.7627 199.938C56.2307 200.245 55.6575 200.472 55.0402 200.62Z" fill="#0D0B33"/>
<path d="M3.44531 195.674C6.6049 203.634 9.04676 207.292 15.7551 211.061V221.832C9.62985 217.497 6.35043 214.837 3.44531 205.676V195.674Z" fill="#0D0B33"/>
<path d="M20.3711 214.91L24.9873 217.218V227.989L20.3711 225.681V214.91Z" fill="#0D0B33"/>
<path d="M98.0062 214.026C76.3734 226.514 41.2997 226.514 19.6669 214.026C9.454 208.13 4.06263 200.504 3.49281 192.783L3.44531 182.012C3.59054 190.084 8.99774 198.131 19.6669 204.29C41.2997 216.779 76.3734 216.779 98.0062 204.29C108.631 198.156 114.037 190.151 114.226 182.112V181.242C114.233 181.532 114.233 181.822 114.226 182.112V191.848C114.038 199.887 108.631 207.892 98.0062 214.026Z" fill="#79EFBD" stroke="#0D0B33" stroke-width="0.59185"/>
<path d="M98.0092 203.787C76.3764 216.276 41.3027 216.276 19.6699 203.787C-1.96289 191.298 -1.96289 171.05 19.6699 158.562C41.3027 146.073 76.3764 146.073 98.0092 158.562C119.642 171.05 119.642 191.298 98.0092 203.787Z" fill="#F7F6FF" stroke="#0D0B33" stroke-width="0.59185"/>
<path d="M69.3721 190.585C69.6946 189.128 69.0115 187.605 67.3222 186.017C71.5922 186.816 75.2829 186.121 78.3958 183.93C79.5342 183.141 80.2736 182.314 80.6147 181.449C80.9555 180.583 80.9135 179.704 80.4858 178.811C80.0595 177.918 79.4131 177.052 78.5502 176.215C77.687 175.377 76.5719 174.486 75.2054 173.544L82.3785 169.403L77.9954 166.873L71.0215 170.899C70.2625 170.461 69.0861 169.803 67.4922 168.927L74.523 164.868L70.1392 162.337L62.9661 166.478C62.3206 166.128 61.3907 165.602 60.1763 164.901L54.1706 161.401L49.5023 164.096L52.6617 165.92C54.1039 166.752 54.303 167.612 53.2595 168.5L45.0899 173.216C45.28 173.326 45.4218 173.419 45.5168 173.496L45.0612 173.232L33.6189 179.838C32.4996 180.309 31.4652 180.271 30.5162 179.723L27.3571 177.899L21.2654 180.397L26.9584 183.684C27.319 183.892 27.8357 184.196 28.5106 184.595C29.184 184.995 29.6914 185.294 30.0331 185.491L22.7747 189.681L27.1592 192.212L34.3322 188.071C35.1096 188.543 36.2578 189.216 37.7759 190.092L30.6316 194.217L35.0148 196.747L42.2732 192.557C43.9054 193.412 45.4274 194.127 46.8413 194.701C48.2559 195.276 49.7358 195.753 51.2824 196.131C52.8284 196.509 54.304 196.719 55.7082 196.763C57.1121 196.807 58.5684 196.673 60.0781 196.361C61.5861 196.048 63.0809 195.542 64.5609 194.84C67.4457 193.461 69.0492 192.042 69.3721 190.585ZM62.4545 171.934C62.5874 172.01 62.9669 172.224 63.5933 172.575C64.2201 172.925 64.7416 173.215 65.1591 173.445C65.5766 173.675 66.1032 174.007 66.7392 174.44C67.3748 174.872 67.8822 175.253 68.2618 175.582C68.6413 175.91 69.007 176.302 69.3576 176.756C69.7093 177.211 69.8986 177.627 69.9267 178.005C69.9556 178.383 69.8462 178.78 69.599 179.197C69.3527 179.613 68.9163 180.002 68.2902 180.363C67.7588 180.67 67.1895 180.9 66.5822 181.054C65.9756 181.208 65.3533 181.27 64.7181 181.243C64.0826 181.216 63.4744 181.161 62.8958 181.079C62.3175 180.996 61.6812 180.832 60.9889 180.586C60.2965 180.339 59.7035 180.117 59.2105 179.92C58.717 179.723 58.1429 179.452 57.4883 179.107C56.8336 178.762 56.3397 178.499 56.0079 178.318C55.6758 178.137 55.2347 177.883 54.6841 177.554C54.1333 177.225 53.8114 177.033 53.7163 176.979L62.4549 171.934L62.4546 171.934L62.4545 171.934ZM55.0402 190.034C54.4227 190.182 53.8109 190.267 53.2036 190.29C52.5967 190.311 51.9368 190.259 51.2257 190.133C50.5141 190.007 49.864 189.862 49.2761 189.698C48.687 189.534 48.0281 189.306 47.2977 189.016C46.5662 188.725 45.9455 188.459 45.4324 188.218C44.9201 187.978 44.3275 187.679 43.6534 187.323C42.9805 186.967 42.4629 186.685 42.1024 186.477C41.7418 186.268 41.2915 186.002 40.7504 185.679C40.2087 185.356 39.8627 185.151 39.7108 185.063L49.3322 179.509C49.4839 179.596 49.9439 179.851 50.7129 180.273C51.4819 180.695 52.1025 181.043 52.5769 181.317C53.0513 181.591 53.6782 181.985 54.4561 182.5C55.2341 183.015 55.8512 183.469 56.3072 183.864C56.7622 184.258 57.2079 184.718 57.6446 185.244C58.081 185.77 58.3375 186.252 58.4136 186.69C58.489 187.129 58.404 187.583 58.1571 188.054C57.9111 188.525 57.446 188.958 56.7627 189.352C56.2307 189.659 55.6575 189.886 55.0402 190.034Z" fill="#0D0B33"/>
<path d="M3.44531 185.088C6.6049 193.048 9.04676 196.706 15.7551 200.475V211.246C9.62985 206.911 6.35043 204.251 3.44531 195.09V185.088Z" fill="#0D0B33"/>
<path d="M20.3711 204.324L24.9873 206.632V217.403L20.3711 215.095V204.324Z" fill="#0D0B33"/>
<path d="M98.0062 203.44C76.3734 215.928 41.2997 215.928 19.6669 203.44C9.454 197.544 4.06263 189.919 3.49281 182.197L3.44531 171.426C3.59054 179.498 8.99774 187.545 19.6669 193.704C41.2997 206.193 76.3734 206.193 98.0062 193.704C108.631 187.57 114.037 179.565 114.226 171.527V170.656C114.233 170.946 114.233 171.236 114.226 171.527V181.262C114.038 189.301 108.631 197.306 98.0062 203.44Z" fill="#79EFBD" stroke="#0D0B33" stroke-width="0.59185"/>
<path d="M98.0092 193.201C76.3764 205.69 41.3027 205.69 19.6699 193.201C-1.96289 180.713 -1.96289 160.464 19.6699 147.976C41.3027 135.487 76.3764 135.487 98.0092 147.976C119.642 160.464 119.642 180.713 98.0092 193.201Z" fill="#F7F6FF" stroke="#0D0B33" stroke-width="0.59185"/>
<path d="M69.3721 179.999C69.6946 178.542 69.0115 177.019 67.3222 175.431C71.5922 176.23 75.2829 175.535 78.3958 173.344C79.5342 172.555 80.2736 171.728 80.6147 170.863C80.9555 169.997 80.9135 169.118 80.4858 168.225C80.0595 167.332 79.4131 166.466 78.5502 165.629C77.687 164.791 76.5719 163.9 75.2054 162.958L82.3785 158.817L77.9954 156.287L71.0215 160.313C70.2625 159.875 69.0861 159.217 67.4922 158.341L74.523 154.282L70.1392 151.751L62.9661 155.892C62.3206 155.542 61.3907 155.016 60.1763 154.315L54.1706 150.815L49.5023 153.51L52.6617 155.334C54.1039 156.166 54.303 157.026 53.2595 157.914L45.0899 162.63C45.28 162.74 45.4218 162.833 45.5168 162.91L45.0612 162.647L33.6189 169.252C32.4996 169.723 31.4652 169.685 30.5162 169.137L27.3571 167.314L21.2654 169.811L26.9584 173.098C27.319 173.306 27.8357 173.61 28.5106 174.009C29.184 174.409 29.6914 174.708 30.0331 174.905L22.7747 179.095L27.1592 181.626L34.3322 177.485C35.1096 177.957 36.2578 178.63 37.7759 179.507L30.6316 183.631L35.0148 186.161L42.2732 181.971C43.9054 182.826 45.4274 183.541 46.8413 184.116C48.2559 184.69 49.7358 185.167 51.2824 185.545C52.8284 185.923 54.304 186.133 55.7082 186.177C57.1121 186.222 58.5684 186.087 60.0781 185.775C61.5861 185.462 63.0809 184.956 64.5609 184.254C67.4457 182.875 69.0492 181.456 69.3721 179.999ZM62.4545 161.348C62.5874 161.424 62.9669 161.638 63.5933 161.989C64.2201 162.339 64.7416 162.629 65.1591 162.859C65.5766 163.09 66.1032 163.421 66.7392 163.854C67.3748 164.287 67.8822 164.667 68.2618 164.996C68.6413 165.324 69.007 165.716 69.3576 166.171C69.7093 166.625 69.8986 167.042 69.9267 167.419C69.9556 167.797 69.8462 168.195 69.599 168.611C69.3527 169.027 68.9163 169.416 68.2902 169.777C67.7588 170.084 67.1895 170.314 66.5822 170.468C65.9756 170.622 65.3533 170.684 64.7181 170.657C64.0826 170.63 63.4744 170.575 62.8958 170.493C62.3175 170.411 61.6812 170.246 60.9889 170C60.2965 169.753 59.7035 169.531 59.2105 169.334C58.717 169.137 58.1429 168.866 57.4883 168.521C56.8336 168.176 56.3397 167.913 56.0079 167.732C55.6758 167.551 55.2347 167.297 54.6841 166.968C54.1333 166.639 53.8114 166.448 53.7163 166.393L62.4549 161.348L62.4546 161.348L62.4545 161.348ZM55.0402 179.448C54.4227 179.596 53.8109 179.681 53.2036 179.704C52.5967 179.725 51.9368 179.673 51.2257 179.547C50.5141 179.421 49.864 179.276 49.2761 179.112C48.687 178.948 48.0281 178.72 47.2977 178.43C46.5662 178.139 45.9455 177.874 45.4324 177.632C44.9201 177.392 44.3275 177.093 43.6534 176.737C42.9805 176.381 42.4629 176.099 42.1024 175.891C41.7418 175.682 41.2915 175.416 40.7504 175.093C40.2087 174.77 39.8627 174.565 39.7108 174.477L49.3322 168.923C49.4839 169.011 49.9439 169.265 50.7129 169.687C51.4819 170.109 52.1025 170.457 52.5769 170.731C53.0513 171.005 53.6782 171.399 54.4561 171.914C55.2341 172.429 55.8512 172.883 56.3072 173.278C56.7622 173.672 57.2079 174.132 57.6446 174.658C58.081 175.184 58.3375 175.666 58.4136 176.104C58.489 176.543 58.404 176.997 58.1571 177.468C57.9111 177.939 57.446 178.372 56.7627 178.767C56.2307 179.074 55.6575 179.3 55.0402 179.448Z" fill="#0D0B33"/>
<path d="M3.44531 174.502C6.6049 182.462 9.04676 186.12 15.7551 189.889V200.66C9.62985 196.325 6.35043 193.665 3.44531 184.504V174.502Z" fill="#0D0B33"/>
<path d="M20.3711 193.738L24.9873 196.046V206.817L20.3711 204.509V193.738Z" fill="#0D0B33"/>
<path d="M98.0062 192.854C76.3734 205.342 41.2997 205.342 19.6669 192.854C9.454 186.958 4.06263 179.333 3.49281 171.611L3.44531 160.84C3.59054 168.912 8.99774 176.959 19.6669 183.118C41.2997 195.607 76.3734 195.607 98.0062 183.118C108.631 176.984 114.037 168.979 114.226 160.941V160.07C114.233 160.36 114.233 160.651 114.226 160.941V170.676C114.038 178.715 108.631 186.72 98.0062 192.854Z" fill="#79EFBD" stroke="#0D0B33" stroke-width="0.59185"/>
<path d="M98.0092 182.615C76.3764 195.104 41.3027 195.104 19.6699 182.615C-1.96289 170.127 -1.96289 149.879 19.6699 137.39C41.3027 124.901 76.3764 124.901 98.0092 137.39C119.642 149.879 119.642 170.127 98.0092 182.615Z" fill="#F7F6FF" stroke="#0D0B33" stroke-width="0.59185"/>
<path d="M69.3721 169.413C69.6946 167.956 69.0115 166.433 67.3222 164.845C71.5922 165.645 75.2829 164.949 78.3958 162.758C79.5342 161.969 80.2736 161.142 80.6147 160.277C80.9555 159.411 80.9135 158.532 80.4858 157.639C80.0595 156.746 79.4131 155.88 78.5502 155.043C77.687 154.205 76.5719 153.314 75.2054 152.372L82.3785 148.231L77.9954 145.701L71.0215 149.727C70.2625 149.289 69.0861 148.631 67.4922 147.755L74.523 143.696L70.1392 141.166L62.9661 145.307C62.3206 144.956 61.3907 144.43 60.1763 143.729L54.1706 140.229L49.5023 142.924L52.6617 144.748C54.1039 145.58 54.303 146.441 53.2595 147.328L45.0899 152.044C45.28 152.154 45.4218 152.247 45.5168 152.324L45.0612 152.061L33.6189 158.666C32.4996 159.137 31.4652 159.099 30.5162 158.551L27.3571 156.728L21.2654 159.225L26.9584 162.512C27.319 162.72 27.8357 163.024 28.5106 163.423C29.184 163.823 29.6914 164.122 30.0331 164.319L22.7747 168.509L27.1592 171.04L34.3322 166.899C35.1096 167.371 36.2578 168.044 37.7759 168.921L30.6316 173.045L35.0148 175.575L42.2732 171.385C43.9054 172.24 45.4274 172.955 46.8413 173.53C48.2559 174.104 49.7358 174.581 51.2824 174.959C52.8284 175.337 54.304 175.548 55.7082 175.591C57.1121 175.636 58.5684 175.501 60.0781 175.189C61.5861 174.876 63.0809 174.37 64.5609 173.668C67.4457 172.289 69.0492 170.87 69.3721 169.413ZM62.4545 150.762C62.5874 150.839 62.9669 151.052 63.5933 151.403C64.2201 151.753 64.7416 152.043 65.1591 152.273C65.5766 152.504 66.1032 152.835 66.7392 153.268C67.3748 153.701 67.8822 154.081 68.2618 154.41C68.6413 154.738 69.007 155.13 69.3576 155.585C69.7093 156.039 69.8986 156.456 69.9267 156.833C69.9556 157.211 69.8462 157.609 69.599 158.025C69.3527 158.441 68.9163 158.83 68.2902 159.191C67.7588 159.498 67.1895 159.728 66.5822 159.882C65.9756 160.036 65.3533 160.098 64.7181 160.071C64.0826 160.044 63.4744 159.989 62.8958 159.907C62.3175 159.825 61.6812 159.66 60.9889 159.414C60.2965 159.167 59.7035 158.946 59.2105 158.748C58.717 158.551 58.1429 158.28 57.4883 157.935C56.8336 157.59 56.3397 157.327 56.0079 157.146C55.6758 156.965 55.2347 156.711 54.6841 156.382C54.1333 156.053 53.8114 155.862 53.7163 155.807L62.4549 150.762L62.4546 150.762L62.4545 150.762ZM55.0402 168.862C54.4227 169.01 53.8109 169.095 53.2036 169.118C52.5967 169.139 51.9368 169.087 51.2257 168.961C50.5141 168.835 49.864 168.69 49.2761 168.526C48.687 168.362 48.0281 168.134 47.2977 167.844C46.5662 167.553 45.9455 167.288 45.4324 167.046C44.9201 166.806 44.3275 166.507 43.6534 166.151C42.9805 165.795 42.4629 165.513 42.1024 165.305C41.7418 165.097 41.2915 164.831 40.7504 164.507C40.2087 164.184 39.8627 163.979 39.7108 163.892L49.3322 158.337C49.4839 158.425 49.9439 158.679 50.7129 159.101C51.4819 159.523 52.1025 159.871 52.5769 160.145C53.0513 160.419 53.6782 160.813 54.4561 161.328C55.2341 161.843 55.8512 162.297 56.3072 162.692C56.7622 163.086 57.2079 163.546 57.6446 164.072C58.081 164.598 58.3375 165.08 58.4136 165.518C58.489 165.957 58.404 166.411 58.1571 166.882C57.9111 167.353 57.446 167.786 56.7627 168.181C56.2307 168.488 55.6575 168.715 55.0402 168.862Z" fill="#0D0B33"/>
<path d="M3.44531 163.916C6.6049 171.876 9.04676 175.534 15.7551 179.303V190.074C9.62985 185.739 6.35043 183.079 3.44531 173.918V163.916Z" fill="#0D0B33"/>
<path d="M20.3711 183.152L24.9873 185.46V196.232L20.3711 193.923V183.152Z" fill="#0D0B33"/>
<path d="M98.0062 182.27C76.3734 194.759 41.2997 194.759 19.6669 182.27C9.454 176.374 4.06263 168.749 3.49281 161.027L3.44531 150.256C3.59054 158.328 8.99774 166.375 19.6669 172.534C41.2997 185.023 76.3734 185.023 98.0062 172.534C108.631 166.4 114.037 158.395 114.226 150.357V149.486C114.233 149.776 114.233 150.067 114.226 150.357V160.092C114.038 168.131 108.631 176.136 98.0062 182.27Z" fill="#79EFBD" stroke="#0D0B33" stroke-width="0.59185"/>
<path d="M98.0092 172.031C76.3764 184.52 41.3027 184.52 19.6699 172.031C-1.96289 159.543 -1.96289 139.295 19.6699 126.806C41.3027 114.317 76.3764 114.317 98.0092 126.806C119.642 139.295 119.642 159.543 98.0092 172.031Z" fill="#F7F6FF" stroke="#0D0B33" stroke-width="0.59185"/>
<path d="M69.3721 158.831C69.6946 157.374 69.0115 155.851 67.3222 154.263C71.5922 155.062 75.2829 154.367 78.3958 152.176C79.5342 151.387 80.2736 150.56 80.6147 149.695C80.9555 148.829 80.9135 147.95 80.4858 147.057C80.0595 146.164 79.4131 145.298 78.5502 144.461C77.687 143.623 76.5719 142.732 75.2054 141.79L82.3785 137.649L77.9954 135.119L71.0215 139.145C70.2625 138.707 69.0861 138.049 67.4922 137.173L74.523 133.114L70.1392 130.583L62.9661 134.725C62.3206 134.374 61.3907 133.848 60.1763 133.147L54.1706 129.647L49.5023 132.342L52.6617 134.166C54.1039 134.998 54.303 135.858 53.2595 136.746L45.0899 141.462C45.28 141.572 45.4218 141.665 45.5168 141.742L45.0612 141.479L33.6189 148.084C32.4996 148.555 31.4652 148.517 30.5162 147.969L27.3571 146.146L21.2654 148.643L26.9584 151.93C27.319 152.138 27.8357 152.442 28.5106 152.841C29.184 153.241 29.6914 153.54 30.0331 153.737L22.7747 157.927L27.1592 160.458L34.3322 156.317C35.1096 156.789 36.2578 157.462 37.7759 158.339L30.6316 162.463L35.0148 164.993L42.2732 160.803C43.9054 161.658 45.4274 162.373 46.8413 162.948C48.2559 163.522 49.7358 163.999 51.2824 164.377C52.8284 164.755 54.304 164.965 55.7082 165.009C57.1121 165.054 58.5684 164.919 60.0781 164.607C61.5861 164.294 63.0809 163.788 64.5609 163.086C67.4457 161.707 69.0492 160.288 69.3721 158.831ZM62.4545 140.18C62.5874 140.256 62.9669 140.47 63.5933 140.821C64.2201 141.171 64.7416 141.461 65.1591 141.691C65.5766 141.922 66.1032 142.253 66.7392 142.686C67.3748 143.119 67.8822 143.499 68.2618 143.828C68.6413 144.156 69.007 144.548 69.3576 145.003C69.7093 145.457 69.8986 145.874 69.9267 146.251C69.9556 146.629 69.8462 147.027 69.599 147.443C69.3527 147.859 68.9163 148.248 68.2902 148.609C67.7588 148.916 67.1895 149.146 66.5822 149.3C65.9756 149.454 65.3533 149.516 64.7181 149.489C64.0826 149.462 63.4744 149.407 62.8958 149.325C62.3175 149.243 61.6812 149.078 60.9889 148.832C60.2965 148.585 59.7035 148.364 59.2105 148.166C58.717 147.969 58.1429 147.698 57.4883 147.353C56.8336 147.008 56.3397 146.745 56.0079 146.564C55.6758 146.383 55.2347 146.129 54.6841 145.8C54.1333 145.471 53.8114 145.28 53.7163 145.225L62.4549 140.18L62.4546 140.18L62.4545 140.18ZM55.0402 158.28C54.4227 158.428 53.8109 158.513 53.2036 158.536C52.5967 158.557 51.9368 158.505 51.2257 158.379C50.5141 158.253 49.864 158.108 49.2761 157.944C48.687 157.78 48.0281 157.552 47.2977 157.262C46.5662 156.971 45.9455 156.706 45.4324 156.464C44.9201 156.224 44.3275 155.925 43.6534 155.569C42.9805 155.213 42.4629 154.931 42.1024 154.723C41.7418 154.514 41.2915 154.249 40.7504 153.925C40.2087 153.602 39.8627 153.397 39.7108 153.309L49.3322 147.755C49.4839 147.843 49.9439 148.097 50.7129 148.519C51.4819 148.941 52.1025 149.289 52.5769 149.563C53.0513 149.837 53.6782 150.231 54.4561 150.746C55.2341 151.261 55.8512 151.715 56.3072 152.11C56.7622 152.504 57.2079 152.964 57.6446 153.49C58.081 154.016 58.3375 154.498 58.4136 154.936C58.489 155.375 58.404 155.829 58.1571 156.3C57.9111 156.771 57.446 157.204 56.7627 157.599C56.2307 157.906 55.6575 158.133 55.0402 158.28Z" fill="#0D0B33"/>
<path d="M3.44531 153.332C6.6049 161.292 9.04676 164.95 15.7551 168.719V179.49C9.62985 175.155 6.35043 172.495 3.44531 163.334V153.332Z" fill="#0D0B33"/>
<path d="M20.3711 172.568L24.9873 174.876V185.648L20.3711 183.339V172.568Z" fill="#0D0B33"/>
<path d="M98.0062 171.684C76.3734 184.173 41.2997 184.173 19.6669 171.684C9.454 165.788 4.06263 158.163 3.49281 150.441L3.44531 139.67C3.59054 147.742 8.99774 155.789 19.6669 161.948C41.2997 174.437 76.3734 174.437 98.0062 161.948C108.631 155.815 114.037 147.809 114.226 139.771V138.9C114.233 139.19 114.233 139.481 114.226 139.771V149.506C114.038 157.545 108.631 165.55 98.0062 171.684Z" fill="#79EFBD" stroke="#0D0B33" stroke-width="0.59185"/>
<path d="M98.0092 161.445C76.3764 173.934 41.3027 173.934 19.6699 161.445C-1.96289 148.957 -1.96289 128.709 19.6699 116.22C41.3027 103.731 76.3764 103.731 98.0092 116.22C119.642 128.709 119.642 148.957 98.0092 161.445Z" fill="#F7F6FF" stroke="#0D0B33" stroke-width="0.59185"/>
<path d="M69.3721 148.243C69.6946 146.786 69.0115 145.263 67.3222 143.675C71.5922 144.475 75.2829 143.779 78.3958 141.588C79.5342 140.799 80.2736 139.972 80.6147 139.107C80.9555 138.241 80.9135 137.362 80.4858 136.469C80.0595 135.576 79.4131 134.71 78.5502 133.873C77.687 133.035 76.5719 132.144 75.2054 131.202L82.3785 127.061L77.9954 124.531L71.0215 128.557C70.2625 128.119 69.0861 127.461 67.4922 126.585L74.523 122.526L70.1392 119.996L62.9661 124.137C62.3206 123.786 61.3907 123.26 60.1763 122.559L54.1706 119.059L49.5023 121.754L52.6617 123.578C54.1039 124.411 54.303 125.271 53.2595 126.158L45.0899 130.874C45.28 130.984 45.4218 131.077 45.5168 131.154L45.0612 130.891L33.6189 137.496C32.4996 137.967 31.4652 137.929 30.5162 137.381L27.3571 135.558L21.2654 138.055L26.9584 141.342C27.319 141.55 27.8357 141.854 28.5106 142.254C29.184 142.653 29.6914 142.952 30.0331 143.149L22.7747 147.339L27.1592 149.87L34.3322 145.729C35.1096 146.201 36.2578 146.874 37.7759 147.751L30.6316 151.875L35.0148 154.406L42.2732 150.215C43.9054 151.07 45.4274 151.785 46.8413 152.36C48.2559 152.934 49.7358 153.411 51.2824 153.789C52.8284 154.167 54.304 154.378 55.7082 154.421C57.1121 154.466 58.5684 154.331 60.0781 154.019C61.5861 153.706 63.0809 153.2 64.5609 152.498C67.4457 151.119 69.0492 149.7 69.3721 148.243ZM62.4545 129.592C62.5874 129.669 62.9669 129.882 63.5933 130.233C64.2201 130.583 64.7416 130.874 65.1591 131.104C65.5766 131.334 66.1032 131.665 66.7392 132.098C67.3748 132.531 67.8822 132.911 68.2618 133.24C68.6413 133.568 69.007 133.96 69.3576 134.415C69.7093 134.869 69.8986 135.286 69.9267 135.663C69.9556 136.041 69.8462 136.439 69.599 136.855C69.3527 137.271 68.9163 137.66 68.2902 138.022C67.7588 138.328 67.1895 138.559 66.5822 138.712C65.9756 138.866 65.3533 138.928 64.7181 138.901C64.0826 138.874 63.4744 138.819 62.8958 138.737C62.3175 138.655 61.6812 138.49 60.9889 138.244C60.2965 137.997 59.7035 137.776 59.2105 137.578C58.717 137.381 58.1429 137.11 57.4883 136.765C56.8336 136.42 56.3397 136.157 56.0079 135.976C55.6758 135.795 55.2347 135.541 54.6841 135.212C54.1333 134.883 53.8114 134.692 53.7163 134.637L62.4549 129.592L62.4546 129.592L62.4545 129.592ZM55.0402 147.693C54.4227 147.84 53.8109 147.926 53.2036 147.948C52.5967 147.969 51.9368 147.917 51.2257 147.791C50.5141 147.666 49.864 147.52 49.2761 147.356C48.687 147.192 48.0281 146.964 47.2977 146.674C46.5662 146.383 45.9455 146.118 45.4324 145.877C44.9201 145.636 44.3275 145.337 43.6534 144.981C42.9805 144.625 42.4629 144.343 42.1024 144.135C41.7418 143.927 41.2915 143.661 40.7504 143.338C40.2087 143.015 39.8627 142.809 39.7108 142.722L49.3322 137.167C49.4839 137.255 49.9439 137.51 50.7129 137.931C51.4819 138.353 52.1025 138.701 52.5769 138.975C53.0513 139.249 53.6782 139.643 54.4561 140.158C55.2341 140.673 55.8512 141.127 56.3072 141.522C56.7622 141.916 57.2079 142.376 57.6446 142.902C58.081 143.428 58.3375 143.91 58.4136 144.348C58.489 144.787 58.404 145.241 58.1571 145.712C57.9111 146.183 57.446 146.616 56.7627 147.011C56.2307 147.318 55.6575 147.545 55.0402 147.693Z" fill="#0D0B33"/>
<path d="M3.44531 142.746C6.6049 150.706 9.04676 154.364 15.7551 158.133V168.904C9.62985 164.569 6.35043 161.909 3.44531 152.748V142.746Z" fill="#0D0B33"/>
<path d="M20.3711 161.982L24.9873 164.291V175.062L20.3711 172.754V161.982Z" fill="#0D0B33"/>
<path d="M98.0062 161.1C76.3734 173.589 41.2997 173.589 19.6669 161.1C9.454 155.204 4.06263 147.579 3.49281 139.857L3.44531 129.086C3.59054 137.158 8.99774 145.205 19.6669 151.364C41.2997 163.853 76.3734 163.853 98.0062 151.364C108.631 145.231 114.037 137.225 114.226 129.187V128.316C114.233 128.606 114.233 128.897 114.226 129.187V138.922C114.038 146.961 108.631 154.966 98.0062 161.1Z" fill="#79EFBD" stroke="#0D0B33" stroke-width="0.59185"/>
<path d="M98.0092 150.861C76.3764 163.35 41.3027 163.35 19.6699 150.861C-1.96289 138.373 -1.96289 118.125 19.6699 105.636C41.3027 93.1474 76.3764 93.1474 98.0092 105.636C119.642 118.125 119.642 138.373 98.0092 150.861Z" fill="#F7F6FF" stroke="#0D0B33" stroke-width="0.59185"/>
<path d="M69.3721 137.659C69.6946 136.202 69.0115 134.679 67.3222 133.091C71.5922 133.891 75.2829 133.195 78.3958 131.004C79.5342 130.215 80.2736 129.388 80.6147 128.523C80.9555 127.657 80.9135 126.778 80.4858 125.885C80.0595 124.992 79.4131 124.126 78.5502 123.289C77.687 122.451 76.5719 121.561 75.2054 120.618L82.3785 116.477L77.9954 113.947L71.0215 117.973C70.2625 117.535 69.0861 116.878 67.4922 116.001L74.523 111.942L70.1392 109.412L62.9661 113.553C62.3206 113.202 61.3907 112.676 60.1763 111.975L54.1706 108.475L49.5023 111.17L52.6617 112.994C54.1039 113.827 54.303 114.687 53.2595 115.574L45.0899 120.29C45.28 120.4 45.4218 120.493 45.5168 120.57L45.0612 120.307L33.6189 126.912C32.4996 127.383 31.4652 127.345 30.5162 126.797L27.3571 124.974L21.2654 127.471L26.9584 130.758C27.319 130.966 27.8357 131.27 28.5106 131.67C29.184 132.069 29.6914 132.368 30.0331 132.565L22.7747 136.755L27.1592 139.287L34.3322 135.146C35.1096 135.617 36.2578 136.29 37.7759 137.167L30.6316 141.291L35.0148 143.822L42.2732 139.631C43.9054 140.486 45.4274 141.201 46.8413 141.776C48.2559 142.35 49.7358 142.827 51.2824 143.205C52.8284 143.583 54.304 143.794 55.7082 143.837C57.1121 143.882 58.5684 143.747 60.0781 143.435C61.5861 143.122 63.0809 142.616 64.5609 141.914C67.4457 140.535 69.0492 139.116 69.3721 137.659ZM62.4545 119.008C62.5874 119.085 62.9669 119.298 63.5933 119.649C64.2201 119.999 64.7416 120.29 65.1591 120.52C65.5766 120.75 66.1032 121.081 66.7392 121.514C67.3748 121.947 67.8822 122.327 68.2618 122.656C68.6413 122.984 69.007 123.376 69.3576 123.831C69.7093 124.286 69.8986 124.702 69.9267 125.079C69.9556 125.457 69.8462 125.855 69.599 126.271C69.3527 126.687 68.9163 127.076 68.2902 127.438C67.7588 127.744 67.1895 127.975 66.5822 128.128C65.9756 128.282 65.3533 128.344 64.7181 128.317C64.0826 128.29 63.4744 128.235 62.8958 128.153C62.3175 128.071 61.6812 127.906 60.9889 127.66C60.2965 127.413 59.7035 127.192 59.2105 126.995C58.717 126.797 58.1429 126.526 57.4883 126.181C56.8336 125.836 56.3397 125.573 56.0079 125.392C55.6758 125.211 55.2347 124.957 54.6841 124.628C54.1333 124.299 53.8114 124.108 53.7163 124.053L62.4549 119.008L62.4546 119.008L62.4545 119.008ZM55.0402 137.109C54.4227 137.256 53.8109 137.342 53.2036 137.364C52.5967 137.385 51.9368 137.333 51.2257 137.207C50.5141 137.082 49.864 136.936 49.2761 136.772C48.687 136.608 48.0281 136.38 47.2977 136.09C46.5662 135.799 45.9455 135.534 45.4324 135.293C44.9201 135.052 44.3275 134.753 43.6534 134.397C42.9805 134.041 42.4629 133.759 42.1024 133.551C41.7418 133.343 41.2915 133.077 40.7504 132.754C40.2087 132.431 39.8627 132.225 39.7108 132.138L49.3322 126.583C49.4839 126.671 49.9439 126.926 50.7129 127.347C51.4819 127.769 52.1025 128.117 52.5769 128.391C53.0513 128.665 53.6782 129.059 54.4561 129.574C55.2341 130.089 55.8512 130.543 56.3072 130.938C56.7622 131.332 57.2079 131.792 57.6446 132.318C58.081 132.844 58.3375 133.326 58.4136 133.764C58.489 134.203 58.404 134.657 58.1571 135.128C57.9111 135.599 57.446 136.032 56.7627 136.427C56.2307 136.734 55.6575 136.961 55.0402 137.109Z" fill="#0D0B33"/>
<path d="M3.44531 132.162C6.6049 140.122 9.04676 143.78 15.7551 147.549V158.321C9.62985 153.985 6.35043 151.325 3.44531 142.164V132.162Z" fill="#0D0B33"/>
<path d="M20.3711 151.398L24.9873 153.707V164.478L20.3711 162.17V151.398Z" fill="#0D0B33"/>
<path d="M98.0062 150.512C76.3734 163.001 41.2997 163.001 19.6669 150.512C9.454 144.616 4.06263 136.991 3.49281 129.269L3.44531 118.498C3.59054 126.57 8.99774 134.617 19.6669 140.776C41.2997 153.265 76.3734 153.265 98.0062 140.776C108.631 134.643 114.037 126.637 114.226 118.599V117.729C114.233 118.019 114.233 118.309 114.226 118.599V128.334C114.038 136.373 108.631 144.378 98.0062 150.512Z" fill="#79EFBD" stroke="#0D0B33" stroke-width="0.59185"/>
<path d="M98.0092 140.273C76.3764 152.762 41.3027 152.762 19.6699 140.273C-1.96289 127.785 -1.96289 107.537 19.6699 95.0481C41.3027 82.5595 76.3764 82.5595 98.0092 95.0481C119.642 107.537 119.642 127.785 98.0092 140.273Z" fill="#F7F6FF" stroke="#0D0B33" stroke-width="0.59185"/>
<path d="M69.3721 127.071C69.6946 125.614 69.0115 124.092 67.3222 122.503C71.5922 123.303 75.2829 122.607 78.3958 120.416C79.5342 119.627 80.2736 118.8 80.6147 117.935C80.9555 117.069 80.9135 116.191 80.4858 115.297C80.0595 114.404 79.4131 113.539 78.5502 112.701C77.687 111.863 76.5719 110.973 75.2054 110.031L82.3785 105.889L77.9954 103.359L71.0215 107.385C70.2625 106.947 69.0861 106.29 67.4922 105.413L74.523 101.354L70.1392 98.8237L62.9661 102.965C62.3206 102.614 61.3907 102.088 60.1763 101.387L54.1706 97.8871L49.5023 100.582L52.6617 102.406C54.1039 103.239 54.303 104.099 53.2595 104.986L45.0899 109.702C45.28 109.812 45.4218 109.905 45.5168 109.982L45.0612 109.719L33.6189 116.324C32.4996 116.796 31.4652 116.757 30.5162 116.21L27.3571 114.386L21.2654 116.884L26.9584 120.17C27.319 120.378 27.8357 120.682 28.5106 121.082C29.184 121.482 29.6914 121.78 30.0331 121.977L22.7747 126.167L27.1592 128.699L34.3322 124.558C35.1096 125.029 36.2578 125.702 37.7759 126.579L30.6316 130.703L35.0148 133.234L42.2732 129.043C43.9054 129.898 45.4274 130.613 46.8413 131.188C48.2559 131.763 49.7358 132.24 51.2824 132.617C52.8284 132.995 54.304 133.206 55.7082 133.249C57.1121 133.294 58.5684 133.159 60.0781 132.847C61.5861 132.534 63.0809 132.028 64.5609 131.326C67.4457 129.947 69.0492 128.528 69.3721 127.071ZM62.4545 108.42C62.5874 108.497 62.9669 108.71 63.5933 109.061C64.2201 109.411 64.7416 109.702 65.1591 109.932C65.5766 110.162 66.1032 110.493 66.7392 110.926C67.3748 111.359 67.8822 111.74 68.2618 112.068C68.6413 112.397 69.007 112.788 69.3576 113.243C69.7093 113.698 69.8986 114.114 69.9267 114.491C69.9556 114.87 69.8462 115.267 69.599 115.683C69.3527 116.099 68.9163 116.488 68.2902 116.85C67.7588 117.156 67.1895 117.387 66.5822 117.54C65.9756 117.694 65.3533 117.757 64.7181 117.729C64.0826 117.702 63.4744 117.647 62.8958 117.565C62.3175 117.483 61.6812 117.318 60.9889 117.072C60.2965 116.826 59.7035 116.604 59.2105 116.407C58.717 116.209 58.1429 115.938 57.4883 115.593C56.8336 115.248 56.3397 114.985 56.0079 114.804C55.6758 114.624 55.2347 114.369 54.6841 114.04C54.1333 113.711 53.8114 113.52 53.7163 113.465L62.4549 108.42L62.4546 108.42L62.4545 108.42ZM55.0402 126.521C54.4227 126.668 53.8109 126.754 53.2036 126.776C52.5967 126.797 51.9368 126.745 51.2257 126.619C50.5141 126.494 49.864 126.348 49.2761 126.184C48.687 126.02 48.0281 125.792 47.2977 125.502C46.5662 125.212 45.9455 124.946 45.4324 124.705C44.9201 124.464 44.3275 124.165 43.6534 123.809C42.9805 123.453 42.4629 123.171 42.1024 122.963C41.7418 122.755 41.2915 122.489 40.7504 122.166C40.2087 121.843 39.8627 121.637 39.7108 121.55L49.3322 115.995C49.4839 116.083 49.9439 116.338 50.7129 116.759C51.4819 117.181 52.1025 117.529 52.5769 117.803C53.0513 118.077 53.6782 118.471 54.4561 118.986C55.2341 119.501 55.8512 119.955 56.3072 120.35C56.7622 120.744 57.2079 121.204 57.6446 121.73C58.081 122.256 58.3375 122.738 58.4136 123.176C58.489 123.615 58.404 124.069 58.1571 124.54C57.9111 125.012 57.446 125.444 56.7627 125.839C56.2307 126.146 55.6575 126.373 55.0402 126.521Z" fill="#0D0B33"/>
<path d="M3.44531 121.574C6.6049 129.534 9.04676 133.192 15.7551 136.962V147.733C9.62985 143.397 6.35043 140.737 3.44531 131.576V121.574Z" fill="#0D0B33"/>
<path d="M20.3711 140.811L24.9873 143.119V153.89L20.3711 151.582V140.811Z" fill="#0D0B33"/>
<path d="M98.0062 139.93C76.3734 152.419 41.2997 152.419 19.6669 139.93C9.454 134.034 4.06263 126.409 3.49281 118.687L3.44531 107.916C3.59054 115.988 8.99774 124.035 19.6669 130.194C41.2997 142.683 76.3734 142.683 98.0062 130.194C108.631 124.061 114.037 116.055 114.226 108.017V107.146C114.233 107.437 114.233 107.727 114.226 108.017V117.752C114.038 125.791 108.631 133.796 98.0062 139.93Z" fill="#79EFBD" stroke="#0D0B33" stroke-width="0.59185"/>
<path d="M98.0092 129.691C76.3764 142.18 41.3027 142.18 19.6699 129.691C-1.96289 117.203 -1.96289 96.9547 19.6699 84.4661C41.3027 71.9775 76.3764 71.9775 98.0092 84.4661C119.642 96.9547 119.642 117.203 98.0092 129.691Z" fill="#F7F6FF" stroke="#0D0B33" stroke-width="0.59185"/>
<path d="M69.3721 116.491C69.6946 115.034 69.0115 113.511 67.3222 111.923C71.5922 112.723 75.2829 112.027 78.3958 109.836C79.5342 109.047 80.2736 108.22 80.6147 107.355C80.9555 106.489 80.9135 105.611 80.4858 104.717C80.0595 103.824 79.4131 102.959 78.5502 102.121C77.687 101.283 76.5719 100.393 75.2054 99.4505L82.3785 95.3094L77.9954 92.779L71.0215 96.805C70.2625 96.3668 69.0861 95.7095 67.4922 94.8332L74.523 90.7744L70.1392 88.2436L62.9661 92.3847C62.3206 92.0341 61.3907 91.5084 60.1763 90.8073L54.1706 87.3071L49.5023 90.0021L52.6617 91.826C54.1039 92.6586 54.303 93.5187 53.2595 94.4059L45.0899 99.1222C45.28 99.2319 45.4218 99.325 45.5168 99.4018L45.0612 99.1387L33.6189 105.744C32.4996 106.215 31.4652 106.177 30.5162 105.63L27.3571 103.806L21.2654 106.304L26.9584 109.59C27.319 109.798 27.8357 110.102 28.5106 110.502C29.184 110.901 29.6914 111.2 30.0331 111.397L22.7747 115.587L27.1592 118.119L34.3322 113.978C35.1096 114.449 36.2578 115.122 37.7759 115.999L30.6316 120.123L35.0148 122.654L42.2732 118.463C43.9054 119.318 45.4274 120.033 46.8413 120.608C48.2559 121.182 49.7358 121.66 51.2824 122.037C52.8284 122.415 54.304 122.626 55.7082 122.669C57.1121 122.714 58.5684 122.579 60.0781 122.267C61.5861 121.954 63.0809 121.448 64.5609 120.746C67.4457 119.367 69.0492 117.948 69.3721 116.491ZM62.4545 97.8399C62.5874 97.9166 62.9669 98.1302 63.5933 98.4808C64.2201 98.8313 64.7416 99.1216 65.1591 99.3516C65.5766 99.5817 66.1032 99.9132 66.7392 100.346C67.3748 100.779 67.8822 101.159 68.2618 101.488C68.6413 101.816 69.007 102.208 69.3576 102.663C69.7093 103.118 69.8986 103.534 69.9267 103.911C69.9556 104.289 69.8462 104.687 69.599 105.103C69.3527 105.519 68.9163 105.908 68.2902 106.27C67.7588 106.576 67.1895 106.807 66.5822 106.96C65.9756 107.114 65.3533 107.176 64.7181 107.149C64.0826 107.122 63.4744 107.067 62.8958 106.985C62.3175 106.903 61.6812 106.738 60.9889 106.492C60.2965 106.245 59.7035 106.024 59.2105 105.827C58.717 105.629 58.1429 105.358 57.4883 105.013C56.8336 104.668 56.3397 104.405 56.0079 104.224C55.6758 104.043 55.2347 103.789 54.6841 103.46C54.1333 103.131 53.8114 102.94 53.7163 102.885L62.4549 97.84L62.4546 97.8399L62.4545 97.8399ZM55.0402 115.941C54.4227 116.088 53.8109 116.174 53.2036 116.196C52.5967 116.217 51.9368 116.165 51.2257 116.039C50.5141 115.914 49.864 115.768 49.2761 115.604C48.687 115.44 48.0281 115.212 47.2977 114.922C46.5662 114.631 45.9455 114.366 45.4324 114.125C44.9201 113.884 44.3275 113.585 43.6534 113.229C42.9805 112.873 42.4629 112.591 42.1024 112.383C41.7418 112.175 41.2915 111.909 40.7504 111.586C40.2087 111.263 39.8627 111.057 39.7108 110.97L49.3322 105.415C49.4839 105.503 49.9439 105.758 50.7129 106.179C51.4819 106.601 52.1025 106.949 52.5769 107.223C53.0513 107.497 53.6782 107.891 54.4561 108.406C55.2341 108.921 55.8512 109.375 56.3072 109.77C56.7622 110.164 57.2079 110.624 57.6446 111.15C58.081 111.676 58.3375 112.158 58.4136 112.596C58.489 113.035 58.404 113.489 58.1571 113.96C57.9111 114.431 57.446 114.864 56.7627 115.259C56.2307 115.566 55.6575 115.793 55.0402 115.941Z" fill="#0D0B33"/>
<path d="M3.44531 110.992C6.6049 118.952 9.04676 122.61 15.7551 126.379V137.151C9.62985 132.815 6.35043 130.155 3.44531 120.994V110.992Z" fill="#0D0B33"/>
<path d="M20.3711 130.229L24.9873 132.537V143.308L20.3711 141V130.229Z" fill="#0D0B33"/>
<path d="M98.0062 129.344C76.3734 141.833 41.2997 141.833 19.6669 129.344C9.454 123.448 4.06263 115.823 3.49281 108.101L3.44531 97.3299C3.59054 105.402 8.99774 113.449 19.6669 119.608C41.2997 132.097 76.3734 132.097 98.0062 119.608C108.631 113.475 114.037 105.469 114.226 97.4309V96.5605C114.233 96.8506 114.233 97.1408 114.226 97.4309V107.166C114.038 115.205 108.631 123.21 98.0062 129.344Z" fill="#79EFBD" stroke="#0D0B33" stroke-width="0.59185"/>
<path d="M98.0092 119.105C76.3764 131.594 41.3027 131.594 19.6699 119.105C-1.96289 106.617 -1.96289 86.3687 19.6699 73.8801C41.3027 61.3915 76.3764 61.3915 98.0092 73.8801C119.642 86.3687 119.642 106.617 98.0092 119.105Z" fill="#F7F6FF" stroke="#0D0B33" stroke-width="0.59185"/>
<path d="M69.3721 105.903C69.6946 104.446 69.0115 102.924 67.3222 101.335C71.5922 102.135 75.2829 101.439 78.3958 99.2479C79.5342 98.459 80.2736 97.6325 80.6147 96.767C80.9555 95.9012 80.9135 95.0226 80.4858 94.1295C80.0595 93.2364 79.4131 92.3706 78.5502 91.5329C77.687 90.695 76.5719 89.8046 75.2054 88.8626L82.3785 84.7215L77.9954 82.1911L71.0215 86.2171C70.2625 85.7789 69.0861 85.1216 67.4922 84.2453L74.523 80.1865L70.1392 77.6557L62.9661 81.7968C62.3206 81.4462 61.3907 80.9205 60.1763 80.2194L54.1706 76.7192L49.5023 79.4142L52.6617 81.2381C54.1039 82.0707 54.303 82.9308 53.2595 83.818L45.0899 88.5343C45.28 88.644 45.4218 88.7372 45.5168 88.8139L45.0612 88.5508L33.6189 95.1565C32.4996 95.6276 31.4652 95.5895 30.5162 95.0416L27.3571 93.2178L21.2654 95.7156L26.9584 99.0022C27.319 99.2104 27.8357 99.5142 28.5106 99.9137C29.184 100.314 29.6914 100.612 30.0331 100.809L22.7747 104.999L27.1592 107.531L34.3322 103.39C35.1096 103.861 36.2578 104.534 37.7759 105.411L30.6316 109.535L35.0148 112.066L42.2732 107.875C43.9054 108.73 45.4274 109.445 46.8413 110.02C48.2559 110.595 49.7358 111.072 51.2824 111.449C52.8284 111.827 54.304 112.038 55.7082 112.082C57.1121 112.126 58.5684 111.991 60.0781 111.679C61.5861 111.366 63.0809 110.86 64.5609 110.158C67.4457 108.779 69.0492 107.36 69.3721 105.903ZM62.4545 87.252C62.5874 87.3288 62.9669 87.5423 63.5933 87.8929C64.2201 88.2434 64.7416 88.5337 65.1591 88.7637C65.5766 88.9939 66.1032 89.3253 66.7392 89.7581C67.3748 90.1909 67.8822 90.5716 68.2618 90.9001C68.6413 91.2285 69.007 91.6205 69.3576 92.0748C69.7093 92.5296 69.8986 92.9458 69.9267 93.3235C69.9556 93.7016 69.8462 94.0988 69.599 94.5149C69.3527 94.9313 68.9163 95.3202 68.2902 95.6817C67.7588 95.9884 67.1895 96.2187 66.5822 96.3723C65.9756 96.5259 65.3533 96.5886 64.7181 96.5614C64.0826 96.5342 63.4744 96.4792 62.8958 96.3969C62.3175 96.3148 61.6812 96.1503 60.9889 95.9039C60.2965 95.6576 59.7035 95.4358 59.2105 95.2386C58.717 95.0415 58.1429 94.7705 57.4883 94.4253C56.8336 94.08 56.3397 93.8172 56.0079 93.6365C55.6758 93.4556 55.2347 93.2009 54.6841 92.8722C54.1333 92.5435 53.8114 92.3519 53.7163 92.2969L62.4549 87.2521L62.4546 87.252L62.4545 87.252ZM55.0402 105.353C54.4227 105.5 53.8109 105.586 53.2036 105.608C52.5967 105.629 51.9368 105.577 51.2257 105.451C50.5141 105.326 49.864 105.18 49.2761 105.016C48.687 104.852 48.0281 104.624 47.2977 104.334C46.5662 104.044 45.9455 103.778 45.4324 103.537C44.9201 103.296 44.3275 102.997 43.6534 102.641C42.9805 102.285 42.4629 102.003 42.1024 101.795C41.7418 101.587 41.2915 101.321 40.7504 100.998C40.2087 100.675 39.8627 100.469 39.7108 100.382L49.3322 94.8273C49.4839 94.9148 49.9439 95.1697 50.7129 95.5914C51.4819 96.0132 52.1025 96.3612 52.5769 96.6351C53.0513 96.9089 53.6782 97.3032 54.4561 97.8185C55.2341 98.3329 55.8512 98.7873 56.3072 99.182C56.7622 99.5764 57.2079 100.036 57.6446 100.562C58.081 101.088 58.3375 101.57 58.4136 102.008C58.489 102.447 58.404 102.901 58.1571 103.372C57.9111 103.844 57.446 104.276 56.7627 104.671C56.2307 104.978 55.6575 105.205 55.0402 105.353Z" fill="#0D0B33"/>
<path d="M3.44531 100.406C6.6049 108.366 9.04676 112.024 15.7551 115.794V126.565C9.62985 122.229 6.35043 119.569 3.44531 110.408V100.406Z" fill="#0D0B33"/>
<path d="M20.3711 119.643L24.9873 121.951V132.722L20.3711 130.414V119.643Z" fill="#0D0B33"/>
<path d="M98.0062 118.758C76.3734 131.247 41.2997 131.247 19.6669 118.758C9.454 112.862 4.06263 105.237 3.49281 97.5151L3.44531 86.744C3.59054 94.8164 8.99774 102.863 19.6669 109.022C41.2997 121.511 76.3734 121.511 98.0062 109.022C108.631 102.889 114.037 94.8834 114.226 86.8449V85.9746C114.233 86.2647 114.233 86.5548 114.226 86.8449V96.5804C114.038 104.619 108.631 112.624 98.0062 118.758Z" fill="#79EFBD" stroke="#0D0B33" stroke-width="0.59185"/>
<path d="M98.0092 108.519C76.3764 121.008 41.3027 121.008 19.6699 108.519C-1.96289 96.0309 -1.96289 75.7828 19.6699 63.2942C41.3027 50.8056 76.3764 50.8056 98.0092 63.2942C119.642 75.7828 119.642 96.0309 98.0092 108.519Z" fill="#F7F6FF" stroke="#0D0B33" stroke-width="0.59185"/>
<path d="M69.3721 95.3171C69.6946 93.8604 69.0115 92.3376 67.3222 90.7491C71.5922 91.5488 75.2829 90.853 78.3958 88.662C79.5342 87.873 80.2736 87.0465 80.6147 86.1811C80.9555 85.3152 80.9135 84.4367 80.4858 83.5435C80.0595 82.6504 79.4131 81.7847 78.5502 80.947C77.687 80.109 76.5719 79.2187 75.2054 78.2766L82.3785 74.1356L77.9954 71.6052L71.0215 75.6312C70.2625 75.193 69.0861 74.5357 67.4922 73.6594L74.523 69.6005L70.1392 67.0698L62.9661 71.2109C62.3206 70.8602 61.3907 70.3346 60.1763 69.6335L54.1706 66.1332L49.5023 68.8283L52.6617 70.6522C54.1039 71.4848 54.303 72.3448 53.2595 73.2321L45.0899 77.9483C45.28 78.058 45.4218 78.1512 45.5168 78.2279L45.0612 77.9649L33.6189 84.5706C32.4996 85.0416 31.4652 85.0035 30.5162 84.4557L27.3571 82.6319L21.2654 85.1297L26.9584 88.4163C27.319 88.6244 27.8357 88.9283 28.5106 89.3278C29.184 89.7276 29.6914 90.026 30.0331 90.2233L22.7747 94.4136L27.1592 96.9447L34.3322 92.8037C35.1096 93.2749 36.2578 93.9485 37.7759 94.8249L30.6316 98.9493L35.0148 101.48L42.2732 97.2895C43.9054 98.1443 45.4274 98.8595 46.8413 99.4339C48.2559 100.009 49.7358 100.486 51.2824 100.863C52.8284 101.241 54.304 101.452 55.7082 101.496C57.1121 101.54 58.5684 101.405 60.0781 101.093C61.5861 100.781 63.0809 100.274 64.5609 99.5726C67.4457 98.1932 69.0492 96.7743 69.3721 95.3171ZM62.4545 76.6661C62.5874 76.7428 62.9669 76.9564 63.5933 77.3069C64.2201 77.6575 64.7416 77.9478 65.1591 78.1777C65.5766 78.4079 66.1032 78.7393 66.7392 79.1722C67.3748 79.6049 67.8822 79.9856 68.2618 80.3141C68.6413 80.6426 69.007 81.0346 69.3576 81.4889C69.7093 81.9437 69.8986 82.3599 69.9267 82.7376C69.9556 83.1157 69.8462 83.5129 69.599 83.9289C69.3527 84.3454 68.9163 84.7343 68.2902 85.0957C67.7588 85.4025 67.1895 85.6327 66.5822 85.7863C65.9756 85.94 65.3533 86.0026 64.7181 85.9755C64.0826 85.9483 63.4744 85.8933 62.8958 85.811C62.3175 85.7289 61.6812 85.5644 60.9889 85.3179C60.2965 85.0717 59.7035 84.8498 59.2105 84.6527C58.717 84.4555 58.1429 84.1845 57.4883 83.8393C56.8336 83.494 56.3397 83.2312 56.0079 83.0505C55.6758 82.8696 55.2347 82.615 54.6841 82.2863C54.1333 81.9575 53.8114 81.7659 53.7163 81.711L62.4549 76.6662L62.4546 76.666L62.4545 76.6661ZM55.0402 94.7668C54.4227 94.9145 53.8109 94.9998 53.2036 95.0219C52.5967 95.0433 51.9368 94.9914 51.2257 94.8653C50.5141 94.7397 49.864 94.5941 49.2761 94.43C48.687 94.2659 48.0281 94.0381 47.2977 93.7483C46.5662 93.4576 45.9455 93.1919 45.4324 92.9508C44.9201 92.7099 44.3275 92.4115 43.6534 92.0554C42.9805 91.6992 42.4629 91.4171 42.1024 91.209C41.7418 91.0008 41.2915 90.7348 40.7504 90.4118C40.2087 90.0888 39.8627 89.8835 39.7108 89.7958L49.3322 84.2414C49.4839 84.3289 49.9439 84.5838 50.7129 85.0054C51.4819 85.4272 52.1025 85.7752 52.5769 86.0491C53.0513 86.323 53.6782 86.7173 54.4561 87.2326C55.2341 87.7469 55.8512 88.2014 56.3072 88.5961C56.7622 88.9904 57.2079 89.4501 57.6446 89.9764C58.081 90.5021 58.3375 90.9842 58.4136 91.4225C58.489 91.8611 58.404 92.3152 58.1571 92.7863C57.9111 93.2577 57.446 93.6904 56.7627 94.0849C56.2307 94.3919 55.6575 94.6189 55.0402 94.7668Z" fill="#0D0B33"/>
<path d="M3.44531 89.8203C6.6049 97.7802 9.04676 101.438 15.7551 105.208V115.979C9.62985 111.643 6.35043 108.983 3.44531 99.8221V89.8203Z" fill="#0D0B33"/>
<path d="M20.3711 109.057L24.9873 111.365V122.136L20.3711 119.828V109.057Z" fill="#0D0B33"/>
<path d="M98.0062 108.172C76.3734 120.661 41.2997 120.661 19.6669 108.172C9.454 102.276 4.06263 94.651 3.49281 86.9291L3.44531 76.158C3.59054 84.2304 8.99774 92.2772 19.6669 98.4365C41.2997 110.925 76.3734 110.925 98.0062 98.4365C108.631 92.3028 114.037 84.2975 114.226 76.259V75.3887C114.233 75.6788 114.233 75.9689 114.226 76.259V85.9945C114.038 94.0331 108.631 102.039 98.0062 108.172Z" fill="#79EFBD" stroke="#0D0B33" stroke-width="0.59185"/>
<path d="M98.0092 97.9335C76.3764 110.422 41.3027 110.422 19.6699 97.9335C-1.96289 85.4449 -1.96289 65.1969 19.6699 52.7083C41.3027 40.2196 76.3764 40.2196 98.0092 52.7083C119.642 65.1969 119.642 85.4449 98.0092 97.9335Z" fill="#F7F6FF" stroke="#0D0B33" stroke-width="0.59185"/>
<path d="M69.3721 84.7312C69.6946 83.2745 69.0115 81.7517 67.3222 80.1631C71.5922 80.9629 75.2829 80.267 78.3958 78.076C79.5342 77.2871 80.2736 76.4606 80.6147 75.5951C80.9555 74.7293 80.9135 73.8508 80.4858 72.9576C80.0595 72.0645 79.4131 71.1987 78.5502 70.361C77.687 69.5231 76.5719 68.6328 75.2054 67.6907L82.3785 63.5496L77.9954 61.0192L71.0215 65.0452C70.2625 64.6071 69.0861 63.9498 67.4922 63.0735L74.523 59.0146L70.1392 56.4839L62.9661 60.6249C62.3206 60.2743 61.3907 59.7486 60.1763 59.0475L54.1706 55.5473L49.5023 58.2423L52.6617 60.0662C54.1039 60.8988 54.303 61.7589 53.2595 62.6461L45.0899 67.3624C45.28 67.4721 45.4218 67.5653 45.5168 67.642L45.0612 67.379L33.6189 73.9846C32.4996 74.4557 31.4652 74.4176 30.5162 73.8698L27.3571 72.046L21.2654 74.5437L26.9584 77.8303C27.319 78.0385 27.8357 78.3423 28.5106 78.7418C29.184 79.1417 29.6914 79.4401 30.0331 79.6374L22.7747 83.8276L27.1592 86.3588L34.3322 82.2178C35.1096 82.689 36.2578 83.3626 37.7759 84.239L30.6316 88.3634L35.0148 90.8939L42.2732 86.7036C43.9054 87.5584 45.4274 88.2736 46.8413 88.848C48.2559 89.4227 49.7358 89.8997 51.2824 90.2774C52.8284 90.6553 54.304 90.8659 55.7082 90.9096C57.1121 90.9539 58.5684 90.8192 60.0781 90.5074C61.5861 90.1946 63.0809 89.6882 64.5609 88.9866C67.4457 87.6073 69.0492 86.1883 69.3721 84.7312ZM62.4545 66.0802C62.5874 66.1569 62.9669 66.3705 63.5933 66.721C64.2201 67.0716 64.7416 67.3618 65.1591 67.5918C65.5766 67.822 66.1032 68.1534 66.7392 68.5863C67.3748 69.019 67.8822 69.3997 68.2618 69.7282C68.6413 70.0567 69.007 70.4486 69.3576 70.903C69.7093 71.3578 69.8986 71.774 69.9267 72.1516C69.9556 72.5297 69.8462 72.9269 69.599 73.343C69.3527 73.7594 68.9163 74.1483 68.2902 74.5098C67.7588 74.8166 67.1895 75.0468 66.5822 75.2004C65.9756 75.354 65.3533 75.4167 64.7181 75.3895C64.0826 75.3624 63.4744 75.3073 62.8958 75.225C62.3175 75.143 61.6812 74.9785 60.9889 74.732C60.2965 74.4857 59.7035 74.2639 59.2105 74.0668C58.717 73.8696 58.1429 73.5986 57.4883 73.2534C56.8336 72.9081 56.3397 72.6453 56.0079 72.4646C55.6758 72.2837 55.2347 72.0291 54.6841 71.7003C54.1333 71.3716 53.8114 71.18 53.7163 71.1251L62.4549 66.0803L62.4546 66.0801L62.4545 66.0802ZM55.0402 84.1808C54.4227 84.3286 53.8109 84.4138 53.2036 84.436C52.5967 84.4574 51.9368 84.4054 51.2257 84.2794C50.5141 84.1538 49.864 84.0082 49.2761 83.8441C48.687 83.68 48.0281 83.4521 47.2977 83.1624C46.5662 82.8717 45.9455 82.6059 45.4324 82.3648C44.9201 82.124 44.3275 81.8255 43.6534 81.4695C42.9805 81.1133 42.4629 80.8311 42.1024 80.6231C41.7418 80.4149 41.2915 80.1489 40.7504 79.8258C40.2087 79.5028 39.8627 79.2976 39.7108 79.2099L49.3322 73.6554C49.4839 73.743 49.9439 73.9978 50.7129 74.4195C51.4819 74.8413 52.1025 75.1893 52.5769 75.4632C53.0513 75.7371 53.6782 76.1313 54.4561 76.6466C55.2341 77.161 55.8512 77.6155 56.3072 78.0101C56.7622 78.4045 57.2079 78.8642 57.6446 79.3905C58.081 79.9162 58.3375 80.3983 58.4136 80.8366C58.489 81.2752 58.404 81.7293 58.1571 82.2004C57.9111 82.6717 57.446 83.1045 56.7627 83.499C56.2307 83.806 55.6575 84.0329 55.0402 84.1808Z" fill="#0D0B33"/>
<path d="M3.44531 79.2344C6.6049 87.1942 9.04676 90.8523 15.7551 94.6217V105.393C9.62985 101.057 6.35043 98.3971 3.44531 89.2361V79.2344Z" fill="#0D0B33"/>
<path d="M20.3711 98.4707L24.9873 100.779V111.55L20.3711 109.242V98.4707Z" fill="#0D0B33"/>
<path d="M98.0062 97.5883C76.3734 110.077 41.2997 110.077 19.6669 97.5883C9.454 91.6923 4.06263 84.067 3.49281 76.3452L3.44531 65.5741C3.59054 73.6465 8.99774 81.6932 19.6669 87.8525C41.2997 100.341 76.3734 100.341 98.0062 87.8525C108.631 81.7188 114.037 73.7135 114.226 65.675V64.8047C114.233 65.0948 114.233 65.3849 114.226 65.675V75.4105C114.038 83.4491 108.631 91.4546 98.0062 97.5883Z" fill="#79EFBD" stroke="#0D0B33" stroke-width="0.59185"/>
<path d="M98.0092 87.3496C76.3764 99.8382 41.3027 99.8382 19.6699 87.3496C-1.96289 74.8609 -1.96289 54.6129 19.6699 42.1243C41.3027 29.6357 76.3764 29.6357 98.0092 42.1243C119.642 54.6129 119.642 74.8609 98.0092 87.3496Z" fill="#F7F6FF" stroke="#0D0B33" stroke-width="0.59185"/>
<path d="M69.3721 74.1492C69.6946 72.6925 69.0115 71.1696 67.3222 69.5811C71.5922 70.3808 75.2829 69.685 78.3958 67.494C79.5342 66.7051 80.2736 65.8786 80.6147 65.0131C80.9555 64.1473 80.9135 63.2687 80.4858 62.3756C80.0595 61.4825 79.4131 60.6167 78.5502 59.779C77.687 58.9411 76.5719 58.0507 75.2054 57.1087L82.3785 52.9676L77.9954 50.4372L71.0215 54.4632C70.2625 54.025 69.0861 53.3677 67.4922 52.4914L74.523 48.4326L70.1392 45.9018L62.9661 50.0429C62.3206 49.6923 61.3907 49.1666 60.1763 48.4655L54.1706 44.9653L49.5023 47.6603L52.6617 49.4842C54.1039 50.3168 54.303 51.1769 53.2595 52.0641L45.0899 56.7804C45.28 56.8901 45.4218 56.9832 45.5168 57.06L45.0612 56.7969L33.6189 63.4026C32.4996 63.8736 31.4652 63.8355 30.5162 63.2877L27.3571 61.4639L21.2654 63.9617L26.9584 67.2483C27.319 67.4565 27.8357 67.7603 28.5106 68.1598C29.184 68.5596 29.6914 68.8581 30.0331 69.0553L22.7747 73.2456L27.1592 75.7767L34.3322 71.6357C35.1096 72.107 36.2578 72.7805 37.7759 73.6569L30.6316 77.7814L35.0148 80.3118L42.2732 76.1216C43.9054 76.9763 45.4274 77.6915 46.8413 78.2659C48.2559 78.8407 49.7358 79.3177 51.2824 79.6953C52.8284 80.0733 54.304 80.2839 55.7082 80.3276C57.1121 80.3719 58.5684 80.2372 60.0781 79.9253C61.5861 79.6126 63.0809 79.1061 64.5609 78.4046C67.4457 77.0252 69.0492 75.6063 69.3721 74.1492ZM62.4545 55.4981C62.5874 55.5748 62.9669 55.7884 63.5933 56.139C64.2201 56.4895 64.7416 56.7798 65.1591 57.0098C65.5766 57.2399 66.1032 57.5714 66.7392 58.0042C67.3748 58.4369 67.8822 58.8177 68.2618 59.1462C68.6413 59.4746 69.007 59.8666 69.3576 60.3209C69.7093 60.7757 69.8986 61.1919 69.9267 61.5696C69.9556 61.9477 69.8462 62.3449 69.599 62.761C69.3527 63.1774 68.9163 63.5663 68.2902 63.9278C67.7588 64.2345 67.1895 64.4648 66.5822 64.6184C65.9756 64.772 65.3533 64.8347 64.7181 64.8075C64.0826 64.7803 63.4744 64.7253 62.8958 64.643C62.3175 64.5609 61.6812 64.3964 60.9889 64.15C60.2965 63.9037 59.7035 63.6819 59.2105 63.4847C58.717 63.2876 58.1429 63.0166 57.4883 62.6714C56.8336 62.3261 56.3397 62.0633 56.0079 61.8825C55.6758 61.7016 55.2347 61.447 54.6841 61.1183C54.1333 60.7896 53.8114 60.598 53.7163 60.543L62.4549 55.4982L62.4546 55.4981L62.4545 55.4981ZM55.0402 73.5988C54.4227 73.7466 53.8109 73.8318 53.2036 73.854C52.5967 73.8754 51.9368 73.8234 51.2257 73.6973C50.5141 73.5718 49.864 73.4261 49.2761 73.262C48.687 73.098 48.0281 72.8701 47.2977 72.5804C46.5662 72.2896 45.9455 72.0239 45.4324 71.7828C44.9201 71.542 44.3275 71.2435 43.6534 70.8875C42.9805 70.5312 42.4629 70.2491 42.1024 70.041C41.7418 69.8328 41.2915 69.5669 40.7504 69.2438C40.2087 68.9208 39.8627 68.7156 39.7108 68.6278L49.3322 63.0734C49.4839 63.1609 49.9439 63.4158 50.7129 63.8374C51.4819 64.2593 52.1025 64.6073 52.5769 64.8812C53.0513 65.155 53.6782 65.5493 54.4561 66.0646C55.2341 66.579 55.8512 67.0334 56.3072 67.4281C56.7622 67.8225 57.2079 68.2822 57.6446 68.8085C58.081 69.3341 58.3375 69.8163 58.4136 70.2546C58.489 70.6931 58.404 71.1473 58.1571 71.6184C57.9111 72.0897 57.446 72.5225 56.7627 72.9169C56.2307 73.2239 55.6575 73.4509 55.0402 73.5988Z" fill="#0D0B33"/>
<path d="M3.44531 68.6504C6.6049 76.6102 9.04676 80.2683 15.7551 84.0377V94.8088C9.62985 90.4734 6.35043 87.8132 3.44531 78.6521V68.6504Z" fill="#0D0B33"/>
<path d="M20.3711 87.8867L24.9873 90.1948V100.966L20.3711 98.6578V87.8867Z" fill="#0D0B33"/>
<path d="M98.0062 87.0023C76.3734 99.4909 41.2997 99.4909 19.6669 87.0023C9.454 81.1064 4.06263 73.4811 3.49281 65.7592L3.44531 54.9881C3.59054 63.0605 8.99774 71.1072 19.6669 77.2665C41.2997 89.7552 76.3734 89.7552 98.0062 77.2665C108.631 71.1329 114.037 63.1276 114.226 55.0891V54.2188C114.233 54.5088 114.233 54.799 114.226 55.0891V64.8246C114.038 72.8632 108.631 80.8686 98.0062 87.0023Z" fill="#79EFBD" stroke="#0D0B33" stroke-width="0.59185"/>
<path d="M98.0092 76.7636C76.3764 89.2522 41.3027 89.2522 19.6699 76.7636C-1.96289 64.275 -1.96289 44.027 19.6699 31.5383C41.3027 19.0497 76.3764 19.0497 98.0092 31.5383C119.642 44.027 119.642 64.275 98.0092 76.7636Z" fill="#F7F6FF" stroke="#0D0B33" stroke-width="0.59185"/>
<path d="M69.3721 63.5613C69.6946 62.1046 69.0115 60.5818 67.3222 58.9932C71.5922 59.7929 75.2829 59.0971 78.3958 56.9061C79.5342 56.1172 80.2736 55.2907 80.6147 54.4252C80.9555 53.5594 80.9135 52.6808 80.4858 51.7877C80.0595 50.8946 79.4131 50.0288 78.5502 49.1911C77.687 48.3532 76.5719 47.4629 75.2054 46.5208L82.3785 42.3797L77.9954 39.8493L71.0215 43.8753C70.2625 43.4371 69.0861 42.7798 67.4922 41.9036L74.523 37.8447L70.1392 35.3139L62.9661 39.455C62.3206 39.1044 61.3907 38.5787 60.1763 37.8776L54.1706 34.3774L49.5023 37.0724L52.6617 38.8963C54.1039 39.7289 54.303 40.589 53.2595 41.4762L45.0899 46.1925C45.28 46.3022 45.4218 46.3954 45.5168 46.4721L45.0612 46.209L33.6189 52.8147C32.4996 53.2858 31.4652 53.2477 30.5162 52.6998L27.3571 50.8761L21.2654 53.3738L26.9584 56.6604C27.319 56.8686 27.8357 57.1724 28.5106 57.5719C29.184 57.9718 29.6914 58.2702 30.0331 58.4674L22.7747 62.6577L27.1592 65.1888L34.3322 61.0478C35.1096 61.5191 36.2578 62.1926 37.7759 63.0691L30.6316 67.1935L35.0148 69.7239L42.2732 65.5337C43.9054 66.3884 45.4274 67.1036 46.8413 67.678C48.2559 68.2528 49.7358 68.7298 51.2824 69.1074C52.8284 69.4854 54.304 69.696 55.7082 69.7397C57.1121 69.784 58.5684 69.6493 60.0781 69.3374C61.5861 69.0247 63.0809 68.5182 64.5609 67.8167C67.4457 66.4374 69.0492 65.0184 69.3721 63.5613ZM62.4545 44.9102C62.5874 44.987 62.9669 45.2005 63.5933 45.5511C64.2201 45.9016 64.7416 46.1919 65.1591 46.4219C65.5766 46.6521 66.1032 46.9835 66.7392 47.4163C67.3748 47.8491 67.8822 48.2298 68.2618 48.5583C68.6413 48.8867 69.007 49.2787 69.3576 49.733C69.7093 50.1879 69.8986 50.604 69.9267 50.9817C69.9556 51.3598 69.8462 51.757 69.599 52.1731C69.3527 52.5895 68.9163 52.9784 68.2902 53.3399C67.7588 53.6466 67.1895 53.8769 66.5822 54.0305C65.9756 54.1841 65.3533 54.2468 64.7181 54.2196C64.0826 54.1924 63.4744 54.1374 62.8958 54.0551C62.3175 53.973 61.6812 53.8085 60.9889 53.5621C60.2965 53.3158 59.7035 53.094 59.2105 52.8969C58.717 52.6997 58.1429 52.4287 57.4883 52.0835C56.8336 51.7382 56.3397 51.4754 56.0079 51.2947C55.6758 51.1138 55.2347 50.8591 54.6841 50.5304C54.1333 50.2017 53.8114 50.0101 53.7163 49.9552L62.4549 44.9103L62.4546 44.9102L62.4545 44.9102ZM55.0402 63.0109C54.4227 63.1587 53.8109 63.2439 53.2036 63.2661C52.5967 63.2875 51.9368 63.2355 51.2257 63.1095C50.5141 62.9839 49.864 62.8382 49.2761 62.6742C48.687 62.5101 48.0281 62.2822 47.2977 61.9925C46.5662 61.7017 45.9455 61.436 45.4324 61.1949C44.9201 60.9541 44.3275 60.6556 43.6534 60.2996C42.9805 59.9433 42.4629 59.6612 42.1024 59.4531C41.7418 59.245 41.2915 58.979 40.7504 58.6559C40.2087 58.3329 39.8627 58.1277 39.7108 58.04L49.3322 52.4855C49.4839 52.573 49.9439 52.8279 50.7129 53.2496C51.4819 53.6714 52.1025 54.0194 52.5769 54.2933C53.0513 54.5671 53.6782 54.9614 54.4561 55.4767C55.2341 55.9911 55.8512 56.4455 56.3072 56.8402C56.7622 57.2346 57.2079 57.6943 57.6446 58.2206C58.081 58.7462 58.3375 59.2284 58.4136 59.6667C58.489 60.1053 58.404 60.5594 58.1571 61.0305C57.9111 61.5018 57.446 61.9346 56.7627 62.3291C56.2307 62.6361 55.6575 62.863 55.0402 63.0109Z" fill="#0D0B33"/>
<path d="M3.44531 58.0645C6.6049 66.0243 9.04676 69.6824 15.7551 73.4517V84.2228C9.62985 79.8875 6.35043 77.2272 3.44531 68.0662V58.0645Z" fill="#0D0B33"/>
<path d="M20.3711 77.3008L24.9873 79.6089V90.38L20.3711 88.0719V77.3008Z" fill="#0D0B33"/>
<path d="M98.0062 76.4164C76.3734 88.905 41.2997 88.905 19.6669 76.4164C9.454 70.5205 4.06263 62.8951 3.49281 55.1733L3.44531 44.4022C3.59054 52.4746 8.99774 60.5213 19.6669 66.6806C41.2997 79.1692 76.3734 79.1692 98.0062 66.6806C108.631 60.547 114.037 52.5416 114.226 44.5031V43.6328C114.233 43.9229 114.233 44.213 114.226 44.5031V54.2386C114.038 62.2772 108.631 70.2827 98.0062 76.4164Z" fill="#79EFBD" stroke="#0D0B33" stroke-width="0.59185"/>
<path d="M98.0092 66.1777C76.3764 78.6663 41.3027 78.6663 19.6699 66.1777C-1.96289 53.6891 -1.96289 33.441 19.6699 20.9524C41.3027 8.46378 76.3764 8.46378 98.0092 20.9524C119.642 33.441 119.642 53.6891 98.0092 66.1777Z" fill="#F7F6FF" stroke="#0D0B33" stroke-width="0.59185"/>
<path d="M69.3721 52.9773C69.6946 51.5206 69.0115 49.9978 67.3222 48.4092C71.5922 49.209 75.2829 48.5131 78.3958 46.3221C79.5342 45.5332 80.2736 44.7067 80.6147 43.8412C80.9555 42.9754 80.9135 42.0969 80.4858 41.2037C80.0595 40.3106 79.4131 39.4448 78.5502 38.6071C77.687 37.7692 76.5719 36.8789 75.2054 35.9368L82.3785 31.7957L77.9954 29.2653L71.0215 33.2913C70.2625 32.8532 69.0861 32.1959 67.4922 31.3196L74.523 27.2607L70.1392 24.73L62.9661 28.871C62.3206 28.5204 61.3907 27.9947 60.1763 27.2936L54.1706 23.7934L49.5023 26.4884L52.6617 28.3123C54.1039 29.1449 54.303 30.005 53.2595 30.8922L45.0899 35.6085C45.28 35.7182 45.4218 35.8114 45.5168 35.8881L45.0612 35.6251L33.6189 42.2307C32.4996 42.7018 31.4652 42.6637 30.5162 42.1159L27.3571 40.2921L21.2654 42.7898L26.9584 46.0764C27.319 46.2846 27.8357 46.5884 28.5106 46.9879C29.184 47.3878 29.6914 47.6862 30.0331 47.8834L22.7747 52.0737L27.1592 54.6049L34.3322 50.4639C35.1096 50.9351 36.2578 51.6087 37.7759 52.4851L30.6316 56.6095L35.0148 59.1399L42.2732 54.9497C43.9054 55.8044 45.4274 56.5196 46.8413 57.0941C48.2559 57.6688 49.7358 58.1458 51.2824 58.5235C52.8284 58.9014 54.304 59.112 55.7082 59.1557C57.1121 59.2 58.5684 59.0653 60.0781 58.7535C61.5861 58.4407 63.0809 57.9343 64.5609 57.2327C67.4457 55.8534 69.0492 54.4344 69.3721 52.9773ZM62.4545 34.3262C62.5874 34.403 62.9669 34.6166 63.5933 34.9671C64.2201 35.3177 64.7416 35.6079 65.1591 35.8379C65.5766 36.0681 66.1032 36.3995 66.7392 36.8324C67.3748 37.2651 67.8822 37.6458 68.2618 37.9743C68.6413 38.3028 69.007 38.6947 69.3576 39.1491C69.7093 39.6039 69.8986 40.0201 69.9267 40.3977C69.9556 40.7758 69.8462 41.173 69.599 41.5891C69.3527 42.0055 68.9163 42.3944 68.2902 42.7559C67.7588 43.0627 67.1895 43.2929 66.5822 43.4465C65.9756 43.6001 65.3533 43.6628 64.7181 43.6356C64.0826 43.6085 63.4744 43.5534 62.8958 43.4711C62.3175 43.3891 61.6812 43.2246 60.9889 42.9781C60.2965 42.7318 59.7035 42.51 59.2105 42.3129C58.717 42.1157 58.1429 41.8447 57.4883 41.4995C56.8336 41.1542 56.3397 40.8914 56.0079 40.7107C55.6758 40.5298 55.2347 40.2751 54.6841 39.9464C54.1333 39.6177 53.8114 39.4261 53.7163 39.3712L62.4549 34.3264L62.4546 34.3262L62.4545 34.3262ZM55.0402 52.4269C54.4227 52.5747 53.8109 52.6599 53.2036 52.6821C52.5967 52.7035 51.9368 52.6515 51.2257 52.5255C50.5141 52.3999 49.864 52.2543 49.2761 52.0902C48.687 51.9261 48.0281 51.6982 47.2977 51.4085C46.5662 51.1178 45.9455 50.852 45.4324 50.6109C44.9201 50.3701 44.3275 50.0716 43.6534 49.7156C42.9805 49.3594 42.4629 49.0772 42.1024 48.8692C41.7418 48.661 41.2915 48.395 40.7504 48.0719C40.2087 47.7489 39.8627 47.5437 39.7108 47.456L49.3322 41.9015C49.4839 41.9891 49.9439 42.2439 50.7129 42.6656C51.4819 43.0874 52.1025 43.4354 52.5769 43.7093C53.0513 43.9831 53.6782 44.3774 54.4561 44.8927C55.2341 45.4071 55.8512 45.8616 56.3072 46.2562C56.7622 46.6506 57.2079 47.1103 57.6446 47.6366C58.081 48.1622 58.3375 48.6444 58.4136 49.0827C58.489 49.5213 58.404 49.9754 58.1571 50.4465C57.9111 50.9178 57.446 51.3506 56.7627 51.7451C56.2307 52.0521 55.6575 52.279 55.0402 52.4269Z" fill="#0D0B33"/>
<path d="M3.44531 47.4785C6.6049 55.4384 9.04676 59.0965 15.7551 62.8658V73.6369C9.62985 69.3016 6.35043 66.6413 3.44531 57.4803V47.4785Z" fill="#0D0B33"/>
<path d="M20.3711 66.7148L24.9873 69.0229V79.794L20.3711 77.4859V66.7148Z" fill="#0D0B33"/>
<path d="M98.0062 65.8304C76.3734 78.3191 41.2997 78.3191 19.6669 65.8304C9.454 59.9345 4.06263 52.3092 3.49281 44.5873L3.44531 33.8162C3.59054 41.8886 8.99774 49.9354 19.6669 56.0947C41.2997 68.5833 76.3734 68.5833 98.0062 56.0947C108.631 49.961 114.037 41.9557 114.226 33.9172V33.0469C114.233 33.337 114.233 33.6271 114.226 33.9172V43.6527C114.038 51.6913 108.631 59.6967 98.0062 65.8304Z" fill="#79EFBD" stroke="#0D0B33" stroke-width="0.59185"/>
<path d="M98.0092 55.5917C76.3764 68.0804 41.3027 68.0804 19.6699 55.5917C-1.96289 43.1031 -1.96289 22.8551 19.6699 10.3665C41.3027 -2.12215 76.3764 -2.12215 98.0092 10.3665C119.642 22.8551 119.642 43.1031 98.0092 55.5917Z" fill="#F7F6FF" stroke="#0D0B33" stroke-width="0.59185"/>
<path d="M3.44531 36.8926C6.6049 44.8524 9.04676 48.5105 15.7551 52.2799V63.051C9.62985 58.7156 6.35043 56.0553 3.44531 46.8943V36.8926Z" fill="#0D0B33"/>
<path d="M20.3711 56.1289L24.9873 58.437V69.2081L20.3711 66.9V56.1289Z" fill="#0D0B33"/>
<path d="M79.3733 21.7547C76.6123 21.5525 73.726 21.9807 70.7151 23.0397C72.2309 20.363 70.912 18.0495 66.7592 16.0982C65.2639 15.3845 63.6973 14.9211 62.0569 14.7073C60.4159 14.4936 58.7507 14.52 57.0578 14.7881C55.3651 15.0552 53.7241 15.4605 52.1363 16.0014C50.5481 16.5425 48.8606 17.2415 47.075 18.0981L39.2261 13.6016L34.43 16.3492L42.0608 20.7208C41.2303 21.1965 39.9845 21.934 38.3236 22.9331L30.6305 18.5259L25.8337 21.2738L33.6826 25.7704C33.018 26.175 32.0217 26.7579 30.6929 27.5191L24.0586 31.2838L29.1667 34.2102L32.6237 32.2297C34.2018 31.3256 35.8319 31.2008 37.5136 31.855L46.4527 36.9761C46.6607 36.857 46.8373 36.768 46.9827 36.7085L46.4842 36.9941L59.0045 44.1668C59.8973 44.8684 59.825 45.5168 58.7867 46.1117L55.3299 48.092L60.0642 51.9106L66.2935 48.3419C66.6881 48.1159 67.264 47.792 68.0212 47.3689C68.779 46.9468 69.3447 46.6287 69.7185 46.4145L77.6607 50.9645L82.4582 48.2161L74.6094 43.7196C75.5025 43.2323 76.7792 42.5125 78.4404 41.5609L86.2577 46.0394L91.0539 43.2917L83.1118 38.7417C84.7319 37.7186 86.0875 36.7645 87.1762 35.8782C88.2656 34.9915 89.1697 34.0638 89.8855 33.0943C90.6018 32.1252 91.0009 31.2002 91.0838 30.32C91.1678 29.4399 90.9125 28.527 90.3214 27.5807C89.7286 26.6354 88.7687 25.6984 87.439 24.7706C84.8246 22.9623 82.1352 21.9571 79.3733 21.7547ZM44.0224 26.091C44.1678 26.0077 44.5727 25.7698 45.237 25.3772C45.9015 24.9843 46.4516 24.6574 46.8876 24.3956C47.3238 24.1339 47.952 23.8038 48.7725 23.4052C49.5926 23.0067 50.3142 22.6886 50.9368 22.4507C51.5594 22.2128 52.3023 21.9836 53.1635 21.7638C54.0255 21.5433 54.8144 21.4247 55.5302 21.407C56.2468 21.389 56.9997 21.4575 57.7883 21.6125C58.5776 21.7669 59.3147 22.0404 59.9998 22.4329C60.5813 22.766 61.0176 23.1229 61.3088 23.5035C61.6 23.8838 61.7188 24.2739 61.6673 24.6721C61.6158 25.0705 61.5115 25.4517 61.3555 25.8144C61.1999 26.1769 60.8881 26.5758 60.421 27.0097C59.9542 27.4438 59.5338 27.8155 59.1601 28.1245C58.7864 28.4339 58.2728 28.7938 57.6185 29.2041C56.964 29.6145 56.4659 29.9241 56.1234 30.1321C55.7805 30.3403 55.2979 30.6168 54.6748 30.962C54.0517 31.3072 53.6885 31.509 53.5845 31.5686L44.0224 26.091ZM78.3302 30.7387C78.6102 31.1258 78.7718 31.5093 78.8138 31.89C78.8544 32.2705 78.7559 32.6841 78.517 33.1299C78.2789 33.576 78.0029 33.9834 77.6919 34.352C77.3809 34.7213 76.949 35.1343 76.3998 35.5922C75.8488 36.0507 75.3451 36.4397 74.8881 36.7614C74.4317 37.0825 73.866 37.454 73.1911 37.8766C72.516 38.2984 71.9812 38.6229 71.5868 38.8488C71.1922 39.0749 70.6881 39.3571 70.0758 39.6963C69.4636 40.0359 69.0746 40.2528 68.9083 40.348L58.3805 34.3168C58.5464 34.2217 59.0294 33.9334 59.8286 33.4513C60.6282 32.9692 61.2877 32.5803 61.8069 32.2828C62.326 31.9855 63.0732 31.5925 64.0499 31.1048C65.0249 30.6172 65.8863 30.2303 66.6343 29.9445C67.3818 29.6593 68.2531 29.3799 69.2506 29.1061C70.247 28.8326 71.1608 28.6718 71.9916 28.6241C72.8228 28.5768 73.6836 28.6301 74.5765 28.7849C75.4698 28.9391 76.2901 29.2306 77.0378 29.659C77.6197 29.9925 78.0498 30.3517 78.3302 30.7387Z" fill="black"/>
<defs>
<linearGradient id="paint0_linear_1812_46971" x1="-28.6269" y1="202.516" x2="-22.617" y2="255.525" gradientUnits="userSpaceOnUse">
<stop stop-color="white"/>
<stop offset="1" stop-color="white" stop-opacity="0"/>
</linearGradient>
</defs>
</svg>
