<svg xmlns="http://www.w3.org/2000/svg" width="80" height="64" fill="none"><rect width="12" height="12" x="1.906" y="12.5" stroke="#79EFBD" stroke-width="2" rx="1"/><rect width="7" height="7" x="70.906" y="50.5" stroke="#79EFBD" stroke-width="2" rx="1"/><mask id="a" width="42" height="38" x="23" y="16" maskUnits="userSpaceOnUse" style="mask-type:alpha"><rect width="34.613" height="38.194" x="24.807" y="52.306" fill="#C4C4C4" stroke="#79EFBD" stroke-width="2.387" rx="1.194" transform="rotate(-90 24.807 52.306)"/></mask><g mask="url(#a)"><circle cx="43.906" cy="31.5" r="8" fill="#F7F6FF"/><circle cx="43.906" cy="58.5" r="17" fill="#F7F6FF"/><rect width="34.613" height="38.194" x="24.807" y="52.306" stroke="#F7F6FF" stroke-width="2.387" rx="1.194" transform="rotate(-90 24.807 52.306)"/></g><path fill="#79EFBD" fill-rule="evenodd" d="M70.769 6.401a2.183 2.183 0 0 0-3.535 0 2.183 2.183 0 0 1-2.444.795 2.183 2.183 0 0 0-2.86 2.077 2.183 2.183 0 0 1-1.511 2.08 2.183 2.183 0 0 0-1.092 3.362 2.183 2.183 0 0 1 0 2.57 2.183 2.183 0 0 0 1.092 3.362 2.183 2.183 0 0 1 1.51 2.079 2.183 2.183 0 0 0 2.86 2.078c.901-.294 1.889.027 2.445.794a2.183 2.183 0 0 0 3.535 0 2.183 2.183 0 0 1 2.444-.794 2.183 2.183 0 0 0 2.86-2.078 2.183 2.183 0 0 1 1.51-2.08 2.183 2.183 0 0 0 1.093-3.361 2.183 2.183 0 0 1 0-2.57c.874-1.2.32-2.905-1.093-3.362a2.183 2.183 0 0 1-1.51-2.08 2.183 2.183 0 0 0-2.86-2.077A2.183 2.183 0 0 1 70.77 6.4Zm3.323 7.468a1.003 1.003 0 0 0-1.388-1.448l-4.97 4.765-1.777-1.556a1.003 1.003 0 0 0-1.32 1.51l2.468 2.16c.391.343.98.33 1.355-.03l5.633-5.401Z" clip-rule="evenodd"/><path fill="#79EFBD" d="M9.906 45.5h8v8h-8z"/></svg>