<svg xmlns="http://www.w3.org/2000/svg" width="167" height="144" fill="none"><path fill="#F7F6FF" stroke="#000" stroke-miterlimit="10" stroke-width=".712" d="M131.12 128.889c0 6.245-2.096 10.681-5.516 12.853l-.049.032-.54.33c-3.582 1.907-8.444 1.518-13.809-1.621l-.232-.135-.233-.14-46.478-27.575L25.26 89.402l-.232-.14-.232-.141c-13.102-7.937-23.68-26.635-23.68-41.908 0-8.007 2.907-13.507 7.564-15.803 4.273-2.118 10.016-1.545 16.337 2.21a36.58 36.58 0 0 1 3.571 2.43c1.454-4.937 3.923-8.767 7.175-11.344a17.25 17.25 0 0 1 1.767-1.216l.54-.308c6.715-3.782 15.992-3.107 26.23 2.982 15.24 9.071 28.342 27.553 34.036 46.241 2.167.116 4.267.794 6.094 1.966 7.564 4.5 13.701 15.284 13.701 24.085v.713a47.796 47.796 0 0 1 6.483 8.569c4.003 6.678 6.505 14.317 6.505 21.151Z"/><path fill="#000" stroke="#000" stroke-miterlimit="10" stroke-width=".712" d="M165.694 108.686c0 6.358-2.161 10.837-5.705 12.966l-.071.043-.264.151-34.037 19.893c3.42-2.161 5.516-6.608 5.516-12.853l14.647-8.563 19.914-11.637Z"/><path fill="#BFFFE4" stroke="#000" stroke-miterlimit="10" stroke-width=".712" d="M98.837 5.966 64.261 26.172c-10.265-6.089-19.514-6.78-26.23-2.982L57.06 12.066 72.122 3.26l.075-.044c6.754-4.035 16.197-3.463 26.64 2.75Z"/><path fill="#BFFFE4" stroke="#000" stroke-miterlimit="10" stroke-width=".712" d="M57.057 12.066 38.03 23.19c-.179.097-.352.2-.54.308-.603.37-1.182.775-1.735 1.216-3.242 2.577-5.721 6.407-7.175 11.345a36.562 36.562 0 0 0-3.57-2.431c-6.322-3.782-12.065-4.322-16.338-2.21l33.301-19.45 1.124-.653c3.75-1.934 8.59-1.783 13.96.751Z"/><path fill="#79EFBD" stroke="#000" stroke-miterlimit="10" stroke-width=".712" d="m165.689 108.686-19.925 11.643-14.646 8.563c0-6.834-2.501-14.473-6.483-21.146a47.87 47.87 0 0 0-6.483-8.568v-.713c0-8.801-6.132-19.585-13.701-24.085a12.526 12.526 0 0 0-6.094-1.967c-5.722-18.693-18.823-37.17-34.037-46.24L98.897 5.966c15.241 9.07 28.342 27.553 34.036 46.24 2.168.117 4.268.795 6.094 1.967 7.564 4.5 13.701 15.284 13.701 24.085v.713c7.559 7.893 12.961 19.676 12.961 29.714Z"/><path stroke="#000" stroke-width=".712" d="m98.36 72.217 34.306-20.26M118.344 99.502l34.306-20.26"/><path stroke="#000" stroke-width="1.068" d="m130.508 122.732 34.306-20.259"/></svg>