<svg xmlns="http://www.w3.org/2000/svg" width="220" height="288" fill="none"><g clip-path="url(#a)"><path fill="#0D0B33" fill-opacity=".1" d="M193.355 272.89c-33.597 19.451-88.069 19.451-121.666 0-33.598-19.451-33.598-50.987 0-70.438 33.597-19.451 88.069-19.451 121.666 0 33.598 19.451 33.598 50.987 0 70.438Z"/><path fill="#79EFBD" stroke="#0D0B33" stroke-width=".871" d="M140.156 252.134c-31.829 18.375-83.434 18.375-115.263 0-15.027-8.675-22.96-19.894-23.797-31.256l-.07-15.848c.213 11.878 8.17 23.717 23.867 32.779 31.829 18.375 83.434 18.375 115.263 0 15.633-9.024 23.588-20.803 23.865-32.63v-1.281c.01.427.01.854 0 1.281v14.324c-.277 11.828-8.232 23.606-23.865 32.631Z"/><path fill="#F7F6FF" stroke="#0D0B33" stroke-width=".871" d="M140.157 237.069c-31.829 18.375-83.435 18.375-115.264 0-31.829-18.375-31.829-48.167 0-66.542 31.83-18.375 83.435-18.375 115.264 0 31.829 18.375 31.829 48.167 0 66.542Z"/><path fill="#0D0B33" fill-rule="evenodd" d="M119.204 179.99c-.573.135-14.244 2.136-30.38 4.446-16.137 2.309-29.521 4.245-29.745 4.303-.29.075.955 3.162 4.368 10.824l4.776 10.72 18.569 2.752c13.34 1.978 18.62 2.687 18.751 2.517.678-.878 15.254-35.491 15.006-35.634-.167-.097-.772-.064-1.345.072Zm-65.057 11.628c-.32.704-9.54 32.187-9.443 32.24.161.088 56.06-5.437 56.06-5.54 0-.098-34.405-5.236-35.974-5.373l-.962-.083-4.592-10.293c-2.526-5.661-4.673-10.509-4.772-10.773-.164-.438-.192-.454-.317-.178Z" clip-rule="evenodd"/><path fill="#0D0B33" d="M1.022 209.559c4.649 11.711 8.241 17.093 18.112 22.639v15.848c-9.013-6.378-13.838-10.293-18.112-23.772v-14.715ZM25.924 237.859l6.792 3.396v15.848l-6.792-3.396v-15.848Z"/><path fill="#79EFBD" stroke="#0D0B33" stroke-width=".871" d="M140.156 236.56c-31.829 18.375-83.434 18.375-115.263 0-15.027-8.675-22.96-19.895-23.797-31.256l-.07-15.848c.213 11.877 8.17 23.717 23.867 32.779 31.829 18.375 83.434 18.375 115.263 0 15.633-9.024 23.588-20.803 23.865-32.63v-1.281c.01.427.01.854 0 1.281v14.324c-.277 11.827-8.232 23.606-23.865 32.631Z"/><path fill="#F7F6FF" stroke="#0D0B33" stroke-width=".871" d="M140.157 221.494c-31.829 18.375-83.435 18.375-115.264 0-31.829-18.374-31.829-48.166 0-66.541 31.83-18.375 83.435-18.375 115.264 0 31.829 18.375 31.829 48.167 0 66.541Z"/><path fill="#0D0B33" fill-rule="evenodd" d="M119.204 164.415c-.573.136-14.244 2.137-30.38 4.446-16.137 2.31-29.521 4.246-29.745 4.304-.29.074.955 3.161 4.368 10.824l4.776 10.719 18.569 2.753c13.34 1.978 18.62 2.686 18.751 2.517.678-.878 15.254-35.491 15.006-35.634-.167-.097-.772-.065-1.345.071Zm-65.057 11.629c-.32.704-9.54 32.187-9.443 32.24.161.087 56.06-5.437 56.06-5.541 0-.097-34.405-5.235-35.974-5.372l-.962-.084-4.592-10.292c-2.526-5.662-4.673-10.51-4.772-10.774-.164-.437-.192-.453-.317-.177Z" clip-rule="evenodd"/><path fill="#0D0B33" d="M1.022 193.984c4.649 11.712 8.241 17.094 18.112 22.64v15.848C10.12 226.093 5.296 222.179 1.022 208.7v-14.716ZM25.928 222.281l6.792 3.396v15.848l-6.792-3.396v-15.848Z"/><path fill="#79EFBD" stroke="#0D0B33" stroke-width=".871" d="M140.156 220.982c-31.829 18.375-83.434 18.375-115.263 0-15.027-8.675-22.96-19.895-23.797-31.256l-.07-15.848c.213 11.877 8.17 23.717 23.867 32.779 31.829 18.375 83.434 18.375 115.263 0 15.633-9.025 23.588-20.803 23.865-32.63v-1.281c.01.427.01.854 0 1.281v14.324c-.277 11.827-8.232 23.606-23.865 32.631Z"/><path fill="#F7F6FF" stroke="#0D0B33" stroke-width=".871" d="M140.157 205.916c-31.829 18.375-83.435 18.375-115.264 0-31.829-18.375-31.829-48.166 0-66.541 31.83-18.375 83.435-18.375 115.264 0 31.829 18.375 31.829 48.166 0 66.541Z"/><path fill="#0D0B33" fill-rule="evenodd" d="M119.204 148.837c-.573.136-14.244 2.137-30.38 4.446-16.137 2.31-29.521 4.246-29.745 4.304-.29.074.955 3.161 4.368 10.824l4.776 10.719 18.569 2.753c13.34 1.978 18.62 2.686 18.751 2.517.678-.878 15.254-35.492 15.006-35.634-.167-.097-.772-.065-1.345.071Zm-65.057 11.629c-.32.703-9.54 32.187-9.443 32.24.161.087 56.06-5.437 56.06-5.541 0-.097-34.405-5.235-35.974-5.372l-.962-.084-4.592-10.293c-2.526-5.661-4.673-10.509-4.772-10.773-.164-.438-.192-.453-.317-.177Z" clip-rule="evenodd"/><path fill="#0D0B33" d="M1.022 178.406c4.649 11.712 8.241 17.094 18.112 22.64v15.848c-9.013-6.379-13.838-10.293-18.112-23.772v-14.716ZM25.928 206.703l6.792 3.396v15.848l-6.792-3.396v-15.848Z"/><path fill="#79EFBD" stroke="#0D0B33" stroke-width=".871" d="M140.156 205.411c-31.829 18.375-83.434 18.375-115.263 0-15.027-8.675-22.96-19.894-23.797-31.255l-.07-15.848c.213 11.877 8.17 23.716 23.867 32.779 31.829 18.375 83.434 18.375 115.263 0 15.633-9.025 23.588-20.803 23.865-32.631v-1.28c.01.427.01.853 0 1.28v14.324c-.277 11.828-8.232 23.607-23.865 32.631Z"/><path fill="#F7F6FF" stroke="#0D0B33" stroke-width=".871" d="M140.157 190.346c-31.829 18.375-83.435 18.375-115.264 0-31.829-18.375-31.829-48.166 0-66.541 31.83-18.375 83.435-18.375 115.264 0 31.829 18.375 31.829 48.166 0 66.541Z"/><path fill="#0D0B33" fill-rule="evenodd" d="M119.204 133.267c-.573.136-14.244 2.136-30.38 4.446-16.137 2.309-29.521 4.246-29.745 4.303-.29.075.955 3.162 4.368 10.824l4.776 10.72 18.569 2.753c13.34 1.977 18.62 2.686 18.751 2.516.678-.878 15.254-35.491 15.006-35.634-.167-.096-.772-.064-1.345.072Zm-65.057 11.629c-.32.703-9.54 32.186-9.443 32.239.161.088 56.06-5.436 56.06-5.54 0-.097-34.405-5.235-35.974-5.372l-.962-.084-4.592-10.293c-2.526-5.661-4.673-10.509-4.772-10.773-.164-.438-.192-.454-.317-.177Z" clip-rule="evenodd"/><path fill="#0D0B33" d="M1.022 162.836c4.649 11.712 8.241 17.094 18.112 22.64v15.848c-9.013-6.379-13.838-10.293-18.112-23.772v-14.716ZM25.928 191.133l6.792 3.396v15.848l-6.792-3.396v-15.848Z"/><path fill="#79EFBD" stroke="#0D0B33" stroke-width=".871" d="M140.156 189.833c-31.829 18.375-83.434 18.375-115.263 0-15.027-8.675-22.96-19.894-23.797-31.255l-.07-15.848c.213 11.877 8.17 23.716 23.867 32.779 31.829 18.375 83.434 18.375 115.263 0 15.633-9.025 23.588-20.804 23.865-32.631v-1.28c.01.426.01.853 0 1.28v14.324c-.277 11.828-8.232 23.606-23.865 32.631Z"/><path fill="#F7F6FF" stroke="#0D0B33" stroke-width=".871" d="M140.157 174.768c-31.829 18.375-83.435 18.375-115.264 0-31.829-18.375-31.829-48.167 0-66.542 31.83-18.374 83.435-18.374 115.264 0 31.829 18.375 31.829 48.167 0 66.542Z"/><path fill="#0D0B33" fill-rule="evenodd" d="M119.204 117.689c-.573.136-14.244 2.136-30.38 4.446-16.137 2.309-29.521 4.246-29.745 4.303-.29.075.955 3.162 4.368 10.824l4.776 10.72 18.569 2.753c13.34 1.977 18.62 2.686 18.751 2.516.678-.878 15.254-35.491 15.006-35.634-.167-.096-.772-.064-1.345.072Zm-65.057 11.629c-.32.703-9.54 32.186-9.443 32.239.161.088 56.06-5.437 56.06-5.54 0-.098-34.405-5.235-35.974-5.372l-.962-.084-4.592-10.293c-2.526-5.661-4.673-10.509-4.772-10.773-.164-.438-.192-.454-.317-.177Z" clip-rule="evenodd"/><path fill="#0D0B33" d="M1.022 147.258c4.649 11.711 8.241 17.094 18.112 22.64v15.848c-9.013-6.379-13.838-10.293-18.112-23.772v-14.716ZM25.928 175.555l6.792 3.396v15.848l-6.792-3.396v-15.848Z"/><path fill="#79EFBD" stroke="#0D0B33" stroke-width=".871" d="M140.156 174.263c-31.829 18.375-83.434 18.375-115.263 0-15.027-8.675-22.96-19.894-23.797-31.256l-.07-15.848c.213 11.878 8.17 23.717 23.867 32.779 31.829 18.375 83.434 18.375 115.263 0 15.633-9.024 23.588-20.803 23.865-32.63v-1.281c.01.427.01.854 0 1.281v14.324c-.277 11.828-8.232 23.606-23.865 32.631Z"/><path fill="#F7F6FF" stroke="#0D0B33" stroke-width=".871" d="M140.157 159.198c-31.829 18.375-83.435 18.375-115.264 0-31.829-18.375-31.829-48.167 0-66.542 31.83-18.375 83.435-18.375 115.264 0 31.829 18.375 31.829 48.167 0 66.542Z"/><path fill="#0D0B33" fill-rule="evenodd" d="M119.204 102.119c-.573.135-14.244 2.136-30.38 4.445-16.137 2.31-29.521 4.246-29.745 4.304-.29.075.955 3.162 4.368 10.824l4.776 10.719 18.569 2.753c13.34 1.978 18.62 2.686 18.751 2.517.678-.878 15.254-35.491 15.006-35.634-.167-.097-.772-.064-1.345.072Zm-65.057 11.628c-.32.704-9.54 32.187-9.443 32.24.161.088 56.06-5.437 56.06-5.54 0-.098-34.405-5.236-35.974-5.373l-.962-.083-4.592-10.293c-2.526-5.661-4.673-10.509-4.772-10.773-.164-.438-.192-.454-.317-.178Z" clip-rule="evenodd"/><path fill="#0D0B33" d="M1.022 131.688c4.649 11.711 8.241 17.093 18.112 22.639v15.848c-9.013-6.379-13.838-10.293-18.112-23.772v-14.715ZM25.928 159.984l6.792 3.396v15.848l-6.792-3.396v-15.848Z"/><path fill="#79EFBD" stroke="#0D0B33" stroke-width=".871" d="M140.156 158.685c-31.829 18.375-83.434 18.375-115.263 0-15.027-8.675-22.96-19.895-23.797-31.256l-.07-15.848c.213 11.877 8.17 23.717 23.867 32.779 31.829 18.375 83.434 18.375 115.263 0 15.633-9.024 23.588-20.803 23.865-32.63v-1.281c.01.427.01.854 0 1.281v14.324c-.277 11.827-8.232 23.606-23.865 32.631Z"/><path fill="#F7F6FF" stroke="#0D0B33" stroke-width=".871" d="M140.157 143.619c-31.829 18.375-83.435 18.375-115.264 0-31.829-18.374-31.829-48.166 0-66.54 31.83-18.376 83.435-18.376 115.264 0 31.829 18.374 31.829 48.166 0 66.54Z"/><path fill="#0D0B33" fill-rule="evenodd" d="M119.204 86.54c-.573.136-14.244 2.137-30.38 4.446-16.137 2.31-29.521 4.246-29.745 4.304-.29.075.955 3.161 4.368 10.824l4.776 10.719 18.569 2.753c13.34 1.978 18.62 2.686 18.751 2.517.678-.878 15.254-35.491 15.006-35.634-.167-.097-.772-.064-1.345.072ZM54.147 98.17c-.32.703-9.54 32.186-9.443 32.239.161.087 56.06-5.437 56.06-5.541 0-.097-34.405-5.235-35.974-5.372l-.962-.084-4.592-10.292c-2.526-5.662-4.673-10.51-4.772-10.773-.164-.438-.192-.454-.317-.178Z" clip-rule="evenodd"/><path fill="#0D0B33" d="M1.022 116.109c4.649 11.712 8.241 17.094 18.112 22.64v15.848c-9.013-6.379-13.838-10.293-18.112-23.772v-14.716ZM25.928 144.406l6.792 3.396v15.848l-6.792-3.396v-15.848Z"/><path fill="#79EFBD" stroke="#0D0B33" stroke-width=".871" d="M140.156 143.114c-31.829 18.375-83.434 18.375-115.263 0-15.027-8.674-22.96-19.894-23.797-31.255l-.07-15.848c.213 11.877 8.17 23.716 23.867 32.779 31.829 18.375 83.434 18.375 115.263 0 15.633-9.025 23.588-20.803 23.865-32.63v-1.281c.01.427.01.854 0 1.28v14.325c-.277 11.827-8.232 23.606-23.865 32.63Z"/><path fill="#F7F6FF" stroke="#0D0B33" stroke-width=".871" d="M140.157 128.049c-31.829 18.375-83.435 18.375-115.264 0-31.829-18.375-31.829-48.166 0-66.541 31.83-18.375 83.435-18.375 115.264 0 31.829 18.375 31.829 48.166 0 66.541Z"/><path fill="#0D0B33" fill-rule="evenodd" d="M119.204 70.97c-.573.136-14.244 2.137-30.38 4.446-16.137 2.31-29.521 4.246-29.745 4.303-.29.075.955 3.162 4.368 10.825l4.776 10.719 18.569 2.753c13.34 1.977 18.62 2.686 18.751 2.516.678-.877 15.254-35.49 15.006-35.634-.167-.096-.772-.064-1.345.072ZM54.147 82.6c-.32.703-9.54 32.187-9.443 32.24.161.087 56.06-5.437 56.06-5.541 0-.097-34.405-5.235-35.974-5.372l-.962-.084-4.592-10.293c-2.526-5.66-4.673-10.509-4.772-10.773-.164-.438-.192-.453-.317-.177Z" clip-rule="evenodd"/><path fill="#0D0B33" d="M1.022 100.539c4.649 11.712 8.241 17.094 18.112 22.64v15.848c-9.013-6.379-13.838-10.293-18.112-23.772v-14.716ZM25.928 128.836l6.792 3.396v15.848l-6.792-3.396v-15.848Z"/><path fill="#79EFBD" stroke="#0D0B33" stroke-width=".871" d="M140.156 127.536c-31.829 18.375-83.434 18.375-115.263 0-15.027-8.675-22.96-19.894-23.797-31.255l-.07-15.848c.213 11.877 8.17 23.716 23.867 32.779 31.829 18.375 83.434 18.375 115.263 0 15.633-9.025 23.588-20.803 23.865-32.63V79.3c.01.427.01.853 0 1.28v14.325c-.277 11.827-8.232 23.606-23.865 32.63Z"/><path fill="#F7F6FF" stroke="#0D0B33" stroke-width=".871" d="M140.157 112.471c-31.829 18.375-83.435 18.375-115.264 0-31.829-18.375-31.829-48.166 0-66.541 31.83-18.375 83.435-18.375 115.264 0 31.829 18.375 31.829 48.166 0 66.541Z"/><path fill="#0D0B33" fill-rule="evenodd" d="M119.204 55.392c-.573.136-14.244 2.136-30.38 4.446-16.137 2.31-29.521 4.246-29.745 4.303-.29.075.955 3.162 4.368 10.824l4.776 10.72 18.569 2.753c13.34 1.977 18.62 2.686 18.751 2.516.678-.878 15.254-35.49 15.006-35.634-.167-.096-.772-.064-1.345.072ZM54.147 67.021c-.32.703-9.54 32.186-9.443 32.24.161.087 56.06-5.438 56.06-5.541 0-.097-34.405-5.235-35.974-5.372l-.962-.084-4.592-10.293c-2.526-5.66-4.673-10.509-4.772-10.773-.164-.438-.192-.454-.317-.177Z" clip-rule="evenodd"/><path fill="#0D0B33" d="M1.022 84.96c4.649 11.713 8.241 17.095 18.112 22.641v15.848C10.12 117.07 5.296 113.156 1.022 99.677V84.96ZM25.928 113.258l6.792 3.396v15.848l-6.792-3.396v-15.848Z"/><path fill="#79EFBD" stroke="#0D0B33" stroke-width=".871" d="M140.156 111.962c-31.829 18.375-83.434 18.375-115.263 0-15.027-8.675-22.96-19.894-23.797-31.256l-.07-15.847c.213 11.877 8.17 23.716 23.867 32.779 31.829 18.374 83.434 18.374 115.263 0 15.633-9.025 23.588-20.804 23.865-32.63v-1.281c.01.426.01.853 0 1.28v14.324c-.277 11.828-8.232 23.606-23.865 32.631Z"/><path fill="#F7F6FF" stroke="#0D0B33" stroke-width=".871" d="M140.157 96.897c-31.829 18.375-83.435 18.375-115.264 0-31.829-18.375-31.829-48.167 0-66.542 31.83-18.375 83.435-18.375 115.264 0 31.829 18.375 31.829 48.167 0 66.542Z"/><path fill="#0D0B33" fill-rule="evenodd" d="M119.204 39.818c-.573.136-14.244 2.136-30.38 4.446-16.137 2.309-29.521 4.246-29.745 4.303-.29.075.955 3.162 4.368 10.824l4.776 10.72 18.569 2.752c13.34 1.978 18.62 2.687 18.751 2.517.678-.878 15.254-35.491 15.006-35.634-.167-.096-.772-.064-1.345.072ZM54.147 51.446c-.32.704-9.54 32.187-9.443 32.24.161.088 56.06-5.437 56.06-5.54 0-.098-34.405-5.236-35.974-5.372l-.962-.084-4.592-10.293c-2.526-5.661-4.673-10.51-4.772-10.773-.164-.438-.192-.454-.317-.178Z" clip-rule="evenodd"/><path fill="#0D0B33" d="M1.022 69.387C5.67 81.098 9.263 86.48 19.134 92.027v15.847C10.12 101.496 5.296 97.582 1.022 84.103V69.387ZM25.928 97.688l6.792 3.395v15.848l-6.792-3.396V97.688Z"/><path fill="#79EFBD" stroke="#0D0B33" stroke-width=".871" d="M140.156 96.388c-31.829 18.375-83.434 18.375-115.263 0C9.866 87.713 1.933 76.494 1.096 65.132l-.07-15.848c.213 11.877 8.17 23.717 23.867 32.78 31.829 18.374 83.434 18.374 115.263 0 15.633-9.025 23.588-20.804 23.865-32.631v-1.28c.01.426.01.853 0 1.28v14.324c-.277 11.828-8.232 23.606-23.865 32.63Z"/><path fill="#F7F6FF" stroke="#0D0B33" stroke-width=".871" d="M140.157 81.323c-31.829 18.375-83.435 18.375-115.264 0-31.829-18.375-31.829-48.167 0-66.542 31.83-18.375 83.435-18.375 115.264 0 31.829 18.375 31.829 48.167 0 66.542Z"/><path fill="#0D0B33" fill-rule="evenodd" d="m55.383 37.566 3.211 6.827-8.762 4.998-.003-.002.003-.001-3.208-6.825 8.759-4.997ZM59.45 69.87l.003.002-8.765 5-11.97-1.83-3.207-6.829 8.764-5 3.209 6.828L59.45 69.87ZM34.658 40.734l6.416 13.654-8.762 4.998-3.208-6.828L25.9 45.73l-3.208-6.825 26.282-14.994 3.205 6.827-17.52 9.995Zm78.211 24.63 11.97 1.83-26.281 14.993-11.967-1.832-23.933-3.657L71.42 71.7l23.93 3.659 17.519-9.995Zm-23.93-3.66 11.964 1.831-8.759 4.997-11.966-1.829 8.762-4.998Zm26.279-14.99 3.205 6.826-8.758 4.997-23.933-3.657-17.52 9.995-11.967-1.832-3.211-6.827 17.52-9.995-3.202-6.825-3.208-6.829 8.759-4.996 11.97 1.83 6.409 13.654 11.97 1.83 11.966 1.828Zm-6.416-13.654 3.211 6.826-11.969-1.83-3.209-6.828 11.967 1.831Zm23.939 3.656 3.202 6.829-11.966-1.828-3.205-6.827-3.205-6.83-11.973-1.83-11.963-1.826-3.208-6.828 11.973 1.828 23.933 3.657 3.208 6.828 3.204 6.827Zm6.407 13.656 3.211 6.827-8.762 4.998-11.969-1.83 8.761-4.999-3.204-6.827 11.963 1.83Zm-57.484-27.8-11.966-1.828-8.762 4.998-3.205-6.826 8.762-4.999 11.963 1.83 3.208 6.825Z" clip-rule="evenodd"/><path fill="#0D0B33" d="M1.022 53.813c4.649 11.711 8.241 17.093 18.112 22.64V92.3C10.12 85.921 5.296 82.007 1.022 68.528V53.812ZM25.924 82.11l6.792 3.395v15.848l-6.792-3.396V82.11Z"/></g><defs><clipPath id="a"><path fill="#fff" d="M.022 0h219v288h-219z"/></clipPath></defs></svg>