<svg width="220" height="288" viewBox="0 0 220 288" fill="none" xmlns="http://www.w3.org/2000/svg">
<g clip-path="url(#clip0_8040_115812)">
<path d="M193.355 272.89C159.758 292.341 105.286 292.341 71.6885 272.89C38.0912 253.439 38.0912 221.903 71.6885 202.452C105.286 183.001 159.758 183.001 193.355 202.452C226.953 221.903 226.953 253.439 193.355 272.89Z" fill="#0D0B33" fill-opacity="0.1"/>
<path d="M140.156 252.134C108.327 270.509 56.722 270.509 24.893 252.134C9.8664 243.459 1.93391 232.24 1.09552 220.878L1.02563 205.03C1.23931 216.908 9.1951 228.747 24.893 237.809C56.722 256.184 108.327 256.184 140.156 237.809C155.789 228.785 163.744 217.006 164.021 205.179V203.898C164.031 204.325 164.031 204.752 164.021 205.179V219.503C163.744 231.331 155.789 243.109 140.156 252.134Z" fill="#79EFBD" stroke="#0D0B33" stroke-width="0.870808"/>
<path d="M140.157 237.069C108.328 255.444 56.7225 255.444 24.8935 237.069C-6.93554 218.694 -6.93554 188.902 24.8935 170.527C56.7225 152.152 108.328 152.152 140.157 170.527C171.986 188.902 171.986 218.694 140.157 237.069Z" fill="#F7F6FF" stroke="#0D0B33" stroke-width="0.870808"/>
<path fill-rule="evenodd" clip-rule="evenodd" d="M119.204 179.99C118.631 180.125 104.96 182.126 88.8232 184.436C72.6873 186.745 59.3026 188.681 59.0789 188.739C58.7883 188.814 60.034 191.901 63.4473 199.563L68.2227 210.283L86.7916 213.035C100.132 215.013 105.412 215.722 105.543 215.552C106.221 214.674 120.797 180.061 120.549 179.918C120.382 179.821 119.777 179.854 119.204 179.99ZM54.1467 191.618C53.8275 192.322 44.6063 223.805 44.7039 223.858C44.8653 223.946 100.764 218.421 100.764 218.318C100.764 218.22 66.3592 213.082 64.7899 212.945L63.8277 212.862L59.2359 202.569C56.7103 196.908 54.5632 192.06 54.4642 191.796C54.3002 191.358 54.2721 191.342 54.1467 191.618Z" fill="#0D0B33"/>
<path d="M1.02173 209.559C5.67053 221.27 9.26332 226.652 19.1336 232.198V248.046C10.1212 241.668 5.29613 237.753 1.02173 224.274V209.559Z" fill="#0D0B33"/>
<path d="M25.9241 237.859L32.7161 241.255V257.103L25.9241 253.707V237.859Z" fill="#0D0B33"/>
<path d="M140.156 236.56C108.327 254.935 56.722 254.935 24.893 236.56C9.8664 227.885 1.93391 216.665 1.09552 205.304L1.02563 189.456C1.23931 201.333 9.1951 213.173 24.893 222.235C56.722 240.61 108.327 240.61 140.156 222.235C155.789 213.211 163.744 201.432 164.021 189.605V188.324C164.031 188.751 164.031 189.178 164.021 189.605V203.929C163.744 215.756 155.789 227.535 140.156 236.56Z" fill="#79EFBD" stroke="#0D0B33" stroke-width="0.870808"/>
<path d="M140.157 221.494C108.328 239.869 56.7225 239.869 24.8935 221.494C-6.93554 203.12 -6.93554 173.328 24.8935 154.953C56.7225 136.578 108.328 136.578 140.157 154.953C171.986 173.328 171.986 203.12 140.157 221.494Z" fill="#F7F6FF" stroke="#0D0B33" stroke-width="0.870808"/>
<path fill-rule="evenodd" clip-rule="evenodd" d="M119.204 164.415C118.631 164.551 104.96 166.552 88.8232 168.861C72.6873 171.171 59.3026 173.107 59.0789 173.165C58.7883 173.239 60.034 176.326 63.4473 183.989L68.2227 194.708L86.7916 197.461C100.132 199.439 105.412 200.147 105.543 199.978C106.221 199.1 120.797 164.487 120.549 164.344C120.382 164.247 119.777 164.279 119.204 164.415ZM54.1467 176.044C53.8275 176.748 44.6063 208.231 44.7039 208.284C44.8653 208.371 100.764 202.847 100.764 202.743C100.764 202.646 66.3592 197.508 64.7899 197.371L63.8277 197.287L59.2359 186.995C56.7103 181.333 54.5632 176.485 54.4642 176.221C54.3002 175.784 54.2721 175.768 54.1467 176.044Z" fill="#0D0B33"/>
<path d="M1.02173 193.984C5.67053 205.696 9.26332 211.078 19.1336 216.624V232.472C10.1212 226.093 5.29613 222.179 1.02173 208.7V193.984Z" fill="#0D0B33"/>
<path d="M25.928 222.281L32.72 225.677V241.525L25.928 238.129V222.281Z" fill="#0D0B33"/>
<path d="M140.156 220.982C108.327 239.357 56.722 239.357 24.893 220.982C9.8664 212.307 1.93391 201.087 1.09552 189.726L1.02563 173.878C1.23931 185.755 9.1951 197.595 24.893 206.657C56.722 225.032 108.327 225.032 140.156 206.657C155.789 197.632 163.744 185.854 164.021 174.027V172.746C164.031 173.173 164.031 173.6 164.021 174.027V188.351C163.744 200.178 155.789 211.957 140.156 220.982Z" fill="#79EFBD" stroke="#0D0B33" stroke-width="0.870808"/>
<path d="M140.157 205.916C108.328 224.291 56.7225 224.291 24.8935 205.916C-6.93554 187.541 -6.93554 157.75 24.8935 139.375C56.7225 121 108.328 121 140.157 139.375C171.986 157.75 171.986 187.541 140.157 205.916Z" fill="#F7F6FF" stroke="#0D0B33" stroke-width="0.870808"/>
<path fill-rule="evenodd" clip-rule="evenodd" d="M119.204 148.837C118.631 148.973 104.96 150.974 88.8232 153.283C72.6873 155.593 59.3026 157.529 59.0789 157.587C58.7883 157.661 60.034 160.748 63.4473 168.411L68.2227 179.13L86.7916 181.883C100.132 183.861 105.412 184.569 105.543 184.4C106.221 183.522 120.797 148.908 120.549 148.766C120.382 148.669 119.777 148.701 119.204 148.837ZM54.1467 160.466C53.8275 161.169 44.6063 192.653 44.7039 192.706C44.8653 192.793 100.764 187.269 100.764 187.165C100.764 187.068 66.3592 181.93 64.7899 181.793L63.8277 181.709L59.2359 171.416C56.7103 165.755 54.5632 160.907 54.4642 160.643C54.3002 160.205 54.2721 160.19 54.1467 160.466Z" fill="#0D0B33"/>
<path d="M1.02173 178.406C5.67053 190.118 9.26332 195.5 19.1336 201.046V216.894C10.1212 210.515 5.29613 206.601 1.02173 193.122V178.406Z" fill="#0D0B33"/>
<path d="M25.928 206.703L32.72 210.099V225.947L25.928 222.551V206.703Z" fill="#0D0B33"/>
<path d="M140.156 205.411C108.327 223.786 56.722 223.786 24.893 205.411C9.8664 196.736 1.93391 185.517 1.09552 174.156L1.02563 158.308C1.23931 170.185 9.1951 182.024 24.893 191.087C56.722 209.462 108.327 209.462 140.156 191.087C155.789 182.062 163.744 170.284 164.021 158.456V157.176C164.031 157.603 164.031 158.029 164.021 158.456V172.78C163.744 184.608 155.789 196.387 140.156 205.411Z" fill="#79EFBD" stroke="#0D0B33" stroke-width="0.870808"/>
<path d="M140.157 190.346C108.328 208.721 56.7225 208.721 24.8935 190.346C-6.93554 171.971 -6.93554 142.18 24.8935 123.805C56.7225 105.43 108.328 105.43 140.157 123.805C171.986 142.18 171.986 171.971 140.157 190.346Z" fill="#F7F6FF" stroke="#0D0B33" stroke-width="0.870808"/>
<path fill-rule="evenodd" clip-rule="evenodd" d="M119.204 133.267C118.631 133.403 104.96 135.403 88.8232 137.713C72.6873 140.022 59.3026 141.959 59.0789 142.016C58.7883 142.091 60.034 145.178 63.4473 152.84L68.2227 163.56L86.7916 166.313C100.132 168.29 105.412 168.999 105.543 168.829C106.221 167.951 120.797 133.338 120.549 133.195C120.382 133.099 119.777 133.131 119.204 133.267ZM54.1467 144.896C53.8275 145.599 44.6063 177.082 44.7039 177.135C44.8653 177.223 100.764 171.699 100.764 171.595C100.764 171.498 66.3592 166.36 64.7899 166.223L63.8277 166.139L59.2359 155.846C56.7103 150.185 54.5632 145.337 54.4642 145.073C54.3002 144.635 54.2721 144.619 54.1467 144.896Z" fill="#0D0B33"/>
<path d="M1.02173 162.836C5.67053 174.548 9.26332 179.93 19.1336 185.476V201.324C10.1212 194.945 5.29613 191.031 1.02173 177.552V162.836Z" fill="#0D0B33"/>
<path d="M25.928 191.133L32.72 194.529V210.377L25.928 206.981V191.133Z" fill="#0D0B33"/>
<path d="M140.156 189.833C108.327 208.208 56.722 208.208 24.893 189.833C9.8664 181.158 1.93391 169.939 1.09552 158.578L1.02563 142.73C1.23931 154.607 9.1951 166.446 24.893 175.509C56.722 193.884 108.327 193.884 140.156 175.509C155.789 166.484 163.744 154.705 164.021 142.878V141.598C164.031 142.024 164.031 142.451 164.021 142.878V157.202C163.744 169.03 155.789 180.808 140.156 189.833Z" fill="#79EFBD" stroke="#0D0B33" stroke-width="0.870808"/>
<path d="M140.157 174.768C108.328 193.143 56.7225 193.143 24.8935 174.768C-6.93554 156.393 -6.93554 126.601 24.8935 108.226C56.7225 89.8517 108.328 89.8517 140.157 108.226C171.986 126.601 171.986 156.393 140.157 174.768Z" fill="#F7F6FF" stroke="#0D0B33" stroke-width="0.870808"/>
<path fill-rule="evenodd" clip-rule="evenodd" d="M119.204 117.689C118.631 117.825 104.96 119.825 88.8232 122.135C72.6873 124.444 59.3026 126.381 59.0789 126.438C58.7883 126.513 60.034 129.6 63.4473 137.262L68.2227 147.982L86.7916 150.735C100.132 152.712 105.412 153.421 105.543 153.251C106.221 152.373 120.797 117.76 120.549 117.617C120.382 117.521 119.777 117.553 119.204 117.689ZM54.1467 129.318C53.8275 130.021 44.6063 161.504 44.7039 161.557C44.8653 161.645 100.764 156.12 100.764 156.017C100.764 155.919 66.3592 150.782 64.7899 150.645L63.8277 150.561L59.2359 140.268C56.7103 134.607 54.5632 129.759 54.4642 129.495C54.3002 129.057 54.2721 129.041 54.1467 129.318Z" fill="#0D0B33"/>
<path d="M1.02173 147.258C5.67053 158.969 9.26332 164.352 19.1336 169.898V185.746C10.1212 179.367 5.29613 175.453 1.02173 161.974V147.258Z" fill="#0D0B33"/>
<path d="M25.928 175.555L32.72 178.951V194.799L25.928 191.403V175.555Z" fill="#0D0B33"/>
<path d="M140.156 174.263C108.327 192.638 56.722 192.638 24.893 174.263C9.8664 165.588 1.93391 154.369 1.09552 143.007L1.02563 127.159C1.23931 139.037 9.1951 150.876 24.893 159.938C56.722 178.313 108.327 178.313 140.156 159.938C155.789 150.914 163.744 139.135 164.021 127.308V126.027C164.031 126.454 164.031 126.881 164.021 127.308V141.632C163.744 153.46 155.789 165.238 140.156 174.263Z" fill="#79EFBD" stroke="#0D0B33" stroke-width="0.870808"/>
<path d="M140.157 159.198C108.328 177.573 56.7225 177.573 24.8935 159.198C-6.93554 140.823 -6.93554 111.031 24.8935 92.6562C56.7225 74.2813 108.328 74.2813 140.157 92.6562C171.986 111.031 171.986 140.823 140.157 159.198Z" fill="#F7F6FF" stroke="#0D0B33" stroke-width="0.870808"/>
<path fill-rule="evenodd" clip-rule="evenodd" d="M119.204 102.119C118.631 102.254 104.96 104.255 88.8232 106.564C72.6873 108.874 59.3026 110.81 59.0789 110.868C58.7883 110.943 60.034 114.03 63.4473 121.692L68.2227 132.411L86.7916 135.164C100.132 137.142 105.412 137.85 105.543 137.681C106.221 136.803 120.797 102.19 120.549 102.047C120.382 101.95 119.777 101.983 119.204 102.119ZM54.1467 113.747C53.8275 114.451 44.6063 145.934 44.7039 145.987C44.8653 146.075 100.764 140.55 100.764 140.447C100.764 140.349 66.3592 135.211 64.7899 135.074L63.8277 134.991L59.2359 124.698C56.7103 119.037 54.5632 114.189 54.4642 113.925C54.3002 113.487 54.2721 113.471 54.1467 113.747Z" fill="#0D0B33"/>
<path d="M1.02173 131.688C5.67053 143.399 9.26332 148.781 19.1336 154.327V170.175C10.1212 163.796 5.29613 159.882 1.02173 146.403V131.688Z" fill="#0D0B33"/>
<path d="M25.928 159.984L32.72 163.38V179.228L25.928 175.832V159.984Z" fill="#0D0B33"/>
<path d="M140.156 158.685C108.327 177.06 56.722 177.06 24.893 158.685C9.8664 150.01 1.93391 138.79 1.09552 127.429L1.02563 111.581C1.23931 123.458 9.1951 135.298 24.893 144.36C56.722 162.735 108.327 162.735 140.156 144.36C155.789 135.336 163.744 123.557 164.021 111.73V110.449C164.031 110.876 164.031 111.303 164.021 111.73V126.054C163.744 137.881 155.789 149.66 140.156 158.685Z" fill="#79EFBD" stroke="#0D0B33" stroke-width="0.870808"/>
<path d="M140.157 143.619C108.328 161.994 56.7225 161.994 24.8935 143.619C-6.93554 125.245 -6.93554 95.453 24.8935 77.0781C56.7225 58.7031 108.328 58.7031 140.157 77.0781C171.986 95.453 171.986 125.245 140.157 143.619Z" fill="#F7F6FF" stroke="#0D0B33" stroke-width="0.870808"/>
<path fill-rule="evenodd" clip-rule="evenodd" d="M119.204 86.5405C118.631 86.6763 104.96 88.677 88.8232 90.9864C72.6873 93.2958 59.3026 95.2324 59.0789 95.2898C58.7883 95.3646 60.034 98.4515 63.4473 106.114L68.2227 116.833L86.7916 119.586C100.132 121.564 105.412 122.272 105.543 122.103C106.221 121.225 120.797 86.6117 120.549 86.4687C120.382 86.3723 119.777 86.4045 119.204 86.5405ZM54.1467 98.1692C53.8275 98.8727 44.6063 130.356 44.7039 130.409C44.8653 130.496 100.764 124.972 100.764 124.868C100.764 124.771 66.3592 119.633 64.7899 119.496L63.8277 119.412L59.2359 109.12C56.7103 103.458 54.5632 98.6106 54.4642 98.3465C54.3002 97.9087 54.2721 97.893 54.1467 98.1692Z" fill="#0D0B33"/>
<path d="M1.02173 116.109C5.67053 127.821 9.26332 133.203 19.1336 138.749V154.597C10.1212 148.218 5.29613 144.304 1.02173 130.825V116.109Z" fill="#0D0B33"/>
<path d="M25.928 144.406L32.72 147.802V163.65L25.928 160.254V144.406Z" fill="#0D0B33"/>
<path d="M140.156 143.114C108.327 161.489 56.722 161.489 24.893 143.114C9.8664 134.44 1.93391 123.22 1.09552 111.859L1.02563 96.0109C1.23931 107.888 9.1951 119.727 24.893 128.79C56.722 147.165 108.327 147.165 140.156 128.79C155.789 119.765 163.744 107.987 164.021 96.1594V94.8789C164.031 95.3057 164.031 95.7326 164.021 96.1594V110.484C163.744 122.311 155.789 134.09 140.156 143.114Z" fill="#79EFBD" stroke="#0D0B33" stroke-width="0.870808"/>
<path d="M140.157 128.049C108.328 146.424 56.7225 146.424 24.8935 128.049C-6.93554 109.674 -6.93554 79.8827 24.8935 61.5077C56.7225 43.1328 108.328 43.1328 140.157 61.5077C171.986 79.8827 171.986 109.674 140.157 128.049Z" fill="#F7F6FF" stroke="#0D0B33" stroke-width="0.870808"/>
<path fill-rule="evenodd" clip-rule="evenodd" d="M119.204 70.9702C118.631 71.106 104.96 73.1067 88.8232 75.4161C72.6873 77.7255 59.3026 79.6621 59.0789 79.7195C58.7883 79.7943 60.034 82.8812 63.4473 90.5436L68.2227 101.263L86.7916 104.016C100.132 105.993 105.412 106.702 105.543 106.532C106.221 105.655 120.797 71.0413 120.549 70.8984C120.382 70.802 119.777 70.8342 119.204 70.9702ZM54.1467 82.5989C53.8275 83.3024 44.6063 114.786 44.7039 114.839C44.8653 114.926 100.764 109.402 100.764 109.298C100.764 109.201 66.3592 104.063 64.7899 103.926L63.8277 103.842L59.2359 93.5494C56.7103 87.8883 54.5632 83.0402 54.4642 82.7762C54.3002 82.3384 54.2721 82.3226 54.1467 82.5989Z" fill="#0D0B33"/>
<path d="M1.02173 100.539C5.67053 112.251 9.26332 117.633 19.1336 123.179V139.027C10.1212 132.648 5.29613 128.734 1.02173 115.255V100.539Z" fill="#0D0B33"/>
<path d="M25.928 128.836L32.72 132.232V148.08L25.928 144.684V128.836Z" fill="#0D0B33"/>
<path d="M140.156 127.536C108.327 145.911 56.722 145.911 24.893 127.536C9.8664 118.861 1.93391 107.642 1.09552 96.2807L1.02563 80.4328C1.23931 92.31 9.1951 104.149 24.893 113.212C56.722 131.587 108.327 131.587 140.156 113.212C155.789 104.187 163.744 92.4086 164.021 80.5813V79.3008C164.031 79.7276 164.031 80.1545 164.021 80.5813V94.9055C163.744 106.733 155.789 118.512 140.156 127.536Z" fill="#79EFBD" stroke="#0D0B33" stroke-width="0.870808"/>
<path d="M140.157 112.471C108.328 130.846 56.7225 130.846 24.8935 112.471C-6.93554 94.0962 -6.93554 64.3045 24.8935 45.9296C56.7225 27.5547 108.328 27.5547 140.157 45.9296C171.986 64.3045 171.986 94.0962 140.157 112.471Z" fill="#F7F6FF" stroke="#0D0B33" stroke-width="0.870808"/>
<path fill-rule="evenodd" clip-rule="evenodd" d="M119.204 55.392C118.631 55.5278 104.96 57.5284 88.8232 59.8379C72.6873 62.1472 59.3026 64.0838 59.0789 64.1413C58.7883 64.2161 60.034 67.303 63.4473 74.9653L68.2227 85.6849L86.7916 88.4377C100.132 90.4153 105.412 91.1239 105.543 90.9543C106.221 90.0764 120.797 55.4631 120.549 55.3202C120.382 55.2238 119.777 55.256 119.204 55.392ZM54.1467 67.0206C53.8275 67.7242 44.6063 99.2074 44.7039 99.2604C44.8653 99.348 100.764 93.8235 100.764 93.72C100.764 93.6225 66.3592 88.4847 64.7899 88.3478L63.8277 88.264L59.2359 77.9711C56.7103 72.3101 54.5632 67.462 54.4642 67.1979C54.3002 66.7602 54.2721 66.7444 54.1467 67.0206Z" fill="#0D0B33"/>
<path d="M1.02173 84.9609C5.67053 96.6725 9.26332 102.055 19.1336 107.601V123.449C10.1212 117.07 5.29613 113.156 1.02173 99.6768V84.9609Z" fill="#0D0B33"/>
<path d="M25.928 113.258L32.72 116.654V132.502L25.928 129.106V113.258Z" fill="#0D0B33"/>
<path d="M140.156 111.962C108.327 130.337 56.722 130.337 24.893 111.962C9.8664 103.287 1.93391 92.0678 1.09552 80.7064L1.02563 64.8586C1.23931 76.7358 9.1951 88.5751 24.893 97.6375C56.722 116.012 108.327 116.012 140.156 97.6375C155.789 88.6129 163.744 76.8344 164.021 65.0071V63.7266C164.031 64.1534 164.031 64.5803 164.021 65.0071V79.3313C163.744 91.1587 155.789 102.937 140.156 111.962Z" fill="#79EFBD" stroke="#0D0B33" stroke-width="0.870808"/>
<path d="M140.157 96.8968C108.328 115.272 56.7225 115.272 24.8935 96.8968C-6.93554 78.5219 -6.93554 48.7303 24.8935 30.3554C56.7225 11.9805 108.328 11.9805 140.157 30.3554C171.986 48.7303 171.986 78.5219 140.157 96.8968Z" fill="#F7F6FF" stroke="#0D0B33" stroke-width="0.870808"/>
<path fill-rule="evenodd" clip-rule="evenodd" d="M119.204 39.8177C118.631 39.9536 104.96 41.9542 88.8232 44.2637C72.6873 46.573 59.3026 48.5096 59.0789 48.5671C58.7883 48.6418 60.034 51.7288 63.4473 59.3911L68.2227 70.1107L86.7916 72.8635C100.132 74.8411 105.412 75.5496 105.543 75.38C106.221 74.5022 120.797 39.8889 120.549 39.746C120.382 39.6496 119.777 39.6818 119.204 39.8177ZM54.1467 51.4464C53.8275 52.15 44.6063 83.6332 44.7039 83.6862C44.8653 83.7738 100.764 78.2493 100.764 78.1458C100.764 78.0483 66.3592 72.9105 64.7899 72.7736L63.8277 72.6898L59.2359 62.3969C56.7103 56.7358 54.5632 51.8878 54.4642 51.6237C54.3002 51.1859 54.2721 51.1702 54.1467 51.4464Z" fill="#0D0B33"/>
<path d="M1.02173 69.3867C5.67053 81.0983 9.26332 86.4806 19.1336 92.0265V107.874C10.1212 101.496 5.29613 97.5815 1.02173 84.1026V69.3867Z" fill="#0D0B33"/>
<path d="M25.928 97.6875L32.72 101.083V116.931L25.928 113.535V97.6875Z" fill="#0D0B33"/>
<path d="M140.156 96.3879C108.327 114.763 56.722 114.763 24.893 96.3879C9.8664 87.713 1.93391 76.4936 1.09552 65.1322L1.02563 49.2843C1.23931 61.1615 9.1951 73.0009 24.893 82.0633C56.722 100.438 108.327 100.438 140.156 82.0633C155.789 73.0387 163.744 61.2602 164.021 49.4328V48.1523C164.031 48.5792 164.031 49.006 164.021 49.4328V63.7571C163.744 75.5845 155.789 87.3632 140.156 96.3879Z" fill="#79EFBD" stroke="#0D0B33" stroke-width="0.870808"/>
<path d="M140.157 81.3226C108.328 99.6975 56.7225 99.6975 24.8935 81.3226C-6.93554 62.9477 -6.93554 33.1561 24.8935 14.7812C56.7225 -3.59373 108.328 -3.59373 140.157 14.7812C171.986 33.1561 171.986 62.9477 140.157 81.3226Z" fill="#F7F6FF" stroke="#0D0B33" stroke-width="0.870808"/>
<path fill-rule="evenodd" clip-rule="evenodd" d="M55.3827 37.5659L58.594 44.3928L49.8323 49.3912L49.8291 49.3894L49.8323 49.3876L46.6243 42.5626L55.3827 37.5659ZM59.45 69.8699L59.4533 69.8717L50.6884 74.872L38.7187 73.0418L35.5107 66.2132L44.2755 61.2128L47.4836 68.0415L59.45 69.8699ZM34.6578 40.7342L41.0739 54.3879L32.3123 59.3863L29.1042 52.5577L25.8994 45.7308L22.6913 38.9058L48.9729 23.9122L52.1778 30.7391L34.6578 40.7342ZM112.869 65.3635L124.839 67.1937L98.5575 82.1873L86.591 80.3552L62.6581 76.6985L71.4197 71.7001L95.3494 75.3586L112.869 65.3635ZM88.9397 61.7049L100.903 63.5351L92.1445 68.5318L80.1781 66.7034L88.9397 61.7049ZM115.218 46.7132L118.423 53.5401L109.665 58.5367L85.7317 54.88L68.2117 64.8751L56.2453 63.0431L53.034 56.2162L70.554 46.2211L67.3524 39.3961L64.1443 32.5674L72.9027 27.5708L84.8724 29.401L91.282 43.0547L103.252 44.8849L115.218 46.7132ZM108.802 33.0595L112.013 39.8864L100.044 38.0562L96.8355 31.2275L108.802 33.0595ZM132.741 36.7163L135.943 43.5449L123.977 41.7166L120.772 34.8898L117.567 28.0592L105.594 26.2309L93.6307 24.4044L90.4227 17.5757L102.396 19.404L126.329 23.0607L129.537 29.8894L132.741 36.7163ZM139.148 50.3717L142.359 57.1986L133.597 62.1971L121.628 60.3669L130.389 55.3684L127.185 48.5415L139.148 50.3717ZM81.6642 22.5723L69.6978 20.7439L60.9361 25.7424L57.7313 18.9156L66.4929 13.9171L78.4562 15.7473L81.6642 22.5723Z" fill="#0D0B33"/>
<path d="M1.02173 53.8125C5.67053 65.5241 9.26332 70.9064 19.1336 76.4523V92.3002C10.1212 85.9215 5.29613 82.0073 1.02173 68.5284V53.8125Z" fill="#0D0B33"/>
<path d="M25.9241 82.1094L32.7161 85.5053V101.353L25.9241 97.9573V82.1094Z" fill="#0D0B33"/>
</g>
<defs>
<clipPath id="clip0_8040_115812">
<rect width="219" height="288" fill="white" transform="translate(0.0217285)"/>
</clipPath>
</defs>
</svg>
