<svg width="133" height="173" viewBox="0 0 133 173" fill="none" xmlns="http://www.w3.org/2000/svg">
<path d="M109.504 171.487C111.427 170.42 112.62 168.076 112.62 164.72L131.862 154.055C131.862 157.41 130.669 159.754 128.746 160.821L109.504 171.487Z" fill="#0D0B33" stroke="#0D0B33" stroke-width="1.34" stroke-linejoin="round"/>
<path fill-rule="evenodd" clip-rule="evenodd" d="M4.25923 12.3141C6.13254 11.2761 8.69811 11.4505 11.528 13.0844H11.5284L102.236 65.4544L121.478 54.7886L30.769 2.41797L30.7688 2.41806C27.9385 0.784257 25.3727 0.610321 23.4994 1.64908L4.25923 12.3141Z" fill="#B4A1FF"/>
<path d="M11.528 13.0844L11.193 13.6646C11.2949 13.7234 11.4104 13.7544 11.528 13.7544V13.0844ZM4.25923 12.3141L3.9344 11.7281C3.61079 11.9075 3.49385 12.3153 3.67321 12.6389C3.85256 12.9625 4.26031 13.0795 4.58395 12.9002L4.25923 12.3141ZM11.5284 13.0844L11.8634 12.5041C11.7615 12.4453 11.646 12.4144 11.5284 12.4144V13.0844ZM102.236 65.4544L101.901 66.0346C102.105 66.1522 102.355 66.1544 102.561 66.0404L102.236 65.4544ZM121.478 54.7886L121.802 55.3746C122.014 55.2575 122.145 55.0359 122.147 54.7944C122.15 54.553 122.022 54.3291 121.813 54.2083L121.478 54.7886ZM30.769 2.41797L31.104 1.83773C30.9 1.71996 30.6491 1.71795 30.4433 1.83246L30.769 2.41797ZM30.7688 2.41806L30.4338 2.99832C30.6378 3.11608 30.8887 3.11807 31.0945 3.00358L30.7688 2.41806ZM23.4994 1.64908L23.8243 2.23508L23.8244 2.23502L23.4994 1.64908ZM11.863 12.5041C8.91258 10.8007 6.08547 10.5362 3.9345 11.7281L4.58395 12.9002C6.1796 12.016 8.48363 12.1003 11.193 13.6646L11.863 12.5041ZM11.5284 12.4144H11.528V13.7544H11.5284V12.4144ZM102.571 64.8741L11.8634 12.5041L11.1934 13.6646L101.901 66.0346L102.571 64.8741ZM121.153 54.2026L101.911 64.8684L102.561 66.0404L121.802 55.3746L121.153 54.2026ZM30.434 2.99821L121.143 55.3688L121.813 54.2083L31.104 1.83773L30.434 2.99821ZM31.0945 3.00358L31.0947 3.00348L30.4433 1.83246L30.4431 1.83255L31.0945 3.00358ZM23.8244 2.23502C25.4199 1.35024 27.7241 1.43411 30.4338 2.99832L31.1038 1.8378C28.1529 0.134402 25.3255 -0.129601 23.1745 1.06314L23.8244 2.23502ZM4.58405 12.9001L23.8243 2.23508L23.1746 1.06309L3.9344 11.7281L4.58405 12.9001ZM4.5826 12.9009L4.58402 12.9001L3.93444 11.7281L3.93302 11.7289L4.5826 12.9009Z" fill="#0D0B33"/>
<path d="M112.621 164.72V83.4451L131.863 72.7793V154.055L112.621 164.72Z" fill="#0D0B33" stroke="#0D0B33" stroke-width="1.34" stroke-linejoin="round"/>
<path d="M112.621 83.4448C112.621 76.8211 107.971 68.7667 102.234 65.4549L121.476 54.7891C127.212 58.1009 131.862 66.1553 131.862 72.779L112.621 83.4448Z" fill="#4A21EF" stroke="#0D0B33" stroke-width="1.34" stroke-linejoin="round"/>
<path d="M11.5271 13.0845C5.79081 9.77267 1.14063 12.4575 1.14063 19.0812L1.14063 100.356C1.14062 106.98 5.7908 115.034 11.5271 118.346L36.9779 133.04C39.5234 134.51 41.9498 137.155 43.6564 140.321L49.5755 151.302C49.8504 151.812 50.3281 152.087 50.603 151.895L56.5214 147.749C58.2281 146.554 60.6546 146.71 63.2001 148.18L102.236 170.717C107.972 174.029 112.622 171.344 112.622 164.72V83.445C112.622 76.8213 107.972 68.767 102.236 65.4551L11.5271 13.0845Z" fill="#8674F5" stroke="#0D0B33" stroke-width="1.34" stroke-linejoin="round"/>
<path fill-rule="evenodd" clip-rule="evenodd" d="M69.3559 65.4446C71.3713 65.6439 73.5314 66.3948 75.713 67.6543C77.8945 68.9138 80.0546 70.6573 82.07 72.7851C84.085 74.9126 85.9158 77.3826 87.4579 80.054C89.0004 82.7252 90.2249 85.5472 91.0599 88.356C91.8949 91.1652 92.3248 93.9077 92.3248 96.4268C92.3248 98.9458 91.8949 101.192 91.0599 103.037C90.2249 104.882 89.001 106.289 87.4583 107.179C87.4583 107.179 75.6809 113.979 69.1354 117.758C68.1661 118.318 67.3116 118.811 83.1955 109.641C65.5326 119.838 64.8726 120.219 64.8726 120.219C63.8748 120.795 62.2571 119.861 61.2594 118.133L38.6737 79.0136C35.5586 73.6182 33.8086 67.7293 33.8086 62.6424C33.8086 57.5556 35.5586 53.6874 38.6737 51.8889C41.7887 50.0905 46.0137 50.509 50.419 53.0524C54.8244 55.5958 59.0493 60.0559 62.1644 65.4513L63.066 67.0129C63.066 67.0129 63.5359 66.7416 63.7971 66.5909C63.8358 66.5685 63.8699 66.5488 63.2361 66.9147C63.9408 66.5078 63.9672 66.4926 63.9672 66.4926C65.5093 65.6016 67.3407 65.2453 69.3559 65.4446Z" fill="#F7F6FF" stroke="#0D0B33" stroke-width="1.34" stroke-linejoin="round"/>
<path fill-rule="evenodd" clip-rule="evenodd" d="M38.0393 59.9069C33.7458 57.428 29.6237 56.9676 26.5333 58.6107L38.6635 51.8869C41.7785 50.0884 46.0034 50.5069 50.4088 53.0504L50.4088 53.0505C54.814 55.5939 59.0389 60.0537 62.1539 65.449H62.1549L63.0566 67.0106L50.687 73.8672L49.7854 72.3055L49.7846 72.3059C46.6696 66.9105 42.4446 62.4505 38.0393 59.907L38.0393 59.9069ZM26.5333 58.6107L26.2939 58.7434C26.373 58.6978 26.4528 58.6535 26.5333 58.6107Z" fill="#4A21EF"/>
<path d="M38.0393 59.9069L38.7039 59.9917C38.7381 59.7239 38.6081 59.4617 38.3743 59.3267L38.0393 59.9069ZM38.6635 51.8869L38.9883 52.473L38.9985 52.4671L38.6635 51.8869ZM50.4088 53.0504L51.0745 53.126C51.1046 52.8611 50.9748 52.6035 50.7438 52.4701L50.4088 53.0504ZM50.4088 53.0505L49.7431 52.9748C49.713 53.2398 49.8428 53.4974 50.0738 53.6307L50.4088 53.0505ZM62.1539 65.449L61.5737 65.784C61.6934 65.9913 61.9145 66.119 62.1539 66.119V65.449ZM62.1549 65.449L62.7352 65.114C62.6155 64.9067 62.3943 64.779 62.1549 64.779V65.449ZM63.0566 67.0106L63.3814 67.5966C63.5386 67.5095 63.6542 67.3629 63.7022 67.1897C63.7502 67.0165 63.7267 66.8313 63.6368 66.6756L63.0566 67.0106ZM50.687 73.8672L50.1068 74.2022C50.2895 74.5187 50.6922 74.6304 51.0119 74.4532L50.687 73.8672ZM49.7854 72.3055L50.3657 71.9705C50.1892 71.6648 49.8058 71.5485 49.4892 71.7045L49.7854 72.3055ZM49.7846 72.3059L49.2044 72.6409C49.3809 72.9466 49.7642 73.0629 50.0808 72.9069L49.7846 72.3059ZM38.0393 59.907L37.3747 59.8222C37.3405 60.09 37.4704 60.3522 37.7043 60.4873L38.0393 59.907ZM26.2939 58.7434L25.9589 58.1632C25.6405 58.3471 25.5297 58.7533 25.7108 59.0733C25.8919 59.3934 26.2971 59.5077 26.6188 59.3294L26.2939 58.7434ZM26.8479 59.2023C29.6564 57.709 33.5203 58.0715 37.7043 60.4871L38.3743 59.3267C33.9713 56.7846 29.5909 56.2261 26.2188 58.0192L26.8479 59.2023ZM38.3386 51.3009L26.2085 58.0247L26.8582 59.1967L38.9883 52.4729L38.3386 51.3009ZM50.7438 52.4701C46.2267 49.8622 41.7313 49.342 38.3285 51.3067L38.9985 52.4671C41.8257 50.8348 45.7801 51.1516 50.0738 53.6306L50.7438 52.4701ZM51.0745 53.1262L51.0745 53.126L49.7431 52.9747L49.7431 52.9748L51.0745 53.1262ZM62.7341 65.114C59.5734 59.6396 55.2715 55.0843 50.7438 52.4703L50.0738 53.6307C54.3566 56.1034 58.5043 60.4678 61.5737 65.784L62.7341 65.114ZM62.1549 64.779H62.1539V66.119H62.1549V64.779ZM63.6368 66.6756L62.7352 65.114L61.5747 65.784L62.4763 67.3456L63.6368 66.6756ZM51.0119 74.4532L63.3814 67.5966L62.7317 66.4246L50.3622 73.2812L51.0119 74.4532ZM49.2052 72.6405L50.1068 74.2022L51.2673 73.5322L50.3657 71.9705L49.2052 72.6405ZM50.0808 72.9069L50.0816 72.9065L49.4892 71.7045L49.4884 71.7049L50.0808 72.9069ZM37.7043 60.4873C41.9872 62.96 46.135 67.3246 49.2044 72.6409L50.3649 71.9709C47.2041 66.4964 42.9021 61.9409 38.3743 59.3268L37.7043 60.4873ZM37.3747 59.822L37.3747 59.8222L38.7039 59.9919L38.7039 59.9917L37.3747 59.822ZM26.2085 58.0247L25.9691 58.1574L26.6188 59.3294L26.8582 59.1967L26.2085 58.0247ZM26.6289 59.3237C26.7013 59.2819 26.7743 59.2414 26.8479 59.2023L26.2188 58.0192C26.1314 58.0656 26.0448 58.1136 25.9589 58.1632L26.6289 59.3237Z" fill="#0D0B33"/>
<path d="M50.6943 73.8685L51.4254 73.4464L63.7949 66.5899L63.0638 67.012L50.6943 73.8685Z" fill="#F7F6FF" stroke="#0D0B33" stroke-width="1.34" stroke-linejoin="round"/>
<path d="M51.4252 73.4456L50.8643 73.7694L63.2338 66.9129L63.7947 66.589L51.4252 73.4456Z" fill="#F7F6FF" stroke="#0D0B33" stroke-width="1.34" stroke-linejoin="round"/>
<path d="M50.8643 73.7701L51.5953 73.348L63.9648 66.4914L63.2338 66.9135L50.8643 73.7701Z" fill="#F7F6FF" stroke="#0D0B33" stroke-width="1.34" stroke-linejoin="round"/>
<path fill-rule="evenodd" clip-rule="evenodd" d="M51.8385 73.213C53.3285 72.4214 55.0734 72.1112 56.9834 72.3001H56.9859L56.9819 72.3023C58.9973 72.5016 61.1575 73.2525 63.339 74.512L63.3409 74.5109C65.5222 75.7704 67.682 77.5137 69.6971 79.6412L69.702 79.6405L69.6982 79.6426C71.7131 81.7699 73.5438 84.2397 75.0858 86.911L75.0854 86.9112C76.6279 89.5824 77.8524 92.4044 78.6874 95.2132L78.6878 95.2129C79.5225 98.0216 79.9522 100.764 79.9522 103.282L79.9549 103.282L79.9522 103.283C79.9522 105.802 79.5224 108.048 78.6873 109.893L78.6897 109.893L78.687 109.894C77.852 111.739 76.6281 113.147 75.0854 114.037L87.4549 107.18C88.9976 106.29 90.2215 104.882 91.0565 103.038L91.054 103.039L91.0568 103.037C91.8919 101.192 92.3217 98.9456 92.3217 96.4266L92.3191 96.428L92.3217 96.4256C92.3217 93.9065 91.8919 91.164 91.0568 88.3548L91.0564 88.355C90.2215 85.5469 88.9973 82.7257 87.4552 80.0552L87.4556 80.055C85.9135 77.3835 84.0827 74.9135 82.0677 72.786L82.0638 72.7882L82.0666 72.7847C80.0513 70.6569 77.8911 68.9134 75.7096 67.6539L75.7076 67.655C73.5269 66.396 71.3674 65.6454 69.3527 65.4459L69.3529 65.4436C67.3377 65.2443 65.5064 65.6006 63.9642 66.4916L51.8385 73.213ZM51.5947 73.3481C51.6752 73.3017 51.7565 73.2566 51.8385 73.213L51.5947 73.3481Z" fill="#4A21EF"/>
<path d="M56.9834 72.3001L56.9175 72.9669C56.9394 72.969 56.9614 72.9701 56.9834 72.9701V72.3001ZM56.9859 72.3001L57.3107 72.8861C57.5778 72.738 57.711 72.428 57.6345 72.1323C57.5581 71.8367 57.2913 71.6301 56.9859 71.6301V72.3001ZM56.9819 72.3023L56.6571 71.7163C56.4007 71.8584 56.2664 72.1508 56.3258 72.4379C56.3851 72.725 56.6242 72.9402 56.916 72.969L56.9819 72.3023ZM63.339 74.512L63.004 75.0922C63.2077 75.2098 63.4581 75.212 63.6639 75.098L63.339 74.512ZM63.3409 74.5109L63.6759 73.9307C63.4722 73.8131 63.2218 73.8109 63.0161 73.9249L63.3409 74.5109ZM69.6971 79.6412L69.2107 80.102C69.3626 80.2623 69.5837 80.3375 69.8019 80.303L69.6971 79.6412ZM69.702 79.6405L70.0269 80.2264C70.3112 80.0688 70.4413 79.7297 70.3355 79.4223C70.2296 79.1149 69.9183 78.9279 69.5972 78.9787L69.702 79.6405ZM69.6982 79.6426L69.3733 79.0566C69.1921 79.1571 69.0676 79.3356 69.036 79.5404C69.0044 79.7451 69.0693 79.9529 69.2118 80.1033L69.6982 79.6426ZM75.0858 86.911L75.4107 87.497C75.5679 87.4098 75.6834 87.2632 75.7314 87.0901C75.7794 86.9169 75.7559 86.7317 75.6661 86.5761L75.0858 86.911ZM75.0854 86.9112L74.7605 86.3253C74.6033 86.4125 74.4877 86.5591 74.4397 86.7323C74.3917 86.9055 74.4153 87.0907 74.5052 87.2463L75.0854 86.9112ZM78.6874 95.2132L78.0451 95.4041C78.103 95.5987 78.246 95.7566 78.4339 95.8334C78.6218 95.9102 78.8345 95.8976 79.0121 95.7992L78.6874 95.2132ZM78.6878 95.2129L79.33 95.0221C79.2722 94.8274 79.1292 94.6696 78.9413 94.5927C78.7533 94.5159 78.5407 94.5285 78.3631 94.6269L78.6878 95.2129ZM79.9522 103.282H79.2822C79.2822 103.479 79.3692 103.667 79.5201 103.794C79.6709 103.921 79.8702 103.976 80.0647 103.943L79.9522 103.282ZM79.9549 103.282L80.2795 103.868C80.5653 103.709 80.6953 103.368 80.5871 103.06C80.479 102.752 80.1644 102.566 79.8423 102.621L79.9549 103.282ZM79.9522 103.283L79.6275 102.697C79.4144 102.815 79.2822 103.04 79.2822 103.283H79.9522ZM78.6873 109.893L78.0769 109.617C77.967 109.86 78.0114 110.145 78.19 110.342C78.3686 110.54 78.6474 110.613 78.9001 110.529L78.6873 109.893ZM78.6897 109.893L79.0142 110.479C79.3172 110.311 79.4424 109.94 79.303 109.623C79.1635 109.306 78.8053 109.147 78.4769 109.257L78.6897 109.893ZM78.687 109.894L78.3624 109.308C78.2363 109.378 78.136 109.486 78.0766 109.618L78.687 109.894ZM75.0854 114.037L74.7506 113.456C74.432 113.64 74.3211 114.046 74.5022 114.366C74.6833 114.687 75.0885 114.801 75.4102 114.623L75.0854 114.037ZM87.4549 107.18L87.7798 107.766L87.7897 107.76L87.4549 107.18ZM91.0565 103.038L91.6669 103.314C91.786 103.051 91.723 102.741 91.5106 102.545C91.2982 102.349 90.9843 102.311 90.7316 102.452L91.0565 103.038ZM91.054 103.039L90.6548 102.501C90.3714 102.711 90.2997 103.105 90.4908 103.402C90.6819 103.698 91.0703 103.796 91.3789 103.625L91.054 103.039ZM91.0568 103.037L91.4561 103.575C91.5476 103.507 91.6202 103.417 91.6672 103.313L91.0568 103.037ZM92.3217 96.4266H92.9917C92.9917 96.1893 92.8661 95.9696 92.6616 95.8492C92.4571 95.7288 92.2042 95.7256 91.9967 95.8407L92.3217 96.4266ZM92.3191 96.428L91.8557 95.9442C91.6125 96.1771 91.58 96.5544 91.7798 96.8255C91.9796 97.0967 92.3497 97.1773 92.6442 97.0139L92.3191 96.428ZM92.3217 96.4256L92.7851 96.9094C92.9171 96.783 92.9917 96.6083 92.9917 96.4256H92.3217ZM91.0568 88.3548L91.699 88.1638C91.6412 87.9692 91.4982 87.8113 91.3103 87.7345C91.1223 87.6577 90.9097 87.6703 90.7321 87.7687L91.0568 88.3548ZM91.0564 88.355L90.4142 88.5459C90.472 88.7405 90.615 88.8984 90.8029 88.9752C90.9909 89.052 91.2035 89.0394 91.3811 88.941L91.0564 88.355ZM87.4552 80.0552L87.1301 79.4693C86.973 79.5565 86.8575 79.7031 86.8095 79.8763C86.7615 80.0494 86.7851 80.2346 86.875 80.3902L87.4552 80.0552ZM87.4556 80.055L87.7806 80.6408C87.9377 80.5537 88.0532 80.4071 88.1012 80.2339C88.1492 80.0608 88.1257 79.8756 88.0358 79.72L87.4556 80.055ZM82.0677 72.786L82.5542 72.3253C82.344 72.1034 82.0103 72.0519 81.7429 72.2L82.0677 72.786ZM82.0638 72.7882L81.5446 72.3648C81.3416 72.6137 81.3438 72.9716 81.5498 73.218C81.7558 73.4644 82.1076 73.5299 82.3885 73.3742L82.0638 72.7882ZM82.0666 72.7847L82.5859 73.2082C82.7988 72.9471 82.7847 72.5686 82.5531 72.324L82.0666 72.7847ZM75.7096 67.6539L76.0446 67.0736C75.8409 66.9561 75.5905 66.9539 75.3848 67.0679L75.7096 67.6539ZM75.7076 67.655L75.3727 68.2352C75.5763 68.3528 75.8267 68.355 76.0324 68.241L75.7076 67.655ZM69.3527 65.4459L68.6866 65.374C68.6674 65.5517 68.72 65.7296 68.8327 65.8684C68.9454 66.0071 69.1088 66.095 69.2867 66.1126L69.3527 65.4459ZM69.3529 65.4436L70.0191 65.5155C70.0383 65.3378 69.9856 65.1598 69.8729 65.0211C69.7602 64.8823 69.5967 64.7944 69.4189 64.7768L69.3529 65.4436ZM63.9642 66.4916L64.2891 67.0777L64.2994 67.0717L63.9642 66.4916ZM51.5947 73.3481L51.2595 72.768C50.9411 72.952 50.8305 73.3582 51.0116 73.6782C51.1928 73.9982 51.5979 74.1124 51.9195 73.9341L51.5947 73.3481ZM57.0494 71.6334C55.0263 71.4333 53.1461 71.7597 51.5241 72.6213L52.1528 73.8047C53.5109 73.0832 55.1205 72.7891 56.9175 72.9669L57.0494 71.6334ZM56.9859 71.6301H56.9834V72.9701H56.9859V71.6301ZM57.3067 72.8883L57.3107 72.8861L56.661 71.7141L56.6571 71.7163L57.3067 72.8883ZM63.674 73.9317C61.4295 72.6359 59.1782 71.8462 57.0479 71.6355L56.916 72.969C58.8164 73.157 60.8854 73.8691 63.004 75.0922L63.674 73.9317ZM63.0161 73.9249L63.0141 73.926L63.6639 75.098L63.6658 75.0969L63.0161 73.9249ZM70.1836 79.1805C68.1311 77.0135 65.9214 75.2273 63.6759 73.9307L63.0059 75.0911C65.1229 76.3135 67.2329 78.0139 69.2107 80.102L70.1836 79.1805ZM69.5972 78.9787L69.5923 78.9795L69.8019 80.303L69.8068 80.3022L69.5972 78.9787ZM70.0231 80.2285L70.0269 80.2264L69.3771 79.0545L69.3733 79.0566L70.0231 80.2285ZM75.6661 86.5761C74.0992 83.8617 72.2375 81.3492 70.1846 79.1818L69.2118 80.1033C71.1887 82.1906 72.9884 84.6178 74.5055 87.246L75.6661 86.5761ZM74.7609 86.3251L74.7605 86.3253L75.4103 87.4972L75.4107 87.497L74.7609 86.3251ZM74.5052 87.2463C76.0229 89.8744 77.2259 92.6482 78.0451 95.4041L79.3296 95.0223C78.4789 92.1606 77.233 89.2904 75.6656 86.5762L74.5052 87.2463ZM79.0121 95.7992L79.0125 95.799L78.3631 94.6269L78.3627 94.6271L79.0121 95.7992ZM78.0455 95.4038C78.8648 98.1604 79.2822 100.838 79.2822 103.282H80.6222C80.6222 100.689 80.1803 97.8829 79.33 95.0221L78.0455 95.4038ZM80.0647 103.943L80.0675 103.942L79.8423 102.621L79.8396 102.622L80.0647 103.943ZM79.6303 102.696L79.6275 102.697L80.2768 103.869L80.2795 103.868L79.6303 102.696ZM79.2822 103.283C79.2822 105.729 78.8643 107.877 78.0769 109.617L79.2977 110.17C80.1804 108.219 80.6222 105.875 80.6222 103.283H79.2822ZM78.9001 110.529L78.9025 110.528L78.4769 109.257L78.4745 109.258L78.9001 110.529ZM78.3652 109.306L78.3624 109.308L79.0115 110.48L79.0142 110.479L78.3652 109.306ZM78.0766 109.618C77.2911 111.353 76.1557 112.646 74.7506 113.456L75.4202 114.617C77.1006 113.647 78.4128 112.125 79.2973 110.17L78.0766 109.618ZM75.4102 114.623L87.7797 107.766L87.1301 106.594L74.7606 113.451L75.4102 114.623ZM87.7897 107.76C89.4701 106.791 90.7823 105.268 91.6669 103.314L90.4461 102.761C89.6606 104.497 88.5252 105.789 87.1201 106.6L87.7897 107.76ZM90.7316 102.452L90.7292 102.453L91.3789 103.625L91.3813 103.624L90.7316 102.452ZM91.4533 103.577L91.4561 103.575L90.6575 102.499L90.6548 102.501L91.4533 103.577ZM91.6672 103.313C92.5499 101.363 92.9917 99.0183 92.9917 96.4266H91.6517C91.6517 98.8729 91.2338 101.021 90.4464 102.761L91.6672 103.313ZM91.9967 95.8407L91.9941 95.8421L92.6442 97.0139L92.6468 97.0125L91.9967 95.8407ZM92.7826 96.9119L92.7851 96.9094L91.8583 95.9417L91.8557 95.9442L92.7826 96.9119ZM92.9917 96.4256C92.9917 93.8323 92.5496 91.0252 91.699 88.1638L90.4146 88.5457C91.2342 91.3029 91.6517 93.9807 91.6517 96.4256H92.9917ZM90.7321 87.7687L90.7317 87.7689L91.3811 88.941L91.3815 88.9408L90.7321 87.7687ZM91.6986 88.164C90.848 85.3031 89.6023 82.4337 88.0354 79.7201L86.875 80.3902C88.3922 83.0177 89.595 85.7908 90.4142 88.5459L91.6986 88.164ZM87.1305 79.4691L87.1301 79.4693L87.7802 80.6411L87.7806 80.6408L87.1305 79.4691ZM81.5813 73.2468C83.5583 75.3342 85.3581 77.7615 86.8753 80.3899L88.0358 79.72C86.4689 77.0055 84.6071 74.4928 82.5542 72.3253L81.5813 73.2468ZM82.3885 73.3742L82.3925 73.3721L81.7429 72.2L81.739 72.2022L82.3885 73.3742ZM81.5474 72.3613L81.5446 72.3648L82.583 73.2117L82.5859 73.2082L81.5474 72.3613ZM75.3746 68.2341C77.4919 69.4565 79.6022 71.1571 81.5802 73.2454L82.5531 72.324C80.5003 70.1567 78.2904 68.3703 76.0446 67.0736L75.3746 68.2341ZM76.0324 68.241L76.0344 68.2399L75.3848 67.0679L75.3829 67.0689L76.0324 68.241ZM69.2867 66.1126C71.1865 66.3007 73.2548 67.0126 75.3727 68.2352L76.0426 67.0747C73.7989 65.7794 71.5484 64.99 69.4187 64.7791L69.2867 66.1126ZM68.6868 65.3716L68.6866 65.374L70.0188 65.5178L70.0191 65.5155L68.6868 65.3716ZM64.2994 67.0717C65.704 66.2602 67.3915 65.9229 69.287 66.1103L69.4189 64.7768C67.284 64.5657 65.3087 64.941 63.629 65.9115L64.2994 67.0717ZM52.1633 73.799L64.2891 67.0776L63.6394 65.9056L51.5137 72.627L52.1633 73.799ZM51.9299 73.9283C52.0035 73.8858 52.0778 73.8446 52.1528 73.8047L51.5241 72.6213C51.4351 72.6687 51.3469 72.7175 51.2595 72.768L51.9299 73.9283ZM51.5137 72.627L51.2699 72.7622L51.9195 73.9341L52.1633 73.799L51.5137 72.627Z" fill="#0D0B33"/>
<path fill-rule="evenodd" clip-rule="evenodd" d="M56.9838 72.3002C58.9992 72.4996 61.1594 73.2504 63.3409 74.5099C65.5224 75.7694 67.6826 77.5129 69.698 79.6407C71.713 81.7682 73.5438 84.2382 75.0858 86.9097C76.6284 89.5808 77.8529 92.4028 78.6878 95.2116C79.5229 98.0209 79.9527 100.763 79.9527 103.282C79.9527 105.801 79.5229 108.048 78.6878 109.893C77.8528 111.737 76.629 113.145 75.0862 114.035L52.5005 127.075C51.5028 127.651 49.8851 126.717 48.8873 124.989L26.3016 85.8693C23.1865 80.4738 21.4365 74.5849 21.4365 69.4981C21.4365 64.4112 23.1865 60.5431 26.3016 58.7446C29.4167 56.9461 33.6416 57.3646 38.047 59.908C42.4523 62.4515 46.6772 66.9115 49.7923 72.3069L50.6939 73.8686L51.5951 73.3483C53.1372 72.4572 54.9686 72.1009 56.9838 72.3002Z" fill="#F7F6FF" stroke="#0D0B33" stroke-width="1.34" stroke-linejoin="round"/>
</svg>
