<svg xmlns="http://www.w3.org/2000/svg" width="133" height="173" fill="none"><path fill="#0D0B33" stroke="#0D0B33" stroke-linejoin="round" stroke-width="1.34" d="M109.504 171.487c1.923-1.067 3.116-3.411 3.116-6.767l19.242-10.665c0 3.355-1.193 5.699-3.116 6.766l-19.242 10.666Z"/><path fill="#B4A1FF" fill-rule="evenodd" d="M4.26 12.314c1.873-1.038 4.438-.864 7.268.77l90.708 52.37 19.242-10.665L30.769 2.418C27.939.784 25.373.61 23.499 1.65L4.26 12.314Z" clip-rule="evenodd"/><path fill="#0D0B33" d="m11.528 13.084-.335.58a.67.67 0 0 0 .335.09v-.67Zm-7.269-.77-.325-.586a.67.67 0 0 0 .65 1.172l-.325-.586Zm7.27.77.334-.58a.67.67 0 0 0-.335-.09v.67Zm90.707 52.37-.335.58a.67.67 0 0 0 .66.006l-.325-.586Zm19.242-10.665.324.586a.668.668 0 0 0 .345-.58.668.668 0 0 0-.334-.587l-.335.58ZM30.769 2.418l.335-.58a.67.67 0 0 0-.66-.006l.325.586Zm0 0-.335.58a.67.67 0 0 0 .66.006l-.325-.586Zm-7.27-.769.325.586-.325-.586ZM11.863 12.504c-2.95-1.703-5.778-1.968-7.928-.776l.649 1.172c1.596-.884 3.9-.8 6.609.765l.67-1.16Zm-.335-.09v1.34-1.34Zm91.043 52.46-90.708-52.37-.67 1.16 90.708 52.37.67-1.16Zm18.582-10.671-19.242 10.665.65 1.172 19.241-10.665-.649-1.172ZM30.434 2.998l90.709 52.37.67-1.16-90.709-52.37-.67 1.16Zm.66.006-.65-1.172.65 1.172Zm-7.27-.769c1.596-.885 3.9-.8 6.61.763l.67-1.16c-2.951-1.704-5.778-1.968-7.93-.775l.65 1.172ZM4.584 12.9l19.24-10.665-.65-1.172-19.24 10.665.65 1.172Zm-.001 0h.001l-.65-1.172h-.001l.65 1.173Z"/><path fill="#0D0B33" stroke="#0D0B33" stroke-linejoin="round" stroke-width="1.34" d="M112.621 164.72V83.445l19.242-10.666v81.276l-19.242 10.665Z"/><path fill="#4A21EF" stroke="#0D0B33" stroke-linejoin="round" stroke-width="1.34" d="M112.621 83.445c0-6.624-4.65-14.678-10.387-17.99l19.242-10.666c5.736 3.312 10.386 11.366 10.386 17.99l-19.241 10.666Z"/><path fill="#8674F5" stroke="#0D0B33" stroke-linejoin="round" stroke-width="1.34" d="M11.527 13.085C5.791 9.773 1.141 12.457 1.141 19.08v81.275c0 6.624 4.65 14.678 10.386 17.99l25.45 14.694c2.546 1.47 4.973 4.115 6.68 7.281l5.919 10.981c.274.51.752.785 1.027.593l5.918-4.146c1.707-1.195 4.134-1.039 6.68.431l39.035 22.537c5.736 3.312 10.386.627 10.386-5.997V83.445c0-6.624-4.65-14.678-10.386-17.99l-90.709-52.37Z"/><path fill="#F7F6FF" fill-rule="evenodd" stroke="#0D0B33" stroke-linejoin="round" stroke-width="1.34" d="M69.356 65.445c2.015.199 4.175.95 6.357 2.21 2.181 1.259 4.342 3.002 6.357 5.13 2.015 2.128 3.846 4.598 5.388 7.269 1.542 2.671 2.767 5.493 3.602 8.302.835 2.81 1.265 5.552 1.265 8.07 0 2.52-.43 4.766-1.265 6.611-.835 1.845-2.059 3.252-3.602 4.142l-18.323 10.579 14.06-8.117-18.322 10.578c-.998.576-2.616-.358-3.614-2.086l-22.585-39.12c-3.115-5.395-4.865-11.284-4.865-16.37 0-5.087 1.75-8.956 4.865-10.754 3.115-1.799 7.34-1.38 11.745 1.163 4.405 2.544 8.63 7.004 11.745 12.4l.902 1.56.731-.421-.56.324.73-.422c1.542-.891 3.374-1.248 5.389-1.048Z" clip-rule="evenodd"/><path fill="#4A21EF" fill-rule="evenodd" d="M38.04 59.907c-4.294-2.479-8.416-2.94-11.507-1.296l12.13-6.724c3.116-1.799 7.34-1.38 11.746 1.163 4.405 2.544 8.63 7.004 11.745 12.399l.903 1.562-12.37 6.856-.902-1.562c-3.115-5.395-7.34-9.855-11.746-12.398ZM26.532 58.61l-.24.132c.08-.045.16-.09.24-.132Z" clip-rule="evenodd"/><path fill="#0D0B33" d="m38.04 59.907.664.085a.67.67 0 0 0-.33-.665l-.335.58Zm.623-8.02.325.586.01-.006-.334-.58ZM50.41 53.05l.666.076a.67.67 0 0 0-.331-.656l-.335.58Zm0 0-.666-.075a.67.67 0 0 0 .33.656l.336-.58ZM62.154 65.45l-.58.335a.67.67 0 0 0 .58.335v-.67Zm0 0 .581-.335a.67.67 0 0 0-.58-.335v.67Zm.903 1.562.324.586a.67.67 0 0 0 .256-.921l-.58.335Zm-12.37 6.856-.58.335a.67.67 0 0 0 .905.251l-.325-.586Zm-.902-1.562.58-.335a.67.67 0 0 0-.876-.266l.296.602Zm0 0-.58.336a.67.67 0 0 0 .876.266l-.296-.601ZM38.039 59.908l-.664-.085a.67.67 0 0 0 .33.665l.334-.58Zm-11.745-1.164-.335-.58a.67.67 0 0 0 .66 1.166l-.325-.586Zm.554.46c2.808-1.494 6.672-1.132 10.856 1.284l.67-1.16c-4.403-2.542-8.783-3.1-12.155-1.308l.629 1.183Zm11.49-7.902-12.13 6.724.65 1.172 12.13-6.724-.65-1.172Zm12.406 1.17c-4.517-2.609-9.013-3.129-12.416-1.164l.67 1.16c2.828-1.632 6.782-1.315 11.076 1.164l.67-1.16Zm.33.655-1.33-.151 1.33.151Zm11.66 11.988c-3.16-5.474-7.462-10.03-11.99-12.644l-.67 1.16c4.283 2.473 8.43 6.838 11.5 12.154l1.16-.67Zm-.58-.335v1.34-1.34Zm1.483 1.897-.902-1.562-1.16.67.901 1.562 1.16-.67Zm-12.625 7.777 12.37-6.856-.65-1.172-12.37 6.856.65 1.172Zm-1.807-1.813.902 1.562 1.16-.67-.901-1.561-1.16.67Zm.876.267-.592-1.203.592 1.203Zm-12.377-12.42c4.283 2.473 8.431 6.838 11.5 12.154l1.16-.67c-3.16-5.475-7.462-10.03-11.99-12.644l-.67 1.16Zm-.33-.665 1.33.17-1.33-.17Zm-11.166-1.797-.239.132.65 1.172.24-.132-.65-1.172Zm.42 1.299c.073-.042.146-.083.22-.122l-.63-1.183a8.347 8.347 0 0 0-.26.144l.67 1.16Z"/><path fill="#F7F6FF" stroke="#0D0B33" stroke-linejoin="round" stroke-width="1.34" d="m50.694 73.868.731-.422 12.37-6.856-.731.422-12.37 6.856Z"/><path fill="#F7F6FF" stroke="#0D0B33" stroke-linejoin="round" stroke-width="1.34" d="m51.425 73.446-.56.323 12.369-6.856.56-.324-12.369 6.857Z"/><path fill="#F7F6FF" stroke="#0D0B33" stroke-linejoin="round" stroke-width="1.34" d="m50.864 73.77.731-.422 12.37-6.857-.731.422-12.37 6.857Z"/><path fill="#4A21EF" fill-rule="evenodd" d="M51.839 73.213c1.49-.792 3.234-1.102 5.144-.913h.003l-.004.002c2.015.2 4.175.95 6.357 2.21l.002-.001c2.181 1.26 4.341 3.003 6.356 5.13h.005l-.004.002c2.015 2.127 3.846 4.597 5.388 7.268 1.542 2.671 2.766 5.493 3.601 8.302.835 2.809 1.265 5.551 1.265 8.069h.003l-.003.001c0 2.519-.43 4.765-1.265 6.61h.003l-.003.001c-.835 1.845-2.059 3.253-3.602 4.143l12.37-6.857c1.543-.89 2.767-2.298 3.602-4.142l-.003.001.003-.002c.835-1.845 1.265-4.091 1.265-6.61l-.003.001.003-.002c0-2.52-.43-5.262-1.265-8.071-.835-2.808-2.06-5.63-3.602-8.3-1.541-2.672-3.372-5.142-5.387-7.269l-.004.002.003-.003c-2.016-2.128-4.176-3.872-6.357-5.131l-.002.001c-2.181-1.259-4.34-2.01-6.355-2.21v-.001c-2.015-.2-3.847.157-5.389 1.048L51.84 73.213Zm-.244.135c.08-.046.162-.091.244-.135l-.244.135Z" clip-rule="evenodd"/><path fill="#0D0B33" d="m56.983 72.3-.066.667a.69.69 0 0 0 .066.003v-.67Zm.003 0 .325.586a.67.67 0 0 0-.325-1.256v.67Zm-.004.002-.325-.586a.67.67 0 0 0 .259 1.253l.066-.667Zm6.357 2.21-.335.58a.67.67 0 0 0 .66.006l-.325-.586Zm.002-.001.335-.58a.67.67 0 0 0-.66-.006l.325.586Zm6.356 5.13-.486.461a.67.67 0 0 0 .59.201l-.104-.662Zm.005 0 .325.585a.67.67 0 0 0-.43-1.247l.105.662Zm-.004.002-.325-.586a.67.67 0 0 0-.161 1.046l.486-.46Zm5.388 7.268.325.586a.67.67 0 0 0 .255-.92l-.58.334Zm0 0-.326-.586a.67.67 0 0 0-.255.921l.58-.335Zm3.601 8.302-.642.191a.67.67 0 0 0 .967.395l-.325-.586Zm0 0 .643-.19a.67.67 0 0 0-.967-.396l.325.586Zm1.265 8.069h-.67a.67.67 0 0 0 .783.661l-.113-.661Zm.003 0 .325.586a.67.67 0 0 0-.438-1.247l.113.661Zm-.003.001-.325-.586a.67.67 0 0 0-.345.586h.67Zm-1.265 6.61-.61-.276a.67.67 0 0 0 .823.912l-.213-.636Zm.003 0 .324.586a.67.67 0 0 0-.537-1.222l.213.636Zm-.003.001-.325-.586a.668.668 0 0 0-.285.31l.61.276Zm-3.602 4.143-.334-.581a.67.67 0 0 0 .66 1.167l-.326-.586Zm12.37-6.857.325.586.01-.006-.335-.58Zm3.602-4.142.61.276a.67.67 0 0 0-.935-.862l.325.586Zm-.003.001-.4-.538a.67.67 0 0 0 .725 1.124l-.325-.586Zm.003-.002.4.538a.67.67 0 0 0 .21-.262l-.61-.276Zm1.265-6.61h.67a.67.67 0 0 0-.995-.586l.325.586Zm-.003.001-.463-.484a.67.67 0 0 0 .788 1.07l-.325-.586Zm.003-.002.463.483a.67.67 0 0 0 .207-.483h-.67Zm-1.265-8.071.642-.191a.67.67 0 0 0-.967-.395l.325.586Zm0 0-.643.19a.67.67 0 0 0 .967.396l-.325-.586Zm-3.602-8.3-.325-.586a.67.67 0 0 0-.255.921l.58-.335Zm0 0 .326.586a.67.67 0 0 0 .255-.921l-.58.335Zm-5.387-7.269.486-.46a.67.67 0 0 0-.811-.126l.325.586Zm-.004.002-.52-.423a.67.67 0 0 0 .844 1.01l-.324-.587Zm.003-.003.519.423a.67.67 0 0 0-.033-.884l-.486.46Zm-6.357-5.131.335-.58a.67.67 0 0 0-.66-.006l.325.586Zm-.002.001-.335.58a.67.67 0 0 0 .66.006l-.325-.586Zm-6.355-2.21-.666-.071a.67.67 0 0 0 .6.739l.066-.667Zm0-.001.666.072a.67.67 0 0 0-.6-.74l-.066.668Zm-5.389 1.048.325.586.01-.006-.335-.58Zm-12.37 6.856-.334-.58a.67.67 0 0 0 .66 1.166l-.325-.586Zm5.455-1.715c-2.023-.2-3.903.127-5.525.988l.629 1.184c1.358-.722 2.968-1.016 4.764-.838l.132-1.334Zm-.063-.003h-.003v1.34h.003v-1.34Zm.32 1.258.005-.002-.65-1.172-.004.002.65 1.172Zm6.368 1.044c-2.245-1.296-4.496-2.086-6.626-2.297l-.132 1.334c1.9.188 3.97.9 6.088 2.123l.67-1.16Zm-.658-.007-.002.001.65 1.172.002-.001-.65-1.172Zm7.168 5.255c-2.053-2.167-4.263-3.953-6.508-5.25l-.67 1.161c2.117 1.223 4.227 2.923 6.205 5.011l.973-.922Zm-.587-.201h-.005l.21 1.324h.005l-.21-1.324Zm.426 1.25.004-.003-.65-1.171-.004.002.65 1.171Zm5.643 6.347c-1.567-2.714-3.428-5.227-5.481-7.394l-.973.921c1.977 2.088 3.776 4.515 5.293 7.143l1.161-.67Zm-.905-.25.65 1.171-.65-1.172Zm-.256.92c1.518 2.628 2.72 5.402 3.54 8.158l1.285-.382c-.851-2.861-2.097-5.732-3.664-8.446l-1.16.67Zm4.507 8.553-.649-1.172.65 1.172Zm-.966-.395c.819 2.756 1.236 5.434 1.236 7.878h1.34c0-2.593-.442-5.4-1.292-8.26l-1.284.382Zm2.019 8.539.002-.001-.225-1.321-.002.001.225 1.321Zm-.435-1.247-.002.001.649 1.172.002-.001-.649-1.172Zm-.348.587c0 2.446-.418 4.594-1.205 6.334l1.22.553c.883-1.951 1.325-4.295 1.325-6.887h-1.34Zm-.382 7.246.002-.001-.425-1.271-.002.001.425 1.271Zm-.535-1.223-.003.002.65 1.172.002-.001-.649-1.173Zm-.288.312c-.786 1.735-1.921 3.028-3.326 3.838l.67 1.161c1.68-.97 2.992-2.492 3.876-4.447l-1.22-.552Zm-2.667 5.005 12.37-6.857-.65-1.172-12.37 6.857.65 1.172Zm12.38-6.863c1.68-.969 2.992-2.492 3.877-4.446l-1.22-.553c-.786 1.736-1.922 3.028-3.327 3.839l.67 1.16Zm2.942-5.308-.003.001.65 1.172.002-.001-.65-1.172Zm.721 1.125.003-.002-.799-1.076-.002.002.798 1.076Zm.214-.264c.883-1.95 1.325-4.295 1.325-6.886h-1.34c0 2.446-.418 4.594-1.206 6.334l1.221.552Zm.33-7.472-.003.001.65 1.172.003-.001-.65-1.172Zm.786 1.07.002-.002-.927-.967-.002.002.927.968Zm.209-.485c0-2.594-.442-5.4-1.293-8.262l-1.284.382c.82 2.757 1.237 5.435 1.237 7.88h1.34Zm-2.26-8.657.65 1.172-.65-1.172Zm.967.395c-.851-2.86-2.097-5.73-3.664-8.444l-1.16.67c1.517 2.628 2.72 5.4 3.54 8.156l1.284-.382Zm-4.569-8.695.65 1.172-.65-1.172Zm-5.549-6.222c1.977 2.087 3.777 4.514 5.294 7.143l1.16-.67c-1.566-2.715-3.428-5.227-5.48-7.395l-.974.922Zm.807.127.004-.002-.65-1.172-.003.002.65 1.172Zm-.84-1.013-.003.004 1.038.847.003-.004-1.039-.847Zm-6.173-4.127c2.117 1.223 4.227 2.923 6.205 5.011l.973-.921c-2.053-2.167-4.263-3.954-6.508-5.25l-.67 1.16Zm.657.007.002-.001-.65-1.172h-.001l.65 1.173Zm-6.745-2.128c1.9.188 3.968.9 6.086 2.122l.67-1.16c-2.244-1.296-4.495-2.085-6.624-2.296l-.132 1.334Zm-.6-.741v.002l1.332.144v-.002l-1.332-.144Zm-4.388 1.7c1.405-.812 3.092-1.15 4.988-.962l.132-1.333c-2.135-.211-4.11.164-5.79 1.135l.67 1.16Zm-12.136 6.727 12.126-6.721-.65-1.172-12.125 6.721.65 1.172Zm-.233.13c.074-.043.148-.084.223-.124l-.629-1.184a8.75 8.75 0 0 0-.264.147l.67 1.16Zm-.416-1.302-.244.135.65 1.172.243-.135-.65-1.172Z"/><path fill="#F7F6FF" fill-rule="evenodd" stroke="#0D0B33" stroke-linejoin="round" stroke-width="1.34" d="M56.984 72.3c2.015.2 4.175.95 6.357 2.21 2.181 1.26 4.342 3.003 6.357 5.13 2.015 2.128 3.846 4.598 5.388 7.27 1.542 2.67 2.767 5.493 3.602 8.302.835 2.809 1.265 5.551 1.265 8.07s-.43 4.766-1.265 6.611c-.835 1.844-2.059 3.252-3.602 4.142l-22.585 13.04c-.998.576-2.616-.358-3.614-2.086l-22.585-39.12c-3.116-5.395-4.866-11.284-4.866-16.37 0-5.088 1.75-8.956 4.866-10.754 3.115-1.799 7.34-1.38 11.745 1.163 4.405 2.544 8.63 7.004 11.745 12.399l.902 1.562.901-.52c1.542-.892 3.374-1.248 5.389-1.049Z" clip-rule="evenodd"/></svg>