<svg xmlns="http://www.w3.org/2000/svg" width="271" height="60" fill="none"><path fill="#fff" fill-rule="evenodd" d="M264.088 34.125c0-3.508-2.066-6.15-5.329-6.15-3.262 0-5.331 2.642-5.331 6.15 0 3.509 2.069 6.15 5.331 6.15 3.269.007 5.329-2.635 5.329-6.15Zm-.16-8.504v-9.192c0-.607.407-1.134.994-1.287l4.875-1.301v31.103h-5.409v-2.64c-1.36 1.98-3.802 3.14-6.858 3.14-6.275 0-9.951-5.035-9.951-11.312 0-6.277 3.676-11.313 9.951-11.313 3.049-.007 5.285 1.314 6.398 2.802Zm-33.278-2.315v2.642c.994-1.862 3.223-3.142 6.443-3.142 5.204 0 7.971 3.468 7.971 8.631v13.507h-5.862v-12.84c0-2.521-1.074-4.256-3.676-4.256-2.849 0-4.416 1.815-4.416 4.71v12.386h-5.862V23.306h5.402Zm-19.11 22.139c-6.317 0-9.832-2.728-9.832-9.746V23.306h5.863v12.473c0 3.015 1.361 4.416 3.962 4.416s3.962-1.407 3.962-4.416V23.306h5.863v12.387c.014 7.024-3.502 9.752-9.818 9.752Zm-29.189-11.32c0 3.882 2.394 6.15 5.489 6.15 3.095 0 5.49-2.274 5.49-6.15 0-3.875-2.395-6.15-5.49-6.15-3.088 0-5.489 2.268-5.489 6.15Zm5.496 11.32c-6.937 0-11.36-5.163-11.36-11.313s4.416-11.313 11.36-11.313c6.937 0 11.359 5.163 11.359 11.313-.006 6.15-4.422 11.313-11.359 11.313Zm-29.229-11.32c0 3.509 2.068 6.15 5.329 6.15 3.262 0 5.33-2.641 5.33-6.15 0-3.508-2.068-6.15-5.33-6.15-3.261 0-5.329 2.642-5.329 6.15Zm.166 8.511v8.999c0 .607-.406 1.134-.993 1.287l-4.87 1.28V23.307h5.41v2.642c1.361-1.982 3.802-3.142 6.857-3.142 6.277 0 9.952 5.036 9.952 11.313 0 6.276-3.675 11.312-9.952 11.312-3.062.014-5.29-1.307-6.404-2.795Zm-23.279-9.998v12.306h-5.863v-12.84c0-2.395-.867-4.256-3.469-4.256-2.728 0-4.215 1.775-4.215 4.67V44.95h-5.863V23.306h5.409v2.642c.994-1.862 3.142-3.142 6.237-3.142 2.935 0 5.036 1.154 6.277 3.055 1.901-2.108 4.089-3.055 7.184-3.055 5.202 0 7.844 3.595 7.844 8.631v13.507h-5.863v-12.84c0-2.395-.867-4.256-3.469-4.256-2.768 0-4.209 1.775-4.209 4.79Zm-38.974 1.487c0 3.882 2.394 6.15 5.489 6.15 3.095 0 5.49-2.274 5.49-6.15 0-3.875-2.395-6.15-5.49-6.15s-5.49 2.268-5.49 6.15Zm5.489 11.32c-6.937 0-11.36-5.163-11.36-11.313s4.416-11.313 11.36-11.313c6.944 0 11.36 5.163 11.36 11.313s-4.423 11.313-11.36 11.313ZM60.238 30.243c0-9.165 6.316-15.241 14.74-15.241 7.312 0 13.095 4.335 14.209 11.48h-6.444c-.867-3.676-3.842-5.744-7.764-5.744-5.37 0-8.385 3.715-8.385 9.498 0 5.784 3.015 9.499 8.385 9.499 3.922 0 6.897-2.068 7.764-5.743h6.444c-1.114 7.144-6.897 11.48-14.208 11.48-8.425.013-14.742-6.057-14.742-15.229ZM2.538 46.762a5.034 5.034 0 0 1-2.408-4.29v-9.758c0-.374.1-.734.287-1.054.58-1 1.868-1.34 2.868-.754l22.026 12.84a4.195 4.195 0 0 1 2.08 3.623V57.48c0 .46-.126.92-.366 1.314a2.516 2.516 0 0 1-3.462.834L2.538 46.762Zm32.831-18.53a4.195 4.195 0 0 1 2.082 3.622V52.37c0 .607-.327 1.168-.854 1.461l-4.823 2.715a.985.985 0 0 1-.193.08V45.234a4.201 4.201 0 0 0-2.041-3.602L10.196 30.06V17.2c0-.374.1-.734.287-1.054.58-1 1.867-1.34 2.868-.754l22.019 12.84Zm9.64-15.155a4.19 4.19 0 0 1 2.087 3.628v29.97c0 .614-.34 1.18-.88 1.474l-4.57 2.468V29.752a4.198 4.198 0 0 0-2.034-3.595l-19.77-11.86v-12.2c0-.373.1-.733.28-1.053.58-1.001 1.867-1.341 2.867-.76l22.02 12.793Z" clip-rule="evenodd"/></svg>