<svg xmlns="http://www.w3.org/2000/svg" width="89" height="183" fill="none"><path fill="#0D0B33" stroke="#0D0B33" stroke-linejoin="round" stroke-width="1.34" d="M65.535 181.532c1.667-.924 2.7-2.956 2.7-5.864l19.243-10.666c0 2.908-1.034 4.94-2.701 5.864l-19.242 10.666ZM68.234 175.668V56.994l19.242-10.666v118.674l-19.242 10.666Z"/><path fill="#B4A1FF" fill-rule="evenodd" d="M3.556 12.228c1.623-.9 3.847-.749 6.3.667h.001l-.002.001 49.376 28.507 19.242-10.665L29.097 2.23c-2.453-1.417-4.677-1.568-6.3-.667L3.555 12.228Z" clip-rule="evenodd"/><path fill="#0D0B33" d="m9.856 12.895-.335.58a.67.67 0 0 0 .335.09v-.67Zm-6.3-.667-.325-.586a.67.67 0 0 0 .65 1.172l-.325-.586Zm6.301.667.325.586a.67.67 0 0 0-.325-1.256v.67Zm-.002.001-.324-.586a.67.67 0 0 0-.01 1.166l.334-.58Zm49.376 28.507-.335.58a.67.67 0 0 0 .66.006l-.325-.586Zm19.242-10.665.325.586a.67.67 0 0 0 .01-1.167l-.335.58ZM29.097 2.23h-.67c0 .24.128.461.335.58l.335-.58Zm0 0h.67a.67.67 0 0 0-.335-.58l-.335.58Zm-6.3-.667.324.586-.325-.586ZM10.19 12.315c-2.573-1.486-5.058-1.727-6.959-.673l.65 1.172c1.346-.746 3.307-.685 5.64.662l.67-1.161Zm-.333-.09h-.001v1.34h.001v-1.34Zm.323 1.257h.002l-.65-1.173-.001.001.65 1.172Zm49.386 27.341L10.19 12.316l-.67 1.16 49.376 28.508.67-1.16Zm18.582-10.671L58.906 40.817l.65 1.172 19.242-10.665-.65-1.172ZM28.762 2.81l49.376 28.507.67-1.16L29.432 1.65l-.67 1.16Zm-.335-.582v.002h1.34v-.002h-1.34Zm-5.306-.08c1.346-.747 3.309-.686 5.641.66l.67-1.16c-2.574-1.486-5.06-1.727-6.96-.672l.65 1.171ZM3.881 12.813 23.12 2.149l-.65-1.172-19.24 10.665.65 1.172Zm-.001 0-.649-1.172H3.23l.65 1.172Z"/><path fill="#4A21EF" stroke="#0D0B33" stroke-linejoin="round" stroke-width="1.34" d="M59.234 41.402c4.972 2.87 9.002 9.85 9.002 15.591l19.242-10.665c0-5.741-4.03-12.721-9.002-15.592L59.234 41.402Z"/><path fill="#8674F5" stroke="#0D0B33" stroke-linejoin="round" stroke-width="1.34" d="M59.233 41.403c4.971 2.87 9.001 9.85 9.001 15.59v118.675c0 5.741-4.03 8.067-9.001 5.197L9.857 152.358c-4.971-2.87-9.002-9.851-9.002-15.591V18.093c0-5.741 4.03-8.068 9.002-5.198l49.376 28.508Z"/><path fill="#F7F6FF" stroke="#0D0B33" stroke-linejoin="round" stroke-width="1.34" d="M60.675 52.057v119.52L8.422 141.408V21.888l14.085 8.132v5.101l21.44 12.313v-5.036l16.73 9.659Z"/><path fill="#4A21EF" stroke="#0D0B33" stroke-linejoin="round" stroke-width="1.34" d="m12.122 101.553-8.567-14.84 8.746-4.848 8.568 14.84-8.747 4.848Z"/><path fill="#0D0B33" stroke="#0D0B33" stroke-linejoin="round" stroke-width="1.34" d="m3.555 86.713 6.425 3.71 8.747-4.848-6.426-3.71-8.746 4.848Z"/><path fill="#4A21EF" stroke="#0D0B33" stroke-linejoin="round" stroke-width="1.34" d="m19.076 97.54-6.951 4.012 8.746-4.848 6.95-4.013-8.745 4.849Z"/><path fill="#0D0B33" stroke="#0D0B33" stroke-linejoin="round" stroke-width="1.34" d="M18.469 108.441c1.777 2.139 3.834 3.945 5.997 5.194l8.746-4.848c-2.163-1.249-4.22-3.055-5.997-5.194l-8.746 4.848Z"/><path fill="#4A21EF" stroke="#0D0B33" stroke-linejoin="round" stroke-width="1.34" d="m13.74 100.619 5.334-3.08 8.746-4.848-5.333 3.08-8.746 4.848Z"/><path fill="#4A21EF" stroke="#0D0B33" stroke-linejoin="round" stroke-width="1.34" d="m20.693 96.606-6.95 4.013 8.745-4.848 6.951-4.013-8.746 4.848ZM36.01 119.326c-3.193 1.769-7.465 1.604-12.041-1.038l8.746-4.849c4.576 2.643 8.848 2.808 12.04 1.039l-8.746 4.848Z"/><path fill="#0D0B33" stroke="#0D0B33" stroke-linejoin="round" stroke-width="1.34" d="m14.266 92.897 6.425 3.71 8.747-4.848-6.426-3.71-8.746 4.848Z"/><path fill="#4A21EF" stroke="#0D0B33" stroke-linejoin="round" stroke-width="1.34" d="M9.984 90.422c0-5.58 2.14-9.585 5.494-11.443l8.744-4.847c-3.353 1.86-5.491 5.864-5.491 11.442l-8.747 4.848Z"/><path fill="#0D0B33" stroke="#0D0B33" stroke-linejoin="round" stroke-width="1.34" d="M24.469 113.634c3.498 2.02 6.673 2.233 8.992.947l8.745-4.847c-2.32 1.285-5.494 1.071-8.991-.948l-8.746 4.848ZM18.125 84.53c-2.381 1.32-3.86 4.22-3.86 8.367l8.747-4.849c0-4.147 1.478-7.046 3.859-8.366l-8.746 4.848Z"/><path fill="#4A21EF" stroke="#0D0B33" stroke-linejoin="round" stroke-width="1.34" d="M33.46 113.584c2.382-1.32 3.86-4.22 3.86-8.367l8.746-4.848c0 4.147-1.478 7.047-3.859 8.367l-8.746 4.848Z"/><path fill="#0D0B33" stroke="#0D0B33" stroke-linejoin="round" stroke-width="1.34" d="M41.606 107.721c0 5.684-3.074 10.709-6.485 12.613l8.744-4.88c3.412-1.903 6.487-6.928 6.487-12.613l-8.746 4.88Z"/><path fill="#4A21EF" stroke="#0D0B33" stroke-linejoin="round" stroke-width="1.34" d="m37.316 105.216-6.425-3.71 8.746-4.848 6.425 3.71-8.746 4.848Z"/><path fill="#4A21EF" stroke="#0D0B33" stroke-linejoin="round" stroke-width="1.34" d="m30.89 101.508 6.951-4.013 8.746-4.849-6.95 4.013-8.746 4.849ZM34.508 103.573l5.334-3.08c.15-.086.292-.169 0 0l8.746-4.848-5.334 3.08-8.746 4.848ZM48.027 111.4l-6.425-3.71 8.746-4.848 6.425 3.71-8.746 4.848ZM36.747 85.862l-3.63 2.809 8.746-4.848 3.63-2.81-8.746 4.849Z"/><path fill="#4A21EF" fill-rule="evenodd" d="M27.665 78.067c-4.635-2.676-9.303-1.783-12.52 0l9.75-6.078c3.217-1.783 6.881-1.446 11.517 1.23h.002c3.363 1.941 6.445 4.344 9.08 7.794l-8.747 4.849c-2.634-3.45-5.716-5.854-9.079-7.795l.001-.002-.004.002Z" clip-rule="evenodd"/><path fill="#0D0B33" d="m15.145 78.067-.355-.568a.67.67 0 0 0 .68 1.154l-.325-.586Zm12.52 0-.335.58a.67.67 0 0 0 .66.006l-.325-.586Zm-2.77-6.078-.325-.586a.625.625 0 0 0-.03.017l.355.569Zm11.517 1.23.324.586a.67.67 0 0 0 .01-1.166l-.334.58Zm0 0-.326-.586a.67.67 0 0 0 .43 1.248l-.105-.662Zm.002 0 .335-.58a.67.67 0 0 0-.44-.082l.105.662Zm9.08 7.794.324.586a.67.67 0 0 0 .208-.992l-.533.406Zm-8.747 4.849-.532.406a.67.67 0 0 0 .857.18l-.325-.586Zm-9.079-7.795-.552-.38a.67.67 0 0 0 .217.96l.335-.58Zm.001-.002.552.38a.67.67 0 0 0-.877-.966l.325.586Zm-12.2.588c3.07-1.7 7.48-2.535 11.861-.006l.67-1.16c-4.89-2.824-9.814-1.871-13.18-.006l.65 1.172Zm9.071-7.233L14.79 77.5l.709 1.137 9.75-6.078-.709-1.138Zm12.207 1.219c-4.75-2.742-8.676-3.176-12.177-1.236l.65 1.172c2.934-1.626 6.334-1.387 10.857 1.224l.67-1.16Zm-.011 1.166-.65-1.172.65 1.172Zm-.426-1.248h-.004l.21 1.324h.003l-.21-1.324Zm9.716 8.05c-2.7-3.537-5.857-5.994-9.277-7.969l-.67 1.161c3.306 1.908 6.313 4.257 8.882 7.621l1.065-.813Zm-8.954 5.84 8.746-4.848-.65-1.172-8.745 4.848.65 1.172Zm-9.739-7.8c3.306 1.909 6.313 4.257 8.882 7.621l1.065-.813c-2.7-3.537-5.857-5.994-9.277-7.968l-.67 1.16Zm-.216-.962-.001.002 1.104.76.002-.003-1.105-.759Zm.873.968.004-.002-.65-1.172-.004.002.65 1.172Z"/><path fill="#4A21EF" stroke="#0D0B33" stroke-linejoin="round" stroke-width="1.34" d="M39.46 96.561 48.03 111.4l8.746-4.848-8.568-14.84-8.746 4.849Z"/><path fill="#F7F6FF" fill-rule="evenodd" stroke="#0D0B33" stroke-linejoin="round" stroke-width="1.34" d="M27.116 83.477c-7.09-4.094-12.852 1.233-12.852 9.42l6.426 3.71-8.568 4.946-8.567-14.84 6.425 3.71c0-10.932 8.216-17.822 17.683-12.356 3.363 1.941 6.445 4.344 9.08 7.794l-3.63 2.81c-1.778-2.14-3.834-3.946-5.997-5.195Zm3.775 18.03 8.568-4.947 8.567 14.84-6.425-3.71c0 10.931-8.164 17.064-17.631 11.598-3.363-1.941-6.843-4.539-9.478-7.989l3.976-2.857c1.778 2.14 3.834 3.945 5.997 5.194 7.09 4.093 12.852-.233 12.852-8.419l-6.426-3.71Z" clip-rule="evenodd"/></svg>