<svg xmlns="http://www.w3.org/2000/svg" width="459" height="383" fill="none"><path fill="#F4F2FF" fill-opacity=".05" d="M172.212 28.614c4.786 4.344-1.177 5.56-2.579 10.668-.627 2.263 1.938 9.53-.957 11.329-4.143 2.653-10.637.753-15.572 2.907-3.537 1.49-5.102 7.118-3.59 10.085 1.345 2.645 5.827 4.478 4.307 8.29-1.652 4.144-8.992 5.247-12.443 7.184-6.02 3.376-6.749 5.575-7.452 10.85-.44 3.31-7.839 6.056-10.998 8.432-5.221 3.926-5.293 9.892-2.048 14.34 1.833 2.512 5.269 4.728 7.71 7.043 2.441 2.316 3.814 5.187 5.537 7.74 2.9 4.294.029 10.903 16.54 14.639-3.225 4.874-8.403 7.787-12.806 12.119-4.647 4.579 5.977 13.442 8.949 17.446 5.106 6.877 9.72 14.326 9.189 21.944-.412 5.996-8.73 12.732-14.602 17.239-3.986 3.087-8.332 6.013-13.007 8.759-4.059 2.343-9.256 3.829-13.362 6.139-4.331 2.434-8.184 7.643-13.405 9.221-5.221 1.577-14.209 2.71-17.736 5.609-4.881 4-4.422 10.289-2.89 14.826 1.359 4.018-3.552 6.322-7.146 9.779-3.924 3.774-21.897 10.195-19.888 18.678 2.063 8.709 16.47 8.255 20.818 14.507 1.943 2.807-5.561 7.056-7.178 11.881-3.236 9.652 11.466 12.748 6.7 20.999-3.35 5.802-19.847 9.85-16.99 15.887.838 1.772 6.488 10.781 4.617 11.861-2.761 1.595-1.364 2.783-2.57 4.866-2.077 3.603-8.418 3.982-13.084 6.676-5.02 2.898-15.075 7.383-18.497 10.679 4.216-2.434 4.058-16.02 8.255-18.443 5.858-3.382-8.068-10.025-2.158-13.437 11.538-6.662 21.857-15.178 25.762-24.517 2.718-6.543-6.05-15.771-9.146-21.963-3.527-7.06-10.39-11.525-8.509-19.049.699-2.818-.282-5.589.555-8.521 1.345-4.645 3.743-9.195 4.877-13.868.732-2.965.182-5.918 1.953-8.819 1.65-2.739 4.905-5.043 7.7-7.414 7.102-5.94 12.146-13.489 21.517-18.396 4.766-2.498 11.572-3.918 15.649-6.77 3.814-2.688 7.169-5.564 11.395-8.059 4.91-2.896 19.143-8.29 16.132-13.487-2.766-4.796-12.299-6.714-16.247-11.143-2.422-2.714-7.408-7.04-5.585-10.265 1.187-2.105 6.269-7.571 6.748-5.377.478 2.194 7.461 5.175 7.461 1.484 0-2.211-3.422-3.551-4.973-5.33-2.541-2.887-2.22-5.758-1.445-8.897 1.307-5.291 5.236-10.682 8.667-15.57 2.345-3.338 3.388-7.438 3.57-11.052.153-2.968.799-6.457-.44-9.383-20.718-2.833-21.977-6.257-21.556-9.705.842-6.858 5.848-13.125 4.135-20.043-1.79-7.228-.397-11.282 5.824-18.3 5.13-5.814 5.132-6.714 11.205-12.276 2.895-2.655 4.349-11.453 7.981-13.788 4.111-2.644 9.572-4.42 14.329-6.648 4.077-1.917 12.806-4.25 9.825-7.993-3.255-4.09-4.642-7.781-3.451-12.188.651-2.387 7.85-5.753 9.515-7.793 24.357-7.9 19.231-8.5 19.231-11.102 0-5.747-1.359-11.566-2.326-17.286-.766-4.531-6.576-8.085-8.509-12.55-1.546-3.578 3.393-5.777 9.385-2.318 5.618 3.244 6.7 6.825 9.064 11.074 2.8 5.015 4.293 8.701 3.197 14.004-.996 4.896 5.434 10.333-16.798 20.62.139 4.552-8.99 3.342-5.544 7.315"/><path fill="#F4F2FF" fill-opacity=".05" d="M100.146 343.121c-5.524 7.865-16.284 14.212-27.356 19.686l2.342 1.141c9.942.847 9.513-2.05 17.919-3.893 7.122-1.561 3.775-7.904 8.462-11.111 9.199-6.295 15.496-12.92 21.635-20.599 3.061-3.828 5.605-8.83 5.093-13.038-.302-2.489.046-6.781 1.317-9.134 4.641-8.592 11.18-12.376 21.263-19.276 5.954-4.075 14.584-6.494 17.499-11.67 2.805-4.982 9.568-15.845 9.863-21.08.138-2.439 2.357-4.052 5.018-5.873 5.718-3.913 11.984-7.181 16.785-11.588 6.417-5.891 20.138-9.959 24.161-16.484 3.179-5.153 4.29-11.146 4.245-16.624-.059-7.097-2.741-14.274-3.78-21.348-.478-3.253-2.394-7.819.006-10.929 3.613-4.683 8.627-8.879 11.634-13.754 3.708-6.015 2.744-10.473 2.754-16.622.01-6.483-13.998-13.497-7.85-19.172 3.417-3.154 3.73-6.797 4.15-10.411.432-3.717-7.038-5.826-10.773-8.816-6.797-5.438.891-7.88-.812-12.775-2.71-7.787-14.896-10.898-15.55-18.25-.576-6.484-12.128-15.074-11.957-21.623.239-9.138 32.658-13.176 32.663-22.352.002-4.115-1.177-8.568-6.498-11.611-3.11-1.779-5.659-3.319-7.783-5.549-2.838-2.98-4.628-6.833-5.098-10.028-10.687 7.314-5.879 16.609-13.222 24.598-3.929 4.274-8.937 8.258-12.733 12.576-4.045 4.6-2.07 7.39 2.023 12.132 4.463 3.571 6.279 7.03 8.194 11.365 1.306 2.958.844 5.738 2.721 8.657 2.004 3.115 11.882 10.223 13.531 13.407 5.541 10.698-6.332 16.453 9.748 29.1 2.07 2.21 5.231 4.229 5.713 6.812.483 2.585-.684 5.063-1.38 7.602-2.262 8.249-8.262 15.929-11.655 24.033-2.789 6.662-8.138 12-15.327 17.4l-.212.159c-4.979 3.739-12.382 9.297-12.133 14.235.129 2.568-1.893 4.94-2.041 7.494-.258 4.44 1.032 8.836.586 13.319-.854 8.594-1.843 17.297-4.144 25.805-1.781 6.583-5.085 14.101-13.694 18.924-2.23 1.249-4.27 1.637-4.011 3.405.233 1.586-.812 3.484-1.774 4.924-4.224 6.322-8.791 12.541-12.393 19-1.803 3.233-10.828 8.43-12.876 11.618-3.87 6.028-2.915 10.723-10.006 15.576-8.483 5.805-19.95 7.971-21.87 15.83-1.077 4.409.084 8.42.955 12.812.966 4.865-.226 7.548-3.352 12Z"/></svg>