<svg xmlns="http://www.w3.org/2000/svg" width="129" height="185" fill="none"><path fill="#4A21EF" stroke="#0D0B33" stroke-linejoin="round" stroke-width="1.34" d="M19.92 173.386c24.62 14.214 64.537 14.214 89.157 0 11.624-6.71 17.759-15.388 18.408-24.177l.054-12.258c-.165 9.187-6.319 18.345-18.462 25.355-24.62 14.213-64.537 14.213-89.158 0-12.092-6.981-18.245-16.092-18.46-25.24v-.991c-.007.33-.007.661 0 .991v11.08c.215 9.148 6.368 18.259 18.46 25.24Z"/><mask id="a" width="129" height="50" x="0" y="135" maskUnits="userSpaceOnUse" style="mask-type:alpha"><path fill="#4A21EF" stroke="#0D0B33" stroke-linejoin="round" stroke-width="1.34" d="M19.923 173.386c24.62 14.213 64.538 14.213 89.158 0 11.623-6.711 17.759-15.389 18.408-24.177l.054-12.259c-.165 9.187-6.319 18.345-18.462 25.355-24.62 14.214-64.537 14.214-89.158 0-12.092-6.98-18.245-16.091-18.46-25.24v-.99c-.007.33-.007.66 0 .99v11.08c.215 9.149 6.368 18.26 18.46 25.241Z"/></mask><g mask="url(#a)"><path fill="#0D0B33" d="M145.924 136.394H64.402v59.879h81.522z"/></g><path fill="#8674F5" stroke="#0D0B33" stroke-linejoin="round" stroke-width="1.34" d="M19.918 162.61c24.62 14.213 64.538 14.213 89.158 0 24.621-14.214 24.621-37.258 0-51.471-24.62-14.213-64.537-14.213-89.158 0-24.62 14.213-24.62 37.257 0 51.471Z"/><path fill="#4A21EF" d="M36.412 132.976V85.722L54.33 75.79v47.254l-17.918 9.932Z"/><path fill="#B4A1FF" stroke="#0D0B33" stroke-linejoin="round" stroke-width="1.34" d="M36.411 85.723 13.938 72.748l17.918-9.932L54.33 75.791l-17.918 9.932Z"/><path fill="#8674F5" d="M13.938 72.746 36.41 85.721v47.463L13.938 120.21V72.746Z"/><path stroke="#0D0B33" stroke-linejoin="round" stroke-width="1.34" d="M36.41 85.72 13.938 72.747v47.464l22.472 12.765 17.918-9.932V75.789L36.41 85.721Z"/><path stroke="#000" stroke-linecap="round" stroke-linejoin="round" stroke-width="1.34" d="M34.426 56.879v17.234M68.153 91.37v51.16"/><path fill="#0D0B33" stroke="#0D0B33" stroke-linejoin="round" stroke-width="1.34" d="M68.154 123.128V36.094l17.918-9.932v87.034l-17.918 9.932ZM68.153 36.093 45.681 23.118l17.918-9.932L86.07 26.161l-17.918 9.932Z"/><path fill="#F7F6FF" stroke="#0D0B33" stroke-linejoin="round" stroke-width="1.34" d="m45.68 23.116 22.474 12.975v86.464L45.68 109.58V23.116Z"/><path stroke="#000" stroke-linecap="round" stroke-linejoin="round" stroke-width="1.34" d="M65.964 7.895v17.16M100.517 79.26v71.635"/><path fill="#4A21EF" stroke="#0D0B33" stroke-linejoin="round" stroke-width="1.34" d="M100.518 88.856V29.754l17.917-9.932v59.102l-17.917 9.932Z"/><path fill="#B4A1FF" stroke="#0D0B33" stroke-linejoin="round" stroke-width="1.34" d="M100.517 29.753 78.044 16.778l17.918-9.932 22.473 12.975-17.918 9.932Z"/><path fill="#8674F5" stroke="#0D0B33" stroke-linejoin="round" stroke-width="1.34" d="m78.044 16.776 22.473 12.975v59.164L78.044 75.94V16.776Z"/><path stroke="#000" stroke-linecap="round" stroke-linejoin="round" stroke-width="1.34" d="M98.327 1.555v17.16"/></svg>