<svg width="113" height="151" viewBox="0 0 113 151" fill="none" xmlns="http://www.w3.org/2000/svg">
<path d="M49.2498 131.066C22.5926 115.207 0.982637 77.2053 0.982635 46.1872C0.982634 15.169 22.5926 2.88042 49.2498 18.7398C75.907 34.5991 97.5169 72.6009 97.5169 103.619C97.5169 134.637 75.907 146.926 49.2498 131.066Z" fill="white" stroke="#0D0B33" stroke-width="1.72736"/>
<path d="M48.9248 38.297L68.8605 88.0026L48.9248 90.0997L28.9889 64.9827L48.9248 38.297Z" fill="#070707"/>
<path d="M48.9244 113.296L28.9889 69.3479L48.9248 94.4582L68.8725 92.3751L48.9248 113.297L48.9244 113.296Z" fill="#070707"/>
<path d="M49.2498 18.7398C36.066 10.8963 24.1168 9.93765 15.4057 14.7246L24.9859 9.27674C43.8354 -1.44215 74.3964 16.7398 93.2459 49.8872C112.095 83.0346 112.095 118.595 93.2459 129.314L84.0321 134.554C84.0327 134.547 84.0333 134.541 84.0339 134.535C92.3833 129.406 97.5169 118.737 97.5169 103.619C97.5169 72.6009 75.907 34.5991 49.2498 18.7398Z" fill="#79EFBD" stroke="#0D0B33" stroke-width="1.72736"/>
<path d="M97.2072 97.0372L107.074 91.5644C106.936 86.2844 106.336 82.4724 104.3 74.2596L93.8865 80.0511C95.5585 85.7608 96.6948 91.4745 97.2072 97.0372Z" fill="#0D0B33"/>
<path d="M89.417 67.647L99.0728 61.997C88.7516 39.8556 80.8648 29.4376 62.5123 15.0018L52.4934 20.7944C67.8974 31.1481 81.3252 48.7351 89.417 67.647Z" fill="#0D0B33"/>
</svg>
