<svg xmlns="http://www.w3.org/2000/svg" width="113" height="151" fill="none"><path fill="#fff" stroke="#0D0B33" stroke-width="1.727" d="M49.25 131.066C22.593 115.207.983 77.206.983 46.187.983 15.17 22.593 2.88 49.25 18.74 75.907 34.6 97.517 72.6 97.517 103.619c0 31.018-21.61 43.307-48.267 27.447Z"/><path fill="#070707" d="M48.925 38.297 68.86 88.003 48.925 90.1 28.989 64.983l19.936-26.686Z"/><path fill="#070707" d="M48.924 113.296 28.99 69.348l19.936 25.11 19.948-2.083-19.948 20.922v-.001Z"/><path fill="#79EFBD" stroke="#0D0B33" stroke-width="1.727" d="M49.25 18.74c-13.184-7.844-25.133-8.802-33.844-4.015l9.58-5.448c18.85-10.72 49.41 7.463 68.26 40.61 18.849 33.148 18.849 68.708 0 79.427l-9.214 5.24.002-.019c8.35-5.129 13.483-15.798 13.483-30.916 0-31.018-21.61-69.02-48.267-84.88Z"/><path fill="#0D0B33" d="m97.207 97.037 9.867-5.473c-.138-5.28-.738-9.092-2.774-17.304L93.887 80.05c1.671 5.71 2.808 11.424 3.32 16.986ZM89.417 67.647l9.656-5.65c-10.321-22.141-18.208-32.56-36.56-46.995l-10.02 5.792c15.404 10.354 28.832 27.941 36.924 46.853Z"/></svg>