<svg width="118" height="189" viewBox="0 0 118 189" fill="none" xmlns="http://www.w3.org/2000/svg">
<path d="M99.919 178.83C77.0844 192.05 40.0622 192.05 17.2275 178.83C-5.60709 165.61 -5.60709 144.176 17.2275 130.956C40.0622 117.736 77.0844 117.736 99.919 130.956C122.754 144.176 122.754 165.61 99.919 178.83Z" fill="url(#paint0_linear_1812_47199)"/>
<path d="M97.7406 171.52C76.1078 184.009 41.0341 184.009 19.4013 171.52C9.18837 165.624 3.79701 157.999 3.22719 150.277L3.17969 139.506C3.32492 147.578 8.73212 155.625 19.4013 161.784C41.0341 174.273 76.1078 174.273 97.7406 161.784C108.365 155.65 113.772 147.645 113.96 139.607V138.736C113.967 139.026 113.967 139.317 113.96 139.607V149.342C113.772 157.381 108.365 165.386 97.7406 171.52Z" fill="#79EFBD" stroke="#0D0B33" stroke-width="0.59185"/>
<path d="M97.7436 161.281C76.1108 173.77 41.0371 173.77 19.4043 161.281C-2.22851 148.793 -2.22851 128.545 19.4043 116.056C41.0371 103.567 76.1108 103.567 97.7436 116.056C119.376 128.545 119.376 148.793 97.7436 161.281Z" fill="#F7F6FF" stroke="#0D0B33" stroke-width="0.59185"/>
<path fill-rule="evenodd" clip-rule="evenodd" d="M83.4996 122.487C83.1102 122.579 73.8186 123.939 62.8516 125.508C51.8847 127.078 42.7877 128.394 42.6357 128.433C42.4381 128.484 43.2848 130.582 45.6047 135.79L48.8503 143.076L61.4708 144.946C70.5377 146.291 74.1263 146.772 74.2154 146.657C74.6757 146.06 84.5825 122.535 84.4142 122.438C84.3007 122.372 83.8892 122.394 83.4996 122.487ZM39.2835 130.39C39.0665 130.868 32.7993 152.266 32.8656 152.302C32.9753 152.362 70.967 148.607 70.9672 148.537C70.967 148.47 47.5838 144.978 46.5172 144.885L45.8632 144.828L42.7424 137.833C41.0258 133.985 39.5665 130.69 39.4993 130.511C39.3878 130.213 39.3687 130.203 39.2835 130.39Z" fill="#0D0B33"/>
<path d="M3.17969 142.582C6.33927 150.542 8.78113 154.2 15.4895 157.969V168.74C9.36422 164.405 6.08481 161.745 3.17969 152.584V142.582Z" fill="#0D0B33"/>
<path d="M20.1016 161.818L24.7178 164.126V174.898L20.1016 172.589V161.818Z" fill="#0D0B33"/>
<path d="M97.7406 160.938C76.1078 173.426 41.0341 173.426 19.4013 160.938C9.18837 155.042 3.79701 147.417 3.22719 139.695L3.17969 128.924C3.32492 136.996 8.73212 145.043 19.4013 151.202C41.0341 163.691 76.1078 163.691 97.7406 151.202C108.365 145.068 113.772 137.063 113.96 129.025V128.154C113.967 128.444 113.967 128.735 113.96 129.025V138.76C113.772 146.799 108.365 154.804 97.7406 160.938Z" fill="#79EFBD" stroke="#0D0B33" stroke-width="0.59185"/>
<path d="M97.7436 150.699C76.1108 163.188 41.0371 163.188 19.4043 150.699C-2.22851 138.211 -2.22851 117.962 19.4043 105.474C41.0371 92.9853 76.1108 92.9853 97.7436 105.474C119.376 117.962 119.376 138.211 97.7436 150.699Z" fill="#F7F6FF" stroke="#0D0B33" stroke-width="0.59185"/>
<path fill-rule="evenodd" clip-rule="evenodd" d="M83.4996 111.905C83.1102 111.997 73.8186 113.357 62.8516 114.926C51.8847 116.496 42.7877 117.812 42.6357 117.851C42.4381 117.902 43.2848 120 45.6047 125.208L48.8503 132.494L61.4708 134.364C70.5377 135.709 74.1263 136.19 74.2154 136.075C74.6757 135.478 84.5825 111.953 84.4142 111.856C84.3007 111.79 83.8892 111.812 83.4996 111.905ZM39.2835 119.808C39.0665 120.286 32.7993 141.684 32.8656 141.72C32.9753 141.78 70.967 138.025 70.9672 137.955C70.967 137.888 47.5838 134.396 46.5172 134.303L45.8632 134.246L42.7424 127.251C41.0258 123.403 39.5665 120.108 39.4993 119.929C39.3878 119.631 39.3687 119.62 39.2835 119.808Z" fill="#0D0B33"/>
<path d="M3.17969 132C6.33927 139.96 8.78113 143.618 15.4895 147.387V158.158C9.36422 153.823 6.08481 151.163 3.17969 142.002V132Z" fill="#0D0B33"/>
<path d="M20.1055 151.236L24.7217 153.544V164.316L20.1055 162.007V151.236Z" fill="#0D0B33"/>
<path d="M97.7406 150.35C76.1078 162.839 41.0341 162.839 19.4013 150.35C9.18837 144.454 3.79701 136.829 3.22719 129.107L3.17969 118.336C3.32492 126.408 8.73212 134.455 19.4013 140.614C41.0341 153.103 76.1078 153.103 97.7406 140.614C108.365 134.481 113.772 126.475 113.96 118.437V117.566C113.967 117.856 113.967 118.147 113.96 118.437V128.172C113.772 136.211 108.365 144.216 97.7406 150.35Z" fill="#79EFBD" stroke="#0D0B33" stroke-width="0.59185"/>
<path d="M97.7436 140.111C76.1108 152.6 41.0371 152.6 19.4043 140.111C-2.22851 127.623 -2.22851 107.375 19.4043 94.886C41.0371 82.3974 76.1108 82.3974 97.7436 94.886C119.376 107.375 119.376 127.623 97.7436 140.111Z" fill="#F7F6FF" stroke="#0D0B33" stroke-width="0.59185"/>
<path fill-rule="evenodd" clip-rule="evenodd" d="M83.4996 101.317C83.1102 101.409 73.8186 102.769 62.8516 104.339C51.8847 105.908 42.7877 107.224 42.6357 107.263C42.4381 107.314 43.2848 109.412 45.6047 114.62L48.8503 121.906L61.4708 123.777C70.5377 125.121 74.1263 125.602 74.2154 125.487C74.6757 124.89 84.5825 101.365 84.4142 101.268C84.3007 101.203 83.8892 101.224 83.4996 101.317ZM39.2835 109.22C39.0665 109.698 32.7993 131.096 32.8656 131.132C32.9753 131.192 70.967 127.437 70.9672 127.367C70.967 127.3 47.5838 123.808 46.5172 123.715L45.8632 123.659L42.7424 116.663C41.0258 112.815 39.5665 109.52 39.4993 109.341C39.3878 109.043 39.3687 109.033 39.2835 109.22Z" fill="#0D0B33"/>
<path d="M3.17969 121.412C6.33927 129.372 8.78113 133.03 15.4895 136.799V147.571C9.36422 143.235 6.08481 140.575 3.17969 131.414V121.412Z" fill="#0D0B33"/>
<path d="M20.1055 140.648L24.7217 142.957V153.728L20.1055 151.42V140.648Z" fill="#0D0B33"/>
<path d="M97.7406 139.766C76.1078 152.255 41.0341 152.255 19.4013 139.766C9.18837 133.87 3.79701 126.245 3.22719 118.523L3.17969 107.752C3.32492 115.824 8.73212 123.871 19.4013 130.03C41.0341 142.519 76.1078 142.519 97.7406 130.03C108.365 123.897 113.772 115.891 113.96 107.853V106.982C113.967 107.273 113.967 107.563 113.96 107.853V117.588C113.772 125.627 108.365 133.632 97.7406 139.766Z" fill="#79EFBD" stroke="#0D0B33" stroke-width="0.59185"/>
<path d="M97.7436 129.527C76.1108 142.016 41.0371 142.016 19.4043 129.527C-2.22851 117.039 -2.22851 96.7906 19.4043 84.302C41.0371 71.8134 76.1108 71.8134 97.7436 84.302C119.376 96.7906 119.376 117.039 97.7436 129.527Z" fill="#F7F6FF" stroke="#0D0B33" stroke-width="0.59185"/>
<path fill-rule="evenodd" clip-rule="evenodd" d="M83.4996 90.7328C83.1102 90.8252 73.8186 92.1849 62.8516 93.7546C51.8847 95.3241 42.7877 96.6403 42.6357 96.6794C42.4381 96.7302 43.2848 98.8282 45.6047 104.036L48.8503 111.322L61.4708 113.193C70.5377 114.537 74.1263 115.018 74.2154 114.903C74.6757 114.306 84.5825 90.7812 84.4142 90.6841C84.3007 90.6185 83.8892 90.6404 83.4996 90.7328ZM39.2835 98.6363C39.0665 99.1145 32.7993 120.512 32.8656 120.548C32.9753 120.608 70.967 116.853 70.9672 116.783C70.967 116.716 47.5838 113.225 46.5172 113.131L45.8632 113.075L42.7424 106.079C41.0258 102.231 39.5665 98.9363 39.4993 98.7568C39.3878 98.4593 39.3687 98.4486 39.2835 98.6363Z" fill="#0D0B33"/>
<path d="M3.17969 110.828C6.33927 118.788 8.78113 122.446 15.4895 126.215V136.987C9.36422 132.651 6.08481 129.991 3.17969 120.83V110.828Z" fill="#0D0B33"/>
<path d="M20.1055 130.064L24.7217 132.373V143.144L20.1055 140.836V130.064Z" fill="#0D0B33"/>
<path d="M97.7406 129.18C76.1078 141.669 41.0341 141.669 19.4013 129.18C9.18837 123.284 3.79701 115.659 3.22719 107.937L3.17969 97.1658C3.32492 105.238 8.73212 113.285 19.4013 119.444C41.0341 131.933 76.1078 131.933 97.7406 119.444C108.365 113.311 113.772 105.305 113.96 97.2668V96.3965C113.967 96.6866 113.967 96.9767 113.96 97.2668V107.002C113.772 115.041 108.365 123.046 97.7406 129.18Z" fill="#79EFBD" stroke="#0D0B33" stroke-width="0.59185"/>
<path d="M97.7436 118.941C76.1108 131.43 41.0371 131.43 19.4043 118.941C-2.22851 106.453 -2.22851 86.2047 19.4043 73.7161C41.0371 61.2275 76.1108 61.2275 97.7436 73.7161C119.376 86.2047 119.376 106.453 97.7436 118.941Z" fill="#F7F6FF" stroke="#0D0B33" stroke-width="0.59185"/>
<path fill-rule="evenodd" clip-rule="evenodd" d="M83.4996 80.1469C83.1102 80.2392 73.8186 81.599 62.8516 83.1686C51.8847 84.7382 42.7877 86.0544 42.6357 86.0934C42.4381 86.1443 43.2848 88.2423 45.6047 93.4501L48.8503 100.736L61.4708 102.607C70.5377 103.951 74.1263 104.432 74.2154 104.317C74.6757 103.72 84.5825 80.1953 84.4142 80.0981C84.3007 80.0326 83.8892 80.0545 83.4996 80.1469ZM39.2835 88.0504C39.0665 88.5286 32.7993 109.926 32.8656 109.962C32.9753 110.022 70.967 106.267 70.9672 106.197C70.967 106.131 47.5838 102.639 46.5172 102.546L45.8632 102.489L42.7424 95.493C41.0258 91.6454 39.5665 88.3504 39.4993 88.1709C39.3878 87.8734 39.3687 87.8627 39.2835 88.0504Z" fill="#0D0B33"/>
<path d="M3.17969 100.242C6.33927 108.202 8.78113 111.86 15.4895 115.629V126.401C9.36422 122.065 6.08481 119.405 3.17969 110.244V100.242Z" fill="#0D0B33"/>
<path d="M20.1055 119.479L24.7217 121.787V132.558L20.1055 130.25V119.479Z" fill="#0D0B33"/>
<path d="M97.7406 118.596C76.1078 131.085 41.0341 131.085 19.4013 118.596C9.18837 112.7 3.79701 105.075 3.22719 97.353L3.17969 86.5819C3.32492 94.6543 8.73212 102.701 19.4013 108.86C41.0341 121.349 76.1078 121.349 97.7406 108.86C108.365 102.727 113.772 94.7213 113.96 86.6828V85.8125C113.967 86.1026 113.967 86.3927 113.96 86.6828V96.4183C113.772 104.457 108.365 112.462 97.7406 118.596Z" fill="#79EFBD" stroke="#0D0B33" stroke-width="0.59185"/>
<path d="M97.7436 108.357C76.1108 120.846 41.0371 120.846 19.4043 108.357C-2.22851 95.8688 -2.22851 75.6207 19.4043 63.1321C41.0371 50.6435 76.1108 50.6435 97.7436 63.1321C119.376 75.6207 119.376 95.8688 97.7436 108.357Z" fill="#F7F6FF" stroke="#0D0B33" stroke-width="0.59185"/>
<path fill-rule="evenodd" clip-rule="evenodd" d="M83.4996 69.5629C83.1102 69.6552 73.8186 71.015 62.8516 72.5846C51.8847 74.1542 42.7877 75.4704 42.6357 75.5095C42.4381 75.5603 43.2848 77.6583 45.6047 82.8661L48.8503 90.1517L61.4708 92.0226C70.5377 93.3667 74.1263 93.8483 74.2154 93.733C74.6757 93.1364 84.5825 69.6113 84.4142 69.5141C84.3007 69.4486 83.8892 69.4705 83.4996 69.5629ZM39.2835 77.4664C39.0665 77.9446 32.7993 99.3423 32.8656 99.3784C32.9753 99.4379 70.967 95.6832 70.9672 95.6128C70.967 95.5466 47.5838 92.0546 46.5172 91.9615L45.8632 91.9046L42.7424 84.909C41.0258 81.0614 39.5665 77.7664 39.4993 77.5869C39.3878 77.2894 39.3687 77.2787 39.2835 77.4664Z" fill="#0D0B33"/>
<path d="M3.17969 89.6582C6.33927 97.6181 8.78113 101.276 15.4895 105.045V115.817C9.36422 111.481 6.08481 108.821 3.17969 99.6599V89.6582Z" fill="#0D0B33"/>
<path d="M20.1055 108.895L24.7217 111.203V121.974L20.1055 119.666V108.895Z" fill="#0D0B33"/>
<path d="M97.7406 108.01C76.1078 120.499 41.0341 120.499 19.4013 108.01C9.18837 102.114 3.79701 94.4889 3.22719 86.767L3.17969 75.9959C3.32492 84.0683 8.73212 92.115 19.4013 98.2744C41.0341 110.763 76.1078 110.763 97.7406 98.2744C108.365 92.1407 113.772 84.1354 113.96 76.0969V75.2266C113.967 75.5167 113.967 75.8068 113.96 76.0969V85.8324C113.772 93.871 108.365 101.876 97.7406 108.01Z" fill="#79EFBD" stroke="#0D0B33" stroke-width="0.59185"/>
<path d="M97.7436 97.7714C76.1108 110.26 41.0371 110.26 19.4043 97.7714C-2.22851 85.2828 -2.22851 65.0348 19.4043 52.5462C41.0371 40.0575 76.1108 40.0575 97.7436 52.5462C119.376 65.0348 119.376 85.2828 97.7436 97.7714Z" fill="#F7F6FF" stroke="#0D0B33" stroke-width="0.59185"/>
<path fill-rule="evenodd" clip-rule="evenodd" d="M83.4996 58.977C83.1102 59.0693 73.8186 60.4291 62.8516 61.9987C51.8847 63.5683 42.7877 64.8845 42.6357 64.9235C42.4381 64.9743 43.2848 67.0724 45.6047 72.2801L48.8503 79.5658L61.4708 81.4367C70.5377 82.7808 74.1263 83.2624 74.2154 83.1471C74.6757 82.5505 84.5825 59.0253 84.4142 58.9282C84.3007 58.8627 83.8892 58.8846 83.4996 58.977ZM39.2835 66.8805C39.0665 67.3587 32.7993 88.7564 32.8656 88.7924C32.9753 88.852 70.967 85.0972 70.9672 85.0269C70.967 84.9606 47.5838 81.4687 46.5172 81.3756L45.8632 81.3187L42.7424 74.3231C41.0258 70.4755 39.5665 67.1805 39.4993 67.001C39.3878 66.7034 39.3687 66.6927 39.2835 66.8805Z" fill="#0D0B33"/>
<path d="M3.17969 79.0723C6.33927 87.0321 8.78113 90.6902 15.4895 94.4596V105.231C9.36422 100.895 6.08481 98.235 3.17969 89.074V79.0723Z" fill="#0D0B33"/>
<path d="M20.1055 98.3086L24.7217 100.617V111.388L20.1055 109.08V98.3086Z" fill="#0D0B33"/>
<path d="M97.7406 97.4242C76.1078 109.913 41.0341 109.913 19.4013 97.4242C9.18837 91.5283 3.79701 83.9029 3.22719 76.1811L3.17969 65.41C3.32492 73.4824 8.73212 81.5291 19.4013 87.6884C41.0341 100.177 76.1078 100.177 97.7406 87.6884C108.365 81.5548 113.772 73.5494 113.96 65.5109V64.6406C113.967 64.9307 113.967 65.2208 113.96 65.5109V75.2465C113.772 83.2851 108.365 91.2905 97.7406 97.4242Z" fill="#79EFBD" stroke="#0D0B33" stroke-width="0.59185"/>
<path d="M97.7436 87.1855C76.1108 99.6741 41.0371 99.6741 19.4043 87.1855C-2.22851 74.6969 -2.22851 54.4488 19.4043 41.9602C41.0371 29.4716 76.1108 29.4716 97.7436 41.9602C119.376 54.4488 119.376 74.6969 97.7436 87.1855Z" fill="#F7F6FF" stroke="#0D0B33" stroke-width="0.59185"/>
<path fill-rule="evenodd" clip-rule="evenodd" d="M83.4996 48.391C83.1102 48.4834 73.8186 49.8431 62.8516 51.4128C51.8847 52.9823 42.7877 54.2985 42.6357 54.3376C42.4381 54.3884 43.2848 56.4865 45.6047 61.6942L48.8503 68.9798L61.4708 70.8508C70.5377 72.1948 74.1263 72.6764 74.2154 72.5612C74.6757 71.9645 84.5825 48.4394 84.4142 48.3423C84.3007 48.2767 83.8892 48.2986 83.4996 48.391ZM39.2835 56.2945C39.0665 56.7727 32.7993 78.1705 32.8656 78.2065C32.9753 78.2661 70.967 74.5113 70.9672 74.4409C70.967 74.3747 47.5838 70.8827 46.5172 70.7897L45.8632 70.7327L42.7424 63.7371C41.0258 59.8895 39.5665 56.5945 39.4993 56.415C39.3878 56.1175 39.3687 56.1068 39.2835 56.2945Z" fill="#0D0B33"/>
<path d="M3.17969 68.4863C6.33927 76.4462 8.78113 80.1043 15.4895 83.8736V94.6447C9.36422 90.3094 6.08481 87.6491 3.17969 78.4881V68.4863Z" fill="#0D0B33"/>
<path d="M20.1055 87.7227L24.7217 90.0307V100.802L20.1055 98.4938V87.7227Z" fill="#0D0B33"/>
<path d="M97.7406 86.8383C76.1078 99.3269 41.0341 99.3269 19.4013 86.8383C9.18837 80.9423 3.79701 73.317 3.22719 65.5952L3.17969 54.8241C3.32492 62.8965 8.73212 70.9432 19.4013 77.1025C41.0341 89.5911 76.1078 89.5911 97.7406 77.1025C108.365 70.9688 113.772 62.9635 113.96 54.925V54.0547C113.967 54.3448 113.967 54.6349 113.96 54.925V64.6605C113.772 72.6991 108.365 80.7046 97.7406 86.8383Z" fill="#79EFBD" stroke="#0D0B33" stroke-width="0.59185"/>
<path d="M97.7436 76.5996C76.1108 89.0882 41.0371 89.0882 19.4043 76.5996C-2.22851 64.1109 -2.22851 43.8629 19.4043 31.3743C41.0371 18.8857 76.1108 18.8857 97.7436 31.3743C119.376 43.8629 119.376 64.1109 97.7436 76.5996Z" fill="#F7F6FF" stroke="#0D0B33" stroke-width="0.59185"/>
<path fill-rule="evenodd" clip-rule="evenodd" d="M83.4996 37.8051C83.1102 37.8974 73.8186 39.2572 62.8516 40.8268C51.8847 42.3964 42.7877 43.7126 42.6357 43.7516C42.4381 43.8025 43.2848 45.9005 45.6047 51.1083L48.8503 58.3939L61.4708 60.2648C70.5377 61.6089 74.1263 62.0905 74.2154 61.9752C74.6757 61.3786 84.5825 37.8535 84.4142 37.7563C84.3007 37.6908 83.8892 37.7127 83.4996 37.8051ZM39.2835 45.7086C39.0665 46.1868 32.7993 67.5845 32.8656 67.6206C32.9753 67.6801 70.967 63.9253 70.9672 63.855C70.967 63.7887 47.5838 60.2968 46.5172 60.2037L45.8632 60.1468L42.7424 53.1512C41.0258 49.3036 39.5665 46.0086 39.4993 45.8291C39.3878 45.5316 39.3687 45.5209 39.2835 45.7086Z" fill="#0D0B33"/>
<path d="M3.17969 57.9004C6.33927 65.8602 8.78113 69.5183 15.4895 73.2877V84.0588C9.36422 79.7234 6.08481 77.0632 3.17969 67.9021V57.9004Z" fill="#0D0B33"/>
<path d="M20.1055 77.1367L24.7217 79.4448V90.2159L20.1055 87.9078V77.1367Z" fill="#0D0B33"/>
<path d="M97.7406 76.2523C76.1078 88.7409 41.0341 88.7409 19.4013 76.2523C9.18837 70.3564 3.79701 62.7311 3.22719 55.0092L3.17969 44.2381C3.32492 52.3105 8.73212 60.3572 19.4013 66.5165C41.0341 79.0052 76.1078 79.0052 97.7406 66.5165C108.365 60.3829 113.772 52.3776 113.96 44.3391V43.4688C113.967 43.7588 113.967 44.049 113.96 44.3391V54.0746C113.772 62.1132 108.365 70.1186 97.7406 76.2523Z" fill="#79EFBD" stroke="#0D0B33" stroke-width="0.59185"/>
<path d="M97.7436 66.0136C76.1108 78.5022 41.0371 78.5022 19.4043 66.0136C-2.22851 53.525 -2.22851 33.277 19.4043 20.7883C41.0371 8.29972 76.1108 8.29972 97.7436 20.7883C119.376 33.277 119.376 53.525 97.7436 66.0136Z" fill="#F7F6FF" stroke="#0D0B33" stroke-width="0.59185"/>
<path fill-rule="evenodd" clip-rule="evenodd" d="M83.4996 27.2172C83.1102 27.3095 73.8186 28.6693 62.8516 30.2389C51.8847 31.8085 42.7877 33.1247 42.6357 33.1638C42.4381 33.2146 43.2848 35.3126 45.6047 40.5204L48.8503 47.806L61.4708 49.6769C70.5377 51.021 74.1263 51.5026 74.2154 51.3873C74.6757 50.7907 84.5825 27.2656 84.4142 27.1684C84.3007 27.1029 83.8892 27.1248 83.4996 27.2172ZM39.2835 35.1207C39.0665 35.5989 32.7993 56.9966 32.8656 57.0327C32.9753 57.0922 70.967 53.3374 70.9672 53.2671C70.967 53.2008 47.5838 49.7089 46.5172 49.6158L45.8632 49.5589L42.7424 42.5633C41.0258 38.7157 39.5665 35.4207 39.4993 35.2412C39.3878 34.9437 39.3687 34.933 39.2835 35.1207Z" fill="#0D0B33"/>
<path d="M3.17969 47.3145C6.33927 55.2743 8.78113 58.9324 15.4895 62.7017V73.4728C9.36422 69.1375 6.08481 66.4772 3.17969 57.3162V47.3145Z" fill="#0D0B33"/>
<path d="M20.1055 66.5508L24.7217 68.8589V79.63L20.1055 77.3219V66.5508Z" fill="#0D0B33"/>
<path d="M97.7406 65.6683C76.1078 78.1569 41.0341 78.1569 19.4013 65.6683C9.18837 59.7724 3.79701 52.1471 3.22719 44.4252L3.17969 33.6541C3.32492 41.7265 8.73212 49.7733 19.4013 55.9326C41.0341 68.4212 76.1078 68.4212 97.7406 55.9326C108.365 49.7989 113.772 41.7936 113.96 33.7551V32.8848C113.967 33.1749 113.967 33.465 113.96 33.7551V43.4906C113.772 51.5292 108.365 59.5346 97.7406 65.6683Z" fill="#79EFBD" stroke="#0D0B33" stroke-width="0.59185"/>
<path d="M97.7436 55.4296C76.1108 67.9183 41.0371 67.9183 19.4043 55.4296C-2.22851 42.941 -2.22851 22.693 19.4043 10.2044C41.0371 -2.28426 76.1108 -2.28426 97.7436 10.2044C119.376 22.693 119.376 42.941 97.7436 55.4296Z" fill="#F7F6FF" stroke="#0D0B33" stroke-width="0.59185"/>
<path fill-rule="evenodd" clip-rule="evenodd" d="M83.4996 16.6352C83.1102 16.7275 73.8186 18.0873 62.8516 19.6569C51.8847 21.2265 42.7877 22.5427 42.6357 22.5817C42.4381 22.6325 43.2848 24.7306 45.6047 29.9383L48.8503 37.224L61.4708 39.0949C70.5377 40.439 74.1263 40.9206 74.2154 40.8053C74.6757 40.2087 84.5825 16.6835 84.4142 16.5864C84.3007 16.5209 83.8892 16.5428 83.4996 16.6352ZM39.2835 24.5387C39.0665 25.0169 32.7993 46.4146 32.8656 46.4506C32.9753 46.5102 70.967 42.7554 70.9672 42.6851C70.967 42.6188 47.5838 39.1269 46.5172 39.0338L45.8632 38.9769L42.7424 31.9813C41.0258 28.1337 39.5665 24.8387 39.4993 24.6592C39.3878 24.3617 39.3687 24.3509 39.2835 24.5387Z" fill="#0D0B33"/>
<path d="M3.17969 36.7305C6.33927 44.6903 8.78113 48.3484 15.4895 52.1178V62.8889C9.36422 58.5535 6.08481 55.8932 3.17969 46.7322V36.7305Z" fill="#0D0B33"/>
<path d="M20.1055 55.9668L24.7217 58.2749V69.046L20.1055 66.7379V55.9668Z" fill="#0D0B33"/>
<defs>
<linearGradient id="paint0_linear_1812_47199" x1="-28.8925" y1="128.254" x2="-22.8826" y2="181.264" gradientUnits="userSpaceOnUse">
<stop stop-color="white"/>
<stop offset="1" stop-color="white" stop-opacity="0"/>
</linearGradient>
</defs>
</svg>
