<svg xmlns="http://www.w3.org/2000/svg" width="118" height="189" fill="none"><path fill="url(#a)" d="M99.919 178.83c-22.835 13.22-59.857 13.22-82.691 0-22.835-13.22-22.835-34.654 0-47.874 22.834-13.22 59.856-13.22 82.691 0s22.835 34.654 0 47.874Z"/><path fill="#79EFBD" stroke="#0D0B33" stroke-width=".592" d="M97.74 171.52c-21.632 12.489-56.706 12.489-78.339 0-10.213-5.896-15.604-13.521-16.174-21.243l-.047-10.771c.145 8.072 5.552 16.119 16.221 22.278 21.633 12.489 56.707 12.489 78.34 0 10.624-6.134 16.031-14.139 16.219-22.177v-.871c.007.29.007.581 0 .871v9.735c-.188 8.039-5.595 16.044-16.22 22.178Z"/><path fill="#F7F6FF" stroke="#0D0B33" stroke-width=".592" d="M97.744 161.281c-21.633 12.489-56.707 12.489-78.34 0-21.633-12.488-21.633-32.736 0-45.225 21.633-12.489 56.707-12.489 78.34 0 21.632 12.489 21.632 32.737 0 45.225Z"/><path fill="#0D0B33" fill-rule="evenodd" d="M83.5 122.487c-.39.092-9.681 1.452-20.648 3.021-10.967 1.57-20.064 2.886-20.216 2.925-.198.051.649 2.149 2.969 7.357l3.245 7.286 12.62 1.87c9.068 1.345 12.656 1.826 12.745 1.711.46-.597 10.367-24.122 10.2-24.219-.114-.066-.526-.044-.915.049Zm-44.217 7.903c-.217.478-6.484 21.876-6.417 21.912.11.06 38.101-3.695 38.101-3.765 0-.067-23.383-3.559-24.45-3.652l-.654-.057-3.12-6.995c-1.717-3.848-3.177-7.143-3.244-7.322-.111-.298-.13-.308-.216-.121Z" clip-rule="evenodd"/><path fill="#0D0B33" d="M3.18 142.582c3.16 7.96 5.601 11.618 12.31 15.387v10.771c-6.126-4.335-9.405-6.995-12.31-16.156v-10.002ZM20.102 161.818l4.616 2.308v10.772l-4.616-2.309v-10.771Z"/><path fill="#79EFBD" stroke="#0D0B33" stroke-width=".592" d="M97.74 160.938c-21.632 12.488-56.706 12.488-78.339 0-10.213-5.896-15.604-13.521-16.174-21.243l-.047-10.771c.145 8.072 5.552 16.119 16.221 22.278 21.633 12.489 56.707 12.489 78.34 0 10.624-6.134 16.031-14.139 16.219-22.177v-.871c.007.29.007.581 0 .871v9.735c-.188 8.039-5.595 16.044-16.22 22.178Z"/><path fill="#F7F6FF" stroke="#0D0B33" stroke-width=".592" d="M97.744 150.699c-21.633 12.489-56.707 12.489-78.34 0-21.633-12.488-21.633-32.737 0-45.225 21.633-12.489 56.707-12.489 78.34 0 21.632 12.488 21.632 32.737 0 45.225Z"/><path fill="#0D0B33" fill-rule="evenodd" d="M83.5 111.905c-.39.092-9.681 1.452-20.648 3.021-10.967 1.57-20.064 2.886-20.216 2.925-.198.051.649 2.149 2.969 7.357l3.245 7.286 12.62 1.87c9.068 1.345 12.656 1.826 12.745 1.711.46-.597 10.367-24.122 10.2-24.219-.114-.066-.526-.044-.915.049Zm-44.217 7.903c-.217.478-6.484 21.876-6.417 21.912.11.06 38.101-3.695 38.101-3.765 0-.067-23.383-3.559-24.45-3.652l-.654-.057-3.12-6.995c-1.717-3.848-3.177-7.143-3.244-7.322-.111-.298-.13-.309-.216-.121Z" clip-rule="evenodd"/><path fill="#0D0B33" d="M3.18 132c3.16 7.96 5.601 11.618 12.31 15.387v10.771c-6.126-4.335-9.405-6.995-12.31-16.156V132ZM20.105 151.236l4.617 2.308v10.772l-4.617-2.309v-10.771Z"/><path fill="#79EFBD" stroke="#0D0B33" stroke-width=".592" d="M97.74 150.35c-21.632 12.489-56.706 12.489-78.339 0-10.213-5.896-15.604-13.521-16.174-21.243l-.047-10.771c.145 8.072 5.552 16.119 16.221 22.278 21.633 12.489 56.707 12.489 78.34 0 10.624-6.133 16.031-14.139 16.219-22.177v-.871c.007.29.007.581 0 .871v9.735c-.188 8.039-5.595 16.044-16.22 22.178Z"/><path fill="#F7F6FF" stroke="#0D0B33" stroke-width=".592" d="M97.744 140.111c-21.633 12.489-56.707 12.489-78.34 0-21.633-12.488-21.633-32.736 0-45.225 21.633-12.489 56.707-12.489 78.34 0 21.632 12.489 21.632 32.737 0 45.225Z"/><path fill="#0D0B33" fill-rule="evenodd" d="M83.5 101.317c-.39.092-9.681 1.452-20.648 3.022-10.967 1.569-20.064 2.885-20.216 2.924-.198.051.649 2.149 2.969 7.357l3.245 7.286 12.62 1.871c9.068 1.344 12.656 1.825 12.745 1.71.46-.597 10.367-24.122 10.2-24.219-.114-.065-.526-.044-.915.049Zm-44.217 7.903c-.217.478-6.484 21.876-6.417 21.912.11.06 38.101-3.695 38.101-3.765 0-.067-23.383-3.559-24.45-3.652l-.654-.056-3.12-6.996c-1.717-3.848-3.177-7.143-3.244-7.322-.111-.298-.13-.308-.216-.121Z" clip-rule="evenodd"/><path fill="#0D0B33" d="M3.18 121.412c3.16 7.96 5.601 11.618 12.31 15.387v10.772c-6.126-4.336-9.405-6.996-12.31-16.157v-10.002ZM20.105 140.648l4.617 2.309v10.771l-4.617-2.308v-10.772Z"/><path fill="#79EFBD" stroke="#0D0B33" stroke-width=".592" d="M97.74 139.766c-21.632 12.489-56.706 12.489-78.339 0-10.213-5.896-15.604-13.521-16.174-21.243l-.047-10.771c.145 8.072 5.552 16.119 16.221 22.278 21.633 12.489 56.707 12.489 78.34 0 10.624-6.133 16.031-14.139 16.219-22.177v-.871c.007.291.007.581 0 .871v9.735c-.188 8.039-5.595 16.044-16.22 22.178Z"/><path fill="#F7F6FF" stroke="#0D0B33" stroke-width=".592" d="M97.744 129.527c-21.633 12.489-56.707 12.489-78.34 0-21.633-12.488-21.633-32.736 0-45.225 21.633-12.489 56.707-12.489 78.34 0 21.632 12.489 21.632 32.737 0 45.225Z"/><path fill="#0D0B33" fill-rule="evenodd" d="M83.5 90.733c-.39.092-9.681 1.452-20.648 3.022-10.967 1.57-20.064 2.885-20.216 2.924-.198.051.649 2.15 2.969 7.357l3.245 7.286 12.62 1.871c9.068 1.344 12.656 1.825 12.745 1.71.46-.597 10.367-24.122 10.2-24.219-.114-.066-.526-.044-.915.049Zm-44.217 7.903c-.217.479-6.484 21.876-6.417 21.912.11.06 38.101-3.695 38.101-3.765 0-.067-23.383-3.558-24.45-3.652l-.654-.056-3.12-6.996c-1.717-3.848-3.177-7.143-3.244-7.322-.111-.298-.13-.308-.216-.12Z" clip-rule="evenodd"/><path fill="#0D0B33" d="M3.18 110.828c3.16 7.96 5.601 11.618 12.31 15.387v10.772c-6.126-4.336-9.405-6.996-12.31-16.157v-10.002ZM20.105 130.064l4.617 2.309v10.771l-4.617-2.308v-10.772Z"/><path fill="#79EFBD" stroke="#0D0B33" stroke-width=".592" d="M97.74 129.18c-21.632 12.489-56.706 12.489-78.339 0-10.213-5.896-15.604-13.521-16.174-21.243L3.18 97.166c.145 8.072 5.552 16.119 16.221 22.278 21.633 12.489 56.707 12.489 78.34 0 10.624-6.133 16.031-14.139 16.219-22.177v-.87c.007.29.007.58 0 .87v9.735c-.188 8.039-5.595 16.044-16.22 22.178Z"/><path fill="#F7F6FF" stroke="#0D0B33" stroke-width=".592" d="M97.744 118.941c-21.633 12.489-56.707 12.489-78.34 0-21.633-12.488-21.633-32.736 0-45.225 21.633-12.488 56.707-12.488 78.34 0 21.632 12.489 21.632 32.737 0 45.225Z"/><path fill="#0D0B33" fill-rule="evenodd" d="M83.5 80.147c-.39.092-9.681 1.452-20.648 3.022-10.967 1.57-20.064 2.885-20.216 2.924-.198.051.649 2.15 2.969 7.357l3.245 7.286 12.62 1.871c9.068 1.344 12.656 1.825 12.745 1.71.46-.597 10.367-24.122 10.2-24.219-.114-.065-.526-.043-.915.049ZM39.283 88.05c-.217.479-6.484 21.876-6.417 21.912.11.06 38.101-3.695 38.101-3.765 0-.066-23.383-3.558-24.45-3.651l-.654-.057-3.12-6.996c-1.717-3.848-3.177-7.143-3.244-7.322-.111-.298-.13-.308-.216-.12Z" clip-rule="evenodd"/><path fill="#0D0B33" d="M3.18 100.242c3.16 7.96 5.601 11.618 12.31 15.387v10.772c-6.126-4.336-9.405-6.996-12.31-16.157v-10.002ZM20.105 119.479l4.617 2.308v10.771l-4.617-2.308v-10.771Z"/><path fill="#79EFBD" stroke="#0D0B33" stroke-width=".592" d="M97.74 118.596c-21.632 12.489-56.706 12.489-78.339 0C9.188 112.7 3.797 105.075 3.227 97.353L3.18 86.582C3.325 94.654 8.732 102.7 19.4 108.86c21.633 12.489 56.707 12.489 78.34 0 10.624-6.133 16.031-14.139 16.219-22.177v-.87c.007.29.007.58 0 .87v9.735c-.188 8.039-5.595 16.044-16.22 22.178Z"/><path fill="#F7F6FF" stroke="#0D0B33" stroke-width=".592" d="M97.744 108.357c-21.633 12.489-56.707 12.489-78.34 0-21.633-12.488-21.633-32.736 0-45.225 21.633-12.488 56.707-12.488 78.34 0 21.632 12.489 21.632 32.737 0 45.225Z"/><path fill="#0D0B33" fill-rule="evenodd" d="M83.5 69.563c-.39.092-9.681 1.452-20.648 3.022-10.967 1.57-20.064 2.885-20.216 2.925-.198.05.649 2.148 2.969 7.356l3.245 7.286 12.62 1.87c9.068 1.345 12.656 1.826 12.745 1.711.46-.597 10.367-24.122 10.2-24.219-.114-.065-.526-.043-.915.049Zm-44.217 7.903c-.217.479-6.484 21.876-6.417 21.912.11.06 38.101-3.695 38.101-3.765 0-.066-23.383-3.558-24.45-3.651l-.654-.057-3.12-6.996c-1.717-3.848-3.177-7.143-3.244-7.322-.111-.298-.13-.308-.216-.12Z" clip-rule="evenodd"/><path fill="#0D0B33" d="M3.18 89.658c3.16 7.96 5.601 11.618 12.31 15.387v10.772c-6.126-4.336-9.405-6.996-12.31-16.157V89.658ZM20.105 108.895l4.617 2.308v10.771l-4.617-2.308v-10.771Z"/><path fill="#79EFBD" stroke="#0D0B33" stroke-width=".592" d="M97.74 108.01c-21.632 12.489-56.706 12.489-78.339 0C9.188 102.114 3.797 94.489 3.227 86.767L3.18 75.996c.145 8.072 5.552 16.119 16.221 22.278 21.633 12.489 56.707 12.489 78.34 0 10.624-6.133 16.031-14.139 16.219-22.177v-.87c.007.29.007.58 0 .87v9.735c-.188 8.039-5.595 16.044-16.22 22.178Z"/><path fill="#F7F6FF" stroke="#0D0B33" stroke-width=".592" d="M97.744 97.771c-21.633 12.489-56.707 12.489-78.34 0-21.633-12.488-21.633-32.736 0-45.225 21.633-12.489 56.707-12.489 78.34 0 21.632 12.489 21.632 32.737 0 45.225Z"/><path fill="#0D0B33" fill-rule="evenodd" d="M83.5 58.977c-.39.092-9.681 1.452-20.648 3.022-10.967 1.57-20.064 2.886-20.216 2.925-.198.05.649 2.148 2.969 7.356l3.245 7.286 12.62 1.87c9.068 1.345 12.656 1.826 12.745 1.711.46-.597 10.367-24.122 10.2-24.219-.114-.065-.526-.043-.915.049Zm-44.217 7.904c-.217.478-6.484 21.875-6.417 21.911.11.06 38.101-3.695 38.101-3.765 0-.066-23.383-3.558-24.45-3.651l-.654-.057-3.12-6.996c-1.717-3.847-3.177-7.142-3.244-7.322-.111-.298-.13-.308-.216-.12Z" clip-rule="evenodd"/><path fill="#0D0B33" d="M3.18 79.072C6.34 87.032 8.78 90.69 15.49 94.46v10.771c-6.126-4.336-9.405-6.996-12.31-16.157V79.072ZM20.105 98.309l4.617 2.308v10.771l-4.617-2.308V98.309Z"/><path fill="#79EFBD" stroke="#0D0B33" stroke-width=".592" d="M97.74 97.424c-21.632 12.489-56.706 12.489-78.339 0C9.188 91.528 3.797 83.903 3.227 76.181L3.18 65.41c.145 8.072 5.552 16.12 16.221 22.278 21.633 12.489 56.707 12.489 78.34 0 10.624-6.133 16.031-14.139 16.219-22.177v-.87c.007.29.007.58 0 .87v9.736c-.188 8.038-5.595 16.043-16.22 22.177Z"/><path fill="#F7F6FF" stroke="#0D0B33" stroke-width=".592" d="M97.744 87.186c-21.633 12.488-56.707 12.488-78.34 0-21.633-12.49-21.633-32.737 0-45.226 21.633-12.488 56.707-12.488 78.34 0 21.632 12.489 21.632 32.737 0 45.226Z"/><path fill="#0D0B33" fill-rule="evenodd" d="M83.5 48.391c-.39.092-9.681 1.452-20.648 3.022-10.967 1.57-20.064 2.886-20.216 2.925-.198.05.649 2.148 2.969 7.356l3.245 7.286 12.62 1.87c9.068 1.345 12.656 1.826 12.745 1.711.46-.597 10.367-24.122 10.2-24.219-.114-.065-.526-.043-.915.049Zm-44.217 7.904c-.217.478-6.484 21.876-6.417 21.912.11.06 38.101-3.696 38.101-3.766 0-.066-23.383-3.558-24.45-3.651l-.654-.057-3.12-6.996c-1.717-3.848-3.177-7.143-3.244-7.322-.111-.297-.13-.308-.216-.12Z" clip-rule="evenodd"/><path fill="#0D0B33" d="M3.18 68.486c3.16 7.96 5.601 11.618 12.31 15.388v10.77C9.363 90.31 6.085 87.65 3.18 78.489V68.486ZM20.105 87.723l4.617 2.308v10.771l-4.617-2.308V87.723Z"/><path fill="#79EFBD" stroke="#0D0B33" stroke-width=".592" d="M97.74 86.838c-21.632 12.489-56.706 12.489-78.339 0C9.188 80.942 3.797 73.317 3.227 65.595l-.047-10.77c.145 8.072 5.552 16.118 16.221 22.278 21.633 12.488 56.707 12.488 78.34 0 10.624-6.134 16.031-14.14 16.219-22.178v-.87c.007.29.007.58 0 .87v9.736c-.188 8.038-5.595 16.044-16.22 22.177Z"/><path fill="#F7F6FF" stroke="#0D0B33" stroke-width=".592" d="M97.744 76.6c-21.633 12.488-56.707 12.488-78.34 0-21.633-12.49-21.633-32.737 0-45.226 21.633-12.488 56.707-12.488 78.34 0 21.632 12.489 21.632 32.737 0 45.226Z"/><path fill="#0D0B33" fill-rule="evenodd" d="M83.5 37.805c-.39.092-9.681 1.452-20.648 3.022-10.967 1.57-20.064 2.886-20.216 2.925-.198.05.649 2.148 2.969 7.356l3.245 7.286 12.62 1.87c9.068 1.345 12.656 1.826 12.745 1.711.46-.596 10.367-24.122 10.2-24.219-.114-.065-.526-.043-.915.05ZM39.283 45.71c-.217.478-6.484 21.876-6.417 21.912.11.06 38.101-3.696 38.101-3.766 0-.066-23.383-3.558-24.45-3.651l-.654-.057-3.12-6.996c-1.717-3.847-3.177-7.142-3.244-7.322-.111-.297-.13-.308-.216-.12Z" clip-rule="evenodd"/><path fill="#0D0B33" d="M3.18 57.9c3.16 7.96 5.601 11.618 12.31 15.388v10.77c-6.126-4.335-9.405-6.995-12.31-16.156V57.9ZM20.105 77.137l4.617 2.308v10.77l-4.617-2.307V77.137Z"/><path fill="#79EFBD" stroke="#0D0B33" stroke-width=".592" d="M97.74 76.252c-21.632 12.489-56.706 12.489-78.339 0C9.188 70.356 3.797 62.732 3.227 55.01L3.18 44.24C3.325 52.31 8.732 60.356 19.4 66.515c21.633 12.49 56.707 12.49 78.34 0 10.624-6.133 16.031-14.138 16.219-22.177v-.87c.007.29.007.58 0 .87v9.736c-.188 8.038-5.595 16.044-16.22 22.177Z"/><path fill="#F7F6FF" stroke="#0D0B33" stroke-width=".592" d="M97.744 66.014c-21.633 12.488-56.707 12.488-78.34 0-21.633-12.489-21.633-32.737 0-45.226 21.633-12.488 56.707-12.488 78.34 0 21.632 12.489 21.632 32.737 0 45.226Z"/><path fill="#0D0B33" fill-rule="evenodd" d="M83.5 27.217c-.39.093-9.681 1.452-20.648 3.022-10.967 1.57-20.064 2.886-20.216 2.925-.198.05.649 2.149 2.969 7.356l3.245 7.286 12.62 1.87c9.068 1.345 12.656 1.827 12.745 1.711.46-.596 10.367-24.121 10.2-24.219-.114-.065-.526-.043-.915.05Zm-44.217 7.904c-.217.478-6.484 21.876-6.417 21.912.11.06 38.101-3.696 38.101-3.766 0-.066-23.383-3.558-24.45-3.651l-.654-.057-3.12-6.996c-1.717-3.847-3.177-7.142-3.244-7.322-.111-.297-.13-.308-.216-.12Z" clip-rule="evenodd"/><path fill="#0D0B33" d="M3.18 47.315c3.16 7.96 5.601 11.617 12.31 15.387v10.77c-6.126-4.334-9.405-6.995-12.31-16.156V47.314ZM20.105 66.55l4.617 2.309V79.63l-4.617-2.308V66.55Z"/><path fill="#79EFBD" stroke="#0D0B33" stroke-width=".592" d="M97.74 65.668c-21.632 12.489-56.706 12.489-78.339 0C9.188 59.772 3.797 52.148 3.227 44.425l-.047-10.77c.145 8.072 5.552 16.118 16.221 22.278 21.633 12.488 56.707 12.488 78.34 0 10.624-6.134 16.031-14.14 16.219-22.178v-.87c.007.29.007.58 0 .87v9.736c-.188 8.038-5.595 16.044-16.22 22.177Z"/><path fill="#F7F6FF" stroke="#0D0B33" stroke-width=".592" d="M97.744 55.43c-21.633 12.488-56.707 12.488-78.34 0-21.633-12.489-21.633-32.737 0-45.226 21.633-12.488 56.707-12.488 78.34 0 21.632 12.489 21.632 32.737 0 45.226Z"/><path fill="#0D0B33" fill-rule="evenodd" d="M83.5 16.635c-.39.092-9.681 1.452-20.648 3.022-10.967 1.57-20.064 2.886-20.216 2.925-.198.05.649 2.149 2.969 7.356l3.245 7.286 12.62 1.87c9.068 1.345 12.656 1.827 12.745 1.711.46-.596 10.367-24.122 10.2-24.219-.114-.065-.526-.043-.915.05ZM39.283 24.54c-.217.478-6.484 21.876-6.417 21.912.11.06 38.101-3.696 38.101-3.766 0-.066-23.383-3.558-24.45-3.651l-.654-.057-3.12-6.996c-1.717-3.847-3.177-7.142-3.244-7.322-.111-.297-.13-.308-.216-.12Z" clip-rule="evenodd"/><path fill="#0D0B33" d="M3.18 36.73c3.16 7.96 5.601 11.618 12.31 15.388v10.77c-6.126-4.334-9.405-6.995-12.31-16.156V36.73ZM20.105 55.967l4.617 2.308v10.771l-4.617-2.308V55.967Z"/><defs><linearGradient id="a" x1="-28.892" x2="-22.883" y1="128.254" y2="181.264" gradientUnits="userSpaceOnUse"><stop stop-color="#fff"/><stop offset="1" stop-color="#fff" stop-opacity="0"/></linearGradient></defs></svg>