<svg xmlns="http://www.w3.org/2000/svg" width="140" height="218" fill="none"><path fill="#79EFBD" stroke="#0D0B33" stroke-width="1.85" d="M14.684 16.295c0-7.033 0-10.549 1.185-12.55.538-.91 1.242-1.606 2.079-2.07.784-.433 1.684-.664 2.674-.675 2.326-.025 5.371 1.733 11.462 5.25l88.781 51.257c6.091 3.517 9.136 5.275 11.462 7.987a26.217 26.217 0 0 1 4.753 8.231c1.185 3.37 1.185 6.887 1.185 13.92v102.516c0 7.033 0 10.549-1.185 12.551-.538.908-1.241 1.604-2.077 2.067-.784.435-1.685.666-2.676.677-2.326.025-5.371-1.733-11.462-5.249l-88.781-51.258c-6.09-3.516-9.136-5.275-11.463-7.986a26.21 26.21 0 0 1-4.752-8.232c-1.185-3.371-1.185-6.887-1.185-13.92V16.295Z"/><path fill="#79EFBD" stroke="#0D0B33" stroke-width="1.85" d="M2.75 140.003a26.205 26.205 0 0 0 4.753 8.231l13.119-7.272a26.198 26.198 0 0 1-4.753-8.232L2.75 140.003ZM2.748 140.003c-1.186-3.371-1.186-6.887-1.186-13.92l13.12-7.272c0 7.032 0 10.549 1.185 13.919l-13.12 7.273Z"/><path fill="#79EFBD" stroke="#0D0B33" stroke-width="1.85" d="M18.962 156.219v.001l13.12-7.273c-6.091-3.516-9.136-5.274-11.463-7.986L7.5 148.233c2.326 2.712 5.372 4.47 11.462 7.986ZM1.563 23.567v102.516l13.119-7.272V16.295l-13.12 7.272ZM18.965 156.221l88.781 51.258 13.119-7.272-88.78-51.258-13.12 7.272Z"/><path fill="#79EFBD" d="M5.063 8.805c-1.186 2.002-2.5 7.23-2.5 14.262l16.5-6.762c0-7.033-1.186-12.998 0-15l-14 7.5Z"/><path stroke="#0D0B33" stroke-linejoin="round" stroke-width="1.85" d="m4.063 9.305 15-8"/><mask id="a" width="127" height="207" x="13" y="0" maskUnits="userSpaceOnUse" style="mask-type:alpha"><path fill="#79EFBD" stroke="#0D0B33" stroke-width="1.85" d="M14.684 16.295c0-7.033 0-10.549 1.185-12.55.538-.91 1.242-1.606 2.079-2.07.784-.433 1.684-.664 2.674-.675 2.326-.025 5.371 1.733 11.462 5.25l88.781 51.257c6.091 3.517 9.136 5.275 11.462 7.987a26.217 26.217 0 0 1 4.753 8.231c1.185 3.37 1.185 6.887 1.185 13.92v102.516c0 7.033 0 10.549-1.185 12.551-.538.908-1.241 1.604-2.077 2.067-.784.435-1.685.666-2.676.677-2.326.025-5.371-1.733-11.462-5.249l-88.781-51.258c-6.09-3.516-9.136-5.275-11.463-7.986a26.21 26.21 0 0 1-4.752-8.232c-1.185-3.371-1.185-6.887-1.185-13.92V16.295Z"/></mask><g fill="#0D0B33" mask="url(#a)"><path d="M86.655-3.946c26.978 21.22 38.571 36.534 53.743 69.081l-81.44 47.654-43.105-75.8L86.655-3.947ZM148.084 83.16c2.993 12.073 3.875 17.676 4.079 25.438l-78.514 43.548-11.918-20.958 86.353-48.028Z"/></g><path fill="#79EFBD" d="M133.563 205.568c1.185-2.001 2.5-7.23 2.5-14.262l-16.5 6.762c0 7.033 1.185 12.999-.001 15l14.001-7.5Z"/><path stroke="#0D0B33" stroke-linejoin="round" stroke-width="1.85" d="m135.562 204.305-13.999 8"/><rect width="142.7" height="142.7" fill="#fff" stroke="#0D0B33" stroke-width="1.85" rx="12.56" transform="matrix(.86603 .5 0 1 1.563 3.475)"/><path fill="#0D0B33" d="M58.264 60.738c-2.461-1.421-4.822-1.655-6.563-.65l-27.34 15.785c-1.035.598-1.552 1.866-1.552 3.433 0 1.567.517 3.434 1.553 5.227l17.916 31.032V78.94c0-2.734 1.904-3.85 4.271-2.483l37.664 21.745 19.47-11.241-45.419-26.223ZM42.28 122.413l37.648 21.737c2.367 1.367 4.286.259 4.286-2.475V105.05l17.917 31.032c1.035 1.794 1.553 3.66 1.553 5.227 0 1.567-.518 2.835-1.553 3.433l-27.34 15.785c-1.74 1.005-4.101.772-6.563-.65L22.81 133.654l19.47-11.241Z"/></svg>