<svg xmlns="http://www.w3.org/2000/svg" width="303" height="61" fill="none"><path fill="#fff" fill-rule="evenodd" d="M47.6 1C40.446.994 34.638 6.783 34.62 13.937v14.344c-1.337.09-2.704.147-4.121.147-1.417 0-2.777.057-4.12.137V13.937c-.115-7.087-5.892-12.772-12.98-12.772C6.312 1.165.534 6.85.42 13.937V48.22c.114 7.087 5.892 12.772 12.98 12.772 7.087 0 12.864-5.685 12.978-12.772V33.876a60.943 60.943 0 0 1 4.12-.147c1.418 0 2.778-.057 4.122-.137V48.22c.113 7.087 5.89 12.772 12.978 12.772s12.866-5.685 12.98-12.772V13.937C60.557 6.784 54.752.997 47.6 1ZM13.398 6.3a7.657 7.657 0 0 1 7.66 7.637v15.19a43.658 43.658 0 0 0-11.03 3.118 20.054 20.054 0 0 0-4.277 2.553v-20.86A7.657 7.657 0 0 1 13.398 6.3Zm0 49.58a7.66 7.66 0 0 0 7.66-7.66V34.477a37.765 37.765 0 0 0-8.88 2.597c-4.034 1.791-6.44 4.669-6.44 7.707v3.439a7.66 7.66 0 0 0 7.66 7.66Zm34.202-.024a7.657 7.657 0 0 1-7.66-7.636V33.03a43.666 43.666 0 0 0 11.029-3.118 20.052 20.052 0 0 0 4.278-2.553v20.86a7.657 7.657 0 0 1-7.647 7.637ZM39.94 27.66a37.765 37.765 0 0 0 8.88-2.596c4.034-1.785 6.44-4.662 6.44-7.687v-3.439a7.66 7.66 0 1 0-15.32 0V27.66ZM113.381 48.861V13.295h-.01a2.271 2.271 0 0 0-4.541 0V28.81H85.171V13.295a2.273 2.273 0 0 0-4.542 0v35.583a2.273 2.273 0 0 0 4.542 0V32.75h23.669v16.112a2.272 2.272 0 0 0 4.541 0Zm29.172-25.224a2.298 2.298 0 0 1 3.925 1.626v23.555a2.3 2.3 0 0 1-4.599 0V47.48c-5.651 5.208-14.422 4.97-19.782-.538-5.359-5.507-5.359-14.281 0-19.789 5.36-5.507 14.131-5.745 19.782-.537v-1.354c0-.61.242-1.195.674-1.626Zm87.917-.773a14.187 14.187 0 1 0 14.184 14.187c0-7.834-6.35-14.186-14.184-14.187Zm0 23.772a9.588 9.588 0 1 1 9.575-9.585c0 5.29-4.285 9.58-9.575 9.585Zm-98.179 0a9.588 9.588 0 1 1 0-19.177 9.588 9.588 0 0 1 0 19.177Zm33.962-19.174a2.3 2.3 0 0 0 0-4.598h-.298c-3.554-.001-6.979 1.34-9.588 3.753v-1.224a2.386 2.386 0 0 0-2.176-2.426 2.3 2.3 0 0 0-2.423 2.296v23.451a2.373 2.373 0 0 0 1.955 2.383 2.291 2.291 0 0 0 2.61-1.962c-.036-4.314-.086-11.61.034-12.084a9.586 9.586 0 0 1 9.588-9.589h.298Zm106.106 7.293v14.07c0 1.27-1.029 2.299-2.299 2.299a2.3 2.3 0 0 1-2.296-2.3V34.756a7.187 7.187 0 0 0-7.687-7.16c-3.81.255-6.684 3.594-6.684 7.41v13.82a2.299 2.299 0 1 1-4.598 0V25.277a2.299 2.299 0 1 1 4.598 0v.217A11.43 11.43 0 0 1 260 22.99a11.775 11.775 0 0 1 12.359 11.764Zm-60.223 1.086v12.98a2.3 2.3 0 0 1-4.599 0V33.882a6.42 6.42 0 1 0-12.837 0v14.94a2.299 2.299 0 1 1-4.598 0v-14.94a6.42 6.42 0 1 0-12.837 0v14.94a2.3 2.3 0 0 1-4.599 0V25.276a2.296 2.296 0 0 1 4.572-.335c4.821-3.486 11.541-2.504 15.163 2.216a11.005 11.005 0 0 1 19.735 6.718v1.965Zm73.361 23.979 15.5-33.538.007-.003a2.34 2.34 0 1 0-4.224-1.955l-8.777 18.973-8.779-18.973A2.34 2.34 0 1 0 275 26.28l10.437 22.562-4.168 9.024a2.34 2.34 0 0 0 4.228 1.955Z" clip-rule="evenodd"/></svg>