<svg xmlns="http://www.w3.org/2000/svg" width="435" height="646" fill="none"><g filter="url(#a)" opacity=".2"><path fill="url(#b)" d="M12.835 423.428c-5.573 2.934-5.728 10.859-.273 14.008l351.572 202.957a20 20 0 0 0 19.537.259l38.339-20.802c5.511-2.991 5.597-10.87.152-13.979L69.086 404.273a20.001 20.001 0 0 0-19.233-.33l-37.018 19.485Z"/></g><g filter="url(#c)" opacity=".05"><rect width="339" height="339" fill="url(#d)" rx="35" transform="matrix(.86603 .5 0 1 91.21 40)"/></g><g filter="url(#e)" opacity=".05"><rect width="339" height="339" fill="url(#f)" rx="35" transform="matrix(.86603 .5 0 1 111.211 20)"/></g><g filter="url(#g)" opacity=".05"><rect width="339" height="339" fill="url(#h)" rx="35" transform="matrix(.86603 .5 0 1 131.211 0)"/></g><path fill="#181734" stroke="#000" stroke-width="1.85" d="M72.35 95.144c0-9.597 3.406-16.049 8.623-18.94 5.083-2.816 12.209-2.431 20.301 2.24l232.961 134.501c8.196 4.732 15.669 12.89 21.094 22.287 5.426 9.397 8.754 19.947 8.754 29.412v269c0 9.594-3.404 16.045-8.617 18.936-5.084 2.819-12.212 2.436-20.306-2.237l-232.961-134.5c-8.196-4.733-15.669-12.89-21.094-22.287-5.426-9.398-8.754-19.948-8.754-29.412v-269Z"/><path fill="#181734" stroke="#000" stroke-linejoin="round" stroke-width="1.85" d="m99.89 416.611-32.25 17.876c-8.02-4.768-15.319-12.798-20.645-22.023-5.322-9.218-8.626-19.545-8.75-28.869l32.285-17.896c.339 9.444 3.718 19.68 8.973 28.782 5.244 9.083 12.4 17.113 20.387 22.13ZM70.502 96.715V363.6l-32.26 17.882V114.597l32.26-17.882ZM332.82 551.128l-32.223 17.861L69.505 435.568l32.223-17.861L332.82 551.128ZM38.273 112.464c.357-8.723 3.667-14.623 8.59-17.35l27.62-15.311c-2.487 3.711-3.898 8.73-3.978 14.794l-32.232 17.867ZM334.692 552.205c5.074 2.845 9.928 4.149 14.25 3.992l-27.586 15.292c-4.778 2.649-11.36 2.47-18.854-1.44l32.19-17.844Z"/><path fill="#181734" stroke="#000" stroke-linejoin="round" stroke-width="1.85" d="m53.382 91.499 27.59-15.294c4.778-2.647 11.36-2.467 18.85 1.442L67.633 95.49c-5.074-2.844-9.928-4.149-14.25-3.991ZM355.466 552.581l-27.624 15.312c2.487-3.711 3.898-8.73 3.978-14.794l32.232-17.866c-.356 8.72-3.665 14.619-8.586 17.348ZM300.597 229.989 69.505 96.569l32.223-17.862L332.82 212.128l-32.223 17.861ZM364.084 533.1l-32.261 17.882V284.097l32.261-17.882V533.1ZM364.08 264.102l-32.284 17.895c-.339-9.443-3.719-19.68-8.974-28.782-5.244-9.082-12.399-17.112-20.387-22.129l32.25-17.877c8.02 4.768 15.319 12.799 20.645 22.024 5.322 9.218 8.626 19.545 8.75 28.869Z"/><rect width="339" height="339" fill="#181734" stroke="#000" stroke-width="1.85" rx="35" transform="matrix(.86603 .5 0 1 37.316 79.053)"/><path fill="#2C2A53" fill-rule="evenodd" stroke="#000" stroke-width="1.85" d="M197.11 260.043c-.957-.552-1.732-1.895-1.732-3v-8.227a.054.054 0 0 0-.025-.043.058.058 0 0 1-.025-.042c-.773-13.797-10.397-29.906-22.155-36.694-11.758-6.789-21.381-1.792-22.155 11.112-.001.015-.012.02-.025.013-.014-.008-.025-.002-.025.014v8.227c0 1.105-.775 1.553-1.732 1l-24.914-14.384c-11.446-6.608-20.724-1.251-20.724 11.966v35.309c0 1.649 1.662 3.59 2.923 3.545 3.102-.111 6.642.855 10.4 3.024 12.263 7.081 22.205 24.3 22.205 38.46 0 14.161-9.942 19.901-22.205 12.82-3.758-2.169-7.298-5.291-10.4-8.984-1.261-1.502-2.923-1.479-2.923.17v31.89c0 13.217 9.278 29.288 20.724 35.896l26.333 15.203c1.304.754 2.154-.371 1.7-2.045-.897-3.301-1.387-6.595-1.387-9.739 0-14.161 9.942-19.9 22.205-12.82 12.263 7.08 22.205 24.299 22.205 38.46 0 3.144-.49 5.872-1.387 8.138-.454 1.149.396 3.255 1.701 4.008l26.332 15.203c11.446 6.609 20.724 1.252 20.724-11.965V397.79c0-1.105.776-1.552 1.732-1l7.127 4.114c.013.008.023.002.023-.013 0-.016.012-.022.025-.013.481.314.967.612 1.456.895 12.263 7.08 22.205 1.34 22.205-12.82 0-14.161-9.942-31.38-22.205-38.46a27.524 27.524 0 0 0-1.456-.786.053.053 0 0 1-.025-.042.053.053 0 0 0-.023-.041l-7.127-4.114c-.956-.552-1.732-1.895-1.732-3v-32.187c0-13.216-9.278-29.287-20.724-35.896l-24.914-14.384Z" clip-rule="evenodd"/><path fill="#fff" stroke="#000" stroke-width="1.85" d="M70.843 158.314c5.716 3.3 10.327.522 10.327-6.155 0-6.677-4.61-14.78-10.327-18.08-5.717-3.301-10.328-.522-10.328 6.155 0 6.677 4.611 14.779 10.328 18.08Zm0 37.307c5.716 3.301 10.327.522 10.327-6.155 0-6.677-4.61-14.779-10.327-18.079-5.717-3.301-10.328-.523-10.328 6.154s4.611 14.78 10.328 18.08Zm0 37.308c5.716 3.3 10.327.522 10.327-6.155 0-6.677-4.61-14.779-10.327-18.08-5.717-3.3-10.328-.522-10.328 6.155 0 6.677 4.611 14.779 10.328 18.08Z"/><defs><linearGradient id="b" x1="232.292" x2="690.292" y1="454.168" y2="972.169" gradientUnits="userSpaceOnUse"><stop stop-color="#3A17CA"/><stop offset="1" stop-color="#3A17CA" stop-opacity="0"/></linearGradient><linearGradient id="d" x1="-84.049" x2="-33.348" y1="36.117" y2="295.023" gradientUnits="userSpaceOnUse"><stop stop-color="#fff"/><stop offset="1" stop-color="#fff" stop-opacity="0"/></linearGradient><linearGradient id="f" x1="-84.049" x2="-33.348" y1="36.117" y2="295.023" gradientUnits="userSpaceOnUse"><stop stop-color="#fff"/><stop offset="1" stop-color="#fff" stop-opacity="0"/></linearGradient><linearGradient id="h" x1="-84.049" x2="-33.348" y1="36.117" y2="295.023" gradientUnits="userSpaceOnUse"><stop stop-color="#fff"/><stop offset="1" stop-color="#fff" stop-opacity="0"/></linearGradient><filter id="a" width="421.634" height="245.431" x="6.561" y="399.641" color-interpolation-filters="sRGB" filterUnits="userSpaceOnUse"><feFlood flood-opacity="0" result="BackgroundImageFix"/><feBlend in="SourceGraphic" in2="BackgroundImageFix" result="shape"/><feGaussianBlur result="effect1_foregroundBlur_1_182" stdDeviation="1"/></filter><filter id="c" width="295.583" height="483.78" x="90.211" y="52.36" color-interpolation-filters="sRGB" filterUnits="userSpaceOnUse"><feFlood flood-opacity="0" result="BackgroundImageFix"/><feBlend in="SourceGraphic" in2="BackgroundImageFix" result="shape"/><feGaussianBlur result="effect1_foregroundBlur_1_182" stdDeviation=".5"/></filter><filter id="e" width="295.583" height="483.78" x="110.211" y="32.36" color-interpolation-filters="sRGB" filterUnits="userSpaceOnUse"><feFlood flood-opacity="0" result="BackgroundImageFix"/><feBlend in="SourceGraphic" in2="BackgroundImageFix" result="shape"/><feGaussianBlur result="effect1_foregroundBlur_1_182" stdDeviation=".5"/></filter><filter id="g" width="295.583" height="483.78" x="130.211" y="12.36" color-interpolation-filters="sRGB" filterUnits="userSpaceOnUse"><feFlood flood-opacity="0" result="BackgroundImageFix"/><feBlend in="SourceGraphic" in2="BackgroundImageFix" result="shape"/><feGaussianBlur result="effect1_foregroundBlur_1_182" stdDeviation=".5"/></filter></defs></svg>