<svg xmlns="http://www.w3.org/2000/svg" width="497" height="653" fill="none"><g clip-path="url(#a)"><g filter="url(#b)" opacity=".2"><path fill="url(#c)" d="M13.376 428.832c-5.573 2.934-5.728 10.859-.273 14.008l351.572 202.957a19.998 19.998 0 0 0 19.537.258l38.339-20.802c5.511-2.99 5.597-10.87.152-13.979L69.627 409.677a19.999 19.999 0 0 0-19.233-.33l-37.018 19.485Z"/></g><g filter="url(#d)" opacity=".05"><path fill="url(#e)" d="M424.125 238.629 91.358 46.506c-17.218-9.941-31.176-1.882-31.176 18V314.12c0 19.882 13.958 44.059 31.177 54l332.766 192.123c17.219 9.941 31.177 1.882 31.177-18V292.629c0-19.882-13.958-44.059-31.177-54Z"/></g><g filter="url(#f)" opacity=".05"><path fill="url(#g)" d="M444.125 218.628 111.359 26.505c-17.219-9.941-31.177-1.882-31.177 18v249.614c0 19.882 13.958 44.059 31.177 54l332.766 192.123c17.219 9.941 31.177 1.882 31.177-18V272.628c0-19.882-13.958-44.059-31.177-54Z"/></g><g filter="url(#h)" opacity=".05"><path fill="url(#i)" d="M464.126 198.629 131.359 6.506c-17.218-9.941-31.177-1.882-31.177 18V274.12c0 19.882 13.958 44.059 31.177 54l332.767 192.123c17.218 9.941 31.177 1.882 31.177-18V252.629c0-19.882-13.959-44.059-31.177-54Z"/></g><path fill="#181734" fill-rule="evenodd" d="m43.5 404.777 323.343 186.684c10.67 6.16 20.357 6.894 27.493 3.107a18.56 18.56 0 0 0 1.184-.685l29.004-16.771c6.612-4.372 10.657-13.026 10.657-25.106V320.945c0-25.325-17.78-56.12-39.712-68.783l-80.836-46.668-80.836-46.667-80.836-46.668-80.836-46.667-.02-.012c-10.747-6.198-20.495-6.89-27.64-3.005L16.02 78.892c-.405.215-.8.443-1.188.686C7.99 83.866 3.787 92.62 3.787 104.935v231.059c0 25.325 17.78 56.121 39.712 68.783Zm95.148-284.359-7.156 4.13 161.671 93.339 7.157-4.131 7.156-4.131-161.671-93.336-7.157 4.129Z" clip-rule="evenodd"/><path fill="#181734" d="m131.492 124.548 7.156-4.13 7.157-4.129 161.671 93.336-7.156 4.131-7.157 4.131-161.671-93.339Z"/><path stroke="#000" stroke-width="1.85" d="M406.555 568.533V337.472m0 231.061 28.626-16.527m-28.626 16.527c0 3.928-.428 7.494-1.232 10.668-1.717 6.772-5.149 11.761-9.803 14.682m-28.677-325.195c21.932 12.663 39.712 43.459 39.712 68.784m-39.712-68.784 28.626-16.526m-28.626 16.526-80.836-46.67-80.836-46.67-80.836-46.671L43.5 82.007c-10.664-6.156-20.345-6.893-27.48-3.115m390.535 258.58 28.626-16.527m0 231.061V320.945m0 231.061c0 12.08-4.045 20.733-10.657 25.106l-29.004 16.771m39.661-272.938c0-25.325-17.78-56.12-39.712-68.783m0 0-80.836-46.668-80.836-46.667-80.836-46.668-80.836-46.667M43.5 81.995 72.105 65.48m.022-.013-.022.013m.022.012-.022-.012m.022.012-.022-.012M14.833 79.578C7.99 83.866 3.787 92.62 3.787 104.935v231.059c0 25.325 17.78 56.121 39.712 68.783l323.344 186.684c10.67 6.16 20.357 6.894 27.493 3.107M14.833 79.578c.387-.243.784-.472 1.188-.686m-1.188.686 1.188-.686m378.315 515.676a18.56 18.56 0 0 0 1.184-.685m-1.184.685 1.184-.685M16.02 78.893l28.444-16.418c7.146-3.886 16.894-3.193 27.64 3.005M300.32 213.756l-7.157 4.131-161.671-93.339 7.156-4.13 7.157-4.129 161.671 93.336-7.156 4.131Z"/><path fill="#2C2A53" stroke="#000" stroke-width="1.85" d="m369.652 301.496-86.671-50.04c-3.751-2.165-6.792-.41-6.792 3.922v100.079c0 4.331 3.041 9.598 6.792 11.763l86.671 50.04c3.751 2.166 6.791.41 6.791-3.921V313.26c0-4.332-3.04-9.598-6.791-11.764ZM305.345 477.072l-16.529 9.543c-16.197-30.847-16.197-62.97 0-75.114l16.529 28.628c-7.214 6.707-7.214 21.908 0 36.943Zm36.928 27.02 16.529 28.628c-18.616 7.955-46.435-8.107-65.051-37.557l16.529-9.543c9.414 13.765 22.579 21.365 31.993 18.472Zm4.935-39.793 16.529-9.542c16.197 30.847 16.197 62.969 0 75.114l-16.529-28.629c7.213-6.706 7.213-21.907 0-36.943ZM310.28 437.28l-16.529-28.628c18.616-7.955 46.435 8.106 65.051 37.557l-16.529 9.543c-9.414-13.765-22.579-21.366-31.993-18.472Zm29.688 25.501a47.647 47.647 0 0 1 1.705 3.233c5.288 11.035 5.288 22.193 0 27.123a9.389 9.389 0 0 1-3.652 2.109c-6.913 2.114-16.576-3.465-23.489-13.562a48.12 48.12 0 0 1-3.653-6.326c-5.287-11.035-5.287-22.193 0-27.123a9.338 9.338 0 0 1 3.653-2.109c6.913-2.114 16.576 3.465 23.489 13.562.677.988 1.327 2.02 1.947 3.093Z"/><path fill="#F7F6FF" d="M80.477 168.322c-2.74-1.582-5.76-4.398-9.062-8.447v-4.634c3.107 4.211 6.139 7.169 9.095 8.876 1.36.785 2.438 1.121 3.236 1.009.82-.125 1.23-.711 1.23-1.757 0-.947-.377-1.913-1.133-2.897-.755-1.009-1.92-2.192-3.495-3.55-2.826-2.479-4.747-4.311-5.76-5.494-2.245-2.616-3.367-5.245-3.367-7.887 0-2.267.83-3.582 2.492-3.943 1.662-.362 3.711.161 6.15 1.569 2.977 1.719 5.663 4.267 8.058 7.643v4.635c-2.74-3.875-5.426-6.572-8.059-8.092-1.38-.797-2.524-1.158-3.43-1.083-.906.075-1.36.648-1.36 1.719 0 .648.26 1.358.777 2.131.518.747 1.08 1.42 1.683 2.018a96.32 96.32 0 0 0 2.784 2.467 66.203 66.203 0 0 1 3.204 2.933 30.225 30.225 0 0 1 2.621 2.972c.885 1.109 1.543 2.248 1.974 3.42.454 1.183.68 2.41.68 3.681 0 2.367-.787 3.757-2.362 4.168-1.554.424-3.539-.062-5.956-1.457ZM96.588 177.623a14.566 14.566 0 0 1-2.201-1.57 16.548 16.548 0 0 1-2.007-2.093 10.864 10.864 0 0 1-1.586-2.821 9.286 9.286 0 0 1-.615-3.308c-.021-2.031.583-3.215 1.813-3.551 1.23-.362 2.988.118 5.275 1.438l5.211 3.009v-1.197c0-1.096-.389-2.142-1.165-3.139-.777-1.022-1.78-1.888-3.01-2.598-2.352-1.357-3.722-1.251-4.11.319l-3.56-1.981c.043-1.944.787-3.071 2.233-3.383 1.467-.299 3.258.162 5.372 1.382 2.136 1.234 3.959 2.884 5.47 4.952 1.532 2.081 2.297 4.068 2.297 5.962v13.717l-3.527-2.036v-2.99c-.497.51-1.252.822-2.266.934-.992.125-2.2-.224-3.624-1.046Zm.29-3.383c1.425.822 2.709 1.003 3.852.542 1.165-.449 1.748-1.433 1.748-2.953l-4.564-2.635c-1.402-.81-2.448-1.102-3.139-.878-.669.212-.96.804-.874 1.776.065.884.389 1.694.971 2.429a7.321 7.321 0 0 0 2.007 1.719ZM108.853 184.405l-.065-16.147v-4.373c0-2.367.841-3.663 2.524-3.888 1.683-.224 3.906.86 6.667 3.252l-.032 3.27c-1.791-1.582-3.15-2.367-4.078-2.354-.906 0-1.359.635-1.359 1.906v.636l5.308 3.064v3.7l-5.308-3.064.032 16.128-3.689-2.13ZM127.603 195.53c-2.46-1.42-4.542-3.619-6.247-6.597-1.704-3.002-2.556-5.911-2.556-8.727 0-2.841.863-4.747 2.589-5.719 1.726-.997 3.797-.798 6.214.597 2.136 1.233 4.013 3.127 5.631 5.681 1.64 2.542 2.643 5.127 3.01 7.756.216 1.295.227 2.423.032 3.382l-13.787-7.96c.216 1.595.799 3.102 1.748 4.523.949 1.395 2.071 2.466 3.366 3.214 1.985 1.146 3.571 1.252 4.757.317l3.339 1.928s-.386 2.396-3.339 2.931c-1.51.075-3.096-.367-4.757-1.326Zm-5.114-14.913 10.13 5.848c-.215-1.445-.787-2.884-1.715-4.317-.906-1.42-2.017-2.51-3.334-3.27-1.316-.76-2.438-.947-3.365-.56-.928.361-1.5 1.127-1.716 2.299ZM163.304 216.142a14.598 14.598 0 0 1-2.201-1.57 16.555 16.555 0 0 1-2.007-2.093 10.88 10.88 0 0 1-1.586-2.822 9.28 9.28 0 0 1-.615-3.308c-.021-2.031.583-3.214 1.813-3.551 1.23-.361 2.988.118 5.275 1.439l5.211 3.008v-1.196c0-1.096-.388-2.143-1.165-3.14-.777-1.021-1.78-1.887-3.01-2.597-2.352-1.358-3.722-1.252-4.11.318l-3.56-1.981c.043-1.943.787-3.071 2.233-3.382 1.467-.3 3.258.161 5.372 1.382 2.136 1.233 3.959 2.884 5.47 4.952 1.532 2.081 2.298 4.068 2.298 5.962v13.717l-3.528-2.037v-2.99c-.496.511-1.252.823-2.266.935-.992.124-2.2-.224-3.624-1.046Zm.291-3.383c1.424.822 2.708 1.003 3.851.541 1.165-.448 1.748-1.433 1.748-2.953l-4.563-2.634c-1.403-.81-2.449-1.103-3.14-.878-.669.212-.96.803-.874 1.775.065.885.389 1.695.971 2.43a7.333 7.333 0 0 0 2.007 1.719ZM175.424 222.84v-25.828l3.722 2.149v25.828l-3.722-2.149Z"/><path fill="#F7F6FF" fill-rule="evenodd" d="m138.44 175.659 9.838 5.681c2.18 1.258 3.992 3.164 5.438 5.718 1.445 2.529 2.168 5.002 2.168 7.419 0 2.442-.723 4.081-2.168 4.916-1.424.822-3.237.61-5.438-.635l-5.987-3.42v8.373l-3.851-2.224v-25.828Zm9.579 18.95-5.728-3.27v-9.419l5.728 3.27a7.999 7.999 0 0 1 3.01 3.046c.756 1.308 1.133 2.622 1.133 3.943 0 1.346-.377 2.274-1.133 2.785-.755.486-1.758.367-3.01-.355Z" clip-rule="evenodd"/><path fill="#F7F6FF" d="M39.495 111.208c-1.046-.604-2.05-.704-2.79-.276l-11.623 6.711c-.44.254-.66.793-.66 1.459s.22 1.46.66 2.222l7.617 13.193v-15.571c0-1.162.81-1.636 1.816-1.055l16.012 9.244 8.278-4.779-19.31-11.148ZM32.7 137.429l16.006 9.241c1.006.581 1.822.11 1.822-1.052v-15.571l7.617 13.193c.44.762.66 1.556.66 2.222 0 .666-.22 1.205-.66 1.46l-11.623 6.71c-.74.428-1.744.328-2.79-.276l-19.31-11.148 8.278-4.779Z"/><path fill="#000" d="m131.49 124.548 7.157-4.13 7.156-4.129 161.672 93.336-7.157 4.131-7.156 4.131-161.672-93.339Z"/><mask id="j" width="163" height="181" x="153" y="48" maskUnits="userSpaceOnUse" style="mask-type:alpha"><path fill="#000" d="M153.793 135.265v-86.35l162.19 72.083v107.376l-162.19-93.109Z"/></mask><g mask="url(#j)"><path fill="#fff" stroke="#0D0B33" stroke-width="1.727" d="M213.267 200.367C186.61 184.507 165 146.506 165 115.487c0-31.018 21.61-43.306 48.267-27.447 26.657 15.859 48.267 53.861 48.267 84.879 0 31.018-21.61 43.307-48.267 27.448Z"/><path fill="#000" fill-rule="evenodd" d="M237.351 151.936c1.006-7.196-4.122-14.337-11.133-21.173l2.274-9.222-5.555-4.805-2.214 8.979a411.643 411.643 0 0 0-4.448-3.777l2.231-9.037-5.55-4.802-2.276 9.216a322.109 322.109 0 0 1-3.547-3.01l.007-.029-7.659-6.629-1.477 5.996s4.12 3.469 4.033 3.486c2.249 1.947 2.658 3.901 2.588 5.223l-2.591 10.505c.155.136.356.317.578.547l-.586-.506-3.633 14.714c-.275.63-.972 1.411-2.545.054.056.125-4.036-3.494-4.036-3.494l-2.757 5.751 7.228 6.253c.816.707 1.622 1.415 2.419 2.116h.001l.002.002c.515.453 1.027.902 1.536 1.347l-2.299 9.329 5.547 4.801 2.278-9.227a373.448 373.448 0 0 0 4.424 3.88l-2.268 9.183 5.553 4.804 2.298-9.308c9.469 7.537 16.592 10.814 19.586 2.655 2.415-6.568-.119-12.625-5.101-18.498 3.628 1.125 6.361-.053 7.09-5.325l.002.001Zm-28.705 6.874-.001-.001c-.405-.357-.767-.677-1.077-.945l3.05-12.355c.378.328.84.714 1.364 1.152 4.686 3.92 14.29 11.953 12.681 18.494l-.002-.001c-1.576 6.398-11.485-2.346-16.015-6.344Zm4.278-18.155c3.78 3.346 12.018 10.641 13.453 4.831 1.468-5.945-6.544-12.618-10.456-15.876-.44-.367-.828-.69-1.145-.964l-2.765 11.206c.262.227.569.498.913.803Z" clip-rule="evenodd"/><path fill="#79EFBD" stroke="#0D0B33" stroke-width="1.727" d="M213.267 88.04c-13.184-7.843-25.133-8.802-33.844-4.015l9.58-5.448c18.85-10.719 49.411 7.463 68.26 40.61 18.85 33.148 18.85 68.709 0 79.427l-9.214 5.24.002-.019c8.349-5.129 13.483-15.798 13.483-30.916 0-31.018-21.61-69.02-48.267-84.879Z"/><path fill="#0D0B33" d="m261.225 166.337 9.867-5.473c-.139-5.28-.739-9.092-2.775-17.304l-10.413 5.791c1.672 5.71 2.808 11.423 3.321 16.986ZM253.434 136.947l9.656-5.65c-10.321-22.142-18.208-32.56-36.56-46.995l-10.019 5.792c15.404 10.354 28.832 27.941 36.923 46.853Z"/></g></g><defs><linearGradient id="c" x1="232.833" x2="690.833" y1="459.572" y2="977.572" gradientUnits="userSpaceOnUse"><stop stop-color="#3A17CA"/><stop offset="1" stop-color="#3A17CA" stop-opacity="0"/></linearGradient><linearGradient id="e" x1="-37.781" x2="-128.528" y1="6.212" y2="223.331" gradientUnits="userSpaceOnUse"><stop stop-color="#fff"/><stop offset="1" stop-color="#fff" stop-opacity="0"/></linearGradient><linearGradient id="g" x1="-17.781" x2="-108.528" y1="-13.789" y2="203.33" gradientUnits="userSpaceOnUse"><stop stop-color="#fff"/><stop offset="1" stop-color="#fff" stop-opacity="0"/></linearGradient><linearGradient id="i" x1="2.219" x2="-88.527" y1="-33.788" y2="183.331" gradientUnits="userSpaceOnUse"><stop stop-color="#fff"/><stop offset="1" stop-color="#fff" stop-opacity="0"/></linearGradient><filter id="b" width="421.634" height="245.432" x="7.103" y="405.045" color-interpolation-filters="sRGB" filterUnits="userSpaceOnUse"><feFlood flood-opacity="0" result="BackgroundImageFix"/><feBlend in="SourceGraphic" in2="BackgroundImageFix" result="shape"/><feGaussianBlur result="effect1_foregroundBlur_6297_91967" stdDeviation="1"/></filter><filter id="d" width="397.121" height="524.253" x="59.182" y="41.248" color-interpolation-filters="sRGB" filterUnits="userSpaceOnUse"><feFlood flood-opacity="0" result="BackgroundImageFix"/><feBlend in="SourceGraphic" in2="BackgroundImageFix" result="shape"/><feGaussianBlur result="effect1_foregroundBlur_6297_91967" stdDeviation=".5"/></filter><filter id="f" width="397.121" height="524.253" x="79.182" y="21.247" color-interpolation-filters="sRGB" filterUnits="userSpaceOnUse"><feFlood flood-opacity="0" result="BackgroundImageFix"/><feBlend in="SourceGraphic" in2="BackgroundImageFix" result="shape"/><feGaussianBlur result="effect1_foregroundBlur_6297_91967" stdDeviation=".5"/></filter><filter id="h" width="397.121" height="524.253" x="99.182" y="1.248" color-interpolation-filters="sRGB" filterUnits="userSpaceOnUse"><feFlood flood-opacity="0" result="BackgroundImageFix"/><feBlend in="SourceGraphic" in2="BackgroundImageFix" result="shape"/><feGaussianBlur result="effect1_foregroundBlur_6297_91967" stdDeviation=".5"/></filter><clipPath id="a"><path fill="#fff" d="M0 .5h497v652H0z"/></clipPath></defs></svg>