<svg xmlns="http://www.w3.org/2000/svg" width="348" height="872" fill="none"><path fill="#0D0B33" fill-opacity=".1" d="M4.757 717.959c-4.907 2.672-5.033 9.671-.226 12.519L238.2 868.893a17.999 17.999 0 0 0 17.973.216l35.154-19.697c4.857-2.721 4.919-9.691.111-12.499L56.454 699.701a18.002 18.002 0 0 0-17.686-.264L4.757 717.959Z"/><g filter="url(#a)" opacity=".1"><path fill="url(#b)" d="M54.785 53.306c0-10.992 7.717-15.448 17.237-9.952l217.612 125.638c9.519 5.496 17.236 18.863 17.236 29.855v590.127c0 10.992-7.717 15.447-17.236 9.951L72.022 673.287c-9.52-5.496-17.237-18.862-17.237-29.855V53.306Z"/></g><g filter="url(#c)" opacity=".1"><path fill="url(#d)" d="M74.785 33.306c0-10.992 7.717-15.448 17.237-9.952l217.612 125.638c9.519 5.496 17.236 18.863 17.236 29.855v590.127c0 10.992-7.717 15.447-17.236 9.951L92.022 653.287c-9.52-5.496-17.237-18.862-17.237-29.855V33.306Z"/></g><g filter="url(#e)" opacity=".1"><path fill="url(#f)" d="M94.785 13.306c0-10.993 7.717-15.448 17.237-9.952l217.612 125.638c9.519 5.496 17.236 18.863 17.236 29.855v590.127c0 10.992-7.717 15.447-17.236 9.951L112.022 633.287c-9.52-5.496-17.237-18.862-17.237-29.855V13.306Z"/></g><path fill="#F7F6FF" stroke="#0D0B33" stroke-width="1.852" d="M1 92.84c0-10.991 7.717-15.447 17.237-9.95l217.611 125.638c9.52 5.496 17.237 18.862 17.237 29.854v570.127c0 10.992-7.717 15.448-17.237 9.951L18.237 692.822C8.717 687.326 1 673.96 1 662.968V92.841Z"/><g clip-path="url(#g)"><path fill="#fff" d="M14.026 111.335c0-5.523 3.878-7.761 8.66-5l208.713 120.5c4.783 2.761 8.66 9.477 8.66 15v549.906c0 5.523-3.877 7.762-8.66 5l-206.114-119c-6.218-3.59-11.259-12.32-11.259-19.5V111.335Z"/><g stroke="#0D0B33" stroke-linecap="round" stroke-linejoin="round" stroke-width=".87" clip-path="url(#h)"><path d="m225.894 265.243 2.26 1.305v2.61M220.469 273.595l-2.26-1.305v-2.61M228.154 275.422v2.61l-2.26-1.305M218.209 263.416v-2.61l2.26 1.305M220.168 267.679l6.028 3.48"/></g><path fill="#0D0B33" d="M92.263 199.38c.488.445 1.377 1.109 2.202 1.585 1.985 1.146 2.853.796 2.853-.946-.032-1.735-.39-2.43-2.202-4.015-1.161-.996-1.324-1.278-1.324-1.904 0-.765.358-.796 1.27-.27.303.176.64.408 1.009.683.369.276.65.501.857.708v-1.478c-.423-.433-1.14-.971-1.92-1.422-1.79-1.034-2.713-.802-2.713.952.033 1.61.434 2.255 2.083 3.696 1.204 1.046 1.421 1.371 1.421 2.136 0 .814-.358.908-1.388.313-.749-.432-1.66-1.121-2.148-1.604v1.566Zm11.491 2.112c0-1.453-.716-2.593-2.582-3.67-.488-.282-.966-.52-1.41-.702v1.441c.423.156.835.344 1.247.582 1.052.608 1.291 1.071 1.291 1.911v.238l-1.519-.877c-1.595-.921-2.387-.777-2.387.764 0 1.366.673 2.443 2.008 3.214.911.526 1.638.545 1.909.15l.141.908 1.302.752v-4.711Zm-3.016 1.792c-.619-.357-.9-.771-.9-1.322 0-.739.292-.758 1.149-.263l1.313.758v.839c-.228.42-.814.42-1.562-.012Zm6.414-1.884c0-1.278.163-1.473.955-1.015.141.081.314.194.499.338v-1.228a7.754 7.754 0 0 0-.673-.451c-1.486-.833-2.213-.814-2.246 1.447v.063l-.911-.526v1.328l.911.526v5.437l1.465.846v-5.438l1.183.683v-1.328l-1.183-.682Zm7.027 7.79c.032-.345.054-.633.054-.883 0-.94-.174-1.754-.532-2.475-.358-.72-1.009-1.359-1.953-1.904-1.866-1.077-2.842-.802-2.842 1.867 0 2.668.976 4.071 2.832 5.142.922.533 1.811.834 2.191.802v-1.353c-.206.006-.499-.05-.868-.163a5.928 5.928 0 0 1-1.063-.476c-1.096-.632-1.584-1.39-1.627-2.48l3.808 1.923Zm-3.808-3.101c.043-1.165.379-1.459 1.377-.883.901.52 1.14 1.171 1.14 2.111l-2.517-1.228Zm10.632 4.297c0-2.105-.705-3.326-2.929-4.61l-2.485-1.435v8.695l1.53.883v-2.756l.955.551c2.104 1.215 2.929.89 2.929-1.328Zm-3.884-.639v-3.107l.759.439c1.161.67 1.563 1.29 1.563 2.443 0 1.227-.38 1.346-1.563.664l-.759-.439Zm9.595 5.001c0-1.453-.716-2.593-2.582-3.67-.488-.282-.966-.52-1.411-.702v1.441c.423.156.836.344 1.248.582 1.052.608 1.291 1.071 1.291 1.911v.238l-1.519-.877c-1.595-.921-2.387-.777-2.387.764 0 1.366.673 2.443 2.007 3.213.912.527 1.639.545 1.91.151l.141.908 1.302.752v-4.711Zm-3.016 1.792c-.619-.357-.901-.771-.901-1.322 0-.739.293-.758 1.15-.263l1.313.758v.839c-.228.42-.814.42-1.562-.012Zm4.689 2.256c0 1.203.434 1.954 1.638 2.65.239.137.456.238.662.307v-1.316a1.326 1.326 0 0 1-.336-.144c-.38-.219-.499-.451-.499-1.052v-7.492l-1.465-.846v7.893Zm5.963.549v1.353l3.309 1.91v-1.353l-3.309-1.91Zm11.189 7.437c-.13 1.365-1.161 1.56-2.821.601v1.453c1.541.89 2.636 1.072 3.298.564.662-.52.998-1.666.998-3.445 0-2.393-.889-4.109-2.68-5.143-1.746-1.008-2.636-.332-2.636 1.522 0 1.817.846 3.258 2.376 4.141.597.344 1.118.42 1.421.282l.044.025Zm-1.237-1.416c-.781-.451-1.259-1.253-1.259-2.255 0-1.065.467-1.422 1.324-.927.825.476 1.259 1.403 1.259 2.506 0 .964-.445 1.184-1.324.676Zm10.274 1.484-1.519-.877v3.308l-3.103-1.792v-3.307l-1.53-.883v8.694l1.53.883v-3.909l3.103 1.792v3.909l1.519.877v-8.695Zm5.137 4.407-2.929 5.563 1.53.883 2.777-5.437v-1.654l-5.056-2.919v1.441l3.678 2.123Z"/><g clip-path="url(#i)"><path stroke="#71708A" stroke-linecap="round" stroke-linejoin="round" stroke-width=".87" d="m167.444 237.238 2.411 4.176 2.411-1.392"/></g><g stroke="#0D0B33" stroke-linecap="round" stroke-linejoin="round" stroke-width=".87" clip-path="url(#j)"><path d="M36.328 164.323v-5.568c0-.244-.056-.516-.162-.789a2.927 2.927 0 0 0-.44-.763l-4.22-5.22a2.239 2.239 0 0 0-.603-.535c-.211-.122-.42-.177-.602-.161l-4.22.348a.587.587 0 0 0-.44.254c-.106.15-.162.358-.162.602v5.568c0 .244.056.516.161.789.106.272.258.535.441.763l4.22 5.22c.183.228.39.412.602.535.212.122.42.177.603.161l4.22-.348a.587.587 0 0 0 .44-.254c.106-.151.162-.358.162-.602Z"/><circle r="2.476" transform="matrix(.86603 .5 0 1 30.904 158.407)"/></g><path fill="#0D0B33" d="M28.91 129.851c1.62.935 2.582.028 2.582-2.455 0-2.436-1.024-4.363-2.547-5.243-1.387-.8-2.367-.29-2.367 1.214 0 1.412.883 2.951 2.097 3.652.746.431 1.351.382 1.651-.143l.075.044c-.013 1.72-.547 2.401-1.479 1.863a2.442 2.442 0 0 1-1.12-1.555l-1.136-.655c.186 1.305 1.078 2.605 2.243 3.278Zm.039-3.688c-.742-.429-1.254-1.326-1.254-2.192 0-.831.539-1.157 1.258-.742.72.415 1.259 1.374 1.259 2.22 0 .836-.526 1.139-1.263.714Zm4.443 1.336c.42.243.707.072.707-.382s-.287-.956-.707-1.198c-.415-.239-.706-.071-.706.383 0 .453.291.958.706 1.197Zm0 3.742c.42.242.707.066.707-.382 0-.454-.287-.956-.707-1.198-.415-.24-.706-.071-.706.382 0 .449.291.959.706 1.198Zm5.009 3.911 1.09.63v-1.412l.86.497v-1.086l-.86-.497v-4.858l-1.607-.928a46.735 46.735 0 0 0-2.596 3.37v1.075l3.113 1.797v1.412Zm-2.058-3.731c.623-.89 1.36-1.825 2.013-2.6l.062.036v3.838l-2.075-1.198v-.076Zm6.518 6.307 1.14.657v-7.356l-1.135-.655-1.664.39v1.239l1.584-.38.075.044v6.061Z"/><path fill="#0D0B33" fill-rule="evenodd" d="m218.714 231.457 8.934 5.158c.752.434 1.025.682 1.3 1.011.275.328.491.702.638 1.105.147.402.225.763.225 1.631v3.008c0 .868-.078 1.138-.225 1.371a.754.754 0 0 1-.638.368c-.275.011-.548-.056-1.3-.49l-8.934-5.158c-.752-.434-1.025-.682-1.3-1.011a3.686 3.686 0 0 1-.638-1.105c-.147-.402-.225-.763-.225-1.631v-3.008c0-.868.078-1.138.225-1.371a.754.754 0 0 1 .638-.368c.275-.011.548.056 1.3.49Zm0 .696c-.594-.343-.802-.417-1.015-.408a.456.456 0 0 0-.391.225c-.114.181-.154.397-.154 1.084v3.008c0 .687.04.95.154 1.262.091.249.221.473.391.677.213.254.421.421 1.015.764l8.934 5.158c.595.343.803.417 1.016.408.17-.006.3-.081.391-.225.114-.181.154-.397.154-1.084v-3.008c0-.687-.04-.95-.154-1.262a2.258 2.258 0 0 0-.391-.677c-.213-.254-.421-.421-1.016-.764l-8.934-5.158Zm12.605 10.541c0 .861-.904.87-.904.87v-2.784s.904 1.054.904 1.914Z" clip-rule="evenodd"/><rect width="12.528" height="5.336" fill="#0D0B33" rx="1.114" transform="matrix(.86603 .5 0 1 217.757 232.237)"/><path fill="#0D0B33" fill-rule="evenodd" d="M199.447 221.311c-.014.072-.014.169-.014.363v5.36c0 .194 0 .291.014.379.057.365.282.753.569.985.069.056.153.105.322.202.168.097.252.145.321.169.287.1.512-.029.569-.328.014-.072.014-.169.014-.363v-5.36c0-.194 0-.291-.014-.379a1.673 1.673 0 0 0-.569-.985 2.547 2.547 0 0 0-.321-.202 2.276 2.276 0 0 0-.322-.169c-.287-.1-.512.029-.569.328Zm-2.847.398c0-.194 0-.291.014-.364.057-.298.282-.427.569-.328.07.025.154.073.322.17.168.097.252.146.322.202.286.232.511.62.568.984.014.089.014.186.014.38v3.689c0 .194 0 .291-.014.364-.057.298-.282.427-.568.328a2.319 2.319 0 0 1-.322-.17 2.661 2.661 0 0 1-.322-.202 1.674 1.674 0 0 1-.569-.984c-.014-.089-.014-.186-.014-.38v-3.689Zm-2.758-.364c-.014.073-.014.17-.014.364v2.088c0 .194 0 .291.014.38.057.364.281.753.568.984.07.057.154.105.322.202.168.097.252.146.322.17.287.1.511-.03.568-.328.014-.073.014-.17.014-.364v-2.088c0-.194 0-.291-.014-.38a1.672 1.672 0 0 0-.568-.984 2.661 2.661 0 0 0-.322-.202 2.319 2.319 0 0 0-.322-.17c-.287-.099-.511.03-.568.328Zm-2.894-.278c-.013.073-.013.17-.013.364v.696c0 .194 0 .291.013.38.058.364.282.753.569.984.07.057.154.105.322.202.168.097.252.146.322.17.287.1.511-.03.568-.328.014-.073.014-.17.014-.364v-.696c0-.194 0-.291-.014-.38a1.672 1.672 0 0 0-.568-.984 2.661 2.661 0 0 0-.322-.202 2.319 2.319 0 0 0-.322-.17c-.287-.099-.511.03-.569.328ZM208.897 227.553c1.347.778 2.642 2.123 3.618 3.759.074.125.191.191.264.149l.702-.413c.037-.021.058-.067.057-.128a.4.4 0 0 0-.058-.193c-2.562-4.314-6.604-6.647-9.166-5.292-.037.021-.058.066-.058.126s.02.13.057.193l.702 1.225c.073.126.19.195.264.154.976-.508 2.271-.357 3.618.42Zm.001 2.664c.74.428 1.453 1.157 2.002 2.047.074.125.191.19.263.148l.702-.413c.037-.022.057-.068.057-.129a.408.408 0 0 0-.06-.195c-1.67-2.758-4.257-4.252-5.927-3.422-.038.02-.06.066-.06.126-.001.06.02.13.057.195l.702 1.223c.072.126.189.195.263.156.548-.256 1.261-.162 2.001.264Zm1.348 2.733c.037-.021.058-.067.057-.129a.4.4 0 0 0-.063-.195c-.775-1.205-1.911-1.86-2.686-1.551-.039.019-.062.063-.063.123-.001.06.02.13.057.195l1.214 2.115a.398.398 0 0 0 .135.143c.051.029.099.034.135.013l1.214-.714Z" clip-rule="evenodd"/><path fill="#0D0B33" d="M48.413 201.168c.03 3.179 1.138 4.621 3.202 5.824.617.356 1.206.562 1.63.618v-1.347c-.482-.078-1.003-.279-1.572-.607-1.273-.735-1.803-1.587-1.803-3.658 0-1.96.55-2.3 1.832-1.56.53.307 1.022.68 1.466 1.114v-1.37a7.773 7.773 0 0 0-1.543-1.136c-1.042-.601-1.842-.751-2.392-.456-.55.295-.82 1.152-.82 2.578Zm5.676 4.134c0 2.372.868 3.62 2.517 4.572 1.66.958 2.527.713 2.527-1.659s-.868-3.62-2.527-4.577c-1.649-.952-2.517-.707-2.517 1.664Zm2.517 3.425c-.896-.518-1.186-1.13-1.186-2.656 0-1.515.26-1.832 1.186-1.297.907.523 1.196 1.158 1.196 2.672 0 1.537-.26 1.821-1.196 1.281Zm3.628-4.565c0 .701.116.868.723 1.219.608.351.733.323.733-.378 0-.724-.115-.858-.733-1.214-.617-.357-.723-.351-.723.373Zm.077 7.739 1.292.746v-6.013l-1.292-.746v6.013Zm7.418.163c0-1.348-.472-2.277-1.736-3.007-.761-.44-1.35-.501-1.63-.083v-.746l-1.301-.752v6.013l1.302.752v-3.998c.183-.551.55-.573 1.195-.2.685.395.868.802.868 1.681v3.709l1.302.751v-4.12Z"/><path fill="#4A21EF" d="M23.67 203.883c0-1.538 1.08-2.161 2.412-1.392l64.093 37.004c1.331.768 2.41 2.638 2.41 4.176l-68.914-39.788Z"/><path fill="#71708A" d="M117.938 237.444v7.728l1.929 1.114c1.919 1.108 3.231.985 3.231-1.999 0-3.218-1.312-4.622-3.231-5.73l-1.929-1.113Zm.868 7.35v-5.98l1.042.601c1.35.779 2.353 1.893 2.353 4.354 0 2.328-.955 2.433-2.353 1.626l-1.042-.601Zm10.003 3.047c0-1.17-.309-2.695-2.083-3.72-1.495-.863-2.363-.64-2.363 1.754s.868 3.619 2.411 4.51c.752.434 1.437.652 1.755.657v-.88c-.395-.005-1.051-.217-1.629-.551-1.254-.724-1.669-1.576-1.669-2.879l3.53 1.782a6.75 6.75 0 0 0 .048-.673Zm-3.578-1.821c.029-1.208.299-1.799 1.495-1.108 1.128.651 1.263 1.531 1.263 2.466l-2.758-1.358Zm8.748 1.576v-.891l-3.722-2.149v7.728l.868.502v-3.441l2.662 1.536v-.891l-2.662-1.536v-2.506l2.854 1.648Zm1.778.748c.347.201.492.206.492-.284 0-.501-.145-.651-.492-.852-.376-.217-.501-.222-.501.279 0 .49.125.64.501.857Zm-.424 6.871.829.479v-6.013l-.829-.479v6.013Z"/><path stroke="#3A3C40" stroke-width=".696" d="M0-.348h79.576" transform="matrix(.86603 .5 0 1 92.586 244.131)"/><path fill="#71708A" d="m188.2 285.738.849.49v-6.804l.057.033 3.279 8.697 1.148.663v-7.728l-.868-.502v6.415l-.058-.034-3.047-8.173-1.36-.786v7.729Zm10.833-.583v-.891l-3.722-2.149v7.728l.867.501v-3.441l2.662 1.537v-.891l-2.662-1.537v-2.505l2.855 1.648Zm5.404 2.229-4.774-2.756v.891l1.958 1.13v6.838l.868.501v-6.838l1.948 1.125v-.891Z"/><path stroke="#3A3C40" stroke-width=".696" d="M0-.348h79.576" transform="matrix(.86603 .5 0 1 161.501 283.919)"/><path fill="#9E9CB1" d="m105.138 278.042 1.591.919c1.331.768 1.707.384 1.707-.669 0-.685-.217-1.311-.897-1.862v-.034c.528.113.731-.204.731-.806 0-1.044-.376-1.753-1.686-2.509l-1.446-.835v5.796Zm.651-2.882v-1.904l.492.284c.962.555 1.352.881 1.352 1.725 0 .768-.39.735-1.352.179l-.492-.284Zm0 2.615v-2.022l.672.389c1.013.584 1.324 1.065 1.324 1.766 0 .835-.296.848-1.324.255l-.672-.388Zm5.375-.848a9.138 9.138 0 0 0-.89-.447v.635c.282.096.6.247.861.397.788.455.962.931.962 1.474v.376l-1.194-.689c-.925-.535-1.548-.526-1.548.543 0 .86.413 1.582 1.346 2.121.593.343 1.164.389 1.396.038l.094.739.528.305v-3.199c0-.81-.318-1.579-1.555-2.293Zm-.405 3.842c-.55-.317-.76-.689-.76-1.19 0-.702.304-.676.948-.305l1.15.664v.744c-.203.417-.68.467-1.338.087Zm4.154 2.966c.173.101.296.155.412.188v-.593a1.251 1.251 0 0 1-.297-.129c-.253-.146-.361-.292-.361-.752v-5.253l-.622-.359v5.437c0 .676.289 1.127.868 1.461Zm2.749-3.056a9.123 9.123 0 0 0-.889-.447v.635c.282.096.6.246.86.397.789.455.962.931.962 1.474v.376l-1.193-.689c-.926-.535-1.548-.526-1.548.543 0 .86.412 1.582 1.345 2.121.593.342 1.165.388 1.396.038l.094.739.528.305v-3.199c0-.81-.318-1.579-1.555-2.293Zm-.405 3.842c-.55-.317-.759-.689-.759-1.19 0-.702.303-.677.947-.305l1.15.664v.743c-.202.418-.68.468-1.338.088Zm5.159-1.097c-.477-.276-1.019-.447-1.251.004v-.643l-.622-.359v4.51l.622.359v-3.048c.21-.673.695-.501 1.186-.217.615.355.745.831.745 1.524v2.856l.63.364v-3.124c0-.86-.29-1.637-1.31-2.226Zm4.175 7.087c.362.209.825.401 1.034.431v-.66c-.282-.029-.651-.184-1.019-.397-.868-.501-1.158-1.052-1.158-2.364 0-1.328.29-1.553 1.15-1.056a4.7 4.7 0 0 1 1.013.785v-.66a5.278 5.278 0 0 0-1.02-.756c-1.157-.668-1.808-.501-1.808 1.295 0 1.796.651 2.714 1.808 3.382Zm5.122.168c0-.877-.232-2.021-1.563-2.79-1.121-.647-1.772-.48-1.772 1.316 0 1.795.651 2.714 1.808 3.382.565.326 1.078.489 1.317.493v-.66c-.297-.004-.789-.163-1.222-.413-.941-.543-1.252-1.182-1.252-2.159l2.647 1.336c.022-.196.037-.38.037-.505Zm-2.684-1.366c.022-.906.224-1.349 1.121-.831.847.489.948 1.149.948 1.85l-2.069-1.019Z"/><path stroke="#71708A" stroke-linecap="round" stroke-linejoin="round" stroke-width=".87" d="M143.612 293.339c-3.767-2.175-5.274.87-5.274.87s1.507 4.785 5.274 6.96c3.767 2.175 5.274-.87 5.274-.87s-1.507-4.785-5.274-6.96Z"/><path stroke="#71708A" stroke-linecap="round" stroke-linejoin="round" stroke-width=".87" d="M143.611 298.995c.833.48 1.507.091 1.507-.87s-.674-2.13-1.507-2.61c-.832-.481-1.507-.091-1.507.87s.675 2.129 1.507 2.61Z"/><path fill="#0D0B33" d="m87.746 301.529 1.953 1.127v-17.389l-1.28-.739-4.406-1.491v1.83l3.733 1.328v15.334Zm11.526 6.905c3.667 2.117 6.011 1.792 6.011-2.318 0-3.708-1.953-6.414-5.447-8.431a12.502 12.502 0 0 0-1.757-.864l.629-4.398 5.555 3.208v-1.955l-7.03-4.059-1.02 8.056c.954.35 2.083.826 2.886 1.29 3.124 1.804 4.318 3.621 4.318 6.226 0 2.857-1.671 2.794-4.166 1.353-1.15-.664-1.953-1.227-3.082-2.204v1.979a22.717 22.717 0 0 0 3.103 2.117Zm12.481 7.206c3.668 2.117 6.011 1.792 6.011-2.317 0-3.709-1.953-6.415-5.446-8.432a12.563 12.563 0 0 0-1.758-.864l.629-4.398 5.555 3.208v-1.955l-7.03-4.059-1.02 8.056c.955.35 2.083.827 2.886 1.29 3.125 1.804 4.318 3.621 4.318 6.226 0 2.857-1.671 2.794-4.166 1.353-1.15-.664-1.953-1.227-3.082-2.204v1.979a22.76 22.76 0 0 0 3.103 2.117Zm13.74 7.933c3.277 1.892 5.143 1.466 5.143-1.867 0-2.731-1.215-4.51-2.669-5.9v-.101c1.475.176 2.17-.601 2.17-2.706 0-2.731-1.411-5.449-4.644-7.316s-4.643-.777-4.643 1.954c0 2.18.889 3.796 2.17 5.212v.1c-1.281-.213-2.669.063-2.669 2.794 0 3.332 1.909 5.963 5.142 7.83Zm0-10.023c-2.256-1.302-2.886-3.044-2.886-4.748 0-1.979.955-2.43 2.886-1.315 1.931 1.115 2.886 2.744 2.886 4.648 0 1.704-.738 2.656-2.886 1.415Zm0 8.194c-2.365-1.366-3.32-3.12-3.32-5.024 0-2.38 1.064-2.819 3.32-1.516 2.257 1.303 3.342 2.982 3.342 5.362 0 1.904-.977 2.543-3.342 1.178Zm9.183 6.88 1.997 1.153 6.184-11.614v-2.205l-9.938-5.738v1.955l8.267 4.773-6.51 11.676Zm9.353 5.551c.977.563 1.389.601 1.389-.802 0-1.328-.412-1.792-1.389-2.356-1.019-.588-1.388-.576-1.388.752 0 1.403.369 1.817 1.388 2.406Zm4.509 2.452 9.916 5.725v-1.904l-7.768-4.485v-.226l.868-.275c4.86-1.679 6.292-2.982 6.292-6.114 0-3.558-1.887-6.076-4.838-7.78-1.281-.739-2.409-1.265-3.429-1.578v1.929c1.194.313 2.257.852 3.212 1.403 1.475.852 3.189 2.418 3.189 4.924 0 2.48-1.041 3.908-7.442 6.001v2.38Zm12.481 7.206 9.916 5.725v-1.904l-7.768-4.485v-.225l.868-.276c4.861-1.679 6.293-2.982 6.293-6.114 0-3.558-1.888-6.076-4.839-7.78-1.28-.739-2.409-1.265-3.429-1.578v1.929c1.194.313 2.257.852 3.212 1.403 1.475.852 3.19 2.418 3.19 4.924 0 2.48-1.042 3.909-7.443 6.001v2.38Z"/><path fill="#9E9CB1" d="M104.993 330.19c0 3.107.878 4.482 2.402 5.362 1.523.88 2.401.518 2.401-2.589 0-3.096-.878-4.482-2.401-5.362-1.515-.874-2.402-.507-2.402 2.589Zm2.402 4.07c-.801-.462-1.09-1.163-1.09-3.313 0-2.138.299-2.511 1.09-2.054.81.467 1.109 1.186 1.109 3.324s-.299 2.511-1.109 2.043Zm3.596 2.388c0 .825.106.997.8 1.398.695.401.81.345.81-.468 0-.824-.115-1.002-.81-1.403-.704-.406-.8-.362-.8.473Zm2.828-.472c0 2.061.791 3.542 2.382 4.46 1.572.908 2.343.351 2.343-1.286 0-1.615-.723-2.89-2.035-3.647-.501-.289-1.012-.395-1.321-.273l-.029-.016c.145-1.175.994-1.454 2.488-.602l.01-1.286c-2.613-1.509-3.838-.434-3.838 2.65Zm2.343 3.247c-.733-.424-1.099-1.17-1.099-2.161 0-.846.395-1.041 1.186-.584.685.395 1.09 1.096 1.09 1.987 0 .936-.415 1.197-1.177.758Zm3.269.929c0 1.436.868 2.661 2.411 3.552 1.552.897 2.42.674 2.42-.751 0-1.125-.453-1.932-1.176-2.628v-.045c.646.061.964-.278.964-1.203 0-1.303-.771-2.516-2.208-3.346-1.437-.83-2.209-.507-2.209.796 0 .924.328 1.626.907 2.283v.045c-.656-.078-1.109.194-1.109 1.297Zm2.411 2.35c-.801-.463-1.206-1.053-1.206-1.777 0-.835.425-1.002 1.206-.551.81.468 1.215 1.114 1.215 1.949 0 .724-.405.846-1.215.379Zm0-3.453c-.733-.423-1.051-1.019-1.051-1.72 0-.702.347-.846 1.051-.44.694.401 1.061.991 1.061 1.659 0 .68-.328.925-1.061.501Zm5.409 1.297v6.359l1.321.763v-7.729l-.964-.556-1.996-.685v1.269l1.639.579Zm10.982 7.042c0-1.425-.549-2.388-2.449-3.485l-2.199-1.27v7.729l2.392 1.381c1.88 1.085 2.459.651 2.459-.808 0-.969-.395-1.798-1.177-2.461v-.044c.695.167.974-.195.974-1.042Zm-3.288 2.489v-2.093l.713.412c1.1.635 1.408 1.069 1.408 1.86 0 .846-.298.874-1.408.233l-.713-.412Zm0-3.24v-1.96l.521.3c1.08.624 1.427.947 1.427 1.793 0 .824-.376.774-1.427.167l-.521-.3Zm8.828 3.248v-1.369l-4.928-2.846v1.37l1.784 1.03v6.359l1.36.785v-6.359l1.784 1.03Zm.572 2.825c.029 3.179 1.138 4.622 3.202 5.824.618.357 1.206.563 1.63.618v-1.347c-.482-.078-1.003-.279-1.572-.607-1.273-.735-1.803-1.587-1.803-3.658 0-1.96.549-2.3 1.832-1.559a7.336 7.336 0 0 1 1.466 1.113v-1.369a7.75 7.75 0 0 0-1.543-1.136c-1.042-.602-1.842-.752-2.392-.457-.549.295-.82 1.153-.82 2.578Z"/><rect width="159.912" height="27.84" fill="#F7F6FF" rx="5.568" transform="matrix(.86603 .5 0 1 23.67 305.807)"/><g stroke="#71708A" stroke-linecap="round" stroke-linejoin="round" stroke-width=".87" clip-path="url(#k)"><path d="M35.123 331.211c2.663 1.538 4.822.291 4.822-2.784 0-3.075-2.16-6.814-4.822-8.352-2.663-1.538-4.822-.291-4.822 2.784 0 3.075 2.159 6.814 4.822 8.352ZM41.15 336.082l-2.622-4.541"/></g><path fill="#9E9CB1" d="M50 338.525c1.36.785 2.077.604 2.077-.721 0-1.335-.465-1.973-1.781-3.103-1.055-.892-1.198-1.199-1.198-1.832 0-.877.388-.838 1.206-.366a7.772 7.772 0 0 1 1.46 1.116v-.799c-.27-.282-.911-.77-1.468-1.091-1.325-.765-1.95-.531-1.95.706 0 1.209.448 1.788 1.638 2.816 1.105.95 1.35 1.296 1.35 2.134 0 .848-.456.877-1.333.37-.684-.394-1.393-.95-1.739-1.305v.809c.279.287 1.021.852 1.739 1.266Zm6.949.757c0-1.023-.27-2.358-1.823-3.254-1.308-.755-2.067-.56-2.067 1.535 0 2.095.76 3.166 2.11 3.946.658.38 1.257.57 1.535.575v-.77c-.346-.005-.92-.19-1.426-.482-1.097-.634-1.46-1.379-1.46-2.519l3.089 1.559c.025-.229.042-.443.042-.59Zm-3.13-1.593c.025-1.057.26-1.573 1.307-.969.988.57 1.106 1.34 1.106 2.158l-2.414-1.189Zm6.194 1.16c-.329-.19-.7-.375-1.038-.521v.741c.33.112.7.287 1.004.462.92.532 1.123 1.087 1.123 1.72v.439l-1.393-.804c-1.08-.624-1.805-.614-1.805.633 0 1.004.48 1.847 1.57 2.475.691.4 1.358.453 1.628.044l.11.862.615.356v-3.732c0-.945-.37-1.841-1.814-2.675Zm-.472 4.483c-.642-.371-.886-.804-.886-1.389 0-.818.354-.789 1.105-.356l1.342.775v.867c-.236.488-.793.546-1.561.103Zm6.01-1.285c-.556-.322-1.156-.492-1.451.214v-.955l-.726-.419v5.262l.726.419v-3.439c.245-.795.835-.678 1.41-.346l.1.058.026-.745-.084-.049Zm2.704 7.017c.422.244.962.468 1.207.502v-.77c-.33-.034-.76-.214-1.19-.462-1.013-.585-1.35-1.228-1.35-2.758 0-1.549.337-1.812 1.341-1.233.473.273.844.575 1.182.916v-.769a6.083 6.083 0 0 0-1.19-.882c-1.35-.78-2.11-.585-2.11 1.51 0 2.095.76 3.167 2.11 3.946Zm4.54-2.835c-.557-.321-1.19-.521-1.46.005v-2.894l-.725-.419v7.406l.725.418v-3.556c.245-.784.81-.585 1.384-.253.726.419.878.974.878 1.783v3.332l.726.419v-3.644c0-1.004-.338-1.91-1.528-2.597Zm7.038 9.52c.422.244.962.468 1.207.502v-.77c-.33-.034-.76-.214-1.19-.463-1.013-.584-1.35-1.228-1.35-2.757 0-1.55.337-1.813 1.341-1.233.473.273.844.575 1.182.916v-.77a6.162 6.162 0 0 0-1.19-.882c-1.35-.779-2.11-.584-2.11 1.511 0 2.095.76 3.167 2.11 3.946Zm4.195 2.422c1.35.779 2.1.58 2.1-1.515 0-2.095-.75-3.162-2.1-3.942-1.35-.779-2.11-.585-2.11 1.51 0 2.095.76 3.167 2.11 3.947Zm0-.712c-.988-.57-1.334-1.247-1.334-2.786 0-1.53.313-1.847 1.334-1.257.995.575 1.333 1.266 1.333 2.796 0 1.54-.296 1.847-1.333 1.247Zm3.748-3.448c.303.175.43.18.43-.249 0-.438-.127-.57-.43-.745-.33-.19-.44-.195-.44.244 0 .428.11.56.44.75Zm-.372 6.012.726.419v-5.262l-.726-.419v5.262Zm4.444-2.794c-.557-.321-1.19-.521-1.46.005v-.75l-.726-.419v5.262l.726.419v-3.557c.245-.784.81-.585 1.384-.253.717.414.87.969.87 1.778v3.332l.733.424v-3.644c0-1.004-.337-1.91-1.527-2.597Z"/><rect width="39.84" height="27.84" fill="#F7F6FF" rx="5.568" transform="matrix(.86603 .5 0 1 166.98 388.547)"/><path fill="#0D0B33" d="m178.956 412.881.802.463-2.211-8.039-1.012-.585-2.22 5.481.777.448.641-1.646 2.591 1.495.632 2.383Zm-2.97-4.512 1.004-2.567.102.058.987 3.718-2.093-1.209Zm5.563 6.067c.203.117.346.18.481.219v-.692a1.431 1.431 0 0 1-.346-.151c-.295-.17-.422-.341-.422-.877v-6.129l-.726-.419v6.344c0 .789.338 1.315 1.013 1.705Zm2.415 1.394c.202.117.346.18.481.219v-.692a1.431 1.431 0 0 1-.346-.151c-.296-.17-.422-.341-.422-.877V408.2l-.726-.419v6.344c0 .789.337 1.315 1.013 1.705Z"/><path stroke="#9E9CB1" stroke-width="1.044" d="m189.428 414.035 2.411 4.176 2.411-1.392"/><rect width="27.84" height="27.84" fill="#F7F6FF" rx="5.568" transform="matrix(.86603 .5 0 1 206.306 411.251)"/><path fill="#0D0B33" stroke="#0D0B33" stroke-width=".087" d="M219.227 432.631c0 .552-.388.776-.867.5-.478-.276-.866-.948-.866-1.501 0-.552.388-.776.866-.5.479.276.867.948.867 1.501ZM219.227 427.063c0 .553-.388.777-.867.501-.478-.277-.866-.949-.866-1.501 0-.553.388-.777.866-.5.479.276.867.948.867 1.5ZM219.227 438.199c0 .553-.388.777-.867.5-.478-.276-.866-.948-.866-1.5 0-.553.388-.777.866-.501.479.277.867.949.867 1.501Z"/><rect width="238.728" height="52.896" fill="#F7F6FF" rx="8.352" transform="matrix(.86603 .5 0 1 23.67 339.215)"/><rect width="30.624" height="30.624" fill="#fff" rx="15.312" transform="matrix(.86603 .5 0 1 30.904 354.526)"/><rect width="30.624" height="30.624" fill="#4A21EF" rx="15.312" transform="matrix(.86603 .5 0 1 30.904 354.526)"/><path fill="#fff" d="M43.161 368.239c-.452-.261-.885-.304-1.205-.12l-5.02 2.899c-.19.11-.286.343-.286.631 0 .287.096.63.286.959l3.29 5.699v-6.726c0-.502.35-.707.784-.456l6.917 3.993 3.575-2.064-8.34-4.815ZM40.226 379.565l6.914 3.991c.434.251.787.048.787-.454v-6.726l3.29 5.699c.19.329.285.672.285.96 0 .287-.095.52-.285.63l-5.02 2.899c-.32.184-.754.142-1.206-.119l-8.34-4.816 3.575-2.064Z"/><rect width="13.92" height="13.92" fill="#EFB90B" rx="6.96" transform="matrix(.86603 .5 0 1 47.782 383.759)"/><path fill="#fff" fill-rule="evenodd" d="m51.694 393.448.705.877v.94l-.705-.877v-.94Zm2.82 4.449v.941l-.705.063-.705-.878v-.94l.705.877.706-.063Zm-3.526-3.446 1.411 1.754v.941l-.706-.878-.705-.877-.705-.877v-2.821l.705.877v1.881Zm5.642 1.377.706-.063v2.821l-.706.063-1.41.126v-.941l1.41-.126v-1.88Zm-1.41.125.705-.063v.941l-.705.063v-.941Zm0-2.82.705.877v.94l-1.41.126v1.881l-.706.063-.705-.878v-1.88l-.705-.877-.705-.878v-.94l.705-.063 1.41 1.755.706-.063.705-.063Zm-1.41-1.755.705.877-.706.063-.705-.877.705-.063Zm1.41-.126.705.877-.705.064-.705-.878-.706-.878-.705.064-.705.063-.705-.878.705-.063 1.41-.126.706.877.705.878Zm1.41 1.755.706.877v.94l-.706.063v-.94l-.705-.878.706-.062Zm-4.937-2.381-.705.064v.94l-.705-.877v-.941l.705-.063.706.877Z" clip-rule="evenodd"/><path fill="#0D0B33" d="M67.6 388.662a12.71 12.71 0 0 0 1.958 1.408c1.764 1.019 2.536.708 2.536-.84-.029-1.543-.347-2.161-1.958-3.569-1.032-.886-1.176-1.136-1.176-1.693 0-.679.318-.707 1.128-.24.27.156.569.362.897.607.328.245.579.446.762.63v-1.315c-.376-.384-1.013-.863-1.707-1.263-1.592-.919-2.411-.713-2.411.846.029 1.431.385 2.004 1.851 3.285 1.07.93 1.264 1.219 1.264 1.899 0 .724-.319.807-1.235.278-.665-.384-1.475-.997-1.91-1.425v1.392Zm7.157-2.071 2.662 1.537v-1.359l-4.022-2.321v7.728l1.36.785v-3.085l2.47 1.426v-1.359l-2.47-1.425v-1.927Zm8.633 6.22c0-1.87-.627-2.956-2.604-4.098l-2.209-1.275v7.729l1.36.785v-2.45l.849.49c1.87 1.08 2.604.79 2.604-1.181Zm-3.453-.568v-2.761l.675.389c1.032.596 1.39 1.147 1.39 2.172 0 1.091-.338 1.197-1.39.59l-.675-.39Z"/><path fill="#71708A" d="M71.28 402.396c0-1.149-.506-1.88-1.595-2.82v-2.212c.498.316 1.03.721 1.308.998v-.721c-.236-.234-.801-.657-1.308-.979v-.906l-.531-.307v.906c-1.004-.502-1.46-.17-1.46.882 0 1.15.363 1.652 1.46 2.626v2.446c-.642-.4-1.224-.833-1.553-1.17v.76c.27.273.886.717 1.553 1.131v1.432l.531.307v-1.442c1.106.531 1.595.268 1.595-.931Zm-2.92-4.774c0-.77.228-.853.794-.565v2.056c-.7-.639-.794-.955-.794-1.491Zm1.325 2.714c.743.691.928 1.013.928 1.744 0 .711-.286.818-.928.516v-2.26Zm4.66 5.876c1.181.682 1.983.453 1.983-2.334 0-2.777-.802-3.941-1.983-4.623-1.173-.677-1.975-.439-1.975 2.338 0 2.787.802 3.942 1.975 4.619Zm0-.731c-.819-.472-1.198-1.257-1.198-3.439 0-2.163.38-2.519 1.198-2.047.835.483 1.215 1.277 1.215 3.44 0 2.183-.38 2.529-1.215 2.046Zm3.706 2.832c.38.219.54.234.54-.312 0-.516-.16-.697-.54-.916-.396-.229-.54-.224-.54.292 0 .546.144.707.54.936Zm3.18 1.874c1.552.897 2.253.59 2.253-.657 0-.897-.355-1.667-1.19-2.314v-.059c.641.146 1.038-.054 1.038-.94 0-1.247-.658-2.154-1.916-2.88-.447-.258-.928-.448-1.224-.511v.721c.372.088.853.297 1.19.492.844.487 1.25 1.033 1.25 1.822 0 .741-.54.897-1.562.307l-.455-.263v.672l.464.268c1.114.643 1.679 1.291 1.679 2.256 0 .945-.658.857-1.536.351a8.224 8.224 0 0 1-1.308-.921v.77c.397.316.844.614 1.317.886Zm4.153 2.418c2.202 1.271 3.122.097 3.122-2.426 0-2.076-.86-3.245-1.932-3.864-1.317-.76-1.916-.063-1.916 1.262 0 1.481.718 2.548 1.798 3.172.573.331 1.037.316 1.248.165l.034.02c-.11 1.232-.869 1.798-2.346.945l-.008.726Zm1.097-2.504c-.65-.375-1.114-1.101-1.114-2.115 0-1.062.405-1.413 1.207-.95.801.463 1.223 1.34 1.223 2.48 0 .819-.405 1.111-1.316.585Z"/><path fill="#17A669" d="m97.33 416.08-2.226-1.285c-.085-.049-.132-.19-.078-.235l1.113-.915c.04-.033.115.01.155.09l1.113 2.2c.054.107.008.194-.077.145ZM102.137 422.16l.759.439v-6.763l-.498-.287-1.713-.58v.711l1.452.517v5.963Zm2.992 1.786c.379.219.54.234.54-.312 0-.516-.161-.696-.54-.916-.397-.229-.54-.224-.54.293 0 .545.143.706.54.935Zm1.753.954 3.856 2.226v-.74l-3.021-1.744v-.088l.338-.107c1.89-.653 2.447-1.16 2.447-2.378 0-1.384-.734-2.363-1.882-3.025-.498-.288-.936-.492-1.333-.614v.75c.464.122.878.331 1.249.546.574.331 1.24.94 1.24 1.914 0 .965-.405 1.52-2.894 2.334v.926Zm6.145.4c.734.424 1.198.283 1.198-1.159s-.464-2.129-1.198-2.553c-.734-.424-1.198-.273-1.198 1.169 0 1.442.464 2.119 1.198 2.543Zm-.236 3.011.556.322 3.283-4.867-.565-.327-3.274 4.872Zm.236-3.517c-.464-.268-.633-.658-.633-1.711 0-1.052.169-1.227.633-.959.472.273.641.643.641 1.695s-.169 1.247-.641.975Zm3.384 5.705c.734.424 1.198.282 1.198-1.16s-.464-2.129-1.198-2.553c-.734-.424-1.207-.278-1.207 1.165 0 1.442.473 2.124 1.207 2.548Zm0-.507c-.464-.268-.633-.658-.633-1.71s.169-1.228.633-.96c.481.278.633.638.633 1.691 0 1.052-.152 1.257-.633.979Z"/><path fill="#0D0B33" d="M188.647 453.27c-.048.964-.627 1.376-3.115 2.267v1.38l4.629 2.673v-1.247l-3.019-1.743v-.089l.425-.145c2.015-.729 2.382-1.152 2.42-2.522 0-1.47-.839-2.678-2.314-3.53-.666-.384-1.244-.629-1.727-.741v1.259a5.542 5.542 0 0 1 1.495.595c.772.446 1.206 1.008 1.206 1.843Zm5.66 3.268c-.048.964-.627 1.376-3.115 2.266v1.381l4.629 2.673v-1.247l-3.019-1.743v-.089l.425-.145c2.015-.729 2.382-1.153 2.42-2.522 0-1.47-.839-2.678-2.314-3.53-.666-.385-1.244-.63-1.726-.741v1.258c.53.129 1.022.323 1.494.596.772.446 1.206 1.008 1.206 1.843Zm2.468 3.007c0 3.106.878 4.482 2.401 5.361 1.524.88 2.402.518 2.402-2.589 0-3.095-.878-4.482-2.402-5.362-1.514-.874-2.401-.506-2.401 2.59Zm2.401 4.07c-.8-.462-1.089-1.164-1.089-3.313 0-2.138.299-2.511 1.089-2.055.81.468 1.109 1.186 1.109 3.324s-.299 2.511-1.109 2.044Zm3.25 1.018c0 1.437.868 2.662 2.411 3.553 1.552.896 2.42.673 2.42-.752 0-1.125-.453-1.932-1.176-2.628v-.045c.646.061.964-.278.964-1.202 0-1.303-.771-2.517-2.208-3.347-1.437-.829-2.209-.507-2.209.796 0 .925.328 1.626.907 2.283v.045c-.656-.078-1.109.195-1.109 1.297Zm2.411 2.35c-.801-.462-1.206-1.052-1.206-1.776 0-.836.424-1.003 1.206-.552.81.468 1.215 1.114 1.215 1.949 0 .724-.405.847-1.215.379Zm0-3.452c-.733-.423-1.052-1.019-1.052-1.721 0-.701.348-.846 1.052-.44.694.401 1.06.991 1.06 1.66 0 .679-.327.924-1.06.501Zm3.596 5.74c0 .824.106.997.8 1.397.695.401.811.346.811-.467 0-.824-.116-1.003-.811-1.403-.704-.407-.8-.362-.8.473Zm3.593-3.416v6.359l1.321.763v-7.729l-.964-.556-1.996-.685v1.269l1.639.579Zm3.886 8.569c.443.356.926.679 1.437.974 1.813 1.047 2.835.802 2.835-.935 0-1.604-.771-2.817-2.285-3.692a5.226 5.226 0 0 0-.724-.35l.222-1.554 2.353 1.359v-1.281l-3.395-1.96-.462 3.92c.54.2.993.406 1.369.624 1.119.645 1.572 1.252 1.572 2.188 0 .935-.579.957-1.582.378-.501-.289-.8-.517-1.34-.963v1.292Z"/><path fill="#71708A" d="M192.939 472.638c0-1.15-.506-1.881-1.595-2.821v-2.212c.498.317 1.03.721 1.308.999v-.721c-.236-.234-.801-.658-1.308-.98v-.906l-.531-.307v.906c-1.004-.501-1.46-.17-1.46.882 0 1.15.363 1.652 1.46 2.626v2.446c-.641-.4-1.224-.833-1.553-1.169v.76c.27.272.886.716 1.553 1.13v1.432l.531.307v-1.442c1.106.531 1.595.268 1.595-.93Zm-2.919-4.775c0-.77.227-.853.793-.565v2.056c-.701-.638-.793-.955-.793-1.491Zm1.324 2.714c.743.692.929 1.013.929 1.744 0 .711-.287.818-.929.516v-2.26Zm4.66 5.876c1.274.736 2 .57 2-.726 0-1.062-.472-1.754-1.038-2.294v-.039c.574.068.844-.234.844-1.053 0-1.062-.548-2.119-1.806-2.845-1.257-.726-1.806-.302-1.806.76 0 .848.346 1.476.844 2.027v.039c-.498-.083-1.038.024-1.038 1.086 0 1.296.743 2.319 2 3.045Zm0-3.897c-.877-.507-1.122-1.184-1.122-1.847 0-.77.371-.945 1.122-.511.751.433 1.123 1.067 1.123 1.807 0 .663-.287 1.033-1.123.551Zm0 3.186c-.92-.531-1.291-1.213-1.291-1.954 0-.925.414-1.096 1.291-.589.878.507 1.3 1.159 1.3 2.085 0 .741-.38.989-1.3.458Zm4.854 3.514c1.316.76 1.907.107 1.907-1.218 0-1.481-.692-2.582-1.78-3.211-.574-.331-1.03-.302-1.258-.17l-.025-.015c.093-1.223.903-1.749 2.346-.916l.008-.736c-2.202-1.271-3.139-.097-3.139 2.427 0 2.095.869 3.22 1.941 3.839Zm-.008-.736c-.802-.463-1.207-1.281-1.207-2.441 0-.809.396-1.125 1.308-.599.666.385 1.122 1.145 1.122 2.158 0 1.062-.422 1.345-1.223.882Zm4.862 3.538c1.181.682 1.983.453 1.983-2.334 0-2.777-.802-3.941-1.983-4.623-1.173-.677-1.975-.439-1.975 2.338 0 2.787.802 3.942 1.975 4.619Zm0-.731c-.819-.472-1.198-1.257-1.198-3.439 0-2.164.379-2.519 1.198-2.047.835.483 1.215 1.277 1.215 3.44 0 2.183-.38 2.529-1.215 2.046Zm3.706 2.832c.38.219.54.234.54-.312 0-.516-.16-.697-.54-.916-.397-.229-.54-.224-.54.292 0 .546.143.707.54.936Zm3.205 1.889c1.426.823 2.337.697 2.337-.901 0-1.442-.759-2.495-2.118-3.279a4.765 4.765 0 0 0-.684-.336l.245-1.71 2.16 1.247v-.76l-2.734-1.579-.396 3.133c.371.136.81.321 1.122.502 1.215.701 1.679 1.408 1.679 2.421 0 1.111-.649 1.087-1.62.526a6.974 6.974 0 0 1-1.198-.857v.77c.38.307.734.55 1.207.823Zm5.343 3.085c1.181.682 1.983.453 1.983-2.334 0-2.777-.802-3.941-1.983-4.623-1.173-.678-1.975-.439-1.975 2.338 0 2.787.802 3.942 1.975 4.619Zm0-.731c-.819-.472-1.198-1.257-1.198-3.44 0-2.163.379-2.518 1.198-2.046.835.483 1.215 1.277 1.215 3.44 0 2.183-.38 2.528-1.215 2.046Z"/><rect width="238.728" height="52.896" fill="#F7F6FF" rx="8.352" transform="matrix(.86603 .5 0 1 23.67 397.679)"/><rect width="30.624" height="30.624" fill="#fff" rx="15.312" transform="matrix(.86603 .5 0 1 30.904 412.99)"/><rect width="30.624" height="30.624" fill="#F7931A" rx="15.312" transform="matrix(.86603 .5 0 1 30.904 412.99)"/><path fill="#fff" fill-rule="evenodd" d="M50.077 437.621c.243-1.736-.995-3.46-2.687-5.11l.549-2.226-1.341-1.16-.535 2.167c-.352-.304-.713-.609-1.073-.911l.538-2.181-1.34-1.159-.549 2.224a82.103 82.103 0 0 1-.856-.726l.002-.007-1.848-1.601-.357 1.448s.994.837.973.841c.543.47.642.942.625 1.261l-.625 2.535c.037.033.086.077.139.132l-.141-.122-.877 3.552c-.067.152-.235.34-.614.013.013.03-.975-.844-.975-.844l-.665 1.388 1.744 1.51c.197.17.392.341.584.51l.001.001.37.325-.554 2.252 1.339 1.159.55-2.227c.365.325.72.636 1.067.936l-.547 2.216 1.34 1.16.555-2.247c2.285 1.819 4.005 2.61 4.727.641.583-1.585-.028-3.047-1.23-4.465.875.272 1.535-.012 1.71-1.285Zm-3.063 3.191c-.38 1.544-2.772-.567-3.866-1.531a33.723 33.723 0 0 0-.26-.229l.736-2.982c.091.079.203.173.33.278 1.13.946 3.449 2.885 3.06 4.464Zm-2.833-5.913c.912.807 2.9 2.568 3.247 1.166.354-1.435-1.58-3.046-2.524-3.832-.106-.089-.2-.167-.276-.233l-.667 2.705c.063.054.137.12.22.194Z" clip-rule="evenodd"/><path fill="#0D0B33" d="M72.49 444.458c0-1.425-.55-2.388-2.45-3.485l-2.2-1.27v7.729l2.393 1.381c1.88 1.085 2.459.651 2.459-.808 0-.969-.396-1.798-1.177-2.461v-.044c.695.167.974-.195.974-1.042Zm-3.29 2.489v-2.093l.714.412c1.1.635 1.408 1.069 1.408 1.86 0 .846-.299.874-1.408.233l-.713-.412Zm0-3.24v-1.96l.522.301c1.08.623 1.427.946 1.427 1.792 0 .824-.376.774-1.427.167l-.521-.3Zm8.83 3.248v-1.369l-4.93-2.846v1.37l1.785 1.03v6.359l1.36.785v-6.359l1.784 1.03Zm.571 2.825c.03 3.179 1.138 4.622 3.202 5.824.617.357 1.206.563 1.63.618v-1.347c-.482-.078-1.003-.279-1.572-.607-1.273-.735-1.803-1.587-1.803-3.658 0-1.96.55-2.3 1.832-1.559a7.34 7.34 0 0 1 1.466 1.113v-1.369a7.771 7.771 0 0 0-1.543-1.136c-1.042-.602-1.842-.752-2.392-.457-.55.295-.82 1.153-.82 2.578Z"/><path fill="#71708A" d="M71.28 460.86c0-1.15-.506-1.88-1.595-2.821v-2.212c.498.317 1.03.722 1.308.999v-.721c-.236-.234-.801-.658-1.308-.979v-.906l-.531-.307v.906c-1.004-.502-1.46-.171-1.46.882 0 1.15.363 1.651 1.46 2.626v2.446c-.642-.4-1.224-.834-1.553-1.17v.76c.27.273.886.716 1.553 1.131v1.432l.531.307v-1.442c1.106.531 1.595.268 1.595-.931Zm-2.92-4.774c0-.77.228-.853.794-.565v2.056c-.7-.639-.794-.955-.794-1.491Zm1.325 2.713c.743.692.928 1.014.928 1.745 0 .711-.286.818-.928.516v-2.261Zm2.72 4.659 3.856 2.226v-.74L73.24 463.2v-.088l.337-.107c1.89-.653 2.447-1.16 2.447-2.378 0-1.383-.734-2.363-1.882-3.025-.497-.288-.936-.492-1.333-.614v.75c.464.122.878.332 1.25.546.573.331 1.24.94 1.24 1.915 0 .964-.406 1.52-2.895 2.333v.926Zm4.853 2.802 3.856 2.227v-.741l-3.02-1.744v-.088l.337-.107c1.89-.653 2.447-1.159 2.447-2.377 0-1.384-.734-2.363-1.882-3.026-.498-.287-.936-.492-1.333-.614v.751c.464.121.878.331 1.249.545.574.332 1.24.941 1.24 1.915 0 .965-.405 1.52-2.894 2.334v.925Zm5.293 4.381c.405-.39.894-1.198.894-2.046l-.7-.404c0 .73-.338 1.549-.794 2.104l.6.346Zm2.503.237c2.203 1.272 3.123.098 3.123-2.426 0-2.075-.861-3.245-1.933-3.863-1.316-.76-1.915-.064-1.915 1.262 0 1.481.717 2.548 1.797 3.171.574.332 1.038.317 1.249.166l.034.019c-.11 1.233-.87 1.798-2.346.946l-.009.725Zm1.097-2.504c-.65-.375-1.114-1.101-1.114-2.114 0-1.062.405-1.413 1.207-.95.802.463 1.224 1.34 1.224 2.48 0 .818-.405 1.11-1.317.584Zm4.854 5.823.76.439v-6.763l-.498-.287-1.713-.58v.711l1.451.517v5.963Zm4.972 2.968c1.181.682 1.983.453 1.983-2.333 0-2.777-.802-3.942-1.983-4.624-1.173-.677-1.975-.438-1.975 2.339 0 2.786.802 3.941 1.975 4.618Zm0-.731c-.819-.472-1.198-1.257-1.198-3.439 0-2.163.38-2.519 1.198-2.046.835.482 1.215 1.276 1.215 3.439 0 2.183-.38 2.529-1.215 2.046Zm3.706 2.832c.38.219.54.234.54-.312 0-.516-.16-.696-.54-.916-.396-.229-.54-.224-.54.293 0 .545.144.706.54.935Zm2.398 1.326.759.438v-6.762l-.498-.288-1.713-.579v.711l1.452.516v5.964Zm7.014 1.643-.692-.4v-4.356l-.912-.526-2.565 2.67v.945l2.768 1.598v1.667l.709.409v-1.666l.692.399v-.74Zm-3.528-2.037v-.058l2.076-2.203.051.03v3.459l-2.127-1.228Z"/><path fill="#17A669" d="m117.248 486.044-2.226-1.285c-.085-.049-.132-.19-.078-.235l1.113-.915c.04-.033.115.01.155.09l1.113 2.2c.054.107.008.194-.077.145ZM120.232 491.072l3.856 2.226v-.74l-3.021-1.745v-.087l.338-.107c1.89-.653 2.447-1.16 2.447-2.378 0-1.384-.734-2.363-1.882-3.025-.498-.288-.936-.493-1.333-.614v.75c.464.122.878.331 1.249.546.574.331 1.24.94 1.24 1.914 0 .965-.405 1.52-2.894 2.334v.926Zm5.647 3.318c.38.22.54.234.54-.311 0-.517-.16-.697-.54-.916-.397-.229-.54-.224-.54.292 0 .546.143.706.54.935Zm3.179 1.875c1.553.896 2.253.589 2.253-.658 0-.896-.354-1.666-1.189-2.314v-.058c.641.146 1.038-.054 1.038-.941 0-1.247-.659-2.153-1.916-2.879-.447-.258-.928-.448-1.224-.512v.721c.372.088.853.298 1.19.493.844.487 1.249 1.032 1.249 1.822 0 .74-.54.896-1.561.307l-.456-.264v.673l.464.268c1.114.643 1.68 1.291 1.68 2.256 0 .945-.659.857-1.536.35a8.225 8.225 0 0 1-1.308-.921v.77c.397.317.844.614 1.316.887Zm4.719-.52c.734.423 1.198.282 1.198-1.16s-.464-2.129-1.198-2.553c-.734-.424-1.198-.273-1.198 1.169 0 1.443.464 2.12 1.198 2.544Zm-.236 3.011.557.321 3.282-4.867-.565-.326-3.274 4.872Zm.236-3.518c-.464-.268-.633-.658-.633-1.71s.169-1.228.633-.96c.473.273.641.643.641 1.696 0 1.052-.168 1.247-.641.974Zm3.384 5.705c.734.424 1.198.283 1.198-1.159 0-1.443-.464-2.13-1.198-2.553-.734-.424-1.207-.278-1.207 1.164s.473 2.124 1.207 2.548Zm0-.507c-.464-.268-.633-.657-.633-1.71 0-1.052.169-1.227.633-.96.481.278.633.639.633 1.691s-.152 1.257-.633.979Z"/><path fill="#0D0B33" d="M167.127 500.891c0 3.107.878 4.482 2.401 5.362 1.524.879 2.402.517 2.402-2.589 0-3.096-.878-4.483-2.402-5.362-1.514-.875-2.401-.507-2.401 2.589Zm2.401 4.07c-.8-.462-1.089-1.164-1.089-3.313 0-2.138.299-2.511 1.089-2.055.81.468 1.109 1.186 1.109 3.324 0 2.139-.299 2.512-1.109 2.044Zm3.597 2.388c0 .824.106.997.8 1.398.695.401.81.345.81-.468 0-.824-.115-1.002-.81-1.403-.704-.407-.8-.362-.8.473Zm5.981-1.123c-.048.963-.627 1.375-3.115 2.266v1.381l4.629 2.672v-1.247l-3.018-1.743v-.089l.424-.145c2.016-.729 2.382-1.152 2.421-2.522 0-1.47-.839-2.678-2.315-3.53-.665-.384-1.244-.629-1.726-.741v1.259c.53.128 1.022.323 1.495.596.771.445 1.205 1.007 1.205 1.843Zm4.619 1.753v6.359l1.321.762v-7.728l-.964-.557-1.997-.685v1.27l1.64.579Zm8.351 9.487v-1.28l-.743-.429v-4.755l-1.524-.88-2.729 2.968v1.492l3.009 1.737v1.693l1.244.718v-1.692l.743.428Zm-3.896-3.53v-.067l1.851-2.06.058.034v3.196l-1.909-1.103Zm5.091 5.88c.443.356.926.679 1.437.974 1.813 1.047 2.835.802 2.835-.935 0-1.604-.771-2.818-2.286-3.692a5.065 5.065 0 0 0-.723-.351l.222-1.553 2.353 1.358v-1.28l-3.395-1.96-.462 3.92c.54.2.993.406 1.369.623 1.119.646 1.572 1.253 1.572 2.188 0 .936-.579.958-1.582.379-.501-.289-.8-.518-1.34-.963v1.292Zm5.66 3.268c.444.356.926.679 1.437.974 1.813 1.047 2.835.802 2.835-.935 0-1.604-.771-2.818-2.285-3.692a5.126 5.126 0 0 0-.724-.351l.222-1.553 2.353 1.358v-1.28l-3.394-1.96-.463 3.92c.54.2.993.406 1.369.623 1.119.646 1.572 1.253 1.572 2.188 0 .936-.578.958-1.581.379-.502-.289-.801-.518-1.341-.963v1.292Zm10.125 4.186v-1.28l-.742-.429v-4.755l-1.524-.88-2.729 2.968v1.492l3.009 1.737v1.693l1.244.718v-1.693l.742.429Zm-3.896-3.53v-.067l1.852-2.06.058.034v3.196l-1.91-1.103Zm8.081 1.191-2.604 4.945 1.36.785 2.469-4.833v-1.47l-4.494-2.595v1.281l3.269 1.887Zm2.285 5.729c0 1.437.868 2.662 2.411 3.553 1.553.896 2.421.673 2.421-.752 0-1.125-.454-1.932-1.177-2.628v-.045c.646.061.964-.278.964-1.202 0-1.303-.771-2.517-2.208-3.347-1.437-.829-2.208-.507-2.208.796 0 .925.327 1.626.906 2.283v.045c-.656-.078-1.109.195-1.109 1.297Zm2.411 2.35c-.8-.462-1.206-1.052-1.206-1.776 0-.836.425-1.003 1.206-.552.81.468 1.215 1.114 1.215 1.949 0 .724-.405.847-1.215.379Zm0-3.452c-.733-.423-1.051-1.019-1.051-1.721 0-.701.347-.846 1.051-.44.694.401 1.061.991 1.061 1.66 0 .679-.328.924-1.061.501Z"/><path fill="#71708A" d="M187.743 528.101c0-1.149-.506-1.88-1.595-2.82v-2.212c.498.316 1.03.721 1.308.998v-.721c-.236-.233-.802-.657-1.308-.979v-.906l-.531-.307v.906c-1.005-.502-1.46-.17-1.46.882 0 1.15.363 1.652 1.46 2.626v2.446c-.642-.4-1.224-.833-1.553-1.17v.761c.27.272.886.716 1.553 1.13v1.432l.531.307v-1.442c1.106.531 1.595.268 1.595-.931Zm-2.92-4.774c0-.77.228-.853.794-.565v2.056c-.701-.638-.794-.955-.794-1.491Zm1.325 2.714c.743.691.928 1.013.928 1.744 0 .711-.286.818-.928.516v-2.26Zm6.702 4.551-.692-.399v-4.356l-.911-.526-2.566 2.67v.945l2.768 1.598v1.666l.709.409v-1.666l.692.4v-.741Zm-3.527-2.036v-.059l2.076-2.202.05.029v3.459l-2.126-1.227Zm5.124 5.481c2.202 1.272 3.122.098 3.122-2.426 0-2.075-.861-3.245-1.933-3.863-1.316-.76-1.915-.064-1.915 1.262 0 1.481.717 2.548 1.797 3.171.574.332 1.038.317 1.249.166l.034.019c-.11 1.233-.869 1.798-2.346.946l-.008.725Zm1.097-2.504c-.65-.375-1.114-1.101-1.114-2.114 0-1.062.405-1.413 1.206-.95.802.463 1.224 1.34 1.224 2.48 0 .818-.405 1.11-1.316.584Zm4.853 5.823.76.439v-6.763l-.498-.287-1.713-.58v.711l1.451.517v5.963Zm4.483 2.686c1.426.823 2.337.696 2.337-.902 0-1.442-.759-2.494-2.118-3.279a4.98 4.98 0 0 0-.683-.336l.245-1.71 2.16 1.247v-.76l-2.734-1.578-.397 3.133c.371.136.81.321 1.122.501 1.216.702 1.68 1.408 1.68 2.422 0 1.111-.65 1.086-1.621.526a6.974 6.974 0 0 1-1.198-.857v.769c.38.307.734.551 1.207.824Zm4.196 2.383c.379.219.54.234.54-.312 0-.516-.161-.696-.54-.916-.397-.229-.541-.224-.541.293 0 .545.144.706.541.935Zm5.736.847-.692-.4v-4.355l-.912-.527-2.565 2.67v.945l2.768 1.598v1.667l.709.409v-1.666l.692.399v-.74Zm-3.528-2.037v-.058l2.076-2.203.051.03v3.459l-2.127-1.228Zm5.057 5.326.776.448 2.405-4.516v-.857l-3.865-2.232v.76l3.215 1.856-2.531 4.541Z"/><rect width="238.728" height="52.896" fill="#F7F6FF" rx="8.352" transform="matrix(.86603 .5 0 1 23.67 456.143)"/><rect width="30.624" height="30.624" fill="#fff" rx="15.312" transform="matrix(.86603 .5 0 1 30.904 471.454)"/><rect width="30.624" height="30.624" fill="#EFB90B" rx="15.312" transform="matrix(.86603 .5 0 1 30.904 471.454)"/><path fill="#fff" fill-rule="evenodd" d="m39.51 492.768 1.552 1.93v2.069-.002l-1.552-1.929v-2.068Zm6.206 9.789v2.07l-1.551.138-1.552-1.93v-2.07l1.552 1.931 1.551-.139Zm-7.757-7.582 3.103 3.86v2.07l-1.552-1.931-1.551-1.93-1.552-1.93v-6.206l1.552 1.93v4.137Zm12.412 3.029 1.552-.139v6.207l-1.552.138-3.103.277v-2.069l3.103-.277v-4.137Zm-3.103.277 1.551-.138v2.069l-1.551.138v-2.069Zm0-6.206 1.552 1.93v2.069l-3.103.277v4.138l-1.552.138-1.552-1.93v-4.138l-1.551-1.93-1.552-1.93v-2.069l1.552-.138 3.103 3.86 1.552-.138 1.551-.139Zm-3.103-3.86 1.552 1.93-1.552.139-1.552-1.931 1.552-.138Zm3.103-.278 1.552 1.931-1.552.139-1.551-1.93-1.552-1.931-1.552.139-1.551.139-1.552-1.931 1.552-.139 3.103-.278 1.552 1.931 1.551 1.93Zm3.103 3.861 1.552 1.93v2.069l-1.552.139v-2.069l-1.551-1.931 1.551-.138Zm-10.861-5.237-1.551.139v2.069l-1.552-1.93v-2.069l1.552-.138 1.551 1.929Z" clip-rule="evenodd"/><path fill="#0D0B33" d="M72.49 502.922c0-1.425-.55-2.388-2.45-3.485l-2.2-1.27v7.729l2.393 1.38c1.88 1.086 2.459.652 2.459-.807 0-.969-.396-1.798-1.177-2.461v-.044c.695.167.974-.195.974-1.042Zm-3.29 2.489v-2.093l.714.412c1.1.634 1.408 1.069 1.408 1.859 0 .847-.299.875-1.408.234l-.713-.412Zm0-3.24v-1.96l.522.3c1.08.624 1.427.947 1.427 1.793 0 .824-.376.774-1.427.167l-.521-.3Zm4.838-.426v7.729l1.34.773v-6.046l.058.033 2.488 7.483 1.852 1.069v-7.728l-1.33-.768v5.679l-.059-.033-2.276-6.994-2.073-1.197Zm11.928 8.958c0-1.425-.55-2.388-2.45-3.485l-2.198-1.27v7.729l2.392 1.381c1.88 1.085 2.459.651 2.459-.808 0-.969-.395-1.798-1.177-2.461v-.044c.695.167.974-.195.974-1.042Zm-3.288 2.489v-2.093l.713.412c1.1.634 1.409 1.069 1.409 1.859 0 .847-.3.875-1.409.234l-.713-.412Zm0-3.24v-1.96l.52.3c1.08.624 1.428.947 1.428 1.793 0 .824-.376.774-1.427.167l-.521-.3Z"/><path fill="#71708A" d="M71.28 519.324c0-1.15-.506-1.88-1.595-2.821v-2.212c.498.317 1.03.721 1.308.999v-.721c-.236-.234-.801-.658-1.308-.979v-.906l-.531-.307v.906c-1.004-.502-1.46-.171-1.46.882 0 1.149.363 1.651 1.46 2.626v2.445c-.642-.399-1.224-.833-1.553-1.169v.76c.27.273.886.716 1.553 1.13v1.433l.531.307v-1.442c1.106.531 1.595.268 1.595-.931Zm-2.92-4.774c0-.77.228-.853.794-.566v2.056c-.7-.638-.794-.955-.794-1.49Zm1.325 2.713c.743.692.928 1.014.928 1.744 0 .712-.286.819-.928.517v-2.261Zm2.72 4.659 3.856 2.226v-.74l-3.021-1.744v-.088l.337-.107c1.89-.653 2.447-1.16 2.447-2.378 0-1.383-.734-2.363-1.882-3.025-.497-.288-.936-.492-1.333-.614v.75c.464.122.878.331 1.25.546.573.331 1.24.94 1.24 1.914 0 .965-.406 1.521-2.895 2.334v.926Zm5.511 3.182.776.448 2.406-4.516v-.857l-3.865-2.232v.76l3.215 1.857-2.532 4.54Zm6.137 3.641c1.316.76 1.907.107 1.907-1.218 0-1.482-.692-2.583-1.78-3.211-.575-.331-1.03-.302-1.258-.171l-.025-.014c.092-1.223.902-1.749 2.346-.916l.008-.736c-2.203-1.271-3.14-.097-3.14 2.426 0 2.095.87 3.221 1.942 3.84Zm-.009-.736c-.801-.463-1.206-1.281-1.206-2.441 0-.809.396-1.125 1.308-.599.666.385 1.122 1.145 1.122 2.158 0 1.062-.422 1.345-1.224.882Zm3.715 2.836c.38.22.54.234.54-.311 0-.517-.16-.697-.54-.916-.397-.229-.54-.225-.54.292 0 .546.143.706.54.935Zm3.204 1.889c1.427.824 2.338.697 2.338-.901 0-1.442-.76-2.494-2.118-3.279a4.87 4.87 0 0 0-.684-.336l.245-1.71 2.16 1.247v-.76l-2.734-1.578-.396 3.132c.37.137.81.322 1.122.502 1.215.702 1.68 1.408 1.68 2.422 0 1.11-.65 1.086-1.621.526a6.964 6.964 0 0 1-1.198-.858v.77c.38.307.734.551 1.206.823Zm4.829 2.788c1.553.897 2.253.59 2.253-.657 0-.897-.354-1.667-1.19-2.315v-.058c.641.146 1.038-.054 1.038-.94 0-1.248-.658-2.154-1.915-2.88-.448-.258-.929-.448-1.224-.511v.721c.371.087.852.297 1.19.492.844.487 1.249 1.033 1.249 1.822 0 .74-.54.896-1.561.307l-.456-.263v.672l.464.268c1.114.643 1.68 1.291 1.68 2.256 0 .945-.659.857-1.536.351a8.29 8.29 0 0 1-1.309-.921v.77c.397.316.844.613 1.317.886Z"/><path fill="#17A669" d="m106.855 538.508-2.226-1.285c-.085-.049-.131-.19-.077-.235l1.113-.915c.04-.033.114.01.155.089l1.113 2.201c.054.107.007.194-.078.145ZM113.823 543.428l-.692-.399v-4.356l-.911-.526-2.565 2.67v.945l2.768 1.598v1.666l.708.41v-1.667l.692.4v-.741Zm-3.527-2.036v-.059l2.076-2.202.051.029v3.46l-2.127-1.228Zm5.689 2.544c.734.424 1.199.283 1.199-1.16 0-1.442-.465-2.129-1.199-2.552-.734-.424-1.198-.273-1.198 1.169 0 1.442.464 2.119 1.198 2.543Zm-.236 3.011.557.321 3.283-4.867-.566-.326-3.274 4.872Zm.236-3.518c-.464-.268-.633-.657-.633-1.71 0-1.052.169-1.228.633-.96.473.273.642.644.642 1.696s-.169 1.247-.642.974Zm3.384 5.705c.734.424 1.198.283 1.198-1.159s-.464-2.129-1.198-2.553c-.734-.424-1.207-.278-1.207 1.164s.473 2.125 1.207 2.548Zm0-.506c-.464-.268-.633-.658-.633-1.71 0-1.053.169-1.228.633-.96.481.278.633.638.633 1.69 0 1.053-.152 1.257-.633.98Z"/><path fill="#0D0B33" d="M201.127 579.876c0 2.06.791 3.541 2.382 4.46 1.572.907 2.344.351 2.344-1.286 0-1.615-.724-2.89-2.035-3.648-.502-.289-1.013-.395-1.321-.272l-.029-.017c.144-1.175.993-1.453 2.488-.601l.009-1.287c-2.613-1.509-3.838-.434-3.838 2.651Zm2.344 3.246c-.733-.423-1.1-1.169-1.1-2.16 0-.847.396-1.042 1.186-.585.685.395 1.09 1.097 1.09 1.988 0 .935-.415 1.197-1.176.757Zm3.615 2.299c0 .824.106.997.801 1.398.694.4.81.345.81-.468 0-.824-.116-1.002-.81-1.403-.704-.407-.801-.362-.801.473Zm7.631 3.581v-1.28l-.743-.429v-4.755l-1.524-.88-2.729 2.968v1.492l3.009 1.737v1.693l1.244.718v-1.692l.743.428Zm-3.896-3.53v-.066l1.851-2.061.058.034v3.196l-1.909-1.103Zm8.08 1.191-2.603 4.945 1.359.785 2.469-4.833v-1.47l-4.494-2.595v1.281l3.269 1.887Z"/><path fill="#71708A" d="M187.743 586.565c0-1.149-.506-1.88-1.595-2.821v-2.211c.498.316 1.03.721 1.308.998v-.721c-.236-.234-.802-.657-1.308-.979v-.906l-.531-.307v.906c-1.005-.502-1.46-.17-1.46.882 0 1.15.363 1.651 1.46 2.626v2.446c-.642-.4-1.224-.833-1.553-1.17v.76c.27.273.886.717 1.553 1.131v1.432l.531.307v-1.442c1.106.531 1.595.268 1.595-.931Zm-2.92-4.774c0-.77.228-.853.794-.565v2.056c-.701-.639-.794-.955-.794-1.491Zm1.325 2.713c.743.692.928 1.014.928 1.745 0 .711-.286.818-.928.516v-2.261Zm4.542 5.711.759.439v-6.762l-.498-.288-1.713-.58v.712l1.452.516v5.963Zm3.689 2.13.776.449 2.405-4.517v-.857l-3.864-2.232v.76l3.215 1.857-2.532 4.54Zm6.137 3.641c1.274.735 1.999.57 1.999-.726 0-1.062-.472-1.754-1.037-2.295v-.039c.573.068.843-.234.843-1.052 0-1.062-.548-2.12-1.805-2.845-1.258-.726-1.806-.303-1.806.76 0 .847.346 1.476.844 2.026v.039c-.498-.083-1.038.025-1.038 1.087 0 1.296.742 2.319 2 3.045Zm0-3.898c-.878-.507-1.123-1.184-1.123-1.846 0-.77.372-.945 1.123-.512.751.434 1.122 1.067 1.122 1.808 0 .662-.287 1.032-1.122.55Zm0 3.186c-.92-.531-1.292-1.213-1.292-1.953 0-.926.414-1.096 1.292-.59.877.507 1.299 1.16 1.299 2.085 0 .741-.38.99-1.299.458Zm3.638 2.832c2.203 1.272 3.122.097 3.122-2.426 0-2.076-.86-3.245-1.932-3.864-1.316-.76-1.916-.063-1.916 1.262 0 1.481.718 2.548 1.798 3.172.574.331 1.038.316 1.249.165l.034.02c-.11 1.233-.87 1.798-2.346.945l-.009.726Zm1.097-2.504c-.65-.375-1.114-1.101-1.114-2.115 0-1.062.405-1.412 1.207-.95.802.463 1.224 1.34 1.224 2.48 0 .819-.405 1.111-1.317.585Zm3.825 5.287c.379.219.54.234.54-.312 0-.516-.161-.697-.54-.916-.397-.229-.541-.224-.541.292 0 .546.144.707.541.936Zm1.753.954 3.856 2.226v-.74l-3.021-1.745v-.087l.338-.107c1.89-.653 2.447-1.16 2.447-2.378 0-1.384-.734-2.363-1.882-3.026-.498-.287-.937-.492-1.333-.613v.75c.464.122.877.331 1.249.546.573.331 1.24.94 1.24 1.914 0 .965-.405 1.52-2.894 2.334v.926Zm6.676 3.854.76.439v-6.763l-.498-.287-1.713-.58v.712l1.451.516v5.963Z"/><rect width="238.728" height="52.896" fill="#F7F6FF" rx="8.352" transform="matrix(.86603 .5 0 1 23.67 514.606)"/><rect width="30.624" height="30.624" fill="#fff" rx="15.312" transform="matrix(.86603 .5 0 1 30.904 529.918)"/><rect width="30.624" height="30.624" fill="#fff" rx="15.312" transform="matrix(.86603 .5 0 1 30.904 529.918)"/><path fill="#343434" d="m44.164 540.125-.148.495v16.871l.148.256 6.782-.713-6.782-16.909Z"/><path fill="#8C8C8C" d="m44.164 540.125-6.782 9.078 6.782 8.544v-17.622Z"/><path fill="#3C3C3B" d="m44.164 559.23-.084.069v6.01l.084.329 6.786-7.117-6.786.709Z"/><path fill="#8C8C8C" d="M44.164 565.638v-6.408l-6.782-8.542 6.782 14.95Z"/><path fill="#141414" d="m44.164 557.747 6.782-.713-6.782-7.475v8.188Z"/><path fill="#393939" d="m37.382 549.203 6.782 8.545v-8.189l-6.782-.356Z"/><path fill="#0D0B33" d="m72.017 565.401-2.816-1.626v-1.949l2.469 1.425v-1.302l-2.47-1.426v-1.748l2.662 1.537v-1.359l-4.021-2.322v7.729l4.176 2.41v-1.369Zm5.56-1.779v-1.37l-4.928-2.845v1.37l1.784 1.03v6.358l1.36.786v-6.359l1.784 1.03Zm6.412 2.332-1.35-.779v2.94l-2.758-1.593v-2.94l-1.36-.785v7.729l1.36.785v-3.475l2.758 1.593v3.474l1.35.78v-7.729Z"/><path fill="#71708A" d="M71.28 577.788c0-1.15-.506-1.881-1.595-2.821v-2.212c.498.317 1.03.721 1.308.999v-.721c-.236-.234-.801-.658-1.308-.979v-.907l-.531-.306v.906c-1.004-.502-1.46-.171-1.46.882 0 1.149.363 1.651 1.46 2.626v2.445c-.642-.399-1.224-.833-1.553-1.169v.76c.27.273.886.716 1.553 1.13v1.433l.531.307v-1.442c1.106.531 1.595.268 1.595-.931Zm-2.92-4.775c0-.769.228-.852.794-.565v2.056c-.7-.638-.794-.955-.794-1.491Zm1.325 2.714c.743.692.928 1.014.928 1.744 0 .712-.286.819-.928.517v-2.261Zm4.542 5.711.76.439v-6.763l-.498-.287-1.714-.58v.711l1.452.517v5.963Zm2.637 2.848c.405-.39.895-1.198.895-2.046l-.7-.405c0 .731-.338 1.55-.794 2.105l.6.346Zm3.56.827c1.426.823 2.337.697 2.337-.901 0-1.442-.76-2.495-2.118-3.279a4.88 4.88 0 0 0-.684-.336l.245-1.71 2.16 1.247v-.76l-2.734-1.579-.396 3.133c.37.136.81.322 1.122.502 1.215.701 1.68 1.408 1.68 2.421 0 1.111-.65 1.087-1.621.526a6.96 6.96 0 0 1-1.198-.857v.77c.38.307.734.55 1.207.823Zm5.343 3.085c1.274.736 2 .57 2-.726 0-1.062-.473-1.754-1.038-2.295v-.039c.573.069.844-.233.844-1.052 0-1.062-.549-2.119-1.806-2.845-1.258-.726-1.806-.302-1.806.76 0 .848.346 1.476.844 2.027v.039c-.498-.083-1.038.024-1.038 1.086 0 1.296.742 2.319 2 3.045Zm0-3.898c-.878-.506-1.123-1.183-1.123-1.846 0-.77.372-.945 1.123-.512.75.434 1.122 1.067 1.122 1.808 0 .663-.287 1.033-1.122.55Zm0 3.187c-.92-.531-1.291-1.213-1.291-1.954 0-.926.413-1.096 1.29-.589.878.506 1.3 1.159 1.3 2.085 0 .74-.38.989-1.3.458Zm2.913 2.295 3.856 2.227v-.741l-3.02-1.744v-.088l.337-.107c1.89-.653 2.447-1.159 2.447-2.377 0-1.384-.734-2.363-1.882-3.026-.498-.287-.937-.492-1.333-.614v.751c.464.121.877.331 1.249.545.573.332 1.24.941 1.24 1.915 0 .965-.405 1.52-2.894 2.334v.925Zm5.647 3.319c.38.219.54.234.54-.312 0-.516-.16-.696-.54-.916-.397-.229-.54-.224-.54.293 0 .545.143.706.54.935Zm5.736.847-.692-.4v-4.355l-.911-.527-2.566 2.67v.946l2.768 1.598v1.666l.709.409v-1.666l.692.399v-.74Zm-3.527-2.037v-.058l2.076-2.202.05.029v3.459l-2.126-1.228Zm5.824 5.867c1.553.897 2.253.59 2.253-.658 0-.896-.355-1.666-1.19-2.314v-.058c.641.146 1.038-.054 1.038-.941 0-1.247-.658-2.153-1.916-2.879-.447-.258-.928-.448-1.223-.512v.722c.371.087.852.297 1.19.492.844.487 1.249 1.032 1.249 1.822 0 .74-.54.896-1.562.307l-.455-.263v.672l.464.268c1.114.643 1.679 1.291 1.679 2.256 0 .945-.658.857-1.536.35a8.327 8.327 0 0 1-1.308-.92v.769c.397.317.844.614 1.317.887Z"/><path fill="#17A669" d="m113.784 600.972-2.226-1.285c-.085-.05-.132-.191-.078-.235l1.113-.915c.04-.033.115.01.155.089l1.113 2.201c.054.106.008.194-.077.145ZM118.709 607.217c1.316.76 1.907.108 1.907-1.218 0-1.481-.692-2.582-1.78-3.21-.574-.332-1.03-.302-1.258-.171l-.025-.014c.093-1.223.903-1.749 2.346-.916l.008-.736c-2.202-1.272-3.139-.097-3.139 2.426 0 2.095.869 3.221 1.941 3.839Zm-.008-.735c-.802-.463-1.207-1.282-1.207-2.441 0-.809.396-1.126 1.308-.599.666.384 1.122 1.145 1.122 2.158 0 1.062-.422 1.345-1.223.882Zm3.714 2.836c.38.219.54.234.54-.312 0-.516-.16-.696-.54-.916-.396-.229-.54-.224-.54.293 0 .545.144.706.54.935Zm3.205 1.889c1.426.824 2.337.697 2.337-.901 0-1.442-.759-2.494-2.118-3.279a4.867 4.867 0 0 0-.683-.336l.244-1.71 2.161 1.247v-.76l-2.734-1.578-.397 3.132c.371.137.81.322 1.122.502 1.215.702 1.68 1.408 1.68 2.421 0 1.111-.65 1.087-1.621.527a7.037 7.037 0 0 1-1.198-.858v.77c.38.307.734.55 1.207.823Zm4.693-.535c.734.424 1.199.283 1.199-1.159s-.465-2.129-1.199-2.553c-.734-.424-1.198-.273-1.198 1.169 0 1.442.464 2.119 1.198 2.543Zm-.236 3.011.557.322 3.282-4.867-.565-.327-3.274 4.872Zm.236-3.517c-.464-.268-.633-.658-.633-1.71 0-1.053.169-1.228.633-.96.473.273.642.643.642 1.695 0 1.053-.169 1.247-.642.975Zm3.384 5.705c.734.424 1.198.282 1.198-1.16s-.464-2.129-1.198-2.553c-.734-.424-1.207-.277-1.207 1.165 0 1.442.473 2.124 1.207 2.548Zm0-.507c-.464-.268-.633-.658-.633-1.71s.169-1.228.633-.96c.481.278.633.638.633 1.691 0 1.052-.152 1.257-.633.979Z"/><path fill="#0D0B33" d="M204.281 637.688c-.049.963-.627 1.375-3.115 2.266v1.381l4.629 2.673v-1.247l-3.019-1.743v-.089l.425-.145c2.015-.729 2.382-1.153 2.42-2.522 0-1.47-.839-2.679-2.314-3.53-.666-.385-1.244-.63-1.727-.741v1.258a5.545 5.545 0 0 1 1.495.596c.772.446 1.206 1.008 1.206 1.843Zm2.805 6.197c0 .824.106.997.801 1.397.694.401.81.346.81-.467 0-.824-.116-1.003-.81-1.403-.704-.407-.801-.362-.801.473Zm7.631 3.581v-1.28l-.743-.429v-4.755l-1.524-.88-2.729 2.968v1.492l3.009 1.737v1.693l1.244.718v-1.692l.743.428Zm-3.896-3.53v-.067l1.851-2.06.058.034v3.196l-1.909-1.103Zm4.705 3.652c0 1.437.868 2.662 2.411 3.553 1.553.896 2.421.673 2.421-.752 0-1.125-.454-1.932-1.177-2.628v-.045c.646.062.965-.278.965-1.202 0-1.303-.772-2.517-2.209-3.347-1.437-.829-2.208-.506-2.208.797 0 .924.328 1.625.906 2.282v.045c-.656-.078-1.109.195-1.109 1.297Zm2.411 2.35c-.8-.462-1.205-1.052-1.205-1.776 0-.835.424-1.002 1.205-.551.81.467 1.215 1.113 1.215 1.948 0 .724-.405.847-1.215.379Zm0-3.452c-.733-.423-1.051-1.019-1.051-1.721 0-.701.347-.846 1.051-.44.694.401 1.061.992 1.061 1.66 0 .679-.328.924-1.061.501Z"/><path fill="#71708A" d="M187.743 645.029c0-1.15-.506-1.88-1.595-2.821v-2.212c.498.317 1.03.721 1.308.999v-.721c-.236-.234-.802-.658-1.308-.979v-.906l-.531-.307v.906c-1.005-.502-1.46-.171-1.46.882 0 1.15.363 1.651 1.46 2.626v2.446c-.642-.4-1.224-.834-1.553-1.17v.76c.27.273.886.716 1.553 1.131v1.432l.531.307v-1.442c1.106.531 1.595.268 1.595-.931Zm-2.92-4.774c0-.77.228-.853.794-.566v2.056c-.701-.638-.794-.954-.794-1.49Zm1.325 2.713c.743.692.928 1.014.928 1.745 0 .711-.286.818-.928.516v-2.261Zm4.145 5.58c1.553.896 2.253.589 2.253-.658 0-.896-.354-1.666-1.19-2.314v-.059c.642.147 1.038-.053 1.038-.94 0-1.247-.658-2.153-1.915-2.879-.447-.259-.928-.449-1.224-.512v.721c.372.088.853.297 1.19.492.844.487 1.249 1.033 1.249 1.822 0 .741-.54.897-1.561.307l-.456-.263v.673l.464.268c1.114.643 1.68 1.291 1.68 2.255 0 .945-.659.858-1.536.351a8.18 8.18 0 0 1-1.308-.921v.77c.396.317.844.614 1.316.887Zm4.154 2.417c2.202 1.272 3.122.098 3.122-2.426 0-2.076-.861-3.245-1.933-3.864-1.316-.76-1.915-.063-1.915 1.262 0 1.481.717 2.548 1.797 3.172.574.331 1.038.317 1.249.166l.034.019c-.11 1.233-.869 1.798-2.346.945l-.008.726Zm1.097-2.504c-.65-.375-1.114-1.101-1.114-2.114 0-1.063.405-1.413 1.206-.95.802.462 1.224 1.339 1.224 2.479 0 .819-.405 1.111-1.316.585Zm3.031 4.771 3.856 2.226v-.74l-3.021-1.745v-.087l.338-.107c1.89-.653 2.447-1.16 2.447-2.378 0-1.384-.734-2.363-1.882-3.026-.498-.287-.937-.492-1.333-.613v.75c.464.122.877.331 1.249.546.573.331 1.24.94 1.24 1.914 0 .965-.405 1.52-2.894 2.334v.926Zm8.836 2.695-.691-.4v-4.355l-.912-.526-2.565 2.669v.946l2.768 1.598v1.666l.709.409v-1.666l.691.399v-.74Zm-3.527-2.037v-.058l2.076-2.202.051.029v3.459l-2.127-1.228Zm5.192 5.463c.379.219.54.234.54-.312 0-.516-.161-.697-.54-.916-.397-.229-.541-.224-.541.292 0 .546.144.707.541.936Zm5.736.846-.692-.399v-4.356l-.912-.526-2.565 2.67v.945l2.768 1.598v1.666l.709.41v-1.667l.692.4v-.741Zm-3.528-2.036v-.059l2.076-2.202.051.029v3.46l-2.127-1.228Zm4.399 4.946 3.856 2.226v-.74l-3.021-1.744v-.088l.337-.107c1.891-.653 2.448-1.16 2.448-2.378 0-1.383-.735-2.363-1.882-3.025-.498-.288-.937-.492-1.333-.614v.75c.464.122.877.331 1.248.546.574.331 1.241.94 1.241 1.914 0 .965-.405 1.521-2.894 2.334v.926Z"/><g stroke="#71708A" stroke-linecap="round" stroke-linejoin="round" stroke-width=".87" clip-path="url(#l)"><path d="m92.932 634.853-5.493-3.171M96.39 636.848l-1.424-.822M93.95 636.614c.561.324 1.017.061 1.017-.587 0-.649-.456-1.438-1.017-1.762-.562-.324-1.017-.061-1.017.587 0 .649.455 1.438 1.017 1.762ZM89.677 627.806l-2.238-1.292M96.39 631.681l-4.678-2.702M90.695 629.567c.562.324 1.017.061 1.017-.587 0-.649-.455-1.438-1.017-1.762-.562-.324-1.017-.061-1.017.587 0 .649.455 1.438 1.017 1.762Z"/></g><path fill="#71708A" d="m105.098 644.571.849.49v-6.715l.058.033 1.736 5.969.945.546 1.716-3.976.058.034v6.715l.868.501v-7.729l-1.369-.79-1.707 3.992-.058-.033-1.707-5.964-1.389-.802v7.729Zm10.06-.317a11.968 11.968 0 0 0-1.187-.596v.846c.377.129.801.329 1.148.529 1.061.613 1.283 1.242 1.283 1.966v.501l-1.591-.919c-1.245-.718-2.064-.701-2.064.724 0 1.136.549 2.11 1.793 2.829.782.451 1.563.534 1.862.05l.125.985.704.407v-4.265c0-1.08-.434-2.111-2.073-3.057Zm-.54 5.122c-.733-.423-1.013-.929-1.013-1.586 0-.936.405-.902 1.263-.407l1.534.885v.992c-.27.556-.916.618-1.784.116Zm6.879-1.462c-.637-.368-1.35-.579-1.669.005v-.857l-.829-.479v6.013l.829.479v-4.064c.29-.891.926-.668 1.582-.29.829.479.993 1.108.993 2.032v3.809l.839.484v-4.164c0-1.147-.385-2.183-1.745-2.968Zm5.527 3.191c-.376-.217-.8-.429-1.186-.596v.847c.376.128.801.328 1.148.529 1.061.612 1.282 1.241 1.282 1.965v.501l-1.591-.918c-1.244-.719-2.064-.702-2.064.723 0 1.136.55 2.111 1.794 2.829.781.451 1.563.534 1.861.05l.126.986.704.406v-4.265c0-1.08-.434-2.11-2.074-3.057Zm-.54 5.123c-.733-.423-1.012-.93-1.012-1.587 0-.936.405-.902 1.263-.407l1.533.886v.991c-.27.557-.916.618-1.784.117Zm7.931-.745v1.125c-.203-.83-.637-1.604-1.688-2.21-1.736-1.003-2.16.155-2.16 1.815 0 1.837.424 3.307 2.16 4.309 1.003.579 1.476.429 1.688-.15v.601c0 1.381-.55 1.61-1.707.941a10.16 10.16 0 0 1-1.273-.868v.813c.328.267.819.618 1.263.874 1.765 1.019 2.546.479 2.546-1.181v-5.59l-.829-.479Zm-1.572 4.304c-1.225-.707-1.389-1.804-1.389-3.062 0-1.169.135-2.183 1.389-1.459 1.253.724 1.601 1.804 1.601 3.185 0 1.437-.348 2.06-1.601 1.336Zm8.291 1.981c0-1.169-.308-2.695-2.083-3.719-1.485-.858-2.363-.641-2.363 1.754 0 2.394.878 3.624 2.411 4.51.743.428 1.456.662 1.755.657v-.88c-.395-.006-1.06-.223-1.629-.551-1.264-.73-1.659-1.559-1.669-2.879l3.53 1.782c.029-.262.048-.507.048-.674Zm-3.578-1.821c.029-1.208.299-1.798 1.495-1.108 1.128.652 1.263 1.543 1.263 2.467l-2.758-1.359Zm10.358 9.455c.675.389 1.244.573 1.62.601v-.869c-.511-.094-.965-.256-1.592-.618-1.485-.857-2.169-1.887-2.169-4.348 0-2.305.732-2.651 2.256-1.771.589.34 1.042.702 1.428 1.091v-.924a7.461 7.461 0 0 0-1.447-1.058c-1.929-1.113-3.144-.824-3.144 2.161 0 3.229 1.206 4.671 3.048 5.735Zm5.011 2.893c1.543.891 2.401.663 2.401-1.732 0-2.394-.858-3.613-2.401-4.504-1.534-.886-2.411-.668-2.411 1.726s.877 3.625 2.411 4.51Zm0-.813c-1.128-.651-1.524-1.425-1.524-3.185 0-1.759.357-2.11 1.524-1.436 1.138.657 1.524 1.436 1.524 3.196 0 1.759-.348 2.104-1.524 1.425Zm4.283-3.941c.348.2.492.206.492-.284 0-.501-.144-.652-.492-.852-.366-.212-.501-.223-.501.278 0 .49.135.646.501.858Zm-.424 6.871.829.479v-6.014l-.829-.479v6.014Zm5.078-3.193c-.636-.368-1.35-.579-1.668.005v-.857l-.829-.479v6.014l.829.478v-4.064c.289-.891.926-.668 1.582-.29.829.479.993 1.108.993 2.033v3.808l.839.485v-4.165c0-1.147-.386-2.183-1.746-2.968Zm4.67 8.887c1.273.735 1.977.596 1.977-.595 0-1.159-.434-1.788-1.63-2.79-.81-.679-.993-.919-.993-1.531 0-.679.366-.657 1.099-.234.482.278.945.646 1.244.952l.058-.779c-.251-.257-.81-.669-1.312-.958-1.234-.713-1.871-.423-1.871.546 0 1.013.309 1.614 1.457 2.578.993.84 1.167 1.085 1.167 1.798 0 .702-.415.685-1.206.228a10.377 10.377 0 0 1-1.504-1.102v.824c.289.267 1.012.774 1.514 1.063Z"/><path fill="#fff" d="m14.026 610.807 226.033 130.5v55.68l-226.033-130.5z"/><rect width="93.96" height="3.48" fill="#0D0B33" rx="1.74" transform="matrix(.86603 .5 0 1 86.356 699.895)"/><g stroke="#71708A" stroke-linecap="round" stroke-miterlimit="10" stroke-width=".87" clip-path="url(#m)"><path d="m220.831 736.877-6.752-3.899c-.221-.127-.42-.089-.525.087l-1.309 2.357c-.199.364.082 1.088.524 1.343l9.371 5.41c.442.255.724-.15.525-.737l-1.309-3.869c-.1-.294-.304-.565-.525-.692v0Z"/><path d="M217.456 737.939c.619.358 1.121.316 1.121-.092 0-.409-.502-1.03-1.121-1.388-.62-.358-1.122-.316-1.122.093 0 .408.502 1.03 1.122 1.387ZM212.179 738.339l10.553 6.093M212.179 740.253l10.553 6.093M212.179 742.167l10.553 6.093"/></g><path fill="#71708A" d="M212.028 753.508v-1.684l1.663.961v-.529l-1.663-.961v-1.496l1.784 1.03v-.557l-2.327-1.343v4.83l2.477 1.43v-.563l-1.934-1.118Zm4.09-.902a7.329 7.329 0 0 0-.741-.372v.529c.235.08.5.205.717.33.663.383.802.776.802 1.229v.313l-.995-.574c-.777-.449-1.29-.439-1.29.452 0 .71.344 1.319 1.122 1.768.488.282.976.334 1.163.031l.078.616.44.254v-2.665c0-.676-.271-1.319-1.296-1.911Zm-.337 3.202c-.458-.265-.633-.582-.633-.992 0-.585.253-.564.789-.254l.959.553v.62c-.169.348-.573.386-1.115.073Zm4.293-.918c-.392-.226-.832-.355-1.037.153v-.682l-.518-.299v3.758l.518.299v-2.457c.181-.563.591-.487 1.007-.247l.072.042.018-.532-.06-.035Zm2.29 1.322c-.398-.23-.844-.362-1.043.003v-.535l-.518-.3v3.759l.518.299v-2.54c.181-.557.579-.418.989-.181.518.299.621.692.621 1.27v2.38l.524.303v-2.603c0-.717-.241-1.364-1.091-1.855Z"/><g stroke="#71708A" stroke-linecap="round" stroke-linejoin="round" stroke-width=".87" clip-path="url(#n)"><path d="m170.541 707.241-2.662-1.537c-.333-.192-.603-.036-.603.348v3.074c0 .385.27.852.603 1.044l2.662 1.537c.333.193.603.037.603-.348v-3.074c0-.384-.27-.851-.603-1.044ZM177.596 713.056l-1.883-3.26c-.235-.408-.617-.628-.852-.492l-1.883 1.087c-.235.135-.235.576 0 .984l1.883 3.26c.235.408.617.628.852.492l1.883-1.086c.235-.136.235-.577 0-.985ZM176.618 717.769l-2.662-1.537c-.333-.192-.602-.037-.602.348v3.074c0 .384.269.852.602 1.044l2.662 1.537c.333.192.603.036.603-.348v-3.074c0-.385-.27-.852-.603-1.044ZM170.541 714.259l-2.662-1.537c-.333-.192-.603-.036-.603.348v3.074c0 .384.27.852.603 1.044l2.662 1.537c.333.192.603.036.603-.348v-3.074c0-.384-.27-.852-.603-1.044Z"/></g><path fill="#71708A" d="m164.681 721.907-1.205-.696v4.83l1.205.696c1.2.692 2.019.616 2.019-1.25 0-2.011-.819-2.888-2.019-3.58Zm-.012 4.273-.651-.376v-3.737l.651.375c.85.491 1.471 1.177 1.471 2.722 0 1.454-.597 1.521-1.471 1.016Zm5.73 3.858.573.331-1.579-5.742-.723-.418-1.586 3.915.555.32.458-1.176 1.85 1.069.452 1.701Zm-2.121-3.222.717-1.834.072.042.706 2.655-1.495-.863Zm4.882.988c-.621-.358-.922-.233-1.055.136v-.675l-.518-.3v5.151l.518.299v-2.046c.133.515.422.967 1.055 1.333 1.091.63 1.344-.136 1.344-1.173 0-1.149-.253-2.095-1.344-2.725Zm-.066 3.351c-.784-.452-1.013-1.162-1.013-2.025 0-.898.229-1.316 1.013-.863.753.435.868 1.155.868 1.949 0 .73-.097 1.385-.868.939Zm3.892-1.142c-.621-.358-.922-.233-1.055.136v-.675l-.518-.3v5.151l.518.299v-2.046c.133.515.422.967 1.055 1.333 1.091.63 1.344-.136 1.344-1.173 0-1.149-.253-2.095-1.344-2.725Zm-.066 3.351c-.784-.452-1.013-1.162-1.013-2.025 0-.898.229-1.316 1.013-.863.753.435.868 1.155.868 1.949 0 .73-.097 1.385-.868.939Zm3.072 2.254c.796.46 1.236.373 1.236-.372 0-.724-.271-1.117-1.019-1.743-.506-.425-.62-.575-.62-.957 0-.425.229-.411.687-.147.301.174.59.404.777.596l.036-.488c-.156-.16-.506-.417-.819-.598-.772-.446-1.17-.265-1.17.341 0 .633.193 1.009.911 1.611.62.526.729.679.729 1.124 0 .439-.259.428-.754.143a6.51 6.51 0 0 1-.94-.689v.515c.181.167.633.484.946.664Z"/><g stroke="#71708A" stroke-linecap="round" stroke-miterlimit="10" stroke-width=".87" clip-path="url(#o)"><path d="m126.586 689.545 2.746-1.586c.088-.051.226.029.315.182l1.133 1.962c.143.249.392.265.381.022l-.243-5.32a.498.498 0 0 0-.21-.364l-4.487-2.871c-.204-.131-.315.092-.171.341l1.133 1.962c.088.153.088.313 0 .364l-2.746 1.585"/><path d="m127.475 686.179-2.746 1.585c-.089.051-.227-.029-.315-.182l-1.133-1.962c-.144-.248-.392-.264-.381-.022l.243 5.321a.495.495 0 0 0 .21.364l4.486 2.871c.205.13.315-.093.172-.342l-1.133-1.962c-.088-.153-.088-.312 0-.363l2.746-1.586"/></g><path fill="#71708A" d="M120.787 701.464c.965.557 1.483.425 1.483-.515 0-.947-.337-1.427-1.272-2.217-.753-.637-.856-.856-.856-1.308 0-.627.278-.599.862-.261.38.219.802.553 1.043.797v-.571c-.199-.205-.645-.546-1.049-.78-.946-.546-1.392-.372-1.392.505 0 .856.313 1.281 1.169 2.011.784.669.965.933.965 1.525 0 .598-.326.626-.953.264a6.753 6.753 0 0 1-1.241-.932v.577c.205.202.723.606 1.241.905Zm2.783 1.537.645.372.814-2.613.036.021.807 3.549.645.373.905-3.237-.513-.296-.687 2.757-.036-.021-.832-3.633-.615-.355-.807 2.686-.037-.021-.687-3.549-.518-.3.88 4.267Zm5.635-.575a7.24 7.24 0 0 0-.742-.372v.529c.236.08.501.205.718.33.663.383.801.776.801 1.229v.313l-.994-.574c-.778-.449-1.29-.439-1.29.452 0 .71.343 1.319 1.121 1.768.488.282.977.334 1.163.031l.079.616.44.254v-2.665c0-.675-.272-1.319-1.296-1.911Zm-.338 3.202c-.458-.265-.633-.581-.633-.992 0-.585.254-.564.79-.254l.958.553v.62c-.168.348-.572.386-1.115.073Zm4.312-.907c-.621-.359-.922-.234-1.055.135v-.675l-.518-.299v5.15l.518.3v-2.047c.133.515.422.968 1.055 1.333 1.091.63 1.344-.136 1.344-1.173 0-1.148-.253-2.095-1.344-2.724Zm-.067 3.351c-.783-.453-1.012-1.163-1.012-2.026 0-.897.229-1.315 1.012-.863.754.435.868 1.156.868 1.949 0 .731-.096 1.385-.868.94Z"/><g stroke="#71708A" stroke-linecap="round" stroke-linejoin="round" stroke-width=".87" clip-path="url(#p)"><path d="M80.689 667.854v-11.059l2.347-.597v13.012l-2.347-1.356ZM84.913 670.294v-7.951l2.348-.452v9.758l-2.348-1.355ZM76.463 665.416v-5.882l2.348-.353v7.59l-2.348-1.355Z"/></g><path fill="#71708A" d="m72.643 673.599.53.306v-4.197l.037.021 1.085 3.73.59.341 1.073-2.484.036.021v4.196l.543.314v-4.831l-.856-.494-1.067 2.495-.036-.02-1.067-3.728-.868-.501v4.831Zm6.287-.198a7.56 7.56 0 0 0-.741-.373v.529c.235.08.5.205.717.331.663.383.802.776.802 1.228v.313l-.995-.574c-.777-.449-1.29-.438-1.29.453 0 .709.344 1.318 1.122 1.767.488.282.976.334 1.163.032l.078.616.44.254v-2.666c0-.675-.271-1.319-1.296-1.91Zm-.337 3.201c-.458-.264-.633-.581-.633-.992 0-.584.253-.563.79-.254l.958.554v.619c-.169.348-.573.386-1.115.073Zm4.293-.918c-.392-.226-.832-.355-1.036.154v-.683l-.519-.299v3.759l.519.299v-2.457c.18-.564.59-.487 1.006-.247l.072.042.019-.533-.06-.035Zm1.838 2.878 1.368-.957-.645-.372-1.127.887-.187-.108v-3.069l-.518-.299v5.289l.518.299v-1.753l.175.1 1.188 2.44.669.386-1.441-2.843Zm4.479 2.342c0-.731-.193-1.684-1.302-2.324-.928-.536-1.477-.401-1.477 1.096 0 1.496.549 2.265 1.507 2.819.464.268.91.414 1.097.41v-.55c-.247-.003-.663-.139-1.019-.344-.79-.456-1.036-.974-1.042-1.799l2.206 1.113c.018-.163.03-.316.03-.421Zm-2.236-1.138c.018-.755.186-1.124.934-.692.705.407.79.964.79 1.541l-1.724-.849Zm4.147 4.038c-.398-.23-.47-.411-.47-.996v-2.074l.808.467v-.502l-.808-.466v-.891l-.518-.299v.891l-.482-.279v.502l.482.278v2.109c0 .988.259 1.34.976 1.754.139.08.241.125.368.177v-.508a1.79 1.79 0 0 1-.356-.163Z"/><g fill="#4A21EF" stroke="#4A21EF" stroke-width=".746" clip-path="url(#q)"><path d="m39.364 641.303 1.92 1.109v.345h.012v1.03c0 .215-.154.304-.34.196l-7.877-4.547c-.821-.474-1.486-1.625-1.486-2.572v-8.208c0-.945.663-1.327 1.483-.853l6.968 4.022c.186.108.34.374.34.59v1.056l-6.274-3.623a.39.39 0 0 1-.147-.158.742.742 0 0 1-.084-.29c-.025-.378-.29-.822-.615-1.009-.338-.196-.615-.036-.615.355 0 .927.652 2.058 1.455 2.521l6.846 3.953c.183.105.34.376.34.595v.801l-1.86-1.073c-1.182-.683-2.277-.39-2.52.839-.33 1.666.9 4.024 2.454 4.921Z"/><path d="m39.376 636.926 1.765 1.019v.007l.323.186a.433.433 0 0 1 .197.34v2.495c0 .126-.088.176-.197.113l-2.088-1.205c-.706-.408-1.28-1.402-1.28-2.216 0-.815.574-1.147 1.28-.739Zm-.605 1.128c0 .519.36 1.142.81 1.402.448.259.808.051.808-.468 0-.518-.36-1.142-.809-1.401-.449-.259-.809-.051-.809.467Z"/></g><path fill="#4A21EF" d="m28.848 648.313.687.397.868-3.077.036.021.85 4.068.687.397.995-4.256-.549-.317-.777 3.651-.037-.021-.85-4.026-.65-.376-.85 3.045-.037-.021-.783-4.552-.567-.327.977 5.394Zm5.88-.434a7.55 7.55 0 0 0-.742-.372v.529c.235.08.5.205.717.331.663.382.802.776.802 1.228v.313l-.995-.574c-.777-.449-1.29-.438-1.29.452 0 .71.344 1.319 1.121 1.768.489.282.977.334 1.164.032l.078.616.44.254v-2.666c0-.675-.271-1.319-1.296-1.911Zm-.339 3.202c-.458-.265-.632-.581-.632-.992 0-.584.253-.564.79-.254l.958.553v.62c-.17.348-.573.386-1.116.073Zm3.462 2.472c.145.083.247.129.344.156v-.494a1.012 1.012 0 0 1-.247-.108c-.211-.121-.302-.25-.302-.626v-4.378l-.518-.299v4.531c0 .564.241.939.723 1.218Zm1.725.996c.145.083.247.128.343.156v-.494a1.01 1.01 0 0 1-.247-.108c-.21-.122-.301-.25-.301-.626v-4.378l-.519-.299v4.531c0 .563.242.939.724 1.218Zm3.587-.226c0-.731-.193-1.684-1.302-2.325-.928-.536-1.477-.4-1.477 1.096 0 1.497.549 2.266 1.507 2.819.464.268.91.414 1.097.411v-.55c-.247-.003-.663-.139-1.018-.345-.79-.455-1.037-.974-1.043-1.799l2.206 1.114c.018-.164.03-.317.03-.421Zm-2.236-1.138c.018-.755.187-1.124.934-.693.705.408.79.964.79 1.542l-1.724-.849Zm4.148 4.037c-.398-.23-.47-.411-.47-.995v-2.074l.807.466v-.501l-.808-.466v-.891l-.518-.3v.891l-.482-.278v.501l.482.278v2.109c0 .989.26 1.34.977 1.754.138.08.24.126.367.178v-.508a1.803 1.803 0 0 1-.355-.164Z"/></g><path stroke="#000" stroke-width="2" d="m22.687 107.335 208.712 120.5c4.304 2.485 7.794 8.529 7.794 13.5v549.906c0 4.971-3.49 6.985-7.794 4.5l-206.114-119c-5.74-3.314-10.393-11.372-10.393-18V111.835c0-4.971 3.49-6.985 7.795-4.5Z"/><path fill="#BFFFE4" stroke="#0D0B33" stroke-width="1.852" d="m282.021 200.736-34.557 19.53c-3.07-5.035-7.165-9.389-11.663-11.986L35.277 92.513l-17.096-9.872c-4.523-2.607-8.633-2.985-11.708-1.458L39.58 62.021l1.528-.885c3.035-1.349 7.03-.92 11.404 1.602L270.13 188.376c4.622 2.662 8.797 7.17 11.892 12.36Z"/><path fill="#79EFBD" stroke="#0D0B33" stroke-width="1.852" d="M287.372 218.23v570.127c0 5.946-2.254 9.976-5.836 11.554l-33.308 19.365c2.985-1.856 4.821-5.662 4.821-11.021V238.128c0-5.796-2.144-12.255-5.572-17.868l34.556-19.53c3.284 5.529 5.339 11.833 5.339 17.5Z"/><mask id="r" width="41" height="619" x="247" y="200" maskUnits="userSpaceOnUse" style="mask-type:alpha"><path fill="#79EFBD" d="M287.152 217.672v570.127c0 5.946-2.254 9.976-5.837 11.553l-33.308 19.366c2.986-1.856 4.822-5.663 4.822-11.021V237.57c0-5.797-2.145-12.256-5.573-17.868l34.557-19.53c3.284 5.528 5.339 11.832 5.339 17.5Z"/></mask><g fill="#0D0B33" mask="url(#r)"><path d="m279.567 452.187 3.584-2.07v4.139l-3.584 2.069v-4.138ZM279.567 464.605l3.584-2.07v4.139l-3.584 2.069v-4.138ZM279.567 477.021l3.584-2.07v4.139l-3.584 2.069v-4.138ZM279.567 489.437l3.584-2.07v4.139l-3.584 2.069v-4.138ZM279.567 501.853l3.584-2.07v4.139l-3.584 2.069v-4.138ZM279.567 514.269l3.584-2.07v4.139l-3.584 2.069v-4.138ZM279.567 526.685l3.584-2.07v4.139l-3.584 2.069v-4.138ZM279.567 539.101l3.584-2.07v4.139l-3.584 2.069v-4.138ZM279.567 551.517l3.584-2.07v4.139l-3.584 2.069v-4.138ZM279.567 563.933l3.584-2.07v4.139l-3.584 2.069v-4.138ZM279.567 576.349l3.584-2.07v4.139l-3.584 2.069v-4.138ZM279.567 588.765l3.584-2.07v4.139l-3.584 2.069v-4.138ZM279.567 601.181l3.584-2.07v4.139l-3.584 2.069v-4.138ZM279.567 613.599l3.584-2.07v4.139l-3.584 2.069v-4.138ZM279.567 626.013l3.584-2.07v4.139l-3.584 2.069v-4.138ZM279.567 638.429l3.584-2.07v4.139l-3.584 2.069v-4.138ZM279.567 650.845l3.584-2.07v4.139l-3.584 2.069v-4.138ZM279.567 663.26l3.584-2.07v4.139l-3.584 2.069v-4.138ZM279.567 675.676l3.584-2.07v4.139l-3.584 2.069v-4.138ZM279.567 203.866l3.584-2.069v4.139l-3.584 2.069v-4.139ZM279.567 688.092l3.584-2.07v4.139l-3.584 2.07v-4.139ZM279.567 216.282l3.584-2.069v4.139l-3.584 2.069v-4.139ZM279.567 700.508l3.584-2.07v4.139l-3.584 2.07v-4.139ZM279.567 228.698l3.584-2.069v4.139l-3.584 2.069v-4.139ZM279.567 712.924l3.584-2.07v4.139l-3.584 2.07v-4.139ZM279.567 241.114l3.584-2.069v4.139l-3.584 2.069v-4.139ZM279.567 725.34l3.584-2.069v4.138l-3.584 2.07v-4.139ZM279.567 253.53l3.584-2.069v4.139l-3.584 2.069v-4.139ZM279.567 737.757l3.584-2.069v4.138l-3.584 2.07v-4.139ZM279.567 265.946l3.584-2.069v4.139l-3.584 2.069v-4.139ZM279.567 750.173l3.584-2.069v4.138l-3.584 2.07v-4.139ZM279.567 278.362l3.584-2.069v4.139l-3.584 2.069v-4.139ZM279.567 762.589l3.584-2.069v4.138l-3.584 2.07v-4.139ZM279.567 290.778l3.584-2.069v4.139l-3.584 2.069v-4.139ZM279.567 775.005l3.584-2.069v4.138l-3.584 2.07v-4.139ZM279.567 303.194l3.584-2.069v4.139l-3.584 2.069v-4.139ZM279.567 787.421l3.584-2.069v4.138l-3.584 2.07v-4.139ZM279.567 315.61l3.584-2.069v4.139l-3.584 2.069v-4.139ZM279.567 799.839l3.584-2.069v4.138l-3.584 2.07v-4.139ZM279.567 328.026l3.584-2.069v4.139l-3.584 2.069v-4.139ZM279.567 812.255l3.584-2.069v4.138l-3.584 2.07v-4.139ZM279.567 340.442l3.584-2.069v4.139l-3.584 2.069v-4.139ZM279.567 352.858l3.584-2.069v4.139l-3.584 2.069v-4.139ZM279.567 365.274l3.584-2.069v4.139l-3.584 2.069v-4.139ZM279.567 377.69l3.584-2.069v4.139l-3.584 2.069v-4.139ZM279.567 390.106l3.584-2.069v4.139l-3.584 2.069v-4.139ZM279.567 402.522l3.584-2.069v4.139l-3.584 2.069v-4.139ZM279.567 414.938l3.584-2.069v4.139l-3.584 2.069v-4.139ZM279.567 427.355l3.584-2.07v4.139l-3.584 2.069v-4.138ZM279.567 439.772l3.584-2.069v4.139l-3.584 2.069v-4.139ZM268.813 458.396l3.584-2.07v4.139l-3.584 2.069v-4.138ZM268.813 470.812l3.584-2.07v4.139l-3.584 2.069v-4.138ZM268.813 483.228l3.584-2.07v4.139l-3.584 2.069v-4.138ZM268.813 495.644l3.584-2.07v4.139l-3.584 2.069v-4.138ZM268.813 508.06l3.584-2.07v4.139l-3.584 2.069v-4.138ZM268.813 520.478l3.584-2.07v4.139l-3.584 2.069v-4.138ZM268.813 532.892l3.584-2.07v4.139l-3.584 2.069v-4.138ZM268.813 545.308l3.584-2.07v4.139l-3.584 2.069v-4.138ZM268.813 557.724l3.584-2.07v4.139l-3.584 2.069v-4.138ZM268.813 570.142l3.584-2.07v4.139l-3.584 2.069v-4.138ZM268.813 582.556l3.584-2.07v4.139l-3.584 2.069v-4.138ZM268.813 594.974l3.584-2.07v4.139l-3.584 2.069v-4.138ZM268.813 607.39l3.584-2.07v4.139l-3.584 2.069v-4.138ZM268.813 619.806l3.584-2.07v4.139l-3.584 2.069v-4.138ZM268.813 632.222l3.584-2.07v4.139l-3.584 2.069v-4.138ZM268.813 644.638l3.584-2.07v4.139l-3.584 2.069v-4.138ZM268.813 657.054l3.584-2.07v4.139l-3.584 2.069v-4.138ZM268.813 669.47l3.584-2.07v4.139l-3.584 2.069v-4.138ZM268.813 197.657l3.584-2.069v4.139l-3.584 2.069v-4.139ZM268.813 681.885l3.584-2.07v4.139l-3.584 2.069v-4.138ZM268.813 210.073l3.584-2.069v4.139l-3.584 2.069v-4.139ZM268.813 694.299l3.584-2.07v4.139l-3.584 2.07v-4.139ZM268.813 222.489l3.584-2.069v4.139l-3.584 2.069v-4.139ZM268.813 706.717l3.584-2.07v4.139l-3.584 2.07v-4.139ZM268.813 234.907l3.584-2.069v4.139l-3.584 2.069v-4.139ZM268.813 719.131l3.584-2.069v4.138l-3.584 2.07v-4.139ZM268.813 247.323l3.584-2.069v4.139l-3.584 2.069v-4.139ZM268.813 731.549l3.584-2.07v4.139l-3.584 2.07v-4.139ZM268.813 259.739l3.584-2.069v4.139l-3.584 2.069v-4.139ZM268.813 743.964l3.584-2.069v4.138l-3.584 2.07v-4.139ZM268.813 272.153l3.584-2.069v4.139l-3.584 2.069v-4.139ZM268.813 756.381l3.584-2.069v4.138l-3.584 2.07v-4.139ZM268.813 284.571l3.584-2.069v4.139l-3.584 2.069v-4.139ZM268.813 768.798l3.584-2.069v4.138l-3.584 2.07v-4.139ZM268.813 296.987l3.584-2.069v4.139l-3.584 2.069v-4.139ZM268.813 781.214l3.584-2.069v4.138l-3.584 2.07v-4.139ZM268.813 309.403l3.584-2.069v4.139l-3.584 2.069v-4.139ZM268.813 793.63l3.584-2.069v4.138l-3.584 2.07v-4.139ZM268.813 321.817l3.584-2.069v4.139l-3.584 2.069v-4.139ZM268.813 806.046l3.584-2.069v4.138l-3.584 2.07v-4.139ZM268.813 334.235l3.584-2.069v4.139l-3.584 2.069v-4.139ZM268.813 818.462l3.584-2.069v4.138l-3.584 2.07v-4.139ZM268.813 346.651l3.584-2.069v4.139l-3.584 2.069v-4.139ZM268.813 359.067l3.584-2.069v4.139l-3.584 2.069v-4.139ZM268.813 371.483l3.584-2.069v4.139l-3.584 2.069v-4.139ZM268.813 383.899l3.584-2.069v4.139l-3.584 2.069v-4.139ZM268.813 396.315l3.584-2.069v4.139l-3.584 2.069v-4.139ZM268.813 408.731l3.584-2.069v4.139l-3.584 2.069v-4.139ZM268.813 421.147l3.584-2.069v4.139l-3.584 2.069v-4.139ZM268.813 433.563l3.584-2.069v4.139l-3.584 2.069v-4.139ZM268.813 445.98l3.584-2.07v4.139l-3.584 2.069v-4.138ZM258.059 464.603l3.585-2.07v4.139l-3.585 2.069v-4.138ZM258.059 477.021l3.585-2.07v4.139l-3.585 2.069v-4.138ZM258.059 489.437l3.585-2.07v4.139l-3.585 2.069v-4.138ZM258.059 501.853l3.585-2.07v4.139l-3.585 2.069v-4.138ZM258.059 514.269l3.585-2.07v4.139l-3.585 2.069v-4.138ZM258.059 526.685l3.585-2.07v4.139l-3.585 2.069v-4.138ZM258.059 539.101l3.585-2.07v4.139l-3.585 2.069v-4.138ZM258.059 551.517l3.585-2.07v4.139l-3.585 2.069v-4.138ZM258.059 563.933l3.585-2.07v4.139l-3.585 2.069v-4.138ZM258.059 576.349l3.585-2.07v4.139l-3.585 2.069v-4.138ZM258.059 588.765l3.585-2.07v4.139l-3.585 2.069v-4.138ZM258.059 601.181l3.585-2.07v4.139l-3.585 2.069v-4.138ZM258.059 613.597l3.585-2.07v4.139l-3.585 2.069v-4.138ZM258.059 626.013l3.585-2.07v4.139l-3.585 2.069v-4.138ZM258.059 638.429l3.585-2.07v4.139l-3.585 2.069v-4.138ZM258.059 650.845l3.585-2.07v4.139l-3.585 2.069v-4.138ZM258.059 663.26l3.585-2.07v4.139l-3.585 2.069v-4.138ZM258.059 675.676l3.585-2.07v4.139l-3.585 2.069v-4.138ZM258.059 203.866l3.585-2.069v4.139l-3.585 2.069v-4.139ZM258.059 688.092l3.585-2.07v4.139l-3.585 2.07v-4.139ZM258.059 216.282l3.585-2.069v4.139l-3.585 2.069v-4.139ZM258.059 700.508l3.585-2.07v4.139l-3.585 2.07v-4.139ZM258.059 228.698l3.585-2.069v4.139l-3.585 2.069v-4.139ZM258.059 712.924l3.585-2.07v4.139l-3.585 2.07v-4.139ZM258.059 241.114l3.585-2.069v4.139l-3.585 2.069v-4.139ZM258.059 725.34l3.585-2.069v4.138l-3.585 2.07v-4.139ZM258.059 253.53l3.585-2.069v4.139l-3.585 2.069v-4.139ZM258.059 737.757l3.585-2.069v4.138l-3.585 2.07v-4.139ZM258.059 265.946l3.585-2.069v4.139l-3.585 2.069v-4.139ZM258.059 750.173l3.585-2.069v4.138l-3.585 2.07v-4.139ZM258.059 278.362l3.585-2.069v4.139l-3.585 2.069v-4.139ZM258.059 762.589l3.585-2.069v4.138l-3.585 2.07v-4.139ZM258.059 290.778l3.585-2.069v4.139l-3.585 2.069v-4.139ZM258.059 775.005l3.585-2.069v4.138l-3.585 2.07v-4.139ZM258.059 303.194l3.585-2.069v4.139l-3.585 2.069v-4.139ZM258.059 787.421l3.585-2.069v4.138l-3.585 2.07v-4.139ZM258.059 315.61l3.585-2.069v4.139l-3.585 2.069v-4.139ZM258.059 799.837l3.585-2.069v4.138l-3.585 2.07v-4.139ZM258.059 328.026l3.585-2.069v4.139l-3.585 2.069v-4.139ZM258.059 812.255l3.585-2.069v4.138l-3.585 2.07v-4.139ZM258.059 340.442l3.585-2.069v4.139l-3.585 2.069v-4.139ZM258.059 352.858l3.585-2.069v4.139l-3.585 2.069v-4.139ZM258.059 365.276l3.585-2.069v4.139l-3.585 2.069v-4.139ZM258.059 377.69l3.585-2.069v4.139l-3.585 2.069v-4.139ZM258.059 390.106l3.585-2.069v4.139l-3.585 2.069v-4.139ZM258.059 402.524l3.585-2.069v4.139l-3.585 2.069v-4.139ZM258.059 414.94l3.585-2.069v4.139l-3.585 2.069v-4.139ZM258.059 427.356l3.585-2.069v4.139l-3.585 2.069v-4.139ZM258.059 439.771l3.585-2.07v4.139l-3.585 2.069v-4.138ZM258.059 452.187l3.585-2.07v4.139l-3.585 2.069v-4.138Z"/></g><defs><clipPath id="g"><path fill="#fff" d="M14.026 111.335c0-5.523 3.878-7.761 8.66-5l208.713 120.5c4.783 2.761 8.66 9.477 8.66 15v549.906c0 5.523-3.877 7.762-8.66 5l-206.114-119c-6.218-3.59-11.259-12.32-11.259-19.5V111.335Z"/></clipPath><clipPath id="h"><path fill="#fff" d="m215.948 256.891 14.466 8.352v16.704l-14.466-8.352z"/></clipPath><clipPath id="i"><path fill="#fff" d="m165.033 231.67 9.644 5.568v11.136l-9.644-5.568z"/></clipPath><clipPath id="j"><path fill="#fff" d="m23.67 145.879 14.467 8.352v16.704l-14.466-8.352z"/></clipPath><clipPath id="k"><path fill="#fff" d="m28.493 314.158 14.466 8.352v16.704l-14.466-8.352z"/></clipPath><clipPath id="l"><path fill="#fff" d="m84.923 619.57 14.466 8.352v16.704l-14.466-8.352z"/></clipPath><clipPath id="m"><path fill="#fff" d="m210.825 728.586 13.26 7.656v15.312l-13.26-7.656z"/></clipPath><clipPath id="n"><path fill="#fff" d="m165.618 702.485 13.26 7.656v15.312l-13.26-7.656z"/></clipPath><clipPath id="o"><path fill="#fff" d="m120.412 676.386 13.26 7.656v15.312l-13.26-7.656z"/></clipPath><clipPath id="p"><path fill="#fff" d="m75.206 650.286 13.26 7.656v15.312l-13.26-7.656z"/></clipPath><clipPath id="q"><path fill="#fff" d="m29.999 624.186 13.26 7.656v15.312L30 639.498z"/></clipPath><linearGradient id="b" x1="-7.715" x2="256.285" y1="122" y2="569" gradientUnits="userSpaceOnUse"><stop stop-color="#fff"/><stop offset="1" stop-color="#fff" stop-opacity="0"/></linearGradient><linearGradient id="d" x1="12.285" x2="276.285" y1="102" y2="549" gradientUnits="userSpaceOnUse"><stop stop-color="#fff"/><stop offset="1" stop-color="#fff" stop-opacity="0"/></linearGradient><linearGradient id="f" x1="32.285" x2="296.285" y1="82" y2="529" gradientUnits="userSpaceOnUse"><stop stop-color="#fff"/><stop offset="1" stop-color="#fff" stop-opacity="0"/></linearGradient><filter id="a" width="254.085" height="762.279" x="53.785" y="40" color-interpolation-filters="sRGB" filterUnits="userSpaceOnUse"><feFlood flood-opacity="0" result="BackgroundImageFix"/><feBlend in="SourceGraphic" in2="BackgroundImageFix" result="shape"/><feGaussianBlur result="effect1_foregroundBlur_7350_113219" stdDeviation=".5"/></filter><filter id="c" width="254.085" height="762.279" x="73.785" y="20" color-interpolation-filters="sRGB" filterUnits="userSpaceOnUse"><feFlood flood-opacity="0" result="BackgroundImageFix"/><feBlend in="SourceGraphic" in2="BackgroundImageFix" result="shape"/><feGaussianBlur result="effect1_foregroundBlur_7350_113219" stdDeviation=".5"/></filter><filter id="e" width="254.085" height="762.279" x="93.785" y="0" color-interpolation-filters="sRGB" filterUnits="userSpaceOnUse"><feFlood flood-opacity="0" result="BackgroundImageFix"/><feBlend in="SourceGraphic" in2="BackgroundImageFix" result="shape"/><feGaussianBlur result="effect1_foregroundBlur_7350_113219" stdDeviation=".5"/></filter></defs></svg>