<svg width="497" height="653" viewBox="0 0 497 653" fill="none" xmlns="http://www.w3.org/2000/svg">
<g clip-path="url(#clip0_6297_91967)">
<g opacity="0.2" filter="url(#filter0_f_6297_91967)">
<path d="M13.3763 428.832C7.80294 431.766 7.64824 439.691 13.1029 442.84L364.675 645.797C370.699 649.275 378.098 649.373 384.212 646.055L422.551 625.253C428.062 622.263 428.148 614.383 422.703 611.274L69.6268 409.677C63.6932 406.289 56.4407 406.164 50.3944 409.347L13.3763 428.832Z" fill="url(#paint0_linear_6297_91967)"/>
</g>
<g opacity="0.05" filter="url(#filter1_f_6297_91967)">
<path d="M424.125 238.629L91.3585 46.5059C74.14 36.5647 60.1816 44.6236 60.1816 64.5059L60.1816 314.12C60.1816 334.002 74.14 358.179 91.3585 368.12L424.125 560.243C441.344 570.184 455.302 562.125 455.302 542.243L455.302 292.629C455.302 272.747 441.344 248.57 424.125 238.629Z" fill="url(#paint1_linear_6297_91967)"/>
</g>
<g opacity="0.05" filter="url(#filter2_f_6297_91967)">
<path d="M444.125 218.628L111.359 26.5049C94.14 16.5638 80.1816 24.6226 80.1816 44.5049L80.1816 294.119C80.1816 314.001 94.14 338.178 111.359 348.119L444.125 540.242C461.344 550.183 475.302 542.124 475.302 522.242L475.302 272.628C475.302 252.746 461.344 228.569 444.125 218.628Z" fill="url(#paint2_linear_6297_91967)"/>
</g>
<g opacity="0.05" filter="url(#filter3_f_6297_91967)">
<path d="M464.126 198.629L131.359 6.50586C114.141 -3.43527 100.182 4.62361 100.182 24.5059L100.182 274.12C100.182 294.002 114.14 318.179 131.359 328.12L464.126 520.243C481.344 530.184 495.303 522.125 495.303 502.243L495.303 252.629C495.303 232.747 481.344 208.57 464.126 198.629Z" fill="url(#paint3_linear_6297_91967)"/>
</g>
<path fill-rule="evenodd" clip-rule="evenodd" d="M43.4995 404.777L366.843 591.461C377.513 597.621 387.2 598.355 394.336 594.568C394.739 594.354 395.134 594.126 395.52 593.883L424.524 577.112C431.136 572.74 435.181 564.086 435.181 552.006V320.945C435.181 295.62 417.401 264.825 395.469 252.162L314.633 205.494L233.797 158.827L152.961 112.159L72.1255 65.4922L72.1041 65.4798C61.3581 59.2822 51.6104 58.5893 44.4642 62.4754L16.0207 78.8924C15.6165 79.1065 15.2205 79.3351 14.8329 79.578C7.99134 83.8661 3.78711 92.62 3.78711 104.935V335.994C3.78711 361.319 21.567 392.115 43.4995 404.777ZM138.648 120.418L131.492 124.548L293.163 217.887L300.32 213.756L307.476 209.625L145.805 116.289L138.648 120.418Z" fill="#181734"/>
<path d="M131.492 124.548L138.648 120.418L145.805 116.289L307.476 209.625L300.32 213.756L293.163 217.887L131.492 124.548Z" fill="#181734"/>
<path d="M406.555 568.533V337.472M406.555 568.533L435.181 552.006M406.555 568.533C406.555 572.461 406.127 576.027 405.323 579.201C403.606 585.973 400.174 590.962 395.52 593.883M366.843 268.688C388.775 281.351 406.555 312.147 406.555 337.472M366.843 268.688L395.469 252.162M366.843 268.688L286.007 222.018L205.171 175.348L124.335 128.677L43.4995 82.0073C32.8363 75.8509 23.1547 75.114 16.0207 78.8924M406.555 337.472L435.181 320.945M435.181 552.006V320.945M435.181 552.006C435.181 564.086 431.136 572.739 424.524 577.112L395.52 593.883M435.181 320.945C435.181 295.62 417.401 264.825 395.469 252.162M395.469 252.162L314.633 205.494L233.797 158.827L152.961 112.159L72.1255 65.4922M43.4995 81.9947L72.1041 65.4798M72.1255 65.4674L72.1041 65.4798M72.1255 65.4922C72.1183 65.488 72.1112 65.4839 72.1041 65.4798M72.1255 65.4922L72.1041 65.4798M14.8329 79.578C7.99134 83.8661 3.78711 92.62 3.78711 104.935V335.994C3.78711 361.319 21.567 392.115 43.4995 404.777L366.843 591.461C377.513 597.621 387.2 598.355 394.336 594.568M14.8329 79.578C15.2205 79.3351 15.6165 79.1065 16.0207 78.8924M14.8329 79.578L16.0207 78.8924M394.336 594.568C394.739 594.354 395.134 594.126 395.52 593.883M394.336 594.568L395.52 593.883M16.0207 78.8924L44.4642 62.4754C51.6104 58.5893 61.3581 59.2822 72.1041 65.4798M300.32 213.756L293.163 217.887L131.492 124.548L138.648 120.418L145.805 116.289L307.476 209.625L300.32 213.756Z" stroke="black" stroke-width="1.85"/>
<path d="M369.652 301.496L282.981 251.456C279.23 249.291 276.189 251.046 276.189 255.378V355.457C276.189 359.788 279.23 365.055 282.981 367.22L369.652 417.26C373.403 419.426 376.443 417.67 376.443 413.339V313.26C376.443 308.928 373.403 303.662 369.652 301.496Z" fill="#2C2A53" stroke="black" stroke-width="1.85"/>
<path d="M305.345 477.072L288.816 486.615C272.619 455.768 272.619 423.645 288.816 411.501L305.345 440.129C298.131 446.836 298.131 462.037 305.345 477.072ZM342.273 504.092L358.802 532.72C340.186 540.675 312.367 524.613 293.751 495.163L310.28 485.62C319.694 499.385 332.859 506.985 342.273 504.092ZM347.208 464.299L363.737 454.757C379.934 485.604 379.934 517.726 363.737 529.871L347.208 501.242C354.421 494.536 354.421 479.335 347.208 464.299ZM310.28 437.28L293.751 408.652C312.367 400.697 340.186 416.758 358.802 446.209L342.273 455.752C332.859 441.987 319.694 434.386 310.28 437.28ZM339.968 462.781C340.587 463.854 341.156 464.934 341.673 466.014C346.961 477.049 346.961 488.207 341.673 493.137C341.156 493.619 340.587 494.042 339.968 494.4C339.348 494.758 338.698 495.039 338.021 495.246C331.108 497.36 321.445 491.781 314.532 481.684C313.855 480.696 313.204 479.664 312.585 478.591C311.966 477.518 311.397 476.438 310.879 475.358C305.592 464.323 305.592 453.165 310.879 448.235C311.397 447.752 311.966 447.329 312.585 446.972C313.204 446.614 313.855 446.333 314.532 446.126C321.445 444.012 331.108 449.591 338.021 459.688C338.698 460.676 339.348 461.708 339.968 462.781Z" fill="#2C2A53" stroke="black" stroke-width="1.85"/>
<path d="M80.4774 168.322C77.7372 166.74 74.7166 163.924 71.4154 159.875V155.241C74.5224 159.452 77.5538 162.41 80.5098 164.117C81.8691 164.902 82.9479 165.238 83.7463 165.126C84.5662 165.001 84.9761 164.415 84.9761 163.369C84.9761 162.422 84.5985 161.456 83.8434 160.472C83.0882 159.463 81.9231 158.28 80.348 156.922C77.5215 154.443 75.6012 152.611 74.5871 151.428C72.3432 148.812 71.2212 146.183 71.2212 143.541C71.2212 141.274 72.0519 139.959 73.7133 139.598C75.3746 139.236 77.4244 139.759 79.8625 141.167C82.84 142.886 85.5263 145.434 87.9213 148.81V153.445C85.1811 149.57 82.4948 146.873 79.8625 145.353C78.4816 144.556 77.3381 144.195 76.4319 144.27C75.5257 144.345 75.0726 144.918 75.0726 145.989C75.0726 146.637 75.3315 147.347 75.8493 148.12C76.3671 148.867 76.9281 149.54 77.5323 150.138C78.158 150.724 79.0858 151.546 80.3156 152.605C81.6102 153.726 82.6782 154.704 83.5197 155.538C84.3828 156.386 85.2566 157.376 86.1412 158.51C87.0259 159.619 87.6839 160.758 88.1155 161.93C88.5686 163.113 88.7951 164.34 88.7951 165.611C88.7951 167.978 88.0076 169.368 86.4325 169.779C84.879 170.203 82.894 169.717 80.4774 168.322Z" fill="#F7F6FF"/>
<path d="M96.5875 177.623C95.8323 177.187 95.0987 176.664 94.3867 176.053C93.6963 175.455 93.0274 174.758 92.3801 173.96C91.7328 173.138 91.2042 172.198 90.7942 171.139C90.3843 170.055 90.1793 168.952 90.1793 167.831C90.1577 165.8 90.7619 164.616 91.9917 164.28C93.2216 163.918 94.9801 164.398 97.2671 165.718L102.478 168.727V167.53C102.478 166.434 102.089 165.388 101.313 164.391C100.536 163.369 99.5327 162.503 98.3028 161.793C95.951 160.436 94.5809 160.542 94.1925 162.112L90.6324 160.131C90.6756 158.187 91.42 157.06 92.8656 156.748C94.3328 156.449 96.1236 156.91 98.2381 158.13C100.374 159.364 102.197 161.014 103.708 163.082C105.24 165.163 106.005 167.15 106.005 169.044V182.761L102.478 180.725V177.735C101.981 178.245 101.226 178.557 100.212 178.669C99.2198 178.794 98.0115 178.445 96.5875 177.623ZM96.8788 174.24C98.3028 175.062 99.5866 175.243 100.73 174.782C101.895 174.333 102.478 173.349 102.478 171.829L97.9144 169.194C96.512 168.384 95.4655 168.092 94.7751 168.316C94.1062 168.528 93.8149 169.12 93.9012 170.092C93.966 170.976 94.2896 171.786 94.8722 172.521C95.4547 173.231 96.1236 173.804 96.8788 174.24Z" fill="#F7F6FF"/>
<path d="M108.853 184.405L108.788 168.258V163.885C108.788 161.518 109.629 160.222 111.312 159.997C112.995 159.773 115.218 160.857 117.979 163.249L117.947 166.519C116.156 164.937 114.797 164.152 113.869 164.165C112.963 164.165 112.51 164.8 112.51 166.071V166.707L117.818 169.771V173.471L112.51 170.407L112.542 186.535L108.853 184.405Z" fill="#F7F6FF"/>
<path d="M127.603 195.53C125.143 194.11 123.061 191.911 121.356 188.933C119.652 185.931 118.8 183.022 118.8 180.206C118.8 177.365 119.663 175.459 121.389 174.487C123.115 173.49 125.186 173.689 127.603 175.084C129.739 176.317 131.616 178.211 133.234 180.765C134.874 183.307 135.877 185.892 136.244 188.521C136.46 189.816 136.471 190.944 136.276 191.903L122.489 183.943C122.705 185.538 123.288 187.045 124.237 188.466C125.186 189.861 126.308 190.932 127.603 191.68C129.588 192.826 131.174 192.932 132.36 191.997L135.699 193.925C135.699 193.925 135.313 196.321 132.36 196.856C130.85 196.931 129.264 196.489 127.603 195.53ZM122.489 180.617L132.619 186.465C132.404 185.02 131.832 183.581 130.904 182.148C129.998 180.728 128.887 179.638 127.57 178.878C126.254 178.118 125.132 177.931 124.205 178.318C123.277 178.679 122.705 179.445 122.489 180.617Z" fill="#F7F6FF"/>
<path d="M163.304 216.142C162.548 215.706 161.815 215.182 161.103 214.572C160.412 213.974 159.743 213.276 159.096 212.479C158.449 211.657 157.92 210.716 157.51 209.657C157.1 208.573 156.895 207.471 156.895 206.349C156.874 204.318 157.478 203.135 158.708 202.798C159.938 202.437 161.696 202.916 163.983 204.237L169.194 207.245V206.049C169.194 204.953 168.806 203.906 168.029 202.909C167.252 201.888 166.249 201.022 165.019 200.312C162.667 198.954 161.297 199.06 160.909 200.63L157.349 198.649C157.392 196.706 158.136 195.578 159.582 195.267C161.049 194.967 162.84 195.428 164.954 196.649C167.09 197.882 168.913 199.533 170.424 201.601C171.956 203.682 172.722 205.669 172.722 207.563V221.28L169.194 219.243V216.253C168.698 216.764 167.942 217.076 166.928 217.188C165.936 217.312 164.728 216.964 163.304 216.142ZM163.595 212.759C165.019 213.581 166.303 213.762 167.446 213.3C168.611 212.852 169.194 211.867 169.194 210.347L164.631 207.713C163.228 206.903 162.182 206.61 161.491 206.835C160.822 207.047 160.531 207.638 160.617 208.61C160.682 209.495 161.006 210.305 161.588 211.04C162.171 211.75 162.84 212.323 163.595 212.759Z" fill="#F7F6FF"/>
<path d="M175.424 222.84V197.012L179.146 199.161V224.989L175.424 222.84Z" fill="#F7F6FF"/>
<path fill-rule="evenodd" clip-rule="evenodd" d="M138.44 175.659L148.278 181.34C150.458 182.598 152.27 184.504 153.716 187.058C155.161 189.587 155.884 192.06 155.884 194.477C155.884 196.919 155.161 198.558 153.716 199.393C152.292 200.215 150.479 200.003 148.278 198.758L142.291 195.338V203.711L138.44 201.487V175.659ZM148.019 194.609L142.291 191.339V181.92L148.019 185.19C149.292 185.925 150.296 186.94 151.029 188.236C151.785 189.544 152.162 190.858 152.162 192.179C152.162 193.525 151.785 194.453 151.029 194.964C150.274 195.45 149.271 195.331 148.019 194.609Z" fill="#F7F6FF"/>
<path d="M39.4953 111.208C38.4489 110.604 37.4453 110.504 36.7053 110.932L25.0822 117.643C24.642 117.897 24.4219 118.436 24.4219 119.102C24.4219 119.768 24.642 120.562 25.0822 121.324L32.6992 134.517V118.946C32.6992 117.784 33.5086 117.31 34.515 117.891C38.7666 120.345 49.1157 126.32 50.5273 127.135L58.8047 122.356L39.4953 111.208Z" fill="#F7F6FF"/>
<path d="M32.6998 137.429L48.7057 146.67C49.7121 147.251 50.5279 146.78 50.5279 145.618V130.047L58.1449 143.24C58.5851 144.002 58.8052 144.796 58.8052 145.462C58.8052 146.128 58.5851 146.667 58.1449 146.922L46.5218 153.632C45.7818 154.06 44.7783 153.96 43.7318 153.356L24.4224 142.208L32.6998 137.429Z" fill="#F7F6FF"/>
<path d="M131.49 124.548L138.647 120.418L145.803 116.289L307.475 209.625L300.318 213.756L293.162 217.887L131.49 124.548Z" fill="black"/>
<mask id="mask0_6297_91967" style="mask-type:alpha" maskUnits="userSpaceOnUse" x="153" y="48" width="163" height="181">
<path d="M153.793 135.265V48.9141L315.983 120.998V228.374L153.793 135.265Z" fill="black"/>
</mask>
<g mask="url(#mask0_6297_91967)">
<path d="M213.267 200.367C186.61 184.507 165 146.506 165 115.487C165 84.4693 186.61 72.1807 213.267 88.0401C239.924 103.899 261.534 141.901 261.534 172.919C261.534 203.937 239.924 216.226 213.267 200.367Z" fill="white" stroke="#0D0B33" stroke-width="1.72736"/>
<path fill-rule="evenodd" clip-rule="evenodd" d="M237.351 151.936C238.357 144.74 233.229 137.599 226.218 130.763L228.492 121.541L222.937 116.736L220.723 125.715C219.265 124.453 217.765 123.191 216.275 121.938L218.506 112.901L212.956 108.099L210.68 117.315C209.471 116.3 208.285 115.301 207.133 114.305L207.14 114.276L199.481 107.647L198.004 113.643C198.004 113.643 202.124 117.112 202.037 117.129C204.286 119.076 204.695 121.03 204.625 122.352L202.034 132.857C202.189 132.993 202.39 133.174 202.612 133.404L202.026 132.898L198.393 147.612C198.118 148.242 197.421 149.023 195.848 147.666C195.904 147.791 191.812 144.172 191.812 144.172L189.055 149.923L196.283 156.176C197.099 156.883 197.905 157.591 198.702 158.292L198.703 158.292L198.705 158.294C199.22 158.747 199.732 159.196 200.241 159.641L197.942 168.97L203.489 173.771L205.767 164.544C207.281 165.893 208.751 167.181 210.191 168.424L207.923 177.607L213.476 182.411L215.774 173.103C225.243 180.64 232.366 183.917 235.36 175.758C237.775 169.19 235.241 163.133 230.259 157.26C233.887 158.385 236.62 157.207 237.349 151.935L237.351 151.936ZM208.646 158.81L208.646 158.81L208.645 158.809C208.24 158.452 207.878 158.132 207.568 157.864L210.618 145.509C210.996 145.837 211.458 146.223 211.982 146.661L211.982 146.661C216.668 150.581 226.272 158.614 224.663 165.155L224.661 165.154C223.085 171.552 213.176 162.808 208.646 158.81ZM212.924 140.655C216.704 144.001 224.942 151.296 226.377 145.486C227.845 139.541 219.833 132.868 215.921 129.61C215.481 129.243 215.093 128.92 214.776 128.646L212.011 139.852C212.273 140.079 212.58 140.35 212.924 140.655Z" fill="black"/>
<path d="M213.267 88.0401C200.083 80.1966 188.134 79.2379 179.423 84.0249L189.003 78.577C207.853 67.8581 238.414 86.0401 257.263 119.187C276.113 152.335 276.113 187.896 257.263 198.614L248.049 203.854C248.05 203.848 248.05 203.842 248.051 203.835C256.4 198.706 261.534 188.037 261.534 172.919C261.534 141.901 239.924 103.899 213.267 88.0401Z" fill="#79EFBD" stroke="#0D0B33" stroke-width="1.72736"/>
<path d="M261.225 166.337L271.092 160.864C270.953 155.584 270.353 151.772 268.317 143.56L257.904 149.351C259.576 155.061 260.712 160.774 261.225 166.337Z" fill="#0D0B33"/>
<path d="M253.434 136.947L263.09 131.297C252.769 109.155 244.882 98.7375 226.53 84.3018L216.511 90.0943C231.915 100.448 245.343 118.035 253.434 136.947Z" fill="#0D0B33"/>
</g>
</g>
<defs>
<filter id="filter0_f_6297_91967" x="7.10254" y="405.045" width="421.634" height="245.432" filterUnits="userSpaceOnUse" color-interpolation-filters="sRGB">
<feFlood flood-opacity="0" result="BackgroundImageFix"/>
<feBlend mode="normal" in="SourceGraphic" in2="BackgroundImageFix" result="shape"/>
<feGaussianBlur stdDeviation="1" result="effect1_foregroundBlur_6297_91967"/>
</filter>
<filter id="filter1_f_6297_91967" x="59.1816" y="41.248" width="397.121" height="524.253" filterUnits="userSpaceOnUse" color-interpolation-filters="sRGB">
<feFlood flood-opacity="0" result="BackgroundImageFix"/>
<feBlend mode="normal" in="SourceGraphic" in2="BackgroundImageFix" result="shape"/>
<feGaussianBlur stdDeviation="0.5" result="effect1_foregroundBlur_6297_91967"/>
</filter>
<filter id="filter2_f_6297_91967" x="79.1816" y="21.2471" width="397.121" height="524.253" filterUnits="userSpaceOnUse" color-interpolation-filters="sRGB">
<feFlood flood-opacity="0" result="BackgroundImageFix"/>
<feBlend mode="normal" in="SourceGraphic" in2="BackgroundImageFix" result="shape"/>
<feGaussianBlur stdDeviation="0.5" result="effect1_foregroundBlur_6297_91967"/>
</filter>
<filter id="filter3_f_6297_91967" x="99.1821" y="1.24805" width="397.121" height="524.253" filterUnits="userSpaceOnUse" color-interpolation-filters="sRGB">
<feFlood flood-opacity="0" result="BackgroundImageFix"/>
<feBlend mode="normal" in="SourceGraphic" in2="BackgroundImageFix" result="shape"/>
<feGaussianBlur stdDeviation="0.5" result="effect1_foregroundBlur_6297_91967"/>
</filter>
<linearGradient id="paint0_linear_6297_91967" x1="232.833" y1="459.572" x2="690.833" y2="977.572" gradientUnits="userSpaceOnUse">
<stop stop-color="#3A17CA"/>
<stop offset="1" stop-color="#3A17CA" stop-opacity="0"/>
</linearGradient>
<linearGradient id="paint1_linear_6297_91967" x1="-37.7814" y1="6.21156" x2="-128.528" y2="223.331" gradientUnits="userSpaceOnUse">
<stop stop-color="white"/>
<stop offset="1" stop-color="white" stop-opacity="0"/>
</linearGradient>
<linearGradient id="paint2_linear_6297_91967" x1="-17.7814" y1="-13.7894" x2="-108.528" y2="203.33" gradientUnits="userSpaceOnUse">
<stop stop-color="white"/>
<stop offset="1" stop-color="white" stop-opacity="0"/>
</linearGradient>
<linearGradient id="paint3_linear_6297_91967" x1="2.21911" y1="-33.7884" x2="-88.5273" y2="183.331" gradientUnits="userSpaceOnUse">
<stop stop-color="white"/>
<stop offset="1" stop-color="white" stop-opacity="0"/>
</linearGradient>
<clipPath id="clip0_6297_91967">
<rect width="497" height="652" fill="white" transform="translate(0 0.5)"/>
</clipPath>
</defs>
</svg>
