<svg xmlns="http://www.w3.org/2000/svg" width="25" height="24" fill="none"><path fill="#9E9DAD" fill-rule="evenodd" d="M12.504 0c-6.628 0-12 5.373-12 12s5.372 12 12 12c6.627 0 12-5.373 12-12s-5.373-12-12-12Zm-6.24 9.939h2.72v8.17h-2.72V9.94Zm2.9-2.528C9.145 6.611 8.572 6 7.641 6c-.93 0-1.538.61-1.538 1.411 0 .785.59 1.413 1.503 1.413h.018c.948 0 1.538-.628 1.538-1.413Zm6.497 2.336c1.789 0 3.13 1.168 3.13 3.678v4.685h-2.719v-4.372c0-1.098-.393-1.847-1.378-1.847-.751 0-1.199.505-1.395.993-.072.175-.09.418-.09.663v4.563h-2.72s.036-7.404 0-8.17h2.72v1.157c.361-.557 1.008-1.35 2.452-1.35Z" clip-rule="evenodd"/></svg>