<svg xmlns="http://www.w3.org/2000/svg" width="28" height="20" fill="none"><path fill="#fff" d="M27.23 4.666s-.268-1.893-1.094-2.724C25.091.848 23.922.842 23.386.778 19.545.5 13.78.5 13.78.5h-.011S8.005.5 4.165.778c-.536.065-1.705.07-2.75 1.164-.826.831-1.09 2.724-1.09 2.724S.048 6.892.048 9.112v2.08c0 2.22.273 4.446.273 4.446s.269 1.894 1.089 2.725c1.046 1.094 2.419 1.056 3.03 1.174 2.199.21 9.336.274 9.336.274s5.77-.011 9.61-.285c.537-.064 1.706-.07 2.751-1.163.826-.831 1.094-2.725 1.094-2.725s.274-2.22.274-4.445V9.112c0-2.22-.274-4.446-.274-4.446ZM10.94 13.72V6.002l7.416 3.872-7.417 3.845Z" opacity=".6"/></svg>