<svg xmlns="http://www.w3.org/2000/svg" width="445" height="290" fill="none"><path fill="#F7F6FF" stroke="#0D0B33" stroke-linejoin="round" stroke-width="1.424" d="M273.899 222.138c0 5.292-1.749 9.566-5.242 11.586l-92.245 53.261c-5.875 3.392-13.841 2.603-22.142-2.191L1.02 196.311l65.693-37.925 127.033 73.34c7.988 4.609 14.46.875 14.46-8.351V99.799l17.177 29.745 43.281 74.99c3.486 6.024 5.235 12.319 5.235 17.604Z"/><path fill="#79EFBD" stroke="#0D0B33" stroke-linejoin="round" stroke-width="1.424" d="M443.895 123.983c0 5.292-1.75 9.567-5.243 11.587l-92.245 53.26-77.742 44.867c3.493-2.02 5.242-6.294 5.242-11.586 0-5.292-1.749-11.58-5.242-17.633l-43.274-74.961L208.207 99.8l48.516-28.01L378.201 1.645l60.458 104.734c3.486 6.025 5.236 12.32 5.236 17.604Z"/></svg>