<svg xmlns="http://www.w3.org/2000/svg" width="28" height="23" fill="none"><path fill="#fff" d="M8.77 22.31c10.36 0 16.026-8.584 16.026-16.026 0-.242-.005-.488-.016-.73a11.439 11.439 0 0 0 2.81-2.916 11.106 11.106 0 0 1-3.233.885A5.664 5.664 0 0 0 26.834.408a11.324 11.324 0 0 1-3.576 1.367 5.64 5.64 0 0 0-9.603 5.136A15.999 15.999 0 0 1 2.047 1.03 5.64 5.64 0 0 0 3.79 8.547a5.64 5.64 0 0 1-2.552-.703v.07a5.63 5.63 0 0 0 4.52 5.524 5.599 5.599 0 0 1-2.542.096 5.644 5.644 0 0 0 5.26 3.915 11.298 11.298 0 0 1-8.343 2.33 15.98 15.98 0 0 0 8.638 2.53Z" opacity=".6"/></svg>