<svg xmlns="http://www.w3.org/2000/svg" width="29" height="22" fill="none"><path fill="#F7F6FF" d="M23.849 2.202A22.174 22.174 0 0 0 18.184.401c-.244.446-.53 1.047-.726 1.524a20.557 20.557 0 0 0-6.278 0 16.373 16.373 0 0 0-.734-1.524 22.099 22.099 0 0 0-5.669 1.806C1.192 7.689.221 13.034.707 18.304c2.377 1.797 4.681 2.888 6.947 3.603a17.527 17.527 0 0 0 1.488-2.48 14.556 14.556 0 0 1-2.343-1.154c.196-.147.388-.301.574-.46 4.518 2.138 9.427 2.138 13.89 0 .188.159.38.313.575.46-.743.453-1.529.841-2.348 1.156.43.87.927 1.7 1.489 2.48 2.267-.714 4.573-1.806 6.951-3.605.57-6.109-.974-11.406-4.081-16.102ZM9.757 15.063c-1.356 0-2.468-1.281-2.468-2.841 0-1.56 1.088-2.844 2.468-2.844s2.492 1.281 2.469 2.844c.002 1.56-1.089 2.841-2.469 2.841Zm9.122 0c-1.356 0-2.468-1.281-2.468-2.841 0-1.56 1.088-2.844 2.468-2.844s2.492 1.281 2.469 2.844c0 1.56-1.089 2.841-2.469 2.841Z" opacity=".6"/></svg>