<svg xmlns="http://www.w3.org/2000/svg" width="22" height="22" fill="none"><path fill="#9E9DAD" d="M16.61 4.29a1.26 1.26 0 1 0 0 2.52 1.26 1.26 0 0 0 0-2.52Z"/><path fill="#9E9DAD" fill-rule="evenodd" d="M5.613 11.155a5.392 5.392 0 1 1 10.784 0 5.392 5.392 0 0 1-10.784 0Zm8.892 0a3.5 3.5 0 1 0-7 0 3.5 3.5 0 0 0 7 0Z" clip-rule="evenodd"/><path fill="#9E9DAD" fill-rule="evenodd" d="M11.005.655c-2.852 0-3.21.012-4.33.063-1.118.051-1.88.228-2.548.488a5.141 5.141 0 0 0-1.86 1.21 5.154 5.154 0 0 0-1.212 1.86c-.26.668-.438 1.432-.488 2.55-.05 1.12-.063 1.477-.063 4.329 0 2.851.013 3.208.063 4.328.052 1.118.229 1.881.488 2.549.269.69.627 1.276 1.211 1.86.584.584 1.17.943 1.86 1.212.668.26 1.43.436 2.548.487 1.12.051 1.478.064 4.33.064 2.851 0 3.208-.013 4.328-.064 1.118-.05 1.882-.228 2.55-.488a5.138 5.138 0 0 0 1.859-1.211 5.155 5.155 0 0 0 1.211-1.86c.259-.668.436-1.431.488-2.549.05-1.12.064-1.477.064-4.328 0-2.852-.013-3.21-.064-4.33-.052-1.118-.23-1.88-.488-2.548a5.153 5.153 0 0 0-1.211-1.86 5.132 5.132 0 0 0-1.86-1.211c-.67-.26-1.433-.437-2.55-.488C14.21.668 13.854.655 11 .655h.004Zm-.942 1.892h.942c2.803 0 3.136.01 4.243.06 1.024.047 1.58.218 1.95.362.49.19.839.418 1.206.785.367.368.595.718.786 1.208.143.37.315.925.361 1.949.05 1.107.062 1.44.062 4.241 0 2.803-.011 3.135-.062 4.242-.047 1.024-.218 1.58-.361 1.949-.19.49-.419.839-.786 1.206a3.247 3.247 0 0 1-1.207.785c-.37.145-.925.316-1.95.362-1.106.05-1.439.061-4.242.061-2.804 0-3.136-.01-4.243-.06-1.024-.048-1.58-.219-1.95-.363-.49-.19-.84-.418-1.207-.785a3.255 3.255 0 0 1-.786-1.207c-.144-.37-.315-.925-.362-1.949-.05-1.107-.06-1.44-.06-4.243 0-2.804.01-3.135.06-4.242.047-1.024.218-1.58.362-1.95.19-.49.418-.84.786-1.207a3.259 3.259 0 0 1 1.207-.786c.37-.144.926-.315 1.95-.362.969-.043 1.344-.056 3.3-.059v.003Z" clip-rule="evenodd"/></svg>