<svg xmlns="http://www.w3.org/2000/svg" width="445" height="290" fill="none"><path fill="#F7F6FF" stroke="#0D0B33" stroke-linejoin="round" stroke-width="1.424" d="m273.676 192.54-65.693 37.925-20.015-11.565L80.9 157.083c-7.988-4.609-14.41-.846-14.41 8.379v123.577L6.03 184.332C2.54 178.287.79 171.985.79 166.7c0-5.285 1.75-9.567 5.242-11.587l92.245-53.26c5.875-3.393 13.834-2.603 22.142 2.198l98.867 57.087 17.17 9.915 37.221 21.487Z"/><path fill="#BFFFE4" stroke="#0D0B33" stroke-linejoin="round" stroke-width="1.424" d="m443.67 94.377-65.693 37.925-104.301 60.23-37.192-21.473-17.171-9.915-98.866-57.087c-8.308-4.801-16.267-5.59-22.142-2.198l77.749-44.895 92.245-53.26C274.174.318 282.133 1.1 290.441 5.9L443.67 94.377Z"/></svg>