<svg width="3659" height="2064" viewBox="0 0 3659 2064" fill="none" xmlns="http://www.w3.org/2000/svg">
<path d="M1788.38 10.3032C1810.99 -2.4492 1847.64 -2.44921 1870.25 10.3032L3641.06 1009.12C3663.67 1021.87 3663.67 1042.55 3641.06 1055.3L1870.25 2054.12C1847.64 2066.87 1810.99 2066.87 1788.38 2054.12L17.5694 1055.3C-5.03946 1042.55 -5.03937 1021.87 17.5694 1009.12L1788.38 10.3032Z" fill="#0D0B33"/>
<path d="M1788.38 10.3032C1810.99 -2.4492 1847.64 -2.44921 1870.25 10.3032L3641.06 1009.12C3663.67 1021.87 3663.67 1042.55 3641.06 1055.3L1870.25 2054.12C1847.64 2066.87 1810.99 2066.87 1788.38 2054.12L17.5694 1055.3C-5.03946 1042.55 -5.03937 1021.87 17.5694 1009.12L1788.38 10.3032Z" fill="url(#paint0_linear_6671_97716)"/>
<defs>
<linearGradient id="paint0_linear_6671_97716" x1="1811.32" y1="1161.21" x2="1821.61" y2="1844.99" gradientUnits="userSpaceOnUse">
<stop offset="0.318129" stop-color="#7554FC" stop-opacity="0"/>
<stop offset="1" stop-color="#7554FC" stop-opacity="0.17"/>
</linearGradient>
</defs>
</svg>
