<svg xmlns="http://www.w3.org/2000/svg" width="285" height="61" fill="none"><path fill="#fff" fill-rule="evenodd" d="M181.708 15.358c1.794.09 3.539.43 5.176 1.227a12.237 12.237 0 0 1 3.592 2.637c1.468 1.563 2.391 3.424 2.867 5.509l.092.45.164.932c-.775.053-1.435-.144-2.077-.395-.926-.362-1.736-.907-2.475-1.556l-.364-.333c-.569-.54-1.168-1.056-1.695-1.635-.922-1.012-1.999-1.772-3.319-2.13-.673-.181-1.378-.253-2.072-.343-1.417-.184-2.793.05-4.114.546a7.522 7.522 0 0 0-3.146 2.238 9.858 9.858 0 0 0-1.84 3.323c-.353 1.076-.608 2.18-.636 3.322-.022.893-.116 1.79-.058 2.679.118 1.775.43 3.51 1.212 5.145.899 1.877 2.222 3.312 4.139 4.128.427.181.88.305 1.34.408l.921.191a7.459 7.459 0 0 0 1.607.146c1.185-.021 2.37-.163 3.449-.671.66-.31 1.278-.75 1.836-1.225.679-.576 1.256-1.27 1.91-1.877 1.153-1.069 2.365-2.061 3.926-2.485.221-.06.447-.106.686-.15l.771-.142-.136.96c-.016.096-.033.19-.054.285-.232 1.082-.574 2.13-1.083 3.117a11.834 11.834 0 0 1-3.853 4.379c-1.47 1.014-3.109 1.6-4.867 1.913-1.379.245-2.765.264-4.144.183a12.373 12.373 0 0 1-4.788-1.283 12.006 12.006 0 0 1-2.538-1.72c-1.387-1.206-2.43-2.667-3.231-4.295-.667-1.354-1.151-2.788-1.337-4.298a49.081 49.081 0 0 1-.286-3.18c-.045-.792-.065-1.594.002-2.382.155-1.83.495-3.627 1.198-5.34.588-1.43 1.345-2.764 2.352-3.938 1.779-2.073 3.989-3.43 6.685-4a16.255 16.255 0 0 1 4.188-.34Zm-44.148.688v.497c0 6.299.011 12.598-.009 18.897-.004 1.508-.114 3.02-.589 4.467a9.832 9.832 0 0 1-1.691 3.12c-1.079 1.34-2.45 2.216-4.086 2.704-.908.271-1.834.413-2.786.429-1.446.024-2.868-.086-4.24-.583a8.483 8.483 0 0 1-2.545-1.481c-.876-.727-1.539-1.615-2.065-2.601a9.377 9.377 0 0 1-1.069-3.448l-.199-2.141.304-.017.12-.003c1.359 0 2.718.01 4.077-.008.294-.004.411.085.431.312l.003.126a6.558 6.558 0 0 0 .733 3.282c.697 1.351 1.826 2.062 3.356 2.2a5.799 5.799 0 0 0 2.258-.23c.908-.278 1.589-.86 2.083-1.65a6.155 6.155 0 0 0 .962-3.062l.056-1.205c.008-.2.013-.402.013-.603l-.002-9.636c.002-1.606.007-3.212.019-4.818.01-1.38.659-2.514 1.721-3.407.672-.565 1.429-.933 2.303-1.049l.539-.06.303-.032Zm-41.523.026c.235-.002.367.07.482.283l1.616 2.985 2.893 5.302 6.948 12.7V16.095c.763-.074 1.424.13 2.06.445 1.431.709 2.243 1.884 2.534 3.43.069.364.079.742.079 1.113l.003 23.922c0 .44 0 .489-.35.494h-.148c-1.396 0-2.792-.013-4.187.012-.314.005-.492-.107-.626-.354l-2.725-5.03-2.998-5.479-2.871-5.228-2.454-4.538-.391-.67V45.02c0 .425 0 .473-.335.478H91.26v-29.4l.298-.02 4.478-.006Zm163.967.037.809-.093-.928 2.81-8.156 24.568c-.206.62-.427 1.236-.611 1.863-.058.197-.143.245-.325.244-1.371-.004-2.743-.008-4.114.004-.257.002-.323-.139-.388-.333l-2.159-6.525-5.72-17.221-1.684-5.113-.052-.222c.823-.071 1.595.094 2.335.362a7.225 7.225 0 0 1 2.676 1.678c.881.882 1.46 1.94 1.838 3.113l.552 1.747 2.943 9.423a4532.6 4532.6 0 0 0 1.605 5.121l.027.067.083.17 1.055-3.387 2.007-6.375c.628-2.004 1.259-4.008 1.871-6.017.303-.991.625-1.969 1.225-2.83 1.076-1.544 2.538-2.517 4.364-2.934.243-.056.49-.09.747-.12Zm-176.288-.027.533.015v28.917c0 .43 0 .479-.33.484h-.14c-1.347 0-2.694-.006-4.04.007-.29.002-.375-.088-.375-.376.007-8.152-.006-16.306.02-24.459.004-1.091.443-2.073 1.177-2.92.783-.902 1.765-1.422 2.917-1.647l.238-.021Zm200.206.023c.097.582-.09 1.128-.314 1.647-.616 1.436-1.755 2.248-3.242 2.614l-.107.013-.22-.006h-8.238v8.29h12.135v4.362h-12.128v8.09h12.108v4.367l-.342.016-16.241.005c-.287 0-.437-.032-.437-.385.009-9.601.007-19.203.008-28.804l.009-.21h17.009Zm-53.459-.085v29.467h-4.802l-.012-9.696.006-8.271-.005-3.022.003-3.023c.004-.8-.003-1.604.324-2.367.628-1.466 1.711-2.42 3.226-2.877l.402-.091.858-.12Zm-10.991.056v4.505h-8.552v24.901h-4.816V20.597h-8.521c-.076-1.04.252-1.921.838-2.7a4.503 4.503 0 0 1 2.568-1.705c.276-.069.566-.11.849-.111l17.634-.005Zm-58.393.023c.034.93-.276 1.74-.79 2.475-.692.988-1.676 1.54-2.841 1.79-.105.022-.218.009-.327.009h-8.176v8.302h12.11v4.363H148.94v8.076h12.12v4.366h-16.919V16.1h16.938Z" clip-rule="evenodd"/><path fill="#fff" d="M7.695 10.64c.373-.469.767-.92 1.162-1.37.018-.022.058-.027.076-.049.035-.045.093-.071.128-.116l.036-.045c.275-.254.568-.53.906-.772 1.194-.907 2.434-1.596 3.741-2.05 4.193-1.471 8.86-.564 12.52 2.891 5.111 4.79 4.654 12.508.574 17.638-5.155 7.646-14.015 18.315-1.748 27.872 2.206 1.718 3.842 3.135 10.79 5.142-4.545.837-8.758.577-13.447-.62-3.317-1.873-8.533-5.882-10.307-11.297-2.682-8.21 4.721-20.485 8.3-25.212 4.911-6.543-3.037-13.625-8.889-5.718-3.059 4.12-8.41 15.78-6.55 24.43 1.087 4.905 2.536 8.48 8.283 13.392a27.206 27.206 0 0 1-3.104-2.14C-3.186 40.178-1.637 20.948 7.695 10.64Z"/><path fill="#fff" d="M53.146 49.9a37.9 37.9 0 0 1-1.163 1.369c-.017.022-.057.027-.075.049-.035.045-.093.071-.129.116l-.035.045c-.276.254-.568.531-.906.772-1.194.907-2.434 1.596-3.742 2.05-4.192 1.471-8.86.564-12.52-2.891-5.11-4.79-4.653-12.508-.573-17.637C39.158 26.126 48.018 15.457 35.75 5.9 33.545 4.182 31.909 2.765 24.96.758c4.544-.837 8.757-.577 13.447.62 3.317 1.873 8.532 5.882 10.307 11.296 2.681 8.211-4.722 20.486-8.3 25.213-4.912 6.543 3.037 13.625 8.888 5.718 3.06-4.12 8.41-15.78 6.55-24.43-1.086-4.905-2.536-8.48-8.282-13.392 1.065.63 2.1 1.342 3.104 2.14 13.352 12.438 11.803 31.668 2.47 41.976Z"/></svg>