<svg xmlns="http://www.w3.org/2000/svg" width="128" height="213" fill="none"><path fill="#fff" stroke="#000" stroke-miterlimit="10" stroke-width=".909" d="m39.358 65.719 87.247 50.674-38.358 22.416L1 88.14 39.358 65.72Z"/><rect width="21.155" height="21.155" fill="#000" stroke="#000" stroke-width="1.425" rx="10.578" transform="matrix(.86603 .5 -.8725 .48862 35.648 75.32)"/><rect width="21.155" height="21.155" fill="#000" stroke="#000" stroke-width="1.425" rx="10.578" transform="matrix(.86603 .5 -.8725 .48862 91.383 107.086)"/><path fill="#F7F6FF" stroke="#000" stroke-miterlimit="10" stroke-width=".909" d="m1 161.327 87.247 50.675v-73.193L1 88.141v73.186Z"/><path fill="#79EFBD" stroke="#000" stroke-miterlimit="10" stroke-width=".909" d="m88.246 138.806 38.358-22.415v73.192l-38.358 22.415v-73.192Z"/><path fill="#F7F6FF" stroke="#000" stroke-miterlimit="10" stroke-width=".909" d="M100.944 122.368c-4.945 3.296-14.534 2.996-19.18 0V55.023a38.477 38.477 0 0 0-19.089-33.168 12.329 12.329 0 0 0-18.52 10.663v58.817C38.762 93.9 30.072 93.6 24.978 90.004V32.518A31.508 31.508 0 0 1 72.325 5.27a57.724 57.724 0 0 1 28.637 49.746l-.018 67.351Z"/><path fill="#79EFBD" stroke="#000" stroke-width=".909" d="M36.664 38.459v54.54c3.36-.222 5.003-.678 7.492-2.098V33.064s-.6-6.293 4.195-9.889c5.436-4.076 10.489-2.997 10.489-2.997s-7.192-2.996-13.485.6c-4.857 2.775-8.69 8.69-8.69 17.68Z"/></svg>