<svg xmlns="http://www.w3.org/2000/svg" width="160" height="36" fill="none"><path fill="#F7F6FF" d="M57.967 30.181c-2.834 0-5.957-.96-9.371-2.879v-4.15c3.213 2.164 6.348 3.246 9.405 3.246 1.405 0 2.52-.256 3.346-.77.848-.535 1.272-1.271 1.272-2.209 0-.848-.39-1.517-1.171-2.008-.781-.513-1.986-.97-3.615-1.373-2.923-.758-4.908-1.405-5.957-1.941-2.32-1.183-3.48-2.957-3.48-5.322 0-2.031.858-3.638 2.576-4.82 1.718-1.183 3.838-1.775 6.36-1.775 3.078 0 5.856.893 8.333 2.678v4.151c-2.834-2.053-5.612-3.08-8.334-3.08-1.428 0-2.61.268-3.548.804-.937.535-1.405 1.283-1.405 2.243 0 .58.268 1.082.803 1.506a6.563 6.563 0 0 0 1.74.937c.647.201 1.607.458 2.879.77 1.338.335 2.443.658 3.313.97.892.313 1.796.748 2.71 1.306.916.536 1.596 1.216 2.042 2.042.469.826.703 1.808.703 2.946 0 2.12-.814 3.771-2.443 4.954-1.606 1.183-3.66 1.774-6.158 1.774ZM74.626 30.181c-.78 0-1.54-.09-2.276-.268a8.258 8.258 0 0 1-2.075-.837c-.669-.401-1.216-.97-1.64-1.707-.424-.759-.635-1.64-.635-2.644-.023-1.808.602-3.18 1.874-4.117 1.272-.96 3.09-1.44 5.455-1.44h5.389v-1.071c0-.982-.402-1.718-1.205-2.21-.804-.513-1.841-.77-3.113-.77-2.432 0-3.849.804-4.25 2.411l-3.682.067c.045-1.763.814-3.158 2.31-4.184 1.517-1.027 3.369-1.54 5.555-1.54 2.209 0 4.094.535 5.656 1.607 1.584 1.07 2.376 2.454 2.376 4.15v12.285h-3.647v-2.678c-.514.714-1.295 1.384-2.343 2.009-1.027.625-2.276.937-3.749.937Zm.301-3.18c1.473 0 2.8-.502 3.983-1.506 1.205-1.005 1.808-2.187 1.808-3.549h-4.72c-1.45 0-2.532.28-3.246.837-.692.536-.993 1.216-.904 2.042.067.759.402 1.317 1.005 1.674.602.335 1.294.502 2.075.502ZM87.31 29.913l-.067-14.427V11.57c0-2.12.87-3.716 2.61-4.787 1.74-1.071 4.039-1.25 6.895-.536l-.034 2.946c-1.852-.49-3.257-.49-4.217 0-.937.469-1.406 1.272-1.406 2.41v.57h5.49v3.313h-5.49l.034 14.427H87.31ZM106.699 30.181c-2.543 0-4.696-.893-6.459-2.678-1.763-1.808-2.644-3.972-2.644-6.494 0-2.544.892-4.697 2.677-6.46 1.785-1.785 3.927-2.678 6.426-2.678 2.209 0 4.15.725 5.824 2.176 1.695 1.428 2.733 3.224 3.112 5.389.223 1.049.235 2.053.034 3.013h-14.258c.223 1.316.826 2.365 1.808 3.146.981.759 2.142 1.138 3.48 1.138 2.053 0 3.693-.725 4.92-2.176h3.453s-.399 2.346-3.453 4.352c-1.562.848-3.202 1.272-4.92 1.272Zm-5.288-10.712h10.476c-.223-1.182-.815-2.175-1.774-2.979-.937-.803-2.086-1.205-3.447-1.205-1.361 0-2.521.413-3.481 1.239-.959.803-1.551 1.785-1.774 2.945ZM143.617 30.181c-.781 0-1.539-.09-2.275-.268a8.25 8.25 0 0 1-2.075-.837c-.67-.401-1.216-.97-1.64-1.707-.424-.759-.636-1.64-.636-2.644-.023-1.808.602-3.18 1.874-4.117 1.272-.96 3.09-1.44 5.455-1.44h5.389v-1.071c0-.982-.402-1.718-1.205-2.21-.804-.513-1.841-.77-3.113-.77-2.432 0-3.849.804-4.25 2.411l-3.682.067c.045-1.763.815-3.158 2.31-4.184 1.517-1.027 3.369-1.54 5.555-1.54 2.209 0 4.095.535 5.656 1.607 1.585 1.07 2.377 2.454 2.377 4.15v12.285h-3.648v-2.678c-.514.714-1.295 1.384-2.343 2.009-1.027.625-2.276.937-3.749.937Zm.302-3.18c1.472 0 2.8-.502 3.982-1.506 1.205-1.005 1.808-2.187 1.808-3.549h-4.719c-1.451 0-2.533.28-3.247.837-.692.536-.993 1.216-.903 2.042.066.759.401 1.317 1.004 1.674.602.335 1.294.502 2.075.502ZM156.151 29.913V6.783H160v23.13h-3.849Z"/><path fill="#F7F6FF" fill-rule="evenodd" d="M117.906 6.783h10.174c2.253 0 4.128.77 5.622 2.31 1.495 1.517 2.243 3.358 2.243 5.523 0 2.187-.748 4.028-2.243 5.523-1.472 1.473-3.346 2.22-5.622 2.243l-6.192.033v7.498h-3.982V6.783Zm9.906 12.017-5.924.033v-8.435l5.924-.033c1.316 0 2.354.39 3.113 1.171.781.781 1.171 1.763 1.171 2.946 0 1.205-.39 2.231-1.171 3.08-.781.825-1.819 1.238-3.113 1.238Z" clip-rule="evenodd"/><path fill="#F7F6FF" d="M15.587.222a4.08 4.08 0 0 0-2.885 1.195L.682 13.437A2.324 2.324 0 0 0 0 15.086c0 .596.228 1.193.683 1.648l7.877 7.877V10.666c0-1.04.837-1.884 1.877-1.884h16.559l8.56-8.56H15.586ZM8.56 27.218h16.552c1.04 0 1.884-.844 1.884-1.884V11.389l7.877 7.877c.455.455.683 1.052.683 1.648 0 .597-.228 1.194-.683 1.649l-12.02 12.02a4.08 4.08 0 0 1-2.885 1.195H0l8.56-8.56Z"/></svg>