<svg xmlns="http://www.w3.org/2000/svg" width="111" height="110" fill="none"><circle cx="55.434" cy="55" r="44.907" fill="#F7F6FF" stroke="#0D0B33" stroke-width="1.3" transform="rotate(-15 55.434 55)"/><path fill="#79EFBD" d="M67.053 98.377c23.956-6.419 38.173-31.043 31.754-55-3.362-12.546-11.717-22.421-22.355-28.06 12.035 34.755-2.942 65.615-37.676 81.391a44.709 44.709 0 0 0 28.277 1.67Z"/><path stroke="#0D0B33" stroke-width="1.3" d="M38.776 96.708a44.709 44.709 0 0 0 28.277 1.67c23.956-6.42 38.173-31.044 31.754-55-3.362-12.547-11.717-22.422-22.355-28.06m-37.676 81.39c34.734-15.776 49.71-46.636 37.676-81.39m-37.676 81.39c-.246-.098-.491-.199-.736-.302m38.412-81.089a46.336 46.336 0 0 0-.641-.333"/><ellipse cx="45.336" cy="25.931" fill="#0D0B33" rx="1.897" ry="2.53" transform="rotate(49.064 45.336 25.931)"/><ellipse cx="25.094" cy="23.962" fill="#0D0B33" rx="1.897" ry="2.53" transform="rotate(49.064 25.094 23.962)"/><ellipse cx="67.162" cy="88.549" fill="#0D0B33" rx="1.581" ry="1.265" transform="rotate(-6.626 67.162 88.549)"/><path fill="#0D0B33" d="M51.664 99.303c-.176.798-1.456.307-2.842 0-1.386-.306-2.71-.15-2.534-.949.177-.798 1.737-1.6 3.123-1.293 1.386.307 2.43 1.444 2.253 2.242ZM99.63 61.16c.79.212.243 1.47-.125 2.84-.367 1.372-.27 2.701-1.06 2.49-.79-.212-1.521-1.806-1.154-3.177.368-1.372 1.549-2.364 2.339-2.152Z"/><ellipse cx="45.975" cy="75.899" fill="#0D0B33" rx="2.53" ry="1.897" transform="rotate(25.569 45.975 75.9)"/><ellipse cx="26.355" cy="43.543" fill="#0D0B33" rx="3.623" ry="2.718" transform="rotate(103.887 26.355 43.543)"/><ellipse cx="11.82" cy="61.034" fill="#0D0B33" rx="1.265" ry="1.581"/><ellipse cx="85.511" cy="70.84" fill="#0D0B33" rx="1.581" ry="1.265" transform="rotate(-35.84 85.51 70.84)"/><ellipse cx="82.975" cy="82.223" fill="#0D0B33" rx=".949" ry=".632" transform="rotate(-39.172 82.975 82.223)"/><circle cx="86.457" cy="43.642" r=".632" fill="#0D0B33"/><circle cx="53.566" cy="20.873" r=".632" fill="#0D0B33"/><circle cx="84.554" cy="37.95" r="1.265" fill="#0D0B33"/><circle cx="32.691" cy="49.966" r="1.265" fill="#0D0B33"/><ellipse cx="93.726" cy="52.498" fill="#0D0B33" rx=".949" ry=".632" transform="rotate(-85.678 93.726 52.498)"/><ellipse cx="36.163" cy="80.327" fill="#0D0B33" rx=".949" ry=".632" transform="rotate(20.99 36.163 80.327)"/></svg>