<svg xmlns="http://www.w3.org/2000/svg" width="347" height="61" fill="none"><path fill="#fff" d="M41.15 2.654v32.37L.13 2.654V58.04h11.23V25.67l41.02 32.369V2.654H41.15ZM63.265 58.039V2.654h45.719v10.164h-33.92V24.45h33.92v10.163h-33.92v13.262h33.92v10.163H63.265ZM193.366 58.039 169.942 2.654h13.654l17.015 43.124 17.095-43.124H230.9L207.474 58.04h-14.108ZM333.517 17.876c-.858-2.497-2.505-4.582-4.649-5.884-2.071-1.196-4.949-1.794-8.633-1.794-4.188 0-7.385.56-9.593 1.68-2.214 1.113-3.326 2.745-3.326 4.875-.114 1.782.662 3.492 2.033 4.482 1.354.96 3.826 1.732 7.417 2.32l10.847 1.843c6.44 1.115 11.162 3.073 14.166 5.876 3.001 2.803 4.503 6.657 4.505 11.562 0 5.548-2.177 9.852-6.531 12.914-4.353 3.064-10.565 4.597-18.634 4.597-5.858 0-10.715-.746-14.574-2.238-3.863-1.49-6.816-3.757-8.86-6.8-2.041-3.041-3.258-6.906-3.65-11.596h11.883c.491 3.737 1.943 6.472 4.353 8.203 2.412 1.73 6.028 2.595 10.849 2.598 4.324 0 7.589-.631 9.774-1.884 2.192-1.246 3.288-3.107 3.288-5.557.06-1.85-.763-3.602-2.178-4.638-1.45-1.122-3.756-1.925-6.9-2.4l-8.861-1.36c-7.181-1.066-12.432-3-15.752-5.802-3.319-2.795-4.98-6.729-4.982-11.8-.051-3.25 1.001-6.408 2.956-8.874 1.965-2.508 4.83-4.442 8.594-5.803A39.723 39.723 0 0 1 320.53.356c7.182 0 12.74 1.295 16.676 3.884 3.931 2.582 6.514 6.646 7.748 12.193l-11.437 1.443Z"/><path fill="#fff" fill-rule="evenodd" d="M285.903 46.152c2.518-4.51 3.777-9.777 3.777-15.801.003-6.24-1.306-11.613-3.926-16.121-2.615-4.5-6.44-8.09-10.995-10.319-4.713-2.376-10.222-3.564-16.525-3.564-6.568-.003-12.23 1.237-16.986 3.72-4.552 2.28-8.352 5.93-10.917 10.483-2.524 4.501-3.786 9.768-3.786 15.8.003 6.24 1.314 11.614 3.935 16.122 2.613 4.501 6.439 8.091 10.995 10.317 4.705 2.372 10.213 3.558 16.525 3.558 6.569 0 12.231-1.238 16.986-3.712 4.552-2.28 8.352-5.93 10.917-10.483Zm-13.858-30.201c3.311 3.412 4.966 8.212 4.966 14.4-.003 6.13-1.658 10.916-4.966 14.358-3.308 3.442-7.937 5.163-13.889 5.163-6.009-.005-10.667-1.712-13.975-5.12-3.305-3.413-4.957-8.213-4.957-14.401-.004-6.139 1.649-10.925 4.957-14.36 3.313-3.441 7.945-5.162 13.897-5.162 6.003-.004 10.659 1.704 13.967 5.122ZM148.236 37.324l11.258 20.715h12.625l-12.988-22.964c3.322-1.391 5.788-3.33 7.4-5.817 1.611-2.485 2.417-5.587 2.417-9.305 0-11.533-7.192-17.299-21.577-17.299h-25.325V58.04h11.11V37.324h15.08Zm6.675-11.443c-1.804 1.27-4.606 1.906-8.405 1.906h-13.35v-15.59h13.498c3.895-.005 6.697.588 8.405 1.78 1.704 1.19 2.557 3.155 2.557 5.896s-.902 4.744-2.705 6.008Z" clip-rule="evenodd"/></svg>