<svg xmlns="http://www.w3.org/2000/svg" width="148" height="128" fill="none"><path fill="url(#a)" d="M117.291 91.464c-12.195 7.068-29.418 8.998-45.366 8.317-2.685-.115-9.577-1.513-12.601-3.529 0 0-16.64 3.42-18.65 3.025v-9.773a60.397 60.397 0 0 1-6.827-3.383c-22.244-12.894-22.244-33.799 0-46.692 22.244-12.894 55.907-9.502 78.151 3.392 22.245 12.894 23.44 39.317 5.293 48.643Z"/><path fill="#79EFBD" stroke="#0D0B33" stroke-width=".592" d="M107.058 91.725c-24.082 6.634-58.024-2.203-75.812-19.74-8.398-8.279-11.694-17.017-10.3-24.633l2.669-10.436c-1.894 7.849 1.311 16.998 10.084 25.647 17.788 17.537 51.73 26.375 75.812 19.74 11.827-3.259 19.077-9.643 21.284-17.375l.22-.842c-.067.282-.14.563-.22.842l-2.453 9.421c-2.207 7.732-9.457 14.117-21.284 17.376Z"/><path fill="#F7F6FF" stroke="#0D0B33" stroke-width=".592" d="M109.64 81.816c-24.082 6.635-58.024-2.203-75.812-19.74C16.04 44.54 21.142 24.947 45.224 18.312c24.081-6.635 58.023 2.203 75.811 19.74 17.788 17.536 12.686 37.13-11.395 43.765Z"/><path fill="#0D0B33" d="M23.28 38.536c-.504 9.073 2.52 14.366 7.309 20.415l-2.432 9.359c-4.835-5.74-7.338-9.14-7.841-18.737l2.964-11.037ZM34.37 62.771l3.885 3.397-2.625 9.92-4.033-3.529 2.772-9.788ZM85.774 28.21l8.381-2.78-7.622 15.558c-2.762 5.633-13.003 9.03-22.878 7.59l-27.268-3.984 8.388-2.783 20.71 3.028c3.013.436 6.221.177 8.932-.723 2.71-.899 4.706-2.366 5.555-4.083l5.802-11.823ZM71.972 69.022l-8.386 2.782 7.675-15.657c2.762-5.632 13.003-9.03 22.878-7.59l27.435 4.01-8.381 2.78-20.885-3.05c-3.012-.436-6.22-.177-8.932.722-2.71.9-4.706 2.366-5.554 4.084l-5.85 11.919Z"/><defs><linearGradient id="a" x1="-10.784" x2="-4.388" y1="38.6" y2="92.254" gradientUnits="userSpaceOnUse"><stop stop-color="#fff"/><stop offset="1" stop-color="#fff" stop-opacity="0"/></linearGradient></defs></svg>