<svg width="219" height="335" viewBox="0 0 219 335" fill="none" xmlns="http://www.w3.org/2000/svg">
<path d="M193.412 319.613C159.814 339.064 105.342 339.064 71.7449 319.613C38.1475 300.162 38.1475 268.625 71.7449 249.174C105.342 229.723 159.814 229.723 193.412 249.174C227.009 268.625 227.009 300.162 193.412 319.613Z" fill="#EFEFEF"/>
<path d="M140.213 298.857C108.384 317.232 56.7785 317.232 24.9494 298.857C9.92281 290.182 1.99031 278.962 1.15192 267.601L1.08203 251.753C1.29571 263.63 9.2515 275.47 24.9494 284.532C56.7785 302.907 108.384 302.907 140.213 284.532C155.845 275.507 163.8 263.729 164.077 251.902V250.621C164.087 251.048 164.087 251.475 164.077 251.902V266.226C163.8 278.053 155.845 289.832 140.213 298.857Z" fill="#79EFBD" stroke="#0D0B33" stroke-width="0.870808"/>
<path d="M140.213 283.791C108.384 302.166 56.779 302.166 24.9499 283.791C-6.87914 265.416 -6.87914 235.625 24.9499 217.25C56.779 198.875 108.384 198.875 140.213 217.25C172.042 235.625 172.042 265.416 140.213 283.791Z" fill="#F7F6FF" stroke="#0D0B33" stroke-width="0.870808"/>
<path d="M98.078 264.368C98.5526 262.225 97.5474 259.984 95.0619 257.647C101.345 258.824 106.775 257.8 111.355 254.576C113.03 253.415 114.118 252.199 114.62 250.926C115.121 249.652 115.059 248.359 114.43 247.045C113.803 245.731 112.852 244.457 111.582 243.225C110.312 241.992 108.671 240.682 106.661 239.296L117.215 233.203L110.766 229.48L100.505 235.403C99.3881 234.759 97.6572 233.792 95.312 232.502L105.657 226.53L99.2067 222.807L88.6526 228.9C87.7029 228.384 86.3347 227.61 84.5479 226.579L75.7115 221.429L68.8429 225.394L73.4914 228.078C75.6134 229.303 75.9063 230.568 74.3709 231.874L62.3508 238.813C62.6304 238.974 62.8392 239.111 62.979 239.224L62.3086 238.837L45.4731 248.556C43.8263 249.249 42.3043 249.193 40.9081 248.387L36.2599 245.704L27.297 249.379L35.6733 254.215C36.2039 254.521 36.9641 254.968 37.9571 255.556C38.948 256.144 39.6945 256.583 40.1972 256.873L29.5177 263.039L35.9687 266.763L46.5226 260.67C47.6664 261.363 49.3558 262.354 51.5895 263.644L41.0778 269.712L47.527 273.435L58.2065 267.27C60.608 268.528 62.8474 269.58 64.9277 270.425C67.009 271.271 69.1865 271.973 71.4621 272.528C73.7367 273.084 75.9078 273.394 77.9738 273.459C80.0395 273.524 82.1822 273.326 84.4034 272.867C86.6222 272.407 88.8216 271.661 90.9992 270.629C95.2437 268.6 97.6029 266.512 98.078 264.368ZM87.8999 236.926C88.0954 237.039 88.6539 237.353 89.5754 237.869C90.4976 238.385 91.265 238.812 91.8793 239.15C92.4935 239.489 93.2683 239.977 94.2041 240.613C95.1394 241.25 95.8859 241.81 96.4443 242.294C97.0028 242.777 97.5408 243.354 98.0566 244.022C98.5741 244.691 98.8527 245.304 98.8941 245.859C98.9364 246.416 98.7755 247 98.4119 247.612C98.0494 248.225 97.4073 248.797 96.4861 249.329C95.7043 249.78 94.8667 250.119 93.9732 250.345C93.0806 250.571 92.1651 250.663 91.2304 250.623C90.2954 250.583 89.4005 250.502 88.5492 250.381C87.6983 250.261 86.7622 250.019 85.7436 249.656C84.7248 249.294 83.8523 248.967 83.1269 248.677C82.4008 248.387 81.5561 247.988 80.593 247.48C79.6296 246.972 78.9029 246.586 78.4148 246.32C77.9261 246.054 77.2772 245.679 76.467 245.195C75.6567 244.712 75.183 244.43 75.0431 244.349L87.9005 236.926L87.9 236.926L87.8999 236.926ZM76.991 263.558C76.0825 263.776 75.1823 263.901 74.2888 263.934C73.3957 263.965 72.4248 263.889 71.3786 263.703C70.3315 263.518 69.3751 263.304 68.5101 263.063C67.6433 262.821 66.6738 262.486 65.5991 262.06C64.5229 261.632 63.6097 261.241 62.8547 260.886C62.101 260.532 61.2291 260.093 60.2372 259.569C59.2472 259.045 58.4855 258.63 57.9553 258.324C57.4247 258.017 56.7621 257.626 55.966 257.151C55.1689 256.675 54.6599 256.373 54.4363 256.244L68.5927 248.072C68.8158 248.201 69.4926 248.576 70.6242 249.196C71.7556 249.817 72.6686 250.329 73.3667 250.732C74.0646 251.135 74.987 251.715 76.1317 252.473C77.2763 253.23 78.1843 253.898 78.8551 254.479C79.5246 255.059 80.1805 255.736 80.823 256.51C81.465 257.283 81.8425 257.993 81.9544 258.638C82.0653 259.283 81.9403 259.951 81.577 260.644C81.2151 261.338 80.5308 261.975 79.5253 262.555C78.7426 263.007 77.8993 263.341 76.991 263.558Z" fill="#0D0B33"/>
<path d="M1.07812 256.281C5.72693 267.993 9.31971 273.375 19.19 278.921V294.769C10.1776 288.39 5.35252 284.476 1.07812 270.997V256.281Z" fill="#0D0B33"/>
<path d="M25.9805 284.578L32.7724 287.974V303.822L25.9805 300.426V284.578Z" fill="#0D0B33"/>
<path d="M140.213 283.286C108.384 301.661 56.7785 301.661 24.9494 283.286C9.92281 274.611 1.99031 263.392 1.15192 252.031L1.08203 236.183C1.29571 248.06 9.2515 259.899 24.9494 268.962C56.7785 287.337 108.384 287.337 140.213 268.962C155.845 259.937 163.8 248.159 164.077 236.331V235.051C164.087 235.478 164.087 235.904 164.077 236.331V250.655C163.8 262.483 155.845 274.262 140.213 283.286Z" fill="#79EFBD" stroke="#0D0B33" stroke-width="0.870808"/>
<path d="M140.213 268.221C108.384 286.596 56.779 286.596 24.9499 268.221C-6.87914 249.846 -6.87914 220.055 24.9499 201.68C56.779 183.305 108.384 183.305 140.213 201.68C172.042 220.055 172.042 249.846 140.213 268.221Z" fill="#F7F6FF" stroke="#0D0B33" stroke-width="0.870808"/>
<path d="M98.078 248.798C98.5526 246.654 97.5474 244.414 95.0619 242.077C101.345 243.253 106.775 242.229 111.355 239.006C113.03 237.845 114.118 236.629 114.62 235.356C115.121 234.082 115.059 232.789 114.43 231.475C113.803 230.161 112.852 228.887 111.582 227.654C110.312 226.422 108.671 225.112 106.661 223.725L117.215 217.633L110.766 213.91L100.505 219.833C99.3881 219.188 97.6572 218.221 95.312 216.932L105.657 210.96L99.2067 207.236L88.6526 213.329C87.7029 212.813 86.3347 212.04 84.5479 211.008L75.7115 205.858L68.8429 209.824L73.4914 212.507C75.6134 213.732 75.9063 214.998 74.3709 216.303L62.3508 223.242C62.6304 223.404 62.8392 223.541 62.979 223.654L62.3086 223.267L45.4731 232.986C43.8263 233.679 42.3043 233.623 40.9081 232.817L36.2599 230.134L27.297 233.809L35.6733 238.644C36.2039 238.951 36.9641 239.398 37.9571 239.985C38.948 240.574 39.6945 241.013 40.1972 241.303L29.5177 247.468L35.9687 251.192L46.5226 245.1C47.6664 245.793 49.3558 246.784 51.5895 248.073L41.0778 254.142L47.527 257.865L58.2065 251.7C60.608 252.957 62.8474 254.01 64.9277 254.855C67.009 255.701 69.1865 256.402 71.4621 256.958C73.7367 257.514 75.9078 257.824 77.9738 257.888C80.0395 257.953 82.1822 257.755 84.4034 257.296C86.6222 256.836 88.8216 256.091 90.9992 255.059C95.2437 253.029 97.6029 250.942 98.078 248.798ZM87.8999 221.356C88.0954 221.469 88.6539 221.783 89.5754 222.299C90.4976 222.815 91.265 223.242 91.8793 223.58C92.4935 223.919 93.2683 224.406 94.2041 225.043C95.1394 225.68 95.8859 226.24 96.4443 226.723C97.0028 227.207 97.5408 227.783 98.0566 228.452C98.5741 229.121 98.8527 229.733 98.8941 230.289C98.9364 230.845 98.7755 231.43 98.4119 232.042C98.0494 232.655 97.4073 233.227 96.4861 233.759C95.7043 234.21 94.8667 234.549 93.9732 234.775C93.0806 235.001 92.1651 235.093 91.2304 235.053C90.2954 235.013 89.4005 234.932 88.5492 234.811C87.6983 234.69 86.7622 234.448 85.7436 234.086C84.7248 233.723 83.8523 233.397 83.1269 233.107C82.4008 232.817 81.5561 232.418 80.593 231.91C79.6296 231.402 78.9029 231.015 78.4148 230.749C77.9261 230.483 77.2772 230.109 76.467 229.625C75.6567 229.141 75.183 228.859 75.0431 228.779L87.9005 221.356L87.9 221.356L87.8999 221.356ZM76.991 247.988C76.0825 248.205 75.1823 248.331 74.2888 248.363C73.3957 248.395 72.4248 248.318 71.3786 248.133C70.3315 247.948 69.3751 247.734 68.5101 247.492C67.6433 247.251 66.6738 246.916 65.5991 246.489C64.5229 246.062 63.6097 245.671 62.8547 245.316C62.101 244.962 61.2291 244.523 60.2372 243.999C59.2472 243.475 58.4855 243.059 57.9553 242.753C57.4247 242.447 56.7621 242.056 55.966 241.58C55.1689 241.105 54.6599 240.803 54.4363 240.674L68.5927 232.502C68.8158 232.63 69.4926 233.005 70.6242 233.626C71.7556 234.246 72.6686 234.758 73.3667 235.161C74.0646 235.564 74.987 236.144 76.1317 236.903C77.2763 237.659 78.1843 238.328 78.8551 238.909C79.5246 239.489 80.1805 240.165 80.823 240.94C81.465 241.713 81.8425 242.423 81.9544 243.067C82.0653 243.713 81.9403 244.381 81.577 245.074C81.2151 245.768 80.5308 246.404 79.5253 246.985C78.7426 247.436 77.8993 247.77 76.991 247.988Z" fill="#0D0B33"/>
<path d="M1.07812 240.711C5.72693 252.423 9.31971 257.805 19.19 263.351V279.199C10.1776 272.82 5.35252 268.906 1.07812 255.427V240.711Z" fill="#0D0B33"/>
<path d="M25.9805 269.008L32.7724 272.404V288.252L25.9805 284.856V269.008Z" fill="#0D0B33"/>
<path d="M140.213 267.708C108.384 286.083 56.7785 286.083 24.9494 267.708C9.92281 259.033 1.99031 247.814 1.15192 236.453L1.08203 220.605C1.29571 232.482 9.2515 244.321 24.9494 253.384C56.7785 271.759 108.384 271.759 140.213 253.384C155.845 244.359 163.8 232.58 164.077 220.753V219.473C164.087 219.899 164.087 220.326 164.077 220.753V235.077C163.8 246.905 155.845 258.683 140.213 267.708Z" fill="#79EFBD" stroke="#0D0B33" stroke-width="0.870808"/>
<path d="M140.213 252.643C108.384 271.018 56.779 271.018 24.9499 252.643C-6.87914 234.268 -6.87914 204.476 24.9499 186.101C56.779 167.727 108.384 167.727 140.213 186.101C172.042 204.476 172.042 234.268 140.213 252.643Z" fill="#F7F6FF" stroke="#0D0B33" stroke-width="0.870808"/>
<path d="M98.078 233.22C98.5526 231.076 97.5474 228.836 95.0619 226.498C101.345 227.675 106.775 226.651 111.355 223.428C113.03 222.267 114.118 221.051 114.62 219.777C115.121 218.503 115.059 217.211 114.43 215.897C113.803 214.583 112.852 213.309 111.582 212.076C110.312 210.843 108.671 209.533 106.661 208.147L117.215 202.054L110.766 198.331L100.505 204.255C99.3881 203.61 97.6572 202.643 95.312 201.354L105.657 195.382L99.2067 191.658L88.6526 197.751C87.7029 197.235 86.3347 196.462 84.5479 195.43L75.7115 190.28L68.8429 194.246L73.4914 196.929C75.6134 198.154 75.9063 199.42 74.3709 200.725L62.3508 207.664C62.6304 207.826 62.8392 207.963 62.979 208.076L62.3086 207.689L45.4731 217.408C43.8263 218.101 42.3043 218.045 40.9081 217.239L36.2599 214.555L27.297 218.23L35.6733 223.066C36.2039 223.372 36.9641 223.819 37.9571 224.407C38.948 224.996 39.6945 225.435 40.1972 225.725L29.5177 231.89L35.9687 235.614L46.5226 229.522C47.6664 230.215 49.3558 231.206 51.5895 232.495L41.0778 238.564L47.527 242.287L58.2065 236.122C60.608 237.379 62.8474 238.432 64.9277 239.277C67.009 240.122 69.1865 240.824 71.4621 241.38C73.7367 241.936 75.9078 242.246 77.9738 242.31C80.0395 242.375 82.1822 242.177 84.4034 241.718C86.6222 241.258 88.8216 240.513 90.9992 239.481C95.2437 237.451 97.6029 235.364 98.078 233.22ZM87.8999 205.778C88.0954 205.891 88.6539 206.205 89.5754 206.721C90.4976 207.236 91.265 207.663 91.8793 208.002C92.4935 208.341 93.2683 208.828 94.2041 209.465C95.1394 210.102 95.8859 210.662 96.4443 211.145C97.0028 211.628 97.5408 212.205 98.0566 212.874C98.5741 213.543 98.8527 214.155 98.8941 214.711C98.9364 215.267 98.7755 215.852 98.4119 216.464C98.0494 217.076 97.4073 217.649 96.4861 218.18C95.7043 218.632 94.8667 218.971 93.9732 219.197C93.0806 219.423 92.1651 219.515 91.2304 219.475C90.2954 219.435 89.4005 219.354 88.5492 219.233C87.6983 219.112 86.7622 218.87 85.7436 218.507C84.7248 218.145 83.8523 217.819 83.1269 217.529C82.4008 217.239 81.5561 216.84 80.593 216.332C79.6296 215.824 78.9029 215.437 78.4148 215.171C77.9261 214.905 77.2772 214.531 76.467 214.047C75.6567 213.563 75.183 213.281 75.0431 213.2L87.9005 205.778L87.9 205.778L87.8999 205.778ZM76.991 232.41C76.0825 232.627 75.1823 232.753 74.2888 232.785C73.3957 232.817 72.4248 232.74 71.3786 232.555C70.3315 232.37 69.3751 232.156 68.5101 231.914C67.6433 231.673 66.6738 231.338 65.5991 230.911C64.5229 230.484 63.6097 230.093 62.8547 229.738C62.101 229.384 61.2291 228.944 60.2372 228.421C59.2472 227.896 58.4855 227.481 57.9553 227.175C57.4247 226.869 56.7621 226.478 55.966 226.002C55.1689 225.527 54.6599 225.225 54.4363 225.096L68.5927 216.923C68.8158 217.052 69.4926 217.427 70.6242 218.048C71.7556 218.668 72.6686 219.18 73.3667 219.583C74.0646 219.986 74.987 220.566 76.1317 221.324C77.2763 222.081 78.1843 222.75 78.8551 223.331C79.5246 223.911 80.1805 224.587 80.823 225.362C81.465 226.135 81.8425 226.844 81.9544 227.489C82.0653 228.135 81.9403 228.803 81.577 229.496C81.2151 230.189 80.5308 230.826 79.5253 231.407C78.7426 231.858 77.8993 232.192 76.991 232.41Z" fill="#0D0B33"/>
<path d="M1.07812 225.133C5.72693 236.844 9.31971 242.227 19.19 247.773V263.621C10.1776 257.242 5.35252 253.328 1.07812 239.849V225.133Z" fill="#0D0B33"/>
<path d="M25.9805 253.43L32.7724 256.826V272.674L25.9805 269.278V253.43Z" fill="#0D0B33"/>
<path d="M140.213 252.134C108.384 270.509 56.7785 270.509 24.9494 252.134C9.92281 243.459 1.99031 232.24 1.15192 220.878L1.08203 205.03C1.29571 216.908 9.2515 228.747 24.9494 237.809C56.7785 256.184 108.384 256.184 140.213 237.809C155.845 228.785 163.8 217.006 164.077 205.179V203.898C164.087 204.325 164.087 204.752 164.077 205.179V219.503C163.8 231.331 155.845 243.109 140.213 252.134Z" fill="#79EFBD" stroke="#0D0B33" stroke-width="0.870808"/>
<path d="M140.213 237.069C108.384 255.444 56.779 255.444 24.9499 237.069C-6.87914 218.694 -6.87914 188.902 24.9499 170.527C56.779 152.152 108.384 152.152 140.213 170.527C172.042 188.902 172.042 218.694 140.213 237.069Z" fill="#F7F6FF" stroke="#0D0B33" stroke-width="0.870808"/>
<path d="M98.078 217.645C98.5526 215.502 97.5474 213.262 95.0619 210.924C101.345 212.101 106.775 211.077 111.355 207.853C113.03 206.693 114.118 205.477 114.62 204.203C115.121 202.929 115.059 201.637 114.43 200.323C113.803 199.008 112.852 197.735 111.582 196.502C110.312 195.269 108.671 193.959 106.661 192.573L117.215 186.48L110.766 182.757L100.505 188.681C99.3881 188.036 97.6572 187.069 95.312 185.78L105.657 179.808L99.2067 176.084L88.6526 182.177C87.7029 181.661 86.3347 180.888 84.5479 179.856L75.7115 174.706L68.8429 178.671L73.4914 181.355C75.6134 182.58 75.9063 183.845 74.3709 185.151L62.3508 192.09C62.6304 192.251 62.8392 192.389 62.979 192.501L62.3086 192.114L45.4731 201.834C43.8263 202.527 42.3043 202.471 40.9081 201.665L36.2599 198.981L27.297 202.656L35.6733 207.492C36.2039 207.798 36.9641 208.245 37.9571 208.833C38.948 209.421 39.6945 209.86 40.1972 210.151L29.5177 216.316L35.9687 220.04L46.5226 213.947C47.6664 214.641 49.3558 215.632 51.5895 216.921L41.0778 222.99L47.527 226.713L58.2065 220.547C60.608 221.805 62.8474 222.857 64.9277 223.703C67.009 224.548 69.1865 225.25 71.4621 225.806C73.7367 226.362 75.9078 226.672 77.9738 226.736C80.0395 226.801 82.1822 226.603 84.4034 226.144C86.6222 225.684 88.8216 224.939 90.9992 223.907C95.2437 221.877 97.6029 219.789 98.078 217.645ZM87.8999 190.203C88.0954 190.316 88.6539 190.631 89.5754 191.146C90.4976 191.662 91.265 192.089 91.8793 192.428C92.4935 192.766 93.2683 193.254 94.2041 193.891C95.1394 194.527 95.8859 195.088 96.4443 195.571C97.0028 196.054 97.5408 196.631 98.0566 197.299C98.5741 197.969 98.8527 198.581 98.8941 199.137C98.9364 199.693 98.7755 200.277 98.4119 200.89C98.0494 201.502 97.4073 202.074 96.4861 202.606C95.7043 203.058 94.8667 203.396 93.9732 203.622C93.0806 203.848 92.1651 203.941 91.2304 203.901C90.2954 203.861 89.4005 203.78 88.5492 203.659C87.6983 203.538 86.7622 203.296 85.7436 202.933C84.7248 202.571 83.8523 202.244 83.1269 201.954C82.4008 201.664 81.5561 201.266 80.593 200.758C79.6296 200.25 78.9029 199.863 78.4148 199.597C77.9261 199.331 77.2772 198.956 76.467 198.473C75.6567 197.989 75.183 197.707 75.0431 197.626L87.9005 190.204L87.9 190.203L87.8999 190.203ZM76.991 216.836C76.0825 217.053 75.1823 217.178 74.2888 217.211C73.3957 217.243 72.4248 217.166 71.3786 216.981C70.3315 216.796 69.3751 216.582 68.5101 216.34C67.6433 216.099 66.6738 215.763 65.5991 215.337C64.5229 214.909 63.6097 214.518 62.8547 214.164C62.101 213.809 61.2291 213.37 60.2372 212.846C59.2472 212.322 58.4855 211.907 57.9553 211.601C57.4247 211.295 56.7621 210.903 55.966 210.428C55.1689 209.953 54.6599 209.651 54.4363 209.522L68.5927 201.349C68.8158 201.478 69.4926 201.853 70.6242 202.473C71.7556 203.094 72.6686 203.606 73.3667 204.009C74.0646 204.412 74.987 204.992 76.1317 205.75C77.2763 206.507 78.1843 207.176 78.8551 207.756C79.5246 208.337 80.1805 209.013 80.823 209.787C81.465 210.561 81.8425 211.27 81.9544 211.915C82.0653 212.56 81.9403 213.229 81.577 213.922C81.2151 214.615 80.5308 215.252 79.5253 215.832C78.7426 216.284 77.8993 216.618 76.991 216.836Z" fill="#0D0B33"/>
<path d="M1.07812 209.559C5.72693 221.27 9.31971 226.652 19.19 232.198V248.046C10.1776 241.668 5.35252 237.753 1.07812 224.274V209.559Z" fill="#0D0B33"/>
<path d="M25.9805 237.859L32.7724 241.255V257.103L25.9805 253.707V237.859Z" fill="#0D0B33"/>
<path d="M140.213 236.56C108.384 254.935 56.7785 254.935 24.9494 236.56C9.92281 227.885 1.99031 216.665 1.15192 205.304L1.08203 189.456C1.29571 201.333 9.2515 213.173 24.9494 222.235C56.7785 240.61 108.384 240.61 140.213 222.235C155.845 213.211 163.8 201.432 164.077 189.605V188.324C164.087 188.751 164.087 189.178 164.077 189.605V203.929C163.8 215.756 155.845 227.535 140.213 236.56Z" fill="#79EFBD" stroke="#0D0B33" stroke-width="0.870808"/>
<path d="M140.213 221.494C108.384 239.869 56.779 239.869 24.9499 221.494C-6.87914 203.12 -6.87914 173.328 24.9499 154.953C56.779 136.578 108.384 136.578 140.213 154.953C172.042 173.328 172.042 203.12 140.213 221.494Z" fill="#F7F6FF" stroke="#0D0B33" stroke-width="0.870808"/>
<path d="M98.078 202.071C98.5526 199.928 97.5474 197.687 95.0619 195.35C101.345 196.527 106.775 195.503 111.355 192.279C113.03 191.118 114.118 189.902 114.62 188.629C115.121 187.355 115.059 186.062 114.43 184.748C113.803 183.434 112.852 182.16 111.582 180.928C110.312 179.695 108.671 178.385 106.661 176.999L117.215 170.906L110.766 167.183L100.505 173.107C99.3881 172.462 97.6572 171.495 95.312 170.205L105.657 164.233L99.2067 160.51L88.6526 166.603C87.7029 166.087 86.3347 165.313 84.5479 164.282L75.7115 159.132L68.8429 163.097L73.4914 165.781C75.6134 167.006 75.9063 168.271 74.3709 169.577L62.3508 176.516C62.6304 176.677 62.8392 176.814 62.979 176.927L62.3086 176.54L45.4731 186.259C43.8263 186.952 42.3043 186.896 40.9081 186.09L36.2599 183.407L27.297 187.082L35.6733 191.918C36.2039 192.224 36.9641 192.671 37.9571 193.259C38.948 193.847 39.6945 194.286 40.1972 194.576L29.5177 200.742L35.9687 204.466L46.5226 198.373C47.6664 199.066 49.3558 200.057 51.5895 201.347L41.0778 207.415L47.527 211.138L58.2065 204.973C60.608 206.231 62.8474 207.283 64.9277 208.128C67.009 208.974 69.1865 209.676 71.4621 210.231C73.7367 210.787 75.9078 211.097 77.9738 211.162C80.0395 211.227 82.1822 211.029 84.4034 210.57C86.6222 210.11 88.8216 209.365 90.9992 208.332C95.2437 206.303 97.6029 204.215 98.078 202.071ZM87.8999 174.629C88.0954 174.742 88.6539 175.056 89.5754 175.572C90.4976 176.088 91.265 176.515 91.8793 176.853C92.4935 177.192 93.2683 177.68 94.2041 178.317C95.1394 178.953 95.8859 179.513 96.4443 179.997C97.0028 180.48 97.5408 181.057 98.0566 181.725C98.5741 182.394 98.8527 183.007 98.8941 183.562C98.9364 184.119 98.7755 184.703 98.4119 185.315C98.0494 185.928 97.4073 186.5 96.4861 187.032C95.7043 187.483 94.8667 187.822 93.9732 188.048C93.0806 188.274 92.1651 188.366 91.2304 188.326C90.2954 188.286 89.4005 188.206 88.5492 188.084C87.6983 187.964 86.7622 187.722 85.7436 187.359C84.7248 186.997 83.8523 186.67 83.1269 186.38C82.4008 186.09 81.5561 185.691 80.593 185.183C79.6296 184.675 78.9029 184.289 78.4148 184.023C77.9261 183.757 77.2772 183.382 76.467 182.898C75.6567 182.415 75.183 182.133 75.0431 182.052L87.9005 174.629L87.9 174.629L87.8999 174.629ZM76.991 201.261C76.0825 201.479 75.1823 201.604 74.2888 201.637C73.3957 201.668 72.4248 201.592 71.3786 201.406C70.3315 201.222 69.3751 201.007 68.5101 200.766C67.6433 200.524 66.6738 200.189 65.5991 199.763C64.5229 199.335 63.6097 198.944 62.8547 198.589C62.101 198.235 61.2291 197.796 60.2372 197.272C59.2472 196.748 58.4855 196.333 57.9553 196.027C57.4247 195.72 56.7621 195.329 55.966 194.854C55.1689 194.379 54.6599 194.077 54.4363 193.947L68.5927 185.775C68.8158 185.904 69.4926 186.279 70.6242 186.899C71.7556 187.52 72.6686 188.032 73.3667 188.435C74.0646 188.838 74.987 189.418 76.1317 190.176C77.2763 190.933 78.1843 191.602 78.8551 192.182C79.5246 192.762 80.1805 193.439 80.823 194.213C81.465 194.987 81.8425 195.696 81.9544 196.341C82.0653 196.986 81.9403 197.654 81.577 198.347C81.2151 199.041 80.5308 199.678 79.5253 200.258C78.7426 200.71 77.8993 201.044 76.991 201.261Z" fill="#0D0B33"/>
<path d="M1.07812 193.984C5.72693 205.696 9.31971 211.078 19.19 216.624V232.472C10.1776 226.093 5.35252 222.179 1.07812 208.7V193.984Z" fill="#0D0B33"/>
<path d="M25.9805 222.281L32.7724 225.677V241.525L25.9805 238.129V222.281Z" fill="#0D0B33"/>
<path d="M140.213 220.982C108.384 239.357 56.7785 239.357 24.9494 220.982C9.92281 212.307 1.99031 201.087 1.15192 189.726L1.08203 173.878C1.29571 185.755 9.2515 197.595 24.9494 206.657C56.7785 225.032 108.384 225.032 140.213 206.657C155.845 197.632 163.8 185.854 164.077 174.027V172.746C164.087 173.173 164.087 173.6 164.077 174.027V188.351C163.8 200.178 155.845 211.957 140.213 220.982Z" fill="#79EFBD" stroke="#0D0B33" stroke-width="0.870808"/>
<path d="M140.213 205.916C108.384 224.291 56.779 224.291 24.9499 205.916C-6.87914 187.541 -6.87914 157.75 24.9499 139.375C56.779 121 108.384 121 140.213 139.375C172.042 157.75 172.042 187.541 140.213 205.916Z" fill="#F7F6FF" stroke="#0D0B33" stroke-width="0.870808"/>
<path d="M98.078 186.493C98.5526 184.35 97.5474 182.109 95.0619 179.772C101.345 180.949 106.775 179.925 111.355 176.701C113.03 175.54 114.118 174.324 114.62 173.051C115.121 171.777 115.059 170.484 114.43 169.17C113.803 167.856 112.852 166.582 111.582 165.35C110.312 164.117 108.671 162.807 106.661 161.421L117.215 155.328L110.766 151.605L100.505 157.528C99.3881 156.884 97.6572 155.917 95.312 154.627L105.657 148.655L99.2067 144.932L88.6526 151.025C87.7029 150.509 86.3347 149.735 84.5479 148.704L75.7115 143.554L68.8429 147.519L73.4914 150.203C75.6134 151.428 75.9063 152.693 74.3709 153.999L62.3508 160.938C62.6304 161.099 62.8392 161.236 62.979 161.349L62.3086 160.962L45.4731 170.681C43.8263 171.374 42.3043 171.318 40.9081 170.512L36.2599 167.829L27.297 171.504L35.6733 176.34C36.2039 176.646 36.9641 177.093 37.9571 177.681C38.948 178.269 39.6945 178.708 40.1972 178.998L29.5177 185.164L35.9687 188.888L46.5226 182.795C47.6664 183.488 49.3558 184.479 51.5895 185.769L41.0778 191.837L47.527 195.56L58.2065 189.395C60.608 190.653 62.8474 191.705 64.9277 192.55C67.009 193.396 69.1865 194.098 71.4621 194.653C73.7367 195.209 75.9078 195.519 77.9738 195.584C80.0395 195.649 82.1822 195.451 84.4034 194.992C86.6222 194.532 88.8216 193.786 90.9992 192.754C95.2437 190.725 97.6029 188.637 98.078 186.493ZM87.8999 159.051C88.0954 159.164 88.6539 159.478 89.5754 159.994C90.4976 160.51 91.265 160.937 91.8793 161.275C92.4935 161.614 93.2683 162.102 94.2041 162.738C95.1394 163.375 95.8859 163.935 96.4443 164.419C97.0028 164.902 97.5408 165.479 98.0566 166.147C98.5741 166.816 98.8527 167.429 98.8941 167.984C98.9364 168.541 98.7755 169.125 98.4119 169.737C98.0494 170.35 97.4073 170.922 96.4861 171.454C95.7043 171.905 94.8667 172.244 93.9732 172.47C93.0806 172.696 92.1651 172.788 91.2304 172.748C90.2954 172.708 89.4005 172.627 88.5492 172.506C87.6983 172.386 86.7622 172.144 85.7436 171.781C84.7248 171.419 83.8523 171.092 83.1269 170.802C82.4008 170.512 81.5561 170.113 80.593 169.605C79.6296 169.097 78.9029 168.711 78.4148 168.445C77.9261 168.179 77.2772 167.804 76.467 167.32C75.6567 166.837 75.183 166.555 75.0431 166.474L87.9005 159.051L87.9 159.051L87.8999 159.051ZM76.991 185.683C76.0825 185.901 75.1823 186.026 74.2888 186.059C73.3957 186.09 72.4248 186.014 71.3786 185.828C70.3315 185.643 69.3751 185.429 68.5101 185.188C67.6433 184.946 66.6738 184.611 65.5991 184.185C64.5229 183.757 63.6097 183.366 62.8547 183.011C62.101 182.657 61.2291 182.218 60.2372 181.694C59.2472 181.17 58.4855 180.755 57.9553 180.449C57.4247 180.142 56.7621 179.751 55.966 179.276C55.1689 178.8 54.6599 178.498 54.4363 178.369L68.5927 170.197C68.8158 170.326 69.4926 170.701 70.6242 171.321C71.7556 171.942 72.6686 172.454 73.3667 172.857C74.0646 173.26 74.987 173.84 76.1317 174.598C77.2763 175.355 78.1843 176.023 78.8551 176.604C79.5246 177.184 80.1805 177.861 80.823 178.635C81.465 179.408 81.8425 180.118 81.9544 180.763C82.0653 181.408 81.9403 182.076 81.577 182.769C81.2151 183.463 80.5308 184.1 79.5253 184.68C78.7426 185.132 77.8993 185.466 76.991 185.683Z" fill="#0D0B33"/>
<path d="M1.07812 178.406C5.72693 190.118 9.31971 195.5 19.19 201.046V216.894C10.1776 210.515 5.35252 206.601 1.07812 193.122V178.406Z" fill="#0D0B33"/>
<path d="M25.9805 206.703L32.7724 210.099V225.947L25.9805 222.551V206.703Z" fill="#0D0B33"/>
<path d="M140.213 205.411C108.384 223.786 56.7785 223.786 24.9494 205.411C9.92281 196.736 1.99031 185.517 1.15192 174.156L1.08203 158.308C1.29571 170.185 9.2515 182.024 24.9494 191.087C56.7785 209.462 108.384 209.462 140.213 191.087C155.845 182.062 163.8 170.284 164.077 158.456V157.176C164.087 157.603 164.087 158.029 164.077 158.456V172.78C163.8 184.608 155.845 196.387 140.213 205.411Z" fill="#79EFBD" stroke="#0D0B33" stroke-width="0.870808"/>
<path d="M140.213 190.346C108.384 208.721 56.779 208.721 24.9499 190.346C-6.87914 171.971 -6.87914 142.18 24.9499 123.805C56.779 105.43 108.384 105.43 140.213 123.805C172.042 142.18 172.042 171.971 140.213 190.346Z" fill="#F7F6FF" stroke="#0D0B33" stroke-width="0.870808"/>
<path d="M98.078 170.923C98.5526 168.779 97.5474 166.539 95.0619 164.202C101.345 165.378 106.775 164.354 111.355 161.131C113.03 159.97 114.118 158.754 114.62 157.481C115.121 156.207 115.059 154.914 114.43 153.6C113.803 152.286 112.852 151.012 111.582 149.779C110.312 148.547 108.671 147.237 106.661 145.85L117.215 139.758L110.766 136.035L100.505 141.958C99.3881 141.313 97.6572 140.346 95.312 139.057L105.657 133.085L99.2067 129.361L88.6526 135.454C87.7029 134.938 86.3347 134.165 84.5479 133.133L75.7115 127.983L68.8429 131.949L73.4914 134.632C75.6134 135.857 75.9063 137.123 74.3709 138.428L62.3508 145.367C62.6304 145.529 62.8392 145.666 62.979 145.779L62.3086 145.392L45.4731 155.111C43.8263 155.804 42.3043 155.748 40.9081 154.942L36.2599 152.259L27.297 155.934L35.6733 160.769C36.2039 161.076 36.9641 161.523 37.9571 162.11C38.948 162.699 39.6945 163.138 40.1972 163.428L29.5177 169.593L35.9687 173.317L46.5226 167.225C47.6664 167.918 49.3558 168.909 51.5895 170.198L41.0778 176.267L47.527 179.99L58.2065 173.825C60.608 175.082 62.8474 176.135 64.9277 176.98C67.009 177.826 69.1865 178.527 71.4621 179.083C73.7367 179.639 75.9078 179.949 77.9738 180.013C80.0395 180.078 82.1822 179.88 84.4034 179.421C86.6222 178.961 88.8216 178.216 90.9992 177.184C95.2437 175.154 97.6029 173.067 98.078 170.923ZM87.8999 143.481C88.0954 143.594 88.6539 143.908 89.5754 144.424C90.4976 144.94 91.265 145.367 91.8793 145.705C92.4935 146.044 93.2683 146.531 94.2041 147.168C95.1394 147.805 95.8859 148.365 96.4443 148.848C97.0028 149.332 97.5408 149.908 98.0566 150.577C98.5741 151.246 98.8527 151.858 98.8941 152.414C98.9364 152.97 98.7755 153.555 98.4119 154.167C98.0494 154.78 97.4073 155.352 96.4861 155.884C95.7043 156.335 94.8667 156.674 93.9732 156.9C93.0806 157.126 92.1651 157.218 91.2304 157.178C90.2954 157.138 89.4005 157.057 88.5492 156.936C87.6983 156.815 86.7622 156.573 85.7436 156.211C84.7248 155.848 83.8523 155.522 83.1269 155.232C82.4008 154.942 81.5561 154.543 80.593 154.035C79.6296 153.527 78.9029 153.14 78.4148 152.874C77.9261 152.608 77.2772 152.234 76.467 151.75C75.6567 151.266 75.183 150.984 75.0431 150.904L87.9005 143.481L87.9 143.481L87.8999 143.481ZM76.991 170.113C76.0825 170.33 75.1823 170.456 74.2888 170.488C73.3957 170.52 72.4248 170.443 71.3786 170.258C70.3315 170.073 69.3751 169.859 68.5101 169.617C67.6433 169.376 66.6738 169.041 65.5991 168.614C64.5229 168.187 63.6097 167.796 62.8547 167.441C62.101 167.087 61.2291 166.648 60.2372 166.124C59.2472 165.6 58.4855 165.184 57.9553 164.878C57.4247 164.572 56.7621 164.181 55.966 163.705C55.1689 163.23 54.6599 162.928 54.4363 162.799L68.5927 154.627C68.8158 154.755 69.4926 155.13 70.6242 155.751C71.7556 156.371 72.6686 156.883 73.3667 157.286C74.0646 157.689 74.987 158.269 76.1317 159.028C77.2763 159.784 78.1843 160.453 78.8551 161.034C79.5246 161.614 80.1805 162.29 80.823 163.065C81.465 163.838 81.8425 164.548 81.9544 165.192C82.0653 165.838 81.9403 166.506 81.577 167.199C81.2151 167.893 80.5308 168.529 79.5253 169.11C78.7426 169.561 77.8993 169.895 76.991 170.113Z" fill="#0D0B33"/>
<path d="M1.07812 162.836C5.72693 174.548 9.31971 179.93 19.19 185.476V201.324C10.1776 194.945 5.35252 191.031 1.07812 177.552V162.836Z" fill="#0D0B33"/>
<path d="M25.9805 191.133L32.7724 194.529V210.377L25.9805 206.981V191.133Z" fill="#0D0B33"/>
<path d="M140.213 189.837C108.384 208.212 56.7785 208.212 24.9494 189.837C9.92281 181.162 1.99031 169.943 1.15192 158.581L1.08203 142.734C1.29571 154.611 9.2515 166.45 24.9494 175.513C56.7785 193.887 108.384 193.887 140.213 175.513C155.845 166.488 163.8 154.709 164.077 142.882V141.602C164.087 142.028 164.087 142.455 164.077 142.882V157.206C163.8 169.034 155.845 180.812 140.213 189.837Z" fill="#79EFBD" stroke="#0D0B33" stroke-width="0.870808"/>
<path d="M140.213 174.772C108.384 193.147 56.779 193.147 24.9499 174.772C-6.87914 156.397 -6.87914 126.605 24.9499 108.23C56.779 89.8555 108.384 89.8555 140.213 108.23C172.042 126.605 172.042 156.397 140.213 174.772Z" fill="#F7F6FF" stroke="#0D0B33" stroke-width="0.870808"/>
<path d="M98.078 155.348C98.5526 153.205 97.5474 150.965 95.0619 148.627C101.345 149.804 106.775 148.78 111.355 145.557C113.03 144.396 114.118 143.18 114.62 141.906C115.121 140.632 115.059 139.34 114.43 138.026C113.803 136.712 112.852 135.438 111.582 134.205C110.312 132.972 108.671 131.662 106.661 130.276L117.215 124.183L110.766 120.46L100.505 126.384C99.3881 125.739 97.6572 124.772 95.312 123.483L105.657 117.511L99.2067 113.787L88.6526 119.88C87.7029 119.364 86.3347 118.591 84.5479 117.559L75.7115 112.409L68.8429 116.375L73.4914 119.058C75.6134 120.283 75.9063 121.549 74.3709 122.854L62.3508 129.793C62.6304 129.955 62.8392 130.092 62.979 130.205L62.3086 129.818L45.4731 139.537C43.8263 140.23 42.3043 140.174 40.9081 139.368L36.2599 136.684L27.297 140.359L35.6733 145.195C36.2039 145.501 36.9641 145.948 37.9571 146.536C38.948 147.124 39.6945 147.564 40.1972 147.854L29.5177 154.019L35.9687 157.743L46.5226 151.65C47.6664 152.344 49.3558 153.335 51.5895 154.624L41.0778 160.693L47.527 164.416L58.2065 158.251C60.608 159.508 62.8474 160.56 64.9277 161.406C67.009 162.251 69.1865 162.953 71.4621 163.509C73.7367 164.065 75.9078 164.375 77.9738 164.439C80.0395 164.504 82.1822 164.306 84.4034 163.847C86.6222 163.387 88.8216 162.642 90.9992 161.61C95.2437 159.58 97.6029 157.492 98.078 155.348ZM87.8999 127.907C88.0954 128.019 88.6539 128.334 89.5754 128.849C90.4976 129.365 91.265 129.792 91.8793 130.131C92.4935 130.469 93.2683 130.957 94.2041 131.594C95.1394 132.231 95.8859 132.791 96.4443 133.274C97.0028 133.757 97.5408 134.334 98.0566 135.003C98.5741 135.672 98.8527 136.284 98.8941 136.84C98.9364 137.396 98.7755 137.98 98.4119 138.593C98.0494 139.205 97.4073 139.778 96.4861 140.309C95.7043 140.761 94.8667 141.1 93.9732 141.326C93.0806 141.552 92.1651 141.644 91.2304 141.604C90.2954 141.564 89.4005 141.483 88.5492 141.362C87.6983 141.241 86.7622 140.999 85.7436 140.636C84.7248 140.274 83.8523 139.948 83.1269 139.658C82.4008 139.367 81.5561 138.969 80.593 138.461C79.6296 137.953 78.9029 137.566 78.4148 137.3C77.9261 137.034 77.2772 136.659 76.467 136.176C75.6567 135.692 75.183 135.41 75.0431 135.329L87.9005 127.907L87.9 127.907L87.8999 127.907ZM76.991 154.539C76.0825 154.756 75.1823 154.882 74.2888 154.914C73.3957 154.946 72.4248 154.869 71.3786 154.684C70.3315 154.499 69.3751 154.285 68.5101 154.043C67.6433 153.802 66.6738 153.467 65.5991 153.04C64.5229 152.613 63.6097 152.222 62.8547 151.867C62.101 151.512 61.2291 151.073 60.2372 150.549C59.2472 150.025 58.4855 149.61 57.9553 149.304C57.4247 148.998 56.7621 148.606 55.966 148.131C55.1689 147.656 54.6599 147.354 54.4363 147.225L68.5927 139.052C68.8158 139.181 69.4926 139.556 70.6242 140.177C71.7556 140.797 72.6686 141.309 73.3667 141.712C74.0646 142.115 74.987 142.695 76.1317 143.453C77.2763 144.21 78.1843 144.879 78.8551 145.46C79.5246 146.04 80.1805 146.716 80.823 147.491C81.465 148.264 81.8425 148.973 81.9544 149.618C82.0653 150.264 81.9403 150.932 81.577 151.625C81.2151 152.318 80.5308 152.955 79.5253 153.535C78.7426 153.987 77.8993 154.321 76.991 154.539Z" fill="#0D0B33"/>
<path d="M1.07812 147.262C5.72693 158.973 9.31971 164.356 19.19 169.902V185.749C10.1776 179.371 5.35252 175.457 1.07812 161.978V147.262Z" fill="#0D0B33"/>
<path d="M25.9805 175.562L32.7724 178.958V194.806L25.9805 191.41V175.562Z" fill="#0D0B33"/>
<path d="M140.213 174.259C108.384 192.634 56.7785 192.634 24.9494 174.259C9.92281 165.584 1.99031 154.365 1.15192 143.003L1.08203 127.155C1.29571 139.033 9.2515 150.872 24.9494 159.934C56.7785 178.309 108.384 178.309 140.213 159.934C155.845 150.91 163.8 139.131 164.077 127.304V126.023C164.087 126.45 164.087 126.877 164.077 127.304V141.628C163.8 153.456 155.845 165.234 140.213 174.259Z" fill="#79EFBD" stroke="#0D0B33" stroke-width="0.870808"/>
<path d="M140.213 159.194C108.384 177.569 56.779 177.569 24.9499 159.194C-6.87914 140.819 -6.87914 111.027 24.9499 92.6523C56.779 74.2774 108.384 74.2774 140.213 92.6523C172.042 111.027 172.042 140.819 140.213 159.194Z" fill="#F7F6FF" stroke="#0D0B33" stroke-width="0.870808"/>
<path d="M98.078 139.766C98.5526 137.623 97.5474 135.383 95.0619 133.045C101.345 134.222 106.775 133.198 111.355 129.974C113.03 128.814 114.118 127.598 114.62 126.324C115.121 125.05 115.059 123.758 114.43 122.444C113.803 121.13 112.852 119.856 111.582 118.623C110.312 117.39 108.671 116.08 106.661 114.694L117.215 108.601L110.766 104.878L100.505 110.802C99.3881 110.157 97.6572 109.19 95.312 107.901L105.657 101.929L99.2067 98.2052L88.6526 104.298C87.7029 103.782 86.3347 103.009 84.5479 101.977L75.7115 96.8272L68.8429 100.793L73.4914 103.476C75.6134 104.701 75.9063 105.967 74.3709 107.272L62.3508 114.211C62.6304 114.373 62.8392 114.51 62.979 114.623L62.3086 114.236L45.4731 123.955C43.8263 124.648 42.3043 124.592 40.9081 123.786L36.2599 121.102L27.297 124.777L35.6733 129.613C36.2039 129.919 36.9641 130.366 37.9571 130.954C38.948 131.542 39.6945 131.982 40.1972 132.272L29.5177 138.437L35.9687 142.161L46.5226 136.068C47.6664 136.762 49.3558 137.753 51.5895 139.042L41.0778 145.111L47.527 148.834L58.2065 142.669C60.608 143.926 62.8474 144.978 64.9277 145.824C67.009 146.669 69.1865 147.371 71.4621 147.927C73.7367 148.483 75.9078 148.793 77.9738 148.857C80.0395 148.922 82.1822 148.724 84.4034 148.265C86.6222 147.805 88.8216 147.06 90.9992 146.028C95.2437 143.998 97.6029 141.91 98.078 139.766ZM87.8999 112.325C88.0954 112.437 88.6539 112.752 89.5754 113.267C90.4976 113.783 91.265 114.21 91.8793 114.549C92.4935 114.887 93.2683 115.375 94.2041 116.012C95.1394 116.649 95.8859 117.209 96.4443 117.692C97.0028 118.175 97.5408 118.752 98.0566 119.421C98.5741 120.09 98.8527 120.702 98.8941 121.258C98.9364 121.814 98.7755 122.398 98.4119 123.011C98.0494 123.623 97.4073 124.196 96.4861 124.727C95.7043 125.179 94.8667 125.517 93.9732 125.743C93.0806 125.97 92.1651 126.062 91.2304 126.022C90.2954 125.982 89.4005 125.901 88.5492 125.78C87.6983 125.659 86.7622 125.417 85.7436 125.054C84.7248 124.692 83.8523 124.366 83.1269 124.076C82.4008 123.785 81.5561 123.387 80.593 122.879C79.6296 122.371 78.9029 121.984 78.4148 121.718C77.9261 121.452 77.2772 121.077 76.467 120.594C75.6567 120.11 75.183 119.828 75.0431 119.747L87.9005 112.325L87.9 112.324L87.8999 112.325ZM76.991 138.957C76.0825 139.174 75.1823 139.3 74.2888 139.332C73.3957 139.364 72.4248 139.287 71.3786 139.102C70.3315 138.917 69.3751 138.703 68.5101 138.461C67.6433 138.22 66.6738 137.885 65.5991 137.458C64.5229 137.03 63.6097 136.639 62.8547 136.285C62.101 135.93 61.2291 135.491 60.2372 134.967C59.2472 134.443 58.4855 134.028 57.9553 133.722C57.4247 133.416 56.7621 133.024 55.966 132.549C55.1689 132.074 54.6599 131.772 54.4363 131.643L68.5927 123.47C68.8158 123.599 69.4926 123.974 70.6242 124.594C71.7556 125.215 72.6686 125.727 73.3667 126.13C74.0646 126.533 74.987 127.113 76.1317 127.871C77.2763 128.628 78.1843 129.297 78.8551 129.878C79.5246 130.458 80.1805 131.134 80.823 131.909C81.465 132.682 81.8425 133.391 81.9544 134.036C82.0653 134.682 81.9403 135.35 81.577 136.043C81.2151 136.736 80.5308 137.373 79.5253 137.953C78.7426 138.405 77.8993 138.739 76.991 138.957Z" fill="#0D0B33"/>
<path d="M1.07812 131.684C5.72693 143.395 9.31971 148.777 19.19 154.323V170.171C10.1776 163.793 5.35252 159.878 1.07812 146.399V131.684Z" fill="#0D0B33"/>
<path d="M25.9805 159.984L32.7724 163.38V179.228L25.9805 175.832V159.984Z" fill="#0D0B33"/>
<path d="M140.213 158.685C108.384 177.06 56.7785 177.06 24.9494 158.685C9.92281 150.01 1.99031 138.79 1.15192 127.429L1.08203 111.581C1.29571 123.458 9.2515 135.298 24.9494 144.36C56.7785 162.735 108.384 162.735 140.213 144.36C155.845 135.336 163.8 123.557 164.077 111.73V110.449C164.087 110.876 164.087 111.303 164.077 111.73V126.054C163.8 137.881 155.845 149.66 140.213 158.685Z" fill="#79EFBD" stroke="#0D0B33" stroke-width="0.870808"/>
<path d="M140.213 143.619C108.384 161.994 56.779 161.994 24.9499 143.619C-6.87914 125.245 -6.87914 95.453 24.9499 77.0781C56.779 58.7031 108.384 58.7031 140.213 77.0781C172.042 95.453 172.042 125.245 140.213 143.619Z" fill="#F7F6FF" stroke="#0D0B33" stroke-width="0.870808"/>
<path d="M98.078 124.196C98.5526 122.053 97.5474 119.812 95.0619 117.475C101.345 118.652 106.775 117.628 111.355 114.404C113.03 113.243 114.118 112.027 114.62 110.754C115.121 109.48 115.059 108.187 114.43 106.873C113.803 105.559 112.852 104.285 111.582 103.053C110.312 101.82 108.671 100.51 106.661 99.1239L117.215 93.031L110.766 89.308L100.505 95.2316C99.3881 94.5868 97.6572 93.6198 95.312 92.3304L105.657 86.3585L99.2067 82.6349L88.6526 88.7278C87.7029 88.2119 86.3347 87.4385 84.5479 86.4069L75.7115 81.2569L68.8429 85.2222L73.4914 87.9058C75.6134 89.1308 75.9063 90.3962 74.3709 91.7017L62.3508 98.6409C62.6304 98.8023 62.8392 98.9394 62.979 99.0523L62.3086 98.6652L45.4731 108.384C43.8263 109.077 42.3043 109.021 40.9081 108.215L36.2599 105.532L27.297 109.207L35.6733 114.043C36.2039 114.349 36.9641 114.796 37.9571 115.384C38.948 115.972 39.6945 116.411 40.1972 116.701L29.5177 122.867L35.9687 126.591L46.5226 120.498C47.6664 121.191 49.3558 122.182 51.5895 123.472L41.0778 129.54L47.527 133.263L58.2065 127.098C60.608 128.356 62.8474 129.408 64.9277 130.253C67.009 131.099 69.1865 131.801 71.4621 132.356C73.7367 132.912 75.9078 133.222 77.9738 133.287C80.0395 133.352 82.1822 133.154 84.4034 132.695C86.6222 132.235 88.8216 131.49 90.9992 130.457C95.2437 128.428 97.6029 126.34 98.078 124.196ZM87.8999 96.7543C88.0954 96.8671 88.6539 97.1814 89.5754 97.6971C90.4976 98.2129 91.265 98.64 91.8793 98.9784C92.4935 99.3171 93.2683 99.8047 94.2041 100.442C95.1394 101.078 95.8859 101.638 96.4443 102.122C97.0028 102.605 97.5408 103.182 98.0566 103.85C98.5741 104.519 98.8527 105.132 98.8941 105.687C98.9364 106.244 98.7755 106.828 98.4119 107.44C98.0494 108.053 97.4073 108.625 96.4861 109.157C95.7043 109.608 94.8667 109.947 93.9732 110.173C93.0806 110.399 92.1651 110.491 91.2304 110.451C90.2954 110.411 89.4005 110.331 88.5492 110.209C87.6983 110.089 86.7622 109.847 85.7436 109.484C84.7248 109.122 83.8523 108.795 83.1269 108.505C82.4008 108.215 81.5561 107.816 80.593 107.308C79.6296 106.8 78.9029 106.414 78.4148 106.148C77.9261 105.882 77.2772 105.507 76.467 105.023C75.6567 104.54 75.183 104.258 75.0431 104.177L87.9005 96.7544L87.9 96.7542L87.8999 96.7543ZM76.991 123.386C76.0825 123.604 75.1823 123.729 74.2888 123.762C73.3957 123.793 72.4248 123.717 71.3786 123.531C70.3315 123.347 69.3751 123.132 68.5101 122.891C67.6433 122.649 66.6738 122.314 65.5991 121.888C64.5229 121.46 63.6097 121.069 62.8547 120.714C62.101 120.36 61.2291 119.921 60.2372 119.397C59.2472 118.873 58.4855 118.458 57.9553 118.152C57.4247 117.845 56.7621 117.454 55.966 116.979C55.1689 116.504 54.6599 116.202 54.4363 116.072L68.5927 107.9C68.8158 108.029 69.4926 108.404 70.6242 109.024C71.7556 109.645 72.6686 110.157 73.3667 110.56C74.0646 110.963 74.987 111.543 76.1317 112.301C77.2763 113.058 78.1843 113.727 78.8551 114.307C79.5246 114.887 80.1805 115.564 80.823 116.338C81.465 117.112 81.8425 117.821 81.9544 118.466C82.0653 119.111 81.9403 119.779 81.577 120.472C81.2151 121.166 80.5308 121.803 79.5253 122.383C78.7426 122.835 77.8993 123.169 76.991 123.386Z" fill="#0D0B33"/>
<path d="M1.07812 116.109C5.72693 127.821 9.31971 133.203 19.19 138.749V154.597C10.1776 148.218 5.35252 144.304 1.07812 130.825V116.109Z" fill="#0D0B33"/>
<path d="M25.9805 144.406L32.7724 147.802V163.65L25.9805 160.254V144.406Z" fill="#0D0B33"/>
<path d="M140.213 143.114C108.384 161.489 56.7785 161.489 24.9494 143.114C9.92281 134.44 1.99031 123.22 1.15192 111.859L1.08203 96.0109C1.29571 107.888 9.2515 119.727 24.9494 128.79C56.7785 147.165 108.384 147.165 140.213 128.79C155.845 119.765 163.8 107.987 164.077 96.1594V94.8789C164.087 95.3057 164.087 95.7326 164.077 96.1594V110.484C163.8 122.311 155.845 134.09 140.213 143.114Z" fill="#79EFBD" stroke="#0D0B33" stroke-width="0.870808"/>
<path d="M140.213 128.049C108.384 146.424 56.779 146.424 24.9499 128.049C-6.87914 109.674 -6.87914 79.8827 24.9499 61.5077C56.779 43.1328 108.384 43.1328 140.213 61.5077C172.042 79.8827 172.042 109.674 140.213 128.049Z" fill="#F7F6FF" stroke="#0D0B33" stroke-width="0.870808"/>
<path d="M98.078 108.626C98.5526 106.483 97.5474 104.242 95.0619 101.905C101.345 103.081 106.775 102.058 111.355 98.8339C113.03 97.6731 114.118 96.457 114.62 95.1836C115.121 93.9097 115.059 92.6171 114.43 91.303C113.803 89.9889 112.852 88.7151 111.582 87.4825C110.312 86.2497 108.671 84.9397 106.661 83.5536L117.215 77.4607L110.766 73.7377L100.505 79.6612C99.3881 79.0165 97.6572 78.0494 95.312 76.7601L105.657 70.7882L99.2067 67.0646L88.6526 73.1575C87.7029 72.6416 86.3347 71.8682 84.5479 70.8366L75.7115 65.6866L68.8429 69.6519L73.4914 72.3354C75.6134 73.5605 75.9063 74.8259 74.3709 76.1313L62.3508 83.0705C62.6304 83.232 62.8392 83.3691 62.979 83.4819L62.3086 83.0949L45.4731 92.8141C43.8263 93.5071 42.3043 93.4511 40.9081 92.645L36.2599 89.9617L27.297 93.6367L35.6733 98.4723C36.2039 98.7787 36.9641 99.2257 37.9571 99.8135C38.948 100.402 39.6945 100.841 40.1972 101.131L29.5177 107.296L35.9687 111.021L46.5226 104.928C47.6664 105.621 49.3558 106.612 51.5895 107.902L41.0778 113.97L47.527 117.693L58.2065 111.528C60.608 112.786 62.8474 113.838 64.9277 114.683C67.009 115.529 69.1865 116.23 71.4621 116.786C73.7367 117.342 75.9078 117.652 77.9738 117.716C80.0395 117.782 82.1822 117.583 84.4034 117.125C86.6222 116.664 88.8216 115.919 90.9992 114.887C95.2437 112.858 97.6029 110.77 98.078 108.626ZM87.8999 81.1839C88.0954 81.2968 88.6539 81.6111 89.5754 82.1268C90.4976 82.6426 91.265 83.0697 91.8793 83.4081C92.4935 83.7468 93.2683 84.2344 94.2041 84.8713C95.1394 85.5079 95.8859 86.0681 96.4443 86.5514C97.0028 87.0347 97.5408 87.6114 98.0566 88.2799C98.5741 88.9491 98.8527 89.5614 98.8941 90.1171C98.9364 90.6734 98.7755 91.2578 98.4119 91.87C98.0494 92.4827 97.4073 93.0549 96.4861 93.5867C95.7043 94.0381 94.8667 94.3768 93.9732 94.6029C93.0806 94.8289 92.1651 94.9211 91.2304 94.8811C90.2954 94.8412 89.4005 94.7602 88.5492 94.6391C87.6983 94.5183 86.7622 94.2763 85.7436 93.9137C84.7248 93.5513 83.8523 93.225 83.1269 92.9349C82.4008 92.6448 81.5561 92.2461 80.593 91.7382C79.6296 91.2301 78.9029 90.8435 78.4148 90.5776C77.9261 90.3114 77.2772 89.9368 76.467 89.4531C75.6567 88.9694 75.183 88.6875 75.0431 88.6067L87.9005 81.1841L87.9 81.1839L87.8999 81.1839ZM76.991 107.816C76.0825 108.033 75.1823 108.159 74.2888 108.191C73.3957 108.223 72.4248 108.147 71.3786 107.961C70.3315 107.776 69.3751 107.562 68.5101 107.321C67.6433 107.079 66.6738 106.744 65.5991 106.318C64.5229 105.89 63.6097 105.499 62.8547 105.144C62.101 104.79 61.2291 104.351 60.2372 103.827C59.2472 103.303 58.4855 102.888 57.9553 102.581C57.4247 102.275 56.7621 101.884 55.966 101.408C55.1689 100.933 54.6599 100.631 54.4363 100.502L68.5927 92.3297C68.8158 92.4585 69.4926 92.8335 70.6242 93.4539C71.7556 94.0745 72.6686 94.5865 73.3667 94.9895C74.0646 95.3925 74.987 95.9726 76.1317 96.7307C77.2763 97.4876 78.1843 98.1562 78.8551 98.7369C79.5246 99.3172 80.1805 99.9935 80.823 100.768C81.465 101.541 81.8425 102.251 81.9544 102.896C82.0653 103.541 81.9403 104.209 81.577 104.902C81.2151 105.596 80.5308 106.232 79.5253 106.813C78.7426 107.265 77.8993 107.598 76.991 107.816Z" fill="#0D0B33"/>
<path d="M1.07812 100.539C5.72693 112.251 9.31971 117.633 19.19 123.179V139.027C10.1776 132.648 5.35252 128.734 1.07812 115.255V100.539Z" fill="#0D0B33"/>
<path d="M25.9805 128.836L32.7724 132.232V148.08L25.9805 144.684V128.836Z" fill="#0D0B33"/>
<path d="M140.213 127.536C108.384 145.911 56.7785 145.911 24.9494 127.536C9.92281 118.861 1.99031 107.642 1.15192 96.2807L1.08203 80.4328C1.29571 92.31 9.2515 104.149 24.9494 113.212C56.7785 131.587 108.384 131.587 140.213 113.212C155.845 104.187 163.8 92.4086 164.077 80.5813V79.3008C164.087 79.7276 164.087 80.1545 164.077 80.5813V94.9055C163.8 106.733 155.845 118.512 140.213 127.536Z" fill="#79EFBD" stroke="#0D0B33" stroke-width="0.870808"/>
<path d="M140.213 112.471C108.384 130.846 56.779 130.846 24.9499 112.471C-6.87914 94.0962 -6.87914 64.3045 24.9499 45.9296C56.779 27.5547 108.384 27.5547 140.213 45.9296C172.042 64.3045 172.042 94.0962 140.213 112.471Z" fill="#F7F6FF" stroke="#0D0B33" stroke-width="0.870808"/>
<path d="M98.078 93.0477C98.5526 90.9044 97.5474 88.6639 95.0619 86.3266C101.345 87.5033 106.775 86.4794 111.355 83.2557C113.03 82.095 114.118 80.8789 114.62 79.6055C115.121 78.3316 115.059 77.039 114.43 75.7248C113.803 74.4108 112.852 73.137 111.582 71.9044C110.312 70.6716 108.671 69.3616 106.661 67.9755L117.215 61.8826L110.766 58.1595L100.505 64.0831C99.3881 63.4384 97.6572 62.4713 95.312 61.182L105.657 55.2101L99.2067 51.4865L88.6526 57.5794C87.7029 57.0635 86.3347 56.29 84.5479 55.2585L75.7115 50.1085L68.8429 54.0738L73.4914 56.7573C75.6134 57.9824 75.9063 59.2478 74.3709 60.5532L62.3508 67.4924C62.6304 67.6538 62.8392 67.7909 62.979 67.9038L62.3086 67.5168L45.4731 77.236C43.8263 77.929 42.3043 77.8729 40.9081 77.0669L36.2599 74.3835L27.297 78.0586L35.6733 82.8942C36.2039 83.2005 36.9641 83.6476 37.9571 84.2354C38.948 84.8237 39.6945 85.2628 40.1972 85.553L29.5177 91.7182L35.9687 95.4424L46.5226 89.3496C47.6664 90.0429 49.3558 91.034 51.5895 92.3235L41.0778 98.3919L47.527 102.115L58.2065 95.9498C60.608 97.2074 62.8474 98.2597 64.9277 99.1048C67.009 99.9505 69.1865 100.652 71.4621 101.208C73.7367 101.764 75.9078 102.074 77.9738 102.138C80.0395 102.203 82.1822 102.005 84.4034 101.546C86.6222 101.086 88.8216 100.341 90.9992 99.3089C95.2437 97.2794 97.6029 95.1917 98.078 93.0477ZM87.8999 65.6058C88.0954 65.7187 88.6539 66.033 89.5754 66.5487C90.4976 67.0645 91.265 67.4916 91.8793 67.83C92.4935 68.1686 93.2683 68.6562 94.2041 69.2932C95.1394 69.9298 95.8859 70.49 96.4443 70.9733C97.0028 71.4566 97.5408 72.0333 98.0566 72.7018C98.5741 73.371 98.8527 73.9833 98.8941 74.539C98.9364 75.0953 98.7755 75.6797 98.4119 76.2919C98.0494 76.9046 97.4073 77.4768 96.4861 78.0086C95.7043 78.46 94.8667 78.7987 93.9732 79.0247C93.0806 79.2508 92.1651 79.343 91.2304 79.303C90.2954 79.263 89.4005 79.1821 88.5492 79.061C87.6983 78.9402 86.7622 78.6982 85.7436 78.3356C84.7248 77.9732 83.8523 77.6468 83.1269 77.3568C82.4008 77.0667 81.5561 76.668 80.593 76.16C79.6296 75.652 78.9029 75.2653 78.4148 74.9994C77.9261 74.7333 77.2772 74.3586 76.467 73.875C75.6567 73.3913 75.183 73.1094 75.0431 73.0286L87.9005 65.606L87.9 65.6057L87.8999 65.6058ZM76.991 92.238C76.0825 92.4553 75.1823 92.5808 74.2888 92.6134C73.3957 92.6449 72.4248 92.5684 71.3786 92.3829C70.3315 92.1982 69.3751 91.9839 68.5101 91.7425C67.6433 91.501 66.6738 91.1658 65.5991 90.7395C64.5229 90.3117 63.6097 89.9207 62.8547 89.566C62.101 89.2117 61.2291 88.7725 60.2372 88.2486C59.2472 87.7245 58.4855 87.3094 57.9553 87.0033C57.4247 86.697 56.7621 86.3056 55.966 85.8303C55.1689 85.3551 54.6599 85.0531 54.4363 84.924L68.5927 76.7516C68.8158 76.8804 69.4926 77.2553 70.6242 77.8757C71.7556 78.4964 72.6686 79.0084 73.3667 79.4114C74.0646 79.8143 74.987 80.3944 76.1317 81.1526C77.2763 81.9094 78.1843 82.5781 78.8551 83.1588C79.5246 83.739 80.1805 84.4154 80.823 85.1898C81.465 85.9632 81.8425 86.6726 81.9544 87.3175C82.0653 87.9628 81.9403 88.6309 81.577 89.3241C81.2151 90.0175 80.5308 90.6543 79.5253 91.2347C78.7426 91.6864 77.8993 92.0203 76.991 92.238Z" fill="#0D0B33"/>
<path d="M1.07812 84.9609C5.72693 96.6725 9.31971 102.055 19.19 107.601V123.449C10.1776 117.07 5.35252 113.156 1.07812 99.6768V84.9609Z" fill="#0D0B33"/>
<path d="M25.9805 113.258L32.7724 116.654V132.502L25.9805 129.106V113.258Z" fill="#0D0B33"/>
<path d="M140.213 111.962C108.384 130.337 56.7785 130.337 24.9494 111.962C9.92281 103.287 1.99031 92.0678 1.15192 80.7064L1.08203 64.8586C1.29571 76.7358 9.2515 88.5751 24.9494 97.6375C56.7785 116.012 108.384 116.012 140.213 97.6375C155.845 88.6129 163.8 76.8344 164.077 65.0071V63.7266C164.087 64.1534 164.087 64.5803 164.077 65.0071V79.3313C163.8 91.1587 155.845 102.937 140.213 111.962Z" fill="#79EFBD" stroke="#0D0B33" stroke-width="0.870808"/>
<path d="M140.213 96.8968C108.384 115.272 56.779 115.272 24.9499 96.8968C-6.87914 78.5219 -6.87914 48.7303 24.9499 30.3554C56.779 11.9805 108.384 11.9805 140.213 30.3554C172.042 48.7303 172.042 78.5219 140.213 96.8968Z" fill="#F7F6FF" stroke="#0D0B33" stroke-width="0.870808"/>
<path d="M98.078 77.4696C98.5526 75.3263 97.5474 73.0857 95.0619 70.7484C101.345 71.9251 106.775 70.9013 111.355 67.6776C113.03 66.5168 114.118 65.3008 114.62 64.0274C115.121 62.7535 115.059 61.4609 114.43 60.1467C113.803 58.8327 112.852 57.5588 111.582 56.3263C110.312 55.0934 108.671 53.7834 106.661 52.3973L117.215 46.3045L110.766 42.5814L100.505 48.505C99.3881 47.8603 97.6572 46.8932 95.312 45.6039L105.657 39.6319L99.2067 35.9084L88.6526 42.0012C87.7029 41.4853 86.3347 40.7119 84.5479 39.6804L75.7115 34.5304L68.8429 38.4956L73.4914 41.1792C75.6134 42.4042 75.9063 43.6697 74.3709 44.9751L62.3508 51.9143C62.6304 52.0757 62.8392 52.2128 62.979 52.3257L62.3086 51.9387L45.4731 61.6578C43.8263 62.3509 42.3043 62.2948 40.9081 61.4888L36.2599 58.8054L27.297 62.4805L35.6733 67.3161C36.2039 67.6224 36.9641 68.0695 37.9571 68.6572C38.948 69.2455 39.6945 69.6846 40.1972 69.9749L29.5177 76.1401L35.9687 79.8643L46.5226 73.7715C47.6664 74.4648 49.3558 75.4559 51.5895 76.7454L41.0778 82.8138L47.527 86.5369L58.2065 80.3716C60.608 81.6293 62.8474 82.6816 64.9277 83.5267C67.009 84.3724 69.1865 85.0742 71.4621 85.6299C73.7367 86.1859 75.9078 86.4958 77.9738 86.5601C80.0395 86.6253 82.1822 86.4271 84.4034 85.9683C86.6222 85.5081 88.8216 84.7629 90.9992 83.7307C95.2437 81.7013 97.6029 79.6135 98.078 77.4696ZM87.8999 50.0277C88.0954 50.1406 88.6539 50.4548 89.5754 50.9706C90.4976 51.4864 91.265 51.9134 91.8793 52.2518C92.4935 52.5905 93.2683 53.0781 94.2041 53.715C95.1394 54.3517 95.8859 54.9119 96.4443 55.3952C97.0028 55.8785 97.5408 56.4552 98.0566 57.1237C98.5741 57.7928 98.8527 58.4052 98.8941 58.9609C98.9364 59.5172 98.7755 60.1016 98.4119 60.7138C98.0494 61.3265 97.4073 61.8987 96.4861 62.4305C95.7043 62.8819 94.8667 63.2206 93.9732 63.4466C93.0806 63.6726 92.1651 63.7649 91.2304 63.7249C90.2954 63.6849 89.4005 63.604 88.5492 63.4829C87.6983 63.3621 86.7622 63.1201 85.7436 62.7575C84.7248 62.3951 83.8523 62.0687 83.1269 61.7787C82.4008 61.4885 81.5561 61.0898 80.593 60.5819C79.6296 60.0739 78.9029 59.6872 78.4148 59.4213C77.9261 59.1551 77.2772 58.7805 76.467 58.2969C75.6567 57.8132 75.183 57.5312 75.0431 57.4505L87.9005 50.0279L87.9 50.0276L87.8999 50.0277ZM76.991 76.6598C76.0825 76.8772 75.1823 77.0026 74.2888 77.0352C73.3957 77.0667 72.4248 76.9903 71.3786 76.8048C70.3315 76.62 69.3751 76.4058 68.5101 76.1643C67.6433 75.9229 66.6738 75.5876 65.5991 75.1613C64.5229 74.7336 63.6097 74.3426 62.8547 73.9879C62.101 73.6336 61.2291 73.1944 60.2372 72.6705C59.2472 72.1464 58.4855 71.7313 57.9553 71.4252C57.4247 71.1189 56.7621 70.7275 55.966 70.2522C55.1689 69.7769 54.6599 69.475 54.4363 69.3459L68.5927 61.1734C68.8158 61.3022 69.4926 61.6772 70.6242 62.2976C71.7556 62.9183 72.6686 63.4303 73.3667 63.8333C74.0646 64.2362 74.987 64.8163 76.1317 65.5745C77.2763 66.3313 78.1843 67 78.8551 67.5807C79.5246 68.1609 80.1805 68.8373 80.823 69.6116C81.465 70.3851 81.8425 71.0945 81.9544 71.7393C82.0653 72.3846 81.9403 73.0528 81.577 73.7459C81.2151 74.4394 80.5308 75.0762 79.5253 75.6566C78.7426 76.1083 77.8993 76.4422 76.991 76.6598Z" fill="#0D0B33"/>
<path d="M1.07812 69.3867C5.72693 81.0983 9.31971 86.4806 19.19 92.0265V107.874C10.1776 101.496 5.35252 97.5815 1.07812 84.1026V69.3867Z" fill="#0D0B33"/>
<path d="M25.9805 97.6875L32.7724 101.083V116.931L25.9805 113.535V97.6875Z" fill="#0D0B33"/>
<path d="M140.134 96.3879C108.305 114.763 56.7003 114.763 24.8713 96.3879C9.84468 87.713 1.91219 76.4936 1.0738 65.1322L1.00391 49.2843C1.21759 61.1615 9.17338 73.0009 24.8713 82.0633C56.7003 100.438 108.305 100.438 140.134 82.0633C155.767 73.0387 163.722 61.2602 163.999 49.4328V48.1523C164.009 48.5792 164.009 49.006 163.999 49.4328V63.7571C163.722 75.5845 155.767 87.3632 140.134 96.3879Z" fill="#79EFBD" stroke="#0D0B33" stroke-width="0.870808"/>
<path d="M140.135 81.3226C108.306 99.6975 56.7008 99.6975 24.8718 81.3226C-6.95726 62.9477 -6.95726 33.1561 24.8718 14.7812C56.7008 -3.59373 108.306 -3.59373 140.135 14.7812C171.964 33.1561 171.964 62.9477 140.135 81.3226Z" fill="#F7F6FF" stroke="#0D0B33" stroke-width="0.870808"/>
<path d="M1 53.8125C5.6488 65.5241 9.52897 71.0863 19.1119 77.7611V92.3002C10.0995 85.9215 5.2744 82.0073 1 68.5284V53.8125Z" fill="#0D0B33"/>
<path fill-rule="evenodd" clip-rule="evenodd" d="M61.8321 25.2463L110.978 53.8826C111.594 54.2416 111.931 54.7265 111.913 55.2317L111.74 64.3935C111.707 66.0836 108.185 66.9474 106.146 65.7591L56.9994 37.1228C56.3834 36.7639 56.0473 36.2789 56.0646 35.7737L56.2381 26.612C56.2603 24.9156 59.7928 24.058 61.8321 25.2463ZM70.744 18.1598L86.4676 18.0587C87.3453 18.0547 88.1775 18.2506 88.783 18.6034L137.919 47.2335C139.958 48.4218 138.486 50.48 135.575 50.493L119.862 50.6003C118.984 50.6042 118.152 50.4083 117.547 50.0556L68.4002 21.4193C66.3609 20.231 67.8327 18.1727 70.744 18.1598ZM97.2233 72.8395L81.4996 72.9406C80.622 72.9445 79.7897 72.7487 79.1843 72.3959L30.0486 43.7658C28.0092 42.5775 29.4811 40.5192 32.3924 40.5063L48.116 40.4052C48.9937 40.4013 49.8259 40.5971 50.4314 40.9499L99.5671 69.58C101.606 70.7683 100.135 72.8265 97.2233 72.8395Z" fill="#0D0B33"/>
<path d="M40.3047 88.5156L51.0586 92.3215V181.963L40.3047 178.158V88.5156Z" fill="#0D0B33"/>
</svg>
