<svg xmlns="http://www.w3.org/2000/svg" width="219" height="335" fill="none"><path fill="#EFEFEF" d="M193.412 319.613c-33.598 19.451-88.07 19.451-121.667 0-33.598-19.451-33.598-50.988 0-70.439 33.597-19.451 88.069-19.451 121.667 0 33.597 19.451 33.597 50.988 0 70.439Z"/><path fill="#79EFBD" stroke="#0D0B33" stroke-width=".871" d="M140.213 298.857c-31.829 18.375-83.434 18.375-115.264 0-15.026-8.675-22.959-19.895-23.797-31.256l-.07-15.848c.214 11.877 8.17 23.717 23.867 32.779 31.83 18.375 83.435 18.375 115.264 0 15.632-9.025 23.587-20.803 23.864-32.63v-1.281c.01.427.01.854 0 1.281v14.324c-.277 11.827-8.232 23.606-23.864 32.631Z"/><path fill="#F7F6FF" stroke="#0D0B33" stroke-width=".871" d="M140.213 283.791c-31.829 18.375-83.434 18.375-115.263 0-31.83-18.375-31.83-48.166 0-66.541 31.829-18.375 83.434-18.375 115.263 0 31.829 18.375 31.829 48.166 0 66.541Z"/><path fill="#0D0B33" d="M98.078 264.368c.475-2.143-.53-4.384-3.016-6.721 6.283 1.177 11.713.153 16.293-3.071 1.675-1.161 2.763-2.377 3.265-3.65.501-1.274.439-2.567-.19-3.881-.627-1.314-1.578-2.588-2.848-3.82-1.27-1.233-2.911-2.543-4.921-3.929l10.554-6.093-6.449-3.723-10.261 5.923a326.008 326.008 0 0 0-5.193-2.901l10.345-5.972-6.45-3.723-10.554 6.093c-.95-.516-2.318-1.29-4.105-2.321l-8.837-5.15-6.868 3.965 4.648 2.684c2.122 1.225 2.415 2.49.88 3.796l-12.02 6.939c.28.161.488.298.628.411l-.67-.387-16.836 9.719c-1.647.693-3.169.637-4.565-.169l-4.648-2.683-8.963 3.675 8.376 4.836c.53.306 1.291.753 2.284 1.341.991.588 1.737 1.027 2.24 1.317l-10.68 6.166 6.452 3.724 10.554-6.093c1.143.693 2.833 1.684 5.066 2.974l-10.511 6.068 6.449 3.723 10.68-6.165c2.401 1.258 4.64 2.31 6.72 3.155a46.73 46.73 0 0 0 6.535 2.103c2.275.556 4.446.866 6.512.931 2.066.065 4.208-.133 6.43-.592 2.218-.46 4.418-1.206 6.595-2.238 4.245-2.029 6.604-4.117 7.079-6.261ZM87.9 236.926a385.566 385.566 0 0 0 3.98 2.224c.614.339 1.388.827 2.324 1.463.935.637 1.682 1.197 2.24 1.681.559.483 1.097 1.06 1.613 1.728.517.669.796 1.282.837 1.837.042.557-.119 1.141-.482 1.753-.363.613-1.005 1.185-1.926 1.717-.782.451-1.62.79-2.513 1.016a9.472 9.472 0 0 1-2.743.278c-.935-.04-1.83-.121-2.68-.242-.852-.12-1.788-.362-2.806-.725a73.077 73.077 0 0 1-2.617-.979c-.726-.29-1.57-.689-2.534-1.197-.963-.508-1.69-.894-2.178-1.16a59.279 59.279 0 0 1-1.948-1.125 252.36 252.36 0 0 0-1.424-.846l12.857-7.423ZM76.99 263.558c-.909.218-1.809.343-2.702.376a13.924 13.924 0 0 1-2.91-.231 30.493 30.493 0 0 1-2.869-.64 29.648 29.648 0 0 1-2.91-1.003 49.837 49.837 0 0 1-2.745-1.174 63.543 63.543 0 0 1-2.618-1.317 76.397 76.397 0 0 1-2.282-1.245c-.53-.307-1.193-.698-1.989-1.173-.797-.476-1.306-.778-1.53-.907l14.157-8.172c.223.129.9.504 2.031 1.124 1.132.621 2.045 1.133 2.743 1.536s1.62.983 2.765 1.741c1.144.757 2.052 1.425 2.723 2.006.67.58 1.325 1.257 1.968 2.031.642.773 1.02 1.483 1.131 2.128.111.645-.014 1.313-.377 2.006-.362.694-1.046 1.331-2.052 1.911a9.403 9.403 0 0 1-2.534 1.003ZM1.078 256.281c4.649 11.712 8.242 17.094 18.112 22.64v15.848c-9.012-6.379-13.837-10.293-18.112-23.772v-14.716ZM25.98 284.578l6.792 3.396v15.848l-6.791-3.396v-15.848Z"/><path fill="#79EFBD" stroke="#0D0B33" stroke-width=".871" d="M140.213 283.286c-31.829 18.375-83.434 18.375-115.264 0-15.026-8.675-22.959-19.894-23.797-31.255l-.07-15.848c.214 11.877 8.17 23.716 23.867 32.779 31.83 18.375 83.435 18.375 115.264 0 15.632-9.025 23.587-20.803 23.864-32.631v-1.28c.01.427.01.853 0 1.28v14.324c-.277 11.828-8.232 23.607-23.864 32.631Z"/><path fill="#F7F6FF" stroke="#0D0B33" stroke-width=".871" d="M140.213 268.221c-31.829 18.375-83.434 18.375-115.263 0-31.83-18.375-31.83-48.166 0-66.541 31.829-18.375 83.434-18.375 115.263 0 31.829 18.375 31.829 48.166 0 66.541Z"/><path fill="#0D0B33" d="M98.078 248.798c.475-2.144-.53-4.384-3.016-6.721 6.283 1.176 11.713.152 16.293-3.071 1.675-1.161 2.763-2.377 3.265-3.65.501-1.274.439-2.567-.19-3.881-.627-1.314-1.578-2.588-2.848-3.821-1.27-1.232-2.911-2.542-4.921-3.929l10.554-6.092-6.449-3.723-10.261 5.923a310.562 310.562 0 0 0-5.193-2.901l10.345-5.972-6.45-3.724-10.554 6.093c-.95-.516-2.318-1.289-4.105-2.321l-8.837-5.15-6.868 3.966 4.648 2.683c2.122 1.225 2.415 2.491.88 3.796l-12.02 6.939c.28.162.488.299.628.412l-.67-.387-16.836 9.719c-1.647.693-3.169.637-4.565-.169l-4.648-2.683-8.963 3.675 8.376 4.835c.53.307 1.291.754 2.284 1.341.991.589 1.737 1.028 2.24 1.318l-10.68 6.165 6.452 3.724 10.554-6.092a298.94 298.94 0 0 0 5.066 2.973l-10.511 6.069 6.449 3.723 10.68-6.165c2.401 1.257 4.64 2.31 6.72 3.155a46.863 46.863 0 0 0 6.535 2.103c2.275.556 4.446.866 6.512.93 2.066.065 4.208-.133 6.43-.592a29.235 29.235 0 0 0 6.595-2.237c4.245-2.03 6.604-4.117 7.079-6.261ZM87.9 221.356a385.566 385.566 0 0 0 3.98 2.224c.614.339 1.388.826 2.324 1.463.935.637 1.682 1.197 2.24 1.68.559.484 1.097 1.06 1.613 1.729.517.669.796 1.281.837 1.837.042.556-.119 1.141-.482 1.753-.363.613-1.005 1.185-1.926 1.717-.782.451-1.62.79-2.513 1.016a9.472 9.472 0 0 1-2.743.278c-.935-.04-1.83-.121-2.68-.242-.852-.121-1.788-.363-2.806-.725a75.063 75.063 0 0 1-2.617-.979c-.726-.29-1.57-.689-2.534-1.197-.963-.508-1.69-.895-2.178-1.161a58.938 58.938 0 0 1-1.948-1.124c-.81-.484-1.284-.766-1.424-.846l12.857-7.423ZM76.99 247.988c-.909.217-1.809.343-2.702.375-.893.032-1.864-.045-2.91-.23a30.169 30.169 0 0 1-2.869-.641 29.13 29.13 0 0 1-2.91-1.003 49.145 49.145 0 0 1-2.745-1.173 63.543 63.543 0 0 1-2.618-1.317c-.99-.524-1.752-.94-2.282-1.246-.53-.306-1.193-.697-1.989-1.173-.797-.475-1.306-.777-1.53-.906l14.157-8.172c.223.128.9.503 2.031 1.124 1.132.62 2.045 1.132 2.743 1.535s1.62.983 2.765 1.742c1.144.756 2.052 1.425 2.723 2.006.67.58 1.325 1.256 1.968 2.031.642.773 1.02 1.483 1.131 2.127.111.646-.014 1.314-.377 2.007-.362.694-1.046 1.33-2.052 1.911a9.469 9.469 0 0 1-2.534 1.003ZM1.078 240.711c4.649 11.712 8.242 17.094 18.112 22.64v15.848c-9.012-6.379-13.837-10.293-18.112-23.772v-14.716ZM25.98 269.008l6.792 3.396v15.848l-6.791-3.396v-15.848Z"/><path fill="#79EFBD" stroke="#0D0B33" stroke-width=".871" d="M140.213 267.708c-31.829 18.375-83.434 18.375-115.264 0-15.026-8.675-22.959-19.894-23.797-31.255l-.07-15.848c.214 11.877 8.17 23.716 23.867 32.779 31.83 18.375 83.435 18.375 115.264 0 15.632-9.025 23.587-20.804 23.864-32.631v-1.28c.01.426.01.853 0 1.28v14.324c-.277 11.828-8.232 23.606-23.864 32.631Z"/><path fill="#F7F6FF" stroke="#0D0B33" stroke-width=".871" d="M140.213 252.643c-31.829 18.375-83.434 18.375-115.263 0-31.83-18.375-31.83-48.167 0-66.542 31.829-18.374 83.434-18.374 115.263 0 31.829 18.375 31.829 48.167 0 66.542Z"/><path fill="#0D0B33" d="M98.078 233.22c.475-2.144-.53-4.384-3.016-6.722 6.283 1.177 11.713.153 16.293-3.07 1.675-1.161 2.763-2.377 3.265-3.651.501-1.274.439-2.566-.19-3.88-.627-1.314-1.578-2.588-2.848-3.821-1.27-1.233-2.911-2.543-4.921-3.929l10.554-6.093-6.449-3.723-10.261 5.924a310.562 310.562 0 0 0-5.193-2.901l10.345-5.972-6.45-3.724-10.554 6.093c-.95-.516-2.318-1.289-4.105-2.321l-8.837-5.15-6.868 3.966 4.648 2.683c2.122 1.225 2.415 2.491.88 3.796l-12.02 6.939c.28.162.488.299.628.412l-.67-.387-16.836 9.719c-1.647.693-3.169.637-4.565-.169l-4.648-2.684-8.963 3.675 8.376 4.836c.53.306 1.291.753 2.284 1.341.991.589 1.737 1.028 2.24 1.318l-10.68 6.165 6.452 3.724 10.554-6.092a298.94 298.94 0 0 0 5.066 2.973l-10.511 6.069 6.449 3.723 10.68-6.165c2.401 1.257 4.64 2.31 6.72 3.155a46.996 46.996 0 0 0 6.535 2.103c2.275.556 4.446.866 6.512.93 2.066.065 4.208-.133 6.43-.592a29.235 29.235 0 0 0 6.595-2.237c4.245-2.03 6.604-4.117 7.079-6.261ZM87.9 205.778a546.136 546.136 0 0 0 3.98 2.224c.614.339 1.388.826 2.324 1.463.935.637 1.682 1.197 2.24 1.68.559.483 1.097 1.06 1.613 1.729.517.669.796 1.281.837 1.837.042.556-.119 1.141-.482 1.753-.363.612-1.005 1.185-1.926 1.716a9.791 9.791 0 0 1-2.513 1.017 9.472 9.472 0 0 1-2.743.278c-.935-.04-1.83-.121-2.68-.242-.852-.121-1.788-.363-2.806-.726a73.267 73.267 0 0 1-2.617-.978c-.726-.29-1.57-.689-2.534-1.197-.963-.508-1.69-.895-2.178-1.161a58.938 58.938 0 0 1-1.948-1.124c-.81-.484-1.284-.766-1.424-.847l12.857-7.422ZM76.99 232.41c-.909.217-1.809.343-2.702.375-.893.032-1.864-.045-2.91-.23a30.169 30.169 0 0 1-2.869-.641 29.13 29.13 0 0 1-2.91-1.003 49.145 49.145 0 0 1-2.745-1.173 64.837 64.837 0 0 1-2.618-1.317 78.34 78.34 0 0 1-2.282-1.246c-.53-.306-1.193-.697-1.989-1.173-.797-.475-1.306-.777-1.53-.906l14.157-8.173c.223.129.9.504 2.031 1.125 1.132.62 2.045 1.132 2.743 1.535s1.62.983 2.765 1.741c1.144.757 2.052 1.426 2.723 2.007.67.58 1.325 1.256 1.968 2.031.642.773 1.02 1.482 1.131 2.127.111.646-.014 1.314-.377 2.007-.362.693-1.046 1.33-2.052 1.911a9.469 9.469 0 0 1-2.534 1.003ZM1.078 225.133c4.649 11.711 8.242 17.094 18.112 22.64v15.848c-9.012-6.379-13.837-10.293-18.112-23.772v-14.716ZM25.98 253.43l6.792 3.396v15.848l-6.791-3.396V253.43Z"/><path fill="#79EFBD" stroke="#0D0B33" stroke-width=".871" d="M140.213 252.134c-31.829 18.375-83.434 18.375-115.264 0C9.923 243.459 1.99 232.24 1.152 220.878l-.07-15.848c.214 11.878 8.17 23.717 23.867 32.779 31.83 18.375 83.435 18.375 115.264 0 15.632-9.024 23.587-20.803 23.864-32.63v-1.281c.01.427.01.854 0 1.281v14.324c-.277 11.828-8.232 23.606-23.864 32.631Z"/><path fill="#F7F6FF" stroke="#0D0B33" stroke-width=".871" d="M140.213 237.069c-31.829 18.375-83.434 18.375-115.263 0-31.83-18.375-31.83-48.167 0-66.542 31.829-18.375 83.434-18.375 115.263 0 31.829 18.375 31.829 48.167 0 66.542Z"/><path fill="#0D0B33" d="M98.078 217.645c.475-2.143-.53-4.383-3.016-6.721 6.283 1.177 11.713.153 16.293-3.071 1.675-1.16 2.763-2.376 3.265-3.65.501-1.274.439-2.566-.19-3.88-.627-1.315-1.578-2.588-2.848-3.821-1.27-1.233-2.911-2.543-4.921-3.929l10.554-6.093-6.449-3.723-10.261 5.924a310.562 310.562 0 0 0-5.193-2.901l10.345-5.972-6.45-3.724-10.554 6.093c-.95-.516-2.318-1.289-4.105-2.321l-8.837-5.15-6.868 3.965 4.648 2.684c2.122 1.225 2.415 2.49.88 3.796l-12.02 6.939c.28.161.488.299.628.411l-.67-.387-16.836 9.72c-1.647.693-3.169.637-4.565-.169l-4.648-2.684-8.963 3.675 8.376 4.836c.53.306 1.291.753 2.284 1.341.991.588 1.737 1.027 2.24 1.318l-10.68 6.165 6.452 3.724 10.554-6.093a290.9 290.9 0 0 0 5.066 2.974l-10.511 6.069 6.449 3.723 10.68-6.166c2.401 1.258 4.64 2.31 6.72 3.156a46.996 46.996 0 0 0 6.535 2.103c2.275.556 4.446.866 6.512.93 2.066.065 4.208-.133 6.43-.592a29.235 29.235 0 0 0 6.595-2.237c4.245-2.03 6.604-4.118 7.079-6.262ZM87.9 190.203a462.93 462.93 0 0 0 3.98 2.225c.614.338 1.388.826 2.324 1.463.935.636 1.682 1.197 2.24 1.68.559.483 1.097 1.06 1.613 1.728.517.67.796 1.282.837 1.838.042.556-.119 1.14-.482 1.753-.363.612-1.005 1.184-1.926 1.716-.782.452-1.62.79-2.513 1.016a9.473 9.473 0 0 1-2.743.279c-.935-.04-1.83-.121-2.68-.242-.852-.121-1.788-.363-2.806-.726a73.077 73.077 0 0 1-2.617-.979 27.1 27.1 0 0 1-2.534-1.196c-.963-.508-1.69-.895-2.178-1.161a60.813 60.813 0 0 1-1.948-1.124c-.81-.484-1.284-.766-1.424-.847l12.857-7.422v-.001ZM76.99 216.836a13.8 13.8 0 0 1-2.702.375c-.893.032-1.864-.045-2.91-.23a30.169 30.169 0 0 1-2.869-.641 29.387 29.387 0 0 1-2.91-1.003 50.695 50.695 0 0 1-2.745-1.173 64.987 64.987 0 0 1-2.618-1.318 76.397 76.397 0 0 1-2.282-1.245c-.53-.306-1.193-.698-1.989-1.173-.797-.475-1.306-.777-1.53-.906l14.157-8.173c.223.129.9.504 2.031 1.124 1.132.621 2.045 1.133 2.743 1.536s1.62.983 2.765 1.741c1.144.757 2.052 1.426 2.723 2.006.67.581 1.325 1.257 1.968 2.031.642.774 1.02 1.483 1.131 2.128.111.645-.014 1.314-.377 2.007-.362.693-1.046 1.33-2.052 1.91a9.438 9.438 0 0 1-2.534 1.004ZM1.078 209.559c4.649 11.711 8.242 17.093 18.112 22.639v15.848c-9.012-6.378-13.837-10.293-18.112-23.772v-14.715ZM25.98 237.859l6.792 3.396v15.848l-6.791-3.396v-15.848Z"/><path fill="#79EFBD" stroke="#0D0B33" stroke-width=".871" d="M140.213 236.56c-31.829 18.375-83.434 18.375-115.264 0-15.026-8.675-22.959-19.895-23.797-31.256l-.07-15.848c.214 11.877 8.17 23.717 23.867 32.779 31.83 18.375 83.435 18.375 115.264 0 15.632-9.024 23.587-20.803 23.864-32.63v-1.281c.01.427.01.854 0 1.281v14.324c-.277 11.827-8.232 23.606-23.864 32.631Z"/><path fill="#F7F6FF" stroke="#0D0B33" stroke-width=".871" d="M140.213 221.494c-31.829 18.375-83.434 18.375-115.263 0-31.83-18.374-31.83-48.166 0-66.541 31.829-18.375 83.434-18.375 115.263 0 31.829 18.375 31.829 48.167 0 66.541Z"/><path fill="#0D0B33" d="M98.078 202.071c.475-2.143-.53-4.384-3.016-6.721 6.283 1.177 11.713.153 16.293-3.071 1.675-1.161 2.763-2.377 3.265-3.65.501-1.274.439-2.567-.19-3.881-.627-1.314-1.578-2.588-2.848-3.82-1.27-1.233-2.911-2.543-4.921-3.929l10.554-6.093-6.449-3.723-10.261 5.924a316.36 316.36 0 0 0-5.193-2.902l10.345-5.972-6.45-3.723-10.554 6.093c-.95-.516-2.318-1.29-4.105-2.321l-8.837-5.15-6.868 3.965 4.648 2.684c2.122 1.225 2.415 2.49.88 3.796l-12.02 6.939c.28.161.488.298.628.411l-.67-.387-16.836 9.719c-1.647.693-3.169.637-4.565-.169l-4.648-2.683-8.963 3.675 8.376 4.836c.53.306 1.291.753 2.284 1.341.991.588 1.737 1.027 2.24 1.317l-10.68 6.166 6.452 3.724 10.554-6.093c1.143.693 2.833 1.684 5.066 2.974l-10.511 6.068 6.449 3.723 10.68-6.165c2.401 1.258 4.64 2.31 6.72 3.155a46.73 46.73 0 0 0 6.535 2.103c2.275.556 4.446.866 6.512.931 2.066.065 4.208-.133 6.43-.592a29.19 29.19 0 0 0 6.595-2.238c4.245-2.029 6.604-4.117 7.079-6.261ZM87.9 174.629a385.566 385.566 0 0 0 3.98 2.224c.614.339 1.388.827 2.324 1.464.935.636 1.682 1.196 2.24 1.68.559.483 1.097 1.06 1.613 1.728.517.669.796 1.282.837 1.837.042.557-.119 1.141-.482 1.753-.363.613-1.005 1.185-1.926 1.717-.782.451-1.62.79-2.513 1.016a9.472 9.472 0 0 1-2.743.278 27.09 27.09 0 0 1-2.68-.242c-.852-.12-1.788-.362-2.806-.725a73.077 73.077 0 0 1-2.617-.979c-.726-.29-1.57-.689-2.534-1.197-.963-.508-1.69-.894-2.178-1.16a59.279 59.279 0 0 1-1.948-1.125 252.36 252.36 0 0 0-1.424-.846l12.857-7.423ZM76.99 201.261c-.909.218-1.809.343-2.702.376a13.924 13.924 0 0 1-2.91-.231 30.182 30.182 0 0 1-2.869-.64 29.648 29.648 0 0 1-2.91-1.003 49.837 49.837 0 0 1-2.745-1.174 63.543 63.543 0 0 1-2.618-1.317 76.397 76.397 0 0 1-2.282-1.245c-.53-.307-1.193-.698-1.989-1.173a227.57 227.57 0 0 0-1.53-.907l14.157-8.172c.223.129.9.504 2.031 1.124 1.132.621 2.045 1.133 2.743 1.536s1.62.983 2.765 1.741c1.144.757 2.052 1.426 2.723 2.006.67.58 1.325 1.257 1.968 2.031.642.774 1.02 1.483 1.131 2.128.111.645-.014 1.313-.377 2.006-.362.694-1.046 1.331-2.052 1.911a9.403 9.403 0 0 1-2.534 1.003ZM1.078 193.984c4.649 11.712 8.242 17.094 18.112 22.64v15.848c-9.012-6.379-13.837-10.293-18.112-23.772v-14.716ZM25.98 222.281l6.792 3.396v15.848l-6.791-3.396v-15.848Z"/><path fill="#79EFBD" stroke="#0D0B33" stroke-width=".871" d="M140.213 220.982c-31.829 18.375-83.434 18.375-115.264 0-15.026-8.675-22.959-19.895-23.797-31.256l-.07-15.848c.214 11.877 8.17 23.717 23.867 32.779 31.83 18.375 83.435 18.375 115.264 0 15.632-9.025 23.587-20.803 23.864-32.63v-1.281c.01.427.01.854 0 1.281v14.324c-.277 11.827-8.232 23.606-23.864 32.631Z"/><path fill="#F7F6FF" stroke="#0D0B33" stroke-width=".871" d="M140.213 205.916c-31.829 18.375-83.434 18.375-115.263 0-31.83-18.375-31.83-48.166 0-66.541 31.829-18.375 83.434-18.375 115.263 0 31.829 18.375 31.829 48.166 0 66.541Z"/><path fill="#0D0B33" d="M98.078 186.493c.475-2.143-.53-4.384-3.016-6.721 6.283 1.177 11.713.153 16.293-3.071 1.675-1.161 2.763-2.377 3.265-3.65.501-1.274.439-2.567-.19-3.881-.627-1.314-1.578-2.588-2.848-3.82-1.27-1.233-2.911-2.543-4.921-3.929l10.554-6.093-6.449-3.723-10.261 5.923a326.008 326.008 0 0 0-5.193-2.901l10.345-5.972-6.45-3.723-10.554 6.093c-.95-.516-2.318-1.29-4.105-2.321l-8.837-5.15-6.868 3.965 4.648 2.684c2.122 1.225 2.415 2.49.88 3.796l-12.02 6.939c.28.161.488.298.628.411l-.67-.387-16.836 9.719c-1.647.693-3.169.637-4.565-.169l-4.648-2.683-8.963 3.675 8.376 4.836c.53.306 1.291.753 2.284 1.341.991.588 1.737 1.027 2.24 1.317l-10.68 6.166 6.452 3.724 10.554-6.093c1.143.693 2.833 1.684 5.066 2.974l-10.511 6.068 6.449 3.723 10.68-6.165c2.401 1.258 4.64 2.31 6.72 3.155a46.73 46.73 0 0 0 6.535 2.103c2.275.556 4.446.866 6.512.931 2.066.065 4.208-.133 6.43-.592 2.218-.46 4.418-1.206 6.595-2.238 4.245-2.029 6.604-4.117 7.079-6.261ZM87.9 159.051a385.566 385.566 0 0 0 3.98 2.224c.614.339 1.388.827 2.324 1.463.935.637 1.682 1.197 2.24 1.681.559.483 1.097 1.06 1.613 1.728.517.669.796 1.282.837 1.837.042.557-.119 1.141-.482 1.753-.363.613-1.005 1.185-1.926 1.717-.782.451-1.62.79-2.513 1.016a9.472 9.472 0 0 1-2.743.278c-.935-.04-1.83-.121-2.68-.242-.852-.12-1.788-.362-2.806-.725a73.077 73.077 0 0 1-2.617-.979c-.726-.29-1.57-.689-2.534-1.197-.963-.508-1.69-.894-2.178-1.16a59.279 59.279 0 0 1-1.948-1.125 252.36 252.36 0 0 0-1.424-.846l12.857-7.423ZM76.99 185.683c-.909.218-1.809.343-2.702.376a13.924 13.924 0 0 1-2.91-.231 30.493 30.493 0 0 1-2.869-.64 29.648 29.648 0 0 1-2.91-1.003 49.837 49.837 0 0 1-2.745-1.174 63.543 63.543 0 0 1-2.618-1.317 76.397 76.397 0 0 1-2.282-1.245c-.53-.307-1.193-.698-1.989-1.173-.797-.476-1.306-.778-1.53-.907l14.157-8.172c.223.129.9.504 2.031 1.124 1.132.621 2.045 1.133 2.743 1.536s1.62.983 2.765 1.741c1.144.757 2.052 1.425 2.723 2.006.67.58 1.325 1.257 1.968 2.031.642.773 1.02 1.483 1.131 2.128.111.645-.014 1.313-.377 2.006-.362.694-1.046 1.331-2.052 1.911a9.403 9.403 0 0 1-2.534 1.003ZM1.078 178.406c4.649 11.712 8.242 17.094 18.112 22.64v15.848c-9.012-6.379-13.837-10.293-18.112-23.772v-14.716ZM25.98 206.703l6.792 3.396v15.848l-6.791-3.396v-15.848Z"/><path fill="#79EFBD" stroke="#0D0B33" stroke-width=".871" d="M140.213 205.411c-31.829 18.375-83.434 18.375-115.264 0-15.026-8.675-22.959-19.894-23.797-31.255l-.07-15.848c.214 11.877 8.17 23.716 23.867 32.779 31.83 18.375 83.435 18.375 115.264 0 15.632-9.025 23.587-20.803 23.864-32.631v-1.28c.01.427.01.853 0 1.28v14.324c-.277 11.828-8.232 23.607-23.864 32.631Z"/><path fill="#F7F6FF" stroke="#0D0B33" stroke-width=".871" d="M140.213 190.346c-31.829 18.375-83.434 18.375-115.263 0-31.83-18.375-31.83-48.166 0-66.541 31.829-18.375 83.434-18.375 115.263 0 31.829 18.375 31.829 48.166 0 66.541Z"/><path fill="#0D0B33" d="M98.078 170.923c.475-2.144-.53-4.384-3.016-6.721 6.283 1.176 11.713.152 16.293-3.071 1.675-1.161 2.763-2.377 3.265-3.65.501-1.274.439-2.567-.19-3.881-.627-1.314-1.578-2.588-2.848-3.821-1.27-1.232-2.911-2.542-4.921-3.929l10.554-6.092-6.449-3.723-10.261 5.923a310.562 310.562 0 0 0-5.193-2.901l10.345-5.972-6.45-3.724-10.554 6.093c-.95-.516-2.318-1.289-4.105-2.321l-8.837-5.15-6.868 3.966 4.648 2.683c2.122 1.225 2.415 2.491.88 3.796l-12.02 6.939c.28.162.488.299.628.412l-.67-.387-16.836 9.719c-1.647.693-3.169.637-4.565-.169l-4.648-2.683-8.963 3.675 8.376 4.835c.53.307 1.291.754 2.284 1.341.991.589 1.737 1.028 2.24 1.318l-10.68 6.165 6.452 3.724 10.554-6.092a298.94 298.94 0 0 0 5.066 2.973l-10.511 6.069 6.449 3.723 10.68-6.165c2.401 1.257 4.64 2.31 6.72 3.155a46.863 46.863 0 0 0 6.535 2.103c2.275.556 4.446.866 6.512.93 2.066.065 4.208-.133 6.43-.592a29.235 29.235 0 0 0 6.595-2.237c4.245-2.03 6.604-4.117 7.079-6.261ZM87.9 143.481a385.566 385.566 0 0 0 3.98 2.224c.614.339 1.388.826 2.324 1.463.935.637 1.682 1.197 2.24 1.68.559.484 1.097 1.06 1.613 1.729.517.669.796 1.281.837 1.837.042.556-.119 1.141-.482 1.753-.363.613-1.005 1.185-1.926 1.717-.782.451-1.62.79-2.513 1.016a9.472 9.472 0 0 1-2.743.278c-.935-.04-1.83-.121-2.68-.242-.852-.121-1.788-.363-2.806-.725a75.063 75.063 0 0 1-2.617-.979c-.726-.29-1.57-.689-2.534-1.197-.963-.508-1.69-.895-2.178-1.161a58.938 58.938 0 0 1-1.948-1.124c-.81-.484-1.284-.766-1.424-.846l12.857-7.423ZM76.99 170.113c-.909.217-1.809.343-2.702.375-.893.032-1.864-.045-2.91-.23a30.169 30.169 0 0 1-2.869-.641 29.13 29.13 0 0 1-2.91-1.003 49.145 49.145 0 0 1-2.745-1.173 63.543 63.543 0 0 1-2.618-1.317c-.99-.524-1.752-.94-2.282-1.246-.53-.306-1.193-.697-1.989-1.173-.797-.475-1.306-.777-1.53-.906l14.157-8.172c.223.128.9.503 2.031 1.124 1.132.62 2.045 1.132 2.743 1.535s1.62.983 2.765 1.742c1.144.756 2.052 1.425 2.723 2.006.67.58 1.325 1.256 1.968 2.031.642.773 1.02 1.483 1.131 2.127.111.646-.014 1.314-.377 2.007-.362.694-1.046 1.33-2.052 1.911a9.469 9.469 0 0 1-2.534 1.003ZM1.078 162.836c4.649 11.712 8.242 17.094 18.112 22.64v15.848c-9.012-6.379-13.837-10.293-18.112-23.772v-14.716ZM25.98 191.133l6.792 3.396v15.848l-6.791-3.396v-15.848Z"/><path fill="#79EFBD" stroke="#0D0B33" stroke-width=".871" d="M140.213 189.837c-31.829 18.375-83.434 18.375-115.264 0-15.026-8.675-22.959-19.894-23.797-31.256l-.07-15.847c.214 11.877 8.17 23.716 23.867 32.779 31.83 18.374 83.435 18.374 115.264 0 15.632-9.025 23.587-20.804 23.864-32.631v-1.28c.01.426.01.853 0 1.28v14.324c-.277 11.828-8.232 23.606-23.864 32.631Z"/><path fill="#F7F6FF" stroke="#0D0B33" stroke-width=".871" d="M140.213 174.772c-31.829 18.375-83.434 18.375-115.263 0-31.83-18.375-31.83-48.167 0-66.542 31.829-18.374 83.434-18.374 115.263 0 31.829 18.375 31.829 48.167 0 66.542Z"/><path fill="#0D0B33" d="M98.078 155.348c.475-2.143-.53-4.383-3.016-6.721 6.283 1.177 11.713.153 16.293-3.07 1.675-1.161 2.763-2.377 3.265-3.651.501-1.274.439-2.566-.19-3.88-.627-1.314-1.578-2.588-2.848-3.821-1.27-1.233-2.911-2.543-4.921-3.929l10.554-6.093-6.449-3.723-10.261 5.924a310.562 310.562 0 0 0-5.193-2.901l10.345-5.972-6.45-3.724-10.554 6.093c-.95-.516-2.318-1.289-4.105-2.321l-8.837-5.15-6.868 3.966 4.648 2.683c2.122 1.225 2.415 2.491.88 3.796l-12.02 6.939c.28.162.488.299.628.412l-.67-.387-16.836 9.719c-1.647.693-3.169.637-4.565-.169l-4.648-2.684-8.963 3.675 8.376 4.836c.53.306 1.291.753 2.284 1.341.991.588 1.737 1.028 2.24 1.318l-10.68 6.165 6.452 3.724 10.554-6.093a290.9 290.9 0 0 0 5.066 2.974l-10.511 6.069 6.449 3.723 10.68-6.165c2.401 1.257 4.64 2.309 6.72 3.155a46.996 46.996 0 0 0 6.535 2.103c2.275.556 4.446.866 6.512.93 2.066.065 4.208-.133 6.43-.592a29.235 29.235 0 0 0 6.595-2.237c4.245-2.03 6.604-4.118 7.079-6.262ZM87.9 127.907a462.93 462.93 0 0 0 3.98 2.224c.614.338 1.388.826 2.324 1.463.935.637 1.682 1.197 2.24 1.68.559.483 1.097 1.06 1.613 1.729.517.669.796 1.281.837 1.837.042.556-.119 1.14-.482 1.753-.363.612-1.005 1.185-1.926 1.716a9.791 9.791 0 0 1-2.513 1.017 9.472 9.472 0 0 1-2.743.278c-.935-.04-1.83-.121-2.68-.242-.852-.121-1.788-.363-2.806-.726a73.267 73.267 0 0 1-2.617-.978 27.394 27.394 0 0 1-2.534-1.197c-.963-.508-1.69-.895-2.178-1.161a60.813 60.813 0 0 1-1.948-1.124c-.81-.484-1.284-.766-1.424-.847l12.857-7.422ZM76.99 154.539c-.909.217-1.809.343-2.702.375-.893.032-1.864-.045-2.91-.23a30.169 30.169 0 0 1-2.869-.641 29.13 29.13 0 0 1-2.91-1.003 49.145 49.145 0 0 1-2.745-1.173 64.987 64.987 0 0 1-2.618-1.318 76.397 76.397 0 0 1-2.282-1.245c-.53-.306-1.193-.698-1.989-1.173-.797-.475-1.306-.777-1.53-.906l14.157-8.173c.223.129.9.504 2.031 1.125 1.132.62 2.045 1.132 2.743 1.535s1.62.983 2.765 1.741c1.144.757 2.052 1.426 2.723 2.007.67.58 1.325 1.256 1.968 2.031.642.773 1.02 1.482 1.131 2.127.111.646-.014 1.314-.377 2.007-.362.693-1.046 1.33-2.052 1.91a9.438 9.438 0 0 1-2.534 1.004ZM1.078 147.262c4.649 11.711 8.242 17.094 18.112 22.64v15.847c-9.012-6.378-13.837-10.292-18.112-23.771v-14.716ZM25.98 175.562l6.792 3.396v15.848l-6.791-3.396v-15.848Z"/><path fill="#79EFBD" stroke="#0D0B33" stroke-width=".871" d="M140.213 174.259c-31.829 18.375-83.434 18.375-115.264 0-15.026-8.675-22.959-19.894-23.797-31.256l-.07-15.848c.214 11.878 8.17 23.717 23.867 32.779 31.83 18.375 83.435 18.375 115.264 0 15.632-9.024 23.587-20.803 23.864-32.63v-1.281c.01.427.01.854 0 1.281v14.324c-.277 11.828-8.232 23.606-23.864 32.631Z"/><path fill="#F7F6FF" stroke="#0D0B33" stroke-width=".871" d="M140.213 159.194c-31.829 18.375-83.434 18.375-115.263 0-31.83-18.375-31.83-48.167 0-66.542 31.829-18.375 83.434-18.375 115.263 0 31.829 18.375 31.829 48.167 0 66.542Z"/><path fill="#0D0B33" d="M98.078 139.766c.475-2.143-.53-4.383-3.016-6.721 6.283 1.177 11.713.153 16.293-3.071 1.675-1.16 2.763-2.376 3.265-3.65.501-1.274.439-2.566-.19-3.88-.627-1.314-1.578-2.588-2.848-3.821-1.27-1.233-2.911-2.543-4.921-3.929l10.554-6.093-6.449-3.723-10.261 5.924a310.562 310.562 0 0 0-5.193-2.901l10.345-5.972-6.45-3.724-10.554 6.093c-.95-.516-2.318-1.289-4.105-2.321l-8.837-5.15-6.868 3.966 4.648 2.683c2.122 1.225 2.415 2.491.88 3.796l-12.02 6.939c.28.162.488.299.628.412l-.67-.387-16.836 9.719c-1.647.693-3.169.637-4.565-.169l-4.648-2.684-8.963 3.675 8.376 4.836c.53.306 1.291.753 2.284 1.341.991.588 1.737 1.028 2.24 1.318l-10.68 6.165 6.452 3.724 10.554-6.093a290.9 290.9 0 0 0 5.066 2.974l-10.511 6.069 6.449 3.723 10.68-6.165c2.401 1.257 4.64 2.309 6.72 3.155a46.996 46.996 0 0 0 6.535 2.103c2.275.556 4.446.866 6.512.93 2.066.065 4.208-.133 6.43-.592a29.235 29.235 0 0 0 6.595-2.237c4.245-2.03 6.604-4.118 7.079-6.262ZM87.9 112.325a462.93 462.93 0 0 0 3.98 2.224c.614.338 1.388.826 2.324 1.463.935.637 1.682 1.197 2.24 1.68.559.483 1.097 1.06 1.613 1.729.517.669.796 1.281.837 1.837.042.556-.119 1.14-.482 1.753-.363.612-1.005 1.185-1.926 1.716-.782.452-1.62.79-2.513 1.016a9.438 9.438 0 0 1-2.743.279c-.935-.04-1.83-.121-2.68-.242-.852-.121-1.788-.363-2.806-.726a73.267 73.267 0 0 1-2.617-.978 27.394 27.394 0 0 1-2.534-1.197c-.963-.508-1.69-.895-2.178-1.161a60.813 60.813 0 0 1-1.948-1.124c-.81-.484-1.284-.766-1.424-.847l12.857-7.422v-.001.001ZM76.99 138.957c-.909.217-1.809.343-2.702.375-.893.032-1.864-.045-2.91-.23a30.169 30.169 0 0 1-2.869-.641 29.13 29.13 0 0 1-2.91-1.003 50.695 50.695 0 0 1-2.745-1.173 64.987 64.987 0 0 1-2.618-1.318 76.397 76.397 0 0 1-2.282-1.245c-.53-.306-1.193-.698-1.989-1.173-.797-.475-1.306-.777-1.53-.906l14.157-8.173c.223.129.9.504 2.031 1.124 1.132.621 2.045 1.133 2.743 1.536s1.62.983 2.765 1.741c1.144.757 2.052 1.426 2.723 2.007.67.58 1.325 1.256 1.968 2.031.642.773 1.02 1.482 1.131 2.127.111.646-.014 1.314-.377 2.007-.362.693-1.046 1.33-2.052 1.91a9.438 9.438 0 0 1-2.534 1.004ZM1.078 131.684c4.649 11.711 8.242 17.093 18.112 22.639v15.848c-9.012-6.378-13.837-10.293-18.112-23.772v-14.715ZM25.98 159.984l6.792 3.396v15.848l-6.791-3.396v-15.848Z"/><path fill="#79EFBD" stroke="#0D0B33" stroke-width=".871" d="M140.213 158.685c-31.829 18.375-83.434 18.375-115.264 0C9.923 150.01 1.99 138.79 1.152 127.429l-.07-15.848c.214 11.877 8.17 23.717 23.867 32.779 31.83 18.375 83.435 18.375 115.264 0 15.632-9.024 23.587-20.803 23.864-32.63v-1.281c.01.427.01.854 0 1.281v14.324c-.277 11.827-8.232 23.606-23.864 32.631Z"/><path fill="#F7F6FF" stroke="#0D0B33" stroke-width=".871" d="M140.213 143.619c-31.829 18.375-83.434 18.375-115.263 0-31.83-18.374-31.83-48.166 0-66.54 31.829-18.376 83.434-18.376 115.263 0 31.829 18.374 31.829 48.166 0 66.54Z"/><path fill="#0D0B33" d="M98.078 124.196c.475-2.143-.53-4.384-3.016-6.721 6.283 1.177 11.713.153 16.293-3.071 1.675-1.161 2.763-2.377 3.265-3.65.501-1.274.439-2.567-.19-3.881-.627-1.314-1.578-2.588-2.848-3.82-1.27-1.233-2.911-2.543-4.921-3.93l10.554-6.092-6.449-3.723-10.261 5.924a314.697 314.697 0 0 0-5.193-2.902l10.345-5.971-6.45-3.724-10.554 6.093c-.95-.516-2.318-1.29-4.105-2.321l-8.837-5.15-6.868 3.965 4.648 2.684c2.122 1.225 2.415 2.49.88 3.796L62.35 98.64c.28.161.488.298.628.411l-.67-.387-16.836 9.719c-1.647.693-3.169.637-4.565-.169l-4.648-2.683-8.963 3.675 8.376 4.836c.53.306 1.291.753 2.284 1.341.991.588 1.737 1.027 2.24 1.317l-10.68 6.166 6.452 3.724 10.554-6.093c1.143.693 2.833 1.684 5.066 2.974l-10.511 6.068 6.449 3.723 10.68-6.165c2.401 1.258 4.64 2.31 6.72 3.155a46.73 46.73 0 0 0 6.535 2.103c2.275.556 4.446.866 6.512.931 2.066.065 4.208-.133 6.43-.592a29.19 29.19 0 0 0 6.595-2.238c4.245-2.029 6.604-4.117 7.079-6.261ZM87.9 96.754a425.688 425.688 0 0 0 3.98 2.224c.614.34 1.388.827 2.324 1.464.935.636 1.682 1.196 2.24 1.68.559.483 1.097 1.06 1.613 1.728.517.669.796 1.282.837 1.837.042.557-.119 1.141-.482 1.753-.363.613-1.005 1.185-1.926 1.717-.782.451-1.62.79-2.513 1.016a9.472 9.472 0 0 1-2.743.278 27.09 27.09 0 0 1-2.68-.242c-.852-.12-1.788-.362-2.806-.725a73.077 73.077 0 0 1-2.617-.979c-.726-.29-1.57-.689-2.534-1.197-.963-.508-1.69-.894-2.178-1.16a59.279 59.279 0 0 1-1.948-1.125 252.36 252.36 0 0 0-1.424-.846L87.9 96.754ZM76.99 123.386c-.909.218-1.809.343-2.702.376a13.924 13.924 0 0 1-2.91-.231 30.182 30.182 0 0 1-2.869-.64 29.648 29.648 0 0 1-2.91-1.003 49.837 49.837 0 0 1-2.745-1.174 63.543 63.543 0 0 1-2.618-1.317 76.397 76.397 0 0 1-2.282-1.245c-.53-.307-1.193-.698-1.989-1.173a227.57 227.57 0 0 0-1.53-.907l14.157-8.172c.223.129.9.504 2.031 1.124 1.132.621 2.045 1.133 2.743 1.536s1.62.983 2.765 1.741c1.144.757 2.052 1.426 2.723 2.006.67.58 1.325 1.257 1.968 2.031.642.774 1.02 1.483 1.131 2.128.111.645-.014 1.313-.377 2.006-.362.694-1.046 1.331-2.052 1.911a9.403 9.403 0 0 1-2.534 1.003ZM1.078 116.109c4.649 11.712 8.242 17.094 18.112 22.64v15.848c-9.012-6.379-13.837-10.293-18.112-23.772v-14.716ZM25.98 144.406l6.792 3.396v15.848l-6.791-3.396v-15.848Z"/><path fill="#79EFBD" stroke="#0D0B33" stroke-width=".871" d="M140.213 143.114c-31.829 18.375-83.434 18.375-115.264 0C9.923 134.44 1.99 123.22 1.152 111.859l-.07-15.848c.214 11.877 8.17 23.716 23.867 32.779 31.83 18.375 83.435 18.375 115.264 0 15.632-9.025 23.587-20.803 23.864-32.63v-1.281c.01.427.01.854 0 1.28v14.325c-.277 11.827-8.232 23.606-23.864 32.63Z"/><path fill="#F7F6FF" stroke="#0D0B33" stroke-width=".871" d="M140.213 128.049c-31.829 18.375-83.434 18.375-115.263 0-31.83-18.375-31.83-48.166 0-66.541 31.829-18.375 83.434-18.375 115.263 0 31.829 18.375 31.829 48.166 0 66.541Z"/><path fill="#0D0B33" d="M98.078 108.626c.475-2.143-.53-4.384-3.016-6.721 6.283 1.176 11.713.153 16.293-3.071 1.675-1.16 2.763-2.377 3.265-3.65.501-1.274.439-2.567-.19-3.881-.627-1.314-1.578-2.588-2.848-3.82-1.27-1.233-2.911-2.543-4.921-3.93l10.554-6.092-6.449-3.723-10.261 5.923a314.868 314.868 0 0 0-5.193-2.9l10.345-5.973-6.45-3.723-10.554 6.093c-.95-.516-2.318-1.29-4.105-2.321l-8.837-5.15-6.868 3.965 4.648 2.683c2.122 1.226 2.415 2.49.88 3.796l-12.02 6.94c.28.161.488.298.628.41l-.67-.386-16.836 9.72c-1.647.692-3.169.636-4.565-.17l-4.648-2.683-8.963 3.675 8.376 4.835c.53.307 1.291.754 2.284 1.342.991.588 1.737 1.027 2.24 1.317l-10.68 6.165 6.452 3.725 10.554-6.093c1.143.693 2.833 1.684 5.066 2.974l-10.511 6.068 6.449 3.723 10.68-6.165c2.401 1.258 4.64 2.31 6.72 3.155a46.863 46.863 0 0 0 6.535 2.103c2.275.556 4.446.866 6.512.93 2.066.066 4.208-.133 6.43-.591a29.289 29.289 0 0 0 6.595-2.238c4.245-2.029 6.604-4.117 7.079-6.261ZM87.9 81.184a425.688 425.688 0 0 0 3.98 2.224c.614.339 1.388.826 2.324 1.463.935.637 1.682 1.197 2.24 1.68.559.484 1.097 1.06 1.613 1.729.517.67.796 1.281.837 1.837.042.556-.119 1.14-.482 1.753s-1.005 1.185-1.926 1.717c-.782.451-1.62.79-2.513 1.016a9.472 9.472 0 0 1-2.743.278c-.935-.04-1.83-.12-2.68-.242-.852-.12-1.788-.363-2.806-.725a73.7 73.7 0 0 1-2.617-.98c-.726-.29-1.57-.688-2.534-1.196-.963-.508-1.69-.894-2.178-1.16a60.036 60.036 0 0 1-1.948-1.125c-.81-.484-1.284-.766-1.424-.846L87.9 81.184ZM76.99 107.816c-.909.217-1.809.343-2.702.375a13.852 13.852 0 0 1-2.91-.23 30.493 30.493 0 0 1-2.869-.64 29.648 29.648 0 0 1-2.91-1.003 49.837 49.837 0 0 1-2.745-1.174 63.543 63.543 0 0 1-2.618-1.317 73.747 73.747 0 0 1-2.282-1.246c-.53-.306-1.193-.697-1.989-1.173-.797-.475-1.306-.777-1.53-.906l14.157-8.172c.223.129.9.504 2.031 1.124 1.132.62 2.045 1.133 2.743 1.536s1.62.983 2.765 1.74c1.144.758 2.052 1.426 2.723 2.007.67.58 1.325 1.257 1.968 2.031.642.773 1.02 1.483 1.131 2.128.111.645-.014 1.313-.377 2.006-.362.694-1.046 1.33-2.052 1.911a9.436 9.436 0 0 1-2.534 1.003ZM1.078 100.539c4.649 11.712 8.242 17.094 18.112 22.64v15.848c-9.012-6.379-13.837-10.293-18.112-23.772v-14.716ZM25.98 128.836l6.792 3.396v15.848l-6.791-3.396v-15.848Z"/><path fill="#79EFBD" stroke="#0D0B33" stroke-width=".871" d="M140.213 127.536c-31.829 18.375-83.434 18.375-115.264 0C9.923 118.861 1.99 107.642 1.152 96.281l-.07-15.848c.214 11.877 8.17 23.716 23.867 32.779 31.83 18.375 83.435 18.375 115.264 0 15.632-9.025 23.587-20.803 23.864-32.63V79.3c.01.427.01.853 0 1.28v14.325c-.277 11.827-8.232 23.606-23.864 32.63Z"/><path fill="#F7F6FF" stroke="#0D0B33" stroke-width=".871" d="M140.213 112.471c-31.829 18.375-83.434 18.375-115.263 0-31.83-18.375-31.83-48.166 0-66.541 31.829-18.375 83.434-18.375 115.263 0 31.829 18.375 31.829 48.166 0 66.541Z"/><path fill="#0D0B33" d="M98.078 93.048c.475-2.144-.53-4.384-3.016-6.721 6.283 1.176 11.713.152 16.293-3.071 1.675-1.161 2.763-2.377 3.265-3.65.501-1.274.439-2.567-.19-3.881-.627-1.314-1.578-2.588-2.848-3.82-1.27-1.233-2.911-2.543-4.921-3.93l10.554-6.092-6.449-3.724-10.261 5.924a314.868 314.868 0 0 0-5.193-2.901l10.345-5.972-6.45-3.724-10.554 6.093a196.46 196.46 0 0 1-4.105-2.32l-8.837-5.15-6.868 3.965 4.648 2.683c2.122 1.225 2.415 2.49.88 3.796l-12.02 6.94c.28.16.488.298.628.41l-.67-.386-16.836 9.719c-1.647.693-3.169.637-4.565-.17l-4.648-2.683-8.963 3.676 8.376 4.835c.53.306 1.291.754 2.284 1.341.991.589 1.737 1.028 2.24 1.318l-10.68 6.165 6.452 3.724 10.554-6.092c1.143.693 2.833 1.684 5.066 2.974l-10.511 6.068 6.449 3.723 10.68-6.165c2.401 1.257 4.64 2.31 6.72 3.155a46.903 46.903 0 0 0 6.535 2.103c2.275.556 4.446.866 6.512.93 2.066.065 4.208-.133 6.43-.592a29.23 29.23 0 0 0 6.595-2.237c4.245-2.03 6.604-4.117 7.079-6.261ZM87.9 65.606a425.688 425.688 0 0 0 3.98 2.224c.614.339 1.388.826 2.324 1.463.935.637 1.682 1.197 2.24 1.68.559.484 1.097 1.06 1.613 1.729.517.669.796 1.281.837 1.837.042.556-.119 1.14-.482 1.753s-1.005 1.185-1.926 1.717a9.81 9.81 0 0 1-2.513 1.016 9.469 9.469 0 0 1-2.743.278c-.935-.04-1.83-.12-2.68-.242-.852-.12-1.788-.363-2.806-.725a73.898 73.898 0 0 1-2.617-.98c-.726-.29-1.57-.688-2.534-1.196-.963-.508-1.69-.895-2.178-1.16a60 60 0 0 1-1.948-1.125c-.81-.484-1.284-.766-1.424-.846L87.9 65.606ZM76.99 92.238c-.909.217-1.809.343-2.702.375-.893.032-1.864-.045-2.91-.23a30.27 30.27 0 0 1-2.869-.64 29.439 29.439 0 0 1-2.91-1.003 49.95 49.95 0 0 1-2.745-1.174 64.113 64.113 0 0 1-2.618-1.317 76.27 76.27 0 0 1-2.282-1.246c-.53-.306-1.193-.697-1.989-1.173-.797-.475-1.306-.777-1.53-.906l14.157-8.172c.223.128.9.503 2.031 1.124 1.132.62 2.045 1.132 2.743 1.535s1.62.983 2.765 1.742c1.144.756 2.052 1.425 2.723 2.006.67.58 1.325 1.256 1.968 2.03.642.774 1.02 1.484 1.131 2.129.111.645-.014 1.313-.377 2.006-.362.694-1.046 1.33-2.052 1.91a9.436 9.436 0 0 1-2.534 1.004ZM1.078 84.96c4.649 11.713 8.242 17.095 18.112 22.641v15.848c-9.012-6.379-13.837-10.293-18.112-23.772V84.96ZM25.98 113.258l6.792 3.396v15.848l-6.791-3.396v-15.848Z"/><path fill="#79EFBD" stroke="#0D0B33" stroke-width=".871" d="M140.213 111.962c-31.829 18.375-83.434 18.375-115.264 0C9.923 103.287 1.99 92.068 1.152 80.706l-.07-15.847c.214 11.877 8.17 23.716 23.867 32.779 31.83 18.374 83.435 18.374 115.264 0 15.632-9.025 23.587-20.804 23.864-32.63v-1.281c.01.426.01.853 0 1.28v14.324c-.277 11.828-8.232 23.606-23.864 32.631Z"/><path fill="#F7F6FF" stroke="#0D0B33" stroke-width=".871" d="M140.213 96.897c-31.829 18.375-83.434 18.375-115.263 0-31.83-18.375-31.83-48.167 0-66.542 31.829-18.375 83.434-18.375 115.263 0 31.829 18.375 31.829 48.167 0 66.542Z"/><path fill="#0D0B33" d="M98.078 77.47c.475-2.144-.53-4.384-3.016-6.722 6.283 1.177 11.713.153 16.293-3.07 1.675-1.161 2.763-2.377 3.265-3.65.501-1.275.439-2.567-.19-3.881-.627-1.314-1.578-2.588-2.848-3.82-1.27-1.234-2.911-2.544-4.921-3.93l10.554-6.093-6.449-3.723-10.261 5.924a314.868 314.868 0 0 0-5.193-2.901l10.345-5.972-6.45-3.724-10.554 6.093c-.95-.516-2.318-1.29-4.105-2.32l-8.837-5.15-6.868 3.965 4.648 2.683c2.122 1.225 2.415 2.49.88 3.796l-12.02 6.94c.28.16.488.298.628.41l-.67-.386-16.836 9.719c-1.647.693-3.169.637-4.565-.17l-4.648-2.683-8.963 3.675 8.376 4.836c.53.306 1.291.754 2.284 1.341.991.589 1.737 1.028 2.24 1.318l-10.68 6.165 6.452 3.724 10.554-6.093c1.143.694 2.833 1.685 5.066 2.974l-10.511 6.069 6.449 3.723 10.68-6.165c2.401 1.257 4.64 2.31 6.72 3.155a46.864 46.864 0 0 0 6.535 2.103c2.275.556 4.446.866 6.512.93 2.066.065 4.208-.133 6.43-.592a29.238 29.238 0 0 0 6.595-2.237c4.245-2.03 6.604-4.117 7.079-6.261ZM87.9 50.028a424.743 424.743 0 0 0 3.98 2.224c.614.339 1.388.826 2.324 1.463.935.637 1.682 1.197 2.24 1.68.559.483 1.097 1.06 1.613 1.729.517.669.796 1.281.837 1.837.042.556-.119 1.14-.482 1.753s-1.005 1.185-1.926 1.717a9.81 9.81 0 0 1-2.513 1.016 9.472 9.472 0 0 1-2.743.278c-.935-.04-1.83-.121-2.68-.242-.852-.12-1.788-.363-2.806-.725a73.898 73.898 0 0 1-2.617-.98c-.726-.29-1.57-.688-2.534-1.196-.963-.508-1.69-.895-2.178-1.16a60.19 60.19 0 0 1-1.948-1.125 206.87 206.87 0 0 0-1.424-.846L87.9 50.027ZM76.99 76.66a13.74 13.74 0 0 1-2.702.375 13.921 13.921 0 0 1-2.91-.23 30.268 30.268 0 0 1-2.869-.64 29.413 29.413 0 0 1-2.91-1.004 49.88 49.88 0 0 1-2.745-1.173 64.113 64.113 0 0 1-2.618-1.317 76.27 76.27 0 0 1-2.282-1.246c-.53-.306-1.193-.697-1.989-1.173-.797-.475-1.306-.777-1.53-.906l14.157-8.173c.223.13.9.504 2.031 1.125 1.132.62 2.045 1.132 2.743 1.535s1.62.983 2.765 1.742c1.144.756 2.052 1.425 2.723 2.006a17.27 17.27 0 0 1 1.968 2.03c.642.774 1.02 1.483 1.131 2.128.111.646-.014 1.314-.377 2.007-.362.693-1.046 1.33-2.052 1.91a9.433 9.433 0 0 1-2.534 1.004ZM1.078 69.387C5.727 81.098 9.32 86.48 19.19 92.027v15.847c-9.012-6.378-13.837-10.292-18.112-23.771V69.387ZM25.98 97.688l6.792 3.395v15.848l-6.791-3.396V97.688Z"/><path fill="#79EFBD" stroke="#0D0B33" stroke-width=".871" d="M140.134 96.388c-31.829 18.375-83.434 18.375-115.263 0C9.845 87.713 1.912 76.494 1.074 65.132l-.07-15.848c.214 11.877 8.17 23.717 23.867 32.78 31.83 18.374 83.434 18.374 115.263 0 15.633-9.025 23.588-20.804 23.865-32.631v-1.28c.01.426.01.853 0 1.28v14.324c-.277 11.828-8.232 23.606-23.865 32.63Z"/><path fill="#F7F6FF" stroke="#0D0B33" stroke-width=".871" d="M140.135 81.323c-31.829 18.375-83.434 18.375-115.263 0-31.83-18.375-31.83-48.167 0-66.542 31.829-18.375 83.434-18.375 115.263 0 31.829 18.375 31.829 48.167 0 66.542Z"/><path fill="#0D0B33" d="M1 53.813C5.649 65.523 9.529 71.085 19.112 77.76v14.54C10.1 85.92 5.274 82.006 1 68.527V53.812Z"/><path fill="#0D0B33" fill-rule="evenodd" d="m61.832 25.246 49.146 28.637c.616.359.953.843.935 1.349l-.173 9.162c-.033 1.69-3.555 2.553-5.594 1.365L56.999 37.123c-.616-.36-.952-.844-.934-1.35l.173-9.161c.022-1.696 3.555-2.554 5.594-1.366Zm8.912-7.086 15.724-.101c.877-.004 1.71.192 2.315.544l49.136 28.63c2.039 1.189.567 3.247-2.344 3.26l-15.713.107c-.878.004-1.71-.192-2.315-.544L68.4 21.419c-2.04-1.188-.567-3.246 2.344-3.26Zm26.48 54.68-15.724.1c-.878.005-1.71-.191-2.316-.544L30.05 43.766c-2.04-1.188-.568-3.247 2.343-3.26l15.724-.1c.878-.005 1.71.191 2.315.544l49.136 28.63c2.039 1.188.568 3.246-2.344 3.26Z" clip-rule="evenodd"/><path fill="#0D0B33" d="m40.305 88.516 10.754 3.805v89.642l-10.754-3.805V88.516Z"/></svg>