<svg xmlns="http://www.w3.org/2000/svg" width="388" height="61" fill="none"><path fill="#fff" fill-rule="evenodd" d="M10.65 9.734C9.74 4.86 13.48.356 18.44.356a7.924 7.924 0 0 1 7.924 7.924v9.769a47.332 47.332 0 0 1 6.537-.01V8.28A7.924 7.924 0 0 1 40.825.357c4.96 0 8.7 4.504 7.79 9.378L46.47 21.217c7.36 3.213 12.924 8.793 12.924 15.806v4.242c0 5.767-3.815 10.595-9.148 13.854-5.375 3.284-12.646 5.237-20.549 5.237-7.903 0-15.174-1.953-20.549-5.237C3.815 51.859 0 47.032 0 41.265v-4.242c0-6.976 5.508-12.534 12.805-15.754L10.65 9.734Zm8.44 30.622c1.674 0 3.031-2.035 3.031-4.546 0-2.51-1.357-4.545-3.03-4.545-1.674 0-3.03 2.035-3.03 4.545s1.356 4.546 3.03 4.546Zm20.91 0c1.673 0 3.03-2.035 3.03-4.546 0-2.51-1.357-4.545-3.03-4.545-1.673 0-3.03 2.035-3.03 4.545s1.357 4.546 3.03 4.546Zm137.668-.826c.606-.341 1.01-.219 1.345.37a147.86 147.86 0 0 0 2.032 3.482c.49.804.298 1.354-.482 1.827-2.178 1.318-4.553 2.008-7.063 2.247-.544.052-1.094.038-1.644.025-.251-.007-.502-.013-.753-.013-2.485.113-4.912-.171-7.218-1.17-3.348-1.448-5.468-3.909-6.135-7.545-.557-3.035-.444-6.013 1.043-8.794 1.757-3.285 4.662-5.068 8.186-5.778 3.517-.709 7.067-.68 10.507.516.733.254 1.421.646 2.107 1.038.231.131.462.263.694.39.684.371.838.958.471 1.628l-.083.15c-.664 1.212-1.33 2.425-2.083 3.58-.163.25-.731.296-1.118.314-.159.008-.328-.118-.492-.24a3.38 3.38 0 0 0-.166-.119c-1.825-1.19-3.839-1.606-5.96-1.269-2.016.322-3.396 1.543-3.835 3.552-.737 3.378.07 6.354 3.171 7.276 1.736.515 3.489.369 5.167-.317.794-.324 1.56-.728 2.309-1.15Zm76.336-6.482c.582.006 1.164.012 1.745-.015a9.41 9.41 0 0 0 1.126-.146c.172-.029.344-.058.517-.083-.05-.202-.089-.41-.127-.618-.089-.478-.177-.957-.408-1.351-.301-.513-.86-.98-1.412-1.217-1.432-.616-2.938-.603-4.367.035-1.078.48-1.735 1.355-1.946 2.558-.106.606.106.836.687.831 1.013-.006 2.026-.003 3.039 0l.404.001c.247 0 .495.003.742.005Zm-3.023-9.169c2.685-.26 5.36-.173 7.949.767 3.938 1.43 6.048 4.319 6.693 8.377.12.757.181 1.535.157 2.3-.054 1.655-.659 2.249-2.308 2.271-1.57.02-3.139.016-4.709.012-.669-.002-1.338-.004-2.007-.004v.002c-.637 0-1.273.002-1.91.005-1.602.005-3.204.01-4.806-.018-.878-.016-1.039.318-.84 1.106.416 1.651 1.923 2.802 4.131 3.017 2.578.251 5.094.14 7.453-1.156 1.059-.582 1.312-.438 1.885.621.442.816.876 1.636 1.307 2.457.375.715.232 1.253-.48 1.698-1.798 1.127-3.771 1.737-5.849 1.974-3.55.404-7.094.467-10.481-.93-3.848-1.586-6.256-4.39-6.739-8.605-.482-4.217.171-8.143 3.525-11.153 1.988-1.786 4.448-2.491 7.029-2.74Zm-108.737.428c2.587-.779 5.236-.874 7.791.23 2.764 1.195 4.275 3.392 4.361 6.352.113 3.895.091 7.795.069 11.694l-.011 2.256c-.006 1.332-.711 1.988-2.053 2.016-1.662.035-3.325.033-4.988.007-1.629-.026-2.321-.747-2.324-2.386-.005-2.317-.004-4.634-.003-6.952v-4.5c-.002-2.06-.644-2.85-2.34-2.889-2.127-.05-3.226.867-3.259 2.861-.033 2.06-.027 4.119-.02 6.178.002.892.005 1.784.004 2.675 0 .28.003.56.005.84.005.65.011 1.301-.016 1.95-.065 1.56-.736 2.211-2.278 2.226-1.599.017-3.198.02-4.796-.004-1.578-.021-2.236-.63-2.244-2.23-.027-6.254-.022-12.509-.007-18.763.002-1.117.308-1.386 1.474-1.408.942-.018 1.884-.014 2.826-.01.369.001.738.003 1.108.003 1.929 0 1.929.001 2.33 1.79l.001.001c.463-.21.918-.434 1.37-.656.991-.489 1.97-.971 3-1.28ZM114.541 41.16c1.853-.36 2.757-1.424 2.794-3.33.015-.745.011-1.49.007-2.234a75.749 75.749 0 0 1 .003-1.896c.008-.837.017-1.675-.035-2.51-.021-.325-.335-.853-.594-.908-2.639-.555-5.255-.07-6.461 3.002-.485 1.238-.606 2.69-.591 4.042.032 2.95 1.967 4.397 4.877 3.834Zm-3.73-16.992c4.931-.956 9.721-.356 14.238 2.003.675.353.967.732.961 1.531-.026 4.145-.024 8.29-.022 12.435l.001 4.974c0 1.559-.202 1.753-1.792 1.759-.443.002-.886-.003-1.33-.008-.9-.01-1.8-.019-2.697.025-.997.05-1.667-.25-1.982-1.243-.052-.166-.154-.316-.276-.495-.063-.093-.132-.194-.202-.31-1.418 1.412-3.055 2.198-4.881 2.47-3.297.49-6.509.42-9.246-1.918-1.577-1.347-2.469-3.09-2.885-5.075-.738-3.519-.54-6.948 1.272-10.148 1.956-3.454 5.111-5.277 8.841-6Zm89.776 10.498h.064c0-.336-.002-.672-.004-1.009-.004-.819-.008-1.638.012-2.456.014-.598-.272-.976-.809-.984a30.067 30.067 0 0 1-.709-.021c-.891-.034-1.798-.068-2.599.193-3.274 1.064-4.902 6.772-2.794 9.543 1.131 1.486 2.724 1.502 4.364 1.184 1.393-.272 2.36-1.282 2.457-2.7.059-.863.045-1.731.03-2.6-.006-.383-.012-.767-.012-1.15Zm-8.272-9.996c5.615-1.711 11.042-1.056 16.248 1.614.501.257.738.598.736 1.205-.014 3.835-.014 7.67-.014 11.504 0 2.162 0 4.325-.002 6.488-.001 1.059-.305 1.368-1.382 1.382-.59.009-1.181.004-1.771-.002a48.579 48.579 0 0 0-2.737.028c-1.026.049-1.64-.332-1.945-1.297-.047-.15-.132-.288-.232-.45-.051-.083-.106-.172-.162-.273-3.202 2.797-6.82 3.14-10.578 2.324-3.442-.747-5.485-3.09-6.371-6.465-.821-3.13-.728-6.25.496-9.242 1.436-3.513 4.151-5.73 7.714-6.816Zm156.982 10h.027c0-.339-.002-.677-.004-1.016-.006-.814-.012-1.63.015-2.442.019-.545-.179-.873-.689-.969-2.16-.404-4.518-.196-5.918 2.039-1.365 2.18-1.473 4.56-.67 6.911.253.736 1.087 1.436 1.829 1.8 1.081.53 2.319.389 3.451-.06 1.203-.48 1.898-1.4 1.95-2.712.032-.818.024-1.638.016-2.458-.003-.365-.007-.73-.007-1.093Zm-6.592-10.486c4.759-.959 9.4-.397 13.825 1.716 1.055.505 1.533 1.116 1.512 2.4-.066 3.996-.056 7.993-.046 11.99.003 1.518.007 3.037.007 4.556 0 1.82-.205 2.02-2.055 2.025-.408 0-.817-.005-1.225-.01-.871-.012-1.743-.024-2.611.028-1.066.066-1.701-.334-1.998-1.35-.039-.131-.121-.25-.227-.401-.057-.082-.121-.173-.188-.282-2.48 2.347-5.422 2.78-8.544 2.658-4.145-.162-7.22-2.519-8.375-6.756-.908-3.332-.761-6.689.76-9.852 1.853-3.848 5.139-5.911 9.165-6.723Zm-19.727.275a2388.5 2388.5 0 0 1 6.045-.001c.812 0 1.095.383.858 1.173a2833.648 2833.648 0 0 0-2.573 8.646c-.316 1.064-.634 2.127-.951 3.19-.77 2.585-1.541 5.17-2.306 7.755-.418 1.41-.708 1.646-2.155 1.649-.393 0-.786-.005-1.179-.011-.855-.013-1.71-.026-2.561.03-1.088.072-1.642-.399-1.987-1.378-.662-1.885-1.355-3.76-2.048-5.634l-.549-1.489c-.067-.182-.152-.358-.267-.596-.065-.135-.139-.29-.226-.478-.812 2.212-1.532 4.173-2.254 6.135-.099.271-.201.542-.302.813a58.25 58.25 0 0 0-.589 1.617c-.227.662-.664.989-1.358.988-.29 0-.58 0-.871-.002-1.277-.002-2.554-.005-3.831.005-.832.006-1.293-.414-1.522-1.188-1.679-5.689-3.364-11.377-5.049-17.065l-.451-1.524-.069-.233a36.089 36.089 0 0 0-.41-1.325c-.222-.656.047-1.047.685-1.055a269.56 269.56 0 0 1 6.522.013c.732.008.926.588 1.062 1.17.35 1.484.698 2.968 1.046 4.451.383 1.634.765 3.267 1.151 4.9.025.108.068.212.131.37.038.093.083.205.137.347.076-.157.144-.29.205-.41.112-.22.2-.39.267-.57l.558-1.482c.693-1.84 1.387-3.68 2.044-5.533.308-.868.765-1.35 1.74-1.28.763.055 1.54.067 2.301-.004 1.049-.097 1.605.406 1.934 1.33.826 2.32 1.668 4.636 2.509 6.95.074.202.165.397.255.592.041.088.083.177.122.265l.229-.005 1.511-6.237c.113-.47.225-.941.336-1.412.198-.837.396-1.673.605-2.507.16-.636.594-.969 1.255-.97Zm-87.614 16.814a2943.22 2943.22 0 0 1 2.866 3.398l.005.005c.184.218.371.44.516.683.446.748.106 1.485-.747 1.495-2.59.031-5.184.054-7.771-.04-.457-.016-1.003-.527-1.323-.95-1.265-1.667-2.5-3.357-3.736-5.048-.483-.661-.966-1.323-1.451-1.983-.2-.27-.417-.528-.852-.738-.009.101-.021.203-.032.304-.025.224-.05.448-.052.672-.003.7-.002 1.401 0 2.102.002 1.031.004 2.063-.011 3.095-.028 1.98-.645 2.587-2.601 2.6-1.536.01-3.072.019-4.606-.01-1.486-.026-2.118-.636-2.121-2.126-.014-9.142-.013-18.286-.001-27.428.001-1.432.497-2.058 1.909-2.135 1.846-.1 3.707-.09 5.553.018 1.247.073 1.64.585 1.804 1.844.062.475.067.96.068 1.44l.003 6.987c0 2.034 0 4.068.002 6.102 0 .248.015.496.031.745.007.118.015.237.02.355l.3.08 2.85-3.71c.276-.359.553-.715.83-1.072.664-.856 1.329-1.712 1.965-2.587.484-.666 1.089-.927 1.883-.922.817.006 1.634.004 2.451.002 1.391-.003 2.781-.006 4.171.028.446.012 1.118.232 1.265.551.153.334-.073 1.012-.359 1.35-1.656 1.964-3.345 3.902-5.034 5.84-.539.619-1.079 1.238-1.617 1.858-.023.026-.048.05-.073.075-.021.02-.043.04-.062.062l-.002.002c-1.027 1.118-1.035 1.126-.045 2.305 1.333 1.585 2.669 3.168 4.004 4.75Zm50.147-12.374c1.536.68 3.072 1.36 4.536 2.171 3.07 1.7 4.165 4.583 3.963 7.964-.211 3.541-2.099 5.955-5.312 7.351-2.31 1.004-4.75 1.21-6.923 1.133-4.15.023-7.887-.51-11.407-2.152-2.707-1.262-2.822-1.68-1.199-4.167.436-.67.867-1.346 1.271-2.035.416-.71.855-.843 1.635-.416 3.038 1.669 6.284 2.462 9.77 2.09 1.538-.163 2.479-.87 2.765-2.103.286-1.233-.263-2.458-1.655-3.131-1.025-.495-2.073-.943-3.12-1.391-1.183-.506-2.365-1.011-3.514-1.585-1.561-.78-3.125-1.655-4.466-2.756-2.509-2.063-2.93-4.922-2.42-7.96.577-3.431 2.801-5.554 5.93-6.549 5.309-1.685 10.592-1.296 15.719.9.495.212.945.542 1.388.868.075.055.149.11.224.163.607.443.742 1.02.334 1.68-.305.494-.611.986-.918 1.478-.438.703-.876 1.406-1.308 2.114-.448.734-.994.662-1.617.254-2.055-1.344-4.338-1.829-6.755-1.741a7.782 7.782 0 0 0-1.886.29c-2.101.619-2.721 3.155-1.014 4.535.779.629 1.726 1.058 2.664 1.484.257.117.513.233.765.353.842.401 1.696.78 2.55 1.158Zm88.416 12.389c1.551.271 3.073-.398 3.785-1.654.889-1.565 1.066-3.264.91-5.013-.281-3.145-1.781-4.504-4.928-4.57-.188.03-.378.057-.567.083-.471.065-.942.13-1.396.257-.23.064-.536.42-.538.645l-.011 1.194c-.021 2.099-.043 4.2.077 6.293.097 1.7.992 2.471 2.668 2.765Zm9.215-15.488c2.616 1.569 4.111 3.909 4.576 6.876.556 3.556.416 7.049-1.579 10.215-1.807 2.87-4.512 4.27-7.81 4.569-2.373.216-4.719.09-7.012-1.218-.014.173-.028.325-.041.465a7.71 7.71 0 0 0-.045.709c-.004.916-.003 1.833-.002 2.749.001 1.233.002 2.466-.007 3.7-.013 1.819-.611 2.422-2.415 2.44-1.535.015-3.072.022-4.606-.008-1.428-.027-2.011-.605-2.144-2.037a7.223 7.223 0 0 1-.021-.706v-.16l.001-6.002c.001-6.373.003-12.746-.02-19.118-.003-.819.265-1.272.965-1.664 4.462-2.5 9.238-3.245 14.264-2.649 2.076.246 4.075.747 5.896 1.84ZM86.509 30.124c1.467-.118 2.617-1.264 2.84-2.722a9.546 9.546 0 0 0 .01-2.66c-.168-1.266-.887-2.326-2.156-2.535-1.29-.21-2.608-.242-3.925-.273-.37-.008-.74-.017-1.109-.03-.134-.005-.4.329-.403.507-.02 2.054-.02 4.108-.018 6.198v1.543c.51 0 1.01.01 1.504.019 1.11.02 2.188.04 3.257-.047Zm-9.173-15.02c4.079-.01 8.16-.02 12.222.253 3.574.242 6.768 1.725 8.27 5.324 1.53 3.671 1.531 7.447-.172 11.09-1.334 2.85-3.839 4.294-6.813 4.692-2.182.29-4.401.334-6.615.377-.47.009-.938.018-1.407.03-.826.019-1.117.218-1.096 1.081.05 1.953.034 3.907.019 5.86l-.006.776c-.012 1.588-.689 2.256-2.306 2.277-1.599.02-3.198.02-4.796-.001-1.585-.02-2.258-.703-2.262-2.319-.009-3.23-.007-6.459-.005-9.688v-5.775c0-3.76-.001-7.519.002-11.278 0-1.946.597-2.697 2.525-2.696.813 0 1.626-.002 2.44-.004Z" clip-rule="evenodd"/></svg>