<svg width="388" height="61" viewBox="0 0 388 61" fill="none" xmlns="http://www.w3.org/2000/svg">
<path fill-rule="evenodd" clip-rule="evenodd" d="M10.6507 9.73435C9.74034 4.85958 13.4808 0.355957 18.4398 0.355957C22.8161 0.355957 26.3636 3.90357 26.3636 8.27976V18.0486C27.4582 17.9713 28.5705 17.9317 29.697 17.9317C30.7792 17.9317 31.8483 17.9683 32.9013 18.0397V8.27976C32.9013 3.90357 36.4488 0.355957 40.8251 0.355957C45.7841 0.355957 49.5245 4.85958 48.6142 9.73435L46.47 21.217C53.8291 24.43 59.394 30.0104 59.394 37.0227V41.2651C59.394 47.0315 55.5791 51.8596 50.2458 55.1187C44.871 58.4033 37.5999 60.356 29.697 60.356C21.794 60.356 14.5229 58.4033 9.14812 55.1187C3.81491 51.8596 0 47.0315 0 41.2651V37.0227C0 30.0475 5.50757 24.4887 12.8048 21.2693L10.6507 9.73435ZM19.0908 40.3559C20.7644 40.3559 22.1212 38.3209 22.1212 35.8105C22.1212 33.3001 20.7644 31.2651 19.0908 31.2651C17.4173 31.2651 16.0605 33.3001 16.0605 35.8105C16.0605 38.3209 17.4173 40.3559 19.0908 40.3559ZM39.9999 40.3559C41.6735 40.3559 43.0303 38.3209 43.0303 35.8105C43.0303 33.3001 41.6735 31.2651 39.9999 31.2651C38.3265 31.2651 36.9697 33.3001 36.9697 35.8105C36.9697 38.3209 38.3265 40.3559 39.9999 40.3559ZM177.668 39.53C178.274 39.1888 178.678 39.311 179.013 39.8992C179.679 41.0662 180.347 42.2332 181.045 43.3823C181.535 44.1861 181.343 44.736 180.563 45.2088C178.385 46.5269 176.01 47.2169 173.5 47.4562C172.956 47.508 172.406 47.4943 171.856 47.4806C171.605 47.4744 171.354 47.4681 171.103 47.4681C168.618 47.581 166.191 47.2966 163.885 46.2985C160.537 44.8498 158.417 42.3893 157.75 38.7534C157.193 35.7175 157.306 32.7402 158.793 29.9589C160.55 26.6735 163.455 24.8912 166.979 24.1808C170.496 23.4721 174.046 23.5009 177.486 24.6968C178.219 24.9513 178.907 25.3435 179.593 25.7346C179.824 25.8664 180.055 25.9981 180.287 26.1244C180.971 26.4961 181.125 27.0834 180.758 27.7531L180.675 27.903C180.011 29.1145 179.345 30.3282 178.592 31.4832C178.429 31.7336 177.861 31.7794 177.474 31.7972C177.315 31.8054 177.146 31.6794 176.982 31.5573C176.926 31.5153 176.87 31.4737 176.816 31.4382C174.991 30.2483 172.977 29.8316 170.856 30.1694C168.84 30.491 167.46 31.7124 167.021 33.7213C166.284 37.0992 167.091 40.0748 170.192 40.9966C171.928 41.5117 173.681 41.3658 175.359 40.68C176.153 40.3558 176.919 39.9518 177.668 39.53ZM254.004 33.0483C254.586 33.0543 255.168 33.0604 255.749 33.033C256.126 33.0149 256.501 32.9511 256.875 32.8873C257.047 32.858 257.219 32.8287 257.392 32.8038C257.342 32.6025 257.303 32.3944 257.265 32.1864C257.176 31.7077 257.088 31.2294 256.857 30.8348C256.556 30.3221 255.997 29.8545 255.445 29.6177C254.013 29.0015 252.507 29.0151 251.078 29.6534C250 30.1337 249.343 31.0079 249.132 32.2114C249.026 32.8174 249.238 33.0466 249.819 33.0423C250.832 33.0356 251.845 33.0387 252.858 33.0419L253.262 33.0432C253.509 33.0432 253.757 33.0457 254.004 33.0483ZM250.981 23.8795C253.666 23.6198 256.341 23.7063 258.93 24.6459C262.868 26.0751 264.978 28.965 265.623 33.0228C265.743 33.7799 265.804 34.5581 265.78 35.3228C265.726 36.9778 265.121 37.572 263.472 37.594C261.902 37.6148 260.333 37.6102 258.763 37.6056C258.094 37.6036 257.425 37.6017 256.756 37.6017V37.6042C256.119 37.6042 255.483 37.6063 254.846 37.6085C253.244 37.6138 251.642 37.6192 250.04 37.5906C249.162 37.5753 249.001 37.9089 249.2 38.6974C249.616 40.3481 251.123 41.499 253.331 41.7137C255.909 41.965 258.425 41.8538 260.784 40.5578C261.843 39.9764 262.096 40.1198 262.669 41.179C263.111 41.9955 263.545 42.8154 263.976 43.6361C264.351 44.3507 264.208 44.8888 263.496 45.3344C261.698 46.4606 259.725 47.0709 257.647 47.3085C254.097 47.7125 250.553 47.7745 247.166 46.3783C243.318 44.7921 240.91 41.9879 240.427 37.7731C239.945 33.5558 240.598 29.6304 243.952 26.62C245.94 24.8343 248.4 24.129 250.981 23.8795ZM142.244 24.3072C144.831 23.5281 147.48 23.433 150.035 24.5372C152.799 25.7322 154.31 27.9287 154.396 30.8891C154.509 34.7837 154.487 38.6837 154.465 42.5826C154.461 43.3347 154.457 44.0868 154.454 44.8387C154.448 46.1712 153.743 46.8273 152.401 46.8553C150.739 46.8901 149.076 46.8884 147.413 46.8621C145.784 46.8358 145.092 46.1152 145.089 44.4763C145.084 42.1592 145.085 39.8418 145.086 37.5243C145.086 36.0244 145.087 34.5244 145.086 33.0245C145.084 30.9646 144.442 30.1745 142.746 30.1354C140.619 30.0854 139.52 31.002 139.487 32.9965C139.454 35.0557 139.46 37.1149 139.467 39.174C139.469 40.0659 139.472 40.9577 139.471 41.8495C139.471 42.1293 139.474 42.4092 139.476 42.6891C139.481 43.3396 139.487 43.9901 139.46 44.6393C139.395 46.1992 138.724 46.8502 137.182 46.8655C135.583 46.8816 133.984 46.8842 132.386 46.8612C130.808 46.84 130.15 46.2315 130.142 44.6308C130.115 38.3774 130.12 32.1223 130.135 25.868C130.137 24.7511 130.443 24.4821 131.609 24.46C132.551 24.4417 133.493 24.4458 134.435 24.4498C134.804 24.4514 135.173 24.453 135.543 24.4532C137.472 24.4532 137.472 24.4541 137.873 26.2435L137.874 26.244C138.337 26.0344 138.792 25.8104 139.244 25.5877C140.235 25.0991 141.214 24.6168 142.244 24.3072ZM114.541 41.1587C116.394 40.7997 117.298 39.7354 117.335 37.8291C117.35 37.0842 117.346 36.3393 117.342 35.5947C117.34 35.2805 117.338 34.9664 117.338 34.6523C117.338 34.3348 117.341 34.017 117.345 33.6992C117.353 32.8617 117.362 32.0238 117.31 31.1895C117.289 30.8636 116.975 30.3357 116.716 30.2814C114.077 29.7255 111.461 30.2101 110.255 33.2833C109.77 34.5208 109.649 35.973 109.664 37.325C109.696 40.2751 111.631 41.7222 114.541 41.1587ZM110.811 24.1672C115.742 23.2107 120.532 23.8107 125.049 26.1702C125.724 26.5233 126.016 26.9018 126.01 27.7013C125.984 31.8459 125.986 35.9909 125.988 40.1357C125.989 41.7939 125.989 43.4522 125.989 45.1103C125.989 46.6686 125.787 46.8629 124.197 46.8689C123.754 46.8706 123.311 46.8659 122.867 46.8612C121.967 46.8516 121.067 46.8421 120.17 46.8859C119.173 46.9351 118.503 46.6355 118.188 45.6433C118.136 45.4773 118.034 45.3271 117.912 45.1476C117.849 45.0546 117.78 44.9537 117.71 44.8387C116.292 46.2502 114.655 47.0361 112.829 47.3077C109.532 47.7974 106.32 47.7286 103.583 45.3904C102.006 44.0426 101.114 42.2994 100.698 40.315C99.9604 36.7962 100.158 33.3665 101.97 30.1668C103.926 26.7134 107.081 24.8903 110.811 24.1672ZM200.587 34.6651H200.651C200.651 34.3289 200.649 33.9926 200.647 33.6563C200.643 32.8372 200.639 32.018 200.659 31.1997C200.673 30.6022 200.387 30.2237 199.85 30.2161C199.616 30.2128 199.379 30.2039 199.141 30.1949C198.25 30.1614 197.343 30.1272 196.542 30.3883C193.268 31.4518 191.64 37.1603 193.748 39.9306C194.879 41.4167 196.472 41.4328 198.112 41.1145C199.505 40.8429 200.472 39.833 200.569 38.4147C200.628 37.5519 200.614 36.6837 200.599 35.8156C200.593 35.4319 200.587 35.0482 200.587 34.6651ZM192.315 24.6688C197.93 22.9578 203.357 23.613 208.563 26.2831C209.064 26.5402 209.301 26.8814 209.299 27.4883C209.285 31.3227 209.285 35.1571 209.285 38.9916C209.285 41.1542 209.285 43.3169 209.283 45.4795C209.282 46.5387 208.978 46.8477 207.901 46.8621C207.311 46.8708 206.72 46.8656 206.13 46.8604C205.217 46.8523 204.304 46.8443 203.393 46.8876C202.367 46.9368 201.753 46.5557 201.448 45.5907C201.401 45.4406 201.316 45.3028 201.216 45.1405C201.165 45.0578 201.11 44.9687 201.054 44.8684C197.852 47.665 194.234 48.0079 190.476 47.1923C187.034 46.4454 184.991 44.1012 184.105 40.7267C183.284 37.5966 183.377 34.4775 184.601 31.4849C186.037 27.972 188.752 25.7543 192.315 24.6688ZM349.297 34.6685H349.324C349.324 34.3302 349.322 33.9917 349.32 33.6533C349.314 32.8386 349.308 32.0238 349.335 31.2108C349.354 30.6659 349.156 30.3383 348.646 30.2424C346.486 29.8384 344.128 30.0463 342.728 32.281C341.363 34.4605 341.255 36.8404 342.058 39.1922C342.311 39.928 343.145 40.6282 343.887 40.9915C344.968 41.5219 346.206 41.381 347.338 40.9312C348.541 40.4525 349.236 39.5317 349.288 38.2204C349.32 37.4019 349.312 36.5818 349.304 35.7617C349.301 35.3972 349.297 35.0328 349.297 34.6685ZM342.705 24.1825C347.464 23.2243 352.105 23.7861 356.53 25.8994C357.585 26.4036 358.063 27.0155 358.042 28.2996C357.976 32.2954 357.986 36.2921 357.996 40.2887C357.999 41.8074 358.003 43.3261 358.003 44.8447C358.003 46.6652 357.798 46.8655 355.948 46.8697C355.54 46.8708 355.131 46.8653 354.723 46.8598C353.852 46.8481 352.98 46.8364 352.112 46.8884C351.046 46.9538 350.411 46.554 350.114 45.5389C350.075 45.407 349.993 45.2888 349.887 45.1368C349.83 45.055 349.766 44.9635 349.699 44.8549C347.219 47.2024 344.277 47.6344 341.155 47.5131C337.01 47.351 333.935 44.9941 332.78 40.7572C331.872 37.4251 332.019 34.0684 333.54 30.9052C335.393 27.0571 338.679 24.9939 342.705 24.1825ZM322.978 24.4583C324.993 24.4549 327.009 24.4549 329.023 24.4566C329.835 24.4575 330.118 24.8402 329.881 25.6304C329.246 27.7518 328.615 29.8746 327.985 31.9974C327.76 32.757 327.534 33.5167 327.308 34.2764C326.992 35.3399 326.674 36.4034 326.357 37.4668C325.587 40.051 324.816 42.6352 324.051 45.2207C323.633 46.6312 323.343 46.8672 321.896 46.8697C321.503 46.8705 321.11 46.8646 320.717 46.8587C319.862 46.8458 319.007 46.8329 318.156 46.8893C317.068 46.9614 316.514 46.4904 316.169 45.5109C315.507 43.6263 314.814 41.7517 314.121 39.8767C313.938 39.3807 313.755 38.8847 313.572 38.3884C313.505 38.2063 313.42 38.0304 313.305 37.7917C313.24 37.6567 313.166 37.5016 313.079 37.3139C312.267 39.5257 311.547 41.4871 310.825 43.4485C310.726 43.7203 310.624 43.9912 310.523 44.2622C310.321 44.7994 310.12 45.3365 309.934 45.8793C309.707 46.5413 309.27 46.868 308.576 46.8672C308.286 46.8667 307.996 46.8661 307.705 46.8655C306.428 46.8628 305.151 46.8601 303.874 46.8697C303.042 46.8757 302.581 46.4556 302.352 45.6815C300.673 39.9932 298.988 34.3048 297.303 28.6171L296.852 27.0928C296.829 27.0151 296.806 26.9374 296.783 26.8598C296.652 26.4162 296.521 25.9729 296.373 25.5345C296.151 24.8793 296.42 24.488 297.058 24.4795C299.232 24.4524 301.407 24.4676 303.58 24.4931C304.312 24.5007 304.506 25.0813 304.642 25.6635C304.992 27.1468 305.34 28.6306 305.688 30.1145C306.071 31.7476 306.453 33.3806 306.839 35.0131C306.864 35.1218 306.907 35.2265 306.97 35.384C307.008 35.4773 307.053 35.589 307.107 35.7311C307.183 35.5743 307.251 35.4409 307.312 35.3219C307.424 35.1018 307.512 34.9306 307.579 34.7516C307.764 34.2572 307.951 33.7629 308.137 33.2686C308.83 31.4288 309.524 29.5885 310.181 27.7361C310.489 26.8678 310.946 26.3858 311.921 26.4554C312.684 26.5105 313.461 26.5233 314.222 26.452C315.271 26.3552 315.827 26.8585 316.156 27.7828C316.982 30.1023 317.824 32.4176 318.665 34.7321C318.739 34.9338 318.83 35.129 318.92 35.3242C318.961 35.4124 319.003 35.5006 319.042 35.5893L319.271 35.5842C319.775 33.5057 320.279 31.4272 320.782 29.347C320.895 28.8765 321.007 28.4056 321.118 27.9347C321.316 27.0983 321.514 26.2619 321.723 25.4284C321.883 24.7919 322.317 24.4592 322.978 24.4583ZM235.364 41.2717C236.32 42.404 237.276 43.5364 238.23 44.6698L238.235 44.6751C238.419 44.8932 238.606 45.1148 238.751 45.3582C239.197 46.1059 238.857 46.8426 238.004 46.8528C235.414 46.8842 232.82 46.9071 230.233 46.8129C229.776 46.7967 229.23 46.2858 228.91 45.8631C227.645 44.1958 226.41 42.5056 225.174 40.8151C224.691 40.1538 224.208 39.4924 223.723 38.8323C223.523 38.5616 223.306 38.3036 222.871 38.0939C222.862 38.1954 222.85 38.2967 222.839 38.398C222.814 38.6222 222.789 38.8461 222.787 39.07C222.784 39.7706 222.785 40.4712 222.787 41.1718C222.789 42.2034 222.791 43.2351 222.776 44.2667C222.748 46.2476 222.131 46.8545 220.175 46.8672C218.639 46.8774 217.103 46.8859 215.569 46.8579C214.083 46.8307 213.451 46.2205 213.448 44.7309C213.434 35.5885 213.435 26.4452 213.447 17.3027C213.448 15.8709 213.944 15.2454 215.356 15.1682C217.202 15.068 219.063 15.0774 220.909 15.186C222.156 15.259 222.549 15.7708 222.713 17.0303C222.775 17.5047 222.78 17.9902 222.781 18.4697C222.783 20.7989 222.783 23.1279 222.784 25.4568C222.784 27.4907 222.784 29.5246 222.786 31.5587C222.786 31.807 222.801 32.0553 222.817 32.3039C222.824 32.4223 222.832 32.5409 222.837 32.6595L223.137 32.7385C224.087 31.5019 225.037 30.2661 225.987 29.0287C226.263 28.6704 226.54 28.3135 226.817 27.9566C227.481 27.1011 228.146 26.2454 228.782 25.3698C229.266 24.7044 229.871 24.443 230.665 24.4481C231.482 24.4538 232.299 24.452 233.116 24.4502C234.507 24.4472 235.897 24.4441 237.287 24.4778C237.733 24.4897 238.405 24.7104 238.552 25.0295C238.705 25.363 238.479 26.0412 238.193 26.379C236.537 28.3433 234.848 30.2809 233.159 32.2186C232.62 32.8377 232.08 33.4569 231.542 34.0769C231.519 34.1029 231.494 34.1271 231.469 34.1515C231.448 34.1717 231.426 34.192 231.407 34.2136L231.405 34.2158C230.378 35.3339 230.37 35.3423 231.36 36.5212C232.693 38.1064 234.029 39.689 235.364 41.2717ZM285.511 28.8975C287.047 29.5778 288.583 30.2579 290.047 31.069C293.117 32.7682 294.212 35.6521 294.01 39.0335C293.799 42.5743 291.911 44.9881 288.698 46.3843C286.388 47.3875 283.948 47.5937 281.775 47.5165C277.625 47.5402 273.888 47.0072 270.368 45.3649C267.661 44.1029 267.546 43.6845 269.169 41.1977C269.605 40.5272 270.036 39.8525 270.44 39.1625C270.856 38.4521 271.295 38.3197 272.075 38.7474C275.113 40.416 278.359 41.2087 281.845 40.837C283.383 40.674 284.324 39.9679 284.61 38.7339C284.896 37.5007 284.347 36.276 282.955 35.6029C281.93 35.1077 280.882 34.6597 279.835 34.2118C278.652 33.7062 277.47 33.2006 276.321 32.6273C274.76 31.8465 273.196 30.9723 271.855 29.8706C269.346 27.8082 268.925 24.9489 269.435 21.9104C270.012 18.4799 272.236 16.3572 275.365 15.3625C280.674 13.677 285.957 14.0665 291.084 16.2622C291.579 16.4743 292.029 16.8044 292.472 17.1299C292.547 17.1847 292.621 17.2394 292.696 17.2934C293.303 17.7356 293.438 18.3135 293.03 18.9738C292.725 19.4671 292.419 19.959 292.112 20.4509C291.674 21.154 291.236 21.8572 290.804 22.5648C290.356 23.299 289.81 23.2268 289.187 22.8186C287.132 21.475 284.849 20.9904 282.432 21.0778C281.8 21.1016 281.152 21.1899 280.546 21.3681C278.445 21.9868 277.825 24.5228 279.532 25.9028C280.311 26.5317 281.258 26.9614 282.196 27.3872C282.453 27.5038 282.709 27.6202 282.961 27.7403C283.803 28.1412 284.657 28.5194 285.511 28.8975ZM373.927 41.2868C375.478 41.5584 377 40.8888 377.712 39.6335C378.601 38.0676 378.778 36.3693 378.622 34.6201C378.341 31.4747 376.841 30.1159 373.694 30.0506C373.506 30.0807 373.316 30.1068 373.127 30.1328C372.656 30.1979 372.185 30.2628 371.731 30.39C371.501 30.4537 371.195 30.8102 371.193 31.0351C371.19 31.4329 371.186 31.8309 371.182 32.229C371.161 34.3278 371.139 36.4293 371.259 38.5217C371.356 40.2225 372.251 40.9932 373.927 41.2868ZM383.142 25.7993C385.758 27.3677 387.253 29.7077 387.718 32.6748C388.274 36.231 388.134 39.7235 386.139 42.8901C384.332 45.7605 381.627 47.16 378.329 47.4588C375.956 47.6752 373.61 47.5496 371.317 46.2408C371.303 46.4136 371.289 46.5663 371.276 46.7057C371.251 46.9753 371.231 47.1953 371.231 47.4146C371.227 48.3313 371.228 49.2476 371.229 50.1638C371.23 51.3973 371.231 52.6305 371.222 53.8641C371.209 55.6829 370.611 56.2855 368.807 56.3042C367.272 56.3194 365.735 56.3262 364.201 56.2957C362.773 56.2685 362.19 55.6914 362.057 54.2587C362.035 54.0247 362.035 53.7884 362.036 53.5526C362.036 53.4994 362.036 53.4462 362.036 53.393C362.036 51.3922 362.036 49.3914 362.037 47.3907C362.038 41.0179 362.04 34.6452 362.017 28.2725C362.014 27.4543 362.282 27.0011 362.982 26.609C367.444 24.1086 372.22 23.3643 377.246 23.9601C379.322 24.2062 381.321 24.707 383.142 25.7993ZM86.5087 30.1244C87.9758 30.0056 89.1263 28.8598 89.3492 27.4017C89.4817 26.5334 89.4741 25.6151 89.3585 24.7426C89.1905 23.4763 88.4721 22.4163 87.2026 22.2075C85.9139 21.9962 84.5949 21.9653 83.2785 21.9345C82.9083 21.9258 82.5383 21.9172 82.1692 21.9045C82.035 21.8994 81.7682 22.233 81.7665 22.4112C81.7455 24.465 81.7468 26.5194 81.7482 28.6091C81.7485 29.1213 81.7488 29.6355 81.7488 30.1524C82.2574 30.1524 82.7578 30.1617 83.2519 30.1708C84.3617 30.1914 85.4399 30.2113 86.5087 30.1244ZM77.3362 15.1034C81.4145 15.0935 85.4967 15.0836 89.5577 15.3574C93.1316 15.5985 96.3257 17.082 97.8274 20.6806C99.3586 24.3522 99.3594 28.1282 97.656 31.7701C96.3223 34.6218 93.817 36.0655 90.8432 36.4627C88.6609 36.7539 86.4417 36.7968 84.2285 36.8396C83.7589 36.8487 83.2895 36.8578 82.8208 36.8692C81.9953 36.8887 81.7041 37.0882 81.7252 37.9513C81.7744 39.9035 81.7591 41.8576 81.7438 43.8108C81.7418 44.0697 81.7397 44.3286 81.7378 44.5875C81.726 46.1755 81.0491 46.8434 79.4317 46.8638C77.833 46.8842 76.2343 46.8842 74.6364 46.8629C73.0511 46.8434 72.3784 46.1602 72.3742 44.5442C72.3651 41.3148 72.3668 38.0854 72.3686 34.856C72.3692 33.5643 72.3699 32.2725 72.3699 30.9808C72.3698 30.3474 72.3697 29.7141 72.3695 29.0808C72.3687 25.3213 72.3679 21.5623 72.3708 17.8026C72.3716 15.8573 72.9676 15.1062 74.8955 15.1071C75.7088 15.1073 76.5224 15.1054 77.3362 15.1034Z" fill="white"/>
</svg>
