<svg xmlns="http://www.w3.org/2000/svg" width="425" height="60" fill="none"><path fill="#fff" fill-rule="evenodd" d="M112.675 29.085c1.314-1.19 1.97-3.024 1.97-5.498v-5.223c0-2.474-.672-4.276-2.016-5.407-1.313-1.16-3.268-1.74-5.864-1.74h-8.202v32.072h3.986V30.827h4.307c2.566 0 4.506-.58 5.819-1.742Zm-2.84-13.653c.549.519.824 1.359.824 2.52v6.093c0 1.161-.275 2.016-.824 2.566-.52.52-1.36.78-2.52.78h-4.766V14.652h4.766c1.16 0 2 .26 2.52.779ZM120.65 41.594c1.252 1.13 3.222 1.695 5.91 1.695h5.911v-3.436h-6.369c-1.13 0-1.985-.26-2.566-.78-.58-.518-.87-1.252-.87-2.199v-3.436h11.271v-5.956c0-2.322-.564-4.078-1.695-5.27-1.1-1.221-2.733-1.832-4.902-1.832h-1.238c-2.626 0-4.505.565-5.635 1.695-1.131 1.13-1.695 3.009-1.695 5.636v8.247c0 2.597.626 4.475 1.878 5.636Zm9.484-15.029v3.437h-7.468v-3.207c0-.978.214-1.711.642-2.2.458-.52 1.236-.779 2.336-.779h1.741c.795 0 1.452.26 1.971.78.519.518.778 1.175.778 1.97Z" clip-rule="evenodd"/><path fill="#fff" d="M140.573 20.38h3.666v1.237c1.008-.825 2.23-1.237 3.665-1.237h3.345v3.665h-3.803c-1.008 0-1.757.336-2.245 1.008-.489.672-.733 1.33-.733 1.97V43.29h-3.895V20.38Z"/><path fill="#fff" fill-rule="evenodd" d="M159.496 20.38h-3.665v30.698h3.895V43.29h4.169c2.658 0 4.612-.58 5.865-1.741 1.283-1.16 1.924-3.024 1.924-5.59v-8.247c0-2.597-.626-4.46-1.878-5.59-1.253-1.16-3.223-1.741-5.911-1.741h-.733c-1.497 0-2.719.366-3.666 1.1v-1.1Zm.962 4.261c.489-.55 1.238-.825 2.246-.825h1.649c1.13 0 1.985.26 2.566.78.58.518.871 1.252.871 2.198v10.08c0 .947-.291 1.68-.871 2.2-.581.52-1.436.779-2.566.779h-4.627V26.336c0-.61.244-1.176.732-1.695ZM179.982 41.594c1.252 1.13 3.222 1.695 5.91 1.695h5.911v-3.436h-6.369c-1.13 0-1.985-.26-2.566-.78-.58-.518-.87-1.252-.87-2.199v-3.436h11.271v-5.956c0-2.322-.565-4.078-1.695-5.27-1.1-1.221-2.734-1.832-4.903-1.832h-1.237c-2.627 0-4.505.565-5.635 1.695-1.131 1.13-1.696 3.009-1.696 5.636v8.247c0 2.597.626 4.475 1.879 5.636Zm9.484-15.029v3.437h-7.468v-3.207c0-.978.213-1.711.641-2.2.458-.52 1.237-.779 2.337-.779h1.741c.794 0 1.451.26 1.97.78.52.518.779 1.175.779 1.97Z" clip-rule="evenodd"/><path fill="#fff" d="M204.945 43.29c-1.558 0-2.75-.505-3.574-1.513-.825-1.008-1.238-2.336-1.238-3.986V23.816h-2.978V20.38h2.978v-5.498h3.895v5.498h5.315v3.436h-5.315V38.02c0 .672.168 1.146.504 1.42.336.276.855.413 1.558.413h3.253v3.436h-4.398ZM225.542 42.235c-1.008.703-2.23 1.054-3.665 1.054h-.642c-2.474 0-4.322-.58-5.544-1.741-1.191-1.16-1.787-3.024-1.787-5.59V20.38h3.895v16.494c0 .917.259 1.65.778 2.2.55.52 1.284.779 2.2.779h1.558c.977 0 1.695-.245 2.153-.733.489-.49.764-1.039.825-1.65V20.38h3.895v22.91h-3.666v-1.055Z"/><path fill="#fff" fill-rule="evenodd" d="M248.738 42.923c.489.244.931.366 1.329.366h2.52v-3.207c-.825 0-1.421-.107-1.787-.32-.336-.245-.504-.597-.504-1.055V27.711c0-2.566-.642-4.43-1.924-5.59-1.253-1.16-3.208-1.741-5.865-1.741h-5.728v3.436h6.186c1.13 0 1.985.26 2.566.78.58.518.871 1.252.871 2.198v2.291h-4.766c-4.459 0-6.689 2.368-6.689 7.102v.917c0 2.26.519 3.864 1.558 4.81 1.068.917 2.764 1.375 5.085 1.375h3.162c1.161 0 2.092-.458 2.795-1.374.336.427.733.763 1.191 1.008Zm-2.703-3.712c-.245.428-.825.642-1.742.642h-3.161c-.794 0-1.375-.184-1.741-.55-.366-.367-.549-.947-.549-1.741V35.27c0-.794.259-1.451.778-1.97.519-.52 1.176-.78 1.97-.78h4.812v5.04c0 .673-.123 1.223-.367 1.65Z" clip-rule="evenodd"/><path fill="#fff" d="M261.738 43.29c-1.038 0-1.955-.367-2.749-1.1-.764-.733-1.145-1.894-1.145-3.483v-27.49h3.894v27.261c0 .49.122.84.366 1.054.245.214.657.32 1.238.32h.916v3.437h-2.52Z"/><path fill="#fff" fill-rule="evenodd" d="M295.77 29.085c1.313-1.19 1.97-3.024 1.97-5.498v-5.223c0-2.474-.672-4.276-2.016-5.407-1.313-1.16-3.268-1.74-5.865-1.74h-8.201v32.072h3.986V30.827h4.307c2.566 0 4.506-.58 5.819-1.742Zm-2.841-13.653c.55.519.825 1.359.825 2.52v6.093c0 1.161-.275 2.016-.825 2.566-.519.52-1.359.78-2.52.78h-4.765V14.652h4.765c1.161 0 2.001.26 2.52.779Z" clip-rule="evenodd"/><path fill="#fff" d="M303.489 20.38h3.665v1.237c1.008-.825 2.23-1.237 3.665-1.237h3.345v3.665h-3.803c-1.008 0-1.757.336-2.245 1.008-.489.672-.733 1.33-.733 1.97V43.29h-3.894V20.38Z"/><path fill="#fff" fill-rule="evenodd" d="M331.866 41.548c1.283-1.16 1.925-3.024 1.925-5.59v-8.247c0-2.566-.642-4.43-1.925-5.59-1.252-1.16-3.207-1.741-5.865-1.741h-.595c-2.658 0-4.628.58-5.911 1.74-1.252 1.162-1.878 3.025-1.878 5.59v8.248c0 2.566.626 4.43 1.878 5.59 1.283 1.16 3.253 1.741 5.911 1.741h.595c2.658 0 4.613-.58 5.865-1.741Zm-2.841-16.953c.581.52.871 1.253.871 2.2v10.08c0 .946-.29 1.68-.871 2.199-.58.52-1.435.779-2.566.779h-1.512c-1.13 0-1.985-.26-2.565-.78-.581-.518-.871-1.252-.871-2.199v-10.08c0-.947.29-1.68.871-2.199.58-.52 1.435-.779 2.565-.779h1.512c1.131 0 1.986.26 2.566.78Z" clip-rule="evenodd"/><path fill="#fff" d="M345.711 43.29c-1.558 0-2.749-.505-3.574-1.513-.825-1.008-1.237-2.336-1.237-3.986V23.816h-2.978V20.38h2.978v-5.498h3.895v5.498h5.314v3.436h-5.314V38.02c0 .672.168 1.146.504 1.42.336.276.855.413 1.557.413h3.253v3.436h-4.398Z"/><path fill="#fff" fill-rule="evenodd" d="M368.691 41.548c1.283-1.16 1.925-3.024 1.925-5.59v-8.247c0-2.566-.642-4.43-1.925-5.59-1.252-1.16-3.207-1.741-5.865-1.741h-.595c-2.658 0-4.628.58-5.911 1.74-1.253 1.162-1.879 3.025-1.879 5.59v8.248c0 2.566.626 4.43 1.879 5.59 1.283 1.16 3.253 1.741 5.911 1.741h.595c2.658 0 4.613-.58 5.865-1.741Zm-2.841-16.953c.581.52.871 1.253.871 2.2v10.08c0 .946-.29 1.68-.871 2.199-.58.52-1.435.779-2.566.779h-1.512c-1.13 0-1.985-.26-2.565-.78-.581-.518-.871-1.252-.871-2.199v-10.08c0-.947.29-1.68.871-2.199.58-.52 1.435-.779 2.565-.779h1.512c1.131 0 1.986.26 2.566.78Z" clip-rule="evenodd"/><path fill="#fff" d="M384.827 43.29c-2.688 0-4.658-.566-5.911-1.696-1.252-1.16-1.878-3.04-1.878-5.636v-8.247c0-2.566.626-4.43 1.878-5.59 1.283-1.16 3.254-1.741 5.911-1.741h4.994v3.436h-5.452c-1.131 0-1.986.26-2.566.78-.581.518-.871 1.252-.871 2.198v10.08c0 .947.29 1.68.871 2.2.58.52 1.435.779 2.566.779h5.452v3.436h-4.994Z"/><path fill="#fff" fill-rule="evenodd" d="M409.14 41.548c1.283-1.16 1.925-3.024 1.925-5.59v-8.247c0-2.566-.642-4.43-1.925-5.59-1.252-1.16-3.207-1.741-5.865-1.741h-.595c-2.658 0-4.628.58-5.911 1.74-1.252 1.162-1.878 3.025-1.878 5.59v8.248c0 2.566.626 4.43 1.878 5.59 1.283 1.16 3.253 1.741 5.911 1.741h.595c2.658 0 4.613-.58 5.865-1.741Zm-2.841-16.953c.581.52.871 1.253.871 2.2v10.08c0 .946-.29 1.68-.871 2.199-.58.52-1.435.779-2.566.779h-1.512c-1.13 0-1.985-.26-2.565-.78-.581-.518-.871-1.252-.871-2.199v-10.08c0-.947.29-1.68.871-2.199.58-.52 1.435-.779 2.565-.779h1.512c1.131 0 1.986.26 2.566.78Z" clip-rule="evenodd"/><path fill="#fff" d="M421.611 43.29c-1.039 0-1.956-.367-2.75-1.1-.763-.733-1.145-1.894-1.145-3.483v-27.49h3.895v27.261c0 .49.122.84.366 1.054.245.214.657.32 1.237.32h.917v3.437h-2.52Z"/><path fill="#fff" fill-rule="evenodd" d="M22.864 1.611a5.363 5.363 0 0 1 7.585 0l17.54 17.54-7.111 7.11-14.221-14.22-14.222 14.22 7.11 7.111 7.112-7.11 7.11 7.11-7.11 7.11L37.322 51.15a5.028 5.028 0 1 1-7.11 7.11L2.006 30.055a5.363 5.363 0 0 1 0-7.585L22.864 1.611Z" clip-rule="evenodd"/><path fill="#fff" fill-rule="evenodd" d="M37.086 1.611a5.363 5.363 0 0 1 7.584 0L65.528 22.47a5.363 5.363 0 0 1 0 7.585L37.559 58.022a5.363 5.363 0 0 1-7.584 0l-3.319-3.318 14.222-14.221-14.221-14.221 7.11-7.111 14.221 14.221 7.111-7.11L33.767 4.93l3.319-3.319Z" clip-rule="evenodd"/><path fill="#fff" d="m26.657 12.04 7.11 7.111-7.11 7.11-7.111-7.11 7.11-7.11Z"/><path fill="#fff" d="m40.878 12.04 7.11 7.111-7.11 7.11-7.11-7.11 7.11-7.11Z" opacity=".95"/></svg>