<svg xmlns="http://www.w3.org/2000/svg" width="633" height="634" fill="none"><path fill="#0D0B33" d="M608.607 426.708c16.031 9.24 24.046 13.859 24.046 20.794 0 6.934-8.015 11.554-24.046 20.793L357.38 613.093c-19.498 11.238-29.247 16.857-39.949 16.857-10.702 0-20.451-5.619-39.949-16.857L26.255 468.295c-16.031-9.239-24.046-13.859-24.046-20.793 0-6.935 8.015-11.554 24.046-20.794l279.191-160.916c5.85-3.371 8.774-5.057 11.985-5.057 3.211 0 6.135 1.686 11.985 5.057l279.191 160.916Z" opacity=".1"/><path fill="#F7F6FF" stroke="#0D0B33" stroke-linejoin="round" stroke-width="2.145" d="M148.255 474.012a1.247 1.247 0 0 1-.506.952c-.225.117-.479.17-.732.152a1.374 1.374 0 0 1-.708-.261l-10.778-6.244a4.302 4.302 0 0 1-1.306-1.339c-.379-.531-10.004-22.506-10.004-22.506l20.152 11.619 3.882 17.627Z"/><path fill="#0D0B33" stroke="#0D0B33" stroke-linejoin="round" stroke-width="2.145" d="m163.157 445.457-4.943 22.413c-.078.355-.227.69-.438.986-.227.295-.514.54-.842.716l-9.213 5.376a1.257 1.257 0 0 0 .505-.953l-3.848-17.626 18.779-10.912Z"/><path fill="#F7F6FF" stroke="#0D0B33" stroke-linejoin="round" stroke-width="2.145" d="M304.348 564.256a1.206 1.206 0 0 1-.152.531 1.136 1.136 0 0 1-.354.421 1.36 1.36 0 0 1-1.44-.109l-10.821-6.252a4.163 4.163 0 0 1-1.305-1.323c-.345-.573-9.97-22.539-9.97-22.539l20.151 11.644 3.891 17.627Z"/><path fill="#0D0B33" stroke="#0D0B33" stroke-linejoin="round" stroke-width="2.145" d="m319.24 535.693-4.943 22.422a2.524 2.524 0 0 1-.438.977 2.657 2.657 0 0 1-.842.725l-9.212 5.367c.15-.11.271-.254.353-.421.092-.163.144-.345.152-.531l-3.891-17.602 18.821-10.937Z"/><path fill="#F7F6FF" stroke="#0D0B33" stroke-linejoin="round" stroke-width="2.145" d="M349.249 317.999v208.599c-1.33 11.796-7.764 21.065-16 25.867l-.446.262c-8.261 4.659-18.206 4.861-26.526-1.315L125.756 447.108a57.275 57.275 0 0 1-20.959-20.972 57.317 57.317 0 0 1-7.672-28.648V188.889a28.371 28.371 0 0 1 13.608-24.385l.11-.067 1.078-.624.101-.059a28.34 28.34 0 0 1 28.05.329l164.091 94.791 16.455 9.505a57.264 57.264 0 0 1 20.959 20.971 57.325 57.325 0 0 1 7.672 28.649Z"/><path fill="#F7F6FF" stroke="#0D0B33" stroke-linejoin="round" stroke-width="1.073" d="M320.574 545.188a18.25 18.25 0 0 1-9.264-2.527L130.807 438.357a47.305 47.305 0 0 1-23.579-40.857V188.892c0-11.476 9.642-18.537 18.526-18.537 3.258.001 6.456.873 9.263 2.528l180.546 104.304a47.328 47.328 0 0 1 23.579 40.857v208.565c0 11.476-9.634 18.579-18.568 18.579Z"/><path fill="#79EFBD" stroke="#0D0B33" stroke-linejoin="round" stroke-width="1.073" d="M327.001 313.321V518.07a4.987 4.987 0 0 1-2.476 4.339l-.235.135-4.295 2.468a4.958 4.958 0 0 0 1.735-1.895 4.86 4.86 0 0 0 .572-2.334V316.034a26.97 26.97 0 0 0-13.473-23.348L131.651 190.345a5.007 5.007 0 0 0-4.817-.118l4.211-2.443.37-.211a4.97 4.97 0 0 1 4.927.059L313.519 289.99a26.965 26.965 0 0 1 13.482 23.331Z"/><path fill="#F7F6FF" stroke="#0D0B33" stroke-linejoin="round" stroke-width="1.073" d="M322.298 316.053v204.749a4.869 4.869 0 0 1-.573 2.334c-.401.774-1 1.428-1.735 1.896l-.429.253-.143.076a5.002 5.002 0 0 1-4.699-.186L137.542 422.784a26.975 26.975 0 0 1-13.474-23.348V194.729a4.986 4.986 0 0 1 2.349-4.263l.413-.236a5.017 5.017 0 0 1 2.424-.559 5.015 5.015 0 0 1 2.393.677l177.177 102.357a26.964 26.964 0 0 1 13.474 23.348Z"/><path fill="#BFFFE4" stroke="#0D0B33" stroke-linejoin="round" stroke-width="2.145" d="M543.553 162.442 339.546 286.083a57.38 57.38 0 0 0-18.93-17.694l-16.455-9.504-164.091-94.8a28.336 28.336 0 0 0-28.05-.328L317.77 44.952l1.212-.708a28.36 28.36 0 0 1 28.126.287l180.546 104.303a57.184 57.184 0 0 1 15.899 13.608Z"/><path fill="#000" d="M246.02 123.494a1.016 1.016 0 0 1 0-1.759l5.255-3.028 5.514-3.178a2.537 2.537 0 0 1 2.535.001l150.391 86.718c.678.39.678 1.368 0 1.759l-5.255 3.029-5.513 3.179a2.54 2.54 0 0 1-2.536 0L246.02 123.494Z"/><path fill="#F7F6FF" stroke="#0D0B33" stroke-linejoin="round" stroke-width="2.145" d="M475.038 484.83a1.243 1.243 0 0 1-.506.952 1.221 1.221 0 0 1-.732.152 1.383 1.383 0 0 1-.708-.261l-10.829-6.244a4.464 4.464 0 0 1-1.305-1.331c-.337-.565-9.962-22.531-9.962-22.531l20.151 11.636 3.891 17.627Z"/><path fill="#0D0B33" stroke="#0D0B33" stroke-linejoin="round" stroke-width="2.145" d="m489.927 456.3-4.926 22.413a2.523 2.523 0 0 1-.447.986 2.63 2.63 0 0 1-.8.725l-9.212 5.367c.149-.114.272-.257.362-.421.085-.165.133-.346.143-.531l-3.882-17.602 18.762-10.937Z"/><path stroke="#0D0B33" stroke-linejoin="round" stroke-width="2.145" d="m333.274 552.466-.446.261"/><path fill="#F7F6FF" stroke="#0D0B33" stroke-linejoin="round" stroke-width="1.073" d="M129.521 369.6v16.574a5.892 5.892 0 0 1-2.686 4.937l-.488.287a5.843 5.843 0 0 1-5.668-.127l-1.532-.885a11.79 11.79 0 0 1-5.895-10.212v-16.582a5.812 5.812 0 0 1 2.484-4.803c.294-.216.61-.399.943-.547a5.766 5.766 0 0 1 5.415.244l1.541.843a11.795 11.795 0 0 1 5.886 10.271Z"/><path fill="#79EFBD" stroke="#0D0B33" stroke-linejoin="round" stroke-width="1.073" d="M135.193 366.314v16.566a5.898 5.898 0 0 1-3.175 5.232l-5.187 3a5.904 5.904 0 0 0 2.686-4.938V369.6a11.791 11.791 0 0 0-5.894-10.229l-1.541-.842a5.763 5.763 0 0 0-5.415-.245l4.783-2.78.842-.472a5.792 5.792 0 0 1 5.491.211l1.541.884a11.794 11.794 0 0 1 5.869 10.187Z"/><path fill="#0D0B33" d="m129.521 384.775 5.271-7.415v8.788l-5.271 2.924v-4.297Z"/><path fill="#F7F6FF" stroke="#0D0B33" stroke-linejoin="round" stroke-width="1.073" d="M253.377 428.924c-8.986 5.173-20.16 4.853-31.798.092-16.842-8.754-33.937-25.572-46.753-47.825-11.327-19.641-17.348-40.023-18.03-57.566.666-15.25 6.173-27.493 16.514-33.467 22.122-12.774 57.962 7.988 80.067 46.258 22.105 38.27 22.113 79.7 0 92.508Z"/><path stroke="#0D0B33" stroke-width="1.273" d="m176.795 381.161 14.678-8.485M193.754 404.056l7.983-17.551M165.472 355.007l19.158 1.905"/><path fill="#F7F6FF" stroke="#0D0B33" stroke-linejoin="round" stroke-width="1.073" d="M207.955 404.187a13.478 13.478 0 0 1-9.861 6.21c-10.467 1.247-24.278-8.291-33.305-23.972-9.533-16.506-10.526-34.2-2.998-42.129a12.921 12.921 0 0 1 2.998-2.359 13.732 13.732 0 0 1 5.987-1.778c10.367-.725 23.747 8.738 32.556 24.031 8.808 15.293 10.231 31.319 4.623 39.997Z"/><path fill="#79EFBD" stroke="#0D0B33" stroke-linejoin="round" stroke-width="1.073" d="M230.923 405.607a17.186 17.186 0 0 1-6.366 2.157l-1.389.135h-.186l-24.951 2.486a13.472 13.472 0 0 0 9.861-6.219c5.625-8.67 4.059-24.831-4.674-39.938-8.808-15.293-22.214-24.781-32.555-24.031a13.512 13.512 0 0 0-5.987 1.778 12.688 12.688 0 0 0-2.998 2.359l12.766-18.705a17.988 17.988 0 0 1 6.467-6.522c13.785-7.988 36.135 4.938 49.903 28.842s13.895 49.696.109 57.658Z"/><path fill="#0D0B33" d="M182.045 355.716a2.526 2.526 0 0 0-1.271-.48c-.453-.05-.91.025-1.322.219l-10.813 6.243a1.477 1.477 0 0 0-.488.599 1.364 1.364 0 0 0-.118.758 4.15 4.15 0 0 0 .606 2.064l7.091 12.285v-14.492c0-1.079.749-1.525 1.684-.995l14.897 8.603 7.696-4.44-17.962-10.364ZM175.727 380.106l14.888 8.603c.926.548 1.684.11 1.684-1.003v-14.467l7.091 12.285a4.21 4.21 0 0 1 .614 2.065 1.484 1.484 0 0 1-.614 1.356l-10.804 6.244a2.595 2.595 0 0 1-1.339.227 2.53 2.53 0 0 1-1.255-.48l-17.971-10.372 7.706-4.458Z"/><path fill="#79EFBD" stroke="#0D0B33" stroke-linejoin="round" stroke-width="1.073" d="M262.197 431.691c-11.293 6.522-25.861 4.989-40.657-2.671 11.638 4.761 22.846 5.056 31.798-.092 22.122-12.774 22.122-54.187 0-92.508s-57.945-59.032-80.067-46.258c-10.332 5.991-15.848 18.217-16.513 33.468-.784-19.827 5.229-36.029 18.037-43.419 24.126-13.978 63.267 8.67 87.402 50.496 24.134 41.826 24.159 87.04 0 100.984Z"/><path fill="#0D0B33" d="m210.716 396.74 30.139-9.092c-1.39 7.634-3.024 15.007-13.179 19.43l-24.59 2.158c3.461-2.823 6.636-4.963 7.63-12.496ZM211.024 384.101l29.129-11.105c.699 3.472 1.389 6.252.699 9.024l-29.828 9.024c.691-1.356.691-4.828 0-6.943ZM321.961 481.233l5.053-2.436v6.918l-5.053 2.461v-6.943ZM321.965 492.432l5.052-2.258c.699 3.471.27 27.983-.421 30.755l-5.053 2.527c.691-1.356 1.112-28.909.422-31.024ZM269.089 403.171l11.014-5.848c-.614 10.592-2.526 16.22-8.286 24.949-13.886 17.931-31.435 13.819-41.928 10.423 28.05 1.845 37.12-13.557 39.2-29.524Z"/><path fill="#79EFBD" stroke="#0D0B33" stroke-linejoin="round" stroke-width="2.145" d="M556.289 198.454v208.599a28.458 28.458 0 0 1-4.295 15.167 28.433 28.433 0 0 1-11.705 10.549L333.276 552.467c8.21-4.828 14.644-14.088 16-25.867V318a57.37 57.37 0 0 0-9.701-31.917l203.981-123.641a57.257 57.257 0 0 1 12.733 36.012Z"/><path fill="#F7F6FF" stroke="#0D0B33" stroke-linejoin="round" stroke-width="1.073" d="M129.521 230.407v16.573a5.893 5.893 0 0 1-2.686 4.938l-.488.286a5.833 5.833 0 0 1-5.668-.126l-1.532-.885a11.79 11.79 0 0 1-5.895-10.212v-16.582a5.812 5.812 0 0 1 2.484-4.803c.294-.216.61-.4.943-.548a5.765 5.765 0 0 1 5.415.245l1.541.842a11.79 11.79 0 0 1 5.886 10.272Z"/><path fill="#79EFBD" stroke="#0D0B33" stroke-linejoin="round" stroke-width="1.073" d="M135.193 227.121v16.565a5.9 5.9 0 0 1-3.175 5.233l-5.187 2.999a5.888 5.888 0 0 0 2.686-4.937v-16.574a11.795 11.795 0 0 0-5.894-10.229l-1.541-.843a5.776 5.776 0 0 0-5.415-.244l4.783-2.78.842-.472a5.793 5.793 0 0 1 5.491.21l1.541.885a11.794 11.794 0 0 1 5.869 10.187Z"/><path fill="#0D0B33" d="m129.521 244.727 5.271-7.456v9.268l-5.271 3.589v-5.401Z"/><mask id="a" width="224" height="391" x="333" y="162" maskUnits="userSpaceOnUse" style="mask-type:alpha"><path fill="#79EFBD" d="M556.762 198.838v208.599a28.454 28.454 0 0 1-16 25.716L333.749 552.851c8.21-4.828 14.644-14.088 16-25.867v-208.6a57.37 57.37 0 0 0-9.701-31.917l203.981-123.641a57.257 57.257 0 0 1 12.733 36.012Z"/></mask><g fill="#0D0B33" mask="url(#a)"><path d="m336.486 216.855 2.934-1.695v3.39l-2.934 1.694zM336.486 227.024l2.934-1.695v3.39l-2.934 1.694zM336.486 237.189l2.934-1.695v3.39l-2.934 1.694zM336.486 247.359l2.934-1.695v3.39l-2.934 1.694zM336.486 257.524l2.934-1.695v3.39l-2.934 1.694zM336.486 267.693l2.934-1.695v3.39l-2.934 1.694zM336.486 277.858l2.934-1.695v3.39l-2.934 1.694zM336.486 288.028l2.934-1.695v3.39l-2.934 1.694zM336.486 298.197l2.934-1.695v3.39l-2.934 1.694zM336.486 308.362l2.934-1.695v3.39l-2.934 1.694zM336.486 318.532l2.934-1.695v3.39l-2.934 1.694zM336.486 328.701l2.934-1.695v3.39l-2.934 1.694zM336.486 338.866l2.934-1.695v3.39l-2.934 1.694zM336.486 349.036l2.934-1.695v3.39l-2.934 1.694zM336.486 359.205l2.934-1.695v3.39l-2.934 1.694zM336.486 369.37l2.934-1.695v3.39l-2.934 1.694zM336.486 379.54l2.934-1.695v3.39l-2.934 1.694zM336.486 389.709l2.934-1.695v3.39l-2.934 1.694zM336.486 399.874l2.934-1.695v3.39l-2.934 1.694zM336.486 410.043l2.934-1.695v3.39l-2.934 1.694zM336.486 420.208l2.934-1.695v3.39l-2.934 1.694zM336.486 430.378l2.934-1.695v3.39l-2.934 1.694zM336.486 440.547l2.934-1.695v3.39l-2.934 1.694zM336.486 450.712l2.934-1.695v3.39l-2.934 1.694zM336.486 460.882l2.934-1.695v3.39l-2.934 1.694zM336.486 471.047l2.934-1.695v3.39l-2.934 1.694zM336.486 481.216l2.934-1.695v3.39l-2.934 1.694zM336.486 491.386l2.934-1.695v3.39l-2.934 1.694zM336.486 501.551l2.934-1.695v3.39l-2.934 1.694zM336.486 511.72l2.934-1.695v3.39l-2.934 1.694zM336.486 521.889l2.934-1.695v3.39l-2.934 1.694zM336.486 532.055l2.934-1.695v3.39l-2.934 1.694zM336.486 542.224l2.934-1.695v3.39l-2.934 1.694zM336.486 552.389l2.934-1.695v3.39l-2.934 1.694zM345.293 211.77l2.934-1.695v3.39l-2.934 1.694zM345.293 221.939l2.934-1.695v3.39l-2.934 1.694zM345.293 232.104l2.934-1.695v3.39l-2.934 1.694zM345.293 242.274l2.934-1.695v3.39l-2.934 1.694zM345.293 252.439l2.934-1.695v3.39l-2.934 1.694zM345.293 262.608l2.934-1.695v3.39l-2.934 1.694zM345.293 272.778l2.934-1.695v3.39l-2.934 1.694zM345.293 282.943l2.934-1.695v3.39l-2.934 1.694zM345.293 293.112l2.934-1.695v3.39l-2.934 1.694zM345.293 303.282l2.934-1.695v3.39l-2.934 1.694zM345.293 313.447l2.934-1.695v3.39l-2.934 1.694zM345.293 323.616l2.934-1.695v3.39l-2.934 1.694zM345.293 333.781l2.934-1.695v3.39l-2.934 1.694zM345.293 343.951l2.934-1.695v3.39l-2.934 1.694zM345.293 354.12l2.934-1.695v3.39l-2.934 1.694zM345.293 364.29l2.934-1.695v3.39l-2.934 1.694zM345.293 374.455l2.934-1.695v3.39l-2.934 1.694zM345.293 384.624l2.934-1.695v3.39l-2.934 1.694zM345.293 394.789l2.934-1.695v3.39l-2.934 1.694zM345.293 404.958l2.934-1.695v3.39l-2.934 1.694zM345.293 415.124l2.934-1.695v3.39l-2.934 1.694zM345.293 425.293l2.934-1.695v3.39l-2.934 1.694zM345.293 435.462l2.934-1.695v3.39l-2.934 1.694zM345.293 445.632l2.934-1.695v3.39l-2.934 1.694zM345.293 455.797l2.934-1.695v3.39l-2.934 1.694zM345.293 465.966l2.934-1.695v3.39l-2.934 1.694zM345.293 476.131l2.934-1.695v3.39l-2.934 1.694zM345.293 486.301l2.934-1.695v3.39l-2.934 1.694zM345.293 496.466l2.934-1.695v3.39l-2.934 1.694zM345.293 506.635l2.934-1.695v3.39l-2.934 1.694zM345.293 516.805l2.934-1.695v3.39l-2.934 1.694zM345.293 526.97l2.934-1.695v3.39l-2.934 1.694zM345.293 537.139l2.934-1.695v3.39l-2.934 1.694zM345.293 547.309l2.934-1.695v3.39l-2.934 1.694zM354.084 206.686l2.934-1.695v3.39l-2.934 1.694zM354.084 216.855l2.934-1.695v3.39l-2.934 1.694zM354.084 227.024l2.934-1.695v3.39l-2.934 1.694zM354.084 237.189l2.934-1.695v3.39l-2.934 1.694zM354.084 247.359l2.934-1.695v3.39l-2.934 1.694zM354.084 257.524l2.934-1.695v3.39l-2.934 1.694zM354.084 267.693l2.934-1.695v3.39l-2.934 1.694zM354.084 277.858l2.934-1.695v3.39l-2.934 1.694zM354.084 288.028l2.934-1.695v3.39l-2.934 1.694zM354.084 298.197l2.934-1.695v3.39l-2.934 1.694zM354.084 308.362l2.934-1.695v3.39l-2.934 1.694zM354.084 318.532l2.934-1.695v3.39l-2.934 1.694zM354.084 328.701l2.934-1.695v3.39l-2.934 1.694zM354.084 338.866l2.934-1.695v3.39l-2.934 1.694zM354.084 349.036l2.934-1.695v3.39l-2.934 1.694zM354.084 359.205l2.934-1.695v3.39l-2.934 1.694zM354.084 369.37l2.934-1.695v3.39l-2.934 1.694zM354.084 379.54l2.934-1.695v3.39l-2.934 1.694zM354.084 389.709l2.934-1.695v3.39l-2.934 1.694zM354.084 399.874l2.934-1.695v3.39l-2.934 1.694zM354.084 410.043l2.934-1.695v3.39l-2.934 1.694zM354.084 420.208l2.934-1.695v3.39l-2.934 1.694zM354.084 430.378l2.934-1.695v3.39l-2.934 1.694zM354.084 440.547l2.934-1.695v3.39l-2.934 1.694zM354.084 450.712l2.934-1.695v3.39l-2.934 1.694zM354.084 460.882l2.934-1.695v3.39l-2.934 1.694zM354.084 471.047l2.934-1.695v3.39l-2.934 1.694zM354.084 481.216l2.934-1.695v3.39l-2.934 1.694zM354.084 491.386l2.934-1.695v3.39l-2.934 1.694zM354.084 501.551l2.934-1.695v3.39l-2.934 1.694zM354.084 511.72l2.934-1.695v3.39l-2.934 1.694zM354.084 521.889l2.934-1.695v3.39l-2.934 1.694zM354.084 532.055l2.934-1.695v3.39l-2.934 1.694zM354.084 542.224l2.934-1.695v3.39l-2.934 1.694zM354.084 552.389l2.934-1.695v3.39l-2.934 1.694zM362.884 201.601l2.934-1.695v3.39l-2.934 1.694zM362.884 211.77l2.934-1.695v3.39l-2.934 1.694zM362.884 221.939l2.934-1.695v3.39l-2.934 1.694zM362.884 232.104l2.934-1.695v3.39l-2.934 1.694zM362.884 242.274l2.934-1.695v3.39l-2.934 1.694zM362.884 252.439l2.934-1.695v3.39l-2.934 1.694zM362.884 262.608l2.934-1.695v3.39l-2.934 1.694zM362.884 272.778l2.934-1.695v3.39l-2.934 1.694zM362.884 282.943l2.934-1.695v3.39l-2.934 1.694zM362.884 293.112l2.934-1.695v3.39l-2.934 1.694zM362.884 303.282l2.934-1.695v3.39l-2.934 1.694zM362.884 313.447l2.934-1.695v3.39l-2.934 1.694zM362.884 323.616l2.934-1.695v3.39l-2.934 1.694zM362.884 333.781l2.934-1.695v3.39l-2.934 1.694zM362.884 343.951l2.934-1.695v3.39l-2.934 1.694zM362.884 354.12l2.934-1.695v3.39l-2.934 1.694zM362.884 364.29l2.934-1.695v3.39l-2.934 1.694zM362.884 374.455l2.934-1.695v3.39l-2.934 1.694zM362.884 384.624l2.934-1.695v3.39l-2.934 1.694zM362.884 394.789l2.934-1.695v3.39l-2.934 1.694zM362.884 404.958l2.934-1.695v3.39l-2.934 1.694zM362.884 415.124l2.934-1.695v3.39l-2.934 1.694zM362.884 425.293l2.934-1.695v3.39l-2.934 1.694zM362.884 435.462l2.934-1.695v3.39l-2.934 1.694zM362.884 445.632l2.934-1.695v3.39l-2.934 1.694zM362.884 455.797l2.934-1.695v3.39l-2.934 1.694zM362.884 465.966l2.934-1.695v3.39l-2.934 1.694zM362.884 476.131l2.934-1.695v3.39l-2.934 1.694zM362.884 486.301l2.934-1.695v3.39l-2.934 1.694zM362.884 496.47l2.934-1.695v3.39l-2.934 1.694zM362.884 506.635l2.934-1.695v3.39l-2.934 1.694zM362.884 516.805l2.934-1.695v3.39l-2.934 1.694zM362.884 526.97l2.934-1.695v3.39l-2.934 1.694zM362.884 537.139l2.934-1.695v3.39l-2.934 1.694zM362.884 547.309l2.934-1.695v3.39l-2.934 1.694zM371.687 196.521l2.934-1.695v3.39l-2.934 1.694zM371.687 206.686l2.934-1.695v3.39l-2.934 1.694zM371.687 216.855l2.934-1.695v3.39l-2.934 1.694zM371.687 227.024l2.934-1.695v3.39l-2.934 1.694zM371.687 237.189l2.934-1.695v3.39l-2.934 1.694zM371.687 247.359l2.934-1.695v3.39l-2.934 1.694zM371.687 257.524l2.934-1.695v3.39l-2.934 1.694zM371.687 267.693l2.934-1.695v3.39l-2.934 1.694zM371.687 277.858l2.934-1.695v3.39l-2.934 1.694zM371.687 288.028l2.934-1.695v3.39l-2.934 1.694zM371.687 298.197l2.934-1.695v3.39l-2.934 1.694zM371.687 308.362l2.934-1.695v3.39l-2.934 1.694zM371.687 318.532l2.934-1.695v3.39l-2.934 1.694zM371.687 328.701l2.934-1.695v3.39l-2.934 1.694zM371.687 338.866l2.934-1.695v3.39l-2.934 1.694zM371.687 349.036l2.934-1.695v3.39l-2.934 1.694zM371.687 359.205l2.934-1.695v3.39l-2.934 1.694zM371.687 369.37l2.934-1.695v3.39l-2.934 1.694zM371.687 379.54l2.934-1.695v3.39l-2.934 1.694zM371.687 389.709l2.934-1.695v3.39l-2.934 1.694zM371.687 399.874l2.934-1.695v3.39l-2.934 1.694zM371.687 410.043l2.934-1.695v3.39l-2.934 1.694zM371.687 420.208l2.934-1.695v3.39l-2.934 1.694zM371.687 430.378l2.934-1.695v3.39l-2.934 1.694zM371.687 440.547l2.934-1.695v3.39l-2.934 1.694zM371.687 450.712l2.934-1.695v3.39l-2.934 1.694zM371.687 460.882l2.934-1.695v3.39l-2.934 1.694zM371.687 471.047l2.934-1.695v3.39l-2.934 1.694zM371.687 481.216l2.934-1.695v3.39l-2.934 1.694zM371.687 491.386l2.934-1.695v3.39l-2.934 1.694zM371.687 501.551l2.934-1.695v3.39l-2.934 1.694zM371.687 511.72l2.934-1.695v3.39l-2.934 1.694zM371.687 521.889l2.934-1.695v3.39l-2.934 1.694zM371.687 532.055l2.934-1.695v3.39l-2.934 1.694zM371.687 542.224l2.934-1.695v3.39l-2.934 1.694zM371.687 552.389l2.934-1.695v3.39l-2.934 1.694zM380.491 191.436l2.934-1.695v3.39l-2.934 1.694zM380.491 201.601l2.934-1.695v3.39l-2.934 1.694zM380.491 211.77l2.934-1.695v3.39l-2.934 1.694zM380.491 221.939l2.934-1.695v3.39l-2.934 1.694zM380.491 232.104l2.934-1.695v3.39l-2.934 1.694zM380.491 242.274l2.934-1.695v3.39l-2.934 1.694zM380.491 252.439l2.934-1.695v3.39l-2.934 1.694zM380.491 262.608l2.934-1.695v3.39l-2.934 1.694zM380.491 272.778l2.934-1.695v3.39l-2.934 1.694zM380.491 282.943l2.934-1.695v3.39l-2.934 1.694zM380.491 293.112l2.934-1.695v3.39l-2.934 1.694zM380.491 303.282l2.934-1.695v3.39l-2.934 1.694zM380.491 313.447l2.934-1.695v3.39l-2.934 1.694zM380.491 323.616l2.934-1.695v3.39l-2.934 1.694zM380.491 333.781l2.934-1.695v3.39l-2.934 1.694zM380.491 343.951l2.934-1.695v3.39l-2.934 1.694zM380.491 354.12l2.934-1.695v3.39l-2.934 1.694zM380.491 364.29l2.934-1.695v3.39l-2.934 1.694zM380.491 374.455l2.934-1.695v3.39l-2.934 1.694zM380.491 384.624l2.934-1.695v3.39l-2.934 1.694zM380.491 394.789l2.934-1.695v3.39l-2.934 1.694zM380.491 404.958l2.934-1.695v3.39l-2.934 1.694zM380.491 415.124l2.934-1.695v3.39l-2.934 1.694zM380.491 425.293l2.934-1.695v3.39l-2.934 1.694zM380.491 435.462l2.934-1.695v3.39l-2.934 1.694zM380.491 445.632l2.934-1.695v3.39l-2.934 1.694zM380.491 455.797l2.934-1.695v3.39l-2.934 1.694zM380.491 465.966l2.934-1.695v3.39l-2.934 1.694zM380.491 476.131l2.934-1.695v3.39l-2.934 1.694zM380.491 486.301l2.934-1.695v3.39l-2.934 1.694zM380.491 496.466l2.934-1.695v3.39l-2.934 1.694zM380.491 506.635l2.934-1.695v3.39l-2.934 1.694zM380.491 516.805l2.934-1.695v3.39l-2.934 1.694zM380.491 526.97l2.934-1.695v3.39l-2.934 1.694zM380.491 537.139l2.934-1.695v3.39l-2.934 1.694zM380.491 547.309l2.934-1.695v3.39l-2.934 1.694zM389.286 186.351l2.934-1.695v3.39l-2.934 1.694zM389.286 196.521l2.934-1.695v3.39l-2.934 1.694zM389.286 206.686l2.934-1.695v3.39l-2.934 1.694zM389.286 216.855l2.934-1.695v3.39l-2.934 1.694zM389.286 227.024l2.934-1.695v3.39l-2.934 1.694zM389.286 237.189l2.934-1.695v3.39l-2.934 1.694zM389.286 247.359l2.934-1.695v3.39l-2.934 1.694zM389.286 257.524l2.934-1.695v3.39l-2.934 1.694zM389.286 267.693l2.934-1.695v3.39l-2.934 1.694zM389.286 277.858l2.934-1.695v3.39l-2.934 1.694zM389.286 288.028l2.934-1.695v3.39l-2.934 1.694zM389.286 298.197l2.934-1.695v3.39l-2.934 1.694zM389.286 308.362l2.934-1.695v3.39l-2.934 1.694zM389.286 318.532l2.934-1.695v3.39l-2.934 1.694zM389.286 328.701l2.934-1.695v3.39l-2.934 1.694zM389.286 338.866l2.934-1.695v3.39l-2.934 1.694zM389.286 349.036l2.934-1.695v3.39l-2.934 1.694zM389.286 359.205l2.934-1.695v3.39l-2.934 1.694zM389.286 369.37l2.934-1.695v3.39l-2.934 1.694zM389.286 379.54l2.934-1.695v3.39l-2.934 1.694zM389.286 389.709l2.934-1.695v3.39l-2.934 1.694zM389.286 399.874l2.934-1.695v3.39l-2.934 1.694zM389.286 410.043l2.934-1.695v3.39l-2.934 1.694zM389.286 420.208l2.934-1.695v3.39l-2.934 1.694zM389.286 430.378l2.934-1.695v3.39l-2.934 1.694zM389.286 440.547l2.934-1.695v3.39l-2.934 1.694zM389.286 450.712l2.934-1.695v3.39l-2.934 1.694zM389.286 460.882l2.934-1.695v3.39l-2.934 1.694zM389.286 471.047l2.934-1.695v3.39l-2.934 1.694zM389.286 481.216l2.934-1.695v3.39l-2.934 1.694zM389.286 491.386l2.934-1.695v3.39l-2.934 1.694zM389.286 501.551l2.934-1.695v3.39l-2.934 1.694zM389.286 511.72l2.934-1.695v3.39l-2.934 1.694zM389.286 521.889l2.934-1.695v3.39l-2.934 1.694zM389.286 532.055l2.934-1.695v3.39l-2.934 1.694zM389.286 542.224l2.934-1.695v3.39l-2.934 1.694zM389.286 552.389l2.934-1.695v3.39l-2.934 1.694zM398.089 181.266l2.934-1.695v3.39l-2.934 1.694zM398.089 191.436l2.934-1.695v3.39l-2.934 1.694zM398.089 201.601l2.934-1.695v3.39l-2.934 1.694zM398.089 211.77l2.934-1.695v3.39l-2.934 1.694zM398.089 221.939l2.934-1.695v3.39l-2.934 1.694zM398.089 232.104l2.934-1.695v3.39l-2.934 1.694zM398.089 242.274l2.934-1.695v3.39l-2.934 1.694zM398.089 252.439l2.934-1.695v3.39l-2.934 1.694zM398.089 262.608l2.934-1.695v3.39l-2.934 1.694zM398.089 272.778l2.934-1.695v3.39l-2.934 1.694zM398.089 282.943l2.934-1.695v3.39l-2.934 1.694zM398.089 293.112l2.934-1.695v3.39l-2.934 1.694zM398.089 303.282l2.934-1.695v3.39l-2.934 1.694zM398.089 313.447l2.934-1.695v3.39l-2.934 1.694zM398.089 323.616l2.934-1.695v3.39l-2.934 1.694zM398.089 333.781l2.934-1.695v3.39l-2.934 1.694zM398.089 343.951l2.934-1.695v3.39l-2.934 1.694zM398.089 354.12l2.934-1.695v3.39l-2.934 1.694zM398.089 364.29l2.934-1.695v3.39l-2.934 1.694zM398.089 374.455l2.934-1.695v3.39l-2.934 1.694zM398.089 384.624l2.934-1.695v3.39l-2.934 1.694zM398.089 394.789l2.934-1.695v3.39l-2.934 1.694zM398.089 404.958l2.934-1.695v3.39l-2.934 1.694zM398.089 415.124l2.934-1.695v3.39l-2.934 1.694zM398.089 425.293l2.934-1.695v3.39l-2.934 1.694zM398.089 435.462l2.934-1.695v3.39l-2.934 1.694zM398.089 445.632l2.934-1.695v3.39l-2.934 1.694zM398.089 455.797l2.934-1.695v3.39l-2.934 1.694zM398.089 465.966l2.934-1.695v3.39l-2.934 1.694zM398.089 476.131l2.934-1.695v3.39l-2.934 1.694zM398.089 486.301l2.934-1.695v3.39l-2.934 1.694zM398.089 496.466l2.934-1.695v3.39l-2.934 1.694zM398.089 506.635l2.934-1.695v3.39l-2.934 1.694zM398.089 516.805l2.934-1.695v3.39l-2.934 1.694zM398.089 526.97l2.934-1.695v3.39l-2.934 1.694zM398.089 537.139l2.934-1.695v3.39l-2.934 1.694zM398.089 547.309l2.934-1.695v3.39l-2.934 1.694zM406.888 176.182l2.934-1.695v3.39l-2.934 1.694zM406.888 186.351l2.934-1.695v3.39l-2.934 1.694zM406.888 196.521l2.934-1.695v3.39l-2.934 1.694zM406.888 206.686l2.934-1.695v3.39l-2.934 1.694zM406.888 216.855l2.934-1.695v3.39l-2.934 1.694zM406.888 227.024l2.934-1.695v3.39l-2.934 1.694zM406.888 237.189l2.934-1.695v3.39l-2.934 1.694zM406.888 247.359l2.934-1.695v3.39l-2.934 1.694zM406.888 257.524l2.934-1.695v3.39l-2.934 1.694zM406.888 267.693l2.934-1.695v3.39l-2.934 1.694zM406.888 277.858l2.934-1.695v3.39l-2.934 1.694zM406.888 288.028l2.934-1.695v3.39l-2.934 1.694zM406.888 298.197l2.934-1.695v3.39l-2.934 1.694zM406.888 308.362l2.934-1.695v3.39l-2.934 1.694zM406.888 318.532l2.934-1.695v3.39l-2.934 1.694zM406.888 328.701l2.934-1.695v3.39l-2.934 1.694zM406.888 338.866l2.934-1.695v3.39l-2.934 1.694zM406.888 349.036l2.934-1.695v3.39l-2.934 1.694zM406.888 359.205l2.934-1.695v3.39l-2.934 1.694zM406.888 369.37l2.934-1.695v3.39l-2.934 1.694zM406.888 379.54l2.934-1.695v3.39l-2.934 1.694zM406.888 389.709l2.934-1.695v3.39l-2.934 1.694zM406.888 399.874l2.934-1.695v3.39l-2.934 1.694zM406.888 410.043l2.934-1.695v3.39l-2.934 1.694zM406.888 420.208l2.934-1.695v3.39l-2.934 1.694zM406.888 430.378l2.934-1.695v3.39l-2.934 1.694zM406.888 440.547l2.934-1.695v3.39l-2.934 1.694zM406.888 450.712l2.934-1.695v3.39l-2.934 1.694zM406.888 460.882l2.934-1.695v3.39l-2.934 1.694zM406.888 471.047l2.934-1.695v3.39l-2.934 1.694zM406.888 481.216l2.934-1.695v3.39l-2.934 1.694zM406.888 491.386l2.934-1.695v3.39l-2.934 1.694zM406.888 501.551l2.934-1.695v3.39l-2.934 1.694zM406.888 511.72l2.934-1.695v3.39l-2.934 1.694zM406.888 521.889l2.934-1.695v3.39l-2.934 1.694zM406.888 532.055l2.934-1.695v3.39l-2.934 1.694zM406.888 542.224l2.934-1.695v3.39l-2.934 1.694zM406.888 552.389l2.934-1.695v3.39l-2.934 1.694zM415.692 171.101l2.934-1.695v3.39l-2.934 1.694zM415.692 181.266l2.934-1.695v3.39l-2.934 1.694zM415.692 191.436l2.934-1.695v3.39l-2.934 1.694zM415.692 201.601l2.934-1.695v3.39l-2.934 1.694zM415.692 211.77l2.934-1.695v3.39l-2.934 1.694zM415.692 221.939l2.934-1.695v3.39l-2.934 1.694zM415.692 232.104l2.934-1.695v3.39l-2.934 1.694zM415.692 242.274l2.934-1.695v3.39l-2.934 1.694zM415.692 252.439l2.934-1.695v3.39l-2.934 1.694zM415.692 262.608l2.934-1.695v3.39l-2.934 1.694zM415.692 272.778l2.934-1.695v3.39l-2.934 1.694zM415.692 282.943l2.934-1.695v3.39l-2.934 1.694zM415.692 293.112l2.934-1.695v3.39l-2.934 1.694zM415.692 303.282l2.934-1.695v3.39l-2.934 1.694zM415.692 313.447l2.934-1.695v3.39l-2.934 1.694zM415.692 323.616l2.934-1.695v3.39l-2.934 1.694zM415.692 333.781l2.934-1.695v3.39l-2.934 1.694zM415.692 343.951l2.934-1.695v3.39l-2.934 1.694zM415.692 354.12l2.934-1.695v3.39l-2.934 1.694zM415.692 364.29l2.934-1.695v3.39l-2.934 1.694zM415.692 374.455l2.934-1.695v3.39l-2.934 1.694zM415.692 384.624l2.934-1.695v3.39l-2.934 1.694zM415.692 394.789l2.934-1.695v3.39l-2.934 1.694zM415.692 404.958l2.934-1.695v3.39l-2.934 1.694zM415.692 415.124l2.934-1.695v3.39l-2.934 1.694zM415.692 425.293l2.934-1.695v3.39l-2.934 1.694zM415.692 435.462l2.934-1.695v3.39l-2.934 1.694zM415.692 445.632l2.934-1.695v3.39l-2.934 1.694zM415.692 455.797l2.934-1.695v3.39l-2.934 1.694zM415.692 465.966l2.934-1.695v3.39l-2.934 1.694zM415.692 476.131l2.934-1.695v3.39l-2.934 1.694zM415.692 486.301l2.934-1.695v3.39l-2.934 1.694zM415.692 496.47l2.934-1.695v3.39l-2.934 1.694zM415.692 506.635l2.934-1.695v3.39l-2.934 1.694zM415.692 516.805l2.934-1.695v3.39l-2.934 1.694zM415.692 526.97l2.934-1.695v3.39l-2.934 1.694zM415.692 537.139l2.934-1.695v3.39l-2.934 1.694zM415.692 547.309l2.934-1.695v3.39l-2.934 1.694zM424.495 166.017l2.934-1.695v3.39l-2.934 1.694zM424.495 176.182l2.934-1.695v3.39l-2.934 1.694zM424.495 186.351l2.934-1.695v3.39l-2.934 1.694zM424.495 196.521l2.934-1.695v3.39l-2.934 1.694zM424.495 206.686l2.934-1.695v3.39l-2.934 1.694zM424.495 216.855l2.934-1.695v3.39l-2.934 1.694zM424.495 227.024l2.934-1.695v3.39l-2.934 1.694zM424.495 237.189l2.934-1.695v3.39l-2.934 1.694zM424.495 247.359l2.934-1.695v3.39l-2.934 1.694zM424.495 257.524l2.934-1.695v3.39l-2.934 1.694zM424.495 267.693l2.934-1.695v3.39l-2.934 1.694zM424.495 277.858l2.934-1.695v3.39l-2.934 1.694zM424.495 288.028l2.934-1.695v3.39l-2.934 1.694zM424.495 298.197l2.934-1.695v3.39l-2.934 1.694zM424.495 308.362l2.934-1.695v3.39l-2.934 1.694zM424.495 318.532l2.934-1.695v3.39l-2.934 1.694zM424.495 328.701l2.934-1.695v3.39l-2.934 1.694zM424.495 338.866l2.934-1.695v3.39l-2.934 1.694zM424.495 349.036l2.934-1.695v3.39l-2.934 1.694zM424.495 359.205l2.934-1.695v3.39l-2.934 1.694zM424.495 369.37l2.934-1.695v3.39l-2.934 1.694zM424.495 379.54l2.934-1.695v3.39l-2.934 1.694zM424.495 389.709l2.934-1.695v3.39l-2.934 1.694zM424.495 399.874l2.934-1.695v3.39l-2.934 1.694zM424.495 410.043l2.934-1.695v3.39l-2.934 1.694zM424.495 420.208l2.934-1.695v3.39l-2.934 1.694zM424.495 430.378l2.934-1.695v3.39l-2.934 1.694zM424.495 440.547l2.934-1.695v3.39l-2.934 1.694zM424.495 450.712l2.934-1.695v3.39l-2.934 1.694zM424.495 460.882l2.934-1.695v3.39l-2.934 1.694zM424.495 471.047l2.934-1.695v3.39l-2.934 1.694zM424.495 481.216l2.934-1.695v3.39l-2.934 1.694zM424.495 491.386l2.934-1.695v3.39l-2.934 1.694zM424.495 501.551l2.934-1.695v3.39l-2.934 1.694zM424.495 511.72l2.934-1.695v3.39l-2.934 1.694zM424.495 521.889l2.934-1.695v3.39l-2.934 1.694zM424.495 532.055l2.934-1.695v3.39l-2.934 1.694zM424.495 542.224l2.934-1.695v3.39l-2.934 1.694zM424.495 552.389l2.934-1.695v3.39l-2.934 1.694zM433.294 160.932l2.934-1.695v3.39l-2.934 1.694zM433.294 171.101l2.934-1.695v3.39l-2.934 1.694zM433.294 181.266l2.934-1.695v3.39l-2.934 1.694zM433.294 191.436l2.934-1.695v3.39l-2.934 1.694zM433.294 201.601l2.934-1.695v3.39l-2.934 1.694zM433.294 211.77l2.934-1.695v3.39l-2.934 1.694zM433.294 221.939l2.934-1.695v3.39l-2.934 1.694zM433.294 232.104l2.934-1.695v3.39l-2.934 1.694zM433.294 242.274l2.934-1.695v3.39l-2.934 1.694zM433.294 252.439l2.934-1.695v3.39l-2.934 1.694zM433.294 262.608l2.934-1.695v3.39l-2.934 1.694zM433.294 272.778l2.934-1.695v3.39l-2.934 1.694zM433.294 282.943l2.934-1.695v3.39l-2.934 1.694zM433.294 293.112l2.934-1.695v3.39l-2.934 1.694zM433.294 303.282l2.934-1.695v3.39l-2.934 1.694zM433.294 313.447l2.934-1.695v3.39l-2.934 1.694zM433.294 323.616l2.934-1.695v3.39l-2.934 1.694zM433.294 333.781l2.934-1.695v3.39l-2.934 1.694zM433.294 343.951l2.934-1.695v3.39l-2.934 1.694zM433.294 354.12l2.934-1.695v3.39l-2.934 1.694zM433.294 364.29l2.934-1.695v3.39l-2.934 1.694zM433.294 374.455l2.934-1.695v3.39l-2.934 1.694zM433.294 384.624l2.934-1.695v3.39l-2.934 1.694zM433.294 394.789l2.934-1.695v3.39l-2.934 1.694zM433.294 404.958l2.934-1.695v3.39l-2.934 1.694zM433.294 415.124l2.934-1.695v3.39l-2.934 1.694zM433.294 425.293l2.934-1.695v3.39l-2.934 1.694zM433.294 435.462l2.934-1.695v3.39l-2.934 1.694zM433.294 445.632l2.934-1.695v3.39l-2.934 1.694zM433.294 455.797l2.934-1.695v3.39l-2.934 1.694zM433.294 465.966l2.934-1.695v3.39l-2.934 1.694zM433.294 476.131l2.934-1.695v3.39l-2.934 1.694zM433.294 486.301l2.934-1.695v3.39l-2.934 1.694zM433.294 496.466l2.934-1.695v3.39l-2.934 1.694zM433.294 506.635l2.934-1.695v3.39l-2.934 1.694zM433.294 516.805l2.934-1.695v3.39l-2.934 1.694zM433.294 526.97l2.934-1.695v3.39l-2.934 1.694zM433.294 537.139l2.934-1.695v3.39l-2.934 1.694zM433.294 547.309l2.934-1.695v3.39l-2.934 1.694zM442.094 166.017l2.934-1.695v3.39l-2.934 1.694zM442.094 176.182l2.934-1.695v3.39l-2.934 1.694zM442.094 186.351l2.934-1.695v3.39l-2.934 1.694zM442.094 196.521l2.934-1.695v3.39l-2.934 1.694zM442.094 206.686l2.934-1.695v3.39l-2.934 1.694zM442.094 216.855l2.934-1.695v3.39l-2.934 1.694zM442.094 227.024l2.934-1.695v3.39l-2.934 1.694zM442.094 237.189l2.934-1.695v3.39l-2.934 1.694zM442.094 247.359l2.934-1.695v3.39l-2.934 1.694zM442.094 257.524l2.934-1.695v3.39l-2.934 1.694zM442.094 267.693l2.934-1.695v3.39l-2.934 1.694zM442.094 277.858l2.934-1.695v3.39l-2.934 1.694zM442.094 288.028l2.934-1.695v3.39l-2.934 1.694zM442.094 298.197l2.934-1.695v3.39l-2.934 1.694zM442.094 308.362l2.934-1.695v3.39l-2.934 1.694zM442.094 318.532l2.934-1.695v3.39l-2.934 1.694zM442.094 328.701l2.934-1.695v3.39l-2.934 1.694zM442.094 338.866l2.934-1.695v3.39l-2.934 1.694zM442.094 349.036l2.934-1.695v3.39l-2.934 1.694zM442.094 359.205l2.934-1.695v3.39l-2.934 1.694zM442.094 369.37l2.934-1.695v3.39l-2.934 1.694zM442.094 379.54l2.934-1.695v3.39l-2.934 1.694zM442.094 389.709l2.934-1.695v3.39l-2.934 1.694zM442.094 399.874l2.934-1.695v3.39l-2.934 1.694zM442.094 410.043l2.934-1.695v3.39l-2.934 1.694zM442.094 420.208l2.934-1.695v3.39l-2.934 1.694zM442.094 430.378l2.934-1.695v3.39l-2.934 1.694zM442.094 440.547l2.934-1.695v3.39l-2.934 1.694zM442.094 450.712l2.934-1.695v3.39l-2.934 1.694zM442.094 460.882l2.934-1.695v3.39l-2.934 1.694zM442.094 471.047l2.934-1.695v3.39l-2.934 1.694zM442.094 481.216l2.934-1.695v3.39l-2.934 1.694zM442.094 491.386l2.934-1.695v3.39l-2.934 1.694zM442.094 501.551l2.934-1.695v3.39l-2.934 1.694zM442.094 511.72l2.934-1.695v3.39l-2.934 1.694zM442.094 521.889l2.934-1.695v3.39l-2.934 1.694zM442.094 532.055l2.934-1.695v3.39l-2.934 1.694zM442.094 542.224l2.934-1.695v3.39l-2.934 1.694zM450.893 160.932l2.934-1.695v3.39l-2.934 1.694zM450.893 171.101l2.934-1.695v3.39l-2.934 1.694zM450.893 181.266l2.934-1.695v3.39l-2.934 1.694zM450.893 191.436l2.934-1.695v3.39l-2.934 1.694zM450.893 201.601l2.934-1.695v3.39l-2.934 1.694zM450.893 211.77l2.934-1.695v3.39l-2.934 1.694zM450.893 221.939l2.934-1.695v3.39l-2.934 1.694zM450.893 232.104l2.934-1.695v3.39l-2.934 1.694zM450.893 242.274l2.934-1.695v3.39l-2.934 1.694zM450.893 252.439l2.934-1.695v3.39l-2.934 1.694zM450.893 262.608l2.934-1.695v3.39l-2.934 1.694zM450.893 272.778l2.934-1.695v3.39l-2.934 1.694zM450.893 282.943l2.934-1.695v3.39l-2.934 1.694zM450.893 293.112l2.934-1.695v3.39l-2.934 1.694zM450.893 303.282l2.934-1.695v3.39l-2.934 1.694zM450.893 313.447l2.934-1.695v3.39l-2.934 1.694zM450.893 323.616l2.934-1.695v3.39l-2.934 1.694zM450.893 333.781l2.934-1.695v3.39l-2.934 1.694zM450.893 343.951l2.934-1.695v3.39l-2.934 1.694zM450.893 354.12l2.934-1.695v3.39l-2.934 1.694zM450.893 364.29l2.934-1.695v3.39l-2.934 1.694zM450.893 374.455l2.934-1.695v3.39l-2.934 1.694zM450.893 384.624l2.934-1.695v3.39l-2.934 1.694zM450.893 394.789l2.934-1.695v3.39l-2.934 1.694zM450.893 404.958l2.934-1.695v3.39l-2.934 1.694zM450.893 415.124l2.934-1.695v3.39l-2.934 1.694zM450.893 425.293l2.934-1.695v3.39l-2.934 1.694zM450.893 435.462l2.934-1.695v3.39l-2.934 1.694zM450.893 445.632l2.934-1.695v3.39l-2.934 1.694zM450.893 455.797l2.934-1.695v3.39l-2.934 1.694zM450.893 465.966l2.934-1.695v3.39l-2.934 1.694zM450.893 476.131l2.934-1.695v3.39l-2.934 1.694zM450.893 486.301l2.934-1.695v3.39l-2.934 1.694zM450.893 496.466l2.934-1.695v3.39l-2.934 1.694zM450.893 506.635l2.934-1.695v3.39l-2.934 1.694zM450.893 516.805l2.934-1.695v3.39l-2.934 1.694zM450.893 526.97l2.934-1.695v3.39l-2.934 1.694zM450.893 537.139l2.934-1.695v3.39l-2.934 1.694zM459.692 166.017l2.934-1.695v3.39l-2.934 1.694zM459.692 176.182l2.934-1.695v3.39l-2.934 1.694zM459.692 186.351l2.934-1.695v3.39l-2.934 1.694zM459.692 196.521l2.934-1.695v3.39l-2.934 1.694zM459.692 206.686l2.934-1.695v3.39l-2.934 1.694zM459.692 216.855l2.934-1.695v3.39l-2.934 1.694zM459.692 227.024l2.934-1.695v3.39l-2.934 1.694zM459.692 237.189l2.934-1.695v3.39l-2.934 1.694zM459.692 247.359l2.934-1.695v3.39l-2.934 1.694zM459.692 257.524l2.934-1.695v3.39l-2.934 1.694zM459.692 267.693l2.934-1.695v3.39l-2.934 1.694zM459.692 277.858l2.934-1.695v3.39l-2.934 1.694zM459.692 288.028l2.934-1.695v3.39l-2.934 1.694zM459.692 298.197l2.934-1.695v3.39l-2.934 1.694zM459.692 308.362l2.934-1.695v3.39l-2.934 1.694zM459.692 318.532l2.934-1.695v3.39l-2.934 1.694zM459.692 328.701l2.934-1.695v3.39l-2.934 1.694zM459.692 338.866l2.934-1.695v3.39l-2.934 1.694zM459.692 349.036l2.934-1.695v3.39l-2.934 1.694zM459.692 359.205l2.934-1.695v3.39l-2.934 1.694zM459.692 369.37l2.934-1.695v3.39l-2.934 1.694zM459.692 379.54l2.934-1.695v3.39l-2.934 1.694zM459.692 389.709l2.934-1.695v3.39l-2.934 1.694zM459.692 399.874l2.934-1.695v3.39l-2.934 1.694zM459.692 410.043l2.934-1.695v3.39l-2.934 1.694zM459.692 420.208l2.934-1.695v3.39l-2.934 1.694zM459.692 430.378l2.934-1.695v3.39l-2.934 1.694zM459.692 440.547l2.934-1.695v3.39l-2.934 1.694zM459.692 450.712l2.934-1.695v3.39l-2.934 1.694zM459.692 460.882l2.934-1.695v3.39l-2.934 1.694zM459.692 471.047l2.934-1.695v3.39l-2.934 1.694zM459.692 481.216l2.934-1.695v3.39l-2.934 1.694zM459.692 491.386l2.934-1.695v3.39l-2.934 1.694zM459.692 501.551l2.934-1.695v3.39l-2.934 1.694zM459.692 511.72l2.934-1.695v3.39l-2.934 1.694zM459.692 521.889l2.934-1.695v3.39l-2.934 1.694zM459.692 532.055l2.934-1.695v3.39l-2.934 1.694zM468.496 160.932l2.934-1.695v3.39l-2.934 1.694zM468.496 171.101l2.934-1.695v3.39l-2.934 1.694zM468.496 181.266l2.934-1.695v3.39l-2.934 1.694zM468.496 191.436l2.934-1.695v3.39l-2.934 1.694zM468.496 201.601l2.934-1.695v3.39l-2.934 1.694zM468.496 211.77l2.934-1.695v3.39l-2.934 1.694zM468.496 221.939l2.934-1.695v3.39l-2.934 1.694zM468.496 232.104l2.934-1.695v3.39l-2.934 1.694zM468.496 242.274l2.934-1.695v3.39l-2.934 1.694zM468.496 252.439l2.934-1.695v3.39l-2.934 1.694zM468.496 262.608l2.934-1.695v3.39l-2.934 1.694zM468.496 272.778l2.934-1.695v3.39l-2.934 1.694zM468.496 282.943l2.934-1.695v3.39l-2.934 1.694zM468.496 293.112l2.934-1.695v3.39l-2.934 1.694zM468.496 303.282l2.934-1.695v3.39l-2.934 1.694zM468.496 313.447l2.934-1.695v3.39l-2.934 1.694zM468.496 323.616l2.934-1.695v3.39l-2.934 1.694zM468.496 333.781l2.934-1.695v3.39l-2.934 1.694zM468.496 343.951l2.934-1.695v3.39l-2.934 1.694zM468.496 354.12l2.934-1.695v3.39l-2.934 1.694zM468.496 364.29l2.934-1.695v3.39l-2.934 1.694zM468.496 374.455l2.934-1.695v3.39l-2.934 1.694zM468.496 384.624l2.934-1.695v3.39l-2.934 1.694zM468.496 394.789l2.934-1.695v3.39l-2.934 1.694zM468.496 404.958l2.934-1.695v3.39l-2.934 1.694zM468.496 415.124l2.934-1.695v3.39l-2.934 1.694zM468.496 425.293l2.934-1.695v3.39l-2.934 1.694zM468.496 435.462l2.934-1.695v3.39l-2.934 1.694zM468.496 445.632l2.934-1.695v3.39l-2.934 1.694zM468.496 455.797l2.934-1.695v3.39l-2.934 1.694zM468.496 465.966l2.934-1.695v3.39l-2.934 1.694zM468.496 476.131l2.934-1.695v3.39l-2.934 1.694zM468.496 486.301l2.934-1.695v3.39l-2.934 1.694zM468.496 496.47l2.934-1.695v3.39l-2.934 1.694zM468.496 506.635l2.934-1.695v3.39l-2.934 1.694zM468.496 516.805l2.934-1.695v3.39l-2.934 1.694zM468.496 526.97l2.934-1.695v3.39l-2.934 1.694zM477.299 166.017l2.934-1.695v3.39l-2.934 1.694zM477.299 176.182l2.934-1.695v3.39l-2.934 1.694zM477.299 186.351l2.934-1.695v3.39l-2.934 1.694zM477.299 196.521l2.934-1.695v3.39l-2.934 1.694zM477.299 206.686l2.934-1.695v3.39l-2.934 1.694zM477.299 216.855l2.934-1.695v3.39l-2.934 1.694zM477.299 227.024l2.934-1.695v3.39l-2.934 1.694zM477.299 237.189l2.934-1.695v3.39l-2.934 1.694zM477.299 247.359l2.934-1.695v3.39l-2.934 1.694zM477.299 257.524l2.934-1.695v3.39l-2.934 1.694zM477.299 267.693l2.934-1.695v3.39l-2.934 1.694zM477.299 277.858l2.934-1.695v3.39l-2.934 1.694zM477.299 288.028l2.934-1.695v3.39l-2.934 1.694zM477.299 298.197l2.934-1.695v3.39l-2.934 1.694zM477.299 308.362l2.934-1.695v3.39l-2.934 1.694zM477.299 318.532l2.934-1.695v3.39l-2.934 1.694zM477.299 328.701l2.934-1.695v3.39l-2.934 1.694zM477.299 338.866l2.934-1.695v3.39l-2.934 1.694zM477.299 349.036l2.934-1.695v3.39l-2.934 1.694zM477.299 359.205l2.934-1.695v3.39l-2.934 1.694zM477.299 369.37l2.934-1.695v3.39l-2.934 1.694zM477.299 379.54l2.934-1.695v3.39l-2.934 1.694zM477.299 389.709l2.934-1.695v3.39l-2.934 1.694zM477.299 399.874l2.934-1.695v3.39l-2.934 1.694zM477.299 410.043l2.934-1.695v3.39l-2.934 1.694zM477.299 420.208l2.934-1.695v3.39l-2.934 1.694zM477.299 430.378l2.934-1.695v3.39l-2.934 1.694zM477.299 440.547l2.934-1.695v3.39l-2.934 1.694zM477.299 450.712l2.934-1.695v3.39l-2.934 1.694zM477.299 460.882l2.934-1.695v3.39l-2.934 1.694zM477.299 471.047l2.934-1.695v3.39l-2.934 1.694zM477.299 481.216l2.934-1.695v3.39l-2.934 1.694zM477.299 491.386l2.934-1.695v3.39l-2.934 1.694zM477.299 501.551l2.934-1.695v3.39l-2.934 1.694zM477.299 511.72l2.934-1.695v3.39l-2.934 1.694zM477.299 521.889l2.934-1.695v3.39l-2.934 1.694zM486.099 160.932l2.934-1.695v3.39l-2.934 1.694zM486.099 171.101l2.934-1.695v3.39l-2.934 1.694zM486.099 181.266l2.934-1.695v3.39l-2.934 1.694zM486.099 191.436l2.934-1.695v3.39l-2.934 1.694zM486.099 201.601l2.934-1.695v3.39l-2.934 1.694zM486.099 211.77l2.934-1.695v3.39l-2.934 1.694zM486.099 221.939l2.934-1.695v3.39l-2.934 1.694zM486.099 232.104l2.934-1.695v3.39l-2.934 1.694zM486.099 242.274l2.934-1.695v3.39l-2.934 1.694zM486.099 252.439l2.934-1.695v3.39l-2.934 1.694zM486.099 262.608l2.934-1.695v3.39l-2.934 1.694zM486.099 272.778l2.934-1.695v3.39l-2.934 1.694zM486.099 282.943l2.934-1.695v3.39l-2.934 1.694zM486.099 293.112l2.934-1.695v3.39l-2.934 1.694zM486.099 303.282l2.934-1.695v3.39l-2.934 1.694zM486.099 313.447l2.934-1.695v3.39l-2.934 1.694zM486.099 323.616l2.934-1.695v3.39l-2.934 1.694zM486.099 333.781l2.934-1.695v3.39l-2.934 1.694zM486.099 343.951l2.934-1.695v3.39l-2.934 1.694zM486.099 354.12l2.934-1.695v3.39l-2.934 1.694zM486.099 364.29l2.934-1.695v3.39l-2.934 1.694zM486.099 374.455l2.934-1.695v3.39l-2.934 1.694zM486.099 384.624l2.934-1.695v3.39l-2.934 1.694zM486.099 394.789l2.934-1.695v3.39l-2.934 1.694zM486.099 404.958l2.934-1.695v3.39l-2.934 1.694zM486.099 415.124l2.934-1.695v3.39l-2.934 1.694zM486.099 425.293l2.934-1.695v3.39l-2.934 1.694zM486.099 435.462l2.934-1.695v3.39l-2.934 1.694zM486.099 445.632l2.934-1.695v3.39l-2.934 1.694zM486.099 455.797l2.934-1.695v3.39l-2.934 1.694zM486.099 465.966l2.934-1.695v3.39l-2.934 1.694zM486.099 476.131l2.934-1.695v3.39l-2.934 1.694zM486.099 486.301l2.934-1.695v3.39l-2.934 1.694zM486.099 496.466l2.934-1.695v3.39l-2.934 1.694zM486.099 506.635l2.934-1.695v3.39l-2.934 1.694zM486.099 516.805l2.934-1.695v3.39l-2.934 1.694zM494.894 166.017l2.934-1.695v3.39l-2.934 1.694zM494.894 176.182l2.934-1.695v3.39l-2.934 1.694zM494.894 186.351l2.934-1.695v3.39l-2.934 1.694zM494.894 196.521l2.934-1.695v3.39l-2.934 1.694zM494.894 206.686l2.934-1.695v3.39l-2.934 1.694zM494.894 216.855l2.934-1.695v3.39l-2.934 1.694zM494.894 227.024l2.934-1.695v3.39l-2.934 1.694zM494.894 237.189l2.934-1.695v3.39l-2.934 1.694zM494.894 247.359l2.934-1.695v3.39l-2.934 1.694zM494.894 257.524l2.934-1.695v3.39l-2.934 1.694zM494.894 267.693l2.934-1.695v3.39l-2.934 1.694zM494.894 277.858l2.934-1.695v3.39l-2.934 1.694zM494.894 288.028l2.934-1.695v3.39l-2.934 1.694zM494.894 298.197l2.934-1.695v3.39l-2.934 1.694zM494.894 308.362l2.934-1.695v3.39l-2.934 1.694zM494.894 318.532l2.934-1.695v3.39l-2.934 1.694zM494.894 328.701l2.934-1.695v3.39l-2.934 1.694zM494.894 338.866l2.934-1.695v3.39l-2.934 1.694zM494.894 349.036l2.934-1.695v3.39l-2.934 1.694zM494.894 359.205l2.934-1.695v3.39l-2.934 1.694zM494.894 369.37l2.934-1.695v3.39l-2.934 1.694zM494.894 379.54l2.934-1.695v3.39l-2.934 1.694zM494.894 389.709l2.934-1.695v3.39l-2.934 1.694zM494.894 399.874l2.934-1.695v3.39l-2.934 1.694zM494.894 410.043l2.934-1.695v3.39l-2.934 1.694zM494.894 420.208l2.934-1.695v3.39l-2.934 1.694zM494.894 430.378l2.934-1.695v3.39l-2.934 1.694zM494.894 440.547l2.934-1.695v3.39l-2.934 1.694zM494.894 450.712l2.934-1.695v3.39l-2.934 1.694zM494.894 460.882l2.934-1.695v3.39l-2.934 1.694zM494.894 471.047l2.934-1.695v3.39l-2.934 1.694zM494.894 481.216l2.934-1.695v3.39l-2.934 1.694zM494.894 491.386l2.934-1.695v3.39l-2.934 1.694zM494.894 501.551l2.934-1.695v3.39l-2.934 1.694zM494.894 511.72l2.934-1.695v3.39l-2.934 1.694zM503.697 160.932l2.934-1.695v3.39l-2.934 1.694zM503.697 171.101l2.934-1.695v3.39l-2.934 1.694zM503.697 181.266l2.934-1.695v3.39l-2.934 1.694zM503.697 191.436l2.934-1.695v3.39l-2.934 1.694zM503.697 201.601l2.934-1.695v3.39l-2.934 1.694zM503.697 211.77l2.934-1.695v3.39l-2.934 1.694zM503.697 221.939l2.934-1.695v3.39l-2.934 1.694zM503.697 232.104l2.934-1.695v3.39l-2.934 1.694zM503.697 242.274l2.934-1.695v3.39l-2.934 1.694zM503.697 252.439l2.934-1.695v3.39l-2.934 1.694zM503.697 262.608l2.934-1.695v3.39l-2.934 1.694zM503.697 272.778l2.934-1.695v3.39l-2.934 1.694zM503.697 282.943l2.934-1.695v3.39l-2.934 1.694zM503.697 293.112l2.934-1.695v3.39l-2.934 1.694zM503.697 303.282l2.934-1.695v3.39l-2.934 1.694zM503.697 313.447l2.934-1.695v3.39l-2.934 1.694zM503.697 323.616l2.934-1.695v3.39l-2.934 1.694zM503.697 333.781l2.934-1.695v3.39l-2.934 1.694zM503.697 343.951l2.934-1.695v3.39l-2.934 1.694zM503.697 354.12l2.934-1.695v3.39l-2.934 1.694zM503.697 364.29l2.934-1.695v3.39l-2.934 1.694zM503.697 374.455l2.934-1.695v3.39l-2.934 1.694zM503.697 384.624l2.934-1.695v3.39l-2.934 1.694zM503.697 394.789l2.934-1.695v3.39l-2.934 1.694zM503.697 404.958l2.934-1.695v3.39l-2.934 1.694zM503.697 415.124l2.934-1.695v3.39l-2.934 1.694zM503.697 425.293l2.934-1.695v3.39l-2.934 1.694zM503.697 435.462l2.934-1.695v3.39l-2.934 1.694zM503.697 445.632l2.934-1.695v3.39l-2.934 1.694zM503.697 455.797l2.934-1.695v3.39l-2.934 1.694zM503.697 465.966l2.934-1.695v3.39l-2.934 1.694zM503.697 476.131l2.934-1.695v3.39l-2.934 1.694zM503.697 486.301l2.934-1.695v3.39l-2.934 1.694zM503.697 496.466l2.934-1.695v3.39l-2.934 1.694zM503.697 506.635l2.934-1.695v3.39l-2.934 1.694zM512.496 166.017l2.934-1.695v3.39l-2.934 1.694zM512.496 176.182l2.934-1.695v3.39l-2.934 1.694zM512.496 186.351l2.934-1.695v3.39l-2.934 1.694zM512.496 196.521l2.934-1.695v3.39l-2.934 1.694zM512.496 206.686l2.934-1.695v3.39l-2.934 1.694zM512.496 216.855l2.934-1.695v3.39l-2.934 1.694zM512.496 227.024l2.934-1.695v3.39l-2.934 1.694zM512.496 237.189l2.934-1.695v3.39l-2.934 1.694zM512.496 247.359l2.934-1.695v3.39l-2.934 1.694zM512.496 257.524l2.934-1.695v3.39l-2.934 1.694zM512.496 267.693l2.934-1.695v3.39l-2.934 1.694zM512.496 277.858l2.934-1.695v3.39l-2.934 1.694zM512.496 288.028l2.934-1.695v3.39l-2.934 1.694zM512.496 298.197l2.934-1.695v3.39l-2.934 1.694zM512.496 308.362l2.934-1.695v3.39l-2.934 1.694zM512.496 318.532l2.934-1.695v3.39l-2.934 1.694zM512.496 328.701l2.934-1.695v3.39l-2.934 1.694zM512.496 338.866l2.934-1.695v3.39l-2.934 1.694zM512.496 349.036l2.934-1.695v3.39l-2.934 1.694zM512.496 359.205l2.934-1.695v3.39l-2.934 1.694zM512.496 369.37l2.934-1.695v3.39l-2.934 1.694zM512.496 379.54l2.934-1.695v3.39l-2.934 1.694zM512.496 389.709l2.934-1.695v3.39l-2.934 1.694zM512.496 399.874l2.934-1.695v3.39l-2.934 1.694zM512.496 410.043l2.934-1.695v3.39l-2.934 1.694zM512.496 420.208l2.934-1.695v3.39l-2.934 1.694zM512.496 430.378l2.934-1.695v3.39l-2.934 1.694zM512.496 440.547l2.934-1.695v3.39l-2.934 1.694zM512.496 450.712l2.934-1.695v3.39l-2.934 1.694zM512.496 460.882l2.934-1.695v3.39l-2.934 1.694zM512.496 471.047l2.934-1.695v3.39l-2.934 1.694zM512.496 481.216l2.934-1.695v3.39l-2.934 1.694zM512.496 491.386l2.934-1.695v3.39l-2.934 1.694zM512.496 501.551l2.934-1.695v3.39l-2.934 1.694zM521.295 160.932l2.934-1.695v3.39l-2.934 1.694zM521.295 171.101l2.934-1.695v3.39l-2.934 1.694zM521.295 181.266l2.934-1.695v3.39l-2.934 1.694zM521.295 191.436l2.934-1.695v3.39l-2.934 1.694zM521.295 201.601l2.934-1.695v3.39l-2.934 1.694zM521.295 211.77l2.934-1.695v3.39l-2.934 1.694zM521.295 221.939l2.934-1.695v3.39l-2.934 1.694zM521.295 232.104l2.934-1.695v3.39l-2.934 1.694zM521.295 242.274l2.934-1.695v3.39l-2.934 1.694zM521.295 252.439l2.934-1.695v3.39l-2.934 1.694zM521.295 262.608l2.934-1.695v3.39l-2.934 1.694zM521.295 272.778l2.934-1.695v3.39l-2.934 1.694zM521.295 282.943l2.934-1.695v3.39l-2.934 1.694zM521.295 293.112l2.934-1.695v3.39l-2.934 1.694zM521.295 303.282l2.934-1.695v3.39l-2.934 1.694zM521.295 313.447l2.934-1.695v3.39l-2.934 1.694zM521.295 323.616l2.934-1.695v3.39l-2.934 1.694zM521.295 333.781l2.934-1.695v3.39l-2.934 1.694zM521.295 343.951l2.934-1.695v3.39l-2.934 1.694zM521.295 354.12l2.934-1.695v3.39l-2.934 1.694zM521.295 364.29l2.934-1.695v3.39l-2.934 1.694zM521.295 374.455l2.934-1.695v3.39l-2.934 1.694zM521.295 384.624l2.934-1.695v3.39l-2.934 1.694zM521.295 394.789l2.934-1.695v3.39l-2.934 1.694zM521.295 404.958l2.934-1.695v3.39l-2.934 1.694zM521.295 415.124l2.934-1.695v3.39l-2.934 1.694zM521.295 425.293l2.934-1.695v3.39l-2.934 1.694zM521.295 435.462l2.934-1.695v3.39l-2.934 1.694zM521.295 445.632l2.934-1.695v3.39l-2.934 1.694zM521.295 455.797l2.934-1.695v3.39l-2.934 1.694zM521.295 465.966l2.934-1.695v3.39l-2.934 1.694zM521.295 476.131l2.934-1.695v3.39l-2.934 1.694zM521.295 486.301l2.934-1.695v3.39l-2.934 1.694zM521.295 496.47l2.934-1.695v3.39l-2.934 1.694zM530.095 166.017l2.934-1.695v3.39l-2.934 1.694zM530.095 176.182l2.934-1.695v3.39l-2.934 1.694zM530.095 186.351l2.934-1.695v3.39l-2.934 1.694zM530.095 196.521l2.934-1.695v3.39l-2.934 1.694zM530.095 206.686l2.934-1.695v3.39l-2.934 1.694zM530.095 216.855l2.934-1.695v3.39l-2.934 1.694zM530.095 227.024l2.934-1.695v3.39l-2.934 1.694zM530.095 237.189l2.934-1.695v3.39l-2.934 1.694zM530.095 247.359l2.934-1.695v3.39l-2.934 1.694zM530.095 257.524l2.934-1.695v3.39l-2.934 1.694zM530.095 267.693l2.934-1.695v3.39l-2.934 1.694zM530.095 277.858l2.934-1.695v3.39l-2.934 1.694zM530.095 288.028l2.934-1.695v3.39l-2.934 1.694zM530.095 298.197l2.934-1.695v3.39l-2.934 1.694zM530.095 308.362l2.934-1.695v3.39l-2.934 1.694zM530.095 318.532l2.934-1.695v3.39l-2.934 1.694zM530.095 328.701l2.934-1.695v3.39l-2.934 1.694zM530.095 338.866l2.934-1.695v3.39l-2.934 1.694zM530.095 349.036l2.934-1.695v3.39l-2.934 1.694zM530.095 359.205l2.934-1.695v3.39l-2.934 1.694zM530.095 369.37l2.934-1.695v3.39l-2.934 1.694zM530.095 379.54l2.934-1.695v3.39l-2.934 1.694zM530.095 389.709l2.934-1.695v3.39l-2.934 1.694zM530.095 399.874l2.934-1.695v3.39l-2.934 1.694zM530.095 410.043l2.934-1.695v3.39l-2.934 1.694zM530.095 420.208l2.934-1.695v3.39l-2.934 1.694zM530.095 430.378l2.934-1.695v3.39l-2.934 1.694zM530.095 440.547l2.934-1.695v3.39l-2.934 1.694zM530.095 450.712l2.934-1.695v3.39l-2.934 1.694zM530.095 460.882l2.934-1.695v3.39l-2.934 1.694zM530.095 471.047l2.934-1.695v3.39l-2.934 1.694zM530.095 481.216l2.934-1.695v3.39l-2.934 1.694zM530.095 491.386l2.934-1.695v3.39l-2.934 1.694zM538.894 160.932l2.934-1.695v3.39l-2.934 1.694zM538.894 171.101l2.934-1.695v3.39l-2.934 1.694zM538.894 181.266l2.934-1.695v3.39l-2.934 1.694zM538.894 191.436l2.934-1.695v3.39l-2.934 1.694zM538.894 201.601l2.934-1.695v3.39l-2.934 1.694zM538.894 211.77l2.934-1.695v3.39l-2.934 1.694zM538.894 221.939l2.934-1.695v3.39l-2.934 1.694zM538.894 232.104l2.934-1.695v3.39l-2.934 1.694zM538.894 242.274l2.934-1.695v3.39l-2.934 1.694zM538.894 252.439l2.934-1.695v3.39l-2.934 1.694zM538.894 262.608l2.934-1.695v3.39l-2.934 1.694zM538.894 272.778l2.934-1.695v3.39l-2.934 1.694zM538.894 282.943l2.934-1.695v3.39l-2.934 1.694zM538.894 293.112l2.934-1.695v3.39l-2.934 1.694zM538.894 303.282l2.934-1.695v3.39l-2.934 1.694zM538.894 313.447l2.934-1.695v3.39l-2.934 1.694zM538.894 323.616l2.934-1.695v3.39l-2.934 1.694zM538.894 333.781l2.934-1.695v3.39l-2.934 1.694zM538.894 343.951l2.934-1.695v3.39l-2.934 1.694zM538.894 354.12l2.934-1.695v3.39l-2.934 1.694zM538.894 364.29l2.934-1.695v3.39l-2.934 1.694zM538.894 374.455l2.934-1.695v3.39l-2.934 1.694zM538.894 384.624l2.934-1.695v3.39l-2.934 1.694zM538.894 394.789l2.934-1.695v3.39l-2.934 1.694zM538.894 404.958l2.934-1.695v3.39l-2.934 1.694zM538.894 415.124l2.934-1.695v3.39l-2.934 1.694zM538.894 425.293l2.934-1.695v3.39l-2.934 1.694zM538.894 435.462l2.934-1.695v3.39l-2.934 1.694zM538.894 445.632l2.934-1.695v3.39l-2.934 1.694zM538.894 455.797l2.934-1.695v3.39l-2.934 1.694zM538.894 465.966l2.934-1.695v3.39l-2.934 1.694zM538.894 476.131l2.934-1.695v3.39l-2.934 1.694zM538.894 486.301l2.934-1.695v3.39l-2.934 1.694zM547.698 166.017l2.934-1.695v3.39l-2.934 1.694zM547.698 176.182l2.934-1.695v3.39l-2.934 1.694zM547.698 186.351l2.934-1.695v3.39l-2.934 1.694zM547.698 196.521l2.934-1.695v3.39l-2.934 1.694zM547.698 206.686l2.934-1.695v3.39l-2.934 1.694zM547.698 216.855l2.934-1.695v3.39l-2.934 1.694zM547.698 227.024l2.934-1.695v3.39l-2.934 1.694zM547.698 237.189l2.934-1.695v3.39l-2.934 1.694zM547.698 247.359l2.934-1.695v3.39l-2.934 1.694zM547.698 257.524l2.934-1.695v3.39l-2.934 1.694zM547.698 267.693l2.934-1.695v3.39l-2.934 1.694zM547.698 277.858l2.934-1.695v3.39l-2.934 1.694zM547.698 288.028l2.934-1.695v3.39l-2.934 1.694zM547.698 298.197l2.934-1.695v3.39l-2.934 1.694zM547.698 308.362l2.934-1.695v3.39l-2.934 1.694zM547.698 318.532l2.934-1.695v3.39l-2.934 1.694zM547.698 328.701l2.934-1.695v3.39l-2.934 1.694zM547.698 338.866l2.934-1.695v3.39l-2.934 1.694zM547.698 349.036l2.934-1.695v3.39l-2.934 1.694zM547.698 359.205l2.934-1.695v3.39l-2.934 1.694zM547.698 369.37l2.934-1.695v3.39l-2.934 1.694zM547.698 379.54l2.934-1.695v3.39l-2.934 1.694zM547.698 389.709l2.934-1.695v3.39l-2.934 1.694zM547.698 399.874l2.934-1.695v3.39l-2.934 1.694zM547.698 410.043l2.934-1.695v3.39l-2.934 1.694zM547.698 420.208l2.934-1.695v3.39l-2.934 1.694zM547.698 430.378l2.934-1.695v3.39l-2.934 1.694zM547.698 440.547l2.934-1.695v3.39l-2.934 1.694zM547.698 450.712l2.934-1.695v3.39l-2.934 1.694zM547.698 460.882l2.934-1.695v3.39l-2.934 1.694zM547.698 471.047l2.934-1.695v3.39l-2.934 1.694zM547.698 481.216l2.934-1.695v3.39l-2.934 1.694zM556.501 160.932l2.934-1.695v3.39l-2.934 1.694zM556.501 171.101l2.934-1.695v3.39l-2.934 1.694zM556.501 181.266l2.934-1.695v3.39l-2.934 1.694zM556.501 191.436l2.934-1.695v3.39l-2.934 1.694zM556.501 201.601l2.934-1.695v3.39l-2.934 1.694zM556.501 211.77l2.934-1.695v3.39l-2.934 1.694zM556.501 221.939l2.934-1.695v3.39l-2.934 1.694zM556.501 232.104l2.934-1.695v3.39l-2.934 1.694zM556.501 242.274l2.934-1.695v3.39l-2.934 1.694zM556.501 252.439l2.934-1.695v3.39l-2.934 1.694zM556.501 262.608l2.934-1.695v3.39l-2.934 1.694zM556.501 272.778l2.934-1.695v3.39l-2.934 1.694zM556.501 282.943l2.934-1.695v3.39l-2.934 1.694zM556.501 293.112l2.934-1.695v3.39L556.5 296.5zM556.501 303.282l2.934-1.695v3.39l-2.934 1.694zM556.501 313.447l2.934-1.695v3.39l-2.934 1.694zM556.501 323.616l2.934-1.695v3.39l-2.934 1.694zM556.501 333.781l2.934-1.695v3.39l-2.934 1.694zM556.501 343.951l2.934-1.695v3.39l-2.934 1.694zM556.501 354.12l2.934-1.695v3.39l-2.934 1.694zM556.501 364.29l2.934-1.695v3.39l-2.934 1.694zM556.501 374.455l2.934-1.695v3.39l-2.934 1.694zM556.501 384.624l2.934-1.695v3.39l-2.934 1.694zM556.501 394.789l2.934-1.695v3.39l-2.934 1.694zM556.501 404.958l2.934-1.695v3.39l-2.934 1.694zM556.501 415.124l2.934-1.695v3.39l-2.934 1.694zM556.501 425.293l2.934-1.695v3.39l-2.934 1.694zM556.501 435.462l2.934-1.695v3.39l-2.934 1.694zM556.501 445.632l2.934-1.695v3.39l-2.934 1.694zM556.501 455.797l2.934-1.695v3.39l-2.934 1.694zM556.501 465.966l2.934-1.695v3.39l-2.934 1.694zM556.501 476.131l2.934-1.695v3.39l-2.934 1.694z"/></g><mask id="b" width="224" height="391" x="333" y="162" maskUnits="userSpaceOnUse" style="mask-type:alpha"><path fill="#79EFBD" d="M556.762 198.838v208.599a28.454 28.454 0 0 1-16 25.716L333.749 552.851c8.21-4.828 14.644-14.088 16-25.867v-208.6a57.37 57.37 0 0 0-9.701-31.917l203.981-123.641a57.257 57.257 0 0 1 12.733 36.012Z"/></mask><g fill="#0D0B33" mask="url(#b)"><path d="m336.486 216.855 2.934-1.695v3.39l-2.934 1.694zM336.486 227.024l2.934-1.695v3.39l-2.934 1.694zM336.486 237.189l2.934-1.695v3.39l-2.934 1.694zM336.486 247.359l2.934-1.695v3.39l-2.934 1.694zM336.486 257.524l2.934-1.695v3.39l-2.934 1.694zM336.486 267.693l2.934-1.695v3.39l-2.934 1.694zM336.486 277.858l2.934-1.695v3.39l-2.934 1.694zM336.486 288.028l2.934-1.695v3.39l-2.934 1.694zM336.486 298.197l2.934-1.695v3.39l-2.934 1.694zM336.486 308.362l2.934-1.695v3.39l-2.934 1.694zM336.486 318.532l2.934-1.695v3.39l-2.934 1.694zM336.486 328.701l2.934-1.695v3.39l-2.934 1.694zM336.486 338.866l2.934-1.695v3.39l-2.934 1.694zM336.486 349.036l2.934-1.695v3.39l-2.934 1.694zM336.486 359.205l2.934-1.695v3.39l-2.934 1.694zM336.486 369.37l2.934-1.695v3.39l-2.934 1.694zM336.486 379.54l2.934-1.695v3.39l-2.934 1.694zM336.486 389.709l2.934-1.695v3.39l-2.934 1.694zM336.486 399.874l2.934-1.695v3.39l-2.934 1.694zM336.486 410.043l2.934-1.695v3.39l-2.934 1.694zM336.486 420.208l2.934-1.695v3.39l-2.934 1.694zM336.486 430.378l2.934-1.695v3.39l-2.934 1.694zM336.486 440.547l2.934-1.695v3.39l-2.934 1.694zM336.486 450.712l2.934-1.695v3.39l-2.934 1.694zM336.486 460.882l2.934-1.695v3.39l-2.934 1.694zM336.486 471.047l2.934-1.695v3.39l-2.934 1.694zM336.486 481.216l2.934-1.695v3.39l-2.934 1.694zM336.486 491.386l2.934-1.695v3.39l-2.934 1.694zM336.486 501.551l2.934-1.695v3.39l-2.934 1.694zM336.486 511.72l2.934-1.695v3.39l-2.934 1.694zM336.486 521.889l2.934-1.695v3.39l-2.934 1.694zM336.486 532.055l2.934-1.695v3.39l-2.934 1.694zM336.486 542.224l2.934-1.695v3.39l-2.934 1.694zM336.486 552.389l2.934-1.695v3.39l-2.934 1.694zM345.293 211.77l2.934-1.695v3.39l-2.934 1.694zM345.293 221.939l2.934-1.695v3.39l-2.934 1.694zM345.293 232.104l2.934-1.695v3.39l-2.934 1.694zM345.293 242.274l2.934-1.695v3.39l-2.934 1.694zM345.293 252.439l2.934-1.695v3.39l-2.934 1.694zM345.293 262.608l2.934-1.695v3.39l-2.934 1.694zM345.293 272.778l2.934-1.695v3.39l-2.934 1.694zM345.293 282.943l2.934-1.695v3.39l-2.934 1.694zM345.293 293.112l2.934-1.695v3.39l-2.934 1.694zM345.293 303.282l2.934-1.695v3.39l-2.934 1.694zM345.293 313.447l2.934-1.695v3.39l-2.934 1.694zM345.293 323.616l2.934-1.695v3.39l-2.934 1.694zM345.293 333.781l2.934-1.695v3.39l-2.934 1.694zM345.293 343.951l2.934-1.695v3.39l-2.934 1.694zM345.293 354.12l2.934-1.695v3.39l-2.934 1.694zM345.293 364.29l2.934-1.695v3.39l-2.934 1.694zM345.293 374.455l2.934-1.695v3.39l-2.934 1.694zM345.293 384.624l2.934-1.695v3.39l-2.934 1.694zM345.293 394.789l2.934-1.695v3.39l-2.934 1.694zM345.293 404.958l2.934-1.695v3.39l-2.934 1.694zM345.293 415.124l2.934-1.695v3.39l-2.934 1.694zM345.293 425.293l2.934-1.695v3.39l-2.934 1.694zM345.293 435.462l2.934-1.695v3.39l-2.934 1.694zM345.293 445.632l2.934-1.695v3.39l-2.934 1.694zM345.293 455.797l2.934-1.695v3.39l-2.934 1.694zM345.293 465.966l2.934-1.695v3.39l-2.934 1.694zM345.293 476.131l2.934-1.695v3.39l-2.934 1.694zM345.293 486.301l2.934-1.695v3.39l-2.934 1.694zM345.293 496.466l2.934-1.695v3.39l-2.934 1.694zM345.293 506.635l2.934-1.695v3.39l-2.934 1.694zM345.293 516.805l2.934-1.695v3.39l-2.934 1.694zM345.293 526.97l2.934-1.695v3.39l-2.934 1.694zM345.293 537.139l2.934-1.695v3.39l-2.934 1.694zM345.293 547.309l2.934-1.695v3.39l-2.934 1.694zM354.084 206.686l2.934-1.695v3.39l-2.934 1.694zM354.084 216.855l2.934-1.695v3.39l-2.934 1.694zM354.084 227.024l2.934-1.695v3.39l-2.934 1.694zM354.084 237.189l2.934-1.695v3.39l-2.934 1.694zM354.084 247.359l2.934-1.695v3.39l-2.934 1.694zM354.084 257.524l2.934-1.695v3.39l-2.934 1.694zM354.084 267.693l2.934-1.695v3.39l-2.934 1.694zM354.084 277.858l2.934-1.695v3.39l-2.934 1.694zM354.084 288.028l2.934-1.695v3.39l-2.934 1.694zM354.084 298.197l2.934-1.695v3.39l-2.934 1.694zM354.084 308.362l2.934-1.695v3.39l-2.934 1.694zM354.084 318.532l2.934-1.695v3.39l-2.934 1.694zM354.084 328.701l2.934-1.695v3.39l-2.934 1.694zM354.084 338.866l2.934-1.695v3.39l-2.934 1.694zM354.084 349.036l2.934-1.695v3.39l-2.934 1.694zM354.084 359.205l2.934-1.695v3.39l-2.934 1.694zM354.084 369.37l2.934-1.695v3.39l-2.934 1.694zM354.084 379.54l2.934-1.695v3.39l-2.934 1.694zM354.084 389.709l2.934-1.695v3.39l-2.934 1.694zM354.084 399.874l2.934-1.695v3.39l-2.934 1.694zM354.084 410.043l2.934-1.695v3.39l-2.934 1.694zM354.084 420.208l2.934-1.695v3.39l-2.934 1.694zM354.084 430.378l2.934-1.695v3.39l-2.934 1.694zM354.084 440.547l2.934-1.695v3.39l-2.934 1.694zM354.084 450.712l2.934-1.695v3.39l-2.934 1.694zM354.084 460.882l2.934-1.695v3.39l-2.934 1.694zM354.084 471.047l2.934-1.695v3.39l-2.934 1.694zM354.084 481.216l2.934-1.695v3.39l-2.934 1.694zM354.084 491.386l2.934-1.695v3.39l-2.934 1.694zM354.084 501.551l2.934-1.695v3.39l-2.934 1.694zM354.084 511.72l2.934-1.695v3.39l-2.934 1.694zM354.084 521.889l2.934-1.695v3.39l-2.934 1.694zM354.084 532.055l2.934-1.695v3.39l-2.934 1.694zM354.084 542.224l2.934-1.695v3.39l-2.934 1.694zM354.084 552.389l2.934-1.695v3.39l-2.934 1.694zM362.884 201.601l2.934-1.695v3.39l-2.934 1.694zM362.884 211.77l2.934-1.695v3.39l-2.934 1.694zM362.884 221.939l2.934-1.695v3.39l-2.934 1.694zM362.884 232.104l2.934-1.695v3.39l-2.934 1.694zM362.884 242.274l2.934-1.695v3.39l-2.934 1.694zM362.884 252.439l2.934-1.695v3.39l-2.934 1.694zM362.884 262.608l2.934-1.695v3.39l-2.934 1.694zM362.884 272.778l2.934-1.695v3.39l-2.934 1.694zM362.884 282.943l2.934-1.695v3.39l-2.934 1.694zM362.884 293.112l2.934-1.695v3.39l-2.934 1.694zM362.884 303.282l2.934-1.695v3.39l-2.934 1.694zM362.884 313.447l2.934-1.695v3.39l-2.934 1.694zM362.884 323.616l2.934-1.695v3.39l-2.934 1.694zM362.884 333.781l2.934-1.695v3.39l-2.934 1.694zM362.884 343.951l2.934-1.695v3.39l-2.934 1.694zM362.884 354.12l2.934-1.695v3.39l-2.934 1.694zM362.884 364.29l2.934-1.695v3.39l-2.934 1.694zM362.884 374.455l2.934-1.695v3.39l-2.934 1.694zM362.884 384.624l2.934-1.695v3.39l-2.934 1.694zM362.884 394.789l2.934-1.695v3.39l-2.934 1.694zM362.884 404.958l2.934-1.695v3.39l-2.934 1.694zM362.884 415.124l2.934-1.695v3.39l-2.934 1.694zM362.884 425.293l2.934-1.695v3.39l-2.934 1.694zM362.884 435.462l2.934-1.695v3.39l-2.934 1.694zM362.884 445.632l2.934-1.695v3.39l-2.934 1.694zM362.884 455.797l2.934-1.695v3.39l-2.934 1.694zM362.884 465.966l2.934-1.695v3.39l-2.934 1.694zM362.884 476.131l2.934-1.695v3.39l-2.934 1.694zM362.884 486.301l2.934-1.695v3.39l-2.934 1.694zM362.884 496.47l2.934-1.695v3.39l-2.934 1.694zM362.884 506.635l2.934-1.695v3.39l-2.934 1.694zM362.884 516.805l2.934-1.695v3.39l-2.934 1.694zM362.884 526.97l2.934-1.695v3.39l-2.934 1.694zM362.884 537.139l2.934-1.695v3.39l-2.934 1.694zM362.884 547.309l2.934-1.695v3.39l-2.934 1.694zM371.687 196.521l2.934-1.695v3.39l-2.934 1.694zM371.687 206.686l2.934-1.695v3.39l-2.934 1.694zM371.687 216.855l2.934-1.695v3.39l-2.934 1.694zM371.687 227.024l2.934-1.695v3.39l-2.934 1.694zM371.687 237.189l2.934-1.695v3.39l-2.934 1.694zM371.687 247.359l2.934-1.695v3.39l-2.934 1.694zM371.687 257.524l2.934-1.695v3.39l-2.934 1.694zM371.687 267.693l2.934-1.695v3.39l-2.934 1.694zM371.687 277.858l2.934-1.695v3.39l-2.934 1.694zM371.687 288.028l2.934-1.695v3.39l-2.934 1.694zM371.687 298.197l2.934-1.695v3.39l-2.934 1.694zM371.687 308.362l2.934-1.695v3.39l-2.934 1.694zM371.687 318.532l2.934-1.695v3.39l-2.934 1.694zM371.687 328.701l2.934-1.695v3.39l-2.934 1.694zM371.687 338.866l2.934-1.695v3.39l-2.934 1.694zM371.687 349.036l2.934-1.695v3.39l-2.934 1.694zM371.687 359.205l2.934-1.695v3.39l-2.934 1.694zM371.687 369.37l2.934-1.695v3.39l-2.934 1.694zM371.687 379.54l2.934-1.695v3.39l-2.934 1.694zM371.687 389.709l2.934-1.695v3.39l-2.934 1.694zM371.687 399.874l2.934-1.695v3.39l-2.934 1.694zM371.687 410.043l2.934-1.695v3.39l-2.934 1.694zM371.687 420.208l2.934-1.695v3.39l-2.934 1.694zM371.687 430.378l2.934-1.695v3.39l-2.934 1.694zM371.687 440.547l2.934-1.695v3.39l-2.934 1.694zM371.687 450.712l2.934-1.695v3.39l-2.934 1.694zM371.687 460.882l2.934-1.695v3.39l-2.934 1.694zM371.687 471.047l2.934-1.695v3.39l-2.934 1.694zM371.687 481.216l2.934-1.695v3.39l-2.934 1.694zM371.687 491.386l2.934-1.695v3.39l-2.934 1.694zM371.687 501.551l2.934-1.695v3.39l-2.934 1.694zM371.687 511.72l2.934-1.695v3.39l-2.934 1.694zM371.687 521.889l2.934-1.695v3.39l-2.934 1.694zM371.687 532.055l2.934-1.695v3.39l-2.934 1.694zM371.687 542.224l2.934-1.695v3.39l-2.934 1.694zM371.687 552.389l2.934-1.695v3.39l-2.934 1.694zM380.491 191.436l2.934-1.695v3.39l-2.934 1.694zM380.491 201.601l2.934-1.695v3.39l-2.934 1.694zM380.491 211.77l2.934-1.695v3.39l-2.934 1.694zM380.491 221.939l2.934-1.695v3.39l-2.934 1.694zM380.491 232.104l2.934-1.695v3.39l-2.934 1.694zM380.491 242.274l2.934-1.695v3.39l-2.934 1.694zM380.491 252.439l2.934-1.695v3.39l-2.934 1.694zM380.491 262.608l2.934-1.695v3.39l-2.934 1.694zM380.491 272.778l2.934-1.695v3.39l-2.934 1.694zM380.491 282.943l2.934-1.695v3.39l-2.934 1.694zM380.491 293.112l2.934-1.695v3.39l-2.934 1.694zM380.491 303.282l2.934-1.695v3.39l-2.934 1.694zM380.491 313.447l2.934-1.695v3.39l-2.934 1.694zM380.491 323.616l2.934-1.695v3.39l-2.934 1.694zM380.491 333.781l2.934-1.695v3.39l-2.934 1.694zM380.491 343.951l2.934-1.695v3.39l-2.934 1.694zM380.491 354.12l2.934-1.695v3.39l-2.934 1.694zM380.491 364.29l2.934-1.695v3.39l-2.934 1.694zM380.491 374.455l2.934-1.695v3.39l-2.934 1.694zM380.491 384.624l2.934-1.695v3.39l-2.934 1.694zM380.491 394.789l2.934-1.695v3.39l-2.934 1.694zM380.491 404.958l2.934-1.695v3.39l-2.934 1.694zM380.491 415.124l2.934-1.695v3.39l-2.934 1.694zM380.491 425.293l2.934-1.695v3.39l-2.934 1.694zM380.491 435.462l2.934-1.695v3.39l-2.934 1.694zM380.491 445.632l2.934-1.695v3.39l-2.934 1.694zM380.491 455.797l2.934-1.695v3.39l-2.934 1.694zM380.491 465.966l2.934-1.695v3.39l-2.934 1.694zM380.491 476.131l2.934-1.695v3.39l-2.934 1.694zM380.491 486.301l2.934-1.695v3.39l-2.934 1.694zM380.491 496.466l2.934-1.695v3.39l-2.934 1.694zM380.491 506.635l2.934-1.695v3.39l-2.934 1.694zM380.491 516.805l2.934-1.695v3.39l-2.934 1.694zM380.491 526.97l2.934-1.695v3.39l-2.934 1.694zM380.491 537.139l2.934-1.695v3.39l-2.934 1.694zM380.491 547.309l2.934-1.695v3.39l-2.934 1.694zM389.286 186.351l2.934-1.695v3.39l-2.934 1.694zM389.286 196.521l2.934-1.695v3.39l-2.934 1.694zM389.286 206.686l2.934-1.695v3.39l-2.934 1.694zM389.286 216.855l2.934-1.695v3.39l-2.934 1.694zM389.286 227.024l2.934-1.695v3.39l-2.934 1.694zM389.286 237.189l2.934-1.695v3.39l-2.934 1.694zM389.286 247.359l2.934-1.695v3.39l-2.934 1.694zM389.286 257.524l2.934-1.695v3.39l-2.934 1.694zM389.286 267.693l2.934-1.695v3.39l-2.934 1.694zM389.286 277.858l2.934-1.695v3.39l-2.934 1.694zM389.286 288.028l2.934-1.695v3.39l-2.934 1.694zM389.286 298.197l2.934-1.695v3.39l-2.934 1.694zM389.286 308.362l2.934-1.695v3.39l-2.934 1.694zM389.286 318.532l2.934-1.695v3.39l-2.934 1.694zM389.286 328.701l2.934-1.695v3.39l-2.934 1.694zM389.286 338.866l2.934-1.695v3.39l-2.934 1.694zM389.286 349.036l2.934-1.695v3.39l-2.934 1.694zM389.286 359.205l2.934-1.695v3.39l-2.934 1.694zM389.286 369.37l2.934-1.695v3.39l-2.934 1.694zM389.286 379.54l2.934-1.695v3.39l-2.934 1.694zM389.286 389.709l2.934-1.695v3.39l-2.934 1.694zM389.286 399.874l2.934-1.695v3.39l-2.934 1.694zM389.286 410.043l2.934-1.695v3.39l-2.934 1.694zM389.286 420.208l2.934-1.695v3.39l-2.934 1.694zM389.286 430.378l2.934-1.695v3.39l-2.934 1.694zM389.286 440.547l2.934-1.695v3.39l-2.934 1.694zM389.286 450.712l2.934-1.695v3.39l-2.934 1.694zM389.286 460.882l2.934-1.695v3.39l-2.934 1.694zM389.286 471.047l2.934-1.695v3.39l-2.934 1.694zM389.286 481.216l2.934-1.695v3.39l-2.934 1.694zM389.286 491.386l2.934-1.695v3.39l-2.934 1.694zM389.286 501.551l2.934-1.695v3.39l-2.934 1.694zM389.286 511.72l2.934-1.695v3.39l-2.934 1.694zM389.286 521.889l2.934-1.695v3.39l-2.934 1.694zM389.286 532.055l2.934-1.695v3.39l-2.934 1.694zM389.286 542.224l2.934-1.695v3.39l-2.934 1.694zM389.286 552.389l2.934-1.695v3.39l-2.934 1.694zM398.089 181.266l2.934-1.695v3.39l-2.934 1.694zM398.089 191.436l2.934-1.695v3.39l-2.934 1.694zM398.089 201.601l2.934-1.695v3.39l-2.934 1.694zM398.089 211.77l2.934-1.695v3.39l-2.934 1.694zM398.089 221.939l2.934-1.695v3.39l-2.934 1.694zM398.089 232.104l2.934-1.695v3.39l-2.934 1.694zM398.089 242.274l2.934-1.695v3.39l-2.934 1.694zM398.089 252.439l2.934-1.695v3.39l-2.934 1.694zM398.089 262.608l2.934-1.695v3.39l-2.934 1.694zM398.089 272.778l2.934-1.695v3.39l-2.934 1.694zM398.089 282.943l2.934-1.695v3.39l-2.934 1.694zM398.089 293.112l2.934-1.695v3.39l-2.934 1.694zM398.089 303.282l2.934-1.695v3.39l-2.934 1.694zM398.089 313.447l2.934-1.695v3.39l-2.934 1.694zM398.089 323.616l2.934-1.695v3.39l-2.934 1.694zM398.089 333.781l2.934-1.695v3.39l-2.934 1.694zM398.089 343.951l2.934-1.695v3.39l-2.934 1.694zM398.089 354.12l2.934-1.695v3.39l-2.934 1.694zM398.089 364.29l2.934-1.695v3.39l-2.934 1.694zM398.089 374.455l2.934-1.695v3.39l-2.934 1.694zM398.089 384.624l2.934-1.695v3.39l-2.934 1.694zM398.089 394.789l2.934-1.695v3.39l-2.934 1.694zM398.089 404.958l2.934-1.695v3.39l-2.934 1.694zM398.089 415.124l2.934-1.695v3.39l-2.934 1.694zM398.089 425.293l2.934-1.695v3.39l-2.934 1.694zM398.089 435.462l2.934-1.695v3.39l-2.934 1.694zM398.089 445.632l2.934-1.695v3.39l-2.934 1.694zM398.089 455.797l2.934-1.695v3.39l-2.934 1.694zM398.089 465.966l2.934-1.695v3.39l-2.934 1.694zM398.089 476.131l2.934-1.695v3.39l-2.934 1.694zM398.089 486.301l2.934-1.695v3.39l-2.934 1.694zM398.089 496.466l2.934-1.695v3.39l-2.934 1.694zM398.089 506.635l2.934-1.695v3.39l-2.934 1.694zM398.089 516.805l2.934-1.695v3.39l-2.934 1.694zM398.089 526.97l2.934-1.695v3.39l-2.934 1.694zM398.089 537.139l2.934-1.695v3.39l-2.934 1.694zM398.089 547.309l2.934-1.695v3.39l-2.934 1.694zM406.888 176.182l2.934-1.695v3.39l-2.934 1.694zM406.888 186.351l2.934-1.695v3.39l-2.934 1.694zM406.888 196.521l2.934-1.695v3.39l-2.934 1.694zM406.888 206.686l2.934-1.695v3.39l-2.934 1.694zM406.888 216.855l2.934-1.695v3.39l-2.934 1.694zM406.888 227.024l2.934-1.695v3.39l-2.934 1.694zM406.888 237.189l2.934-1.695v3.39l-2.934 1.694zM406.888 247.359l2.934-1.695v3.39l-2.934 1.694zM406.888 257.524l2.934-1.695v3.39l-2.934 1.694zM406.888 267.693l2.934-1.695v3.39l-2.934 1.694zM406.888 277.858l2.934-1.695v3.39l-2.934 1.694zM406.888 288.028l2.934-1.695v3.39l-2.934 1.694zM406.888 298.197l2.934-1.695v3.39l-2.934 1.694zM406.888 308.362l2.934-1.695v3.39l-2.934 1.694zM406.888 318.532l2.934-1.695v3.39l-2.934 1.694zM406.888 328.701l2.934-1.695v3.39l-2.934 1.694zM406.888 338.866l2.934-1.695v3.39l-2.934 1.694zM406.888 349.036l2.934-1.695v3.39l-2.934 1.694zM406.888 359.205l2.934-1.695v3.39l-2.934 1.694zM406.888 369.37l2.934-1.695v3.39l-2.934 1.694zM406.888 379.54l2.934-1.695v3.39l-2.934 1.694zM406.888 389.709l2.934-1.695v3.39l-2.934 1.694zM406.888 399.874l2.934-1.695v3.39l-2.934 1.694zM406.888 410.043l2.934-1.695v3.39l-2.934 1.694zM406.888 420.208l2.934-1.695v3.39l-2.934 1.694zM406.888 430.378l2.934-1.695v3.39l-2.934 1.694zM406.888 440.547l2.934-1.695v3.39l-2.934 1.694zM406.888 450.712l2.934-1.695v3.39l-2.934 1.694zM406.888 460.882l2.934-1.695v3.39l-2.934 1.694zM406.888 471.047l2.934-1.695v3.39l-2.934 1.694zM406.888 481.216l2.934-1.695v3.39l-2.934 1.694zM406.888 491.386l2.934-1.695v3.39l-2.934 1.694zM406.888 501.551l2.934-1.695v3.39l-2.934 1.694zM406.888 511.72l2.934-1.695v3.39l-2.934 1.694zM406.888 521.889l2.934-1.695v3.39l-2.934 1.694zM406.888 532.055l2.934-1.695v3.39l-2.934 1.694zM406.888 542.224l2.934-1.695v3.39l-2.934 1.694zM406.888 552.389l2.934-1.695v3.39l-2.934 1.694zM415.692 171.101l2.934-1.695v3.39l-2.934 1.694zM415.692 181.266l2.934-1.695v3.39l-2.934 1.694zM415.692 191.436l2.934-1.695v3.39l-2.934 1.694zM415.692 201.601l2.934-1.695v3.39l-2.934 1.694zM415.692 211.77l2.934-1.695v3.39l-2.934 1.694zM415.692 221.939l2.934-1.695v3.39l-2.934 1.694zM415.692 232.104l2.934-1.695v3.39l-2.934 1.694zM415.692 242.274l2.934-1.695v3.39l-2.934 1.694zM415.692 252.439l2.934-1.695v3.39l-2.934 1.694zM415.692 262.608l2.934-1.695v3.39l-2.934 1.694zM415.692 272.778l2.934-1.695v3.39l-2.934 1.694zM415.692 282.943l2.934-1.695v3.39l-2.934 1.694zM415.692 293.112l2.934-1.695v3.39l-2.934 1.694zM415.692 303.282l2.934-1.695v3.39l-2.934 1.694zM415.692 313.447l2.934-1.695v3.39l-2.934 1.694zM415.692 323.616l2.934-1.695v3.39l-2.934 1.694zM415.692 333.781l2.934-1.695v3.39l-2.934 1.694zM415.692 343.951l2.934-1.695v3.39l-2.934 1.694zM415.692 354.12l2.934-1.695v3.39l-2.934 1.694zM415.692 364.29l2.934-1.695v3.39l-2.934 1.694zM415.692 374.455l2.934-1.695v3.39l-2.934 1.694zM415.692 384.624l2.934-1.695v3.39l-2.934 1.694zM415.692 394.789l2.934-1.695v3.39l-2.934 1.694zM415.692 404.958l2.934-1.695v3.39l-2.934 1.694zM415.692 415.124l2.934-1.695v3.39l-2.934 1.694zM415.692 425.293l2.934-1.695v3.39l-2.934 1.694zM415.692 435.462l2.934-1.695v3.39l-2.934 1.694zM415.692 445.632l2.934-1.695v3.39l-2.934 1.694zM415.692 455.797l2.934-1.695v3.39l-2.934 1.694zM415.692 465.966l2.934-1.695v3.39l-2.934 1.694zM415.692 476.131l2.934-1.695v3.39l-2.934 1.694zM415.692 486.301l2.934-1.695v3.39l-2.934 1.694zM415.692 496.47l2.934-1.695v3.39l-2.934 1.694zM415.692 506.635l2.934-1.695v3.39l-2.934 1.694zM415.692 516.805l2.934-1.695v3.39l-2.934 1.694zM415.692 526.97l2.934-1.695v3.39l-2.934 1.694zM415.692 537.139l2.934-1.695v3.39l-2.934 1.694zM415.692 547.309l2.934-1.695v3.39l-2.934 1.694zM424.495 166.017l2.934-1.695v3.39l-2.934 1.694zM424.495 176.182l2.934-1.695v3.39l-2.934 1.694zM424.495 186.351l2.934-1.695v3.39l-2.934 1.694zM424.495 196.521l2.934-1.695v3.39l-2.934 1.694zM424.495 206.686l2.934-1.695v3.39l-2.934 1.694zM424.495 216.855l2.934-1.695v3.39l-2.934 1.694zM424.495 227.024l2.934-1.695v3.39l-2.934 1.694zM424.495 237.189l2.934-1.695v3.39l-2.934 1.694zM424.495 247.359l2.934-1.695v3.39l-2.934 1.694zM424.495 257.524l2.934-1.695v3.39l-2.934 1.694zM424.495 267.693l2.934-1.695v3.39l-2.934 1.694zM424.495 277.858l2.934-1.695v3.39l-2.934 1.694zM424.495 288.028l2.934-1.695v3.39l-2.934 1.694zM424.495 298.197l2.934-1.695v3.39l-2.934 1.694zM424.495 308.362l2.934-1.695v3.39l-2.934 1.694zM424.495 318.532l2.934-1.695v3.39l-2.934 1.694zM424.495 328.701l2.934-1.695v3.39l-2.934 1.694zM424.495 338.866l2.934-1.695v3.39l-2.934 1.694zM424.495 349.036l2.934-1.695v3.39l-2.934 1.694zM424.495 359.205l2.934-1.695v3.39l-2.934 1.694zM424.495 369.37l2.934-1.695v3.39l-2.934 1.694zM424.495 379.54l2.934-1.695v3.39l-2.934 1.694zM424.495 389.709l2.934-1.695v3.39l-2.934 1.694zM424.495 399.874l2.934-1.695v3.39l-2.934 1.694zM424.495 410.043l2.934-1.695v3.39l-2.934 1.694zM424.495 420.208l2.934-1.695v3.39l-2.934 1.694zM424.495 430.378l2.934-1.695v3.39l-2.934 1.694zM424.495 440.547l2.934-1.695v3.39l-2.934 1.694zM424.495 450.712l2.934-1.695v3.39l-2.934 1.694zM424.495 460.882l2.934-1.695v3.39l-2.934 1.694zM424.495 471.047l2.934-1.695v3.39l-2.934 1.694zM424.495 481.216l2.934-1.695v3.39l-2.934 1.694zM424.495 491.386l2.934-1.695v3.39l-2.934 1.694zM424.495 501.551l2.934-1.695v3.39l-2.934 1.694zM424.495 511.72l2.934-1.695v3.39l-2.934 1.694zM424.495 521.889l2.934-1.695v3.39l-2.934 1.694zM424.495 532.055l2.934-1.695v3.39l-2.934 1.694zM424.495 542.224l2.934-1.695v3.39l-2.934 1.694zM424.495 552.389l2.934-1.695v3.39l-2.934 1.694zM433.294 160.932l2.934-1.695v3.39l-2.934 1.694zM433.294 171.101l2.934-1.695v3.39l-2.934 1.694zM433.294 181.266l2.934-1.695v3.39l-2.934 1.694zM433.294 191.436l2.934-1.695v3.39l-2.934 1.694zM433.294 201.601l2.934-1.695v3.39l-2.934 1.694zM433.294 211.77l2.934-1.695v3.39l-2.934 1.694zM433.294 221.939l2.934-1.695v3.39l-2.934 1.694zM433.294 232.104l2.934-1.695v3.39l-2.934 1.694zM433.294 242.274l2.934-1.695v3.39l-2.934 1.694zM433.294 252.439l2.934-1.695v3.39l-2.934 1.694zM433.294 262.608l2.934-1.695v3.39l-2.934 1.694zM433.294 272.778l2.934-1.695v3.39l-2.934 1.694zM433.294 282.943l2.934-1.695v3.39l-2.934 1.694zM433.294 293.112l2.934-1.695v3.39l-2.934 1.694zM433.294 303.282l2.934-1.695v3.39l-2.934 1.694zM433.294 313.447l2.934-1.695v3.39l-2.934 1.694zM433.294 323.616l2.934-1.695v3.39l-2.934 1.694zM433.294 333.781l2.934-1.695v3.39l-2.934 1.694zM433.294 343.951l2.934-1.695v3.39l-2.934 1.694zM433.294 354.12l2.934-1.695v3.39l-2.934 1.694zM433.294 364.29l2.934-1.695v3.39l-2.934 1.694zM433.294 374.455l2.934-1.695v3.39l-2.934 1.694zM433.294 384.624l2.934-1.695v3.39l-2.934 1.694zM433.294 394.789l2.934-1.695v3.39l-2.934 1.694zM433.294 404.958l2.934-1.695v3.39l-2.934 1.694zM433.294 415.124l2.934-1.695v3.39l-2.934 1.694zM433.294 425.293l2.934-1.695v3.39l-2.934 1.694zM433.294 435.462l2.934-1.695v3.39l-2.934 1.694zM433.294 445.632l2.934-1.695v3.39l-2.934 1.694zM433.294 455.797l2.934-1.695v3.39l-2.934 1.694zM433.294 465.966l2.934-1.695v3.39l-2.934 1.694zM433.294 476.131l2.934-1.695v3.39l-2.934 1.694zM433.294 486.301l2.934-1.695v3.39l-2.934 1.694zM433.294 496.466l2.934-1.695v3.39l-2.934 1.694zM433.294 506.635l2.934-1.695v3.39l-2.934 1.694zM433.294 516.805l2.934-1.695v3.39l-2.934 1.694zM433.294 526.97l2.934-1.695v3.39l-2.934 1.694zM433.294 537.139l2.934-1.695v3.39l-2.934 1.694zM433.294 547.309l2.934-1.695v3.39l-2.934 1.694zM442.094 166.017l2.934-1.695v3.39l-2.934 1.694zM442.094 176.182l2.934-1.695v3.39l-2.934 1.694zM442.094 186.351l2.934-1.695v3.39l-2.934 1.694zM442.094 196.521l2.934-1.695v3.39l-2.934 1.694zM442.094 206.686l2.934-1.695v3.39l-2.934 1.694zM442.094 216.855l2.934-1.695v3.39l-2.934 1.694zM442.094 227.024l2.934-1.695v3.39l-2.934 1.694zM442.094 237.189l2.934-1.695v3.39l-2.934 1.694zM442.094 247.359l2.934-1.695v3.39l-2.934 1.694zM442.094 257.524l2.934-1.695v3.39l-2.934 1.694zM442.094 267.693l2.934-1.695v3.39l-2.934 1.694zM442.094 277.858l2.934-1.695v3.39l-2.934 1.694zM442.094 288.028l2.934-1.695v3.39l-2.934 1.694zM442.094 298.197l2.934-1.695v3.39l-2.934 1.694zM442.094 308.362l2.934-1.695v3.39l-2.934 1.694zM442.094 318.532l2.934-1.695v3.39l-2.934 1.694zM442.094 328.701l2.934-1.695v3.39l-2.934 1.694zM442.094 338.866l2.934-1.695v3.39l-2.934 1.694zM442.094 349.036l2.934-1.695v3.39l-2.934 1.694zM442.094 359.205l2.934-1.695v3.39l-2.934 1.694zM442.094 369.37l2.934-1.695v3.39l-2.934 1.694zM442.094 379.54l2.934-1.695v3.39l-2.934 1.694zM442.094 389.709l2.934-1.695v3.39l-2.934 1.694zM442.094 399.874l2.934-1.695v3.39l-2.934 1.694zM442.094 410.043l2.934-1.695v3.39l-2.934 1.694zM442.094 420.208l2.934-1.695v3.39l-2.934 1.694zM442.094 430.378l2.934-1.695v3.39l-2.934 1.694zM442.094 440.547l2.934-1.695v3.39l-2.934 1.694zM442.094 450.712l2.934-1.695v3.39l-2.934 1.694zM442.094 460.882l2.934-1.695v3.39l-2.934 1.694zM442.094 471.047l2.934-1.695v3.39l-2.934 1.694zM442.094 481.216l2.934-1.695v3.39l-2.934 1.694zM442.094 491.386l2.934-1.695v3.39l-2.934 1.694zM442.094 501.551l2.934-1.695v3.39l-2.934 1.694zM442.094 511.72l2.934-1.695v3.39l-2.934 1.694zM442.094 521.889l2.934-1.695v3.39l-2.934 1.694zM442.094 532.055l2.934-1.695v3.39l-2.934 1.694zM442.094 542.224l2.934-1.695v3.39l-2.934 1.694zM450.893 160.932l2.934-1.695v3.39l-2.934 1.694zM450.893 171.101l2.934-1.695v3.39l-2.934 1.694zM450.893 181.266l2.934-1.695v3.39l-2.934 1.694zM450.893 191.436l2.934-1.695v3.39l-2.934 1.694zM450.893 201.601l2.934-1.695v3.39l-2.934 1.694zM450.893 211.77l2.934-1.695v3.39l-2.934 1.694zM450.893 221.939l2.934-1.695v3.39l-2.934 1.694zM450.893 232.104l2.934-1.695v3.39l-2.934 1.694zM450.893 242.274l2.934-1.695v3.39l-2.934 1.694zM450.893 252.439l2.934-1.695v3.39l-2.934 1.694zM450.893 262.608l2.934-1.695v3.39l-2.934 1.694zM450.893 272.778l2.934-1.695v3.39l-2.934 1.694zM450.893 282.943l2.934-1.695v3.39l-2.934 1.694zM450.893 293.112l2.934-1.695v3.39l-2.934 1.694zM450.893 303.282l2.934-1.695v3.39l-2.934 1.694zM450.893 313.447l2.934-1.695v3.39l-2.934 1.694zM450.893 323.616l2.934-1.695v3.39l-2.934 1.694zM450.893 333.781l2.934-1.695v3.39l-2.934 1.694zM450.893 343.951l2.934-1.695v3.39l-2.934 1.694zM450.893 354.12l2.934-1.695v3.39l-2.934 1.694zM450.893 364.29l2.934-1.695v3.39l-2.934 1.694zM450.893 374.455l2.934-1.695v3.39l-2.934 1.694zM450.893 384.624l2.934-1.695v3.39l-2.934 1.694zM450.893 394.789l2.934-1.695v3.39l-2.934 1.694zM450.893 404.958l2.934-1.695v3.39l-2.934 1.694zM450.893 415.124l2.934-1.695v3.39l-2.934 1.694zM450.893 425.293l2.934-1.695v3.39l-2.934 1.694zM450.893 435.462l2.934-1.695v3.39l-2.934 1.694zM450.893 445.632l2.934-1.695v3.39l-2.934 1.694zM450.893 455.797l2.934-1.695v3.39l-2.934 1.694zM450.893 465.966l2.934-1.695v3.39l-2.934 1.694zM450.893 476.131l2.934-1.695v3.39l-2.934 1.694zM450.893 486.301l2.934-1.695v3.39l-2.934 1.694zM450.893 496.466l2.934-1.695v3.39l-2.934 1.694zM450.893 506.635l2.934-1.695v3.39l-2.934 1.694zM450.893 516.805l2.934-1.695v3.39l-2.934 1.694zM450.893 526.97l2.934-1.695v3.39l-2.934 1.694zM450.893 537.139l2.934-1.695v3.39l-2.934 1.694zM459.692 166.017l2.934-1.695v3.39l-2.934 1.694zM459.692 176.182l2.934-1.695v3.39l-2.934 1.694zM459.692 186.351l2.934-1.695v3.39l-2.934 1.694zM459.692 196.521l2.934-1.695v3.39l-2.934 1.694zM459.692 206.686l2.934-1.695v3.39l-2.934 1.694zM459.692 216.855l2.934-1.695v3.39l-2.934 1.694zM459.692 227.024l2.934-1.695v3.39l-2.934 1.694zM459.692 237.189l2.934-1.695v3.39l-2.934 1.694zM459.692 247.359l2.934-1.695v3.39l-2.934 1.694zM459.692 257.524l2.934-1.695v3.39l-2.934 1.694zM459.692 267.693l2.934-1.695v3.39l-2.934 1.694zM459.692 277.858l2.934-1.695v3.39l-2.934 1.694zM459.692 288.028l2.934-1.695v3.39l-2.934 1.694zM459.692 298.197l2.934-1.695v3.39l-2.934 1.694zM459.692 308.362l2.934-1.695v3.39l-2.934 1.694zM459.692 318.532l2.934-1.695v3.39l-2.934 1.694zM459.692 328.701l2.934-1.695v3.39l-2.934 1.694zM459.692 338.866l2.934-1.695v3.39l-2.934 1.694zM459.692 349.036l2.934-1.695v3.39l-2.934 1.694zM459.692 359.205l2.934-1.695v3.39l-2.934 1.694zM459.692 369.37l2.934-1.695v3.39l-2.934 1.694zM459.692 379.54l2.934-1.695v3.39l-2.934 1.694zM459.692 389.709l2.934-1.695v3.39l-2.934 1.694zM459.692 399.874l2.934-1.695v3.39l-2.934 1.694zM459.692 410.043l2.934-1.695v3.39l-2.934 1.694zM459.692 420.208l2.934-1.695v3.39l-2.934 1.694zM459.692 430.378l2.934-1.695v3.39l-2.934 1.694zM459.692 440.547l2.934-1.695v3.39l-2.934 1.694zM459.692 450.712l2.934-1.695v3.39l-2.934 1.694zM459.692 460.882l2.934-1.695v3.39l-2.934 1.694zM459.692 471.047l2.934-1.695v3.39l-2.934 1.694zM459.692 481.216l2.934-1.695v3.39l-2.934 1.694zM459.692 491.386l2.934-1.695v3.39l-2.934 1.694zM459.692 501.551l2.934-1.695v3.39l-2.934 1.694zM459.692 511.72l2.934-1.695v3.39l-2.934 1.694zM459.692 521.889l2.934-1.695v3.39l-2.934 1.694zM459.692 532.055l2.934-1.695v3.39l-2.934 1.694zM468.496 160.932l2.934-1.695v3.39l-2.934 1.694zM468.496 171.101l2.934-1.695v3.39l-2.934 1.694zM468.496 181.266l2.934-1.695v3.39l-2.934 1.694zM468.496 191.436l2.934-1.695v3.39l-2.934 1.694zM468.496 201.601l2.934-1.695v3.39l-2.934 1.694zM468.496 211.77l2.934-1.695v3.39l-2.934 1.694zM468.496 221.939l2.934-1.695v3.39l-2.934 1.694zM468.496 232.104l2.934-1.695v3.39l-2.934 1.694zM468.496 242.274l2.934-1.695v3.39l-2.934 1.694zM468.496 252.439l2.934-1.695v3.39l-2.934 1.694zM468.496 262.608l2.934-1.695v3.39l-2.934 1.694zM468.496 272.778l2.934-1.695v3.39l-2.934 1.694zM468.496 282.943l2.934-1.695v3.39l-2.934 1.694zM468.496 293.112l2.934-1.695v3.39l-2.934 1.694zM468.496 303.282l2.934-1.695v3.39l-2.934 1.694zM468.496 313.447l2.934-1.695v3.39l-2.934 1.694zM468.496 323.616l2.934-1.695v3.39l-2.934 1.694zM468.496 333.781l2.934-1.695v3.39l-2.934 1.694zM468.496 343.951l2.934-1.695v3.39l-2.934 1.694zM468.496 354.12l2.934-1.695v3.39l-2.934 1.694zM468.496 364.29l2.934-1.695v3.39l-2.934 1.694zM468.496 374.455l2.934-1.695v3.39l-2.934 1.694zM468.496 384.624l2.934-1.695v3.39l-2.934 1.694zM468.496 394.789l2.934-1.695v3.39l-2.934 1.694zM468.496 404.958l2.934-1.695v3.39l-2.934 1.694zM468.496 415.124l2.934-1.695v3.39l-2.934 1.694zM468.496 425.293l2.934-1.695v3.39l-2.934 1.694zM468.496 435.462l2.934-1.695v3.39l-2.934 1.694zM468.496 445.632l2.934-1.695v3.39l-2.934 1.694zM468.496 455.797l2.934-1.695v3.39l-2.934 1.694zM468.496 465.966l2.934-1.695v3.39l-2.934 1.694zM468.496 476.131l2.934-1.695v3.39l-2.934 1.694zM468.496 486.301l2.934-1.695v3.39l-2.934 1.694zM468.496 496.47l2.934-1.695v3.39l-2.934 1.694zM468.496 506.635l2.934-1.695v3.39l-2.934 1.694zM468.496 516.805l2.934-1.695v3.39l-2.934 1.694zM468.496 526.97l2.934-1.695v3.39l-2.934 1.694zM477.299 166.017l2.934-1.695v3.39l-2.934 1.694zM477.299 176.182l2.934-1.695v3.39l-2.934 1.694zM477.299 186.351l2.934-1.695v3.39l-2.934 1.694zM477.299 196.521l2.934-1.695v3.39l-2.934 1.694zM477.299 206.686l2.934-1.695v3.39l-2.934 1.694zM477.299 216.855l2.934-1.695v3.39l-2.934 1.694zM477.299 227.024l2.934-1.695v3.39l-2.934 1.694zM477.299 237.189l2.934-1.695v3.39l-2.934 1.694zM477.299 247.359l2.934-1.695v3.39l-2.934 1.694zM477.299 257.524l2.934-1.695v3.39l-2.934 1.694zM477.299 267.693l2.934-1.695v3.39l-2.934 1.694zM477.299 277.858l2.934-1.695v3.39l-2.934 1.694zM477.299 288.028l2.934-1.695v3.39l-2.934 1.694zM477.299 298.197l2.934-1.695v3.39l-2.934 1.694zM477.299 308.362l2.934-1.695v3.39l-2.934 1.694zM477.299 318.532l2.934-1.695v3.39l-2.934 1.694zM477.299 328.701l2.934-1.695v3.39l-2.934 1.694zM477.299 338.866l2.934-1.695v3.39l-2.934 1.694zM477.299 349.036l2.934-1.695v3.39l-2.934 1.694zM477.299 359.205l2.934-1.695v3.39l-2.934 1.694zM477.299 369.37l2.934-1.695v3.39l-2.934 1.694zM477.299 379.54l2.934-1.695v3.39l-2.934 1.694zM477.299 389.709l2.934-1.695v3.39l-2.934 1.694zM477.299 399.874l2.934-1.695v3.39l-2.934 1.694zM477.299 410.043l2.934-1.695v3.39l-2.934 1.694zM477.299 420.208l2.934-1.695v3.39l-2.934 1.694zM477.299 430.378l2.934-1.695v3.39l-2.934 1.694zM477.299 440.547l2.934-1.695v3.39l-2.934 1.694zM477.299 450.712l2.934-1.695v3.39l-2.934 1.694zM477.299 460.882l2.934-1.695v3.39l-2.934 1.694zM477.299 471.047l2.934-1.695v3.39l-2.934 1.694zM477.299 481.216l2.934-1.695v3.39l-2.934 1.694zM477.299 491.386l2.934-1.695v3.39l-2.934 1.694zM477.299 501.551l2.934-1.695v3.39l-2.934 1.694zM477.299 511.72l2.934-1.695v3.39l-2.934 1.694zM477.299 521.889l2.934-1.695v3.39l-2.934 1.694zM486.099 160.932l2.934-1.695v3.39l-2.934 1.694zM486.099 171.101l2.934-1.695v3.39l-2.934 1.694zM486.099 181.266l2.934-1.695v3.39l-2.934 1.694zM486.099 191.436l2.934-1.695v3.39l-2.934 1.694zM486.099 201.601l2.934-1.695v3.39l-2.934 1.694zM486.099 211.77l2.934-1.695v3.39l-2.934 1.694zM486.099 221.939l2.934-1.695v3.39l-2.934 1.694zM486.099 232.104l2.934-1.695v3.39l-2.934 1.694zM486.099 242.274l2.934-1.695v3.39l-2.934 1.694zM486.099 252.439l2.934-1.695v3.39l-2.934 1.694zM486.099 262.608l2.934-1.695v3.39l-2.934 1.694zM486.099 272.778l2.934-1.695v3.39l-2.934 1.694zM486.099 282.943l2.934-1.695v3.39l-2.934 1.694zM486.099 293.112l2.934-1.695v3.39l-2.934 1.694zM486.099 303.282l2.934-1.695v3.39l-2.934 1.694zM486.099 313.447l2.934-1.695v3.39l-2.934 1.694zM486.099 323.616l2.934-1.695v3.39l-2.934 1.694zM486.099 333.781l2.934-1.695v3.39l-2.934 1.694zM486.099 343.951l2.934-1.695v3.39l-2.934 1.694zM486.099 354.12l2.934-1.695v3.39l-2.934 1.694zM486.099 364.29l2.934-1.695v3.39l-2.934 1.694zM486.099 374.455l2.934-1.695v3.39l-2.934 1.694zM486.099 384.624l2.934-1.695v3.39l-2.934 1.694zM486.099 394.789l2.934-1.695v3.39l-2.934 1.694zM486.099 404.958l2.934-1.695v3.39l-2.934 1.694zM486.099 415.124l2.934-1.695v3.39l-2.934 1.694zM486.099 425.293l2.934-1.695v3.39l-2.934 1.694zM486.099 435.462l2.934-1.695v3.39l-2.934 1.694zM486.099 445.632l2.934-1.695v3.39l-2.934 1.694zM486.099 455.797l2.934-1.695v3.39l-2.934 1.694zM486.099 465.966l2.934-1.695v3.39l-2.934 1.694zM486.099 476.131l2.934-1.695v3.39l-2.934 1.694zM486.099 486.301l2.934-1.695v3.39l-2.934 1.694zM486.099 496.466l2.934-1.695v3.39l-2.934 1.694zM486.099 506.635l2.934-1.695v3.39l-2.934 1.694zM486.099 516.805l2.934-1.695v3.39l-2.934 1.694zM494.894 166.017l2.934-1.695v3.39l-2.934 1.694zM494.894 176.182l2.934-1.695v3.39l-2.934 1.694zM494.894 186.351l2.934-1.695v3.39l-2.934 1.694zM494.894 196.521l2.934-1.695v3.39l-2.934 1.694zM494.894 206.686l2.934-1.695v3.39l-2.934 1.694zM494.894 216.855l2.934-1.695v3.39l-2.934 1.694zM494.894 227.024l2.934-1.695v3.39l-2.934 1.694zM494.894 237.189l2.934-1.695v3.39l-2.934 1.694zM494.894 247.359l2.934-1.695v3.39l-2.934 1.694zM494.894 257.524l2.934-1.695v3.39l-2.934 1.694zM494.894 267.693l2.934-1.695v3.39l-2.934 1.694zM494.894 277.858l2.934-1.695v3.39l-2.934 1.694zM494.894 288.028l2.934-1.695v3.39l-2.934 1.694zM494.894 298.197l2.934-1.695v3.39l-2.934 1.694zM494.894 308.362l2.934-1.695v3.39l-2.934 1.694zM494.894 318.532l2.934-1.695v3.39l-2.934 1.694zM494.894 328.701l2.934-1.695v3.39l-2.934 1.694zM494.894 338.866l2.934-1.695v3.39l-2.934 1.694zM494.894 349.036l2.934-1.695v3.39l-2.934 1.694zM494.894 359.205l2.934-1.695v3.39l-2.934 1.694zM494.894 369.37l2.934-1.695v3.39l-2.934 1.694zM494.894 379.54l2.934-1.695v3.39l-2.934 1.694zM494.894 389.709l2.934-1.695v3.39l-2.934 1.694zM494.894 399.874l2.934-1.695v3.39l-2.934 1.694zM494.894 410.043l2.934-1.695v3.39l-2.934 1.694zM494.894 420.208l2.934-1.695v3.39l-2.934 1.694zM494.894 430.378l2.934-1.695v3.39l-2.934 1.694zM494.894 440.547l2.934-1.695v3.39l-2.934 1.694zM494.894 450.712l2.934-1.695v3.39l-2.934 1.694zM494.894 460.882l2.934-1.695v3.39l-2.934 1.694zM494.894 471.047l2.934-1.695v3.39l-2.934 1.694zM494.894 481.216l2.934-1.695v3.39l-2.934 1.694zM494.894 491.386l2.934-1.695v3.39l-2.934 1.694zM494.894 501.551l2.934-1.695v3.39l-2.934 1.694zM494.894 511.72l2.934-1.695v3.39l-2.934 1.694zM503.697 160.932l2.934-1.695v3.39l-2.934 1.694zM503.697 171.101l2.934-1.695v3.39l-2.934 1.694zM503.697 181.266l2.934-1.695v3.39l-2.934 1.694zM503.697 191.436l2.934-1.695v3.39l-2.934 1.694zM503.697 201.601l2.934-1.695v3.39l-2.934 1.694zM503.697 211.77l2.934-1.695v3.39l-2.934 1.694zM503.697 221.939l2.934-1.695v3.39l-2.934 1.694zM503.697 232.104l2.934-1.695v3.39l-2.934 1.694zM503.697 242.274l2.934-1.695v3.39l-2.934 1.694zM503.697 252.439l2.934-1.695v3.39l-2.934 1.694zM503.697 262.608l2.934-1.695v3.39l-2.934 1.694zM503.697 272.778l2.934-1.695v3.39l-2.934 1.694zM503.697 282.943l2.934-1.695v3.39l-2.934 1.694zM503.697 293.112l2.934-1.695v3.39l-2.934 1.694zM503.697 303.282l2.934-1.695v3.39l-2.934 1.694zM503.697 313.447l2.934-1.695v3.39l-2.934 1.694zM503.697 323.616l2.934-1.695v3.39l-2.934 1.694zM503.697 333.781l2.934-1.695v3.39l-2.934 1.694zM503.697 343.951l2.934-1.695v3.39l-2.934 1.694zM503.697 354.12l2.934-1.695v3.39l-2.934 1.694zM503.697 364.29l2.934-1.695v3.39l-2.934 1.694zM503.697 374.455l2.934-1.695v3.39l-2.934 1.694zM503.697 384.624l2.934-1.695v3.39l-2.934 1.694zM503.697 394.789l2.934-1.695v3.39l-2.934 1.694zM503.697 404.958l2.934-1.695v3.39l-2.934 1.694zM503.697 415.124l2.934-1.695v3.39l-2.934 1.694zM503.697 425.293l2.934-1.695v3.39l-2.934 1.694zM503.697 435.462l2.934-1.695v3.39l-2.934 1.694zM503.697 445.632l2.934-1.695v3.39l-2.934 1.694zM503.697 455.797l2.934-1.695v3.39l-2.934 1.694zM503.697 465.966l2.934-1.695v3.39l-2.934 1.694zM503.697 476.131l2.934-1.695v3.39l-2.934 1.694zM503.697 486.301l2.934-1.695v3.39l-2.934 1.694zM503.697 496.466l2.934-1.695v3.39l-2.934 1.694zM503.697 506.635l2.934-1.695v3.39l-2.934 1.694zM512.496 166.017l2.934-1.695v3.39l-2.934 1.694zM512.496 176.182l2.934-1.695v3.39l-2.934 1.694zM512.496 186.351l2.934-1.695v3.39l-2.934 1.694zM512.496 196.521l2.934-1.695v3.39l-2.934 1.694zM512.496 206.686l2.934-1.695v3.39l-2.934 1.694zM512.496 216.855l2.934-1.695v3.39l-2.934 1.694zM512.496 227.024l2.934-1.695v3.39l-2.934 1.694zM512.496 237.189l2.934-1.695v3.39l-2.934 1.694zM512.496 247.359l2.934-1.695v3.39l-2.934 1.694zM512.496 257.524l2.934-1.695v3.39l-2.934 1.694zM512.496 267.693l2.934-1.695v3.39l-2.934 1.694zM512.496 277.858l2.934-1.695v3.39l-2.934 1.694zM512.496 288.028l2.934-1.695v3.39l-2.934 1.694zM512.496 298.197l2.934-1.695v3.39l-2.934 1.694zM512.496 308.362l2.934-1.695v3.39l-2.934 1.694zM512.496 318.532l2.934-1.695v3.39l-2.934 1.694zM512.496 328.701l2.934-1.695v3.39l-2.934 1.694zM512.496 338.866l2.934-1.695v3.39l-2.934 1.694zM512.496 349.036l2.934-1.695v3.39l-2.934 1.694zM512.496 359.205l2.934-1.695v3.39l-2.934 1.694zM512.496 369.37l2.934-1.695v3.39l-2.934 1.694zM512.496 379.54l2.934-1.695v3.39l-2.934 1.694zM512.496 389.709l2.934-1.695v3.39l-2.934 1.694zM512.496 399.874l2.934-1.695v3.39l-2.934 1.694zM512.496 410.043l2.934-1.695v3.39l-2.934 1.694zM512.496 420.208l2.934-1.695v3.39l-2.934 1.694zM512.496 430.378l2.934-1.695v3.39l-2.934 1.694zM512.496 440.547l2.934-1.695v3.39l-2.934 1.694zM512.496 450.712l2.934-1.695v3.39l-2.934 1.694zM512.496 460.882l2.934-1.695v3.39l-2.934 1.694zM512.496 471.047l2.934-1.695v3.39l-2.934 1.694zM512.496 481.216l2.934-1.695v3.39l-2.934 1.694zM512.496 491.386l2.934-1.695v3.39l-2.934 1.694zM512.496 501.551l2.934-1.695v3.39l-2.934 1.694zM521.295 160.932l2.934-1.695v3.39l-2.934 1.694zM521.295 171.101l2.934-1.695v3.39l-2.934 1.694zM521.295 181.266l2.934-1.695v3.39l-2.934 1.694zM521.295 191.436l2.934-1.695v3.39l-2.934 1.694zM521.295 201.601l2.934-1.695v3.39l-2.934 1.694zM521.295 211.77l2.934-1.695v3.39l-2.934 1.694zM521.295 221.939l2.934-1.695v3.39l-2.934 1.694zM521.295 232.104l2.934-1.695v3.39l-2.934 1.694zM521.295 242.274l2.934-1.695v3.39l-2.934 1.694zM521.295 252.439l2.934-1.695v3.39l-2.934 1.694zM521.295 262.608l2.934-1.695v3.39l-2.934 1.694zM521.295 272.778l2.934-1.695v3.39l-2.934 1.694zM521.295 282.943l2.934-1.695v3.39l-2.934 1.694zM521.295 293.112l2.934-1.695v3.39l-2.934 1.694zM521.295 303.282l2.934-1.695v3.39l-2.934 1.694zM521.295 313.447l2.934-1.695v3.39l-2.934 1.694zM521.295 323.616l2.934-1.695v3.39l-2.934 1.694zM521.295 333.781l2.934-1.695v3.39l-2.934 1.694zM521.295 343.951l2.934-1.695v3.39l-2.934 1.694zM521.295 354.12l2.934-1.695v3.39l-2.934 1.694zM521.295 364.29l2.934-1.695v3.39l-2.934 1.694zM521.295 374.455l2.934-1.695v3.39l-2.934 1.694zM521.295 384.624l2.934-1.695v3.39l-2.934 1.694zM521.295 394.789l2.934-1.695v3.39l-2.934 1.694zM521.295 404.958l2.934-1.695v3.39l-2.934 1.694zM521.295 415.124l2.934-1.695v3.39l-2.934 1.694zM521.295 425.293l2.934-1.695v3.39l-2.934 1.694zM521.295 435.462l2.934-1.695v3.39l-2.934 1.694zM521.295 445.632l2.934-1.695v3.39l-2.934 1.694zM521.295 455.797l2.934-1.695v3.39l-2.934 1.694zM521.295 465.966l2.934-1.695v3.39l-2.934 1.694zM521.295 476.131l2.934-1.695v3.39l-2.934 1.694zM521.295 486.301l2.934-1.695v3.39l-2.934 1.694zM521.295 496.47l2.934-1.695v3.39l-2.934 1.694zM530.095 166.017l2.934-1.695v3.39l-2.934 1.694zM530.095 176.182l2.934-1.695v3.39l-2.934 1.694zM530.095 186.351l2.934-1.695v3.39l-2.934 1.694zM530.095 196.521l2.934-1.695v3.39l-2.934 1.694zM530.095 206.686l2.934-1.695v3.39l-2.934 1.694zM530.095 216.855l2.934-1.695v3.39l-2.934 1.694zM530.095 227.024l2.934-1.695v3.39l-2.934 1.694zM530.095 237.189l2.934-1.695v3.39l-2.934 1.694zM530.095 247.359l2.934-1.695v3.39l-2.934 1.694zM530.095 257.524l2.934-1.695v3.39l-2.934 1.694zM530.095 267.693l2.934-1.695v3.39l-2.934 1.694zM530.095 277.858l2.934-1.695v3.39l-2.934 1.694zM530.095 288.028l2.934-1.695v3.39l-2.934 1.694zM530.095 298.197l2.934-1.695v3.39l-2.934 1.694zM530.095 308.362l2.934-1.695v3.39l-2.934 1.694zM530.095 318.532l2.934-1.695v3.39l-2.934 1.694zM530.095 328.701l2.934-1.695v3.39l-2.934 1.694zM530.095 338.866l2.934-1.695v3.39l-2.934 1.694zM530.095 349.036l2.934-1.695v3.39l-2.934 1.694zM530.095 359.205l2.934-1.695v3.39l-2.934 1.694zM530.095 369.37l2.934-1.695v3.39l-2.934 1.694zM530.095 379.54l2.934-1.695v3.39l-2.934 1.694zM530.095 389.709l2.934-1.695v3.39l-2.934 1.694zM530.095 399.874l2.934-1.695v3.39l-2.934 1.694zM530.095 410.043l2.934-1.695v3.39l-2.934 1.694zM530.095 420.208l2.934-1.695v3.39l-2.934 1.694zM530.095 430.378l2.934-1.695v3.39l-2.934 1.694zM530.095 440.547l2.934-1.695v3.39l-2.934 1.694zM530.095 450.712l2.934-1.695v3.39l-2.934 1.694zM530.095 460.882l2.934-1.695v3.39l-2.934 1.694zM530.095 471.047l2.934-1.695v3.39l-2.934 1.694zM530.095 481.216l2.934-1.695v3.39l-2.934 1.694zM530.095 491.386l2.934-1.695v3.39l-2.934 1.694zM538.894 160.932l2.934-1.695v3.39l-2.934 1.694zM538.894 171.101l2.934-1.695v3.39l-2.934 1.694zM538.894 181.266l2.934-1.695v3.39l-2.934 1.694zM538.894 191.436l2.934-1.695v3.39l-2.934 1.694zM538.894 201.601l2.934-1.695v3.39l-2.934 1.694zM538.894 211.77l2.934-1.695v3.39l-2.934 1.694zM538.894 221.939l2.934-1.695v3.39l-2.934 1.694zM538.894 232.104l2.934-1.695v3.39l-2.934 1.694zM538.894 242.274l2.934-1.695v3.39l-2.934 1.694zM538.894 252.439l2.934-1.695v3.39l-2.934 1.694zM538.894 262.608l2.934-1.695v3.39l-2.934 1.694zM538.894 272.778l2.934-1.695v3.39l-2.934 1.694zM538.894 282.943l2.934-1.695v3.39l-2.934 1.694zM538.894 293.112l2.934-1.695v3.39l-2.934 1.694zM538.894 303.282l2.934-1.695v3.39l-2.934 1.694zM538.894 313.447l2.934-1.695v3.39l-2.934 1.694zM538.894 323.616l2.934-1.695v3.39l-2.934 1.694zM538.894 333.781l2.934-1.695v3.39l-2.934 1.694zM538.894 343.951l2.934-1.695v3.39l-2.934 1.694zM538.894 354.12l2.934-1.695v3.39l-2.934 1.694zM538.894 364.29l2.934-1.695v3.39l-2.934 1.694zM538.894 374.455l2.934-1.695v3.39l-2.934 1.694zM538.894 384.624l2.934-1.695v3.39l-2.934 1.694zM538.894 394.789l2.934-1.695v3.39l-2.934 1.694zM538.894 404.958l2.934-1.695v3.39l-2.934 1.694zM538.894 415.124l2.934-1.695v3.39l-2.934 1.694zM538.894 425.293l2.934-1.695v3.39l-2.934 1.694zM538.894 435.462l2.934-1.695v3.39l-2.934 1.694zM538.894 445.632l2.934-1.695v3.39l-2.934 1.694zM538.894 455.797l2.934-1.695v3.39l-2.934 1.694zM538.894 465.966l2.934-1.695v3.39l-2.934 1.694zM538.894 476.131l2.934-1.695v3.39l-2.934 1.694zM538.894 486.301l2.934-1.695v3.39l-2.934 1.694zM547.698 166.017l2.934-1.695v3.39l-2.934 1.694zM547.698 176.182l2.934-1.695v3.39l-2.934 1.694zM547.698 186.351l2.934-1.695v3.39l-2.934 1.694zM547.698 196.521l2.934-1.695v3.39l-2.934 1.694zM547.698 206.686l2.934-1.695v3.39l-2.934 1.694zM547.698 216.855l2.934-1.695v3.39l-2.934 1.694zM547.698 227.024l2.934-1.695v3.39l-2.934 1.694zM547.698 237.189l2.934-1.695v3.39l-2.934 1.694zM547.698 247.359l2.934-1.695v3.39l-2.934 1.694zM547.698 257.524l2.934-1.695v3.39l-2.934 1.694zM547.698 267.693l2.934-1.695v3.39l-2.934 1.694zM547.698 277.858l2.934-1.695v3.39l-2.934 1.694zM547.698 288.028l2.934-1.695v3.39l-2.934 1.694zM547.698 298.197l2.934-1.695v3.39l-2.934 1.694zM547.698 308.362l2.934-1.695v3.39l-2.934 1.694zM547.698 318.532l2.934-1.695v3.39l-2.934 1.694zM547.698 328.701l2.934-1.695v3.39l-2.934 1.694zM547.698 338.866l2.934-1.695v3.39l-2.934 1.694zM547.698 349.036l2.934-1.695v3.39l-2.934 1.694zM547.698 359.205l2.934-1.695v3.39l-2.934 1.694zM547.698 369.37l2.934-1.695v3.39l-2.934 1.694zM547.698 379.54l2.934-1.695v3.39l-2.934 1.694zM547.698 389.709l2.934-1.695v3.39l-2.934 1.694zM547.698 399.874l2.934-1.695v3.39l-2.934 1.694zM547.698 410.043l2.934-1.695v3.39l-2.934 1.694zM547.698 420.208l2.934-1.695v3.39l-2.934 1.694zM547.698 430.378l2.934-1.695v3.39l-2.934 1.694zM547.698 440.547l2.934-1.695v3.39l-2.934 1.694zM547.698 450.712l2.934-1.695v3.39l-2.934 1.694zM547.698 460.882l2.934-1.695v3.39l-2.934 1.694zM547.698 471.047l2.934-1.695v3.39l-2.934 1.694zM547.698 481.216l2.934-1.695v3.39l-2.934 1.694zM556.501 160.932l2.934-1.695v3.39l-2.934 1.694zM556.501 171.101l2.934-1.695v3.39l-2.934 1.694zM556.501 181.266l2.934-1.695v3.39l-2.934 1.694zM556.501 191.436l2.934-1.695v3.39l-2.934 1.694zM556.501 201.601l2.934-1.695v3.39l-2.934 1.694zM556.501 211.77l2.934-1.695v3.39l-2.934 1.694zM556.501 221.939l2.934-1.695v3.39l-2.934 1.694zM556.501 232.104l2.934-1.695v3.39l-2.934 1.694zM556.501 242.274l2.934-1.695v3.39l-2.934 1.694zM556.501 252.439l2.934-1.695v3.39l-2.934 1.694zM556.501 262.608l2.934-1.695v3.39l-2.934 1.694zM556.501 272.778l2.934-1.695v3.39l-2.934 1.694zM556.501 282.943l2.934-1.695v3.39l-2.934 1.694zM556.501 293.112l2.934-1.695v3.39L556.5 296.5zM556.501 303.282l2.934-1.695v3.39l-2.934 1.694zM556.501 313.447l2.934-1.695v3.39l-2.934 1.694zM556.501 323.616l2.934-1.695v3.39l-2.934 1.694zM556.501 333.781l2.934-1.695v3.39l-2.934 1.694zM556.501 343.951l2.934-1.695v3.39l-2.934 1.694zM556.501 354.12l2.934-1.695v3.39l-2.934 1.694zM556.501 364.29l2.934-1.695v3.39l-2.934 1.694zM556.501 374.455l2.934-1.695v3.39l-2.934 1.694zM556.501 384.624l2.934-1.695v3.39l-2.934 1.694zM556.501 394.789l2.934-1.695v3.39l-2.934 1.694zM556.501 404.958l2.934-1.695v3.39l-2.934 1.694zM556.501 415.124l2.934-1.695v3.39l-2.934 1.694zM556.501 425.293l2.934-1.695v3.39l-2.934 1.694zM556.501 435.462l2.934-1.695v3.39l-2.934 1.694zM556.501 445.632l2.934-1.695v3.39l-2.934 1.694zM556.501 455.797l2.934-1.695v3.39l-2.934 1.694zM556.501 465.966l2.934-1.695v3.39l-2.934 1.694zM556.501 476.131l2.934-1.695v3.39l-2.934 1.694z"/></g><mask id="c" width="158" height="268" x="254" y="-53" maskUnits="userSpaceOnUse" style="mask-type:alpha"><path fill="#000" d="M256.123-51.992a1.015 1.015 0 0 0-1.524.878v173.158c0 .905.482 1.741 1.264 2.195l154.595 89.66a1.016 1.016 0 0 0 1.525-.878V39.865c0-.905-.482-1.741-1.265-2.195L256.123-51.992Z"/></mask><g mask="url(#c)"><path fill="#fff" stroke="#0D0B33" stroke-width="1.727" d="M326.113 186.224c-37.857-22.601-68.547-76.758-68.547-120.961 0-44.205 30.69-61.717 68.547-39.116 37.858 22.601 68.547 76.758 68.547 120.962 0 44.204-30.689 61.716-68.547 39.115Z"/><path fill="#000" fill-rule="evenodd" d="M360.316 117.206c1.428-10.255-5.854-20.431-15.811-30.175l3.23-13.14-7.889-6.849-3.145 12.795a586.19 586.19 0 0 0-6.316-5.382l3.167-12.878-7.882-6.844-3.232 13.135a474.347 474.347 0 0 1-5.036-4.29l.009-.041-10.876-9.448-2.098 8.544s5.851 4.944 5.728 4.969c3.194 2.774 3.773 5.56 3.675 7.444l-3.68 14.97c.22.193.506.452.82.78l-.831-.72-5.159 20.968c-.391.898-1.382 2.01-3.615.077.079.178-5.732-4.979-5.732-4.979l-3.915 8.194 10.265 8.912a630.674 630.674 0 0 1 3.436 3.016c.733.646 1.461 1.288 2.184 1.921l-3.264 13.296 7.878 6.842 3.234-13.149a548.2 548.2 0 0 0 6.283 5.529l-3.221 13.087 7.886 6.846 3.264-13.265c13.448 10.74 23.563 15.411 27.815 3.783 3.43-9.36-.169-17.991-7.244-26.361 5.153 1.603 9.034-.076 10.07-7.589l.002.002Zm-18.021 18.837c-2.239 9.118-16.312-3.344-22.745-9.041-.576-.511-1.091-.966-1.53-1.348l4.331-17.607c.537.466 1.193 1.017 1.936 1.641l.001.001c6.655 5.586 20.294 17.034 18.009 26.355l-.002-.001Zm-16.67-34.914c5.368 4.769 17.068 15.164 19.107 6.884 2.083-8.472-9.294-17.98-14.85-22.625-.625-.522-1.176-.983-1.626-1.373l-3.927 15.97c.372.322.808.71 1.296 1.144Z" clip-rule="evenodd"/><path fill="#79EFBD" stroke="#0D0B33" stroke-width="1.727" d="M326.113 26.147c-18.723-11.178-35.693-12.544-48.064-5.722l13.605-7.764c26.77-15.275 70.171 10.636 96.941 57.874 26.769 47.239 26.769 97.916 0 113.192l-13.086 7.467.003-.027c11.858-7.309 19.148-22.514 19.148-44.058 0-44.204-30.69-98.36-68.547-120.962Z"/><path fill="#0D0B33" d="m394.221 137.729 14.012-7.799c-.196-7.525-1.049-12.958-3.94-24.662l-14.788 8.254c2.374 8.137 3.988 16.279 4.716 24.207ZM383.157 95.845l13.713-8.052c-14.658-31.554-25.858-46.4-51.922-66.973l-14.228 8.255c21.876 14.755 40.946 39.818 52.437 66.77Z"/></g></svg>