<svg xmlns="http://www.w3.org/2000/svg" width="180" height="268" fill="none"><g filter="url(#a)" opacity=".2"><path fill="url(#b)" d="M14.269 183.464c-2.731 1.483-2.789 5.386-.113 6.966l110.822 65.475a4.03 4.03 0 0 0 4.051.028l19.561-11.305c2.672-1.545 2.662-5.407-.018-6.937l-112.21-64.069a3.999 3.999 0 0 0-3.892-.041l-18.201 9.883Z"/></g><path fill="#79EFBD" stroke="#0D0B33" stroke-width="1.85" d="M125.101 231.11c2.314-.968 3.778-3.532 3.778-7.336V106.195c0-6.937-4.87-15.372-10.877-18.84L16.175 28.565c-3.583-2.068-6.76-1.903-8.742.038a.48.48 0 0 1 .08-.28c.438-.739 8.954-5.111 12.59-6.978.842-.433 1.423-.73 1.58-.818.784-.434 1.684-.664 2.674-.675 2.326-.026 5.371 1.732 11.462 5.249L124.6 76.359c6.091 3.516 9.136 5.274 11.462 7.986a26.2 26.2 0 0 1 4.753 8.232C142 95.947 142 99.464 142 106.496v102.516c0 7.033 0 10.55-1.185 12.551-.538.909-2.499 2.254-3.585 2.894-.914.538-9.902 5.753-11.773 6.731-.228.102-.336.068-.356-.078Z"/><path fill="#0D0B33" d="M138.286 87.367a25.748 25.748 0 0 0-2.224-3.021c-2.326-2.712-5.372-4.47-11.462-7.987L54.264 35.751l-12.813 7.408 76.551 44.196c2.841 1.64 5.428 4.393 7.366 7.571l12.918-7.559ZM142 107.432l-13.121 7.298v27.665L142 135.117v-27.685Z"/><rect width="142.7" height="142.7" fill="#fff" stroke="#0D0B33" stroke-width="1.85" rx="12.56" transform="matrix(.86603 .5 0 1 5.298 22.285)"/><path fill="#333" fill-rule="evenodd" d="m21.174 41.243 19.623 36.263 9.787 18.145 4.882 9.081 2.43 4.542c.81 1.517 1.62 3.048 2.43 4.623l.266.528.058.613c.079.832.04 1.605-.117 2.286-.18.693-.493 1.261-.923 1.67-.8.738-1.86 1.061-3.071.939-1.09-.087-2.245-.403-3.425-.937l-.389-.178-.388-.189c-.748-.398-1.466-.505-2.051-.304-.585.201-1.005.699-1.199 1.421a8.784 8.784 0 0 0-.197 1.147 34.083 34.083 0 0 0-.141 1.924c-.027.493-.056 1.013-.1 1.566-.253 2.209-.843 4.159-1.745 5.77-.185.342-.373.668-.557.988-.99 1.717-1.883 3.268-1.627 6.184.201 2.248 1.147 4.223 2.404 6.423.597 1.05 1.389 2.109 2.21 3.209 2.3 3.078 4.836 6.472 4 10.851-.683 3.545-6.34 4.412-14.29 1.266.771.311-.927-4.017-1.116-4.498l-.011-.028c-.22-.523-.444-1.043-.668-1.563-.647-1.499-1.291-2.991-1.794-4.524-1.329-4.01-1.944-8.117-1.4-11.357.493-2.932 2.334-4.438 4.108-5.888.289-.237.576-.472.855-.711 2.372-2.031 4.86-5.05 5.41-9.147.047-.356.088-.75.132-1.165.078-.743.163-1.551.296-2.329.198-1.361.598-2.559 1.186-3.55.401-.64.93-1.121 1.561-1.421.33-.163.547-.508.618-.98.07-.472-.01-1.044-.229-1.624L35.318 76.651 53.523 113.1c.207.421.469.816.767 1.159.298.342.625.624.958.824.333.2.663.315.967.335.228.015.438-.024.62-.113l.173-.106c.231-.177.362-.495.37-.898.01-.404-.104-.87-.32-1.318-.847-1.738-1.728-3.513-2.605-5.28l-.003-.005-.004-.007-.001-.003-1.052-2.122-4.581-9.191-9.194-18.38-18.444-36.752Zm75.68 121.777c-1.794-2.152-3.535-4.24-5.031-6.293-2.141 5.663 1.312 13.483 4.745 21.258 3.839 8.696 7.654 17.335 3.584 22.831 7.908.795 11.663-8.429 8.381-19.361-2.068-6.911-7.052-12.888-11.678-18.435Zm-22.114 7.438a26.84 26.84 0 0 0-3.759-3.292c-2.506-1.801-5.049-3.043-7.48-3.657-2.345-.596-4.593-.783-6.687-.557-2.04.243-3.95.795-5.702 1.646.136-.067.906.532 1.38.9.147.115.266.207.328.25l.566.415c.378.282.754.572 1.128.878a28.927 28.927 0 0 1 3.24 3.03 33.32 33.32 0 0 1 4.023 5.716l.356.624.342.631a29.748 29.748 0 0 0 1.825 3.277l.103.157.326.509c.943 1.42 2.073 2.639 3.272 3.528.853.614 1.72 1.01 2.533 1.159.402.077.786.089 1.144.036.362-.054.689-.187.972-.393.533-.411.888-1.076 1.03-1.927.146-.81.073-1.776-.21-2.788a7.05 7.05 0 0 0-1.507-2.741c.596.81 1.012 1.765 1.16 2.664.137.857.084 1.634-.152 2.243-.215.59-.595 1.005-1.099 1.198a1.8 1.8 0 0 1-.793.1 3.391 3.391 0 0 1-.895-.232c-3.605-1.383-6.434-7.957-4.464-10.348.749-.918 2.012-.888 3.36-.305 3.304 1.444 6.126 5.576 7.775 9.637.71 1.747 1.237 3.5 1.764 5.252.329 1.095.658 2.19 1.032 3.283 1.425 4.171 3.862 8.54 7.309 10.605 1.272.747 2.53 1.144 3.674 1.16.549.024 1.078-.01 1.584-.103.396-.078.764-.208 1.127-.335v-.001l.17-.059.075-.026.043-.015a13.67 13.67 0 0 1-3.275-.6 12.432 12.432 0 0 1-1.649-.679l-.807-.488c-.26-.178-.52-.37-.777-.576-4.046-3.152-4.591-8.149-5.064-12.48a62.781 62.781 0 0 0-.337-2.729 33.836 33.836 0 0 0-1.153-4.897 25.347 25.347 0 0 0-2.391-5.23 27.12 27.12 0 0 0-3.44-4.44Zm14.48-13.294c-.442-2.066-1.264-4.197-2.393-6.206.545 1.911.88 3.785.994 5.561.1 1.649-.088 3.14-.55 4.377-.451 1.165-1.189 2.022-2.151 2.499-.995.469-2.147.628-3.399.47-1.74-.196-3.707-1-5.756-1.839-.935-.382-1.887-.771-2.842-1.113-1.536-.562-3.04-.929-4.49-1.096-1.434-.152-2.785-.046-4.02.316 2.81.446 5.76 1.477 8.746 3.056l1.114.576.523.274c.95.498 1.914 1.003 2.899 1.477 1.614.806 3.206 1.347 4.733 1.611 1.6.277 3.056.07 4.264-.606 1.22-.714 2.075-2.001 2.472-3.717.348-1.637.3-3.573-.143-5.64Zm-8.432-26.878c2.783 5.038 7.15 8.279 11.902 11.805 4.31 3.197 8.934 6.629 12.976 11.847 9.538 12.308 8.144 24.716 4.905 27.709.292-7.832-6.721-15.166-14.028-22.809-8.335-8.718-17.053-17.836-15.755-28.552Zm-13.085.324a11.24 11.24 0 0 0-1.886-3.115c-.78-.908-1.657-1.608-2.53-2.019-.885-.402-1.72-.462-2.39-.173-.67.288-1.145.912-1.358 1.787-.651 2.411.039 5.028 3.373 6.578l.17.078c2.26 1.014 6.665 2.198 4.621-3.136Zm-3.658-34.845c2.5 2.565 4.787 5.561 6.729 8.819a99.433 99.433 0 0 1 3.564 6.446c8.229 2.88 14.902 8.394 20.03 14.58l.118.135a59.85 59.85 0 0 1 5.209 7.343 74.211 74.211 0 0 1 3.042 5.497l.071.15c3.03 6.178 4.526 11.647 4.53 14.44l-.02-.045a28.477 28.477 0 0 0-1.011-2.405c-1.107-2.372-2.695-4.53-4.5-6.115a31.788 31.788 0 0 0-3.667-2.783c-.904-.597-1.82-1.179-2.746-1.766-.36-.228-.72-.456-1.08-.686-2.592-1.661-5.245-3.5-7.837-5.849a43.574 43.574 0 0 1-1.921-1.835 38.244 38.244 0 0 1-1.918-2.073 39.06 39.06 0 0 1-3.36-4.756c-1.838-3.036-3.314-6.107-4.763-9.124a157.337 157.337 0 0 1-.372-.773 171.931 171.931 0 0 0-4.762-9.558 52.132 52.132 0 0 0-5.831-8.626c-2.268-2.629-4.731-4.863-7.26-6.586 2.623 1.186 5.277 3.092 7.755 5.57Zm-1.717 3.857c-1.38-2.638-3.522-4.84-5.621-6.403a16.627 16.627 0 0 0-.15 1.736c-.093 4.97 1.452 11.38 4.442 16.941a26.905 26.905 0 0 0 3.399 4.955c.745.849 2.721 3.03 3.454 2.517a.374.374 0 0 0 .101-.235.849.849 0 0 0-.04-.336c-.121-.47-.356-.969-.588-1.464-.165-.351-.33-.7-.452-1.036a45.428 45.428 0 0 0-.389-1.014c-.248-.633-.496-1.266-.686-1.908-.43-1.443-.684-2.848-.912-4.246l-.365-2.256c-.388-2.339-.92-4.817-2.193-7.251Z" clip-rule="evenodd"/><defs><linearGradient id="b" x1="190.745" x2="648.745" y1="218.375" y2="736.375" gradientUnits="userSpaceOnUse"><stop stop-color="#3A17CA"/><stop offset="1" stop-color="#3A17CA" stop-opacity="0"/></linearGradient><filter id="a" width="142.403" height="87.37" x="10.185" y="171.096" color-interpolation-filters="sRGB" filterUnits="userSpaceOnUse"><feFlood flood-opacity="0" result="BackgroundImageFix"/><feBlend in="SourceGraphic" in2="BackgroundImageFix" result="shape"/><feGaussianBlur result="effect1_foregroundBlur_7311_99778" stdDeviation="1"/></filter></defs></svg>