<svg xmlns="http://www.w3.org/2000/svg" width="64" height="64" fill="none"><rect width="15" height="15" x="4" y="20.945" stroke="#79EFBD" stroke-width="2" rx="1"/><rect width="15" height="15" x="4" y="42.945" stroke="#79EFBD" stroke-width="2" rx="1"/><rect width="15" height="15" x="26" y="42.945" stroke="#79EFBD" stroke-width="2" rx="1"/><path fill="#F7F6FF" fill-rule="evenodd" d="M30.853 19.955H27a2 2 0 0 0-2 2v13a2 2 0 0 0 2 2h13a2 2 0 0 0 2-2v-2.22a13.698 13.698 0 0 1-7.138-3.76 13.573 13.573 0 0 1-4.009-9.02Z" clip-rule="evenodd"/><circle r="13.698" stroke="#F7F6FF" stroke-width="3.089" transform="scale(1.00285 .99714) rotate(-45 45.608 -43.968)"/><path stroke="#F7F6FF" stroke-width="3.089" d="M0-1.545h14.503" transform="scale(1.00285 .99714) rotate(45 -10.126 76.715)"/></svg>