<svg xmlns="http://www.w3.org/2000/svg" width="121" height="167" fill="none"><path fill="#0D0B33" stroke="#0D0B33" stroke-linejoin="round" stroke-width="1.34" d="M97.082 150.148c14.322-7.942 22.867-25.486 22.867-49.641V58.768L70.806 11.3 20.295 1v41.972c0 28.899 12.232 62.459 31.953 90.083 10.484 14.685 29.055 25.844 44.834 17.093Z"/><path fill="#8674F5" stroke="#0D0B33" stroke-linejoin="round" stroke-width="1.34" d="M45.387 159.154C19.984 130.999 2.97 92.607 1.205 59.298c-.185-3.492 1.746-6.712 4.804-8.407 6.413-3.554 14.45 1.094 15.485 8.352 4.114 28.816 18.54 60.102 39.178 84.697 4.516 5.382 3.336 13.731-2.808 17.137-4.133 2.292-9.311 1.586-12.477-1.923ZM70.41 163.914a36.554 36.554 0 0 0 7.43-3.1l19.23-10.658c-6.967 3.859-15.3 5.448-24.68 4.422-1.473-.161-2.97.094-4.267.813-5.605 3.106-3.86 10.33 2.288 8.523ZM1.053 11.666v25.639c0 7.331 7.872 11.969 14.285 8.414a9.62 9.62 0 0 0 4.956-8.414V1L1.053 11.666Z"/><path fill="#B4A1FF" stroke="#0D0B33" stroke-linejoin="round" stroke-width="1.34" d="m1.053 11.666 50.511 10.3L70.806 11.3 20.294 1 1.053 11.666Z"/><path fill="#4A21EF" stroke="#0D0B33" stroke-linejoin="round" stroke-width="1.34" d="M100.708 69.435 51.565 21.967 70.805 11.3l49.143 47.468-19.241 10.666Z"/><path fill="#8674F5" stroke="#0D0B33" stroke-linejoin="round" stroke-width="1.34" d="M100.707 111.174V69.435L51.564 21.968l-50.511-10.3V53.64c0 36.848 19.887 81.274 49.827 111.31 29.94 4.536 49.827-16.926 49.827-53.775Z"/><path fill="#F7F6FF" d="m46.51 57.044-10.1 5.832 13.17-7.604c1.034-.597 2.436-.459 3.899.386L80.46 71.236l-9.383 5.417 7.2-4.157-9.383 5.418-22.375-12.918c-.691-.4-1.316-.442-1.773-.189-.472.262-.764.839-.764 1.664v21.757L33.34 69.794c-.615-1.066-.923-2.175-.923-3.106 0-.93.308-1.684.923-2.04l13.17-7.604ZM68.13 105.398c-.46.255-1.088.212-1.782-.188L43.982 92.297 34.6 97.714l7.2-4.157-9.383 5.418 26.982 15.578c1.462.844 2.864.983 3.898.386l13.171-7.605-10.1 5.832 13.17-7.605c.616-.355.923-1.108.923-2.039s-.307-2.04-.922-3.105L68.893 81.982v21.758c0 .822-.293 1.397-.764 1.658Z"/><path stroke="#0D0B33" stroke-linejoin="round" stroke-width="1.34" d="m46.51 57.044-10.1 5.832 13.17-7.604c1.034-.597 2.436-.459 3.899.386L80.46 71.236l-9.383 5.417 7.2-4.157-9.383 5.418-22.375-12.918c-.691-.4-1.316-.442-1.773-.189-.472.262-.764.839-.764 1.664v21.757L33.34 69.794c-.615-1.066-.923-2.175-.923-3.106 0-.93.308-1.684.923-2.04l13.17-7.604ZM68.13 105.398c-.46.255-1.088.212-1.782-.188L43.982 92.297 34.6 97.714l7.2-4.157-9.383 5.418 26.982 15.578c1.462.844 2.864.983 3.898.386l13.171-7.605-10.1 5.832 13.17-7.605c.616-.355.923-1.108.923-2.039s-.307-2.04-.922-3.105L68.893 81.982v21.758c0 .822-.293 1.397-.764 1.658Z"/><path fill="#F7F6FF" stroke="#0D0B33" stroke-linejoin="round" stroke-width="1.34" d="m28.678 100.829-9.383 5.417 13.12-7.272 9.382-5.417-13.12 7.272Z"/><path fill="#F7F6FF" d="m21.478 104.985 7.2-4.156 13.119-7.272-7.2 4.156-13.12 7.272c-.395.229-.202.117 0 0Z"/><path stroke="#0D0B33" stroke-linejoin="round" stroke-width="1.34" d="M28.677 100.829c-8.133 4.696-7.696 4.443-7.2 4.156l13.12-7.272 7.2-4.156-13.12 7.272Z"/><path fill="#F7F6FF" stroke="#0D0B33" stroke-linejoin="round" stroke-width="1.34" d="m30.861 99.569-9.383 5.417 13.12-7.272 9.383-5.417-13.12 7.272ZM19.295 106.247l26.981 15.578 13.12-7.272-26.982-15.578-13.12 7.272ZM30.86 95.502 20.217 77.067l13.12-7.272L43.978 88.23 30.86 95.502Z"/><path fill="#F7F6FF" stroke="#0D0B33" stroke-linejoin="round" stroke-width="1.34" d="M20.218 77.067c-.616-1.066-.923-2.174-.923-3.105l13.12-7.273c0 .932.307 2.04.922 3.106l-13.12 7.272ZM19.295 73.96c0-.93.307-1.684.923-2.04l13.119-7.272c-.615.356-.923 1.109-.923 2.04l-13.12 7.272ZM50.174 122.211c-1.034.597-2.436.458-3.899-.386l13.12-7.272c1.425.823 2.793.975 3.819.43l.08-.044-.08.044-13.04 7.228Z"/><path fill="#0D0B33" stroke="#0D0B33" stroke-linejoin="round" stroke-width="1.34" d="M53.227 112.482 30.861 99.569l13.12-7.272 22.365 12.913-13.119 7.272ZM30.861 73.743V95.5l13.12-7.273V66.471l-13.12 7.272Z"/><path fill="#F7F6FF" stroke="#0D0B33" stroke-linejoin="round" stroke-width="1.34" d="m20.217 71.922 13.17-7.605 13.12-7.272-13.17 7.605-13.12 7.272ZM31.625 72.079c-.472.261-.764.839-.764 1.664l13.12-7.273c0-.825.292-1.402.763-1.663l-13.119 7.272Z"/><path fill="#F7F6FF" stroke="#0D0B33" stroke-linejoin="round" stroke-width="1.34" d="m33.388 64.317-10.1 5.831 13.118-7.272 10.101-5.831-13.12 7.272ZM50.174 122.211l13.17-7.605 13.12-7.272-13.17 7.605-13.12 7.272ZM55.01 112.67c-.459.254-1.088.212-1.782-.189l13.12-7.272c.694.401 1.323.443 1.782.189l-13.12 7.272ZM33.397 72.267c-.692-.399-1.317-.441-1.774-.188l13.12-7.272c.456-.254 1.081-.211 1.773.188l-13.12 7.272Z"/><path fill="#F7F6FF" stroke="#0D0B33" stroke-linejoin="round" stroke-width="1.34" d="m23.287 70.148 13.171-7.604 13.12-7.272-13.172 7.604-13.119 7.272ZM63.345 114.606l-10.1 5.831 13.118-7.272 10.1-5.831-13.118 7.272ZM55.774 111.012c0 .823-.293 1.398-.764 1.659l13.12-7.272c.47-.261.763-.836.763-1.659l-13.119 7.272Z"/><path fill="#F7F6FF" stroke="#0D0B33" stroke-linejoin="round" stroke-width="1.34" d="m53.244 120.437 13.171-7.604 13.12-7.272-13.172 7.604-13.119 7.272ZM55.772 89.255v21.757l13.119-7.272V81.982l-13.12 7.273ZM55.771 85.186 33.397 72.268l13.119-7.272L68.89 77.914l-13.119 7.272Z"/><path fill="#4A21EF" fill-rule="evenodd" d="m55.772 89.255 10.643 18.435.001-.001c.615 1.065.923 2.173.923 3.104v.001c0 .931-.308 1.684-.923 2.039l13.12-7.272c.614-.355.922-1.109.922-2.04s-.308-2.039-.923-3.105l-.001.001L68.89 81.982l-13.12 7.273Z" clip-rule="evenodd"/><path fill="#0D0B33" d="m66.415 107.69-.58.335a.67.67 0 0 0 .905.251l-.325-.586ZM55.77 89.255l-.324-.586a.67.67 0 0 0-.256.92l.58-.334Zm10.645 18.434.58-.335a.67.67 0 0 0-.904-.251l.324.586Zm.923 3.104h-.67a.67.67 0 0 0 .994.586l-.324-.586Zm0 0 .546.389a.67.67 0 0 0-.87-.975l.324.586Zm0 .001-.546-.389a.667.667 0 0 0-.124.389h.67Zm-.923 2.039-.335-.58a.67.67 0 0 0 .66 1.166l-.325-.586Zm13.12-7.272.324.586.01-.006-.335-.58Zm.922-2.04h.67c0-.37-.3-.67-.67-.67v.67Zm0 0-.325-.586a.67.67 0 0 0 .324 1.256v-.67Zm0 0 .325.586a.669.669 0 0 0 .345-.586h-.67Zm-.923-3.105.58-.335a.67.67 0 0 0-.905-.25l.325.585Zm-.001.001-.58.335a.67.67 0 0 0 .905.251l-.325-.586ZM68.89 81.982l.58-.335a.67.67 0 0 0-.905-.25l.325.585Zm-1.896 25.373L56.352 88.92l-1.16.67 10.643 18.435 1.16-.67Zm-.903-.252-.002.001.65 1.172.001-.001-.65-1.172Zm-.256.921c.567.982.833 1.976.833 2.769h1.34c0-1.068-.35-2.291-1.012-3.439l-1.16.67Zm1.827 3.355-.648-1.172.648 1.172Zm-.87-.975v.001l1.091.778v-.001l-1.09-.778Zm-.124.39c0 .814-.268 1.274-.588 1.459l.67 1.16c.91-.525 1.258-1.571 1.258-2.619h-1.34Zm.072 2.625 13.12-7.272-.65-1.172-13.12 7.272.65 1.172Zm13.13-7.278c.91-.525 1.257-1.572 1.257-2.62h-1.34c0 .815-.268 1.275-.588 1.46l.67 1.16Zm.587-3.29v1.34-1.34Zm.324 1.257v-.001l-.648-1.172h-.001l.649 1.173Zm.346-.587c0-1.068-.35-2.291-1.012-3.44l-1.16.67c.566.982.832 1.976.832 2.77h1.34Zm-1.918-3.69h-.001l.65 1.172.001-.001-.65-1.172Zm-10.9-17.514 10.644 18.435 1.16-.67-10.643-18.435-1.16.67Zm-12.214 7.524 13.12-7.273-.65-1.172-13.12 7.273.65 1.172Z"/><path fill="#4A21EF" fill-rule="evenodd" d="M36.538 62.5c1.026-.546 2.394-.393 3.82.43l26.981 15.578 13.12-7.272-26.982-15.578-.003.001.003-.001c-1.462-.845-2.865-.983-3.899-.386L36.538 62.5Zm-.079.044.08-.044-.08.044Z" clip-rule="evenodd"/><path fill="#0D0B33" d="m40.358 62.93-.335.58a.67.67 0 0 0 .66.006l-.325-.586Zm0 0 .464.483a.67.67 0 0 0-.788-1.07l.325.586Zm0 0-.464-.483a.67.67 0 0 0 .128 1.064l.335-.58Zm26.981 15.578-.335.58a.67.67 0 0 0 .66.006l-.325-.586Zm13.12-7.272.324.586a.67.67 0 0 0 .01-1.166l-.335.58ZM53.476 55.658l.335-.58a.67.67 0 0 0-.556-.052l.22.632Zm-.003.001-.324-.586a.67.67 0 0 0 .546 1.218l-.222-.632Zm.003-.001.325.586a.67.67 0 0 0 .01-1.167l-.335.58Zm-3.899-.386.325.586.01-.006-.335-.58ZM36.46 62.544l-.335-.58a.67.67 0 0 0 .66 1.166l-.325-.586Zm4.233-.194c-1.534-.886-3.16-1.137-4.468-.442l.63 1.183c.743-.395 1.853-.34 3.169.42l.67-1.161Zm-.658-.007h-.001l.65 1.173-.649-1.173Zm-.139.102-.001.002.927.967h.001l-.927-.969Zm.127 1.066 26.982 15.578.67-1.16L40.692 62.35l-.67 1.16Zm27.642 15.583 13.12-7.272-.65-1.172-13.12 7.272.65 1.172Zm13.13-8.438L53.811 55.078l-.67 1.16 26.981 15.579.67-1.161Zm-27.538-15.63h-.003l.443 1.265h.002l-.442-1.265Zm-.104.046-.002.001.65 1.172.002-.001-.65-1.172Zm-3.239.78c.746-.431 1.878-.394 3.229.386l.67-1.16c-1.574-.91-3.247-1.15-4.569-.387l.67 1.16Zm-13.05 7.234 13.04-7.228-.65-1.172-13.04 7.228.65 1.172Zm-.069.038.06-.033-.63-1.183a3.477 3.477 0 0 0-.1.055l.67 1.16Zm-.58-1.21-.08.044.65 1.172.08-.044-.65-1.172Z"/><path fill="#F7F6FF" stroke="#0D0B33" stroke-linejoin="round" stroke-width="1.34" d="m65.154 79.768-9.382 5.417 13.119-7.272 9.383-5.417-13.12 7.272Z"/><path fill="#F7F6FF" stroke="#0D0B33" stroke-linejoin="round" stroke-width="1.34" d="m57.954 83.925 7.2-4.157 13.12-7.272-7.2 4.157-13.12 7.272Z"/><path fill="#F7F6FF" stroke="#0D0B33" stroke-linejoin="round" stroke-width="1.34" d="m67.338 78.508-9.383 5.418 13.12-7.273 9.382-5.417-13.12 7.272Z"/><path fill="#F7F6FF" fill-rule="evenodd" d="M36.459 62.544c1.034-.597 2.436-.458 3.898.386L67.34 78.508l-11.566 6.678-22.375-12.918c-1.406-.812-2.537-.149-2.537 1.475v21.758L20.218 77.066c-.616-1.066-.923-2.174-.923-3.105s.307-1.685.923-2.04l16.241-9.377Zm16.768 49.938L30.86 99.569l-11.566 6.678 26.981 15.578c1.463.844 2.865.983 3.899.386l16.241-9.377c.615-.355.923-1.109.923-2.04s-.308-2.039-.923-3.105L55.773 89.254v21.758c0 1.624-1.14 2.282-2.546 1.47Z" clip-rule="evenodd"/><path fill="#0D0B33" d="M40.358 62.93v-.67.67Zm-3.899-.386-.41-.71.41.71Zm30.88 15.964.41.71c.166-.095.216-.355.126-.657-.09-.302-.301-.588-.536-.723v.67Zm-11.566 6.678v.67c.154.089.301.103.41.04l-.41-.71ZM30.86 95.5l-.41.237c.166.287.415.489.632.51.217.022.358-.141.358-.412l-.58-.335ZM20.218 77.066l-.41.237.41-.237Zm-.923-3.105-.58-.335.58.335Zm.923-2.04.41.71-.41-.71ZM30.86 99.57v-.67c-.154-.089-.301-.103-.41-.04l.41.71Zm22.366 12.913v-.67.67Zm-33.932-6.235-.41-.711c-.166.096-.216.356-.126.658.09.302.301.587.536.723v-.67Zm26.981 15.578v.67-.67Zm3.899.386-.41-.711.41.711Zm16.241-9.377-.41-.711.41.711Zm.923-2.04.58.335-.58-.335Zm-.923-3.105.41-.237-.41.237ZM55.773 89.254l.41-.237c-.166-.287-.415-.489-.632-.51-.217-.022-.358.141-.358.412l.58.335Zm0 21.758-.58-.335.58.335ZM40.357 62.26c-1.616-.933-3.166-1.087-4.308-.427l.82 1.422c.925-.535 2.18-.41 3.489.345v-1.34ZM67.34 77.838 40.358 62.26v1.34l26.981 15.578v-1.34Zm-11.156 8.059 11.566-6.678-.82-1.422-11.566 6.678.82 1.422Zm-22.785-12.96 22.375 12.919v-1.34L33.398 71.598v1.34Zm-1.957 1.141c0-1.257.874-1.766 1.957-1.14v-1.34c-1.729-.999-3.117-.18-3.117 1.81l1.16.67Zm0 21.758V74.078l-1.16-.67v21.758l1.16.67ZM19.807 77.303l10.644 18.435.82-.474-10.643-18.435-.82.474Zm-1.092-3.677c0 1.101.364 2.415 1.092 3.677l.821-.474c-.502-.87-.753-1.773-.753-2.533l-1.16-.67Zm1.092-2.416c-.728.421-1.092 1.314-1.092 2.416l1.16.67c0-.76.251-1.374.753-1.664l-.82-1.422Zm16.242-9.377L19.807 71.21l.82 1.422 16.242-9.378-.82-1.42ZM30.86 100.24l22.366 12.913v-1.34L30.86 98.899v1.34Zm-11.156 6.719 11.566-6.678-.82-1.422-11.566 6.678.82 1.422Zm26.572 14.197-26.982-15.578v1.34l26.981 15.578v-1.34Zm3.488.345c-.925.535-2.18.41-3.489-.345v1.34c1.617.933 3.167 1.086 4.31.427l-.821-1.422Zm16.241-9.377L49.765 121.5l.82 1.422 16.242-9.378-.82-1.421Zm.753-1.664c0 .761-.25 1.374-.753 1.664l.82 1.421c.729-.42 1.093-1.313 1.093-2.415l-1.16-.67Zm-.753-2.533c.502.869.753 1.773.753 2.533l1.16.67c0-1.101-.364-2.415-1.092-3.677l-.82.474ZM55.363 89.491l10.643 18.435.82-.474-10.643-18.435-.82.474Zm.99 21.856V89.589l-1.16-.67v21.758l1.16.67Zm-3.126 1.805c1.726.997 3.126.189 3.126-1.805l-1.16-.67c0 1.254-.88 1.762-1.966 1.135v1.34Z"/></svg>