<svg width="121" height="167" viewBox="0 0 121 167" fill="none" xmlns="http://www.w3.org/2000/svg">
<path d="M97.0822 150.148C111.404 142.206 119.949 124.662 119.949 100.507V58.7684L70.8062 11.3003L20.2949 1L20.2949 42.9718C20.2949 71.871 32.5272 105.431 52.248 133.055C62.7316 147.74 81.303 158.899 97.0822 150.148Z" fill="#0D0B33" stroke="#0D0B33" stroke-width="1.34" stroke-linejoin="round"/>
<path d="M45.387 159.154C19.9839 130.999 2.97044 92.6067 1.20477 59.298C1.01965 55.8056 2.95053 52.5865 6.00929 50.891C12.4217 47.3365 20.4583 51.9853 21.4945 59.2434C25.6083 88.0595 40.0342 119.345 60.6717 143.94C65.1875 149.322 64.0083 157.671 57.8637 161.077C53.7305 163.369 48.5527 162.663 45.387 159.154Z" fill="#8674F5" stroke="#0D0B33" stroke-width="1.34" stroke-linejoin="round"/>
<path d="M70.4106 163.914C73.032 163.143 75.5127 162.105 77.8408 160.814L97.0693 150.156C90.1027 154.015 81.7703 155.604 72.3907 154.578C70.9169 154.417 69.4193 154.672 68.1226 155.391C62.5181 158.497 64.2628 165.721 70.4106 163.914Z" fill="#8674F5" stroke="#0D0B33" stroke-width="1.34" stroke-linejoin="round"/>
<path d="M1.05273 11.6658V37.3047C1.05273 44.6364 8.9254 49.2737 15.3378 45.7192C18.3966 44.0237 20.2944 40.8019 20.2944 37.3047V1L1.05273 11.6658Z" fill="#8674F5" stroke="#0D0B33" stroke-width="1.34" stroke-linejoin="round"/>
<path d="M1.05273 11.6658L51.564 21.9661L70.8056 11.3003L20.2944 1L1.05273 11.6658Z" fill="#B4A1FF" stroke="#0D0B33" stroke-width="1.34" stroke-linejoin="round"/>
<path d="M100.708 69.4347L51.5645 21.9666L70.8061 11.3008L119.949 58.7689L100.708 69.4347Z" fill="#4A21EF" stroke="#0D0B33" stroke-width="1.34" stroke-linejoin="round"/>
<path d="M100.707 111.174V69.4355L51.564 21.9674L1.05274 11.6671L1.05273 53.6389C1.05274 90.4871 20.9397 134.913 50.88 164.949C80.8203 169.485 100.707 148.023 100.707 111.174Z" fill="#8674F5" stroke="#0D0B33" stroke-width="1.34" stroke-linejoin="round"/>
<path d="M46.5097 57.0443C47.2086 56.6407 47.8248 56.285 36.4091 62.8761C49.1053 55.5456 49.5801 55.2715 49.5801 55.2715C50.614 54.6746 52.0164 54.8135 53.4786 55.6577L80.4602 71.2357C80.4602 71.2357 74.4294 74.7176 71.0774 76.6529C70.5809 76.9396 70.1432 77.1923 78.2768 72.4963C69.232 77.7183 68.894 77.9135 68.894 77.9135L46.5194 64.9955C45.8277 64.5962 45.2026 64.5537 44.746 64.807C44.2742 65.0686 43.9822 65.6457 43.9822 66.4707V88.2285L33.3388 69.7935C32.7236 68.728 32.416 67.6194 32.416 66.6884C32.416 65.7574 32.7236 65.004 33.3387 64.6488C33.3387 64.6488 41.8019 59.7624 46.5097 57.0443Z" fill="#F7F6FF"/>
<path d="M68.1297 105.398C67.6705 105.653 67.0416 105.61 66.3479 105.21L43.9822 92.2967C43.9822 92.2967 37.9515 95.7786 34.5995 97.7139C34.1029 98.0006 33.6652 98.2533 41.7988 93.5574C32.754 98.7794 32.416 98.9745 32.416 98.9745L59.3976 114.553C60.8598 115.397 62.2622 115.536 63.2961 114.939C63.2961 114.939 71.7592 110.052 76.4671 107.334C77.166 106.931 77.7822 106.575 66.3666 113.166C79.0627 105.835 79.5375 105.561 79.5375 105.561C80.1526 105.206 80.4602 104.453 80.4602 103.522C80.4602 102.591 80.1526 101.482 79.5375 100.417L68.894 81.9816V103.74C68.894 104.562 68.6014 105.137 68.1297 105.398Z" fill="#F7F6FF"/>
<path d="M46.5097 57.0443C47.2086 56.6407 47.8248 56.285 36.4091 62.8761C49.1053 55.5456 49.5801 55.2715 49.5801 55.2715C50.614 54.6746 52.0164 54.8135 53.4786 55.6577L80.4602 71.2357C80.4602 71.2357 74.4294 74.7176 71.0774 76.6529C70.5809 76.9396 70.1432 77.1923 78.2768 72.4963C69.232 77.7183 68.894 77.9135 68.894 77.9135L46.5194 64.9955C45.8277 64.5962 45.2026 64.5537 44.746 64.807C44.2742 65.0686 43.9822 65.6457 43.9822 66.4707V88.2285L33.3388 69.7935C32.7236 68.728 32.416 67.6194 32.416 66.6884C32.416 65.7574 32.7236 65.004 33.3387 64.6488C33.3387 64.6488 41.8019 59.7624 46.5097 57.0443Z" stroke="#0D0B33" stroke-width="1.34" stroke-linejoin="round"/>
<path d="M68.1297 105.398C67.6705 105.653 67.0416 105.61 66.3479 105.21L43.9822 92.2967C43.9822 92.2967 37.9515 95.7786 34.5995 97.7139C34.1029 98.0006 33.6652 98.2533 41.7988 93.5574C32.754 98.7794 32.416 98.9745 32.416 98.9745L59.3976 114.553C60.8598 115.397 62.2622 115.536 63.2961 114.939C63.2961 114.939 71.7592 110.052 76.4671 107.334C77.166 106.931 77.7822 106.575 66.3666 113.166C79.0627 105.835 79.5375 105.561 79.5375 105.561C80.1526 105.206 80.4602 104.453 80.4602 103.522C80.4602 102.591 80.1526 101.482 79.5375 100.417L68.894 81.9816V103.74C68.894 104.562 68.6014 105.137 68.1297 105.398Z" stroke="#0D0B33" stroke-width="1.34" stroke-linejoin="round"/>
<path d="M28.6777 100.829L19.2949 106.246L32.4142 98.9738L41.797 93.5566L28.6777 100.829Z" fill="#F7F6FF" stroke="#0D0B33" stroke-width="1.34" stroke-linejoin="round"/>
<path d="M21.4779 104.985C22.0516 104.654 23.8629 103.608 28.6772 100.829L41.7965 93.5566C33.6629 98.2526 34.1007 97.9999 34.5972 97.7132L21.4779 104.985C21.0824 105.214 21.2753 105.102 21.4779 104.985L21.4779 104.985Z" fill="#F7F6FF"/>
<path d="M28.6772 100.829C20.5436 105.525 20.9814 105.272 21.4779 104.985L34.5972 97.7132C34.1007 97.9999 33.6629 98.2526 41.7965 93.5566L28.6772 100.829Z" stroke="#0D0B33" stroke-width="1.34" stroke-linejoin="round"/>
<path d="M30.8613 99.569L21.4785 104.986L34.5978 97.714L43.9806 92.2969L30.8613 99.569Z" fill="#F7F6FF" stroke="#0D0B33" stroke-width="1.34" stroke-linejoin="round"/>
<path d="M19.2949 106.247L46.2765 121.825L59.3958 114.553L32.4142 98.9746L19.2949 106.247Z" fill="#F7F6FF" stroke="#0D0B33" stroke-width="1.34" stroke-linejoin="round"/>
<path d="M30.8603 95.5021L20.2168 77.0671L33.3361 69.7949L43.9795 88.23L30.8603 95.5021Z" fill="#F7F6FF" stroke="#0D0B33" stroke-width="1.34" stroke-linejoin="round"/>
<path d="M20.2177 77.0667C19.6025 76.0012 19.2949 74.8926 19.2949 73.9616L32.4142 66.6895C32.4142 67.6205 32.7218 68.729 33.337 69.7945L20.2177 77.0667Z" fill="#F7F6FF" stroke="#0D0B33" stroke-width="1.34" stroke-linejoin="round"/>
<path d="M19.2949 73.9602C19.2949 73.0292 19.6025 72.2758 20.2176 71.9206L33.3369 64.6484C32.7218 65.0036 32.4142 65.757 32.4142 66.688L19.2949 73.9602Z" fill="#F7F6FF" stroke="#0D0B33" stroke-width="1.34" stroke-linejoin="round"/>
<path d="M50.1739 122.211C49.14 122.808 47.7376 122.669 46.2754 121.825L59.3947 114.553C60.8198 115.376 62.188 115.528 63.2137 114.983L63.2932 114.939C63.2669 114.954 63.2404 114.969 63.2137 114.983L50.1739 122.211Z" fill="#F7F6FF" stroke="#0D0B33" stroke-width="1.34" stroke-linejoin="round"/>
<path d="M53.227 112.482L30.8613 99.569L43.9806 92.2969L66.3463 105.21L53.227 112.482Z" fill="#0D0B33" stroke="#0D0B33" stroke-width="1.34" stroke-linejoin="round"/>
<path d="M30.8613 73.7428V95.5007L43.9806 88.2285V66.4707L30.8613 73.7428Z" fill="#0D0B33" stroke="#0D0B33" stroke-width="1.34" stroke-linejoin="round"/>
<path d="M20.2168 71.9216L33.3878 64.3171L46.5071 57.0449L33.3361 64.6495L20.2168 71.9216Z" fill="#F7F6FF" stroke="#0D0B33" stroke-width="1.34" stroke-linejoin="round"/>
<path d="M31.6251 72.0788C31.1533 72.3404 30.8613 72.9175 30.8613 73.7425L43.9806 66.4704C43.9806 65.6453 44.2726 65.0682 44.7444 64.8066L31.6251 72.0788Z" fill="#F7F6FF" stroke="#0D0B33" stroke-width="1.34" stroke-linejoin="round"/>
<path d="M33.3877 64.3166L23.2871 70.1484L36.4064 62.8763L46.507 57.0445L33.3877 64.3166Z" fill="#F7F6FF" stroke="#0D0B33" stroke-width="1.34" stroke-linejoin="round"/>
<path d="M50.1738 122.211L63.3447 114.606L76.464 107.334L63.2931 114.939L50.1738 122.211Z" fill="#F7F6FF" stroke="#0D0B33" stroke-width="1.34" stroke-linejoin="round"/>
<path d="M55.0104 112.67C54.5512 112.924 53.9222 112.882 53.2285 112.481L66.3478 105.209C67.0415 105.61 67.6705 105.652 68.1297 105.398L55.0104 112.67Z" fill="#F7F6FF" stroke="#0D0B33" stroke-width="1.34" stroke-linejoin="round"/>
<path d="M33.3965 72.2673C32.705 71.868 32.08 71.8255 31.6234 72.0785L44.7423 64.8066C45.199 64.5534 45.8241 64.5958 46.5158 64.9951L33.3965 72.2673Z" fill="#F7F6FF" stroke="#0D0B33" stroke-width="1.34" stroke-linejoin="round"/>
<path d="M23.2871 70.1482L36.4581 62.5436L49.5774 55.2715L36.4064 62.876L23.2871 70.1482Z" fill="#F7F6FF" stroke="#0D0B33" stroke-width="1.34" stroke-linejoin="round"/>
<path d="M63.3446 114.606L53.2441 120.437L66.3634 113.165L76.4639 107.334L63.3446 114.606Z" fill="#F7F6FF" stroke="#0D0B33" stroke-width="1.34" stroke-linejoin="round"/>
<path d="M55.774 111.012C55.774 111.835 55.4815 112.41 55.0101 112.671L68.1291 105.399C68.6007 105.138 68.8933 104.563 68.8933 103.74L55.774 111.012Z" fill="#F7F6FF" stroke="#0D0B33" stroke-width="1.34" stroke-linejoin="round"/>
<path d="M53.2441 120.437L66.4151 112.833L79.5344 105.561L66.3634 113.165L53.2441 120.437Z" fill="#F7F6FF" stroke="#0D0B33" stroke-width="1.34" stroke-linejoin="round"/>
<path d="M55.7715 89.2546V111.012L68.8908 103.74V81.9824L55.7715 89.2546Z" fill="#F7F6FF" stroke="#0D0B33" stroke-width="1.34" stroke-linejoin="round"/>
<path d="M55.7711 85.1862L33.3965 72.2682L46.5158 64.9961L68.8904 77.9141L55.7711 85.1862Z" fill="#F7F6FF" stroke="#0D0B33" stroke-width="1.34" stroke-linejoin="round"/>
<path fill-rule="evenodd" clip-rule="evenodd" d="M55.7715 89.2546L66.4149 107.69L66.4164 107.689C67.0313 108.754 67.3387 109.862 67.3388 110.793L67.3392 110.793L67.3387 110.794C67.3387 111.725 67.0312 112.478 66.416 112.833L79.5353 105.561C80.1505 105.206 80.458 104.452 80.458 103.521H80.4573L80.458 103.521C80.458 102.59 80.1505 101.482 79.5353 100.416L79.5338 100.417L68.8908 81.9824L55.7715 89.2546Z" fill="#4A21EF"/>
<path d="M66.4149 107.69L65.8347 108.025C66.0174 108.341 66.4199 108.453 66.7395 108.276L66.4149 107.69ZM55.7715 89.2546L55.4467 88.6686C55.2895 88.7557 55.1739 88.9023 55.1259 89.0755C55.0778 89.2487 55.1014 89.4339 55.1912 89.5896L55.7715 89.2546ZM66.4164 107.689L66.9967 107.354C66.814 107.037 66.4115 106.926 66.0918 107.103L66.4164 107.689ZM67.3388 110.793L66.6688 110.793C66.6688 111.03 66.7942 111.25 66.9985 111.37C67.2028 111.491 67.4556 111.494 67.6632 111.379L67.3388 110.793ZM67.3392 110.793L67.8847 111.182C68.0664 110.927 68.0475 110.581 67.8392 110.347C67.6309 110.113 67.2886 110.055 67.0148 110.207L67.3392 110.793ZM67.3387 110.794L66.7933 110.405C66.7123 110.518 66.6687 110.654 66.6687 110.794L67.3387 110.794ZM66.416 112.833L66.081 112.253C65.7625 112.437 65.6518 112.843 65.8329 113.163C66.014 113.483 66.4192 113.598 66.7408 113.419L66.416 112.833ZM79.5353 105.561L79.8602 106.147L79.8703 106.141L79.5353 105.561ZM80.458 103.521L81.128 103.521C81.128 103.151 80.8281 102.851 80.458 102.851V103.521ZM80.4573 103.521L80.1328 102.935C79.8655 103.083 79.7322 103.393 79.8086 103.689C79.8851 103.985 80.1519 104.191 80.4573 104.191V103.521ZM80.458 103.521L80.7826 104.107C80.9958 103.989 81.1281 103.765 81.128 103.521L80.458 103.521ZM79.5353 100.416L80.1156 100.081C79.9328 99.7644 79.53 99.6528 79.2103 99.8301L79.5353 100.416ZM79.5338 100.417L78.9536 100.752C79.1364 101.068 79.5392 101.18 79.8588 101.003L79.5338 100.417ZM68.8908 81.9824L69.471 81.6474C69.2883 81.3309 68.8856 81.2192 68.566 81.3964L68.8908 81.9824ZM66.9952 107.355L56.3517 88.9196L55.1912 89.5896L65.8347 108.025L66.9952 107.355ZM66.0918 107.103L66.0904 107.104L66.7395 108.276L66.741 108.275L66.0918 107.103ZM65.8361 108.024C66.403 109.006 66.6687 110 66.6688 110.793L68.0088 110.793C68.0087 109.725 67.6596 108.502 66.9967 107.354L65.8361 108.024ZM67.6632 111.379L67.6636 111.379L67.0148 110.207L67.0143 110.207L67.6632 111.379ZM66.7937 110.404L66.7933 110.405L67.8842 111.183L67.8847 111.182L66.7937 110.404ZM66.6687 110.794C66.6687 111.608 66.4011 112.068 66.081 112.253L66.751 113.413C67.6612 112.888 68.0087 111.842 68.0087 110.794L66.6687 110.794ZM66.7408 113.419L79.8601 106.147L79.2105 104.975L66.0912 112.247L66.7408 113.419ZM79.8703 106.141C80.7805 105.616 81.128 104.569 81.128 103.521L79.788 103.521C79.788 104.336 79.5204 104.796 79.2003 104.981L79.8703 106.141ZM80.458 102.851H80.4573V104.191H80.458V102.851ZM80.7819 104.108L80.7826 104.107L80.1335 102.935L80.1328 102.935L80.7819 104.108ZM81.128 103.521C81.128 102.453 80.7788 101.23 80.1156 100.081L78.9551 100.751C79.5222 101.733 79.788 102.727 79.788 103.521L81.128 103.521ZM79.2103 99.8301L79.2088 99.8309L79.8588 101.003L79.8603 101.002L79.2103 99.8301ZM68.3105 82.3174L78.9536 100.752L80.1141 100.082L69.471 81.6474L68.3105 82.3174ZM56.0963 89.8406L69.2156 82.5684L68.566 81.3964L55.4467 88.6686L56.0963 89.8406Z" fill="#0D0B33"/>
<path fill-rule="evenodd" clip-rule="evenodd" d="M36.5385 62.4996C37.5642 61.9542 38.9324 62.1071 40.3575 62.9298L40.3586 62.9292L40.3574 62.9303L67.339 78.5084L80.4583 71.2362L53.4767 55.6582L53.4744 55.659L53.4768 55.6577C52.0146 54.8135 50.6122 54.6746 49.5783 55.2715L36.5385 62.4996ZM36.459 62.5437C36.4853 62.5285 36.5118 62.5138 36.5385 62.4996L36.459 62.5437Z" fill="#4A21EF"/>
<path d="M40.3575 62.9298L40.0225 63.5101C40.2261 63.6276 40.4765 63.6299 40.6821 63.5159L40.3575 62.9298ZM40.3586 62.9292L40.822 63.4131C41.0652 63.1803 41.0977 62.8031 40.8981 62.5319C40.6984 62.2608 40.3285 62.18 40.034 62.3431L40.3586 62.9292ZM40.3574 62.9303L39.894 62.4465C39.7417 62.5923 39.667 62.8013 39.6922 63.0106C39.7175 63.2199 39.8398 63.4052 40.0224 63.5106L40.3574 62.9303ZM67.339 78.5084L67.004 79.0886C67.2077 79.2062 67.4581 79.2084 67.6638 79.0944L67.339 78.5084ZM80.4583 71.2362L80.7831 71.8222C80.9943 71.7052 81.1262 71.4835 81.1283 71.2421C81.1304 71.0006 81.0024 70.7767 80.7933 70.656L80.4583 71.2362ZM53.4767 55.6582L53.8117 55.078C53.6428 54.9805 53.4398 54.9614 53.2557 55.0257L53.4767 55.6582ZM53.4744 55.659L53.1497 55.073C52.8453 55.2416 52.7207 55.6153 52.863 55.9329C53.0052 56.2505 53.3669 56.4063 53.6955 56.2915L53.4744 55.659ZM53.4768 55.6577L53.8016 56.2437C54.0128 56.1267 54.1447 55.905 54.1468 55.6636C54.1489 55.4221 54.0209 55.1982 53.8118 55.0774L53.4768 55.6577ZM49.5783 55.2715L49.9032 55.8576L49.9133 55.8518L49.5783 55.2715ZM36.459 62.5437L36.124 61.9634C35.8055 62.1473 35.6948 62.5535 35.8758 62.8736C36.0569 63.1937 36.4622 63.308 36.7838 63.1297L36.459 62.5437ZM40.6925 62.3496C39.1579 61.4636 37.5315 61.2128 36.224 61.908L36.8531 63.0912C37.597 62.6956 38.7069 62.7505 40.0225 63.5101L40.6925 62.3496ZM40.034 62.3431L40.0329 62.3437L40.6821 63.5159L40.6832 63.5154L40.034 62.3431ZM39.8952 62.4453L39.894 62.4465L40.8208 63.4142L40.822 63.4131L39.8952 62.4453ZM40.0224 63.5106L67.004 79.0886L67.674 77.9281L40.6924 62.3501L40.0224 63.5106ZM67.6638 79.0944L80.7831 71.8222L80.1335 70.6502L67.0142 77.9224L67.6638 79.0944ZM80.7933 70.656L53.8117 55.078L53.1417 56.2384L80.1233 71.8165L80.7933 70.656ZM53.2557 55.0257L53.2534 55.0265L53.6955 56.2915L53.6977 56.2907L53.2557 55.0257ZM53.1521 55.0716L53.1497 55.073L53.7992 56.245L53.8016 56.2437L53.1521 55.0716ZM49.9133 55.8518C50.6594 55.421 51.7913 55.4582 53.1418 56.2379L53.8118 55.0774C52.2379 54.1687 50.565 53.9281 49.2433 54.6913L49.9133 55.8518ZM36.8633 63.0856L49.9031 55.8575L49.2535 54.6855L36.2137 61.9136L36.8633 63.0856ZM36.794 63.1239C36.8135 63.1126 36.8332 63.1017 36.8531 63.0912L36.224 61.908C36.1904 61.9259 36.157 61.9444 36.124 61.9634L36.794 63.1239ZM36.2137 61.9136L36.1342 61.9577L36.7838 63.1297L36.8633 63.0856L36.2137 61.9136Z" fill="#0D0B33"/>
<path d="M65.1543 79.7682L55.7715 85.1854L68.8908 77.9133L78.2736 72.4961L65.1543 79.7682Z" fill="#F7F6FF" stroke="#0D0B33" stroke-width="1.34" stroke-linejoin="round"/>
<path d="M57.9544 83.9248L65.1538 79.7682L78.2731 72.4961L71.0737 76.6527L57.9544 83.9248Z" fill="#F7F6FF" stroke="#0D0B33" stroke-width="1.34" stroke-linejoin="round"/>
<path d="M67.3379 78.5085L57.9551 83.9257L71.0744 76.6535L80.4572 71.2363L67.3379 78.5085Z" fill="#F7F6FF" stroke="#0D0B33" stroke-width="1.34" stroke-linejoin="round"/>
<path fill-rule="evenodd" clip-rule="evenodd" d="M36.459 62.5439C37.4929 61.9469 38.8953 62.0858 40.3575 62.93L67.3391 78.508L55.7729 85.1858L33.3983 72.2679C31.9921 71.456 30.8611 72.1193 30.8611 73.7431L30.8611 95.5009L20.2177 77.0658C19.6025 76.0004 19.2949 74.8918 19.2949 73.9608C19.2949 73.0298 19.6025 72.2763 20.2176 71.9212L36.459 62.5439ZM53.2268 112.482L30.8611 99.5691L19.2949 106.247L46.2765 121.825C47.7387 122.669 49.1411 122.808 50.175 122.211L66.4164 112.834C67.0315 112.479 67.3391 111.725 67.3391 110.794C67.3391 109.863 67.0315 108.755 66.4164 107.689L55.7729 89.2539L55.7729 111.012C55.7729 112.636 54.633 113.294 53.2268 112.482Z" fill="#F7F6FF"/>
<path d="M40.3575 62.93L40.3575 62.26L40.3575 62.26L40.3575 62.93ZM36.459 62.5439L36.0487 61.8332L36.459 62.5439ZM67.3391 78.508L67.7494 79.2187C67.9153 79.1229 67.965 78.8634 67.8752 78.5612C67.7854 78.2589 67.5738 77.9735 67.3391 77.838L67.3391 78.508ZM55.7729 85.1858L55.7729 85.8558C55.9268 85.9447 56.0744 85.9593 56.1832 85.8965L55.7729 85.1858ZM30.8611 95.5009L30.4508 95.7378C30.6168 96.0252 30.8663 96.2266 31.0832 96.2481C31.3 96.2696 31.4414 96.1069 31.4414 95.8359L30.8611 95.5009ZM20.2177 77.0658L19.8074 77.3027L19.8074 77.3027L20.2177 77.0658ZM19.2949 73.9608L18.7147 73.6258L19.2949 73.9608ZM20.2176 71.9212L20.6279 72.6318L20.2176 71.9212ZM30.8611 99.5691L30.8611 98.8991C30.7072 98.8102 30.5596 98.7956 30.4508 98.8584L30.8611 99.5691ZM53.2268 112.482L53.2268 111.812L53.2268 112.482ZM19.2949 106.247L18.8846 105.536C18.7187 105.632 18.669 105.892 18.7589 106.194C18.8487 106.496 19.0602 106.781 19.2949 106.917L19.2949 106.247ZM46.2765 121.825L46.2765 122.495L46.2765 122.495L46.2765 121.825ZM50.175 122.211L49.7647 121.5L50.175 122.211ZM66.4164 112.834L66.0061 112.123L66.4164 112.834ZM67.3391 110.794L67.9193 111.129L67.3391 110.794ZM66.4164 107.689L66.8267 107.452L66.8267 107.452L66.4164 107.689ZM55.7729 89.2539L56.1832 89.0171C56.0173 88.7296 55.7677 88.5282 55.5509 88.5067C55.3341 88.4853 55.1927 88.648 55.1927 88.9189L55.7729 89.2539ZM55.7729 111.012L55.1927 110.677L55.7729 111.012ZM40.3575 62.26C38.7414 61.327 37.1915 61.1734 36.0487 61.8332L36.8693 63.2545C37.7944 62.7204 39.0492 62.8447 40.3575 63.6L40.3575 62.26ZM67.3391 77.838L40.3575 62.26L40.3575 63.6L67.3391 79.178L67.3391 77.838ZM56.1832 85.8965L67.7494 79.2187L66.9288 77.7974L55.3626 84.4752L56.1832 85.8965ZM33.3983 72.9379L55.7729 85.8558L55.7729 84.5158L33.3983 71.5979L33.3983 72.9379ZM31.4414 74.0781C31.4414 72.8213 32.3153 72.3125 33.3983 72.9379L33.3983 71.5979C31.669 70.5994 30.2809 71.4174 30.2809 73.4081L31.4414 74.0781ZM31.4414 95.8359L31.4414 74.0781L30.2809 73.4081L30.2809 95.1659L31.4414 95.8359ZM19.8074 77.3027L30.4508 95.7378L31.2714 95.264L20.6279 76.829L19.8074 77.3027ZM18.7147 73.6258C18.7147 74.7272 19.079 76.0412 19.8074 77.3027L20.628 76.829C20.126 75.9595 19.8752 75.0563 19.8752 74.2958L18.7147 73.6258ZM19.8073 71.2105C19.079 71.6311 18.7147 72.5243 18.7147 73.6258L19.8752 74.2958C19.8752 73.5352 20.126 72.9216 20.6279 72.6318L19.8073 71.2105ZM36.0487 61.8332L19.8073 71.2105L20.6279 72.6318L36.8693 63.2545L36.0487 61.8332ZM30.8611 100.239L53.2268 113.152L53.2268 111.812L30.8611 98.8991L30.8611 100.239ZM19.7052 106.958L31.2714 100.28L30.4508 98.8584L18.8846 105.536L19.7052 106.958ZM46.2765 121.155L19.2949 105.577L19.2949 106.917L46.2765 122.495L46.2765 121.155ZM49.7647 121.5C48.8396 122.035 47.5849 121.91 46.2765 121.155L46.2765 122.495C47.8926 123.428 49.4426 123.581 50.5853 122.922L49.7647 121.5ZM66.0061 112.123L49.7647 121.5L50.5853 122.922L66.8267 113.544L66.0061 112.123ZM66.7589 110.459C66.7589 111.22 66.5081 111.833 66.0061 112.123L66.8267 113.544C67.555 113.124 67.9194 112.231 67.9193 111.129L66.7589 110.459ZM66.0061 107.926C66.508 108.795 66.7589 109.699 66.7589 110.459L67.9193 111.129C67.9193 110.028 67.555 108.714 66.8267 107.452L66.0061 107.926ZM55.3626 89.4908L66.0061 107.926L66.8267 107.452L56.1832 89.0171L55.3626 89.4908ZM56.3532 111.347L56.3532 89.5889L55.1927 88.9189L55.1927 110.677L56.3532 111.347ZM53.2268 113.152C54.9534 114.149 56.3532 113.341 56.3532 111.347L55.1927 110.677C55.1927 111.931 54.3125 112.439 53.2268 111.812L53.2268 113.152Z" fill="#0D0B33"/>
</svg>
