<svg xmlns="http://www.w3.org/2000/svg" width="113" height="151" fill="none"><path fill="#fff" stroke="#0D0B33" stroke-width="1.727" d="M49.767 130.879C23.11 115.02 1.5 77.019 1.5 45.999c0-31.017 21.61-43.306 48.267-27.447 26.657 15.86 48.267 53.862 48.267 84.88 0 31.018-21.61 43.307-48.267 27.447Z"/><path fill="#000" d="M45.9 40.304c-1.754-1.012-3.436-1.179-4.675-.463L21.75 51.085c-.737.426-1.106 1.33-1.106 2.446s.369 2.445 1.107 3.723l12.762 22.104V53.27c0-1.947 1.356-2.743 3.042-1.77 7.123 4.114 24.463 14.124 26.828 15.49l13.868-8.007L45.9 40.304ZM34.513 84.236 61.331 99.72c1.686.974 3.053.185 3.053-1.762v-26.09l12.762 22.105c.737 1.278 1.106 2.607 1.106 3.724 0 1.116-.369 2.02-1.106 2.445l-19.474 11.244c-1.24.716-2.922.549-4.675-.463L20.645 92.243l13.868-8.007Z"/><path fill="#79EFBD" stroke="#0D0B33" stroke-width="1.727" d="M49.767 18.552C36.583 10.71 24.634 9.75 15.923 14.537l9.58-5.448c18.85-10.718 49.41 7.463 68.26 40.61 18.85 33.148 18.85 68.709 0 79.428l-9.214 5.239.002-.018c8.35-5.129 13.483-15.798 13.483-30.916 0-31.018-21.61-69.02-48.267-84.88Z"/><path fill="#0D0B33" d="m97.725 96.85 9.867-5.473c-.139-5.28-.739-9.092-2.775-17.305l-10.413 5.792c1.672 5.71 2.808 11.423 3.32 16.986ZM89.934 67.46l9.656-5.65C89.27 39.668 81.382 29.25 63.03 14.815l-10.02 5.792c15.405 10.354 28.833 27.94 36.924 46.853Z"/></svg>