<svg width="166" height="221" viewBox="0 0 166 221" fill="none" xmlns="http://www.w3.org/2000/svg">
<g clip-path="url(#clip0_8040_115806)">
<path d="M72.0465 191.797C32.8086 168.453 1 112.516 1 66.8595C0.999998 21.2026 32.8086 3.11441 72.0464 26.4585C111.284 49.8026 143.093 105.739 143.093 151.396C143.093 197.053 111.284 215.141 72.0465 191.797Z" fill="white" stroke="#0D0B33" stroke-width="2.54257"/>
<path d="M66.353 58.4752C63.7723 56.9852 61.2972 56.74 59.4724 57.7936L30.8075 74.344C29.7218 74.9709 29.1789 76.3006 29.179 77.9438C29.179 79.587 29.7218 81.5435 30.8075 83.424L49.5925 115.961L49.5925 77.5595C49.5925 74.6937 51.5887 73.523 54.0705 74.9559C64.5559 81.0096 90.0789 95.7453 93.5602 97.7552L113.974 85.9693L66.353 58.4752Z" fill="#0D0B33"/>
<path d="M49.5934 123.141L89.0673 145.931C91.5491 147.364 93.5611 146.202 93.5611 143.336L93.5611 104.935L112.346 137.472C113.432 139.352 113.975 141.309 113.975 142.952C113.975 144.595 113.432 145.925 112.346 146.552L83.6812 163.102C81.8564 164.156 79.3813 163.911 76.8006 162.421L29.1798 134.926L49.5934 123.141Z" fill="#0D0B33"/>
<path d="M72.0466 26.4583C52.6408 14.9131 35.0522 13.502 22.23 20.5481L36.3315 12.5292C64.0769 -3.24837 109.061 23.5144 136.806 72.3055C164.552 121.097 164.552 173.44 136.806 189.217L123.244 196.93C123.245 196.921 123.246 196.911 123.247 196.902C135.537 189.353 143.093 173.649 143.093 151.396C143.093 105.739 111.284 49.8024 72.0466 26.4583Z" fill="#79EFBD" stroke="#0D0B33" stroke-width="2.54257"/>
<path d="M142.637 141.708L157.161 133.652C156.957 125.88 156.073 120.269 153.077 108.181L137.749 116.705C140.21 125.11 141.883 133.52 142.637 141.708Z" fill="#0D0B33"/>
<path d="M131.17 98.4472L145.383 90.1308C130.191 57.5398 118.582 42.2052 91.5681 20.9565L76.8208 29.4828C99.4947 44.723 119.26 70.6099 131.17 98.4472Z" fill="#0D0B33"/>
</g>
<defs>
<clipPath id="clip0_8040_115806">
<rect width="166" height="221" fill="white"/>
</clipPath>
</defs>
</svg>
