<svg xmlns="http://www.w3.org/2000/svg" width="166" height="221" fill="none"><g clip-path="url(#a)"><path fill="#fff" stroke="#0D0B33" stroke-width="2.543" d="M72.046 191.797C32.81 168.453 1 112.516 1 66.859c0-45.656 31.809-63.745 71.046-40.4 39.238 23.344 71.047 79.28 71.047 124.937s-31.809 63.745-71.046 40.401Z"/><path fill="#0D0B33" d="M66.353 58.475c-2.58-1.49-5.056-1.735-6.88-.681l-28.665 16.55c-1.086.627-1.63 1.957-1.629 3.6 0 1.643.543 3.6 1.629 5.48l18.785 32.537V77.56c0-2.866 1.996-4.037 4.477-2.604l39.49 22.8 20.414-11.787-47.621-27.494ZM49.593 123.141l39.474 22.79c2.482 1.433 4.494.271 4.494-2.595v-38.401l18.785 32.537c1.086 1.88 1.629 3.837 1.629 5.48 0 1.643-.543 2.973-1.629 3.6l-28.665 16.55c-1.825 1.054-4.3.809-6.88-.681L29.18 134.926l20.413-11.785Z"/><path fill="#79EFBD" stroke="#0D0B33" stroke-width="2.543" d="M72.047 26.458C52.64 14.913 35.052 13.502 22.23 20.548l14.101-8.019c27.746-15.777 72.73 10.985 100.475 59.776 27.746 48.792 27.746 101.135 0 116.912l-13.562 7.713.003-.028c12.29-7.549 19.846-23.253 19.846-45.506 0-45.657-31.809-101.594-71.046-124.938Z"/><path fill="#0D0B33" d="m142.637 141.708 14.524-8.056c-.204-7.772-1.088-13.383-4.084-25.471l-15.328 8.524c2.461 8.405 4.134 16.815 4.888 25.003ZM131.17 98.447l14.213-8.316c-15.192-32.591-26.801-47.926-53.815-69.174l-14.747 8.526c22.674 15.24 42.439 41.127 54.349 68.964Z"/></g><defs><clipPath id="a"><path fill="#fff" d="M0 0h166v221H0z"/></clipPath></defs></svg>