<svg xmlns="http://www.w3.org/2000/svg" width="115" height="80" fill="none"><path fill="url(#a)" d="M98.033 69.411c-22.244 12.894-58.309 12.894-80.553 0-22.244-12.893-22.244-33.798 0-46.692 22.244-12.894 58.309-12.894 80.553 0s22.244 33.799 0 46.692Z"/><path fill="#79EFBD" stroke="#0D0B33" stroke-width=".592" d="M96.92 65.782c-21.633 12.488-56.706 12.488-78.339 0C8.368 59.886 2.977 52.26 2.407 44.539l-.048-10.772c.146 8.073 5.553 16.12 16.222 22.279 21.633 12.488 56.706 12.488 78.34 0 10.624-6.134 16.03-14.14 16.219-22.178v-.87c.007.29.007.58 0 .87v9.736c-.188 8.038-5.595 16.044-16.22 22.178Z"/><path fill="#F7F6FF" stroke="#0D0B33" stroke-width=".592" d="M96.923 55.543c-21.633 12.488-56.706 12.488-78.339 0-21.633-12.489-21.633-32.737 0-45.225 21.633-12.489 56.706-12.489 78.34 0 21.632 12.488 21.632 32.736 0 45.225Z"/><path fill="#0D0B33" d="M76.264 17.706c-1.287-.743-3.033-1.16-4.854-1.16H42.809c-1.084 0-2.064.253-2.774.663-.71.41-1.15.976-1.15 1.601v10.82l16.592-9.577c1.238-.715 3.237-.72 4.476-.005l19.7 11.373h20.368L76.264 17.706ZM35.784 31.422 55.477 42.79c1.238.715 3.246.715 4.484 0l16.591-9.578v10.82c0 .626-.44 1.192-1.15 1.602-.709.41-1.69.663-2.773.663H44.028c-1.821 0-3.567-.417-4.855-1.16L15.416 31.422h20.368ZM2.36 36.844c3.159 7.96 5.6 11.618 12.31 15.387v10.771c-6.126-4.335-9.406-6.995-12.31-16.157V36.845ZM19.285 56.08l4.616 2.308V69.16l-4.616-2.308v-10.77Z"/><defs><linearGradient id="a" x1="-27.447" x2="-21.579" y1="20.084" y2="71.783" gradientUnits="userSpaceOnUse"><stop stop-color="#fff"/><stop offset="1" stop-color="#fff" stop-opacity="0"/></linearGradient></defs></svg>