<svg xmlns="http://www.w3.org/2000/svg" width="165" height="60" fill="none"><path fill="#fff" d="M23.598 4.516A4.5 4.5 0 0 1 28.114 0c2.506 0 4.57 2.01 4.57 4.516 0 2.506-2.064 4.57-4.57 4.57-2.506.028-4.516-2.037-4.516-4.57ZM104.635 1.845v34.282h7.93V1.845h-7.93ZM0 32.905l3.304-5.645c1.845 1.652 5.81 3.332 8.729 3.332 2.368 0 3.332-.661 3.332-1.735 0-1.098-1.834-1.4-4.195-1.79C6.9 26.366.909 25.378.909 18.89c0-4.378 3.8-8.178 10.656-8.178 4.213 0 7.71 1.35 10.38 3.304l-3.028 5.618c-1.487-1.432-4.323-2.726-7.297-2.726-1.845 0-3.084.716-3.084 1.707 0 .93 1.674 1.212 3.88 1.585 4.265.72 10.521 1.778 10.521 8.493 0 4.736-4.158 8.123-11.262 8.123-4.488-.055-9.06-1.542-11.675-3.91ZM32.106 11.317h-7.93v24.837h7.93V11.317ZM66.333 21.037v15.145h7.875V18.173c0-5.094-2.89-7.462-7.462-7.462-3.91 0-7.159 2.286-8.59 4.433-1.047-2.946-3.443-4.433-7.05-4.433-3.91 0-7.104 2.23-8.178 3.662-.22.248-.523.606-.826.992l.826-1.845v-2.175h-7.93v24.837h7.93V20.128c.799-1.046 2.313-2.423 4.46-2.423 2.369 0 3.25 1.432 3.25 3.332v15.145h7.93V20.128c.771-1.046 2.313-2.423 4.461-2.423 2.368 0 3.304 1.432 3.304 3.332Z"/><path fill="#fff" fill-rule="evenodd" d="M85.085 33.208c-.193-.248-.33-.551-.468-.854l.468 2.754v10.518h-7.93V11.317h7.93v2.891c1.955-2.368 4.516-3.497 7.352-3.497 6.223 0 10.904 4.626 10.904 12.997 0 8.426-4.681 13.052-10.904 13.052-2.781 0-5.287-1.074-7.352-3.552Zm10.188-9.5c0-3.69-2.368-6.003-5.452-6.003-1.707 0-3.745.936-4.736 2.258v7.545c.964 1.294 3.029 2.258 4.736 2.258 3.084 0 5.452-2.313 5.452-6.058ZM113.887 23.708c0-7.187 5.397-12.997 13.162-12.997 7.352 0 12.694 5.397 12.694 13.823v1.79h-17.072l-.661-.881a2.48 2.48 0 0 0 .055.88c.578 2.204 2.616 4.076 6.223 4.076 1.735 0 4.626-.77 6.058-2.12l3.442 5.204c-2.478 2.203-6.581 3.304-10.381 3.304-7.682-.027-13.52-5.011-13.52-13.079Zm13.162-6.636c-3.442 0-4.791 2.065-5.094 3.855h10.243c-.22-1.735-1.514-3.855-5.149-3.855Z" clip-rule="evenodd"/><path fill="#fff" d="m151.143 28.637 4.736 7.517h8.674l-8.481-12.749 7.93-12.088h-8.701l-3.91 6.25v.964l-.303-.468-4.268-6.746h-8.674l7.958 12.088-8.481 12.749h8.646l4.874-7.517ZM161.716 46.012a1.48 1.48 0 0 1 1.487-1.487c.826 0 1.487.66 1.487 1.487a1.48 1.48 0 0 1-1.487 1.487c-.826-.028-1.487-.661-1.487-1.487Z"/><path fill="#fff" fill-rule="evenodd" d="M104.635 56.696V45.434h1.763v4.24c.66-.881 1.597-1.322 2.615-1.322 2.121 0 3.635 1.653 3.635 4.268 0 2.699-1.542 4.296-3.635 4.296-1.046 0-1.982-.496-2.615-1.322v1.102h-1.763Zm3.883-1.377c1.404 0 2.285-1.13 2.285-2.726 0-1.57-.908-2.699-2.285-2.699-.854 0-1.707.496-2.12 1.102v3.249c.413.606 1.266 1.074 2.12 1.074Z" clip-rule="evenodd"/><path fill="#fff" d="M133.272 51.932c0-.991-.523-1.35-1.321-1.35-.771 0-1.267.414-1.57.8v5.231h-2.588V48.49h2.588v.716l-.33.606c.495-.578 1.762-1.515 3.111-1.515 1.845 0 2.699 1.074 2.699 2.561v5.755h-2.589v-4.681ZM142.111 55.429c-.495.578-1.707 1.404-3.056 1.404-1.845 0-2.671-1.046-2.671-2.533v-5.782h2.588v4.708c0 .964.496 1.322 1.349 1.322.744 0 1.239-.413 1.542-.799v-5.231h2.589v8.123h-2.589v-.634l.248-.578Z"/><path fill="#fff" fill-rule="evenodd" d="M161.386 52.813c0-2.753-1.762-4.516-4.158-4.516-2.533 0-4.295 1.9-4.268 4.24 0 2.644 1.928 4.269 4.433 4.269 1.24 0 2.589-.358 3.387-1.074l-1.101-1.625c-.441.413-1.267.689-1.983.689-1.184 0-1.872-.661-2.065-1.377a1.643 1.643 0 0 1-.055-.358l.22.303h5.59v-.55Zm-2.478-1.101h-3.332c.11-.606.523-1.405 1.652-1.405 1.184 0 1.625.826 1.68 1.405Z" clip-rule="evenodd"/><path fill="#fff" d="M161.909 48.518h2.589v8.123h-2.589v-8.123ZM149.105 53.336l1.735-4.818h2.753l-3.194 8.095h-2.753l-2.671-6.801v-1.294h2.203l1.982 5.562-.055-.744ZM115.154 58.43c-.22 0-.496-.055-.689-.137l-.22 1.597c.22.055.744.11.991.11 1.267-.028 2.231-.468 2.782-1.845l3.937-9.637h-1.9l-2.395 6.112-2.368-6.112h-1.9l3.359 8.26-.413.937c-.248.55-.606.715-1.184.715Z"/></svg>