<svg xmlns="http://www.w3.org/2000/svg" width="1290" height="613" fill="none"><circle cx="399.006" cy="99.006" r="3.006" fill="#F7F6FF"/><circle cx="1126.01" cy="254.006" r="3.006" fill="#F7F6FF"/><circle cx="1247.01" cy="43.006" r="3.006" fill="#F7F6FF"/><circle cx="1150.01" cy="93.006" r="3.006" fill="#F7F6FF"/><circle cx="749.006" cy="86.006" r="3.006" fill="#F7F6FF"/><circle cx="882.252" cy="343.504" r="3.006" fill="#F7F6FF"/><circle cx="11.006" cy="178.006" r="3.006" fill="#F7F6FF"/><circle cx="82.006" cy="65.006" r="3.006" fill="#F7F6FF"/><circle cx="142.006" cy="216.006" r="3.006" fill="#F7F6FF"/><circle cx="376.509" cy="73.509" r="4.509" fill="#F7F6FF"/><circle cx="1191.51" cy="106.509" r="4.509" fill="#F7F6FF"/><path stroke="#fff" stroke-width="2" d="M31.515 80.404a4.3 4.3 0 0 1 3.129 3.13l1.447 5.785a.963.963 0 0 0 1.867 0l1.447-5.785a4.3 4.3 0 0 1 3.129-3.13l5.785-1.446a.962.962 0 0 0 0-1.867l-5.785-1.447a4.3 4.3 0 0 1-3.13-3.13l-1.446-5.785a.962.962 0 0 0-1.867 0l-1.447 5.786a4.3 4.3 0 0 1-3.13 3.129l-5.785 1.447a.962.962 0 0 0 0 1.867l5.786 1.447Z"/><path fill="#F7F6FF" d="M967.515 14.405a4.3 4.3 0 0 1 3.129 3.129l1.446 5.785a.964.964 0 0 0 1.868 0l1.447-5.785a4.3 4.3 0 0 1 3.129-3.13l5.785-1.446a.963.963 0 0 0 0-1.867l-5.785-1.447a4.3 4.3 0 0 1-3.129-3.13L973.958.73a.962.962 0 0 0-1.868 0l-1.446 5.786a4.3 4.3 0 0 1-3.129 3.129l-5.786 1.447a.963.963 0 0 0 0 1.867l5.786 1.447Z"/><path stroke="#fff" stroke-width="2" d="M1270.51 207.404a4.281 4.281 0 0 1 3.13 3.13l1.45 5.785a.962.962 0 0 0 1.87 0l1.44-5.785a4.31 4.31 0 0 1 3.13-3.129l5.79-1.447a.962.962 0 0 0 0-1.868l-5.79-1.446a4.31 4.31 0 0 1-3.13-3.129l-1.44-5.786a.965.965 0 0 0-1.87 0l-1.45 5.786a4.278 4.278 0 0 1-3.13 3.129l-5.78 1.446a.963.963 0 0 0 0 1.868l5.78 1.446Z"/><path fill="#F7F6FF" d="M473.515 33.404a4.3 4.3 0 0 1 3.129 3.13l1.446 5.785a.964.964 0 0 0 1.868 0l1.447-5.785a4.3 4.3 0 0 1 3.129-3.13l5.785-1.446a.963.963 0 0 0 0-1.867l-5.785-1.447a4.3 4.3 0 0 1-3.129-3.13l-1.447-5.785a.962.962 0 0 0-1.868 0l-1.446 5.786a4.3 4.3 0 0 1-3.129 3.129l-5.786 1.447a.963.963 0 0 0 0 1.867l5.786 1.447Z"/><path stroke="#fff" stroke-width="2" d="M7.515 601.404a4.303 4.303 0 0 1 3.129 3.13l1.447 5.785a.963.963 0 0 0 1.867 0l1.447-5.785a4.3 4.3 0 0 1 3.129-3.129l5.785-1.447a.962.962 0 0 0 0-1.868l-5.785-1.446a4.3 4.3 0 0 1-3.13-3.129l-1.446-5.786a.963.963 0 0 0-1.867 0l-1.447 5.786a4.3 4.3 0 0 1-3.13 3.129L1.73 598.09a.964.964 0 0 0 0 1.868l5.786 1.446ZM1085.26 160.202c.77.193 1.37.794 1.56 1.565l.73 2.893a.47.47 0 0 0 .46.364c.22 0 .42-.15.47-.364l.72-2.893c.19-.771.8-1.372 1.57-1.565l2.89-.723a.482.482 0 0 0 0-.934l-2.89-.723a2.154 2.154 0 0 1-1.57-1.565l-.72-2.892a.482.482 0 0 0-.47-.365.47.47 0 0 0-.46.365l-.73 2.892a2.141 2.141 0 0 1-1.56 1.565l-2.9.723a.482.482 0 0 0 0 .934l2.9.723Z"/></svg>