<svg xmlns="http://www.w3.org/2000/svg" width="115" height="79" fill="none"><path fill="url(#a)" d="M98.017 69.118c-22.244 12.894-58.309 12.894-80.553 0-22.244-12.893-22.244-33.798 0-46.692 22.244-12.894 58.31-12.894 80.553 0 22.244 12.894 22.244 33.799 0 46.692Z"/><path fill="#79EFBD" stroke="#0D0B33" stroke-width=".592" d="M96.912 65.489c-21.632 12.488-56.706 12.488-78.339 0C8.36 59.593 2.97 51.967 2.4 44.245l-.047-10.77c.145 8.072 5.552 16.119 16.221 22.278 21.633 12.489 56.707 12.489 78.34 0 10.624-6.134 16.031-14.14 16.219-22.178v-.87c.007.29.007.58 0 .87v9.736c-.188 8.038-5.595 16.044-16.22 22.178Z"/><path fill="#F7F6FF" stroke="#0D0B33" stroke-width=".592" d="M96.912 55.25c-21.633 12.489-56.707 12.489-78.34 0-21.633-12.489-21.633-32.737 0-45.225 21.633-12.489 56.707-12.489 78.34 0 21.632 12.488 21.632 32.736 0 45.225Z"/><path fill="#0D0B33" d="M2.348 36.55c3.16 7.96 5.601 11.619 12.31 15.388V62.71c-6.126-4.335-9.405-6.995-12.31-16.157V36.552ZM19.273 55.787l4.617 2.308v10.771l-4.617-2.308v-10.77Z"/><path fill="#0D0B33" fill-rule="evenodd" d="M65.54 31.25c-.25.168-1.557 1.02-4.66 2.81a142.597 142.597 0 0 1-4.94 2.733c-9.963 5.263-18.756 8.407-20.759 7.251-2.003-1.156 3.447-6.231 12.557-11.986l6.535 3.773c.67-.334 2.562-1.304 5.03-2.73 2.963-1.71 4.322-2.637 4.564-2.806l-6.533-3.772c9.946-5.248 18.723-8.384 20.722-7.23 1.998 1.153-3.431 6.22-12.528 11.961l.011-.004Zm-8.874-5.122-5.848-3.376 13.285-7.67-8.918-5.148-36.17 20.88 8.919 5.15 13.282-7.669 5.846 3.375c-10.296 6.521-16.261 12.452-13.68 13.942 2.582 1.49 12.853-1.954 24.151-7.897l18.741 10.82 9.6-5.543L67.126 32.17c10.272-6.506 16.226-12.428 13.646-13.917-2.58-1.49-12.83 1.944-24.11 7.876h.005Z" clip-rule="evenodd"/><defs><linearGradient id="a" x1="-27.463" x2="-21.595" y1="19.791" y2="71.49" gradientUnits="userSpaceOnUse"><stop stop-color="#fff"/><stop offset="1" stop-color="#fff" stop-opacity="0"/></linearGradient></defs></svg>