<svg xmlns="http://www.w3.org/2000/svg" width="5000" height="3000" fill="none" viewBox="0 0 3659 2064"><path fill="#0D0B33" d="M1864.75 1013.694c13.124-.147 13.073-.144 26.198-.321l1750.112-4.253c22.61 12.75 22.61 33.43 0 46.18l-1770.81 998.82c-22.61 12.75-59.26 12.75-81.87 0L17.569 1055.3c-22.608-12.75-22.608-33.43 0-46.18l1847.181 4.574Z"/><path fill="url(#a)" d="M1788.38 10.303c22.61-12.752 59.26-12.752 81.87 0l1770.81 998.817c22.61 12.75 22.61 33.43 0 46.18l-1770.81 998.82c-22.61 12.75-59.26 12.75-81.87 0L17.57 1055.3c-22.61-12.75-22.61-33.43 0-46.18L1788.38 10.303Z"/><defs><linearGradient id="a" x1="1811.32" x2="1821.61" y1="1161.21" y2="1844.99" gradientUnits="userSpaceOnUse"><stop offset=".318" stop-color="#7554FC" stop-opacity="0"/><stop offset="1" stop-color="#7554FC" stop-opacity=".17"/></linearGradient></defs></svg>