<svg xmlns="http://www.w3.org/2000/svg" width="65" height="65" fill="none"><path stroke="#F7F6FF" stroke-width="2.387" d="M9.526 12.16c-1.212.174-2.138 1.194-2.138 2.418V37.59c0 11.421 19.89 23.118 24.634 23.118 4.745 0 24.633-11.697 24.633-23.117V14.578c0-1.224-.926-2.244-2.138-2.418-2.988-.429-6.948-1.249-11.027-2.816A75.744 75.744 0 0 1 33.262 4.52a2.503 2.503 0 0 0-2.48.001 75.732 75.732 0 0 1-10.224 4.824c-4.083 1.567-8.043 2.387-11.032 2.816Z" clip-rule="evenodd"/><path fill="#79EFBD" fill-rule="evenodd" d="M32.022 43.608c6.273 0 11.358-5.085 11.358-11.358 0-6.273-5.085-11.358-11.358-11.358-6.273 0-11.359 5.085-11.359 11.358 0 6.273 5.086 11.358 11.359 11.358Zm5.899-14.072a.889.889 0 1 0-1.275-1.239l-5.874 6.046-3.41-3.143a.889.889 0 0 0-1.204 1.307l4.046 3.73a.889.889 0 0 0 1.24-.034l6.477-6.667Z" clip-rule="evenodd"/></svg>