<svg width="250" height="61" viewBox="0 0 250 61" fill="none" xmlns="http://www.w3.org/2000/svg">
<path fill-rule="evenodd" clip-rule="evenodd" d="M0 0.96582L11.0771 13.1549L16.602 19.2631L19.3581 22.3246C19.6111 22.6095 19.8642 22.8919 20.1172 23.1743L20.1178 23.175L20.1179 23.1751L20.1179 23.1751L20.1179 23.1751L20.1179 23.1751L20.1179 23.1751C20.779 23.913 21.4402 24.6508 22.1013 25.4336L22.2513 25.6165L22.2842 25.8999C22.3286 26.2843 22.3065 26.6735 22.2183 27.0503C22.1168 27.44 21.9398 27.8061 21.6971 28.1274C21.2642 28.6893 20.697 29.1326 20.0485 29.4171L19.9634 29.4533C19.348 29.7185 18.6964 29.8899 18.0303 29.9617C17.8932 29.9791 17.7512 29.9899 17.6135 30.0003L17.6134 30.0003L17.5914 30.002C17.1695 30.0181 16.7638 30.1688 16.4337 30.4319C16.1037 30.6953 15.8665 31.0572 15.7571 31.465C15.707 31.6678 15.6697 31.8738 15.6455 32.0813C15.6072 32.3944 15.5875 32.7148 15.5661 33.0615L15.5661 33.0616C15.5508 33.3103 15.5347 33.5726 15.5102 33.8553C15.3729 34.9587 15.0612 36.0331 14.5872 37.0384L14.5245 37.1691C14.4204 37.3882 14.3143 37.6006 14.2101 37.8092L14.21 37.8094C13.6515 38.9278 13.147 39.9381 13.2919 41.2913C13.4052 42.3337 13.9392 43.0323 14.6488 43.7528C14.9858 44.0975 15.4327 44.3921 15.8966 44.6978C17.1949 45.5534 18.6263 46.4968 18.1547 48.8735C17.7688 50.7993 14.5757 52.8201 10.0877 53.526C10.5231 53.46 9.56419 51.824 9.45768 51.6422L9.45132 51.6314C9.32759 51.4376 9.20084 51.2466 9.0743 51.056C8.70893 50.5057 8.34534 49.958 8.06144 49.3508C7.31162 47.7653 6.96413 45.931 7.27137 44.1936C7.5497 42.6211 8.58924 41.365 9.59016 40.1556C9.75333 39.9585 9.91548 39.7625 10.0731 39.5667C11.4118 37.9043 12.8163 35.7262 13.1272 33.5682C13.1535 33.3807 13.1769 33.1763 13.2015 32.9612L13.2015 32.9612C13.2456 32.5762 13.2936 32.157 13.3686 31.7393C13.4802 31.0181 13.7062 30.3193 14.038 29.6691C14.2645 29.2428 14.5627 28.8586 14.9195 28.5334C15.1055 28.3608 15.2283 28.1307 15.2681 27.88C15.3079 27.6294 15.2624 27.3727 15.1389 27.1508L7.98461 14.2833L18.2608 26.9643C18.3778 27.1112 18.5256 27.2306 18.694 27.314C18.8623 27.3974 19.047 27.4427 19.2348 27.4466C19.4226 27.4506 19.609 27.4133 19.7807 27.3372C19.9334 27.2696 20.0711 27.1728 20.1864 27.0525L20.2286 27.0064C20.3588 26.8546 20.4325 26.6625 20.4374 26.4627C20.4426 26.2628 20.3784 26.0673 20.256 25.9091C19.7782 25.2985 19.281 24.6796 18.7861 24.0636L18.786 24.0635L18.7854 24.0627C18.5853 23.8137 18.3856 23.565 18.1876 23.3176L15.6017 20.1172L10.4114 13.7273L0 0.96582ZM42.7218 39.1379L42.7217 39.1378C41.7085 38.5923 40.7257 38.0631 39.8812 37.4818C38.6727 40.8544 40.622 43.7031 42.5597 46.5349C44.7272 49.7025 46.8803 52.8491 44.5831 56.6844C49.0473 54.841 51.1669 49.2722 49.3143 44.8538C48.1469 42.0591 45.3334 40.5441 42.7218 39.1379ZM30.2377 49.0162C29.5581 48.7395 28.8447 48.5549 28.1163 48.4675C26.7011 48.2949 25.2659 48.405 23.8935 48.7912C22.57 49.1617 21.3008 49.7045 20.1189 50.4061C18.9676 51.1007 17.8893 51.9095 16.9001 52.8201C16.9768 52.749 17.4114 52.8245 17.6786 52.871C17.762 52.8854 17.8291 52.8971 17.8639 52.9006C18.184 52.9408 18.504 52.9884 18.8204 53.0542C19.4495 53.1734 20.0629 53.3636 20.6492 53.6211C21.4993 54.0339 22.2686 54.5957 22.9206 55.2799C23.0526 55.4098 23.1793 55.5446 23.3035 55.6815C23.6104 56.0881 23.9614 56.4591 24.3498 56.7876C24.4265 56.8566 24.5052 56.9236 24.5867 56.988C25.1192 57.4159 25.7573 57.6926 26.4338 57.789C26.9155 57.8484 27.4045 57.7978 27.8639 57.6409C28.0905 57.565 28.3072 57.4626 28.5095 57.3355C28.7136 57.2069 28.8983 57.0498 29.0581 56.8691C29.359 56.5178 29.5598 56.0921 29.6397 55.6365C29.7222 55.1992 29.6808 54.7477 29.5208 54.3325C29.3665 53.9291 29.0616 53.6012 28.6704 53.4181C29.0069 53.6458 29.2416 53.9953 29.3251 54.3929C29.4027 54.7733 29.3729 55.1678 29.2392 55.5322C29.1179 55.8817 28.9036 56.1915 28.6192 56.4284C28.4837 56.5403 28.3328 56.6319 28.1711 56.7009C28.0089 56.7669 27.8396 56.8135 27.6664 56.8399C25.6309 57.1818 24.0344 54.766 25.1463 53.0414C25.5687 52.3812 26.282 52.0392 27.0428 51.9441C28.9082 51.7173 30.5011 52.9408 31.4319 54.4606C31.8326 55.1145 32.1301 55.8224 32.4275 56.5303C32.6134 56.9726 32.7992 57.4149 33.0102 57.8439C33.8149 59.4807 35.1901 60.9291 37.136 60.9657C37.8544 60.9715 38.5643 60.8106 39.2099 60.4957L39.3421 60.4329C39.6052 60.3045 39.8596 60.1594 40.1042 59.9982C40.2662 59.8895 40.4198 59.7719 40.5698 59.6528L40.9034 59.3856C40.3092 59.6557 39.6898 59.8671 39.0544 60.0165C38.7477 60.0831 38.4367 60.1277 38.1236 60.15L37.6682 60.139C37.521 60.1257 37.3745 60.105 37.2293 60.0769L37.1466 60.0614C34.9378 59.6222 34.6343 57.3647 34.3708 55.405C34.3188 55.018 34.2683 54.6426 34.205 54.2951L34.1806 54.1661C34.0406 53.4547 33.8222 52.761 33.5296 52.0977C33.2053 51.3892 32.747 50.7501 32.1799 50.2159C31.6069 49.7066 30.9497 49.3006 30.2377 49.0162ZM38.4123 38.4299C38.1627 37.5447 37.6986 36.7348 37.061 36.0718C37.3686 36.8518 37.5579 37.6735 37.6225 38.5096C37.6783 39.288 37.5724 40.0694 37.3116 40.8048C37.057 41.5017 36.6408 42.1285 36.0972 42.6336C35.5356 43.1435 34.8855 43.5464 34.1788 43.8223C33.1967 44.2179 32.0861 44.3798 30.9294 44.5484L30.9293 44.5484L30.9292 44.5485L30.9292 44.5485C30.4015 44.6254 29.8642 44.7037 29.3251 44.8062C28.4579 44.965 27.6088 45.21 26.7904 45.5378C25.9813 45.8679 25.2185 46.3011 24.5208 46.8271C26.1073 46.2517 27.7725 45.9231 29.4586 45.8523C29.7642 45.8342 30.0716 45.8201 30.3818 45.8058L30.3823 45.8058L30.3828 45.8057L30.383 45.8057C30.9191 45.781 31.4632 45.756 32.019 45.7097L32.1797 45.6975C33.0359 45.6257 33.8797 45.4455 34.6909 45.161C35.594 44.845 36.416 44.3329 37.0976 43.6614C37.7862 42.9683 38.2691 42.0978 38.493 41.1468C38.6898 40.2483 38.6622 39.3152 38.4123 38.4299ZM33.6521 27.6702C35.2229 29.3474 37.6887 29.6992 40.3706 30.0817C42.8034 30.4288 45.414 30.8011 47.6956 32.2112C53.0796 35.536 52.2932 41.9953 50.4644 44.3728C50.6293 40.4615 46.6707 38.8552 42.5456 37.1814C37.8408 35.2722 32.9193 33.2752 33.6521 27.6702ZM26.2657 31.5217C26.0111 31.098 25.6421 30.7547 25.2011 30.531C24.7602 30.3076 24.2653 30.213 23.773 30.258C23.2734 30.3116 22.8023 30.5177 22.4239 30.8482C22.0453 31.1784 21.7776 31.6174 21.6571 32.1051L21.6451 32.1504C21.2983 33.4915 21.6999 34.55 23.5609 34.3692C24.8027 34.2503 27.4489 33.6047 26.2657 31.5217ZM24.2008 15.5196C25.6124 16.0676 26.903 16.8871 27.9992 17.9318C28.715 18.6031 29.3871 19.3197 30.0109 20.077C34.6561 19.1626 38.4235 19.9746 41.3185 21.551L41.3844 21.5839C42.3059 22.0837 43.1695 22.6836 43.9593 23.3725C44.0855 23.4822 44.2099 23.592 44.3251 23.7035C44.9418 24.2701 45.5158 24.8815 46.0424 25.5323L46.0826 25.5854C47.7925 27.7507 48.6374 30.002 48.6393 31.3663L48.6283 31.3498C48.461 31.0389 48.2702 30.7412 48.0577 30.4592C47.4326 29.6124 46.5361 29.0056 45.5175 28.7401C44.896 28.5796 44.2617 28.4747 43.6219 28.4263L43.4473 28.4146C42.9372 28.3776 42.4196 28.3521 41.897 28.3264L41.8955 28.3263C41.6935 28.3164 41.4907 28.3064 41.2874 28.2957C39.8244 28.2152 38.3266 28.0652 36.8635 27.6483C36.4978 27.544 36.132 27.4306 35.779 27.2935C35.5961 27.2276 35.4261 27.1563 35.245 27.0795C35.064 27.0027 34.8792 26.9149 34.6964 26.8217C34.0086 26.4449 33.3712 25.982 32.7999 25.4446C31.7621 24.4792 30.9292 23.3944 30.111 22.3288L30.111 22.3288L29.9012 22.0558C29.0651 20.8992 28.1677 19.7882 27.2128 18.7273C26.2708 17.6881 25.1574 16.8184 23.921 16.156C22.6408 15.5112 21.2504 15.1141 19.8226 14.9856C21.3038 14.8248 22.8019 15.0075 24.2008 15.5196ZM23.2313 17.8896C22.4523 16.9898 21.2434 16.518 20.0583 16.3461C20.0141 16.6412 19.9859 16.9385 19.9742 17.2367C19.9212 19.6929 20.7935 22.3904 22.4815 24.265C23.0216 24.8709 23.6728 25.3676 24.3999 25.728L24.4271 25.7412C24.8667 25.9536 25.9448 26.4317 26.3495 25.9841C26.3809 25.942 26.4009 25.8926 26.4069 25.8405C26.4129 25.7886 26.4052 25.7357 26.3842 25.6876C26.3157 25.4918 26.1834 25.3142 26.0521 25.138C25.9589 25.0129 25.8662 24.8885 25.7972 24.7587C25.7273 24.6278 25.6525 24.5002 25.5778 24.3727C25.4375 24.1333 25.2974 23.8942 25.19 23.634C24.9066 22.953 24.7591 22.2289 24.612 21.5071C24.6032 21.4643 24.5945 21.4216 24.5858 21.3789L24.4832 20.8823C24.2631 19.827 23.9659 18.738 23.2313 17.8896Z" fill="white"/>
<path fill-rule="evenodd" clip-rule="evenodd" d="M152.824 26.7645C148.578 27.8259 146.588 31.129 147.795 35.1113C148.311 36.8177 149.902 38.5391 152.151 39.8265C156.204 42.1464 157.397 43.086 158.09 44.5015C158.669 45.6824 158.719 46.0772 158.427 47.1475C157.743 49.6602 155.956 51.0461 153.4 51.0461C150.79 51.0461 148.958 49.5938 148.549 47.2017C148.385 46.2396 148.182 45.9324 147.714 45.9324C147.154 45.9324 147.096 46.1869 147.096 48.6236V51.3142L148.793 51.8863C151.443 52.7793 155.213 52.6725 157.462 51.6409C161.844 49.6309 163.523 45.6412 161.557 41.9134C160.821 40.5189 158.975 38.9625 155.813 37.0699C152.489 35.0803 151.008 33.6332 150.791 32.1623C150.457 29.9021 152.506 28.0315 155.306 28.0395C157.5 28.0455 158.441 28.5607 159.218 30.1805C159.705 31.1946 160.054 31.5298 160.63 31.5388C161.268 31.5483 161.363 31.4304 161.2 30.8312C161.093 30.4358 161.003 29.4444 161.001 28.6282C160.998 27.5917 160.847 27.0873 160.5 26.956C159.555 26.5974 154.041 26.46 152.824 26.7645ZM67.5728 27.7151C67.5728 28.175 67.7884 28.3543 68.3415 28.3543C69.9022 28.3543 69.9859 28.8011 70.1589 38.0702C70.3098 46.168 70.3658 46.8146 71.0181 48.0099C71.9527 49.722 73.2202 50.8613 75.1695 51.7418C76.5049 52.3449 77.348 52.4728 80.0185 52.4782C82.9155 52.4836 83.4434 52.391 85.1034 51.5849C86.1221 51.0905 87.3908 50.1636 87.9229 49.5253C89.7678 47.3127 89.9631 46.2434 90.1722 37.2112C90.3736 28.5135 90.4011 28.3721 91.8984 28.359C92.2469 28.3562 92.4641 28.1088 92.4641 27.7151C92.4641 27.1113 92.2485 27.0758 88.5849 27.0758C84.9637 27.0758 84.7058 27.1171 84.7058 27.6949C84.7058 28.1583 84.9676 28.3389 85.749 28.414C87.4658 28.5786 87.6051 29.2332 87.6103 37.1651C87.6158 45.2066 87.3391 46.7538 85.6035 48.3821C83.9897 49.8968 82.7054 50.4069 80.5066 50.4069C77.3482 50.4069 75.11 48.9482 74.3762 46.4118C74.1292 45.5588 74.0384 42.4219 74.103 36.9835L74.1997 28.8336L75.3311 28.4728C75.9534 28.2744 76.5094 27.879 76.5669 27.5939C76.6594 27.1359 76.1444 27.0758 72.1221 27.0758C67.7884 27.0758 67.5728 27.1062 67.5728 27.7151ZM97.6364 27.7151C97.6364 28.2098 97.852 28.3543 98.591 28.3543C100.237 28.3543 101.164 28.982 101.536 30.3483C101.748 31.1252 101.839 34.8358 101.777 40.139C101.666 49.6079 101.535 50.2273 99.5614 50.6175C98.9107 50.7463 98.6061 50.9975 98.6061 51.4056C98.6061 51.963 98.9224 52.0048 103.132 52.0048C107.267 52.0048 107.658 51.9557 107.658 51.4319C107.658 51.024 107.244 50.7495 106.22 50.4788C104.948 50.1425 104.743 49.9591 104.443 48.8945C104.06 47.5282 103.969 33.1336 104.344 33.1752C104.477 33.1899 105.731 34.5203 107.131 36.1315C108.53 37.7426 112.358 41.9731 115.637 45.5329C120.771 51.1042 121.731 52.0048 122.537 52.0048H123.474L123.567 40.6747C123.632 32.6299 123.768 29.2373 124.033 28.9749C124.239 28.7717 124.894 28.507 125.488 28.3869C126.119 28.2594 126.569 27.9739 126.569 27.702C126.569 27.3203 125.763 27.2197 122.124 27.1468C117.844 27.0611 117.679 27.0819 117.679 27.7061C117.679 28.1804 117.891 28.3543 118.469 28.3543C118.904 28.3543 119.667 28.701 120.166 29.1251L121.073 29.896L121.175 37.5946C121.233 41.9412 121.152 45.2933 120.99 45.2933C120.832 45.2933 119.845 44.3225 118.797 43.1358C117.748 41.9492 114.763 38.6775 112.162 35.8649C109.561 33.0524 106.72 29.936 105.849 28.9398L104.263 27.1283L100.95 27.1021C97.843 27.0774 97.6364 27.1158 97.6364 27.7151ZM131.579 27.7151C131.579 28.2024 131.795 28.3543 132.487 28.3543C132.987 28.3543 133.678 28.5582 134.023 28.8074C134.615 29.2354 134.656 29.7871 134.751 38.6353C134.871 49.6839 134.773 50.3033 132.86 50.6056C131.897 50.7581 131.579 50.9566 131.579 51.4066C131.579 51.9646 131.905 52.0048 136.428 52.0048C141.062 52.0048 141.277 51.9765 141.277 51.3657C141.277 50.9109 141.062 50.7264 140.531 50.7264C140.12 50.7264 139.502 50.5226 139.157 50.2733C138.562 49.8437 138.525 49.2911 138.436 39.7391C138.345 29.9542 138.361 29.6394 139.001 29.0063C139.364 28.6477 140.024 28.3543 140.469 28.3543C141.062 28.3543 141.277 28.1839 141.277 27.7151C141.277 27.1043 141.062 27.0758 136.428 27.0758C131.795 27.0758 131.579 27.1043 131.579 27.7151ZM165.428 27.7151C165.533 28.111 165.869 28.3543 166.312 28.3543C166.704 28.3543 167.343 28.6889 167.733 29.0983C168.128 29.5138 170.338 34.7677 172.741 41.0035L177.043 52.1646L178.17 52.2603L179.298 52.3558L182.32 44.43C183.982 40.0709 185.517 36.1592 185.73 35.7374C186.096 35.0151 186.177 35.1251 187.148 37.6551C187.715 39.1316 189.224 43.0362 190.502 46.332L192.823 52.3245H193.846C194.41 52.3245 194.945 52.1334 195.035 51.8997C195.126 51.6664 196.611 47.8909 198.336 43.5101L198.58 42.8892C200.237 38.6804 201.999 34.2036 202.581 32.7258C203.972 29.1945 204.249 28.7585 205.358 28.3766C205.85 28.2069 206.253 27.8448 206.253 27.5719C206.253 27.1513 205.664 27.0758 202.374 27.0758C198.711 27.0758 198.495 27.1113 198.495 27.7151C198.495 28.1782 198.711 28.3543 199.277 28.3543C200.533 28.3543 201.081 28.6918 201.081 29.4662C201.081 30.1124 194.924 46.6933 194.545 47.0683C194.312 47.2987 188.752 31.8961 188.55 30.463C188.356 29.0708 188.955 28.3543 190.314 28.3543C190.844 28.3543 191.06 28.1698 191.06 27.7151C191.06 27.1033 190.844 27.0758 186.049 27.0758C181.254 27.0758 181.038 27.1033 181.038 27.7151C181.038 28.0794 181.254 28.3543 181.539 28.3543C182.549 28.3543 183.887 29.3182 184.23 30.2936C184.725 31.6931 184.347 33.1121 181.44 40.7858L178.972 47.3048L178.439 46.0592C178.147 45.3744 176.625 41.3326 175.057 37.0782C171.977 28.7199 171.931 28.3543 173.967 28.3543C174.681 28.3543 174.897 28.2063 174.897 27.7151C174.897 27.1043 174.681 27.0758 170.078 27.0758C165.419 27.0758 165.265 27.0969 165.428 27.7151ZM230.895 27.9316C230.895 27.9316 230.895 28.368 230.949 28.4894C231.003 28.6108 231.351 28.6564 231.351 28.6564C231.566 28.7136 231.771 28.7639 231.964 28.8114L231.965 28.8116L231.966 28.8119C232.943 29.0519 233.629 29.2206 233.903 29.8569C234.088 30.2868 234.101 31.7816 234.103 39.7952C234.104 48.2451 234.103 49.2807 233.875 49.839C233.593 50.5315 233.052 50.8991 231.804 51.2468C231.804 51.2468 231.252 51.3991 231.103 51.5354C230.955 51.6717 230.927 51.976 230.927 51.976C230.927 51.976 230.914 52.2586 231.042 52.3942C231.169 52.5298 231.509 52.4651 231.509 52.4651L234.744 52.4737L240.109 52.5167C240.109 52.5167 240.329 52.5455 240.442 52.4015C240.556 52.2575 240.527 51.9752 240.527 51.9752C240.527 51.9752 240.527 51.6735 240.386 51.5375C240.245 51.4015 239.696 51.274 239.696 51.274C238.484 50.9782 237.863 50.5926 237.587 49.9665C237.383 49.5012 237.361 48.2449 237.331 45.6286V41.7927C238.107 42.2269 240.128 43.0954 242.007 43.0954C244.558 43.196 246.567 41.826 247.821 40.0287C249.075 38.2315 249.66 35.2305 248.741 32.2226C247.821 29.2147 245.121 27.3945 242.28 27.2063C240.305 27.0754 237.426 27.205 235.816 27.2774L235.815 27.2775L235.813 27.2776C235.65 27.2849 235.5 27.2917 235.365 27.2975C233.903 27.3608 232.152 27.4994 231.279 27.5818L231.277 27.582L231.277 27.582C231.039 27.6044 231.016 27.6067 230.95 27.6903C230.883 27.7743 230.895 27.9316 230.895 27.9316ZM244.086 39.8917C245.337 38.5928 245.44 36.5194 245.44 35.2052C245.301 33.1447 244.643 29.0049 240.857 29.0049C239.749 28.9484 237.481 29.1382 237.419 30.6635C237.35 30.9329 237.319 32.8177 237.336 35.7103L237.364 40.327L237.847 40.5792L237.873 40.5928L237.875 40.594C238.137 40.7309 238.477 40.9083 239.068 41.0234C240.02 41.1987 242.834 41.1906 244.086 39.8917ZM215.482 27.4748C215.833 27.3428 216.064 27.2546 216.064 27.2546C216.064 27.2546 216.588 27.0407 216.757 27.2546C216.809 27.3198 216.996 27.7965 217.456 28.9735C217.552 29.221 217.661 29.4994 217.783 29.8114C218.486 31.6077 219.495 34.1861 220.027 35.5413C220.558 36.8964 221.609 39.5779 222.362 41.5003C223.115 43.4226 224.081 45.8887 224.51 46.9805C224.938 48.0723 225.485 49.2076 225.638 49.4146C225.713 49.516 225.79 49.6422 225.874 49.7804C226.205 50.3242 226.649 51.0546 227.54 51.1973C227.54 51.1973 228.238 51.3118 228.341 51.4204C228.445 51.5289 228.468 51.7261 228.468 51.7261V52.0964C228.468 52.0964 228.456 52.1912 228.399 52.2716C228.342 52.352 228.131 52.3297 228.131 52.3297L222.751 52.3301L218.924 52.3574C218.924 52.3574 218.79 52.3735 218.711 52.3089C218.632 52.2442 218.591 52.0808 218.591 52.0808V51.8017C218.591 51.8017 218.558 51.5919 218.711 51.4095C218.864 51.2271 219.479 51.2058 219.479 51.2058C220.637 51.1061 221.098 50.1258 221.334 49.6219C221.352 49.5846 221.368 49.5499 221.384 49.5183C221.635 48.9972 221.545 48.6577 220.404 45.8719C219.653 44.0334 219.396 43.517 219.213 43.4712C219.085 43.4389 217.083 43.4271 214.764 43.4447L210.547 43.4765L210.295 44.1641C209.566 46.1529 208.919 48.1287 208.821 48.6629C208.623 49.7497 208.9 50.9586 210.511 51.1687C210.511 51.1687 211.108 51.2503 211.268 51.3696C211.427 51.4888 211.482 51.7945 211.482 51.7945V52.0762C211.482 52.0762 211.452 52.2102 211.342 52.3004C211.233 52.3907 210.948 52.3578 210.948 52.3578H206.924L203.031 52.4018C203.031 52.4018 202.865 52.3979 202.743 52.3333C202.619 52.2686 202.599 52.139 202.599 52.139V51.8713C202.599 51.8713 202.578 51.6975 202.795 51.4851C203.012 51.2726 203.598 51.2157 203.598 51.2157C204.661 51.0457 205.264 49.9217 205.611 49.275C205.636 49.2273 205.661 49.1822 205.683 49.1403C205.822 48.8884 206.441 47.4187 207.061 45.8746C207.683 44.3304 208.378 42.6028 208.609 42.0356C209.394 40.1068 210.139 38.2589 211.267 35.4463C211.886 33.9021 212.803 31.6227 213.304 30.3811L214.215 28.1234L215.482 27.4748ZM215.15 32.9625C215.344 33.4508 215.644 34.1856 215.814 34.5953C215.984 35.005 216.459 36.1652 216.87 37.1737C217.281 38.1821 217.787 39.4094 217.994 39.9009C218.2 40.3925 218.369 40.8179 218.369 40.8463C218.369 40.8749 216.819 40.8982 214.926 40.8982C212.752 40.8982 211.482 40.8567 211.482 40.7858C211.482 40.724 211.556 40.4792 211.645 40.2415C211.786 39.8636 212.493 37.8573 214.053 33.4019C214.294 32.7139 214.517 32.1071 214.549 32.0535C214.659 31.87 214.795 32.0745 215.15 32.9625Z" fill="white"/>
</svg>
