<svg xmlns="http://www.w3.org/2000/svg" width="250" height="61" fill="none"><path fill="#fff" fill-rule="evenodd" d="m0 .966 11.077 12.189 5.525 6.108 2.756 3.062c.253.285.506.567.76.85.661.738 1.322 1.476 1.983 2.259l.15.182.033.284c.045.384.023.774-.066 1.15-.101.39-.278.756-.52 1.077-.434.562-1.001 1.006-1.65 1.29l-.085.036a6.699 6.699 0 0 1-1.933.509c-.137.017-.279.028-.417.038l-.022.002a1.979 1.979 0 0 0-1.834 1.463c-.05.203-.087.409-.111.616-.039.313-.059.634-.08.98-.015.25-.031.512-.056.794a10.506 10.506 0 0 1-.923 3.183l-.063.131c-.104.22-.21.432-.314.64-.559 1.119-1.063 2.13-.918 3.482.113 1.043.647 1.741 1.357 2.462.337.344.784.64 1.248.945 1.298.855 2.73 1.799 2.258 4.175-.386 1.926-3.58 3.947-8.067 4.653.435-.066-.524-1.702-.63-1.884l-.007-.01c-.123-.194-.25-.385-.377-.576-.365-.55-.729-1.098-1.013-1.705-.75-1.586-1.097-3.42-.79-5.157.279-1.573 1.318-2.829 2.32-4.038.162-.197.324-.393.482-.59 1.339-1.662 2.743-3.84 3.054-5.998.026-.187.05-.392.074-.607.045-.385.093-.804.168-1.222.111-.72.337-1.42.669-2.07.226-.426.525-.81.881-1.136a1.134 1.134 0 0 0 .22-1.382L7.985 14.283 18.26 26.964a1.28 1.28 0 0 0 1.925.088l.043-.046a.868.868 0 0 0 .027-1.097c-.478-.61-.975-1.23-1.47-1.845v-.001l-.598-.745-2.586-3.2-5.19-6.39L0 .965Zm42.722 38.172c-1.014-.546-1.996-1.075-2.84-1.656-1.21 3.372.74 6.221 2.678 9.053 2.167 3.168 4.32 6.314 2.023 10.15 4.464-1.844 6.584-7.413 4.731-11.831-1.167-2.795-3.98-4.31-6.592-5.716Zm-12.484 9.878a8.224 8.224 0 0 0-2.122-.548 10.773 10.773 0 0 0-4.223.323 15.67 15.67 0 0 0-3.774 1.615A20.031 20.031 0 0 0 16.9 52.82c.077-.071.511.005.779.051.083.014.15.026.185.03.32.04.64.087.956.153.63.12 1.243.31 1.83.567a7.91 7.91 0 0 1 2.27 1.659 9.8 9.8 0 0 1 .383.401c.307.407.658.778 1.047 1.107.076.069.155.136.237.2.532.428 1.17.705 1.847.801a3.21 3.21 0 0 0 2.075-.453 2.54 2.54 0 0 0 .55-.467c.3-.351.5-.777.58-1.233a2.393 2.393 0 0 0-.118-1.303 1.667 1.667 0 0 0-.85-.915c.336.228.57.577.654.975.078.38.048.775-.086 1.14-.121.349-.335.658-.62.895a1.833 1.833 0 0 1-.448.273 2.23 2.23 0 0 1-.505.139c-2.035.342-3.632-2.074-2.52-3.799.423-.66 1.136-1.002 1.897-1.097 1.865-.227 3.458.997 4.389 2.517.4.654.698 1.361.996 2.07.185.442.371.884.582 1.313.805 1.637 2.18 3.085 4.126 3.122a4.645 4.645 0 0 0 2.074-.47l.132-.063a6.82 6.82 0 0 0 .762-.435 7.23 7.23 0 0 0 .466-.345l.333-.267a10 10 0 0 1-1.849.63 6.593 6.593 0 0 1-.93.134l-.456-.011a4.388 4.388 0 0 1-.439-.062l-.082-.016c-2.21-.439-2.513-2.696-2.776-4.656a24.664 24.664 0 0 0-.166-1.11l-.024-.129a9.826 9.826 0 0 0-.651-2.068 6.037 6.037 0 0 0-1.35-1.882 6.62 6.62 0 0 0-1.942-1.2Zm8.174-10.586a5.59 5.59 0 0 0-1.351-2.358c.308.78.497 1.601.562 2.438.055.778-.05 1.56-.311 2.295a4.696 4.696 0 0 1-1.215 1.829 6.218 6.218 0 0 1-1.918 1.188c-.982.396-2.093.558-3.25.726-.527.077-1.065.156-1.604.258-.867.159-1.716.404-2.535.732-.809.33-1.572.763-2.27 1.29a16.514 16.514 0 0 1 4.939-.976c.305-.018.613-.032.923-.046h.001c.536-.025 1.08-.05 1.636-.096l.16-.013a10.15 10.15 0 0 0 2.512-.536 6.478 6.478 0 0 0 2.407-1.5 5.287 5.287 0 0 0 1.395-2.514 5.594 5.594 0 0 0-.08-2.717Zm-4.76-10.76c1.57 1.677 4.037 2.03 6.719 2.412 2.432.347 5.043.72 7.325 2.13 5.384 3.324 4.597 9.783 2.768 12.16.165-3.91-3.793-5.517-7.918-7.19-4.705-1.91-9.627-3.907-8.894-9.512Zm-7.386 3.852a2.63 2.63 0 0 0-2.493-1.264 2.448 2.448 0 0 0-2.116 1.847l-.012.045c-.347 1.342.055 2.4 1.916 2.22 1.242-.12 3.888-.765 2.705-2.848ZM24.2 15.52a11.58 11.58 0 0 1 3.798 2.412 22.916 22.916 0 0 1 2.012 2.145c4.645-.914 8.412-.102 11.308 1.474l.065.033a14.261 14.261 0 0 1 2.941 2.12c.617.566 1.19 1.177 1.717 1.828l.04.053c1.71 2.166 2.555 4.417 2.557 5.781l-.01-.016a6.961 6.961 0 0 0-.571-.89 4.6 4.6 0 0 0-2.54-1.72 10.856 10.856 0 0 0-1.896-.314l-.175-.011a67.024 67.024 0 0 0-1.55-.089h-.002l-.608-.03c-1.463-.08-2.96-.23-4.423-.648a12.363 12.363 0 0 1-1.085-.354 10.228 10.228 0 0 1-1.083-.472 9.266 9.266 0 0 1-1.896-1.377c-1.038-.966-1.87-2.05-2.689-3.116l-.21-.273a40.03 40.03 0 0 0-2.688-3.329 12.252 12.252 0 0 0-3.292-2.571 11.378 11.378 0 0 0-4.098-1.17 9.693 9.693 0 0 1 4.378.534Zm-.97 2.37c-.779-.9-1.988-1.372-3.173-1.544a8.177 8.177 0 0 0-.084.89c-.053 2.457.82 5.154 2.508 7.029a6.345 6.345 0 0 0 1.918 1.463l.027.013c.44.213 1.518.69 1.922.243a.297.297 0 0 0 .035-.296c-.068-.196-.2-.374-.332-.55-.093-.125-.186-.25-.255-.38-.07-.13-.145-.258-.22-.385-.14-.24-.28-.479-.387-.739-.283-.681-.43-1.405-.578-2.127l-.026-.128-.103-.497c-.22-1.055-.517-2.144-1.252-2.992ZM152.824 26.765c-4.246 1.06-6.236 4.364-5.029 8.346.516 1.707 2.107 3.428 4.356 4.716 4.053 2.32 5.246 3.259 5.939 4.675.579 1.18.629 1.575.337 2.645-.684 2.513-2.471 3.9-5.027 3.9-2.61 0-4.442-1.453-4.851-3.845-.164-.962-.367-1.27-.835-1.27-.56 0-.618.255-.618 2.692v2.69l1.697.572c2.65.893 6.42.786 8.669-.245 4.382-2.01 6.061-6 4.095-9.728-.736-1.394-2.582-2.95-5.744-4.843-3.324-1.99-4.805-3.437-5.022-4.908-.334-2.26 1.715-4.13 4.515-4.122 2.194.006 3.135.52 3.912 2.14.487 1.015.836 1.35 1.412 1.359.638.01.733-.109.57-.708-.107-.395-.197-1.387-.199-2.203-.003-1.036-.154-1.54-.501-1.672-.945-.359-6.459-.496-7.676-.191Zm-85.251.95c0 .46.215.64.769.64 1.56 0 1.644.446 1.817 9.715.15 8.098.207 8.745.86 9.94.934 1.712 2.201 2.851 4.15 3.732 1.336.603 2.179.73 4.85.736 2.896.006 3.424-.087 5.084-.893 1.02-.495 2.288-1.421 2.82-2.06 1.845-2.212 2.04-3.282 2.25-12.314.2-8.697.228-8.839 1.725-8.852.349-.003.566-.25.566-.644 0-.604-.215-.64-3.88-.64-3.62 0-3.878.042-3.878.62 0 .463.262.644 1.043.719 1.717.165 1.856.82 1.861 8.751.006 8.042-.27 9.589-2.007 11.217-1.613 1.515-2.898 2.025-5.096 2.025-3.159 0-5.397-1.459-6.13-3.995-.248-.853-.339-3.99-.274-9.428l.097-8.15 1.131-.361c.622-.199 1.178-.594 1.236-.88.092-.457-.423-.517-4.445-.517-4.334 0-4.55.03-4.55.64Zm30.063 0c0 .495.216.64.955.64 1.646 0 2.573.627 2.945 1.993.212.777.303 4.488.241 9.791-.111 9.469-.242 10.088-2.216 10.478-.65.13-.955.38-.955.789 0 .557.316.599 4.526.599 4.135 0 4.526-.05 4.526-.573 0-.408-.414-.683-1.438-.953-1.272-.337-1.477-.52-1.777-1.584-.383-1.367-.474-15.761-.099-15.72.133.015 1.387 1.345 2.787 2.957 1.399 1.61 5.227 5.841 8.506 9.4 5.134 5.572 6.094 6.473 6.9 6.473h.937l.093-11.33c.065-8.045.201-11.438.466-11.7.206-.203.861-.468 1.455-.588.631-.128 1.081-.413 1.081-.685 0-.382-.806-.482-4.445-.555-4.28-.086-4.445-.065-4.445.56 0 .473.212.647.79.647.435 0 1.198.347 1.697.771l.907.771.102 7.699c.058 4.346-.023 7.698-.185 7.698-.158 0-1.145-.97-2.193-2.157-1.049-1.187-4.034-4.459-6.635-7.271-2.601-2.813-5.442-5.929-6.313-6.925l-1.586-1.812-3.313-.026c-3.107-.025-3.314.014-3.314.613Zm33.943 0c0 .487.216.64.908.64.5 0 1.191.203 1.536.452.592.428.633.98.728 9.828.12 11.049.022 11.668-1.891 11.97-.963.153-1.281.352-1.281.802 0 .558.326.598 4.849.598 4.634 0 4.849-.029 4.849-.64 0-.454-.215-.639-.746-.639-.411 0-1.029-.203-1.374-.453-.595-.43-.632-.982-.721-10.534-.091-9.785-.075-10.1.565-10.733.363-.358 1.023-.652 1.468-.652.593 0 .808-.17.808-.639 0-.61-.215-.64-4.849-.64-4.633 0-4.849.03-4.849.64Zm33.849 0c.105.396.441.64.884.64.392 0 1.031.334 1.421.743.395.416 2.605 5.67 5.008 11.906l4.302 11.16 1.127.096 1.128.096 3.022-7.926c1.662-4.36 3.197-8.27 3.41-8.693.366-.722.447-.612 1.418 1.918.567 1.477 2.076 5.381 3.354 8.677l2.321 5.992h1.023c.564 0 1.099-.19 1.189-.424.091-.234 1.576-4.01 3.301-8.39l.244-.62 4.001-10.164c1.391-3.531 1.668-3.967 2.777-4.35.492-.17.895-.531.895-.804 0-.42-.589-.496-3.879-.496-3.663 0-3.879.035-3.879.64 0 .462.216.638.782.638 1.256 0 1.804.338 1.804 1.112 0 .646-6.157 17.227-6.536 17.602-.233.23-5.793-15.172-5.995-16.605-.194-1.392.405-2.109 1.764-2.109.53 0 .746-.184.746-.639 0-.612-.216-.64-5.011-.64s-5.011.028-5.011.64c0 .364.216.64.501.64 1.01 0 2.348.963 2.691 1.939.495 1.4.117 2.818-2.79 10.492l-2.468 6.519-.533-1.246c-.292-.685-1.814-4.726-3.382-8.98-3.08-8.36-3.126-8.725-1.09-8.725.714 0 .93-.148.93-.639 0-.61-.216-.64-4.819-.64-4.659 0-4.813.022-4.65.64Zm65.467.217s0 .436.054.557c.054.122.402.167.402.167.215.058.42.108.613.155h.002c.977.24 1.663.41 1.937 1.046.185.43.198 1.925.2 9.938.001 8.45 0 9.486-.228 10.044-.282.693-.823 1.06-2.071 1.408 0 0-.552.152-.701.288-.148.137-.176.441-.176.441s-.013.283.115.418c.127.136.467.071.467.071l3.235.009 5.365.043s.22.028.333-.116c.114-.144.085-.426.085-.426s0-.302-.141-.438-.69-.263-.69-.263c-1.212-.296-1.833-.681-2.109-1.307-.204-.466-.226-1.722-.256-4.338v-3.836c.776.434 2.797 1.302 4.676 1.302 2.551.101 4.56-1.269 5.814-3.066 1.254-1.798 1.839-4.799.92-7.806-.92-3.008-3.62-4.828-6.461-5.017-1.975-.13-4.854-.001-6.464.071h-.003a92.235 92.235 0 0 0-4.534.304l-.002.001c-.238.022-.261.025-.327.108-.067.084-.055.242-.055.242Zm13.191 11.96c1.251-1.3 1.354-3.373 1.354-4.687-.139-2.06-.797-6.2-4.583-6.2-1.108-.057-3.376.133-3.438 1.659-.069.269-.1 2.154-.083 5.046l.028 4.617.483.252.026.014.002.001c.262.137.602.314 1.193.43.952.175 3.766.167 5.018-1.132Zm-28.604-12.417.582-.22s.524-.214.693 0c.052.065.239.542.699 1.719l.327.837c.703 1.797 1.712 4.375 2.244 5.73l2.335 5.96 2.148 5.48c.428 1.091.975 2.227 1.128 2.434.075.101.152.227.236.365.331.544.775 1.275 1.666 1.417 0 0 .698.115.801.223.104.109.127.306.127.306v.37s-.012.095-.069.176c-.057.08-.268.058-.268.058h-5.38l-3.827.027s-.134.017-.213-.048c-.079-.065-.12-.228-.12-.228v-.28s-.033-.21.12-.392c.153-.182.768-.203.768-.203 1.158-.1 1.619-1.08 1.855-1.584l.05-.104c.251-.52.161-.86-.98-3.646-.751-1.839-1.008-2.355-1.191-2.4-.128-.033-2.13-.045-4.449-.027l-4.217.032-.252.687c-.729 1.989-1.376 3.965-1.474 4.499-.198 1.087.079 2.296 1.69 2.506 0 0 .597.081.757.2.159.12.214.425.214.425v.282s-.03.134-.14.224c-.109.09-.394.058-.394.058h-4.024l-3.893.044s-.166-.004-.288-.069c-.124-.064-.144-.194-.144-.194v-.268s-.021-.174.196-.386c.217-.212.803-.27.803-.27 1.063-.17 1.666-1.293 2.013-1.94l.072-.135c.139-.252.758-1.721 1.378-3.265.622-1.545 1.317-3.272 1.548-3.84.785-1.928 1.53-3.776 2.658-6.589.619-1.544 1.536-3.823 2.037-5.065l.911-2.258 1.267-.648Zm-.332 5.487c.194.489.494 1.224.664 1.633.17.41.645 1.57 1.056 2.579.411 1.008.917 2.235 1.124 2.727.206.491.375.917.375.945 0 .029-1.55.052-3.443.052-2.174 0-3.444-.041-3.444-.112 0-.062.074-.307.163-.544.141-.378.848-2.385 2.408-6.84.241-.688.464-1.295.496-1.349.11-.183.246.022.601.91Z" clip-rule="evenodd"/></svg>