<svg width="132" height="156" viewBox="0 0 132 156" fill="none" xmlns="http://www.w3.org/2000/svg">
<path fill-rule="evenodd" clip-rule="evenodd" d="M73.6804 143.8C72.6194 144.388 71.6595 145.155 70.8163 146.093L70.8168 146.093C68.8891 148.238 67.6216 151.224 67.1084 154.829L87.886 143.312C88.3992 139.707 89.6669 136.721 91.5949 134.575L91.5944 134.576C92.4362 133.639 93.3943 132.873 94.4532 132.286L82.613 138.849L77.3667 141.345L74.9518 143.096L73.6804 143.8Z" fill="#0D0B33"/>
<path d="M70.8163 146.093L70.318 145.645C70.0993 145.889 70.0884 146.255 70.2921 146.511C70.4958 146.767 70.8547 146.838 71.1409 146.679L70.8163 146.093ZM73.6804 143.8L74.0051 144.387L74.0053 144.386L73.6804 143.8ZM70.8168 146.093L71.3152 146.541C71.5339 146.297 71.5448 145.932 71.3411 145.676C71.1373 145.42 70.7785 145.348 70.4923 145.507L70.8168 146.093ZM67.1084 154.829L66.4451 154.735C66.4093 154.987 66.519 155.237 66.7284 155.381C66.9378 155.525 67.2108 155.539 67.4332 155.415L67.1084 154.829ZM87.886 143.312L88.2108 143.898C88.3944 143.796 88.5197 143.614 88.5493 143.406L87.886 143.312ZM91.5949 134.575L92.0932 135.023C92.3068 134.786 92.3228 134.43 92.1315 134.174C91.9402 133.918 91.5949 133.833 91.3065 133.971L91.5949 134.575ZM91.5944 134.576L91.0961 134.128C90.8825 134.365 90.8665 134.721 91.0577 134.977C91.249 135.233 91.5944 135.318 91.8828 135.18L91.5944 134.576ZM94.4532 132.286L94.7782 132.872C95.1017 132.692 95.2185 132.285 95.0391 131.961C94.8597 131.637 94.452 131.521 94.1284 131.7L94.4532 132.286ZM82.613 138.849L82.9009 139.454C82.9134 139.448 82.9257 139.442 82.9378 139.435L82.613 138.849ZM77.3667 141.345L77.0789 140.74C77.0419 140.758 77.0067 140.779 76.9735 140.803L77.3667 141.345ZM74.9518 143.096L75.2766 143.682C75.3002 143.669 75.3231 143.654 75.345 143.638L74.9518 143.096ZM71.3147 146.541C72.1095 145.657 73.0112 144.937 74.0051 144.387L73.3558 143.214C72.2276 143.839 71.2094 144.654 70.318 145.645L71.3147 146.541ZM70.4923 145.507L70.4918 145.507L71.1409 146.679L71.1414 146.679L70.4923 145.507ZM67.7717 154.924C68.2711 151.416 69.497 148.564 71.3152 146.541L70.3185 145.645C68.2812 147.912 66.9721 151.033 66.4451 154.735L67.7717 154.924ZM87.5612 142.726L66.7836 154.243L67.4332 155.415L88.2108 143.898L87.5612 142.726ZM91.0965 134.127C89.059 136.395 87.7497 139.515 87.2227 143.218L88.5493 143.406C89.0487 139.898 90.2748 137.047 92.0932 135.023L91.0965 134.127ZM91.8828 135.18L91.8832 135.18L91.3065 133.971L91.306 133.971L91.8828 135.18ZM94.1282 131.7C93.0023 132.325 91.986 133.138 91.0961 134.128L92.0927 135.023C92.8863 134.141 93.7863 133.422 94.7782 132.872L94.1282 131.7ZM82.9378 139.435L94.778 132.872L94.1284 131.7L82.2882 138.263L82.9378 139.435ZM77.6546 141.95L82.9009 139.454L82.3251 138.244L77.0789 140.74L77.6546 141.95ZM75.345 143.638L77.7599 141.888L76.9735 140.803L74.5586 142.553L75.345 143.638ZM74.0053 144.386L75.2766 143.682L74.627 142.51L73.3556 143.214L74.0053 144.386ZM94.778 132.872L94.7829 132.869L94.1332 131.697L94.1284 131.7L94.778 132.872Z" fill="#0D0B33"/>
<path d="M22.9745 22.785C19.5644 21.1136 16.1401 18.5426 12.9561 15.2634L33.0644 4.11712C33.4594 3.89818 33.9514 3.97208 34.2713 4.29086C37.3015 7.31081 40.5331 9.69003 43.7521 11.2678L43.7504 11.2701L43.7519 11.2692C47.1598 12.9396 50.466 13.6688 53.425 13.4026L53.4279 13.401C55.094 13.2543 56.6265 12.7945 57.9916 12.0383L37.214 23.5555C35.8504 24.3109 34.3199 24.7705 32.6559 24.9177L32.6531 24.9193C29.6926 25.1869 26.3844 24.4579 22.9743 22.7864L22.9781 22.7843L22.9745 22.785Z" fill="#4A21EF" stroke="#0D0B33" stroke-width="1.34" stroke-linejoin="round"/>
<path d="M97.9404 152.094C103.172 148.349 107.141 142.703 109.601 135.51L130.379 123.993C127.919 131.186 123.949 136.832 118.718 140.577L97.9404 152.094Z" fill="#4A21EF" stroke="#0D0B33" stroke-width="1.34" stroke-linejoin="round"/>
<path d="M43.7871 12.5216V12.5282L64.5647 1.01098V1.00439L43.7871 12.5216Z" fill="#8674F5" stroke="#0D0B33" stroke-width="1.34" stroke-linejoin="round"/>
<path d="M67.1035 25.9702C59.4138 19.6776 51.4752 15.0988 43.7871 12.5216L64.5647 1.00439C72.2528 3.58155 80.1914 8.1604 87.8811 14.4529L67.1035 25.9702Z" fill="#B4A1FF" stroke="#0D0B33" stroke-width="1.34" stroke-linejoin="round"/>
<path fill-rule="evenodd" clip-rule="evenodd" d="M107.872 95.1492C105.986 96.1941 104.431 97.7982 103.283 99.8963L103.284 99.8959C101.804 102.601 101.038 106.057 101.042 110.007L101.043 110.007L101.042 110.007C101.042 118.326 104.382 127.671 109.603 135.509L130.38 123.992C125.159 116.154 121.82 106.809 121.82 98.4901L121.819 98.4903L121.82 98.4898C121.815 94.539 122.582 91.0827 124.062 88.3779L124.061 88.3782C125.208 86.2824 126.761 84.6796 128.645 83.6348L107.872 95.1492Z" fill="#0D0B33"/>
<path d="M103.283 99.8963L102.696 99.5746C102.552 99.8362 102.599 100.161 102.811 100.371C103.022 100.582 103.347 100.627 103.608 100.482L103.283 99.8963ZM107.872 95.1492L108.197 95.7353L108.197 95.7352L107.872 95.1492ZM103.284 99.8959L103.872 100.218C104.015 99.9559 103.968 99.6312 103.756 99.4209C103.545 99.2106 103.22 99.1654 102.959 99.3099L103.284 99.8959ZM101.042 110.007L100.372 110.008C100.372 110.245 100.498 110.464 100.702 110.585C100.907 110.705 101.16 110.708 101.367 110.593L101.042 110.007ZM101.043 110.007L101.508 110.489C101.75 110.256 101.782 109.879 101.582 109.608C101.382 109.338 101.012 109.257 100.718 109.421L101.043 110.007ZM101.042 110.007L100.577 109.525C100.446 109.651 100.372 109.825 100.372 110.007H101.042ZM109.603 135.509L109.045 135.881C109.238 136.171 109.622 136.264 109.927 136.095L109.603 135.509ZM130.38 123.992L130.705 124.578C130.869 124.487 130.987 124.332 131.031 124.15C131.075 123.968 131.042 123.776 130.938 123.621L130.38 123.992ZM121.82 98.4901H122.49C122.49 98.2916 122.402 98.1033 122.249 97.976C122.097 97.8487 121.896 97.7955 121.7 97.8308L121.82 98.4901ZM121.819 98.4903L121.494 97.9044C121.207 98.0634 121.077 98.4066 121.188 98.7154C121.298 99.0242 121.615 99.208 121.938 99.1496L121.819 98.4903ZM121.82 98.4898L122.145 99.0757C122.358 98.9575 122.49 98.7328 122.49 98.4891L121.82 98.4898ZM124.062 88.3779L124.65 88.6995C124.793 88.4378 124.746 88.113 124.534 87.9027C124.323 87.6924 123.997 87.6473 123.737 87.7922L124.062 88.3779ZM124.061 88.3782L123.474 88.0566C123.33 88.3183 123.377 88.6431 123.589 88.8534C123.801 89.0637 124.126 89.1088 124.387 88.964L124.061 88.3782ZM128.645 83.6348L128.97 84.2207C129.293 84.0412 129.41 83.6334 129.231 83.3099C129.051 82.9863 128.643 82.8694 128.32 83.0488L128.645 83.6348ZM103.871 100.218C104.965 98.2194 106.433 96.7126 108.197 95.7353L107.547 94.5632C105.539 95.6757 103.898 97.3771 102.696 99.5746L103.871 100.218ZM102.959 99.3099L102.959 99.3102L103.608 100.482L103.609 100.482L102.959 99.3099ZM102.696 99.5743C101.149 102.402 100.368 105.976 100.372 110.008L101.712 110.006C101.708 106.138 102.459 102.799 103.872 100.218L102.696 99.5743ZM101.367 110.593L101.368 110.592L100.718 109.421L100.717 109.421L101.367 110.593ZM100.578 109.524L100.577 109.525L101.507 110.49L101.508 110.489L100.578 109.524ZM100.372 110.007C100.372 118.489 103.77 127.962 109.045 135.881L110.16 135.138C104.993 127.381 101.712 118.163 101.712 110.007H100.372ZM109.927 136.095L130.705 124.578L130.055 123.406L109.278 134.923L109.927 136.095ZM130.938 123.621C125.771 115.864 122.49 106.646 122.49 98.4901H121.15C121.15 106.972 124.548 116.444 129.823 124.363L130.938 123.621ZM121.7 97.8308L121.699 97.831L121.938 99.1496L121.939 99.1494L121.7 97.8308ZM122.144 99.0762L122.145 99.0757L121.495 97.9039L121.494 97.9044L122.144 99.0762ZM122.49 98.4891C122.486 94.62 123.237 91.2816 124.65 88.6995L123.474 88.0563C121.927 90.8839 121.145 94.458 121.15 98.4905L122.49 98.4891ZM123.737 87.7922L123.736 87.7925L124.387 88.964L124.387 88.9637L123.737 87.7922ZM128.32 83.0489C126.314 84.1613 124.675 85.8613 123.474 88.0566L124.649 88.6999C125.742 86.7035 127.208 85.1979 128.97 84.2207L128.32 83.0489ZM108.197 95.7352L128.97 84.2208L128.32 83.0488L107.547 94.5632L108.197 95.7352ZM128.969 84.2208L128.974 84.218L128.325 83.046L128.32 83.0488L128.969 84.2208Z" fill="#0D0B33"/>
<path d="M107.872 95.1469C108.418 94.8447 108.991 94.5893 109.59 94.3822L130.368 82.865C129.769 83.0721 129.195 83.3275 128.65 83.6297L107.872 95.1469Z" fill="#8674F5" stroke="#0D0B33" stroke-width="1.34" stroke-linejoin="round"/>
<path fill-rule="evenodd" clip-rule="evenodd" d="M67.1016 25.9673C67.6138 30.1676 68.8816 34.6205 70.8106 38.9952H70.818L70.8133 38.9978C72.7422 43.3721 75.2827 47.5557 78.246 51.2375L78.2442 51.2385C81.2054 54.926 84.5146 58.0181 87.9258 60.285L87.9287 60.2834C91.3395 62.5498 94.7646 63.9328 97.9491 64.3295L118.727 52.8123C115.542 52.4156 112.117 51.0324 108.705 48.7656L108.702 48.7671C105.292 46.5005 101.983 43.4089 99.0224 39.7221L99.0242 39.7211C96.0606 36.039 93.5199 31.8552 91.5909 27.4806L91.5848 27.484L91.5882 27.478C89.6592 23.1033 88.3914 18.6504 87.8792 14.4501L67.1016 25.9673Z" fill="#4A21EF"/>
<path d="M70.8106 38.9952L70.1976 39.2655C70.3047 39.5084 70.5452 39.6652 70.8106 39.6652V38.9952ZM67.1016 25.9673L66.7767 25.3814C66.538 25.5137 66.4035 25.7775 66.4365 26.0485L67.1016 25.9673ZM70.818 38.9952L71.1428 39.5812C71.41 39.4331 71.5432 39.1231 71.4667 38.8274C71.3902 38.5317 71.1234 38.3252 70.818 38.3252V38.9952ZM70.8133 38.9978L70.4885 38.4118C70.1854 38.5798 70.0604 38.9511 70.2002 39.2681L70.8133 38.9978ZM78.246 51.2375L78.5713 51.8233C78.7441 51.7273 78.8656 51.56 78.9036 51.3661C78.9415 51.1722 78.8918 50.9714 78.7679 50.8175L78.246 51.2375ZM78.2442 51.2385L77.9189 50.6528C77.7463 50.7487 77.6247 50.9158 77.5867 51.1096C77.5487 51.3034 77.5981 51.5041 77.7218 51.6581L78.2442 51.2385ZM87.9258 60.285L87.555 60.843C87.7634 60.9815 88.0317 60.9923 88.2506 60.871L87.9258 60.285ZM87.9287 60.2834L88.2995 59.7253C88.091 59.5868 87.8227 59.576 87.6038 59.6974L87.9287 60.2834ZM97.9491 64.3295L97.8663 64.9944C98.0071 65.0119 98.1498 64.9843 98.2739 64.9155L97.9491 64.3295ZM118.727 52.8123L119.051 53.3983C119.305 53.2577 119.44 52.9698 119.384 52.685C119.329 52.4003 119.097 52.1833 118.809 52.1474L118.727 52.8123ZM108.705 48.7656L109.076 48.2075C108.868 48.069 108.6 48.0582 108.381 48.1795L108.705 48.7656ZM108.702 48.7671L108.332 49.3251C108.54 49.4636 108.808 49.4745 109.027 49.3532L108.702 48.7671ZM99.0224 39.7221L98.6974 39.1361C98.5247 39.232 98.403 39.3991 98.3649 39.593C98.3269 39.7868 98.3763 39.9876 98.5 40.1416L99.0224 39.7221ZM99.0242 39.7211L99.3491 40.307C99.522 40.2111 99.6437 40.0438 99.6817 39.8498C99.7197 39.6558 99.6701 39.455 99.5461 39.301L99.0242 39.7211ZM91.5909 27.4806L92.2039 27.2103C92.128 27.038 91.983 26.9057 91.8046 26.8456C91.6262 26.7855 91.4307 26.8033 91.266 26.8946L91.5909 27.4806ZM91.5848 27.484L91.0048 27.1485C90.854 27.4092 90.8957 27.7385 91.1067 27.9534C91.3177 28.1683 91.6462 28.216 91.9096 28.07L91.5848 27.484ZM91.5882 27.478L92.1682 27.8134C92.2753 27.6283 92.2876 27.4033 92.2013 27.2076L91.5882 27.478ZM87.8792 14.4501L88.5442 14.369C88.5173 14.1478 88.3821 13.9545 88.1836 13.8533C87.9851 13.752 87.7492 13.7561 87.5543 13.8641L87.8792 14.4501ZM71.4237 38.7248C69.5178 34.4027 68.27 30.0134 67.7666 25.8862L66.4365 26.0485C66.9577 30.3218 68.2454 34.8384 70.1976 39.2655L71.4237 38.7248ZM70.818 38.3252H70.8106V39.6652H70.818V38.3252ZM71.1381 39.5838L71.1428 39.5812L70.4932 38.4092L70.4885 38.4118L71.1381 39.5838ZM78.7679 50.8175C75.8419 47.1819 73.3318 43.0487 71.4263 38.7275L70.2002 39.2681C72.1525 43.6955 74.7235 47.9295 77.7241 51.6576L78.7679 50.8175ZM78.5695 51.8243L78.5713 51.8233L77.9207 50.6518L77.9189 50.6528L78.5695 51.8243ZM88.2966 59.7269C84.9509 57.5036 81.6912 54.4609 78.7666 50.819L77.7218 51.6581C80.7196 55.3911 84.0784 58.5327 87.555 60.843L88.2966 59.7269ZM87.6038 59.6974L87.601 59.699L88.2506 60.871L88.2535 60.8694L87.6038 59.6974ZM98.0319 63.6646C94.9748 63.2838 91.6471 61.9498 88.2995 59.7253L87.5579 60.8414C91.032 63.1499 94.5544 64.5818 97.8663 64.9944L98.0319 63.6646ZM118.402 52.2263L97.6243 63.7435L98.2739 64.9155L119.051 53.3983L118.402 52.2263ZM108.335 49.3236C111.809 51.6325 115.332 53.0646 118.644 53.4772L118.809 52.1474C115.752 51.7666 112.424 50.4323 109.076 48.2075L108.335 49.3236ZM109.027 49.3532L109.03 49.3516L108.381 48.1795L108.378 48.181L109.027 49.3532ZM98.5 40.1416C101.497 43.8739 104.856 47.0151 108.332 49.3251L109.073 48.2091C105.728 45.986 102.469 42.9438 99.5448 39.3025L98.5 40.1416ZM98.6992 39.1351L98.6974 39.1361L99.3473 40.308L99.3491 40.307L98.6992 39.1351ZM90.9778 27.7509C92.9303 32.1786 95.5015 36.4129 98.5022 40.1412L99.5461 39.301C96.6198 35.6652 94.1096 31.5318 92.2039 27.2103L90.9778 27.7509ZM91.9096 28.07L91.9157 28.0666L91.266 26.8946L91.2599 26.898L91.9096 28.07ZM91.0083 27.1425L91.0048 27.1485L92.1647 27.8195L92.1682 27.8134L91.0083 27.1425ZM87.2141 14.5312C87.7353 18.8046 89.023 23.3212 90.9752 27.7483L92.2013 27.2076C90.2954 22.8855 89.0476 18.4961 88.5442 14.369L87.2141 14.5312ZM67.4264 26.5533L88.204 15.0361L87.5543 13.8641L66.7767 25.3814L67.4264 26.5533Z" fill="#0D0B33"/>
<path d="M109.591 94.3841C107.145 84.351 103.181 74.1188 97.9473 64.3313L118.725 52.8141C123.959 62.6016 127.923 72.8337 130.369 82.8669L109.591 94.3841Z" fill="#0D0B33" stroke="#0D0B33" stroke-width="1.34" stroke-linejoin="round"/>
<path d="M43.784 12.5203C51.4722 15.0975 59.4107 19.6763 67.1004 25.9688C67.6127 30.1691 68.8804 34.622 70.8095 38.9967C72.7386 43.3713 75.2793 47.5551 78.2428 51.2371C81.204 54.9246 84.5132 58.0167 87.9244 60.2836C91.3356 62.5504 94.761 63.9336 97.9458 64.3303C103.179 74.1178 107.144 84.35 109.59 94.3831C106.919 95.3061 104.763 97.19 103.283 99.8948C101.803 102.6 101.036 106.056 101.041 110.007C101.041 118.325 104.38 127.67 109.601 135.509C107.141 142.702 103.171 148.347 97.9401 152.093C94.7561 148.814 91.3317 146.243 87.9216 144.571C84.5115 142.9 81.2033 142.171 78.2428 142.439C75.2817 142.699 72.7429 143.949 70.815 146.094C68.887 148.239 67.6194 151.226 67.1061 154.831C59.4188 152.258 51.4802 147.684 43.7897 141.395C43.2799 137.193 42.0133 132.737 40.0841 128.359C38.1549 123.98 35.6129 119.793 32.6473 116.107C29.6857 112.421 26.3763 109.33 22.9651 107.064C19.5539 104.798 16.1288 103.416 12.9444 103.021C7.71003 93.231 3.74555 82.9965 1.30046 72.9615C3.97004 72.039 6.12479 70.1567 7.6048 67.4542C9.08481 64.7518 9.85206 61.2986 9.84961 57.351C9.85241 53.4032 9.08422 49.0602 7.60214 44.6451C6.12007 40.23 3.96223 35.8563 1.28906 31.8491C3.74933 24.6556 7.7187 19.0103 12.9501 15.2646C16.1341 18.5439 19.5584 21.1148 22.9685 22.7863C26.3787 24.4577 29.6869 25.1867 32.6473 24.9192C35.6085 24.6583 38.1472 23.4089 40.0752 21.2636C42.0032 19.1182 43.2708 16.1321 43.784 12.5269V12.5203Z" fill="#8674F5" stroke="#0D0B33" stroke-width="1.34" stroke-linejoin="round"/>
<path d="M36.3599 79.7864L36.3599 79.7863C36.2583 79.5048 36.2546 79.3268 36.2688 79.2406C36.269 79.2396 36.2692 79.2387 36.2693 79.2377C36.2811 79.2402 36.2951 79.2438 36.3117 79.2491C36.4171 79.2826 36.5865 79.375 36.7912 79.5818L36.7912 79.5818C40.4441 83.2724 47.547 89.7826 56.9419 95.2068C66.3441 100.635 73.4821 102.344 77.1916 102.88L77.1917 102.88C77.4167 102.912 77.7843 103.173 78.0565 103.639C78.182 103.854 78.2577 104.067 78.2827 104.243C78.3081 104.422 78.2754 104.511 78.2551 104.544C77.4313 105.876 76.1215 107.481 74.1743 108.605C70.939 110.472 65.7304 111.125 57.6119 106.438C44.6654 98.9633 38.6552 86.1495 36.3599 79.7864ZM36.224 79.233C36.222 79.2335 36.2209 79.2336 36.2208 79.2335C36.2208 79.2334 36.2218 79.2332 36.224 79.233ZM36.282 79.1918C36.2821 79.1919 36.2817 79.1926 36.2809 79.1939C36.2816 79.1924 36.282 79.1918 36.282 79.1918ZM63.6831 71.3494C63.6831 68.9719 64.5124 67.4796 65.6611 66.8162C66.8101 66.1526 68.5173 66.1803 70.5766 67.3692C72.6319 68.5559 74.5303 70.619 75.9165 73.0198C77.3026 75.4206 78.1401 78.0963 78.1401 80.4698C78.1401 82.8469 77.311 84.3389 76.1623 85.0023C75.0133 85.666 73.306 85.6383 71.2466 84.4493C69.1913 83.2626 67.2929 81.1996 65.9068 78.7988C64.5207 76.3981 63.6831 73.7226 63.6831 71.3494ZM37.8255 56.4205C37.8255 54.0429 38.6547 52.5507 39.8034 51.8872C40.9524 51.2236 42.6596 51.2514 44.7189 52.4403C46.7742 53.6269 48.6727 55.69 50.0588 58.0908C51.4449 60.4917 52.2824 63.1674 52.2824 65.5409C52.2824 67.918 51.4533 69.41 50.3046 70.0734C49.1556 70.737 47.4484 70.7093 45.3889 69.5203C43.3337 68.3337 41.4352 66.2706 40.0491 63.8699C38.663 61.4692 37.8255 58.7936 37.8255 56.4205Z" fill="#00FF1E" stroke="#FF0000" stroke-width="1.34" stroke-linejoin="round"/>
<mask id="path-15-inside-1_1812_50806" fill="white">
<path d="M29.5285 83.5926C29.274 82.8872 29.3969 82.4029 29.7114 82.2213L35.9083 78.6436C35.5939 78.8252 35.4709 79.3095 35.7254 80.0148L29.5285 83.5926Z"/>
</mask>
<path d="M29.5285 83.5926C29.274 82.8872 29.3969 82.4029 29.7114 82.2213L35.9083 78.6436C35.5939 78.8252 35.4709 79.3095 35.7254 80.0148L29.5285 83.5926Z" fill="#00FF1E"/>
<path d="M36.2418 79.2247L36.2418 79.2247L35.575 78.0624L35.5748 78.0625L36.2418 79.2247ZM29.7114 82.2213L30.3813 83.3819L30.3814 83.3818L29.7114 82.2213ZM29.5285 83.5926L28.268 84.0474C28.4027 84.4206 28.6958 84.7149 29.0684 84.8511C29.4411 84.9873 29.8549 84.9514 30.1985 84.753L29.5285 83.5926ZM35.7254 80.0148L36.3954 81.1752C36.9574 80.8508 37.2061 80.1703 36.9859 79.56L35.7254 80.0148ZM35.9083 78.6436L36.5784 79.804C37.2193 79.4339 37.4388 78.6144 37.0687 77.9735C36.6987 77.3326 35.8792 77.1131 35.2383 77.4831L35.9083 78.6436ZM29.0415 81.0608C27.8318 81.7591 27.9569 83.185 28.268 84.0474L30.789 83.1378C30.7131 82.9275 30.7386 82.8688 30.7287 82.9285C30.723 82.9633 30.7044 83.0382 30.6473 83.1287C30.5881 83.2224 30.4988 83.3141 30.3813 83.3819L29.0415 81.0608ZM30.1985 84.753L36.3954 81.1752L35.0554 78.8543L28.8585 82.4321L30.1985 84.753ZM36.9859 79.56C36.91 79.3497 36.9355 79.291 36.9257 79.3507C36.9199 79.3855 36.9014 79.4603 36.8442 79.5508C36.7851 79.6445 36.6958 79.7362 36.5784 79.804L35.2382 77.4832C34.0287 78.1816 34.1538 79.6072 34.465 80.4696L36.9859 79.56ZM35.2383 77.4831L29.0414 81.0609L30.3814 83.3818L36.5783 79.804L35.2383 77.4831Z" fill="#FF0000" mask="url(#path-15-inside-1_1812_50806)"/>
<path d="M51.0725 109.822C38.6999 102.524 32.7549 90.3537 30.3465 83.8905L35.367 80.9919C37.8282 87.5157 43.7575 99.531 55.9431 107.01L51.0725 109.822Z" fill="#00FF1E" stroke="#FF0000" stroke-width="1.34" stroke-linejoin="round"/>
<path d="M69.4443 111.332L67.9725 112.181C64.8751 113.969 59.9689 114.644 52.4322 110.585L57.2739 107.79C62.2184 110.584 66.2264 111.507 69.4443 111.332Z" fill="#00FF1E" stroke="#FF0000" stroke-width="1.34" stroke-linejoin="round"/>
<path d="M43.765 70.0676L38.8617 72.8986C36.9329 71.6882 35.1618 69.7182 33.8497 67.4456C32.5376 65.1731 31.7171 62.6544 31.6332 60.3789L36.5365 57.548C36.7538 59.8875 37.6194 62.3439 38.8862 64.5379C40.1529 66.7318 41.8475 68.7097 43.765 70.0676Z" fill="#00FF1E" stroke="#FF0000" stroke-width="1.34" stroke-linejoin="round"/>
<path d="M33.604 55.4639L36.9239 53.5471C36.6695 54.2832 36.5224 55.1167 36.4899 56.0285L31.7047 58.7912C31.9372 57.1059 32.6635 56.0071 33.6039 55.4639C33.6039 55.4639 33.604 55.4639 33.604 55.4639Z" fill="#00FF1E" stroke="#FF0000" stroke-width="1.34" stroke-linejoin="round"/>
<path d="M45.0573 70.871C45.8632 71.2987 46.6586 71.5881 47.4232 71.7357L44.1043 73.6519L44.1042 73.652C43.1634 74.1953 41.8484 74.2752 40.2722 73.6337L45.0573 70.871Z" fill="#00FF1E" stroke="#FF0000" stroke-width="1.34" stroke-linejoin="round"/>
<path fill-rule="evenodd" clip-rule="evenodd" d="M29.6084 82.1214C29.9317 81.9509 30.5552 82.1717 31.0672 82.6891H31.0763L31.0738 82.6905C34.7016 86.3557 41.7564 92.8212 51.0805 98.2049L51.0802 98.2067C60.4059 103.591 67.4622 105.273 71.0906 105.797L71.0924 105.796C72.1232 105.946 73.1415 107.646 72.6289 108.475L78.8258 104.897C79.3386 104.068 78.3195 102.367 77.2883 102.218L77.2865 102.219C73.658 101.695 66.6027 100.013 57.2785 94.6297L57.2802 94.6287C47.9548 89.2447 40.8989 82.7783 37.2707 79.1127L37.2617 79.1179L37.2642 79.1112C36.7448 78.5865 36.2285 78.459 35.9094 78.6432L29.6084 82.1214Z" fill="#4A21EF"/>
<path d="M31.0672 82.6891L30.591 83.1604C30.7169 83.2875 30.8884 83.3591 31.0672 83.3591V82.6891ZM29.6084 82.1214L29.2846 81.5349C28.9628 81.7125 28.8442 82.1162 29.0188 82.4396C29.1934 82.7631 29.5959 82.8855 29.921 82.714L29.6084 82.1214ZM31.0763 82.6891L31.4113 83.2693C31.6739 83.1177 31.8019 82.8086 31.7234 82.5156C31.6449 82.2227 31.3795 82.0191 31.0763 82.0191V82.6891ZM31.0738 82.6905L30.7388 82.1102C30.5589 82.2141 30.4374 82.3955 30.4097 82.6013C30.3821 82.8072 30.4515 83.0142 30.5976 83.1618L31.0738 82.6905ZM51.0805 98.2049L51.7385 98.3309C51.7922 98.0507 51.6626 97.7673 51.4155 97.6247L51.0805 98.2049ZM51.0802 98.2067L50.4221 98.0806C50.3684 98.3608 50.4981 98.6443 50.7452 98.7869L51.0802 98.2067ZM71.0906 105.797L70.9949 106.46C71.1437 106.482 71.2954 106.452 71.4256 106.377L71.0906 105.797ZM71.0924 105.796L71.1887 105.133C71.0398 105.111 70.8878 105.14 70.7574 105.216L71.0924 105.796ZM72.6289 108.475L72.059 108.123C71.8976 108.384 71.9343 108.721 72.1481 108.942C72.3619 109.162 72.6981 109.209 72.9639 109.055L72.6289 108.475ZM78.8258 104.897L79.1608 105.478C79.2568 105.422 79.3375 105.344 79.3958 105.25L78.8258 104.897ZM77.2883 102.218L77.384 101.555C77.2352 101.533 77.0835 101.563 76.9533 101.638L77.2883 102.218ZM77.2865 102.219L77.1907 102.882C77.3396 102.904 77.4913 102.874 77.6215 102.799L77.2865 102.219ZM57.2785 94.6297L56.9434 94.0495C56.7362 94.1692 56.6085 94.3904 56.6085 94.6298C56.6085 94.8691 56.7362 95.0903 56.9435 95.21L57.2785 94.6297ZM57.2802 94.6287L57.6153 95.2089C57.8226 95.0892 57.9503 94.868 57.9502 94.6287C57.9502 94.3893 57.8225 94.1681 57.6152 94.0485L57.2802 94.6287ZM37.2707 79.1127L37.7469 78.6414C37.5327 78.4249 37.1995 78.3802 36.9357 78.5324L37.2707 79.1127ZM37.2617 79.1179L36.6351 78.8806C36.5348 79.1455 36.6119 79.4449 36.8277 79.6284C37.0435 79.8118 37.3513 79.8398 37.5967 79.6982L37.2617 79.1179ZM37.2642 79.1112L37.8908 79.3485C37.9836 79.1033 37.9249 78.8263 37.7404 78.6399L37.2642 79.1112ZM35.9094 78.6432L36.2332 79.2299L36.2443 79.2234L35.9094 78.6432ZM31.5435 82.2177C31.2291 81.9002 30.866 81.6576 30.5042 81.5207C30.1711 81.3945 29.7073 81.3117 29.2958 81.5288L29.921 82.714C29.8327 82.7606 29.8423 82.7029 30.0298 82.7739C30.1886 82.834 30.3933 82.9605 30.591 83.1604L31.5435 82.2177ZM31.0763 82.0191H31.0672V83.3591H31.0763V82.0191ZM31.4088 83.2707L31.4113 83.2693L30.7413 82.1088L30.7388 82.1102L31.4088 83.2707ZM51.4155 97.6247C42.1609 92.281 35.1532 85.8595 31.55 82.2192L30.5976 83.1618C34.2501 86.8519 41.352 93.3613 50.7455 98.7851L51.4155 97.6247ZM51.7382 98.3327L51.7385 98.3309L50.4225 98.0788L50.4221 98.0806L51.7382 98.3327ZM71.1864 105.134C67.6391 104.622 60.6644 102.967 51.4151 97.6264L50.7452 98.7869C60.1473 104.215 67.2854 105.924 70.9949 106.46L71.1864 105.134ZM70.7574 105.216L70.7557 105.217L71.4256 106.377L71.4274 106.376L70.7574 105.216ZM70.996 106.459C71.2213 106.492 71.5888 106.752 71.8607 107.218C71.9861 107.433 72.0618 107.646 72.0867 107.822C72.1121 108.001 72.0793 108.09 72.059 108.123L73.1988 108.827C73.4349 108.445 73.467 108.011 73.4134 107.634C73.3594 107.253 73.2122 106.876 73.0182 106.543C72.6514 105.914 71.9943 105.25 71.1887 105.133L70.996 106.459ZM72.9639 109.055L79.1608 105.478L78.4908 104.317L72.2939 107.895L72.9639 109.055ZM79.3958 105.25C79.6319 104.868 79.6639 104.433 79.6103 104.055C79.5562 103.674 79.4088 103.297 79.2147 102.965C78.8477 102.336 78.1902 101.671 77.384 101.555L77.1926 102.881C77.4176 102.914 77.7852 103.174 78.0574 103.64C78.1829 103.855 78.2586 104.068 78.2836 104.244C78.3091 104.423 78.2762 104.512 78.2559 104.545L79.3958 105.25ZM76.9533 101.638L76.9516 101.639L77.6215 102.799L77.6233 102.798L76.9533 101.638ZM56.9435 95.21C66.3441 100.637 73.4811 102.346 77.1907 102.882L77.3823 101.556C73.8349 101.043 66.8612 99.3884 57.6135 94.0495L56.9435 95.21ZM56.9452 94.0485L56.9434 94.0495L57.6136 95.2099L57.6153 95.2089L56.9452 94.0485ZM36.7945 79.584C40.4474 83.2745 47.5503 89.7848 56.9452 95.2089L57.6152 94.0485C48.3592 88.7045 41.3505 82.2821 37.7469 78.6414L36.7945 79.584ZM37.5967 79.6982L37.6057 79.6929L36.9357 78.5324L36.9267 78.5377L37.5967 79.6982ZM36.6376 78.874L36.6351 78.8806L37.8882 79.3552L37.8908 79.3485L36.6376 78.874ZM36.2443 79.2234C36.2 79.249 36.204 79.2165 36.3085 79.2498C36.4139 79.2833 36.5833 79.3757 36.788 79.5826L37.7404 78.6399C37.1604 78.0539 36.3078 77.6396 35.5744 78.0629L36.2443 79.2234ZM29.9322 82.708L36.2332 79.2297L35.5856 78.0566L29.2846 81.5349L29.9322 82.708Z" fill="#0D0B33"/>
<path d="M72.6225 108.474C71.7619 109.866 70.3812 111.564 68.3109 112.76L74.5036 109.185C76.5762 107.989 77.9583 106.289 78.8194 104.896L72.6225 108.474Z" fill="#0D0B33" stroke="#0D0B33" stroke-width="1.34" stroke-linejoin="round"/>
<path fill-rule="evenodd" clip-rule="evenodd" d="M38.7955 55.3368C36.5861 54.0611 34.5858 53.9402 33.1377 54.7759L39.4149 51.1518C40.863 50.3154 42.8638 50.4361 45.0738 51.712L45.0709 51.7137H45.0745C49.4924 54.2643 53.0741 60.4658 53.0767 65.5684L53.0772 65.5681C53.0772 68.1191 52.1819 69.9117 50.7342 70.7479L44.456 74.3726C45.9026 73.5371 46.7977 71.7465 46.799 69.1984L46.7984 69.1987C46.7984 64.095 43.2157 57.89 38.7963 55.3384L38.797 55.336L38.7955 55.3368Z" fill="#4A21EF"/>
<path d="M33.1377 54.7759L32.8027 54.1956C32.4823 54.3807 32.3725 54.7904 32.5574 55.1108C32.7424 55.4313 33.1521 55.5411 33.4726 55.3562L33.1377 54.7759ZM38.7955 55.3368L38.4605 55.917C38.6678 56.0367 38.9232 56.0367 39.1305 55.917L38.7955 55.3368ZM39.4149 51.1518L39.7499 51.732L39.75 51.7319L39.4149 51.1518ZM45.0738 51.712L45.4088 52.2922C45.6161 52.1726 45.7438 51.9514 45.7438 51.712C45.7438 51.4727 45.6161 51.2515 45.4088 51.1318L45.0738 51.712ZM45.0709 51.7137L44.7359 51.1335C44.4733 51.2851 44.3453 51.5942 44.4238 51.8871C44.5023 52.18 44.7677 52.3837 45.0709 52.3837V51.7137ZM45.0745 51.7137L45.4095 51.1334C45.3077 51.0746 45.1921 51.0437 45.0745 51.0437V51.7137ZM53.0767 65.5684L52.4067 65.5687C52.4068 65.808 52.5345 66.0291 52.7418 66.1487C52.949 66.2683 53.2043 66.2683 53.4116 66.1487L53.0767 65.5684ZM53.0772 65.5681H53.7472C53.7472 65.3287 53.6196 65.1075 53.4123 64.9878C53.205 64.8682 52.9496 64.8681 52.7423 64.9878L53.0772 65.5681ZM50.7342 70.7479L51.0692 71.3281L51.0693 71.328L50.7342 70.7479ZM44.456 74.3726L44.1209 73.7924C43.8004 73.9775 43.6907 74.3872 43.8757 74.7077C44.0608 75.0281 44.4705 75.1378 44.791 74.9528L44.456 74.3726ZM46.799 69.1984L47.469 69.1987C47.4691 68.9593 47.3415 68.738 47.1341 68.6182C46.9268 68.4984 46.6713 68.4984 46.464 68.6181L46.799 69.1984ZM46.7984 69.1987H46.1284C46.1284 69.4381 46.2561 69.6593 46.4634 69.779C46.6707 69.8986 46.9261 69.8986 47.1334 69.7789L46.7984 69.1987ZM38.7963 55.3384L38.1498 55.1623C38.0699 55.4559 38.1978 55.7665 38.4613 55.9187L38.7963 55.3384ZM38.797 55.336L39.4434 55.5121C39.5148 55.2501 39.421 54.971 39.206 54.8053C38.9909 54.6395 38.6971 54.62 38.462 54.7557L38.797 55.336ZM33.4726 55.3562C34.6403 54.6823 36.3731 54.7118 38.4605 55.917L39.1305 54.7565C36.799 53.4105 34.5312 53.1981 32.8028 54.1956L33.4726 55.3562ZM39.0799 50.5715L32.8027 54.1956L33.4727 55.3561L39.7499 51.732L39.0799 50.5715ZM45.4088 51.1318C43.0767 49.7854 40.8083 49.5732 39.0798 50.5716L39.75 51.7319C40.9177 51.0575 42.6508 51.0868 44.7388 52.2923L45.4088 51.1318ZM45.406 52.2939L45.4088 52.2922L44.7387 51.1318L44.7359 51.1335L45.406 52.2939ZM45.0709 52.3837H45.0745V51.0437H45.0709V52.3837ZM44.7395 52.2939C46.8227 53.4966 48.7464 55.587 50.1511 58.0191C51.5559 60.4513 52.4054 63.1626 52.4067 65.5687L53.7467 65.5681C53.7453 62.8716 52.8027 59.9308 51.3115 57.349C49.8203 54.7671 47.7442 52.4814 45.4095 51.1334L44.7395 52.2939ZM52.7423 64.9878L52.7417 64.9881L53.4116 66.1487L53.4122 66.1483L52.7423 64.9878ZM51.0693 71.328C52.7973 70.33 53.7472 68.2601 53.7472 65.5681H52.4072C52.4072 67.9782 51.5665 69.4934 50.3991 70.1677L51.0693 71.328ZM44.791 74.9528L51.0692 71.3281L50.3992 70.1676L44.121 73.7924L44.791 74.9528ZM46.129 69.198C46.1278 71.6052 45.2874 73.1187 44.1209 73.7924L44.791 74.9528C46.5177 73.9555 47.4676 71.8878 47.469 69.1987L46.129 69.198ZM46.464 68.6181L46.4634 68.6185L47.1334 69.7789L47.134 69.7786L46.464 68.6181ZM47.4684 69.1987C47.4684 66.5016 46.5262 63.5596 45.0349 60.9765C43.5436 58.3935 41.4668 56.1066 39.1313 54.7582L38.4613 55.9187C40.5452 57.1218 42.4695 59.2132 43.8744 61.6465C45.2793 64.0798 46.1284 66.7922 46.1284 69.1987H47.4684ZM39.4427 55.5145L39.4434 55.5121L38.1505 55.1598L38.1498 55.1623L39.4427 55.5145ZM39.1305 55.917L39.1319 55.9162L38.462 54.7557L38.4606 54.7565L39.1305 55.917ZM33.4717 55.3567L33.4727 55.3561L32.8026 54.1957L32.8016 54.1963L33.4717 55.3567Z" fill="#0D0B33"/>
<path d="M69.6195 84.9972L64.7162 87.8281C62.7874 86.6177 61.0163 84.6477 59.7042 82.3752C58.3921 80.1027 57.5716 77.5839 57.4877 75.3085L62.391 72.4776C62.6082 74.817 63.4739 77.2735 64.7407 79.4674C66.0074 81.6613 67.702 83.6393 69.6195 84.9972Z" fill="#00FF1E" stroke="#FF0000" stroke-width="1.34" stroke-linejoin="round"/>
<path d="M59.4585 70.3934L62.7784 68.4767C62.524 69.2127 62.3769 70.0463 62.3444 70.9581L57.5592 73.7208C57.7916 72.0354 58.5179 70.9367 59.4584 70.3935C59.4584 70.3935 59.4585 70.3934 59.4585 70.3934Z" fill="#00FF1E" stroke="#FF0000" stroke-width="1.34" stroke-linejoin="round"/>
<path d="M70.907 85.8024C71.7128 86.2301 72.5082 86.5195 73.2728 86.6672L69.9539 88.5834L69.9538 88.5834C69.013 89.1268 67.698 89.2067 66.1218 88.5651L70.907 85.8024Z" fill="#00FF1E" stroke="#FF0000" stroke-width="1.34" stroke-linejoin="round"/>
<path fill-rule="evenodd" clip-rule="evenodd" d="M64.6568 70.3128C62.4504 69.0393 60.4529 68.9186 59.0068 69.7532L65.2762 66.1335C66.7226 65.2982 68.7208 65.4187 70.9281 66.6931L70.9241 66.6954L70.9253 66.6951C75.3385 69.2431 78.9162 75.4387 78.9175 80.5355L78.9224 80.5326C78.9224 83.0805 78.0282 84.8709 76.5823 85.706L70.3118 89.3263C71.757 88.4916 72.6511 86.7026 72.652 84.1567L72.6471 84.1585C72.6471 79.0611 69.0688 72.8638 64.6549 70.3154L64.6568 70.3128Z" fill="#4A21EF"/>
<path d="M59.0068 69.7532L58.6718 69.1729C58.3514 69.3579 58.2416 69.7677 58.4266 70.0881C58.6115 70.4086 59.0213 70.5184 59.3417 70.3334L59.0068 69.7532ZM64.6568 70.3128L65.1926 70.7151C65.3077 70.5618 65.3516 70.3665 65.3132 70.1786C65.2748 69.9908 65.1578 69.8284 64.9917 69.7326L64.6568 70.3128ZM65.2762 66.1335L65.6112 66.7138L65.6113 66.7137L65.2762 66.1335ZM70.9281 66.6931L71.2631 67.2733C71.4704 67.1536 71.5981 66.9325 71.5981 66.6931C71.5981 66.4537 71.4704 66.2325 71.2631 66.1129L70.9281 66.6931ZM70.9241 66.6954L70.5891 66.1152C70.2999 66.2822 70.1778 66.6365 70.3027 66.9461C70.4277 67.2558 70.7615 67.4262 71.0856 67.3457L70.9241 66.6954ZM70.9253 66.6951L71.2603 66.1149C71.1101 66.0282 70.9321 66.0031 70.7638 66.0449L70.9253 66.6951ZM78.9175 80.5355L78.2475 80.5357C78.2476 80.775 78.3753 80.9961 78.5826 81.1158C78.7899 81.2354 79.0453 81.2354 79.2525 81.1157L78.9175 80.5355ZM78.9224 80.5326H79.5924C79.5924 80.2933 79.4647 80.0721 79.2574 79.9524C79.0501 79.8327 78.7947 79.8327 78.5874 79.9524L78.9224 80.5326ZM76.5823 85.706L76.9173 86.2863L76.9174 86.2862L76.5823 85.706ZM70.3118 89.3263L69.9767 88.7461C69.6563 88.9311 69.5466 89.3409 69.7316 89.6613C69.9166 89.9817 70.3264 90.0915 70.6468 89.9065L70.3118 89.3263ZM72.652 84.1567L73.322 84.1569C73.322 83.9376 73.2148 83.7321 73.0348 83.6068C72.8548 83.4815 72.6248 83.4522 72.4192 83.5284L72.652 84.1567ZM72.6471 84.1585H71.9771C71.9771 84.3778 72.0844 84.5832 72.2643 84.7084C72.4443 84.8337 72.6742 84.8629 72.8798 84.7867L72.6471 84.1585ZM64.6549 70.3154L64.1191 69.9131C64.004 70.0664 63.96 70.2617 63.9984 70.4495C64.0368 70.6374 64.1538 70.7998 64.3199 70.8956L64.6549 70.3154ZM59.3417 70.3334C60.5075 69.6607 62.2375 69.69 64.3218 70.8931L64.9917 69.7326C62.6633 68.3886 60.3983 68.1765 58.6719 69.1729L59.3417 70.3334ZM64.9412 65.5533L58.6718 69.1729L59.3418 70.3334L65.6112 66.7138L64.9412 65.5533ZM71.2631 66.1129C68.9338 64.768 66.6679 64.556 64.9411 65.5533L65.6113 66.7137C66.7773 66.0403 68.5079 66.0694 70.5931 67.2733L71.2631 66.1129ZM71.2591 67.2757L71.2631 67.2733L70.5931 66.1129L70.5891 66.1152L71.2591 67.2757ZM71.0856 67.3457L71.0868 67.3454L70.7638 66.0449L70.7626 66.0452L71.0856 67.3457ZM70.5903 67.2754C72.6711 68.4767 74.5926 70.5649 75.9957 72.9945C77.3987 75.4242 78.2469 78.1325 78.2475 80.5357L79.5875 80.5353C79.5868 77.8417 78.6456 74.9038 77.1561 72.3244C75.6666 69.7451 73.5927 67.4615 71.2603 66.1149L70.5903 67.2754ZM78.5874 79.9524L78.5825 79.9553L79.2525 81.1157L79.2574 81.1129L78.5874 79.9524ZM76.9174 86.2862C78.6435 85.2892 79.5924 83.2215 79.5924 80.5326H78.2524C78.2524 82.9396 77.4128 84.4526 76.2472 85.1258L76.9174 86.2862ZM70.6468 89.9065L76.9173 86.2863L76.2473 85.1258L69.9768 88.746L70.6468 89.9065ZM71.982 84.1564C71.9811 86.5614 71.1418 88.0732 69.9767 88.7461L70.6469 89.9065C72.3722 88.91 73.321 86.8438 73.322 84.1569L71.982 84.1564ZM72.4192 83.5284L72.4143 83.5302L72.8798 84.7867L72.8847 84.7849L72.4192 83.5284ZM73.3171 84.1585C73.3171 81.4645 72.376 78.526 70.8864 75.9461C69.3969 73.3662 67.3227 71.082 64.9899 69.7351L64.3199 70.8956C66.401 72.0972 68.3229 74.1859 69.726 76.6161C71.129 79.0463 71.9771 81.7551 71.9771 84.1585H73.3171ZM65.1906 70.7176L65.1926 70.7151L64.121 69.9106L64.1191 69.9131L65.1906 70.7176ZM59.3408 70.334L59.3419 70.3334L58.6718 69.1729L58.6707 69.1736L59.3408 70.334Z" fill="#0D0B33"/>
<path d="M56.812 74.9263C56.812 79.9632 60.3483 86.0879 64.7105 88.6064C69.0727 91.1249 72.609 89.0836 72.609 84.0467C72.609 79.0091 69.0727 72.8844 64.7105 70.3659C60.3483 67.8474 56.812 69.8887 56.812 74.9263Z" fill="#F7F6FF"/>
<path d="M30.9543 59.9974C30.9543 65.0342 34.4906 71.1589 38.8528 73.6774C43.215 76.196 46.7513 74.1546 46.7513 69.1178C46.7513 64.0802 43.215 57.9555 38.8528 55.437C34.4906 52.9184 30.9543 54.9598 30.9543 59.9974Z" fill="#F7F6FF"/>
<path d="M29.5285 83.5906C29.0158 82.1695 30.0351 81.6455 31.0663 82.6874C34.6945 86.353 41.7503 92.8194 51.0758 98.2034C60.4015 103.588 67.4579 105.27 71.0863 105.794C72.1174 105.942 73.1366 107.643 72.6238 108.473C70.3082 112.218 64.2257 118.187 51.0758 110.595C37.926 103.003 31.844 90.0097 29.5285 83.5906Z" fill="#F7F6FF"/>
<path d="M56.812 74.9263C56.812 79.9632 60.3483 86.0879 64.7105 88.6064C69.0727 91.1249 72.609 89.0836 72.609 84.0467C72.609 79.0091 69.0727 72.8844 64.7105 70.3659C60.3483 67.8474 56.812 69.8887 56.812 74.9263Z" stroke="#0D0B33" stroke-width="1.34" stroke-linejoin="round"/>
<path d="M30.9543 59.9974C30.9543 65.0342 34.4906 71.1589 38.8528 73.6774C43.215 76.196 46.7513 74.1546 46.7513 69.1178C46.7513 64.0802 43.215 57.9555 38.8528 55.437C34.4906 52.9184 30.9543 54.9598 30.9543 59.9974Z" stroke="#0D0B33" stroke-width="1.34" stroke-linejoin="round"/>
<path d="M29.5285 83.5906C29.0158 82.1695 30.0351 81.6455 31.0663 82.6874C34.6945 86.353 41.7503 92.8194 51.0758 98.2034C60.4015 103.588 67.4579 105.27 71.0863 105.794C72.1174 105.942 73.1366 107.643 72.6238 108.473C70.3082 112.218 64.2257 118.187 51.0758 110.595C37.926 103.003 31.844 90.0097 29.5285 83.5906Z" stroke="#0D0B33" stroke-width="1.34" stroke-linejoin="round"/>
</svg>
