<svg xmlns="http://www.w3.org/2000/svg" width="132" height="156" fill="none"><path fill="#0D0B33" fill-rule="evenodd" d="M73.68 143.8a11.037 11.037 0 0 0-2.864 2.293c-1.927 2.145-3.194 5.131-3.708 8.736l20.778-11.517c.513-3.605 1.78-6.591 3.709-8.737v.001c.841-.937 1.8-1.703 2.858-2.29l-11.84 6.563-5.246 2.496-2.415 1.751-1.272.704Z" clip-rule="evenodd"/><path fill="#0D0B33" d="m70.816 146.093-.498-.448a.671.671 0 0 0 .823 1.034l-.325-.586Zm2.864-2.293.325.587v-.001l-.325-.586Zm-2.863 2.293.498.448a.67.67 0 0 0-.823-1.034l.325.586Zm-3.709 8.736-.663-.094a.67.67 0 0 0 .988.68l-.325-.586Zm20.778-11.517.325.586a.67.67 0 0 0 .338-.492l-.663-.094Zm3.709-8.737.498.448a.67.67 0 0 0-.787-1.052l.289.604Zm0 .001-.499-.448a.67.67 0 0 0 .787 1.052l-.289-.604Zm2.858-2.29.325.586a.67.67 0 0 0-.65-1.172l.325.586Zm-11.84 6.563.288.605a.536.536 0 0 0 .037-.019l-.325-.586Zm-5.246 2.496-.288-.605a.71.71 0 0 0-.105.063l.393.542Zm-2.415 1.751.325.586a.641.641 0 0 0 .068-.044l-.393-.542Zm-3.637 3.445a10.35 10.35 0 0 1 2.69-2.154l-.65-1.173a11.715 11.715 0 0 0-3.037 2.431l.997.896Zm-.823-1.034.649 1.172-.649-1.172Zm-2.72 9.417c.5-3.508 1.725-6.36 3.543-8.383l-.996-.896c-2.038 2.267-3.347 5.388-3.874 9.09l1.327.189Zm19.79-12.198-20.778 11.517.65 1.172 20.777-11.517-.65-1.172Zm3.535-8.599c-2.038 2.268-3.347 5.388-3.874 9.091l1.326.188c.5-3.508 1.726-6.359 3.544-8.383l-.996-.896Zm.786 1.053-.576-1.209h-.001l.577 1.209Zm2.245-3.48a11.711 11.711 0 0 0-3.032 2.428l.997.895a10.371 10.371 0 0 1 2.685-2.151l-.65-1.172Zm-11.19 7.735 11.84-6.563-.65-1.172-11.84 6.563.65 1.172Zm-5.283 2.515 5.246-2.496-.576-1.21-5.246 2.496.576 1.21Zm-2.31 1.688 2.415-1.75-.787-1.085-2.414 1.75.786 1.085Zm-1.34.748 1.272-.704-.65-1.172-1.271.704.65 1.172Zm20.773-11.514.005-.003-.65-1.172-.005.003.65 1.172Z"/><path fill="#4A21EF" stroke="#0D0B33" stroke-linejoin="round" stroke-width="1.34" d="M22.974 22.785c-3.41-1.671-6.834-4.242-10.018-7.522L33.064 4.117a1.015 1.015 0 0 1 1.207.174c3.03 3.02 6.262 5.399 9.481 6.977l-.002.002h.002c3.408 1.67 6.714 2.399 9.673 2.133l.003-.002c1.666-.147 3.199-.607 4.564-1.363L37.214 23.555c-1.364.756-2.894 1.215-4.558 1.363l-.003.001c-2.96.268-6.269-.461-9.679-2.133l.004-.002-.004.001ZM97.94 152.094c5.232-3.745 9.201-9.391 11.661-16.584l20.778-11.517c-2.46 7.193-6.43 12.839-11.661 16.584L97.94 152.094Z"/><path fill="#8674F5" stroke="#0D0B33" stroke-linejoin="round" stroke-width="1.34" d="M43.787 12.522v.006L64.565 1.011v-.007L43.787 12.522Z"/><path fill="#B4A1FF" stroke="#0D0B33" stroke-linejoin="round" stroke-width="1.34" d="M67.103 25.97c-7.69-6.292-15.628-10.871-23.316-13.448L64.565 1.004C72.253 3.582 80.19 8.16 87.88 14.453L67.103 25.97Z"/><path fill="#0D0B33" fill-rule="evenodd" d="M107.872 95.15c-1.886 1.044-3.441 2.648-4.589 4.746h.001c-1.48 2.705-2.246 6.161-2.242 10.111h.001-.001c0 8.319 3.34 17.664 8.561 25.502l20.777-11.517c-5.221-7.838-8.56-17.183-8.56-25.502h-.001.001c-.005-3.951.762-7.407 2.242-10.112h-.001c1.147-2.096 2.7-3.698 4.584-4.743l-20.773 11.514Z" clip-rule="evenodd"/><path fill="#0D0B33" d="m103.283 99.896-.587-.321a.667.667 0 0 0 .115.796.668.668 0 0 0 .797.111l-.325-.586Zm4.589-4.747.325.586-.325-.586Zm-4.588 4.747.588.322a.67.67 0 0 0-.913-.908l.325.586Zm-2.242 10.111-.67.001a.672.672 0 0 0 .995.585l-.325-.586Zm.001 0 .465.482a.67.67 0 0 0-.79-1.068l.325.586Zm-.001 0-.465-.482a.669.669 0 0 0-.205.482h.67Zm8.561 25.502-.558.372a.67.67 0 0 0 .882.214l-.324-.586Zm20.777-11.517.325.586a.669.669 0 0 0 .233-.957l-.558.371Zm-8.56-25.502h.67a.668.668 0 0 0-.79-.66l.12.66Zm-.001 0-.325-.586a.669.669 0 0 0 .444 1.246l-.119-.66Zm.001 0 .325.586a.67.67 0 0 0 .345-.587h-.67Zm2.242-10.112.588.322a.67.67 0 0 0-.913-.908l.325.586Zm-.001 0-.587-.321a.67.67 0 0 0 .913.907l-.326-.586Zm4.584-4.743.325.586a.67.67 0 0 0-.65-1.172l.325.586Zm-24.774 16.583c1.094-1.999 2.562-3.505 4.326-4.483l-.65-1.172c-2.008 1.113-3.649 2.814-4.851 5.012l1.175.643Zm-.912-.908.649 1.172h.001l-.65-1.172Zm-.263.264c-1.547 2.828-2.328 6.402-2.324 10.434l1.34-.002c-.004-3.868.747-7.207 2.16-9.788l-1.176-.644Zm-1.329 11.019.001-.001-.65-1.171h-.001l.65 1.172Zm-.789-1.069-.001.001.93.965.001-.001-.93-.965Zm-.206.483c0 8.482 3.398 17.955 8.673 25.874l1.115-.743c-5.167-7.757-8.448-16.975-8.448-25.131h-1.34Zm9.555 26.088 20.778-11.517-.65-1.172-20.777 11.517.649 1.172Zm21.011-12.474c-5.167-7.757-8.448-16.975-8.448-25.13h-1.34c0 8.481 3.398 17.953 8.673 25.872l1.115-.742Zm-9.238-25.79h-.001l.239 1.319h.001l-.239-1.32Zm.444 1.245h.001l-.65-1.172h-.001l.65 1.172Zm.346-.587c-.004-3.869.747-7.207 2.16-9.79l-1.176-.643c-1.547 2.828-2.329 6.402-2.324 10.434h1.34Zm1.247-10.697h-.001l.651 1.172-.65-1.172Zm4.583-4.743c-2.006 1.112-3.645 2.812-4.846 5.008l1.175.643c1.093-1.996 2.559-3.502 4.321-4.48l-.65-1.171Zm-20.123 12.686 20.773-11.514-.65-1.172-20.773 11.514.65 1.172Zm20.772-11.514.005-.003-.649-1.172-.005.003.649 1.172Z"/><path fill="#8674F5" stroke="#0D0B33" stroke-linejoin="round" stroke-width="1.34" d="M107.872 95.147a10.89 10.89 0 0 1 1.718-.765l20.778-11.517a10.85 10.85 0 0 0-1.718.765l-20.778 11.517Z"/><path fill="#4A21EF" fill-rule="evenodd" d="M67.102 25.967c.512 4.2 1.78 8.654 3.709 13.028h.007l-.005.003a55.196 55.196 0 0 0 7.433 12.24h-.002c2.961 3.688 6.27 6.78 9.682 9.047l.003-.002c3.41 2.267 6.836 3.65 10.02 4.046l20.778-11.517c-3.185-.396-6.61-1.78-10.022-4.046l-.003.001c-3.41-2.267-6.719-5.358-9.68-9.045h.002a55.196 55.196 0 0 1-7.433-12.241l-.006.003.003-.006c-1.929-4.375-3.197-8.828-3.709-13.028L67.102 25.967Z" clip-rule="evenodd"/><path fill="#0D0B33" d="m70.81 38.995-.612.27a.67.67 0 0 0 .613.4v-.67Zm-3.708-13.028-.325-.586a.67.67 0 0 0-.34.668l.665-.082Zm3.716 13.028.325.586a.67.67 0 0 0-.325-1.256v.67Zm-.005.003-.325-.586a.67.67 0 0 0-.288.856l.613-.27Zm7.433 12.24.325.585a.67.67 0 0 0 .197-1.005l-.522.42Zm-.002 0-.325-.585a.67.67 0 0 0-.197 1.005l.522-.42Zm9.682 9.047-.371.558a.67.67 0 0 0 .696.028l-.325-.586Zm.003-.002.37-.558a.67.67 0 0 0-.695-.028l.325.586Zm10.02 4.046-.083.665a.67.67 0 0 0 .408-.079l-.325-.586Zm20.778-11.517.324.586a.668.668 0 0 0-.242-1.25l-.082.664Zm-10.022-4.046.371-.558a.669.669 0 0 0-.695-.029l.324.587Zm-.003.001-.37.558c.208.139.476.15.695.028l-.325-.586Zm-9.68-9.045-.325-.586a.67.67 0 0 0-.197 1.006l.522-.42Zm.002 0 .325.585a.67.67 0 0 0 .197-1.006l-.522.42ZM91.591 27.48l.613-.27a.67.67 0 0 0-.938-.316l.325.586Zm-.006.003-.58-.336a.67.67 0 0 0 .905.922l-.325-.586Zm.003-.006.58.335a.67.67 0 0 0 .033-.605l-.613.27ZM87.88 14.45l.665-.081a.67.67 0 0 0-.99-.505l.325.586ZM71.424 38.725c-1.906-4.322-3.154-8.712-3.657-12.839l-1.33.163c.52 4.273 1.808 8.79 3.76 13.217l1.227-.541Zm-.606-.4h-.007v1.34h.007v-1.34Zm.32 1.259.005-.003-.65-1.172-.004.003.65 1.172Zm7.63 11.233a54.531 54.531 0 0 1-7.342-12.09l-1.226.541a55.864 55.864 0 0 0 7.524 12.39l1.044-.84Zm-.198 1.007h.001l-.65-1.172h-.002l.65 1.172Zm9.727 7.903c-3.346-2.223-6.606-5.266-9.53-8.908l-1.045.84c2.998 3.732 6.356 6.874 9.833 9.184l.742-1.116Zm-.693-.03-.003.002.65 1.172.002-.002-.65-1.172Zm10.428 3.968c-3.057-.381-6.385-1.715-9.733-3.94l-.741 1.116c3.474 2.309 6.996 3.74 10.308 4.153l.166-1.33Zm20.37-11.439L97.624 63.743l.65 1.172 20.777-11.517-.649-1.172Zm-10.067-2.902c3.474 2.309 6.997 3.74 10.309 4.153l.165-1.33c-3.057-.38-6.385-1.715-9.733-3.94l-.741 1.117Zm.692.03.003-.002-.649-1.172-.003.001.649 1.172ZM98.5 40.141c2.997 3.732 6.356 6.873 9.832 9.183l.741-1.116c-3.345-2.223-6.604-5.265-9.528-8.907l-1.045.84Zm.2-1.007-.003.001.65 1.172.002-.001-.65-1.172Zm-7.722-11.384a55.873 55.873 0 0 0 7.524 12.39l1.044-.84a54.532 54.532 0 0 1-7.342-12.09l-1.226.54Zm.932.319.006-.003-.65-1.172-.006.003.65 1.172Zm-.902-.928-.003.006 1.16.672.003-.007-1.16-.67Zm-3.794-12.61c.521 4.273 1.809 8.79 3.761 13.216l1.226-.54c-1.906-4.322-3.153-8.712-3.657-12.839l-1.33.162ZM67.426 26.552l20.778-11.517-.65-1.172-20.777 11.517.65 1.172Z"/><path fill="#0D0B33" stroke="#0D0B33" stroke-linejoin="round" stroke-width="1.34" d="M109.591 94.384c-2.446-10.033-6.41-20.265-11.644-30.053l20.778-11.517c5.234 9.788 9.198 20.02 11.644 30.053l-20.778 11.517Z"/><path fill="#8674F5" stroke="#0D0B33" stroke-linejoin="round" stroke-width="1.34" d="M43.784 12.52c7.688 2.578 15.627 7.156 23.316 13.449.513 4.2 1.78 8.653 3.71 13.028a55.2 55.2 0 0 0 7.433 12.24c2.961 3.688 6.27 6.78 9.681 9.047 3.412 2.266 6.837 3.65 10.022 4.046 5.233 9.788 9.198 20.02 11.644 30.053-2.671.923-4.827 2.807-6.307 5.512-1.48 2.705-2.247 6.161-2.242 10.112 0 8.318 3.339 17.663 8.56 25.502-2.46 7.193-6.43 12.838-11.66 16.584-3.185-3.279-6.61-5.85-10.02-7.522-3.41-1.671-6.718-2.4-9.678-2.132-2.961.26-5.5 1.51-7.428 3.655-1.928 2.145-3.196 5.132-3.709 8.737-7.687-2.573-15.626-7.147-23.316-13.436-.51-4.202-1.777-8.658-3.706-13.036a55.207 55.207 0 0 0-7.437-12.252c-2.961-3.686-6.27-6.777-9.682-9.043-3.411-2.266-6.836-3.648-10.02-4.043-5.235-9.79-9.2-20.025-11.645-30.06 2.67-.922 4.825-2.804 6.305-5.507 1.48-2.702 2.247-6.155 2.245-10.103.002-3.948-.766-8.29-2.248-12.706C6.12 40.23 3.962 35.856 1.29 31.85 3.75 24.656 7.72 19.01 12.95 15.265c3.184 3.279 6.608 5.85 10.018 7.521 3.41 1.672 6.719 2.4 9.68 2.133 2.96-.26 5.5-1.51 7.427-3.655 1.928-2.146 3.196-5.132 3.709-8.737v-.007Z"/><path fill="#00FF1E" stroke="red" stroke-linejoin="round" stroke-width="1.34" d="M36.36 79.786c-.102-.281-.105-.46-.091-.545v-.003a.437.437 0 0 1 .043.011c.105.034.275.126.48.333 3.652 3.69 10.755 10.2 20.15 15.625 9.402 5.428 16.54 7.137 20.25 7.673.225.032.592.293.865.759.125.215.2.428.226.604.025.179-.008.268-.028.301-.824 1.332-2.133 2.937-4.08 4.061-3.236 1.867-8.445 2.52-16.563-2.167C44.665 98.963 38.655 86.15 36.36 79.786Zm-.136-.553a.01.01 0 0 1-.003 0h.003Zm.058-.041-.001.002.001-.002Zm27.401-7.843c0-2.377.83-3.87 1.978-4.533 1.15-.663 2.856-.636 4.916.553 2.055 1.187 3.953 3.25 5.34 5.65 1.386 2.402 2.223 5.077 2.223 7.45 0 2.378-.829 3.87-1.978 4.533-1.149.664-2.856.636-4.915-.553-2.056-1.186-3.954-3.25-5.34-5.65-1.386-2.4-2.224-5.076-2.224-7.45ZM37.825 56.42c0-2.377.83-3.87 1.978-4.533 1.15-.663 2.857-.636 4.916.553 2.055 1.187 3.954 3.25 5.34 5.65 1.386 2.402 2.223 5.077 2.223 7.45 0 2.378-.829 3.87-1.977 4.533-1.15.664-2.857.636-4.916-.553-2.055-1.186-3.954-3.25-5.34-5.65-1.386-2.4-2.224-5.076-2.224-7.45Z"/><mask id="a" fill="#fff"><path d="M29.529 83.593c-.255-.706-.132-1.19.182-1.372l6.197-3.577c-.314.181-.437.665-.183 1.37l-6.197 3.579Z"/></mask><path fill="#00FF1E" d="M29.529 83.593c-.255-.706-.132-1.19.182-1.372l6.197-3.577c-.314.181-.437.665-.183 1.37l-6.197 3.579Z"/><path fill="red" d="m36.242 79.225-.667-1.163.667 1.163Zm-6.53 2.996.67 1.16-.67-1.16Zm-.183 1.372-1.261.454a1.34 1.34 0 0 0 1.93.706l-.67-1.16Zm6.196-3.578.67 1.16a1.34 1.34 0 0 0 .59-1.615l-1.26.455Zm.183-1.371.67 1.16a1.34 1.34 0 0 0-1.34-2.32l.67 1.16Zm-6.867 2.417c-1.21.698-1.084 2.124-.773 2.986l2.521-.91c-.076-.21-.05-.268-.06-.209a.555.555 0 0 1-.082.2.772.772 0 0 1-.266.254l-1.34-2.321Zm1.157 3.692 6.197-3.578-1.34-2.32-6.197 3.577 1.34 2.321Zm6.788-5.193c-.076-.21-.05-.269-.06-.21a.555.555 0 0 1-.082.2.771.771 0 0 1-.266.254l-1.34-2.32c-1.21.698-1.084 2.123-.773 2.986l2.52-.91Zm-1.748-2.077-6.197 3.578 1.34 2.32 6.197-3.577-1.34-2.32Z" mask="url(#a)"/><path fill="#00FF1E" stroke="red" stroke-linejoin="round" stroke-width="1.34" d="M51.072 109.822C38.7 102.524 32.755 90.354 30.346 83.891l5.021-2.9c2.461 6.525 8.39 18.54 20.576 26.019l-4.87 2.812ZM69.444 111.332l-1.472.849c-3.097 1.788-8.003 2.463-15.54-1.596l4.842-2.795c4.944 2.794 8.952 3.717 12.17 3.542ZM43.765 70.068l-4.903 2.83c-1.93-1.21-3.7-3.18-5.012-5.452-1.312-2.273-2.133-4.792-2.217-7.067l4.903-2.831c.218 2.34 1.083 4.796 2.35 6.99 1.267 2.194 2.961 4.172 4.879 5.53ZM33.604 55.464l3.32-1.917c-.255.736-.402 1.57-.434 2.482l-4.785 2.762c.232-1.685.959-2.784 1.899-3.327ZM45.057 70.871c.806.428 1.602.717 2.366.865l-3.319 1.916c-.94.543-2.256.623-3.832-.018l4.785-2.763Z"/><path fill="#4A21EF" fill-rule="evenodd" d="M29.608 82.121c.324-.17.947.05 1.46.568h.008l-.002.002c3.628 3.665 10.682 10.13 20.006 15.514v.002c9.326 5.384 16.382 7.066 20.01 7.59l.002-.001c1.031.15 2.05 1.85 1.537 2.679l6.197-3.578c.513-.829-.506-2.53-1.538-2.679l-.001.001c-3.629-.524-10.684-2.206-20.009-7.59h.002c-9.325-5.384-16.381-11.85-20.01-15.516l-.008.005.002-.007c-.52-.525-1.036-.652-1.355-.468l-6.3 3.478Z" clip-rule="evenodd"/><path fill="#0D0B33" d="m31.067 82.69-.476.47a.67.67 0 0 0 .476.2v-.67Zm-1.459-.569-.323-.586a.67.67 0 0 0 .636 1.179l-.313-.593Zm1.468.568.335.58a.67.67 0 0 0-.335-1.25v.67Zm-.002.002-.335-.58a.67.67 0 0 0-.141 1.05l.476-.47ZM51.08 98.204l.659.126a.67.67 0 0 0-.323-.706l-.335.58Zm0 .002-.658-.126a.67.67 0 0 0 .323.706l.335-.58Zm20.01 7.59-.095.663c.149.022.3-.008.43-.083l-.334-.58Zm.002-.001.097-.663a.663.663 0 0 0-.432.083l.335.58Zm1.537 2.679-.57-.352a.67.67 0 0 0 .905.932l-.335-.58Zm6.197-3.578.335.581a.678.678 0 0 0 .235-.228l-.57-.353Zm-1.538-2.679.096-.663a.668.668 0 0 0-.43.083l.334.58Zm-.001.001-.096.663c.149.022.3-.008.43-.083l-.334-.58Zm-20.009-7.59-.335-.58a.67.67 0 0 0 0 1.161l.336-.58Zm.002 0 .335.58a.67.67 0 0 0 0-1.16l-.335.58ZM37.27 79.113l.477-.472a.67.67 0 0 0-.811-.109l.335.58Zm-.008.005-.627-.237a.67.67 0 0 0 .962.817l-.335-.58Zm.002-.007.627.237a.67.67 0 0 0-.15-.708l-.477.471Zm-1.355-.468.324.587.011-.007-.335-.58Zm-4.365 3.575a2.988 2.988 0 0 0-1.04-.697c-.333-.127-.797-.21-1.208.008l.625 1.185c-.088.047-.079-.011.109.06.159.06.363.186.561.386l.953-.942Zm-.468-.199h-.009v1.34h.01v-1.34Zm.333 1.252.002-.002-.67-1.16-.002.001.67 1.16Zm20.007 14.354C42.16 92.28 35.153 85.859 31.55 82.219l-.952.943c3.652 3.69 10.754 10.2 20.148 15.623l.67-1.16Zm.322.708v-.002l-1.316-.252v.002l1.316.252Zm19.448 6.801c-3.547-.512-10.522-2.167-19.77-7.508l-.67 1.16c9.401 5.429 16.54 7.138 20.249 7.674l.191-1.326Zm-.429.082-.001.001.67 1.16.001-.001-.67-1.16Zm.239 1.243c.225.033.593.293.865.759.125.215.2.428.226.604.025.179-.008.268-.028.301l1.14.704c.236-.382.268-.816.214-1.193a3.06 3.06 0 0 0-.395-1.091c-.367-.629-1.024-1.293-1.83-1.41l-.192 1.326Zm1.968 2.596 6.197-3.577-.67-1.161-6.197 3.578.67 1.16Zm6.432-3.805c.236-.382.268-.817.214-1.195a3.05 3.05 0 0 0-.395-1.09c-.367-.629-1.025-1.294-1.831-1.41l-.191 1.326c.225.033.592.293.864.759.126.215.202.428.227.604.025.179-.008.268-.028.301l1.14.705Zm-2.443-3.612-.001.001.67 1.16.001-.001-.67-1.16Zm-20.01-6.428c9.401 5.427 16.538 7.136 20.248 7.672l.191-1.326c-3.547-.513-10.52-2.168-19.769-7.507l-.67 1.161Zm.002-1.161h-.002l.67 1.16h.002l-.67-1.16Zm-20.15-14.465c3.652 3.69 10.755 10.2 20.15 15.625l.67-1.16C48.36 88.704 41.35 82.282 37.747 78.64l-.953.943Zm.802.114.009-.005-.67-1.16-.01.005.67 1.16Zm-.96-.824-.002.007 1.253.474.003-.007-1.253-.474Zm-.393.35c-.044.025-.04-.008.065.026.105.033.274.126.479.333l.952-.943c-.58-.586-1.432-1-2.166-.577l.67 1.16Zm-6.312 3.484 6.301-3.478-.647-1.173-6.301 3.478.647 1.173Z"/><path fill="#0D0B33" stroke="#0D0B33" stroke-linejoin="round" stroke-width="1.34" d="M72.623 108.474c-.861 1.392-2.242 3.09-4.312 4.286l6.193-3.575c2.072-1.196 3.454-2.896 4.315-4.289l-6.197 3.578Z"/><path fill="#4A21EF" fill-rule="evenodd" d="M38.795 55.337c-2.209-1.276-4.21-1.397-5.657-.561l6.277-3.624c1.448-.837 3.449-.716 5.659.56l-.003.002h.004c4.417 2.55 8 8.752 8.002 13.854 0 2.551-.895 4.344-2.343 5.18l-6.278 3.625c1.447-.836 2.342-2.627 2.343-5.175 0-5.103-3.583-11.308-8.003-13.86l.001-.002h-.002Z" clip-rule="evenodd"/><path fill="#0D0B33" d="m33.138 54.776-.335-.58a.67.67 0 0 0 .67 1.16l-.335-.58Zm5.657.56-.334.581a.67.67 0 0 0 .67 0l-.336-.58Zm.62-4.184.335.58-.335-.58Zm5.659.56.335.58a.67.67 0 0 0 0-1.16l-.335.58Zm-.003.002-.335-.58a.67.67 0 0 0 .335 1.25v-.67Zm.004 0 .334-.58a.67.67 0 0 0-.334-.09v.67Zm8.002 13.854h-.67a.67.67 0 0 0 1.005.58l-.335-.58Zm0 0h.67a.67.67 0 0 0-1.005-.58l.335.58Zm-2.343 5.18.335.58-.335-.58Zm-6.278 3.625-.335-.58a.67.67 0 1 0 .67 1.16l-.335-.58Zm2.343-5.175h.67a.67.67 0 0 0-1.005-.58l.335.58Zm0 0h-.67a.67.67 0 0 0 1.004.58l-.335-.58Zm-8.003-13.86-.646-.176a.67.67 0 0 0 .311.757l.335-.58Zm.001-.002.646.176a.67.67 0 0 0-.981-.756l.335.58Zm-5.324.02c1.167-.674 2.9-.644 4.988.561l.67-1.16c-2.332-1.346-4.6-1.559-6.328-.561l.67 1.16Zm5.607-4.785-6.277 3.625.67 1.16 6.277-3.624-.67-1.16Zm6.329.56c-2.332-1.346-4.6-1.558-6.33-.56l.671 1.16c1.168-.674 2.9-.644 4.989.561l.67-1.16Zm-.003 1.163.003-.002-.67-1.16-.003.002.67 1.16Zm-.335.09h.004v-1.34h-.004v1.34Zm-.331-.09c2.083 1.203 4.006 3.293 5.411 5.725 1.405 2.432 2.254 5.144 2.256 7.55h1.34c-.002-2.697-.944-5.638-2.435-8.22-1.492-2.582-3.568-4.868-5.902-6.216l-.67 1.16Zm8.002 12.694.67 1.16-.67-1.16Zm-1.673 6.34c1.728-.998 2.678-3.068 2.678-5.76h-1.34c0 2.41-.84 3.925-2.008 4.6l.67 1.16Zm-6.278 3.625 6.278-3.625-.67-1.16-6.278 3.624.67 1.16Zm1.338-5.755c-.001 2.407-.842 3.92-2.008 4.594l.67 1.16c1.727-.996 2.677-3.064 2.678-5.753l-1.34-.001Zm.335-.58.67 1.16-.67-1.16Zm1.004.58c0-2.696-.942-5.638-2.433-8.221-1.491-2.583-3.568-4.87-5.904-6.219l-.67 1.16c2.084 1.204 4.008 3.295 5.413 5.729 1.405 2.433 2.254 5.145 2.254 7.552h1.34Zm-8.025-13.683v-.003l-1.292-.352-.001.002 1.293.352Zm-.313.402h.002l-.67-1.161h-.001l.67 1.161Zm-5.658-.56-.67-1.161.67 1.16Z"/><path fill="#00FF1E" stroke="red" stroke-linejoin="round" stroke-width="1.34" d="m69.62 84.997-4.904 2.831c-1.929-1.21-3.7-3.18-5.012-5.453-1.312-2.272-2.132-4.791-2.216-7.067l4.903-2.83c.217 2.339 1.083 4.796 2.35 6.99 1.266 2.193 2.961 4.171 4.879 5.53ZM59.459 70.393l3.32-1.916c-.255.736-.402 1.57-.435 2.481l-4.785 2.763c.233-1.686.959-2.784 1.9-3.328ZM70.907 85.802c.806.428 1.601.717 2.366.865l-3.32 1.916c-.94.544-2.255.624-3.831-.018l4.785-2.763Z"/><path fill="#4A21EF" fill-rule="evenodd" d="M64.657 70.313c-2.207-1.274-4.204-1.394-5.65-.56l6.27-3.62c1.446-.835 3.444-.714 5.651.56l-.004.002h.001c4.413 2.548 7.991 8.744 7.993 13.84l.004-.002c0 2.547-.894 4.338-2.34 5.173l-6.27 3.62c1.445-.834 2.34-2.623 2.34-5.17l-.005.002c0-5.097-3.578-11.294-7.992-13.843l.002-.002Z" clip-rule="evenodd"/><path fill="#0D0B33" d="m59.007 69.753-.335-.58a.67.67 0 0 0 .67 1.16l-.335-.58Zm5.65.56.536.402a.67.67 0 0 0-.201-.982l-.335.58Zm.62-4.18.334.58-.335-.58Zm5.651.56.335.58a.67.67 0 0 0 0-1.16l-.335.58Zm-.004.002-.335-.58a.67.67 0 0 0 .497 1.23l-.162-.65Zm.001 0 .335-.58a.67.67 0 0 0-.496-.07l.161.65Zm7.993 13.84h-.67a.67.67 0 0 0 1.004.58l-.334-.58Zm.004-.002h.67a.67.67 0 0 0-1.005-.58l.335.58Zm-2.34 5.173.335.58-.335-.58Zm-6.27 3.62-.335-.58a.67.67 0 0 0 .67 1.16l-.335-.58Zm2.34-5.17h.67a.67.67 0 0 0-.903-.628l.233.629Zm-.005.002h-.67a.67.67 0 0 0 .903.629l-.233-.629Zm-7.992-13.843-.536-.402a.67.67 0 0 0 .2.983l.336-.58Zm-5.313.018c1.166-.672 2.895-.643 4.98.56l.67-1.16c-2.329-1.344-4.594-1.556-6.32-.56l.67 1.16Zm5.6-4.78-6.27 3.62.67 1.16 6.27-3.62-.67-1.16Zm6.321.56c-2.33-1.345-4.595-1.557-6.322-.56l.67 1.16c1.166-.673 2.897-.644 4.982.56l.67-1.16Zm-.004 1.163.004-.003-.67-1.16-.004.002.67 1.16Zm-.173.07-.322-1.301h-.001l.323 1.3Zm-.496-.07c2.081 1.2 4.003 3.289 5.406 5.719 1.403 2.43 2.25 5.137 2.252 7.54h1.34c-.001-2.693-.942-5.631-2.432-8.21-1.49-2.58-3.563-4.864-5.896-6.21l-.67 1.16Zm7.997 12.676-.005.003.67 1.16.005-.002-.67-1.16Zm-1.67 6.334c1.727-.997 2.675-3.064 2.675-5.753h-1.34c0 2.407-.84 3.92-2.005 4.593l.67 1.16Zm-6.27 3.62 6.27-3.62-.67-1.16-6.27 3.62.67 1.16Zm1.335-5.75c0 2.405-.84 3.917-2.005 4.59l.67 1.16c1.725-.996 2.674-3.062 2.675-5.75h-1.34Zm.437-.628-.005.002.466 1.257.005-.002-.466-1.257Zm.898.63c0-2.694-.941-5.632-2.43-8.212-1.49-2.58-3.564-4.864-5.897-6.21l-.67 1.16c2.081 1.201 4.003 3.29 5.406 5.72 1.403 2.43 2.251 5.14 2.251 7.543h1.34Zm-8.126-13.44.002-.003-1.072-.804-.002.002 1.072.805Zm-5.85-.384-.67-1.161.67 1.161Z"/><path fill="#F7F6FF" d="M56.812 74.926c0 5.037 3.536 11.162 7.898 13.68 4.363 2.519 7.899.478 7.899-4.56 0-5.037-3.536-11.162-7.898-13.68-4.363-2.519-7.899-.477-7.899 4.56ZM30.954 59.997c0 5.037 3.537 11.162 7.899 13.68 4.362 2.519 7.898.478 7.898-4.56 0-5.037-3.536-11.162-7.898-13.68-4.362-2.519-7.899-.477-7.899 4.56ZM29.529 83.59c-.513-1.42.506-1.945 1.537-.903 3.628 3.666 10.684 10.132 20.01 15.516 9.325 5.385 16.382 7.067 20.01 7.591 1.031.148 2.05 1.849 1.538 2.679-2.316 3.745-8.398 9.714-21.548 2.122-13.15-7.592-19.232-20.585-21.547-27.004Z"/><path stroke="#0D0B33" stroke-linejoin="round" stroke-width="1.34" d="M56.812 74.926c0 5.037 3.536 11.162 7.898 13.68 4.363 2.519 7.899.478 7.899-4.56 0-5.037-3.536-11.162-7.898-13.68-4.363-2.519-7.899-.477-7.899 4.56ZM30.954 59.997c0 5.037 3.537 11.162 7.899 13.68 4.362 2.519 7.898.478 7.898-4.56 0-5.037-3.536-11.162-7.898-13.68-4.362-2.519-7.899-.477-7.899 4.56ZM29.529 83.59c-.513-1.42.506-1.945 1.537-.903 3.628 3.666 10.684 10.132 20.01 15.516 9.325 5.385 16.382 7.067 20.01 7.591 1.031.148 2.05 1.849 1.538 2.679-2.316 3.745-8.398 9.714-21.548 2.122-13.15-7.592-19.232-20.585-21.547-27.004Z"/></svg>