<svg xmlns="http://www.w3.org/2000/svg" width="76" height="123" fill="none"><path fill="#fff" stroke="#0D0B33" stroke-width="1.147" d="M33.054 100.66C15.35 90.128 1 64.891 1 44.292c0-20.599 14.35-28.76 32.054-18.227 17.702 10.532 32.053 35.768 32.053 56.367 0 20.599-14.35 28.76-32.053 18.228Z"/><path fill="#000" fill-rule="evenodd" d="m49.548 57.554-4.852-2.8-7.667 4.335c-2.315 1.309-6.067-.858-8.38-4.838L20.98 41.06l-4.85-2.8 10.092 17.361c3.654 6.286 9.577 9.706 13.231 7.64l10.095-5.708ZM16.068 70.3l4.85 2.8 7.73-4.37c2.315-1.309 6.067.857 8.38 4.838l7.732 13.297 4.85 2.801-10.155-17.47c-3.654-6.285-9.578-9.705-13.232-7.639L16.068 70.3Z" clip-rule="evenodd"/><path fill="#79EFBD" stroke="#0D0B33" stroke-width="1.147" d="M33.054 26.065c-8.756-5.209-16.69-5.846-22.476-2.667l6.362-3.617c12.518-7.119 32.813 4.956 45.331 26.968 12.518 22.013 12.518 45.629 0 52.747l-6.119 3.479.001-.012c5.545-3.406 8.954-10.491 8.954-20.53 0-20.6-14.35-45.836-32.053-56.368Z"/><path fill="#0D0B33" d="m64.902 78.061 6.552-3.634c-.092-3.507-.49-6.038-1.842-11.492l-6.916 3.846c1.11 3.792 1.865 7.586 2.206 11.28ZM59.728 58.544l6.413-3.752c-6.855-14.704-12.092-21.623-24.28-31.21l-6.653 3.847c10.23 6.876 19.147 18.555 24.52 31.115Z"/></svg>